  0
SECTION
  2
HEADER
  9
$ACADVER
  1
AC1018
  9
$HANDSEED
  5
FFFFFFFF
  9
$ANGBASE
  50
0.0
  9
$ANGDIR
  70
1
  9
$MEASUREMENT
  70
1
  9
$INSUNITS
  70
4
  0
ENDSEC
  0
SECTION
  2
TABLES
  0
TABLE
  2
APPID
  5
1
330
0
100
AcDbSymbolTable
 70
1
  0
APPID
  5
2
330
1
100
AcDbSymbolTableRecord
100
AcDbRegAppTableRecord
  2
ACAD
 70
0
  0
ENDTAB
  0
TABLE
  2
LTYPE
  5
3
330
0
100
AcDbSymbolTable
 70
6
  0
LTYPE
  5
4
330
3
100
AcDbSymbolTableRecord
100
AcDbLinetypeTableRecord
  2
ByBlock
 70
0
  3

 72
65
 73
0
 40
0
  0
LTYPE
  5
5
330
3
100
AcDbSymbolTableRecord
100
AcDbLinetypeTableRecord
  2
ByLayer
 70
0
  3

 72
65
 73
0
 40
0
  0
LTYPE
  5
6
330
3
100
AcDbSymbolTableRecord
100
AcDbLinetypeTableRecord
  2
CONTINUOUS
 70
0
  3
Solid line
 72
65
 73
0
 40
0
  0
LTYPE
  5
7
330
3
100
AcDbSymbolTableRecord
100
AcDbLinetypeTableRecord
  2
DASHDOT
 70
0
  3
Dash Dot ____ _ ____ _
 72
65
 73
4
 40
2
 49
1.25
 74
0
 49
-0.25
 74
0
 49
0.25
 74
0
 49
-0.25
 74
0
  0
LTYPE
  5
8
330
3
100
AcDbSymbolTableRecord
100
AcDbLinetypeTableRecord
  2
DASHED
 70
0
  3
Dashed __ __ __ __ __
 72
65
 73
2
 40
0.75
 49
0.5
 74
0
 49
-0.25
 74
0
  0
LTYPE
  5
9
330
3
100
AcDbSymbolTableRecord
100
AcDbLinetypeTableRecord
  2
DOTTED
 70
0
  3
Dotted .  .  .  .
 72
65
 73
2
 40
0.2
 49
0.0
 74
0
 49
-0.2
 74
0
  0
ENDTAB
  0
TABLE
  2
STYLE
  5
A
330
0
100
AcDbSymbolTable
 70
4
  0
STYLE
  5
B
330
A
100
AcDbSymbolTableRecord
100
AcDbTextStyleTableRecord
  2
KICAD
 70
0
 40
0
 41
1
 42
1
 50
0
 71
0
  3
isocp.shx
  0
STYLE
  5
C
330
A
100
AcDbSymbolTableRecord
100
AcDbTextStyleTableRecord
  2
KICADB
 70
0
 40
0
 41
1
 42
1
 50
0
 71
0
  3
isocp.shx
  0
STYLE
  5
D
330
A
100
AcDbSymbolTableRecord
100
AcDbTextStyleTableRecord
  2
KICADI
 70
0
 40
0
 41
1
 42
1
 50
15
 71
0
  3
isocp.shx
  0
STYLE
  5
E
330
A
100
AcDbSymbolTableRecord
100
AcDbTextStyleTableRecord
  2
KICADBI
 70
0
 40
0
 41
1
 42
1
 50
15
 71
0
  3
isocp.shx
  0
ENDTAB
  0
TABLE
  2
LAYER
  5
F
330
0
100
AcDbSymbolTable
 70
2
  0
LAYER
  5
12
330
F
100
AcDbSymbolTableRecord
100
AcDbLayerTableRecord
  2
0
 70
0
 62
7
  6
CONTINUOUS
390
10
  0
LAYER
  5
13
330
F
100
AcDbSymbolTableRecord
100
AcDbLayerTableRecord
  2
BLACK
 70
0
 62
250
  6
CONTINUOUS
390
10
  0
ENDTAB
  0
TABLE
  2
VPORT
  5
14
330
0
100
AcDbSymbolTable
 70
0
  0
ENDTAB
  0
TABLE
  2
VIEW
  5
15
330
0
100
AcDbSymbolTable
 70
0
  0
ENDTAB
  0
TABLE
  2
UCS
  5
16
330
0
100
AcDbSymbolTable
 70
0
  0
ENDTAB
  0
TABLE
  2
DIMSTYLE
  5
17
330
0
100
AcDbSymbolTable
 70
1
100
AcDbDimStyleTable
 71
0
  0
DIMSTYLE
105
18
330
17
100
AcDbSymbolTableRecord
100
AcDbDimStyleTableRecord
  2
Standard
 70
0
  0
ENDTAB
  0
TABLE
  2
BLOCK_RECORD
  5
19
330
0
100
AcDbSymbolTable
 70
3
  0
BLOCK_RECORD
  5
1A
330
19
100
AcDbSymbolTableRecord
100
AcDbBlockTableRecord
  2
*Model_Space
340
1D
 70
0
280
1
281
0
  0
BLOCK_RECORD
  5
1B
330
19
100
AcDbSymbolTableRecord
100
AcDbBlockTableRecord
  2
*Paper_Space
340
1E
 70
0
280
1
281
0
  0
BLOCK_RECORD
  5
1C
330
19
100
AcDbSymbolTableRecord
100
AcDbBlockTableRecord
  2
*Paper_Space0
340
1F
 70
0
280
1
281
0
  0
ENDTAB
  0
ENDSEC
  0
SECTION
  2
BLOCKS
  0
BLOCK
  5
23
330
1A
100
AcDbEntity
  8
0
100
AcDbBlockBegin
  2
*Model_Space
 70
0
 10
0.0
 20
0.0
 30
0.0
  3
*Model_Space
  1

  0
ENDBLK
  5
22
330
1A
100
AcDbEntity
  8
0
100
AcDbBlockEnd
  0
BLOCK
  5
25
330
1B
100
AcDbEntity
 67
1
  8
0
100
AcDbBlockBegin
  2
*Paper_Space
 70
0
 10
0.0
 20
0.0
 30
0.0
  3
*Paper_Space
  1

  0
ENDBLK
  5
24
330
1B
100
AcDbEntity
 67
1
  8
0
100
AcDbBlockEnd
  0
BLOCK
  5
27
330
1C
100
AcDbEntity
 67
1
  8
0
100
AcDbBlockBegin
  2
*Paper_Space0
 70
0
 10
0.0
 20
0.0
 30
0.0
  3
*Paper_Space0
  1

  0
ENDBLK
  5
26
330
1C
100
AcDbEntity
 67
1
  8
0
100
AcDbBlockEnd
  0
ENDSEC
  0
SECTION
  2
ENTITIES
  0
LINE
  5
28
330
1A
100
AcDbEntity
  8
BLACK
  6
CONTINUOUS
100
AcDbLine
 10
127.0599999999999881
 20
-111.6499999999999915
 30
0
 11
126.8399999999999892
 21
-111.6499999999999915
 31
0
  0
LINE
  5
29
330
1A
100
AcDbEntity
  8
BLACK
  6
CONTINUOUS
100
AcDbLine
 10
126.8399999999999892
 20
-111.6499999999999915
 30
0
 11
126.8399999999999892
 21
-111.1899999999999977
 31
0
  0
LINE
  5
2A
330
1A
100
AcDbEntity
  8
BLACK
  6
CONTINUOUS
100
AcDbLine
 10
126.8399999999999892
 20
-111.1899999999999977
 30
0
 11
127.0599999999999881
 21
-111.1899999999999977
 31
0
  0
LINE
  5
2B
330
1A
100
AcDbEntity
  8
BLACK
  6
CONTINUOUS
100
AcDbLine
 10
127.0599999999999881
 20
-111.1899999999999977
 30
0
 11
127.0599999999999881
 21
-111.6499999999999915
 31
0
  0
LINE
  5
2C
330
1A
100
AcDbEntity
  8
BLACK
  6
CONTINUOUS
100
AcDbLine
 10
127.5599999999999881
 20
-111.6499999999999915
 30
0
 11
127.3399999999999892
 21
-111.6499999999999915
 31
0
  0
LINE
  5
2D
330
1A
100
AcDbEntity
  8
BLACK
  6
CONTINUOUS
100
AcDbLine
 10
127.3399999999999892
 20
-111.6499999999999915
 30
0
 11
127.3399999999999892
 21
-111.1899999999999977
 31
0
  0
LINE
  5
2E
330
1A
100
AcDbEntity
  8
BLACK
  6
CONTINUOUS
100
AcDbLine
 10
127.3399999999999892
 20
-111.1899999999999977
 30
0
 11
127.5599999999999881
 21
-111.1899999999999977
 31
0
  0
LINE
  5
2F
330
1A
100
AcDbEntity
  8
BLACK
  6
CONTINUOUS
100
AcDbLine
 10
127.5599999999999881
 20
-111.1899999999999977
 30
0
 11
127.5599999999999881
 21
-111.6499999999999915
 31
0
  0
LINE
  5
30
330
1A
100
AcDbEntity
  8
BLACK
  6
CONTINUOUS
100
AcDbLine
 10
128.0600000000000023
 20
-111.6499999999999915
 30
0
 11
127.8399999999999892
 21
-111.6499999999999915
 31
0
  0
LINE
  5
31
330
1A
100
AcDbEntity
  8
BLACK
  6
CONTINUOUS
100
AcDbLine
 10
127.8399999999999892
 20
-111.6499999999999915
 30
0
 11
127.8399999999999892
 21
-111.1899999999999977
 31
0
  0
LINE
  5
32
330
1A
100
AcDbEntity
  8
BLACK
  6
CONTINUOUS
100
AcDbLine
 10
127.8399999999999892
 20
-111.1899999999999977
 30
0
 11
128.0600000000000023
 21
-111.1899999999999977
 31
0
  0
LINE
  5
33
330
1A
100
AcDbEntity
  8
BLACK
  6
CONTINUOUS
100
AcDbLine
 10
128.0600000000000023
 20
-111.1899999999999977
 30
0
 11
128.0600000000000023
 21
-111.6499999999999915
 31
0
  0
LINE
  5
34
330
1A
100
AcDbEntity
  8
BLACK
  6
CONTINUOUS
100
AcDbLine
 10
131.7599999999999909
 20
-111.6499999999999915
 30
0
 11
131.539999999999992
 21
-111.6499999999999915
 31
0
  0
LINE
  5
35
330
1A
100
AcDbEntity
  8
BLACK
  6
CONTINUOUS
100
AcDbLine
 10
131.539999999999992
 20
-111.6499999999999915
 30
0
 11
131.539999999999992
 21
-111.1899999999999977
 31
0
  0
LINE
  5
36
330
1A
100
AcDbEntity
  8
BLACK
  6
CONTINUOUS
100
AcDbLine
 10
131.539999999999992
 20
-111.1899999999999977
 30
0
 11
131.7599999999999909
 21
-111.1899999999999977
 31
0
  0
LINE
  5
37
330
1A
100
AcDbEntity
  8
BLACK
  6
CONTINUOUS
100
AcDbLine
 10
131.7599999999999909
 20
-111.1899999999999977
 30
0
 11
131.7599999999999909
 21
-111.6499999999999915
 31
0
  0
LINE
  5
38
330
1A
100
AcDbEntity
  8
BLACK
  6
CONTINUOUS
100
AcDbLine
 10
132.2599999999999909
 20
-111.6499999999999915
 30
0
 11
132.039999999999992
 21
-111.6499999999999915
 31
0
  0
LINE
  5
39
330
1A
100
AcDbEntity
  8
BLACK
  6
CONTINUOUS
100
AcDbLine
 10
132.039999999999992
 20
-111.6499999999999915
 30
0
 11
132.039999999999992
 21
-111.1899999999999977
 31
0
  0
LINE
  5
3A
330
1A
100
AcDbEntity
  8
BLACK
  6
CONTINUOUS
100
AcDbLine
 10
132.039999999999992
 20
-111.1899999999999977
 30
0
 11
132.2599999999999909
 21
-111.1899999999999977
 31
0
  0
LINE
  5
3B
330
1A
100
AcDbEntity
  8
BLACK
  6
CONTINUOUS
100
AcDbLine
 10
132.2599999999999909
 20
-111.1899999999999977
 30
0
 11
132.2599999999999909
 21
-111.6499999999999915
 31
0
  0
LINE
  5
3C
330
1A
100
AcDbEntity
  8
BLACK
  6
CONTINUOUS
100
AcDbLine
 10
132.7599999999999909
 20
-111.6499999999999915
 30
0
 11
132.539999999999992
 21
-111.6499999999999915
 31
0
  0
LINE
  5
3D
330
1A
100
AcDbEntity
  8
BLACK
  6
CONTINUOUS
100
AcDbLine
 10
132.539999999999992
 20
-111.6499999999999915
 30
0
 11
132.539999999999992
 21
-111.1899999999999977
 31
0
  0
LINE
  5
3E
330
1A
100
AcDbEntity
  8
BLACK
  6
CONTINUOUS
100
AcDbLine
 10
132.539999999999992
 20
-111.1899999999999977
 30
0
 11
132.7599999999999909
 21
-111.1899999999999977
 31
0
  0
LINE
  5
3F
330
1A
100
AcDbEntity
  8
BLACK
  6
CONTINUOUS
100
AcDbLine
 10
132.7599999999999909
 20
-111.1899999999999977
 30
0
 11
132.7599999999999909
 21
-111.6499999999999915
 31
0
  0
LINE
  5
40
330
1A
100
AcDbEntity
  8
BLACK
  6
CONTINUOUS
100
AcDbLine
 10
136.460000000000008
 20
-111.6499999999999915
 30
0
 11
136.2399999999999807
 21
-111.6499999999999915
 31
0
  0
LINE
  5
41
330
1A
100
AcDbEntity
  8
BLACK
  6
CONTINUOUS
100
AcDbLine
 10
136.2399999999999807
 20
-111.6499999999999915
 30
0
 11
136.2399999999999807
 21
-111.1899999999999977
 31
0
  0
LINE
  5
42
330
1A
100
AcDbEntity
  8
BLACK
  6
CONTINUOUS
100
AcDbLine
 10
136.2399999999999807
 20
-111.1899999999999977
 30
0
 11
136.460000000000008
 21
-111.1899999999999977
 31
0
  0
LINE
  5
43
330
1A
100
AcDbEntity
  8
BLACK
  6
CONTINUOUS
100
AcDbLine
 10
136.460000000000008
 20
-111.1899999999999977
 30
0
 11
136.460000000000008
 21
-111.6499999999999915
 31
0
  0
LINE
  5
44
330
1A
100
AcDbEntity
  8
BLACK
  6
CONTINUOUS
100
AcDbLine
 10
136.960000000000008
 20
-111.6499999999999915
 30
0
 11
136.7399999999999807
 21
-111.6499999999999915
 31
0
  0
LINE
  5
45
330
1A
100
AcDbEntity
  8
BLACK
  6
CONTINUOUS
100
AcDbLine
 10
136.7399999999999807
 20
-111.6499999999999915
 30
0
 11
136.7399999999999807
 21
-111.1899999999999977
 31
0
  0
LINE
  5
46
330
1A
100
AcDbEntity
  8
BLACK
  6
CONTINUOUS
100
AcDbLine
 10
136.7399999999999807
 20
-111.1899999999999977
 30
0
 11
136.960000000000008
 21
-111.1899999999999977
 31
0
  0
LINE
  5
47
330
1A
100
AcDbEntity
  8
BLACK
  6
CONTINUOUS
100
AcDbLine
 10
136.960000000000008
 20
-111.1899999999999977
 30
0
 11
136.960000000000008
 21
-111.6499999999999915
 31
0
  0
LINE
  5
48
330
1A
100
AcDbEntity
  8
BLACK
  6
CONTINUOUS
100
AcDbLine
 10
137.460000000000008
 20
-111.6499999999999915
 30
0
 11
137.2399999999999807
 21
-111.6499999999999915
 31
0
  0
LINE
  5
49
330
1A
100
AcDbEntity
  8
BLACK
  6
CONTINUOUS
100
AcDbLine
 10
137.2399999999999807
 20
-111.6499999999999915
 30
0
 11
137.2399999999999807
 21
-111.1899999999999977
 31
0
  0
LINE
  5
4A
330
1A
100
AcDbEntity
  8
BLACK
  6
CONTINUOUS
100
AcDbLine
 10
137.2399999999999807
 20
-111.1899999999999977
 30
0
 11
137.460000000000008
 21
-111.1899999999999977
 31
0
  0
LINE
  5
4B
330
1A
100
AcDbEntity
  8
BLACK
  6
CONTINUOUS
100
AcDbLine
 10
137.460000000000008
 20
-111.1899999999999977
 30
0
 11
137.460000000000008
 21
-111.6499999999999915
 31
0
  0
LINE
  5
4C
330
1A
100
AcDbEntity
  8
BLACK
  6
CONTINUOUS
100
AcDbLine
 10
141.1599999999999966
 20
-111.6499999999999915
 30
0
 11
140.9399999999999977
 21
-111.6499999999999915
 31
0
  0
LINE
  5
4D
330
1A
100
AcDbEntity
  8
BLACK
  6
CONTINUOUS
100
AcDbLine
 10
140.9399999999999977
 20
-111.6499999999999915
 30
0
 11
140.9399999999999977
 21
-111.1899999999999977
 31
0
  0
LINE
  5
4E
330
1A
100
AcDbEntity
  8
BLACK
  6
CONTINUOUS
100
AcDbLine
 10
140.9399999999999977
 20
-111.1899999999999977
 30
0
 11
141.1599999999999966
 21
-111.1899999999999977
 31
0
  0
LINE
  5
4F
330
1A
100
AcDbEntity
  8
BLACK
  6
CONTINUOUS
100
AcDbLine
 10
141.1599999999999966
 20
-111.1899999999999977
 30
0
 11
141.1599999999999966
 21
-111.6499999999999915
 31
0
  0
LINE
  5
50
330
1A
100
AcDbEntity
  8
BLACK
  6
CONTINUOUS
100
AcDbLine
 10
141.6599999999999966
 20
-111.6499999999999915
 30
0
 11
141.4399999999999977
 21
-111.6499999999999915
 31
0
  0
LINE
  5
51
330
1A
100
AcDbEntity
  8
BLACK
  6
CONTINUOUS
100
AcDbLine
 10
141.4399999999999977
 20
-111.6499999999999915
 30
0
 11
141.4399999999999977
 21
-111.1899999999999977
 31
0
  0
LINE
  5
52
330
1A
100
AcDbEntity
  8
BLACK
  6
CONTINUOUS
100
AcDbLine
 10
141.4399999999999977
 20
-111.1899999999999977
 30
0
 11
141.6599999999999966
 21
-111.1899999999999977
 31
0
  0
LINE
  5
53
330
1A
100
AcDbEntity
  8
BLACK
  6
CONTINUOUS
100
AcDbLine
 10
141.6599999999999966
 20
-111.1899999999999977
 30
0
 11
141.6599999999999966
 21
-111.6499999999999915
 31
0
  0
LINE
  5
54
330
1A
100
AcDbEntity
  8
BLACK
  6
CONTINUOUS
100
AcDbLine
 10
142.1599999999999966
 20
-111.6499999999999915
 30
0
 11
141.9399999999999977
 21
-111.6499999999999915
 31
0
  0
LINE
  5
55
330
1A
100
AcDbEntity
  8
BLACK
  6
CONTINUOUS
100
AcDbLine
 10
141.9399999999999977
 20
-111.6499999999999915
 30
0
 11
141.9399999999999977
 21
-111.1899999999999977
 31
0
  0
LINE
  5
56
330
1A
100
AcDbEntity
  8
BLACK
  6
CONTINUOUS
100
AcDbLine
 10
141.9399999999999977
 20
-111.1899999999999977
 30
0
 11
142.1599999999999966
 21
-111.1899999999999977
 31
0
  0
LINE
  5
57
330
1A
100
AcDbEntity
  8
BLACK
  6
CONTINUOUS
100
AcDbLine
 10
142.1599999999999966
 20
-111.1899999999999977
 30
0
 11
142.1599999999999966
 21
-111.6499999999999915
 31
0
  0
LINE
  5
58
330
1A
100
AcDbEntity
  8
BLACK
  6
CONTINUOUS
100
AcDbLine
 10
127.3519129999999961
 20
-110.3353809999999982
 30
0
 11
127.3546189999999996
 21
-110.3380870000000016
 31
0
  0
LINE
  5
59
330
1A
100
AcDbEntity
  8
BLACK
  6
CONTINUOUS
100
AcDbLine
 10
127.3546189999999996
 20
-110.3380870000000016
 30
0
 11
127.3549999999999898
 21
-110.3399999999999892
 31
0
  0
LINE
  5
5A
330
1A
100
AcDbEntity
  8
BLACK
  6
CONTINUOUS
100
AcDbLine
 10
127.3549999999999898
 20
-110.3399999999999892
 30
0
 11
127.3549999999999898
 21
-110.9599999999999937
 31
0
  0
LINE
  5
5B
330
1A
100
AcDbEntity
  8
BLACK
  6
CONTINUOUS
100
AcDbLine
 10
127.3549999999999898
 20
-110.9599999999999937
 30
0
 11
127.3546189999999996
 21
-110.9619129999999956
 31
0
  0
LINE
  5
5C
330
1A
100
AcDbEntity
  8
BLACK
  6
CONTINUOUS
100
AcDbLine
 10
127.3546189999999996
 20
-110.9619129999999956
 30
0
 11
127.3519129999999961
 21
-110.964618999999999
 31
0
  0
LINE
  5
5D
330
1A
100
AcDbEntity
  8
BLACK
  6
CONTINUOUS
100
AcDbLine
 10
127.3519129999999961
 20
-110.964618999999999
 30
0
 11
127.3499999999999943
 21
-110.9649999999999892
 31
0
  0
LINE
  5
5E
330
1A
100
AcDbEntity
  8
BLACK
  6
CONTINUOUS
100
AcDbLine
 10
127.3499999999999943
 20
-110.9649999999999892
 30
0
 11
126.9899999999999949
 21
-110.9649999999999892
 31
0
  0
LINE
  5
5F
330
1A
100
AcDbEntity
  8
BLACK
  6
CONTINUOUS
100
AcDbLine
 10
126.9899999999999949
 20
-110.9649999999999892
 30
0
 11
126.9880869999999931
 21
-110.964618999999999
 31
0
  0
LINE
  5
60
330
1A
100
AcDbEntity
  8
BLACK
  6
CONTINUOUS
100
AcDbLine
 10
126.9880869999999931
 20
-110.964618999999999
 30
0
 11
126.9853809999999896
 21
-110.9619129999999956
 31
0
  0
LINE
  5
61
330
1A
100
AcDbEntity
  8
BLACK
  6
CONTINUOUS
100
AcDbLine
 10
126.9853809999999896
 20
-110.9619129999999956
 30
0
 11
126.9849999999999994
 21
-110.9599999999999937
 31
0
  0
LINE
  5
62
330
1A
100
AcDbEntity
  8
BLACK
  6
CONTINUOUS
100
AcDbLine
 10
126.9849999999999994
 20
-110.9599999999999937
 30
0
 11
126.9849999999999994
 21
-110.3399999999999892
 31
0
  0
LINE
  5
63
330
1A
100
AcDbEntity
  8
BLACK
  6
CONTINUOUS
100
AcDbLine
 10
126.9849999999999994
 20
-110.3399999999999892
 30
0
 11
126.9853809999999896
 21
-110.3380870000000016
 31
0
  0
LINE
  5
64
330
1A
100
AcDbEntity
  8
BLACK
  6
CONTINUOUS
100
AcDbLine
 10
126.9853809999999896
 20
-110.3380870000000016
 30
0
 11
126.9880869999999931
 21
-110.3353809999999982
 31
0
  0
LINE
  5
65
330
1A
100
AcDbEntity
  8
BLACK
  6
CONTINUOUS
100
AcDbLine
 10
126.9880869999999931
 20
-110.3353809999999982
 30
0
 11
126.9899999999999949
 21
-110.3349999999999937
 31
0
  0
LINE
  5
66
330
1A
100
AcDbEntity
  8
BLACK
  6
CONTINUOUS
100
AcDbLine
 10
126.9899999999999949
 20
-110.3349999999999937
 30
0
 11
127.3499999999999943
 21
-110.3349999999999937
 31
0
  0
LINE
  5
67
330
1A
100
AcDbEntity
  8
BLACK
  6
CONTINUOUS
100
AcDbLine
 10
127.3499999999999943
 20
-110.3349999999999937
 30
0
 11
127.3519129999999961
 21
-110.3353809999999982
 31
0
  0
LINE
  5
68
330
1A
100
AcDbEntity
  8
BLACK
  6
CONTINUOUS
100
AcDbLine
 10
127.9119129999999984
 20
-110.3353809999999982
 30
0
 11
127.9146189999999876
 21
-110.3380870000000016
 31
0
  0
LINE
  5
69
330
1A
100
AcDbEntity
  8
BLACK
  6
CONTINUOUS
100
AcDbLine
 10
127.9146189999999876
 20
-110.3380870000000016
 30
0
 11
127.914999999999992
 21
-110.3399999999999892
 31
0
  0
LINE
  5
6A
330
1A
100
AcDbEntity
  8
BLACK
  6
CONTINUOUS
100
AcDbLine
 10
127.914999999999992
 20
-110.3399999999999892
 30
0
 11
127.914999999999992
 21
-110.9599999999999937
 31
0
  0
LINE
  5
6B
330
1A
100
AcDbEntity
  8
BLACK
  6
CONTINUOUS
100
AcDbLine
 10
127.914999999999992
 20
-110.9599999999999937
 30
0
 11
127.9146189999999876
 21
-110.9619129999999956
 31
0
  0
LINE
  5
6C
330
1A
100
AcDbEntity
  8
BLACK
  6
CONTINUOUS
100
AcDbLine
 10
127.9146189999999876
 20
-110.9619129999999956
 30
0
 11
127.9119129999999984
 21
-110.964618999999999
 31
0
  0
LINE
  5
6D
330
1A
100
AcDbEntity
  8
BLACK
  6
CONTINUOUS
100
AcDbLine
 10
127.9119129999999984
 20
-110.964618999999999
 30
0
 11
127.9099999999999966
 21
-110.9649999999999892
 31
0
  0
LINE
  5
6E
330
1A
100
AcDbEntity
  8
BLACK
  6
CONTINUOUS
100
AcDbLine
 10
127.9099999999999966
 20
-110.9649999999999892
 30
0
 11
127.5499999999999972
 21
-110.9649999999999892
 31
0
  0
LINE
  5
6F
330
1A
100
AcDbEntity
  8
BLACK
  6
CONTINUOUS
100
AcDbLine
 10
127.5499999999999972
 20
-110.9649999999999892
 30
0
 11
127.5480869999999953
 21
-110.964618999999999
 31
0
  0
LINE
  5
70
330
1A
100
AcDbEntity
  8
BLACK
  6
CONTINUOUS
100
AcDbLine
 10
127.5480869999999953
 20
-110.964618999999999
 30
0
 11
127.5453809999999919
 21
-110.9619129999999956
 31
0
  0
LINE
  5
71
330
1A
100
AcDbEntity
  8
BLACK
  6
CONTINUOUS
100
AcDbLine
 10
127.5453809999999919
 20
-110.9619129999999956
 30
0
 11
127.5449999999999875
 21
-110.9599999999999937
 31
0
  0
LINE
  5
72
330
1A
100
AcDbEntity
  8
BLACK
  6
CONTINUOUS
100
AcDbLine
 10
127.5449999999999875
 20
-110.9599999999999937
 30
0
 11
127.5449999999999875
 21
-110.3399999999999892
 31
0
  0
LINE
  5
73
330
1A
100
AcDbEntity
  8
BLACK
  6
CONTINUOUS
100
AcDbLine
 10
127.5449999999999875
 20
-110.3399999999999892
 30
0
 11
127.5453809999999919
 21
-110.3380870000000016
 31
0
  0
LINE
  5
74
330
1A
100
AcDbEntity
  8
BLACK
  6
CONTINUOUS
100
AcDbLine
 10
127.5453809999999919
 20
-110.3380870000000016
 30
0
 11
127.5480869999999953
 21
-110.3353809999999982
 31
0
  0
LINE
  5
75
330
1A
100
AcDbEntity
  8
BLACK
  6
CONTINUOUS
100
AcDbLine
 10
127.5480869999999953
 20
-110.3353809999999982
 30
0
 11
127.5499999999999972
 21
-110.3349999999999937
 31
0
  0
LINE
  5
76
330
1A
100
AcDbEntity
  8
BLACK
  6
CONTINUOUS
100
AcDbLine
 10
127.5499999999999972
 20
-110.3349999999999937
 30
0
 11
127.9099999999999966
 21
-110.3349999999999937
 31
0
  0
LINE
  5
77
330
1A
100
AcDbEntity
  8
BLACK
  6
CONTINUOUS
100
AcDbLine
 10
127.9099999999999966
 20
-110.3349999999999937
 30
0
 11
127.9119129999999984
 21
-110.3353809999999982
 31
0
  0
LINE
  5
78
330
1A
100
AcDbEntity
  8
BLACK
  6
CONTINUOUS
100
AcDbLine
 10
132.0519129999999848
 20
-110.3353809999999982
 30
0
 11
132.0546190000000024
 21
-110.3380870000000016
 31
0
  0
LINE
  5
79
330
1A
100
AcDbEntity
  8
BLACK
  6
CONTINUOUS
100
AcDbLine
 10
132.0546190000000024
 20
-110.3380870000000016
 30
0
 11
132.0550000000000068
 21
-110.3399999999999892
 31
0
  0
LINE
  5
7A
330
1A
100
AcDbEntity
  8
BLACK
  6
CONTINUOUS
100
AcDbLine
 10
132.0550000000000068
 20
-110.3399999999999892
 30
0
 11
132.0550000000000068
 21
-110.9599999999999937
 31
0
  0
LINE
  5
7B
330
1A
100
AcDbEntity
  8
BLACK
  6
CONTINUOUS
100
AcDbLine
 10
132.0550000000000068
 20
-110.9599999999999937
 30
0
 11
132.0546190000000024
 21
-110.9619129999999956
 31
0
  0
LINE
  5
7C
330
1A
100
AcDbEntity
  8
BLACK
  6
CONTINUOUS
100
AcDbLine
 10
132.0546190000000024
 20
-110.9619129999999956
 30
0
 11
132.0519129999999848
 21
-110.964618999999999
 31
0
  0
LINE
  5
7D
330
1A
100
AcDbEntity
  8
BLACK
  6
CONTINUOUS
100
AcDbLine
 10
132.0519129999999848
 20
-110.964618999999999
 30
0
 11
132.0499999999999829
 21
-110.9649999999999892
 31
0
  0
LINE
  5
7E
330
1A
100
AcDbEntity
  8
BLACK
  6
CONTINUOUS
100
AcDbLine
 10
132.0499999999999829
 20
-110.9649999999999892
 30
0
 11
131.6899999999999977
 21
-110.9649999999999892
 31
0
  0
LINE
  5
7F
330
1A
100
AcDbEntity
  8
BLACK
  6
CONTINUOUS
100
AcDbLine
 10
131.6899999999999977
 20
-110.9649999999999892
 30
0
 11
131.6880869999999959
 21
-110.964618999999999
 31
0
  0
LINE
  5
80
330
1A
100
AcDbEntity
  8
BLACK
  6
CONTINUOUS
100
AcDbLine
 10
131.6880869999999959
 20
-110.964618999999999
 30
0
 11
131.6853810000000067
 21
-110.9619129999999956
 31
0
  0
LINE
  5
81
330
1A
100
AcDbEntity
  8
BLACK
  6
CONTINUOUS
100
AcDbLine
 10
131.6853810000000067
 20
-110.9619129999999956
 30
0
 11
131.6850000000000023
 21
-110.9599999999999937
 31
0
  0
LINE
  5
82
330
1A
100
AcDbEntity
  8
BLACK
  6
CONTINUOUS
100
AcDbLine
 10
131.6850000000000023
 20
-110.9599999999999937
 30
0
 11
131.6850000000000023
 21
-110.3399999999999892
 31
0
  0
LINE
  5
83
330
1A
100
AcDbEntity
  8
BLACK
  6
CONTINUOUS
100
AcDbLine
 10
131.6850000000000023
 20
-110.3399999999999892
 30
0
 11
131.6853810000000067
 21
-110.3380870000000016
 31
0
  0
LINE
  5
84
330
1A
100
AcDbEntity
  8
BLACK
  6
CONTINUOUS
100
AcDbLine
 10
131.6853810000000067
 20
-110.3380870000000016
 30
0
 11
131.6880869999999959
 21
-110.3353809999999982
 31
0
  0
LINE
  5
85
330
1A
100
AcDbEntity
  8
BLACK
  6
CONTINUOUS
100
AcDbLine
 10
131.6880869999999959
 20
-110.3353809999999982
 30
0
 11
131.6899999999999977
 21
-110.3349999999999937
 31
0
  0
LINE
  5
86
330
1A
100
AcDbEntity
  8
BLACK
  6
CONTINUOUS
100
AcDbLine
 10
131.6899999999999977
 20
-110.3349999999999937
 30
0
 11
132.0499999999999829
 21
-110.3349999999999937
 31
0
  0
LINE
  5
87
330
1A
100
AcDbEntity
  8
BLACK
  6
CONTINUOUS
100
AcDbLine
 10
132.0499999999999829
 20
-110.3349999999999937
 30
0
 11
132.0519129999999848
 21
-110.3353809999999982
 31
0
  0
LINE
  5
88
330
1A
100
AcDbEntity
  8
BLACK
  6
CONTINUOUS
100
AcDbLine
 10
132.6119129999999871
 20
-110.3353809999999982
 30
0
 11
132.6146190000000047
 21
-110.3380870000000016
 31
0
  0
LINE
  5
89
330
1A
100
AcDbEntity
  8
BLACK
  6
CONTINUOUS
100
AcDbLine
 10
132.6146190000000047
 20
-110.3380870000000016
 30
0
 11
132.6149999999999807
 21
-110.3399999999999892
 31
0
  0
LINE
  5
8A
330
1A
100
AcDbEntity
  8
BLACK
  6
CONTINUOUS
100
AcDbLine
 10
132.6149999999999807
 20
-110.3399999999999892
 30
0
 11
132.6149999999999807
 21
-110.9599999999999937
 31
0
  0
LINE
  5
8B
330
1A
100
AcDbEntity
  8
BLACK
  6
CONTINUOUS
100
AcDbLine
 10
132.6149999999999807
 20
-110.9599999999999937
 30
0
 11
132.6146190000000047
 21
-110.9619129999999956
 31
0
  0
LINE
  5
8C
330
1A
100
AcDbEntity
  8
BLACK
  6
CONTINUOUS
100
AcDbLine
 10
132.6146190000000047
 20
-110.9619129999999956
 30
0
 11
132.6119129999999871
 21
-110.964618999999999
 31
0
  0
LINE
  5
8D
330
1A
100
AcDbEntity
  8
BLACK
  6
CONTINUOUS
100
AcDbLine
 10
132.6119129999999871
 20
-110.964618999999999
 30
0
 11
132.6099999999999852
 21
-110.9649999999999892
 31
0
  0
LINE
  5
8E
330
1A
100
AcDbEntity
  8
BLACK
  6
CONTINUOUS
100
AcDbLine
 10
132.6099999999999852
 20
-110.9649999999999892
 30
0
 11
132.25
 21
-110.9649999999999892
 31
0
  0
LINE
  5
8F
330
1A
100
AcDbEntity
  8
BLACK
  6
CONTINUOUS
100
AcDbLine
 10
132.25
 20
-110.9649999999999892
 30
0
 11
132.2480869999999982
 21
-110.964618999999999
 31
0
  0
LINE
  5
90
330
1A
100
AcDbEntity
  8
BLACK
  6
CONTINUOUS
100
AcDbLine
 10
132.2480869999999982
 20
-110.964618999999999
 30
0
 11
132.2453809999999805
 21
-110.9619129999999956
 31
0
  0
LINE
  5
91
330
1A
100
AcDbEntity
  8
BLACK
  6
CONTINUOUS
100
AcDbLine
 10
132.2453809999999805
 20
-110.9619129999999956
 30
0
 11
132.2450000000000045
 21
-110.9599999999999937
 31
0
  0
LINE
  5
92
330
1A
100
AcDbEntity
  8
BLACK
  6
CONTINUOUS
100
AcDbLine
 10
132.2450000000000045
 20
-110.9599999999999937
 30
0
 11
132.2450000000000045
 21
-110.3399999999999892
 31
0
  0
LINE
  5
93
330
1A
100
AcDbEntity
  8
BLACK
  6
CONTINUOUS
100
AcDbLine
 10
132.2450000000000045
 20
-110.3399999999999892
 30
0
 11
132.2453809999999805
 21
-110.3380870000000016
 31
0
  0
LINE
  5
94
330
1A
100
AcDbEntity
  8
BLACK
  6
CONTINUOUS
100
AcDbLine
 10
132.2453809999999805
 20
-110.3380870000000016
 30
0
 11
132.2480869999999982
 21
-110.3353809999999982
 31
0
  0
LINE
  5
95
330
1A
100
AcDbEntity
  8
BLACK
  6
CONTINUOUS
100
AcDbLine
 10
132.2480869999999982
 20
-110.3353809999999982
 30
0
 11
132.25
 21
-110.3349999999999937
 31
0
  0
LINE
  5
96
330
1A
100
AcDbEntity
  8
BLACK
  6
CONTINUOUS
100
AcDbLine
 10
132.25
 20
-110.3349999999999937
 30
0
 11
132.6099999999999852
 21
-110.3349999999999937
 31
0
  0
LINE
  5
97
330
1A
100
AcDbEntity
  8
BLACK
  6
CONTINUOUS
100
AcDbLine
 10
132.6099999999999852
 20
-110.3349999999999937
 30
0
 11
132.6119129999999871
 21
-110.3353809999999982
 31
0
  0
LINE
  5
98
330
1A
100
AcDbEntity
  8
BLACK
  6
CONTINUOUS
100
AcDbLine
 10
136.7519130000000018
 20
-110.3353809999999982
 30
0
 11
136.754618999999991
 21
-110.3380870000000016
 31
0
  0
LINE
  5
99
330
1A
100
AcDbEntity
  8
BLACK
  6
CONTINUOUS
100
AcDbLine
 10
136.754618999999991
 20
-110.3380870000000016
 30
0
 11
136.7549999999999955
 21
-110.3399999999999892
 31
0
  0
LINE
  5
9A
330
1A
100
AcDbEntity
  8
BLACK
  6
CONTINUOUS
100
AcDbLine
 10
136.7549999999999955
 20
-110.3399999999999892
 30
0
 11
136.7549999999999955
 21
-110.9599999999999937
 31
0
  0
LINE
  5
9B
330
1A
100
AcDbEntity
  8
BLACK
  6
CONTINUOUS
100
AcDbLine
 10
136.7549999999999955
 20
-110.9599999999999937
 30
0
 11
136.754618999999991
 21
-110.9619129999999956
 31
0
  0
LINE
  5
9C
330
1A
100
AcDbEntity
  8
BLACK
  6
CONTINUOUS
100
AcDbLine
 10
136.754618999999991
 20
-110.9619129999999956
 30
0
 11
136.7519130000000018
 21
-110.964618999999999
 31
0
  0
LINE
  5
9D
330
1A
100
AcDbEntity
  8
BLACK
  6
CONTINUOUS
100
AcDbLine
 10
136.7519130000000018
 20
-110.964618999999999
 30
0
 11
136.75
 21
-110.9649999999999892
 31
0
  0
LINE
  5
9E
330
1A
100
AcDbEntity
  8
BLACK
  6
CONTINUOUS
100
AcDbLine
 10
136.75
 20
-110.9649999999999892
 30
0
 11
136.3899999999999864
 21
-110.9649999999999892
 31
0
  0
LINE
  5
9F
330
1A
100
AcDbEntity
  8
BLACK
  6
CONTINUOUS
100
AcDbLine
 10
136.3899999999999864
 20
-110.9649999999999892
 30
0
 11
136.3880869999999845
 21
-110.964618999999999
 31
0
  0
LINE
  5
A0
330
1A
100
AcDbEntity
  8
BLACK
  6
CONTINUOUS
100
AcDbLine
 10
136.3880869999999845
 20
-110.964618999999999
 30
0
 11
136.3853809999999953
 21
-110.9619129999999956
 31
0
  0
LINE
  5
A1
330
1A
100
AcDbEntity
  8
BLACK
  6
CONTINUOUS
100
AcDbLine
 10
136.3853809999999953
 20
-110.9619129999999956
 30
0
 11
136.3849999999999909
 21
-110.9599999999999937
 31
0
  0
LINE
  5
A2
330
1A
100
AcDbEntity
  8
BLACK
  6
CONTINUOUS
100
AcDbLine
 10
136.3849999999999909
 20
-110.9599999999999937
 30
0
 11
136.3849999999999909
 21
-110.3399999999999892
 31
0
  0
LINE
  5
A3
330
1A
100
AcDbEntity
  8
BLACK
  6
CONTINUOUS
100
AcDbLine
 10
136.3849999999999909
 20
-110.3399999999999892
 30
0
 11
136.3853809999999953
 21
-110.3380870000000016
 31
0
  0
LINE
  5
A4
330
1A
100
AcDbEntity
  8
BLACK
  6
CONTINUOUS
100
AcDbLine
 10
136.3853809999999953
 20
-110.3380870000000016
 30
0
 11
136.3880869999999845
 21
-110.3353809999999982
 31
0
  0
LINE
  5
A5
330
1A
100
AcDbEntity
  8
BLACK
  6
CONTINUOUS
100
AcDbLine
 10
136.3880869999999845
 20
-110.3353809999999982
 30
0
 11
136.3899999999999864
 21
-110.3349999999999937
 31
0
  0
LINE
  5
A6
330
1A
100
AcDbEntity
  8
BLACK
  6
CONTINUOUS
100
AcDbLine
 10
136.3899999999999864
 20
-110.3349999999999937
 30
0
 11
136.75
 21
-110.3349999999999937
 31
0
  0
LINE
  5
A7
330
1A
100
AcDbEntity
  8
BLACK
  6
CONTINUOUS
100
AcDbLine
 10
136.75
 20
-110.3349999999999937
 30
0
 11
136.7519130000000018
 21
-110.3353809999999982
 31
0
  0
LINE
  5
A8
330
1A
100
AcDbEntity
  8
BLACK
  6
CONTINUOUS
100
AcDbLine
 10
137.3119130000000041
 20
-110.3353809999999982
 30
0
 11
137.3146189999999933
 21
-110.3380870000000016
 31
0
  0
LINE
  5
A9
330
1A
100
AcDbEntity
  8
BLACK
  6
CONTINUOUS
100
AcDbLine
 10
137.3146189999999933
 20
-110.3380870000000016
 30
0
 11
137.3149999999999977
 21
-110.3399999999999892
 31
0
  0
LINE
  5
AA
330
1A
100
AcDbEntity
  8
BLACK
  6
CONTINUOUS
100
AcDbLine
 10
137.3149999999999977
 20
-110.3399999999999892
 30
0
 11
137.3149999999999977
 21
-110.9599999999999937
 31
0
  0
LINE
  5
AB
330
1A
100
AcDbEntity
  8
BLACK
  6
CONTINUOUS
100
AcDbLine
 10
137.3149999999999977
 20
-110.9599999999999937
 30
0
 11
137.3146189999999933
 21
-110.9619129999999956
 31
0
  0
LINE
  5
AC
330
1A
100
AcDbEntity
  8
BLACK
  6
CONTINUOUS
100
AcDbLine
 10
137.3146189999999933
 20
-110.9619129999999956
 30
0
 11
137.3119130000000041
 21
-110.964618999999999
 31
0
  0
LINE
  5
AD
330
1A
100
AcDbEntity
  8
BLACK
  6
CONTINUOUS
100
AcDbLine
 10
137.3119130000000041
 20
-110.964618999999999
 30
0
 11
137.3100000000000023
 21
-110.9649999999999892
 31
0
  0
LINE
  5
AE
330
1A
100
AcDbEntity
  8
BLACK
  6
CONTINUOUS
100
AcDbLine
 10
137.3100000000000023
 20
-110.9649999999999892
 30
0
 11
136.9499999999999886
 21
-110.9649999999999892
 31
0
  0
LINE
  5
AF
330
1A
100
AcDbEntity
  8
BLACK
  6
CONTINUOUS
100
AcDbLine
 10
136.9499999999999886
 20
-110.9649999999999892
 30
0
 11
136.9480869999999868
 21
-110.964618999999999
 31
0
  0
LINE
  5
B0
330
1A
100
AcDbEntity
  8
BLACK
  6
CONTINUOUS
100
AcDbLine
 10
136.9480869999999868
 20
-110.964618999999999
 30
0
 11
136.9453809999999976
 21
-110.9619129999999956
 31
0
  0
LINE
  5
B1
330
1A
100
AcDbEntity
  8
BLACK
  6
CONTINUOUS
100
AcDbLine
 10
136.9453809999999976
 20
-110.9619129999999956
 30
0
 11
136.9449999999999932
 21
-110.9599999999999937
 31
0
  0
LINE
  5
B2
330
1A
100
AcDbEntity
  8
BLACK
  6
CONTINUOUS
100
AcDbLine
 10
136.9449999999999932
 20
-110.9599999999999937
 30
0
 11
136.9449999999999932
 21
-110.3399999999999892
 31
0
  0
LINE
  5
B3
330
1A
100
AcDbEntity
  8
BLACK
  6
CONTINUOUS
100
AcDbLine
 10
136.9449999999999932
 20
-110.3399999999999892
 30
0
 11
136.9453809999999976
 21
-110.3380870000000016
 31
0
  0
LINE
  5
B4
330
1A
100
AcDbEntity
  8
BLACK
  6
CONTINUOUS
100
AcDbLine
 10
136.9453809999999976
 20
-110.3380870000000016
 30
0
 11
136.9480869999999868
 21
-110.3353809999999982
 31
0
  0
LINE
  5
B5
330
1A
100
AcDbEntity
  8
BLACK
  6
CONTINUOUS
100
AcDbLine
 10
136.9480869999999868
 20
-110.3353809999999982
 30
0
 11
136.9499999999999886
 21
-110.3349999999999937
 31
0
  0
LINE
  5
B6
330
1A
100
AcDbEntity
  8
BLACK
  6
CONTINUOUS
100
AcDbLine
 10
136.9499999999999886
 20
-110.3349999999999937
 30
0
 11
137.3100000000000023
 21
-110.3349999999999937
 31
0
  0
LINE
  5
B7
330
1A
100
AcDbEntity
  8
BLACK
  6
CONTINUOUS
100
AcDbLine
 10
137.3100000000000023
 20
-110.3349999999999937
 30
0
 11
137.3119130000000041
 21
-110.3353809999999982
 31
0
  0
LINE
  5
B8
330
1A
100
AcDbEntity
  8
BLACK
  6
CONTINUOUS
100
AcDbLine
 10
141.4519129999999905
 20
-110.3353809999999982
 30
0
 11
141.4546189999999797
 21
-110.3380870000000016
 31
0
  0
LINE
  5
B9
330
1A
100
AcDbEntity
  8
BLACK
  6
CONTINUOUS
100
AcDbLine
 10
141.4546189999999797
 20
-110.3380870000000016
 30
0
 11
141.4549999999999841
 21
-110.3399999999999892
 31
0
  0
LINE
  5
BA
330
1A
100
AcDbEntity
  8
BLACK
  6
CONTINUOUS
100
AcDbLine
 10
141.4549999999999841
 20
-110.3399999999999892
 30
0
 11
141.4549999999999841
 21
-110.9599999999999937
 31
0
  0
LINE
  5
BB
330
1A
100
AcDbEntity
  8
BLACK
  6
CONTINUOUS
100
AcDbLine
 10
141.4549999999999841
 20
-110.9599999999999937
 30
0
 11
141.4546189999999797
 21
-110.9619129999999956
 31
0
  0
LINE
  5
BC
330
1A
100
AcDbEntity
  8
BLACK
  6
CONTINUOUS
100
AcDbLine
 10
141.4546189999999797
 20
-110.9619129999999956
 30
0
 11
141.4519129999999905
 21
-110.964618999999999
 31
0
  0
LINE
  5
BD
330
1A
100
AcDbEntity
  8
BLACK
  6
CONTINUOUS
100
AcDbLine
 10
141.4519129999999905
 20
-110.964618999999999
 30
0
 11
141.4499999999999886
 21
-110.9649999999999892
 31
0
  0
LINE
  5
BE
330
1A
100
AcDbEntity
  8
BLACK
  6
CONTINUOUS
100
AcDbLine
 10
141.4499999999999886
 20
-110.9649999999999892
 30
0
 11
141.0900000000000034
 21
-110.9649999999999892
 31
0
  0
LINE
  5
BF
330
1A
100
AcDbEntity
  8
BLACK
  6
CONTINUOUS
100
AcDbLine
 10
141.0900000000000034
 20
-110.9649999999999892
 30
0
 11
141.0880870000000016
 21
-110.964618999999999
 31
0
  0
LINE
  5
C0
330
1A
100
AcDbEntity
  8
BLACK
  6
CONTINUOUS
100
AcDbLine
 10
141.0880870000000016
 20
-110.964618999999999
 30
0
 11
141.0853809999999839
 21
-110.9619129999999956
 31
0
  0
LINE
  5
C1
330
1A
100
AcDbEntity
  8
BLACK
  6
CONTINUOUS
100
AcDbLine
 10
141.0853809999999839
 20
-110.9619129999999956
 30
0
 11
141.0849999999999795
 21
-110.9599999999999937
 31
0
  0
LINE
  5
C2
330
1A
100
AcDbEntity
  8
BLACK
  6
CONTINUOUS
100
AcDbLine
 10
141.0849999999999795
 20
-110.9599999999999937
 30
0
 11
141.0849999999999795
 21
-110.3399999999999892
 31
0
  0
LINE
  5
C3
330
1A
100
AcDbEntity
  8
BLACK
  6
CONTINUOUS
100
AcDbLine
 10
141.0849999999999795
 20
-110.3399999999999892
 30
0
 11
141.0853809999999839
 21
-110.3380870000000016
 31
0
  0
LINE
  5
C4
330
1A
100
AcDbEntity
  8
BLACK
  6
CONTINUOUS
100
AcDbLine
 10
141.0853809999999839
 20
-110.3380870000000016
 30
0
 11
141.0880870000000016
 21
-110.3353809999999982
 31
0
  0
LINE
  5
C5
330
1A
100
AcDbEntity
  8
BLACK
  6
CONTINUOUS
100
AcDbLine
 10
141.0880870000000016
 20
-110.3353809999999982
 30
0
 11
141.0900000000000034
 21
-110.3349999999999937
 31
0
  0
LINE
  5
C6
330
1A
100
AcDbEntity
  8
BLACK
  6
CONTINUOUS
100
AcDbLine
 10
141.0900000000000034
 20
-110.3349999999999937
 30
0
 11
141.4499999999999886
 21
-110.3349999999999937
 31
0
  0
LINE
  5
C7
330
1A
100
AcDbEntity
  8
BLACK
  6
CONTINUOUS
100
AcDbLine
 10
141.4499999999999886
 20
-110.3349999999999937
 30
0
 11
141.4519129999999905
 21
-110.3353809999999982
 31
0
  0
LINE
  5
C8
330
1A
100
AcDbEntity
  8
BLACK
  6
CONTINUOUS
100
AcDbLine
 10
142.0119129999999927
 20
-110.3353809999999982
 30
0
 11
142.014618999999982
 21
-110.3380870000000016
 31
0
  0
LINE
  5
C9
330
1A
100
AcDbEntity
  8
BLACK
  6
CONTINUOUS
100
AcDbLine
 10
142.014618999999982
 20
-110.3380870000000016
 30
0
 11
142.0149999999999864
 21
-110.3399999999999892
 31
0
  0
LINE
  5
CA
330
1A
100
AcDbEntity
  8
BLACK
  6
CONTINUOUS
100
AcDbLine
 10
142.0149999999999864
 20
-110.3399999999999892
 30
0
 11
142.0149999999999864
 21
-110.9599999999999937
 31
0
  0
LINE
  5
CB
330
1A
100
AcDbEntity
  8
BLACK
  6
CONTINUOUS
100
AcDbLine
 10
142.0149999999999864
 20
-110.9599999999999937
 30
0
 11
142.014618999999982
 21
-110.9619129999999956
 31
0
  0
LINE
  5
CC
330
1A
100
AcDbEntity
  8
BLACK
  6
CONTINUOUS
100
AcDbLine
 10
142.014618999999982
 20
-110.9619129999999956
 30
0
 11
142.0119129999999927
 21
-110.964618999999999
 31
0
  0
LINE
  5
CD
330
1A
100
AcDbEntity
  8
BLACK
  6
CONTINUOUS
100
AcDbLine
 10
142.0119129999999927
 20
-110.964618999999999
 30
0
 11
142.0099999999999909
 21
-110.9649999999999892
 31
0
  0
LINE
  5
CE
330
1A
100
AcDbEntity
  8
BLACK
  6
CONTINUOUS
100
AcDbLine
 10
142.0099999999999909
 20
-110.9649999999999892
 30
0
 11
141.6500000000000057
 21
-110.9649999999999892
 31
0
  0
LINE
  5
CF
330
1A
100
AcDbEntity
  8
BLACK
  6
CONTINUOUS
100
AcDbLine
 10
141.6500000000000057
 20
-110.9649999999999892
 30
0
 11
141.6480870000000039
 21
-110.964618999999999
 31
0
  0
LINE
  5
D0
330
1A
100
AcDbEntity
  8
BLACK
  6
CONTINUOUS
100
AcDbLine
 10
141.6480870000000039
 20
-110.964618999999999
 30
0
 11
141.6453809999999862
 21
-110.9619129999999956
 31
0
  0
LINE
  5
D1
330
1A
100
AcDbEntity
  8
BLACK
  6
CONTINUOUS
100
AcDbLine
 10
141.6453809999999862
 20
-110.9619129999999956
 30
0
 11
141.6449999999999818
 21
-110.9599999999999937
 31
0
  0
LINE
  5
D2
330
1A
100
AcDbEntity
  8
BLACK
  6
CONTINUOUS
100
AcDbLine
 10
141.6449999999999818
 20
-110.9599999999999937
 30
0
 11
141.6449999999999818
 21
-110.3399999999999892
 31
0
  0
LINE
  5
D3
330
1A
100
AcDbEntity
  8
BLACK
  6
CONTINUOUS
100
AcDbLine
 10
141.6449999999999818
 20
-110.3399999999999892
 30
0
 11
141.6453809999999862
 21
-110.3380870000000016
 31
0
  0
LINE
  5
D4
330
1A
100
AcDbEntity
  8
BLACK
  6
CONTINUOUS
100
AcDbLine
 10
141.6453809999999862
 20
-110.3380870000000016
 30
0
 11
141.6480870000000039
 21
-110.3353809999999982
 31
0
  0
LINE
  5
D5
330
1A
100
AcDbEntity
  8
BLACK
  6
CONTINUOUS
100
AcDbLine
 10
141.6480870000000039
 20
-110.3353809999999982
 30
0
 11
141.6500000000000057
 21
-110.3349999999999937
 31
0
  0
LINE
  5
D6
330
1A
100
AcDbEntity
  8
BLACK
  6
CONTINUOUS
100
AcDbLine
 10
141.6500000000000057
 20
-110.3349999999999937
 30
0
 11
142.0099999999999909
 21
-110.3349999999999937
 31
0
  0
LINE
  5
D7
330
1A
100
AcDbEntity
  8
BLACK
  6
CONTINUOUS
100
AcDbLine
 10
142.0099999999999909
 20
-110.3349999999999937
 30
0
 11
142.0119129999999927
 21
-110.3353809999999982
 31
0
  0
LINE
  5
D8
330
1A
100
AcDbEntity
  8
BLACK
  6
CONTINUOUS
100
AcDbLine
 10
127.0599999999999881
 20
-110.1099999999999994
 30
0
 11
126.8399999999999892
 21
-110.1099999999999994
 31
0
  0
LINE
  5
D9
330
1A
100
AcDbEntity
  8
BLACK
  6
CONTINUOUS
100
AcDbLine
 10
126.8399999999999892
 20
-110.1099999999999994
 30
0
 11
126.8399999999999892
 21
-109.6499999999999915
 31
0
  0
LINE
  5
DA
330
1A
100
AcDbEntity
  8
BLACK
  6
CONTINUOUS
100
AcDbLine
 10
126.8399999999999892
 20
-109.6499999999999915
 30
0
 11
127.0599999999999881
 21
-109.6499999999999915
 31
0
  0
LINE
  5
DB
330
1A
100
AcDbEntity
  8
BLACK
  6
CONTINUOUS
100
AcDbLine
 10
127.0599999999999881
 20
-109.6499999999999915
 30
0
 11
127.0599999999999881
 21
-110.1099999999999994
 31
0
  0
LINE
  5
DC
330
1A
100
AcDbEntity
  8
BLACK
  6
CONTINUOUS
100
AcDbLine
 10
127.5599999999999881
 20
-110.1099999999999994
 30
0
 11
127.3399999999999892
 21
-110.1099999999999994
 31
0
  0
LINE
  5
DD
330
1A
100
AcDbEntity
  8
BLACK
  6
CONTINUOUS
100
AcDbLine
 10
127.3399999999999892
 20
-110.1099999999999994
 30
0
 11
127.3399999999999892
 21
-109.6499999999999915
 31
0
  0
LINE
  5
DE
330
1A
100
AcDbEntity
  8
BLACK
  6
CONTINUOUS
100
AcDbLine
 10
127.3399999999999892
 20
-109.6499999999999915
 30
0
 11
127.5599999999999881
 21
-109.6499999999999915
 31
0
  0
LINE
  5
DF
330
1A
100
AcDbEntity
  8
BLACK
  6
CONTINUOUS
100
AcDbLine
 10
127.5599999999999881
 20
-109.6499999999999915
 30
0
 11
127.5599999999999881
 21
-110.1099999999999994
 31
0
  0
LINE
  5
E0
330
1A
100
AcDbEntity
  8
BLACK
  6
CONTINUOUS
100
AcDbLine
 10
128.0600000000000023
 20
-110.1099999999999994
 30
0
 11
127.8399999999999892
 21
-110.1099999999999994
 31
0
  0
LINE
  5
E1
330
1A
100
AcDbEntity
  8
BLACK
  6
CONTINUOUS
100
AcDbLine
 10
127.8399999999999892
 20
-110.1099999999999994
 30
0
 11
127.8399999999999892
 21
-109.6499999999999915
 31
0
  0
LINE
  5
E2
330
1A
100
AcDbEntity
  8
BLACK
  6
CONTINUOUS
100
AcDbLine
 10
127.8399999999999892
 20
-109.6499999999999915
 30
0
 11
128.0600000000000023
 21
-109.6499999999999915
 31
0
  0
LINE
  5
E3
330
1A
100
AcDbEntity
  8
BLACK
  6
CONTINUOUS
100
AcDbLine
 10
128.0600000000000023
 20
-109.6499999999999915
 30
0
 11
128.0600000000000023
 21
-110.1099999999999994
 31
0
  0
LINE
  5
E4
330
1A
100
AcDbEntity
  8
BLACK
  6
CONTINUOUS
100
AcDbLine
 10
131.7599999999999909
 20
-110.1099999999999994
 30
0
 11
131.539999999999992
 21
-110.1099999999999994
 31
0
  0
LINE
  5
E5
330
1A
100
AcDbEntity
  8
BLACK
  6
CONTINUOUS
100
AcDbLine
 10
131.539999999999992
 20
-110.1099999999999994
 30
0
 11
131.539999999999992
 21
-109.6499999999999915
 31
0
  0
LINE
  5
E6
330
1A
100
AcDbEntity
  8
BLACK
  6
CONTINUOUS
100
AcDbLine
 10
131.539999999999992
 20
-109.6499999999999915
 30
0
 11
131.7599999999999909
 21
-109.6499999999999915
 31
0
  0
LINE
  5
E7
330
1A
100
AcDbEntity
  8
BLACK
  6
CONTINUOUS
100
AcDbLine
 10
131.7599999999999909
 20
-109.6499999999999915
 30
0
 11
131.7599999999999909
 21
-110.1099999999999994
 31
0
  0
LINE
  5
E8
330
1A
100
AcDbEntity
  8
BLACK
  6
CONTINUOUS
100
AcDbLine
 10
132.2599999999999909
 20
-110.1099999999999994
 30
0
 11
132.039999999999992
 21
-110.1099999999999994
 31
0
  0
LINE
  5
E9
330
1A
100
AcDbEntity
  8
BLACK
  6
CONTINUOUS
100
AcDbLine
 10
132.039999999999992
 20
-110.1099999999999994
 30
0
 11
132.039999999999992
 21
-109.6499999999999915
 31
0
  0
LINE
  5
EA
330
1A
100
AcDbEntity
  8
BLACK
  6
CONTINUOUS
100
AcDbLine
 10
132.039999999999992
 20
-109.6499999999999915
 30
0
 11
132.2599999999999909
 21
-109.6499999999999915
 31
0
  0
LINE
  5
EB
330
1A
100
AcDbEntity
  8
BLACK
  6
CONTINUOUS
100
AcDbLine
 10
132.2599999999999909
 20
-109.6499999999999915
 30
0
 11
132.2599999999999909
 21
-110.1099999999999994
 31
0
  0
LINE
  5
EC
330
1A
100
AcDbEntity
  8
BLACK
  6
CONTINUOUS
100
AcDbLine
 10
132.7599999999999909
 20
-110.1099999999999994
 30
0
 11
132.539999999999992
 21
-110.1099999999999994
 31
0
  0
LINE
  5
ED
330
1A
100
AcDbEntity
  8
BLACK
  6
CONTINUOUS
100
AcDbLine
 10
132.539999999999992
 20
-110.1099999999999994
 30
0
 11
132.539999999999992
 21
-109.6499999999999915
 31
0
  0
LINE
  5
EE
330
1A
100
AcDbEntity
  8
BLACK
  6
CONTINUOUS
100
AcDbLine
 10
132.539999999999992
 20
-109.6499999999999915
 30
0
 11
132.7599999999999909
 21
-109.6499999999999915
 31
0
  0
LINE
  5
EF
330
1A
100
AcDbEntity
  8
BLACK
  6
CONTINUOUS
100
AcDbLine
 10
132.7599999999999909
 20
-109.6499999999999915
 30
0
 11
132.7599999999999909
 21
-110.1099999999999994
 31
0
  0
LINE
  5
F0
330
1A
100
AcDbEntity
  8
BLACK
  6
CONTINUOUS
100
AcDbLine
 10
136.460000000000008
 20
-110.1099999999999994
 30
0
 11
136.2399999999999807
 21
-110.1099999999999994
 31
0
  0
LINE
  5
F1
330
1A
100
AcDbEntity
  8
BLACK
  6
CONTINUOUS
100
AcDbLine
 10
136.2399999999999807
 20
-110.1099999999999994
 30
0
 11
136.2399999999999807
 21
-109.6499999999999915
 31
0
  0
LINE
  5
F2
330
1A
100
AcDbEntity
  8
BLACK
  6
CONTINUOUS
100
AcDbLine
 10
136.2399999999999807
 20
-109.6499999999999915
 30
0
 11
136.460000000000008
 21
-109.6499999999999915
 31
0
  0
LINE
  5
F3
330
1A
100
AcDbEntity
  8
BLACK
  6
CONTINUOUS
100
AcDbLine
 10
136.460000000000008
 20
-109.6499999999999915
 30
0
 11
136.460000000000008
 21
-110.1099999999999994
 31
0
  0
LINE
  5
F4
330
1A
100
AcDbEntity
  8
BLACK
  6
CONTINUOUS
100
AcDbLine
 10
136.960000000000008
 20
-110.1099999999999994
 30
0
 11
136.7399999999999807
 21
-110.1099999999999994
 31
0
  0
LINE
  5
F5
330
1A
100
AcDbEntity
  8
BLACK
  6
CONTINUOUS
100
AcDbLine
 10
136.7399999999999807
 20
-110.1099999999999994
 30
0
 11
136.7399999999999807
 21
-109.6499999999999915
 31
0
  0
LINE
  5
F6
330
1A
100
AcDbEntity
  8
BLACK
  6
CONTINUOUS
100
AcDbLine
 10
136.7399999999999807
 20
-109.6499999999999915
 30
0
 11
136.960000000000008
 21
-109.6499999999999915
 31
0
  0
LINE
  5
F7
330
1A
100
AcDbEntity
  8
BLACK
  6
CONTINUOUS
100
AcDbLine
 10
136.960000000000008
 20
-109.6499999999999915
 30
0
 11
136.960000000000008
 21
-110.1099999999999994
 31
0
  0
LINE
  5
F8
330
1A
100
AcDbEntity
  8
BLACK
  6
CONTINUOUS
100
AcDbLine
 10
137.460000000000008
 20
-110.1099999999999994
 30
0
 11
137.2399999999999807
 21
-110.1099999999999994
 31
0
  0
LINE
  5
F9
330
1A
100
AcDbEntity
  8
BLACK
  6
CONTINUOUS
100
AcDbLine
 10
137.2399999999999807
 20
-110.1099999999999994
 30
0
 11
137.2399999999999807
 21
-109.6499999999999915
 31
0
  0
LINE
  5
FA
330
1A
100
AcDbEntity
  8
BLACK
  6
CONTINUOUS
100
AcDbLine
 10
137.2399999999999807
 20
-109.6499999999999915
 30
0
 11
137.460000000000008
 21
-109.6499999999999915
 31
0
  0
LINE
  5
FB
330
1A
100
AcDbEntity
  8
BLACK
  6
CONTINUOUS
100
AcDbLine
 10
137.460000000000008
 20
-109.6499999999999915
 30
0
 11
137.460000000000008
 21
-110.1099999999999994
 31
0
  0
LINE
  5
FC
330
1A
100
AcDbEntity
  8
BLACK
  6
CONTINUOUS
100
AcDbLine
 10
141.1599999999999966
 20
-110.1099999999999994
 30
0
 11
140.9399999999999977
 21
-110.1099999999999994
 31
0
  0
LINE
  5
FD
330
1A
100
AcDbEntity
  8
BLACK
  6
CONTINUOUS
100
AcDbLine
 10
140.9399999999999977
 20
-110.1099999999999994
 30
0
 11
140.9399999999999977
 21
-109.6499999999999915
 31
0
  0
LINE
  5
FE
330
1A
100
AcDbEntity
  8
BLACK
  6
CONTINUOUS
100
AcDbLine
 10
140.9399999999999977
 20
-109.6499999999999915
 30
0
 11
141.1599999999999966
 21
-109.6499999999999915
 31
0
  0
LINE
  5
FF
330
1A
100
AcDbEntity
  8
BLACK
  6
CONTINUOUS
100
AcDbLine
 10
141.1599999999999966
 20
-109.6499999999999915
 30
0
 11
141.1599999999999966
 21
-110.1099999999999994
 31
0
  0
LINE
  5
100
330
1A
100
AcDbEntity
  8
BLACK
  6
CONTINUOUS
100
AcDbLine
 10
141.6599999999999966
 20
-110.1099999999999994
 30
0
 11
141.4399999999999977
 21
-110.1099999999999994
 31
0
  0
LINE
  5
101
330
1A
100
AcDbEntity
  8
BLACK
  6
CONTINUOUS
100
AcDbLine
 10
141.4399999999999977
 20
-110.1099999999999994
 30
0
 11
141.4399999999999977
 21
-109.6499999999999915
 31
0
  0
LINE
  5
102
330
1A
100
AcDbEntity
  8
BLACK
  6
CONTINUOUS
100
AcDbLine
 10
141.4399999999999977
 20
-109.6499999999999915
 30
0
 11
141.6599999999999966
 21
-109.6499999999999915
 31
0
  0
LINE
  5
103
330
1A
100
AcDbEntity
  8
BLACK
  6
CONTINUOUS
100
AcDbLine
 10
141.6599999999999966
 20
-109.6499999999999915
 30
0
 11
141.6599999999999966
 21
-110.1099999999999994
 31
0
  0
LINE
  5
104
330
1A
100
AcDbEntity
  8
BLACK
  6
CONTINUOUS
100
AcDbLine
 10
142.1599999999999966
 20
-110.1099999999999994
 30
0
 11
141.9399999999999977
 21
-110.1099999999999994
 31
0
  0
LINE
  5
105
330
1A
100
AcDbEntity
  8
BLACK
  6
CONTINUOUS
100
AcDbLine
 10
141.9399999999999977
 20
-110.1099999999999994
 30
0
 11
141.9399999999999977
 21
-109.6499999999999915
 31
0
  0
LINE
  5
106
330
1A
100
AcDbEntity
  8
BLACK
  6
CONTINUOUS
100
AcDbLine
 10
141.9399999999999977
 20
-109.6499999999999915
 30
0
 11
142.1599999999999966
 21
-109.6499999999999915
 31
0
  0
LINE
  5
107
330
1A
100
AcDbEntity
  8
BLACK
  6
CONTINUOUS
100
AcDbLine
 10
142.1599999999999966
 20
-109.6499999999999915
 30
0
 11
142.1599999999999966
 21
-110.1099999999999994
 31
0
  0
LINE
  5
108
330
1A
100
AcDbEntity
  8
BLACK
  6
CONTINUOUS
100
AcDbLine
 10
127.0599999999999881
 20
-106.9499999999999886
 30
0
 11
126.8399999999999892
 21
-106.9499999999999886
 31
0
  0
LINE
  5
109
330
1A
100
AcDbEntity
  8
BLACK
  6
CONTINUOUS
100
AcDbLine
 10
126.8399999999999892
 20
-106.9499999999999886
 30
0
 11
126.8399999999999892
 21
-106.4899999999999949
 31
0
  0
LINE
  5
10A
330
1A
100
AcDbEntity
  8
BLACK
  6
CONTINUOUS
100
AcDbLine
 10
126.8399999999999892
 20
-106.4899999999999949
 30
0
 11
127.0599999999999881
 21
-106.4899999999999949
 31
0
  0
LINE
  5
10B
330
1A
100
AcDbEntity
  8
BLACK
  6
CONTINUOUS
100
AcDbLine
 10
127.0599999999999881
 20
-106.4899999999999949
 30
0
 11
127.0599999999999881
 21
-106.9499999999999886
 31
0
  0
LINE
  5
10C
330
1A
100
AcDbEntity
  8
BLACK
  6
CONTINUOUS
100
AcDbLine
 10
127.5599999999999881
 20
-106.9499999999999886
 30
0
 11
127.3399999999999892
 21
-106.9499999999999886
 31
0
  0
LINE
  5
10D
330
1A
100
AcDbEntity
  8
BLACK
  6
CONTINUOUS
100
AcDbLine
 10
127.3399999999999892
 20
-106.9499999999999886
 30
0
 11
127.3399999999999892
 21
-106.4899999999999949
 31
0
  0
LINE
  5
10E
330
1A
100
AcDbEntity
  8
BLACK
  6
CONTINUOUS
100
AcDbLine
 10
127.3399999999999892
 20
-106.4899999999999949
 30
0
 11
127.5599999999999881
 21
-106.4899999999999949
 31
0
  0
LINE
  5
10F
330
1A
100
AcDbEntity
  8
BLACK
  6
CONTINUOUS
100
AcDbLine
 10
127.5599999999999881
 20
-106.4899999999999949
 30
0
 11
127.5599999999999881
 21
-106.9499999999999886
 31
0
  0
LINE
  5
110
330
1A
100
AcDbEntity
  8
BLACK
  6
CONTINUOUS
100
AcDbLine
 10
128.0600000000000023
 20
-106.9499999999999886
 30
0
 11
127.8399999999999892
 21
-106.9499999999999886
 31
0
  0
LINE
  5
111
330
1A
100
AcDbEntity
  8
BLACK
  6
CONTINUOUS
100
AcDbLine
 10
127.8399999999999892
 20
-106.9499999999999886
 30
0
 11
127.8399999999999892
 21
-106.4899999999999949
 31
0
  0
LINE
  5
112
330
1A
100
AcDbEntity
  8
BLACK
  6
CONTINUOUS
100
AcDbLine
 10
127.8399999999999892
 20
-106.4899999999999949
 30
0
 11
128.0600000000000023
 21
-106.4899999999999949
 31
0
  0
LINE
  5
113
330
1A
100
AcDbEntity
  8
BLACK
  6
CONTINUOUS
100
AcDbLine
 10
128.0600000000000023
 20
-106.4899999999999949
 30
0
 11
128.0600000000000023
 21
-106.9499999999999886
 31
0
  0
LINE
  5
114
330
1A
100
AcDbEntity
  8
BLACK
  6
CONTINUOUS
100
AcDbLine
 10
131.7599999999999909
 20
-106.9499999999999886
 30
0
 11
131.539999999999992
 21
-106.9499999999999886
 31
0
  0
LINE
  5
115
330
1A
100
AcDbEntity
  8
BLACK
  6
CONTINUOUS
100
AcDbLine
 10
131.539999999999992
 20
-106.9499999999999886
 30
0
 11
131.539999999999992
 21
-106.4899999999999949
 31
0
  0
LINE
  5
116
330
1A
100
AcDbEntity
  8
BLACK
  6
CONTINUOUS
100
AcDbLine
 10
131.539999999999992
 20
-106.4899999999999949
 30
0
 11
131.7599999999999909
 21
-106.4899999999999949
 31
0
  0
LINE
  5
117
330
1A
100
AcDbEntity
  8
BLACK
  6
CONTINUOUS
100
AcDbLine
 10
131.7599999999999909
 20
-106.4899999999999949
 30
0
 11
131.7599999999999909
 21
-106.9499999999999886
 31
0
  0
LINE
  5
118
330
1A
100
AcDbEntity
  8
BLACK
  6
CONTINUOUS
100
AcDbLine
 10
132.2599999999999909
 20
-106.9499999999999886
 30
0
 11
132.039999999999992
 21
-106.9499999999999886
 31
0
  0
LINE
  5
119
330
1A
100
AcDbEntity
  8
BLACK
  6
CONTINUOUS
100
AcDbLine
 10
132.039999999999992
 20
-106.9499999999999886
 30
0
 11
132.039999999999992
 21
-106.4899999999999949
 31
0
  0
LINE
  5
11A
330
1A
100
AcDbEntity
  8
BLACK
  6
CONTINUOUS
100
AcDbLine
 10
132.039999999999992
 20
-106.4899999999999949
 30
0
 11
132.2599999999999909
 21
-106.4899999999999949
 31
0
  0
LINE
  5
11B
330
1A
100
AcDbEntity
  8
BLACK
  6
CONTINUOUS
100
AcDbLine
 10
132.2599999999999909
 20
-106.4899999999999949
 30
0
 11
132.2599999999999909
 21
-106.9499999999999886
 31
0
  0
LINE
  5
11C
330
1A
100
AcDbEntity
  8
BLACK
  6
CONTINUOUS
100
AcDbLine
 10
132.7599999999999909
 20
-106.9499999999999886
 30
0
 11
132.539999999999992
 21
-106.9499999999999886
 31
0
  0
LINE
  5
11D
330
1A
100
AcDbEntity
  8
BLACK
  6
CONTINUOUS
100
AcDbLine
 10
132.539999999999992
 20
-106.9499999999999886
 30
0
 11
132.539999999999992
 21
-106.4899999999999949
 31
0
  0
LINE
  5
11E
330
1A
100
AcDbEntity
  8
BLACK
  6
CONTINUOUS
100
AcDbLine
 10
132.539999999999992
 20
-106.4899999999999949
 30
0
 11
132.7599999999999909
 21
-106.4899999999999949
 31
0
  0
LINE
  5
11F
330
1A
100
AcDbEntity
  8
BLACK
  6
CONTINUOUS
100
AcDbLine
 10
132.7599999999999909
 20
-106.4899999999999949
 30
0
 11
132.7599999999999909
 21
-106.9499999999999886
 31
0
  0
LINE
  5
120
330
1A
100
AcDbEntity
  8
BLACK
  6
CONTINUOUS
100
AcDbLine
 10
136.460000000000008
 20
-106.9499999999999886
 30
0
 11
136.2399999999999807
 21
-106.9499999999999886
 31
0
  0
LINE
  5
121
330
1A
100
AcDbEntity
  8
BLACK
  6
CONTINUOUS
100
AcDbLine
 10
136.2399999999999807
 20
-106.9499999999999886
 30
0
 11
136.2399999999999807
 21
-106.4899999999999949
 31
0
  0
LINE
  5
122
330
1A
100
AcDbEntity
  8
BLACK
  6
CONTINUOUS
100
AcDbLine
 10
136.2399999999999807
 20
-106.4899999999999949
 30
0
 11
136.460000000000008
 21
-106.4899999999999949
 31
0
  0
LINE
  5
123
330
1A
100
AcDbEntity
  8
BLACK
  6
CONTINUOUS
100
AcDbLine
 10
136.460000000000008
 20
-106.4899999999999949
 30
0
 11
136.460000000000008
 21
-106.9499999999999886
 31
0
  0
LINE
  5
124
330
1A
100
AcDbEntity
  8
BLACK
  6
CONTINUOUS
100
AcDbLine
 10
136.960000000000008
 20
-106.9499999999999886
 30
0
 11
136.7399999999999807
 21
-106.9499999999999886
 31
0
  0
LINE
  5
125
330
1A
100
AcDbEntity
  8
BLACK
  6
CONTINUOUS
100
AcDbLine
 10
136.7399999999999807
 20
-106.9499999999999886
 30
0
 11
136.7399999999999807
 21
-106.4899999999999949
 31
0
  0
LINE
  5
126
330
1A
100
AcDbEntity
  8
BLACK
  6
CONTINUOUS
100
AcDbLine
 10
136.7399999999999807
 20
-106.4899999999999949
 30
0
 11
136.960000000000008
 21
-106.4899999999999949
 31
0
  0
LINE
  5
127
330
1A
100
AcDbEntity
  8
BLACK
  6
CONTINUOUS
100
AcDbLine
 10
136.960000000000008
 20
-106.4899999999999949
 30
0
 11
136.960000000000008
 21
-106.9499999999999886
 31
0
  0
LINE
  5
128
330
1A
100
AcDbEntity
  8
BLACK
  6
CONTINUOUS
100
AcDbLine
 10
137.460000000000008
 20
-106.9499999999999886
 30
0
 11
137.2399999999999807
 21
-106.9499999999999886
 31
0
  0
LINE
  5
129
330
1A
100
AcDbEntity
  8
BLACK
  6
CONTINUOUS
100
AcDbLine
 10
137.2399999999999807
 20
-106.9499999999999886
 30
0
 11
137.2399999999999807
 21
-106.4899999999999949
 31
0
  0
LINE
  5
12A
330
1A
100
AcDbEntity
  8
BLACK
  6
CONTINUOUS
100
AcDbLine
 10
137.2399999999999807
 20
-106.4899999999999949
 30
0
 11
137.460000000000008
 21
-106.4899999999999949
 31
0
  0
LINE
  5
12B
330
1A
100
AcDbEntity
  8
BLACK
  6
CONTINUOUS
100
AcDbLine
 10
137.460000000000008
 20
-106.4899999999999949
 30
0
 11
137.460000000000008
 21
-106.9499999999999886
 31
0
  0
LINE
  5
12C
330
1A
100
AcDbEntity
  8
BLACK
  6
CONTINUOUS
100
AcDbLine
 10
141.1599999999999966
 20
-106.9499999999999886
 30
0
 11
140.9399999999999977
 21
-106.9499999999999886
 31
0
  0
LINE
  5
12D
330
1A
100
AcDbEntity
  8
BLACK
  6
CONTINUOUS
100
AcDbLine
 10
140.9399999999999977
 20
-106.9499999999999886
 30
0
 11
140.9399999999999977
 21
-106.4899999999999949
 31
0
  0
LINE
  5
12E
330
1A
100
AcDbEntity
  8
BLACK
  6
CONTINUOUS
100
AcDbLine
 10
140.9399999999999977
 20
-106.4899999999999949
 30
0
 11
141.1599999999999966
 21
-106.4899999999999949
 31
0
  0
LINE
  5
12F
330
1A
100
AcDbEntity
  8
BLACK
  6
CONTINUOUS
100
AcDbLine
 10
141.1599999999999966
 20
-106.4899999999999949
 30
0
 11
141.1599999999999966
 21
-106.9499999999999886
 31
0
  0
LINE
  5
130
330
1A
100
AcDbEntity
  8
BLACK
  6
CONTINUOUS
100
AcDbLine
 10
141.6599999999999966
 20
-106.9499999999999886
 30
0
 11
141.4399999999999977
 21
-106.9499999999999886
 31
0
  0
LINE
  5
131
330
1A
100
AcDbEntity
  8
BLACK
  6
CONTINUOUS
100
AcDbLine
 10
141.4399999999999977
 20
-106.9499999999999886
 30
0
 11
141.4399999999999977
 21
-106.4899999999999949
 31
0
  0
LINE
  5
132
330
1A
100
AcDbEntity
  8
BLACK
  6
CONTINUOUS
100
AcDbLine
 10
141.4399999999999977
 20
-106.4899999999999949
 30
0
 11
141.6599999999999966
 21
-106.4899999999999949
 31
0
  0
LINE
  5
133
330
1A
100
AcDbEntity
  8
BLACK
  6
CONTINUOUS
100
AcDbLine
 10
141.6599999999999966
 20
-106.4899999999999949
 30
0
 11
141.6599999999999966
 21
-106.9499999999999886
 31
0
  0
LINE
  5
134
330
1A
100
AcDbEntity
  8
BLACK
  6
CONTINUOUS
100
AcDbLine
 10
142.1599999999999966
 20
-106.9499999999999886
 30
0
 11
141.9399999999999977
 21
-106.9499999999999886
 31
0
  0
LINE
  5
135
330
1A
100
AcDbEntity
  8
BLACK
  6
CONTINUOUS
100
AcDbLine
 10
141.9399999999999977
 20
-106.9499999999999886
 30
0
 11
141.9399999999999977
 21
-106.4899999999999949
 31
0
  0
LINE
  5
136
330
1A
100
AcDbEntity
  8
BLACK
  6
CONTINUOUS
100
AcDbLine
 10
141.9399999999999977
 20
-106.4899999999999949
 30
0
 11
142.1599999999999966
 21
-106.4899999999999949
 31
0
  0
LINE
  5
137
330
1A
100
AcDbEntity
  8
BLACK
  6
CONTINUOUS
100
AcDbLine
 10
142.1599999999999966
 20
-106.4899999999999949
 30
0
 11
142.1599999999999966
 21
-106.9499999999999886
 31
0
  0
LINE
  5
138
330
1A
100
AcDbEntity
  8
BLACK
  6
CONTINUOUS
100
AcDbLine
 10
127.3519129999999961
 20
-105.6353809999999953
 30
0
 11
127.3546189999999996
 21
-105.6380869999999987
 31
0
  0
LINE
  5
139
330
1A
100
AcDbEntity
  8
BLACK
  6
CONTINUOUS
100
AcDbLine
 10
127.3546189999999996
 20
-105.6380869999999987
 30
0
 11
127.3549999999999898
 21
-105.6400000000000006
 31
0
  0
LINE
  5
13A
330
1A
100
AcDbEntity
  8
BLACK
  6
CONTINUOUS
100
AcDbLine
 10
127.3549999999999898
 20
-105.6400000000000006
 30
0
 11
127.3549999999999898
 21
-106.2599999999999909
 31
0
  0
LINE
  5
13B
330
1A
100
AcDbEntity
  8
BLACK
  6
CONTINUOUS
100
AcDbLine
 10
127.3549999999999898
 20
-106.2599999999999909
 30
0
 11
127.3546189999999996
 21
-106.2619129999999927
 31
0
  0
LINE
  5
13C
330
1A
100
AcDbEntity
  8
BLACK
  6
CONTINUOUS
100
AcDbLine
 10
127.3546189999999996
 20
-106.2619129999999927
 30
0
 11
127.3519129999999961
 21
-106.2646189999999962
 31
0
  0
LINE
  5
13D
330
1A
100
AcDbEntity
  8
BLACK
  6
CONTINUOUS
100
AcDbLine
 10
127.3519129999999961
 20
-106.2646189999999962
 30
0
 11
127.3499999999999943
 21
-106.2650000000000006
 31
0
  0
LINE
  5
13E
330
1A
100
AcDbEntity
  8
BLACK
  6
CONTINUOUS
100
AcDbLine
 10
127.3499999999999943
 20
-106.2650000000000006
 30
0
 11
126.9899999999999949
 21
-106.2650000000000006
 31
0
  0
LINE
  5
13F
330
1A
100
AcDbEntity
  8
BLACK
  6
CONTINUOUS
100
AcDbLine
 10
126.9899999999999949
 20
-106.2650000000000006
 30
0
 11
126.9880869999999931
 21
-106.2646189999999962
 31
0
  0
LINE
  5
140
330
1A
100
AcDbEntity
  8
BLACK
  6
CONTINUOUS
100
AcDbLine
 10
126.9880869999999931
 20
-106.2646189999999962
 30
0
 11
126.9853809999999896
 21
-106.2619129999999927
 31
0
  0
LINE
  5
141
330
1A
100
AcDbEntity
  8
BLACK
  6
CONTINUOUS
100
AcDbLine
 10
126.9853809999999896
 20
-106.2619129999999927
 30
0
 11
126.9849999999999994
 21
-106.2599999999999909
 31
0
  0
LINE
  5
142
330
1A
100
AcDbEntity
  8
BLACK
  6
CONTINUOUS
100
AcDbLine
 10
126.9849999999999994
 20
-106.2599999999999909
 30
0
 11
126.9849999999999994
 21
-105.6400000000000006
 31
0
  0
LINE
  5
143
330
1A
100
AcDbEntity
  8
BLACK
  6
CONTINUOUS
100
AcDbLine
 10
126.9849999999999994
 20
-105.6400000000000006
 30
0
 11
126.9853809999999896
 21
-105.6380869999999987
 31
0
  0
LINE
  5
144
330
1A
100
AcDbEntity
  8
BLACK
  6
CONTINUOUS
100
AcDbLine
 10
126.9853809999999896
 20
-105.6380869999999987
 30
0
 11
126.9880869999999931
 21
-105.6353809999999953
 31
0
  0
LINE
  5
145
330
1A
100
AcDbEntity
  8
BLACK
  6
CONTINUOUS
100
AcDbLine
 10
126.9880869999999931
 20
-105.6353809999999953
 30
0
 11
126.9899999999999949
 21
-105.6349999999999909
 31
0
  0
LINE
  5
146
330
1A
100
AcDbEntity
  8
BLACK
  6
CONTINUOUS
100
AcDbLine
 10
126.9899999999999949
 20
-105.6349999999999909
 30
0
 11
127.3499999999999943
 21
-105.6349999999999909
 31
0
  0
LINE
  5
147
330
1A
100
AcDbEntity
  8
BLACK
  6
CONTINUOUS
100
AcDbLine
 10
127.3499999999999943
 20
-105.6349999999999909
 30
0
 11
127.3519129999999961
 21
-105.6353809999999953
 31
0
  0
LINE
  5
148
330
1A
100
AcDbEntity
  8
BLACK
  6
CONTINUOUS
100
AcDbLine
 10
127.9119129999999984
 20
-105.6353809999999953
 30
0
 11
127.9146189999999876
 21
-105.6380869999999987
 31
0
  0
LINE
  5
149
330
1A
100
AcDbEntity
  8
BLACK
  6
CONTINUOUS
100
AcDbLine
 10
127.9146189999999876
 20
-105.6380869999999987
 30
0
 11
127.914999999999992
 21
-105.6400000000000006
 31
0
  0
LINE
  5
14A
330
1A
100
AcDbEntity
  8
BLACK
  6
CONTINUOUS
100
AcDbLine
 10
127.914999999999992
 20
-105.6400000000000006
 30
0
 11
127.914999999999992
 21
-106.2599999999999909
 31
0
  0
LINE
  5
14B
330
1A
100
AcDbEntity
  8
BLACK
  6
CONTINUOUS
100
AcDbLine
 10
127.914999999999992
 20
-106.2599999999999909
 30
0
 11
127.9146189999999876
 21
-106.2619129999999927
 31
0
  0
LINE
  5
14C
330
1A
100
AcDbEntity
  8
BLACK
  6
CONTINUOUS
100
AcDbLine
 10
127.9146189999999876
 20
-106.2619129999999927
 30
0
 11
127.9119129999999984
 21
-106.2646189999999962
 31
0
  0
LINE
  5
14D
330
1A
100
AcDbEntity
  8
BLACK
  6
CONTINUOUS
100
AcDbLine
 10
127.9119129999999984
 20
-106.2646189999999962
 30
0
 11
127.9099999999999966
 21
-106.2650000000000006
 31
0
  0
LINE
  5
14E
330
1A
100
AcDbEntity
  8
BLACK
  6
CONTINUOUS
100
AcDbLine
 10
127.9099999999999966
 20
-106.2650000000000006
 30
0
 11
127.5499999999999972
 21
-106.2650000000000006
 31
0
  0
LINE
  5
14F
330
1A
100
AcDbEntity
  8
BLACK
  6
CONTINUOUS
100
AcDbLine
 10
127.5499999999999972
 20
-106.2650000000000006
 30
0
 11
127.5480869999999953
 21
-106.2646189999999962
 31
0
  0
LINE
  5
150
330
1A
100
AcDbEntity
  8
BLACK
  6
CONTINUOUS
100
AcDbLine
 10
127.5480869999999953
 20
-106.2646189999999962
 30
0
 11
127.5453809999999919
 21
-106.2619129999999927
 31
0
  0
LINE
  5
151
330
1A
100
AcDbEntity
  8
BLACK
  6
CONTINUOUS
100
AcDbLine
 10
127.5453809999999919
 20
-106.2619129999999927
 30
0
 11
127.5449999999999875
 21
-106.2599999999999909
 31
0
  0
LINE
  5
152
330
1A
100
AcDbEntity
  8
BLACK
  6
CONTINUOUS
100
AcDbLine
 10
127.5449999999999875
 20
-106.2599999999999909
 30
0
 11
127.5449999999999875
 21
-105.6400000000000006
 31
0
  0
LINE
  5
153
330
1A
100
AcDbEntity
  8
BLACK
  6
CONTINUOUS
100
AcDbLine
 10
127.5449999999999875
 20
-105.6400000000000006
 30
0
 11
127.5453809999999919
 21
-105.6380869999999987
 31
0
  0
LINE
  5
154
330
1A
100
AcDbEntity
  8
BLACK
  6
CONTINUOUS
100
AcDbLine
 10
127.5453809999999919
 20
-105.6380869999999987
 30
0
 11
127.5480869999999953
 21
-105.6353809999999953
 31
0
  0
LINE
  5
155
330
1A
100
AcDbEntity
  8
BLACK
  6
CONTINUOUS
100
AcDbLine
 10
127.5480869999999953
 20
-105.6353809999999953
 30
0
 11
127.5499999999999972
 21
-105.6349999999999909
 31
0
  0
LINE
  5
156
330
1A
100
AcDbEntity
  8
BLACK
  6
CONTINUOUS
100
AcDbLine
 10
127.5499999999999972
 20
-105.6349999999999909
 30
0
 11
127.9099999999999966
 21
-105.6349999999999909
 31
0
  0
LINE
  5
157
330
1A
100
AcDbEntity
  8
BLACK
  6
CONTINUOUS
100
AcDbLine
 10
127.9099999999999966
 20
-105.6349999999999909
 30
0
 11
127.9119129999999984
 21
-105.6353809999999953
 31
0
  0
LINE
  5
158
330
1A
100
AcDbEntity
  8
BLACK
  6
CONTINUOUS
100
AcDbLine
 10
132.0519129999999848
 20
-105.6353809999999953
 30
0
 11
132.0546190000000024
 21
-105.6380869999999987
 31
0
  0
LINE
  5
159
330
1A
100
AcDbEntity
  8
BLACK
  6
CONTINUOUS
100
AcDbLine
 10
132.0546190000000024
 20
-105.6380869999999987
 30
0
 11
132.0550000000000068
 21
-105.6400000000000006
 31
0
  0
LINE
  5
15A
330
1A
100
AcDbEntity
  8
BLACK
  6
CONTINUOUS
100
AcDbLine
 10
132.0550000000000068
 20
-105.6400000000000006
 30
0
 11
132.0550000000000068
 21
-106.2599999999999909
 31
0
  0
LINE
  5
15B
330
1A
100
AcDbEntity
  8
BLACK
  6
CONTINUOUS
100
AcDbLine
 10
132.0550000000000068
 20
-106.2599999999999909
 30
0
 11
132.0546190000000024
 21
-106.2619129999999927
 31
0
  0
LINE
  5
15C
330
1A
100
AcDbEntity
  8
BLACK
  6
CONTINUOUS
100
AcDbLine
 10
132.0546190000000024
 20
-106.2619129999999927
 30
0
 11
132.0519129999999848
 21
-106.2646189999999962
 31
0
  0
LINE
  5
15D
330
1A
100
AcDbEntity
  8
BLACK
  6
CONTINUOUS
100
AcDbLine
 10
132.0519129999999848
 20
-106.2646189999999962
 30
0
 11
132.0499999999999829
 21
-106.2650000000000006
 31
0
  0
LINE
  5
15E
330
1A
100
AcDbEntity
  8
BLACK
  6
CONTINUOUS
100
AcDbLine
 10
132.0499999999999829
 20
-106.2650000000000006
 30
0
 11
131.6899999999999977
 21
-106.2650000000000006
 31
0
  0
LINE
  5
15F
330
1A
100
AcDbEntity
  8
BLACK
  6
CONTINUOUS
100
AcDbLine
 10
131.6899999999999977
 20
-106.2650000000000006
 30
0
 11
131.6880869999999959
 21
-106.2646189999999962
 31
0
  0
LINE
  5
160
330
1A
100
AcDbEntity
  8
BLACK
  6
CONTINUOUS
100
AcDbLine
 10
131.6880869999999959
 20
-106.2646189999999962
 30
0
 11
131.6853810000000067
 21
-106.2619129999999927
 31
0
  0
LINE
  5
161
330
1A
100
AcDbEntity
  8
BLACK
  6
CONTINUOUS
100
AcDbLine
 10
131.6853810000000067
 20
-106.2619129999999927
 30
0
 11
131.6850000000000023
 21
-106.2599999999999909
 31
0
  0
LINE
  5
162
330
1A
100
AcDbEntity
  8
BLACK
  6
CONTINUOUS
100
AcDbLine
 10
131.6850000000000023
 20
-106.2599999999999909
 30
0
 11
131.6850000000000023
 21
-105.6400000000000006
 31
0
  0
LINE
  5
163
330
1A
100
AcDbEntity
  8
BLACK
  6
CONTINUOUS
100
AcDbLine
 10
131.6850000000000023
 20
-105.6400000000000006
 30
0
 11
131.6853810000000067
 21
-105.6380869999999987
 31
0
  0
LINE
  5
164
330
1A
100
AcDbEntity
  8
BLACK
  6
CONTINUOUS
100
AcDbLine
 10
131.6853810000000067
 20
-105.6380869999999987
 30
0
 11
131.6880869999999959
 21
-105.6353809999999953
 31
0
  0
LINE
  5
165
330
1A
100
AcDbEntity
  8
BLACK
  6
CONTINUOUS
100
AcDbLine
 10
131.6880869999999959
 20
-105.6353809999999953
 30
0
 11
131.6899999999999977
 21
-105.6349999999999909
 31
0
  0
LINE
  5
166
330
1A
100
AcDbEntity
  8
BLACK
  6
CONTINUOUS
100
AcDbLine
 10
131.6899999999999977
 20
-105.6349999999999909
 30
0
 11
132.0499999999999829
 21
-105.6349999999999909
 31
0
  0
LINE
  5
167
330
1A
100
AcDbEntity
  8
BLACK
  6
CONTINUOUS
100
AcDbLine
 10
132.0499999999999829
 20
-105.6349999999999909
 30
0
 11
132.0519129999999848
 21
-105.6353809999999953
 31
0
  0
LINE
  5
168
330
1A
100
AcDbEntity
  8
BLACK
  6
CONTINUOUS
100
AcDbLine
 10
132.6119129999999871
 20
-105.6353809999999953
 30
0
 11
132.6146190000000047
 21
-105.6380869999999987
 31
0
  0
LINE
  5
169
330
1A
100
AcDbEntity
  8
BLACK
  6
CONTINUOUS
100
AcDbLine
 10
132.6146190000000047
 20
-105.6380869999999987
 30
0
 11
132.6149999999999807
 21
-105.6400000000000006
 31
0
  0
LINE
  5
16A
330
1A
100
AcDbEntity
  8
BLACK
  6
CONTINUOUS
100
AcDbLine
 10
132.6149999999999807
 20
-105.6400000000000006
 30
0
 11
132.6149999999999807
 21
-106.2599999999999909
 31
0
  0
LINE
  5
16B
330
1A
100
AcDbEntity
  8
BLACK
  6
CONTINUOUS
100
AcDbLine
 10
132.6149999999999807
 20
-106.2599999999999909
 30
0
 11
132.6146190000000047
 21
-106.2619129999999927
 31
0
  0
LINE
  5
16C
330
1A
100
AcDbEntity
  8
BLACK
  6
CONTINUOUS
100
AcDbLine
 10
132.6146190000000047
 20
-106.2619129999999927
 30
0
 11
132.6119129999999871
 21
-106.2646189999999962
 31
0
  0
LINE
  5
16D
330
1A
100
AcDbEntity
  8
BLACK
  6
CONTINUOUS
100
AcDbLine
 10
132.6119129999999871
 20
-106.2646189999999962
 30
0
 11
132.6099999999999852
 21
-106.2650000000000006
 31
0
  0
LINE
  5
16E
330
1A
100
AcDbEntity
  8
BLACK
  6
CONTINUOUS
100
AcDbLine
 10
132.6099999999999852
 20
-106.2650000000000006
 30
0
 11
132.25
 21
-106.2650000000000006
 31
0
  0
LINE
  5
16F
330
1A
100
AcDbEntity
  8
BLACK
  6
CONTINUOUS
100
AcDbLine
 10
132.25
 20
-106.2650000000000006
 30
0
 11
132.2480869999999982
 21
-106.2646189999999962
 31
0
  0
LINE
  5
170
330
1A
100
AcDbEntity
  8
BLACK
  6
CONTINUOUS
100
AcDbLine
 10
132.2480869999999982
 20
-106.2646189999999962
 30
0
 11
132.2453809999999805
 21
-106.2619129999999927
 31
0
  0
LINE
  5
171
330
1A
100
AcDbEntity
  8
BLACK
  6
CONTINUOUS
100
AcDbLine
 10
132.2453809999999805
 20
-106.2619129999999927
 30
0
 11
132.2450000000000045
 21
-106.2599999999999909
 31
0
  0
LINE
  5
172
330
1A
100
AcDbEntity
  8
BLACK
  6
CONTINUOUS
100
AcDbLine
 10
132.2450000000000045
 20
-106.2599999999999909
 30
0
 11
132.2450000000000045
 21
-105.6400000000000006
 31
0
  0
LINE
  5
173
330
1A
100
AcDbEntity
  8
BLACK
  6
CONTINUOUS
100
AcDbLine
 10
132.2450000000000045
 20
-105.6400000000000006
 30
0
 11
132.2453809999999805
 21
-105.6380869999999987
 31
0
  0
LINE
  5
174
330
1A
100
AcDbEntity
  8
BLACK
  6
CONTINUOUS
100
AcDbLine
 10
132.2453809999999805
 20
-105.6380869999999987
 30
0
 11
132.2480869999999982
 21
-105.6353809999999953
 31
0
  0
LINE
  5
175
330
1A
100
AcDbEntity
  8
BLACK
  6
CONTINUOUS
100
AcDbLine
 10
132.2480869999999982
 20
-105.6353809999999953
 30
0
 11
132.25
 21
-105.6349999999999909
 31
0
  0
LINE
  5
176
330
1A
100
AcDbEntity
  8
BLACK
  6
CONTINUOUS
100
AcDbLine
 10
132.25
 20
-105.6349999999999909
 30
0
 11
132.6099999999999852
 21
-105.6349999999999909
 31
0
  0
LINE
  5
177
330
1A
100
AcDbEntity
  8
BLACK
  6
CONTINUOUS
100
AcDbLine
 10
132.6099999999999852
 20
-105.6349999999999909
 30
0
 11
132.6119129999999871
 21
-105.6353809999999953
 31
0
  0
LINE
  5
178
330
1A
100
AcDbEntity
  8
BLACK
  6
CONTINUOUS
100
AcDbLine
 10
136.7519130000000018
 20
-105.6353809999999953
 30
0
 11
136.754618999999991
 21
-105.6380869999999987
 31
0
  0
LINE
  5
179
330
1A
100
AcDbEntity
  8
BLACK
  6
CONTINUOUS
100
AcDbLine
 10
136.754618999999991
 20
-105.6380869999999987
 30
0
 11
136.7549999999999955
 21
-105.6400000000000006
 31
0
  0
LINE
  5
17A
330
1A
100
AcDbEntity
  8
BLACK
  6
CONTINUOUS
100
AcDbLine
 10
136.7549999999999955
 20
-105.6400000000000006
 30
0
 11
136.7549999999999955
 21
-106.2599999999999909
 31
0
  0
LINE
  5
17B
330
1A
100
AcDbEntity
  8
BLACK
  6
CONTINUOUS
100
AcDbLine
 10
136.7549999999999955
 20
-106.2599999999999909
 30
0
 11
136.754618999999991
 21
-106.2619129999999927
 31
0
  0
LINE
  5
17C
330
1A
100
AcDbEntity
  8
BLACK
  6
CONTINUOUS
100
AcDbLine
 10
136.754618999999991
 20
-106.2619129999999927
 30
0
 11
136.7519130000000018
 21
-106.2646189999999962
 31
0
  0
LINE
  5
17D
330
1A
100
AcDbEntity
  8
BLACK
  6
CONTINUOUS
100
AcDbLine
 10
136.7519130000000018
 20
-106.2646189999999962
 30
0
 11
136.75
 21
-106.2650000000000006
 31
0
  0
LINE
  5
17E
330
1A
100
AcDbEntity
  8
BLACK
  6
CONTINUOUS
100
AcDbLine
 10
136.75
 20
-106.2650000000000006
 30
0
 11
136.3899999999999864
 21
-106.2650000000000006
 31
0
  0
LINE
  5
17F
330
1A
100
AcDbEntity
  8
BLACK
  6
CONTINUOUS
100
AcDbLine
 10
136.3899999999999864
 20
-106.2650000000000006
 30
0
 11
136.3880869999999845
 21
-106.2646189999999962
 31
0
  0
LINE
  5
180
330
1A
100
AcDbEntity
  8
BLACK
  6
CONTINUOUS
100
AcDbLine
 10
136.3880869999999845
 20
-106.2646189999999962
 30
0
 11
136.3853809999999953
 21
-106.2619129999999927
 31
0
  0
LINE
  5
181
330
1A
100
AcDbEntity
  8
BLACK
  6
CONTINUOUS
100
AcDbLine
 10
136.3853809999999953
 20
-106.2619129999999927
 30
0
 11
136.3849999999999909
 21
-106.2599999999999909
 31
0
  0
LINE
  5
182
330
1A
100
AcDbEntity
  8
BLACK
  6
CONTINUOUS
100
AcDbLine
 10
136.3849999999999909
 20
-106.2599999999999909
 30
0
 11
136.3849999999999909
 21
-105.6400000000000006
 31
0
  0
LINE
  5
183
330
1A
100
AcDbEntity
  8
BLACK
  6
CONTINUOUS
100
AcDbLine
 10
136.3849999999999909
 20
-105.6400000000000006
 30
0
 11
136.3853809999999953
 21
-105.6380869999999987
 31
0
  0
LINE
  5
184
330
1A
100
AcDbEntity
  8
BLACK
  6
CONTINUOUS
100
AcDbLine
 10
136.3853809999999953
 20
-105.6380869999999987
 30
0
 11
136.3880869999999845
 21
-105.6353809999999953
 31
0
  0
LINE
  5
185
330
1A
100
AcDbEntity
  8
BLACK
  6
CONTINUOUS
100
AcDbLine
 10
136.3880869999999845
 20
-105.6353809999999953
 30
0
 11
136.3899999999999864
 21
-105.6349999999999909
 31
0
  0
LINE
  5
186
330
1A
100
AcDbEntity
  8
BLACK
  6
CONTINUOUS
100
AcDbLine
 10
136.3899999999999864
 20
-105.6349999999999909
 30
0
 11
136.75
 21
-105.6349999999999909
 31
0
  0
LINE
  5
187
330
1A
100
AcDbEntity
  8
BLACK
  6
CONTINUOUS
100
AcDbLine
 10
136.75
 20
-105.6349999999999909
 30
0
 11
136.7519130000000018
 21
-105.6353809999999953
 31
0
  0
LINE
  5
188
330
1A
100
AcDbEntity
  8
BLACK
  6
CONTINUOUS
100
AcDbLine
 10
137.3119130000000041
 20
-105.6353809999999953
 30
0
 11
137.3146189999999933
 21
-105.6380869999999987
 31
0
  0
LINE
  5
189
330
1A
100
AcDbEntity
  8
BLACK
  6
CONTINUOUS
100
AcDbLine
 10
137.3146189999999933
 20
-105.6380869999999987
 30
0
 11
137.3149999999999977
 21
-105.6400000000000006
 31
0
  0
LINE
  5
18A
330
1A
100
AcDbEntity
  8
BLACK
  6
CONTINUOUS
100
AcDbLine
 10
137.3149999999999977
 20
-105.6400000000000006
 30
0
 11
137.3149999999999977
 21
-106.2599999999999909
 31
0
  0
LINE
  5
18B
330
1A
100
AcDbEntity
  8
BLACK
  6
CONTINUOUS
100
AcDbLine
 10
137.3149999999999977
 20
-106.2599999999999909
 30
0
 11
137.3146189999999933
 21
-106.2619129999999927
 31
0
  0
LINE
  5
18C
330
1A
100
AcDbEntity
  8
BLACK
  6
CONTINUOUS
100
AcDbLine
 10
137.3146189999999933
 20
-106.2619129999999927
 30
0
 11
137.3119130000000041
 21
-106.2646189999999962
 31
0
  0
LINE
  5
18D
330
1A
100
AcDbEntity
  8
BLACK
  6
CONTINUOUS
100
AcDbLine
 10
137.3119130000000041
 20
-106.2646189999999962
 30
0
 11
137.3100000000000023
 21
-106.2650000000000006
 31
0
  0
LINE
  5
18E
330
1A
100
AcDbEntity
  8
BLACK
  6
CONTINUOUS
100
AcDbLine
 10
137.3100000000000023
 20
-106.2650000000000006
 30
0
 11
136.9499999999999886
 21
-106.2650000000000006
 31
0
  0
LINE
  5
18F
330
1A
100
AcDbEntity
  8
BLACK
  6
CONTINUOUS
100
AcDbLine
 10
136.9499999999999886
 20
-106.2650000000000006
 30
0
 11
136.9480869999999868
 21
-106.2646189999999962
 31
0
  0
LINE
  5
190
330
1A
100
AcDbEntity
  8
BLACK
  6
CONTINUOUS
100
AcDbLine
 10
136.9480869999999868
 20
-106.2646189999999962
 30
0
 11
136.9453809999999976
 21
-106.2619129999999927
 31
0
  0
LINE
  5
191
330
1A
100
AcDbEntity
  8
BLACK
  6
CONTINUOUS
100
AcDbLine
 10
136.9453809999999976
 20
-106.2619129999999927
 30
0
 11
136.9449999999999932
 21
-106.2599999999999909
 31
0
  0
LINE
  5
192
330
1A
100
AcDbEntity
  8
BLACK
  6
CONTINUOUS
100
AcDbLine
 10
136.9449999999999932
 20
-106.2599999999999909
 30
0
 11
136.9449999999999932
 21
-105.6400000000000006
 31
0
  0
LINE
  5
193
330
1A
100
AcDbEntity
  8
BLACK
  6
CONTINUOUS
100
AcDbLine
 10
136.9449999999999932
 20
-105.6400000000000006
 30
0
 11
136.9453809999999976
 21
-105.6380869999999987
 31
0
  0
LINE
  5
194
330
1A
100
AcDbEntity
  8
BLACK
  6
CONTINUOUS
100
AcDbLine
 10
136.9453809999999976
 20
-105.6380869999999987
 30
0
 11
136.9480869999999868
 21
-105.6353809999999953
 31
0
  0
LINE
  5
195
330
1A
100
AcDbEntity
  8
BLACK
  6
CONTINUOUS
100
AcDbLine
 10
136.9480869999999868
 20
-105.6353809999999953
 30
0
 11
136.9499999999999886
 21
-105.6349999999999909
 31
0
  0
LINE
  5
196
330
1A
100
AcDbEntity
  8
BLACK
  6
CONTINUOUS
100
AcDbLine
 10
136.9499999999999886
 20
-105.6349999999999909
 30
0
 11
137.3100000000000023
 21
-105.6349999999999909
 31
0
  0
LINE
  5
197
330
1A
100
AcDbEntity
  8
BLACK
  6
CONTINUOUS
100
AcDbLine
 10
137.3100000000000023
 20
-105.6349999999999909
 30
0
 11
137.3119130000000041
 21
-105.6353809999999953
 31
0
  0
LINE
  5
198
330
1A
100
AcDbEntity
  8
BLACK
  6
CONTINUOUS
100
AcDbLine
 10
141.4519129999999905
 20
-105.6353809999999953
 30
0
 11
141.4546189999999797
 21
-105.6380869999999987
 31
0
  0
LINE
  5
199
330
1A
100
AcDbEntity
  8
BLACK
  6
CONTINUOUS
100
AcDbLine
 10
141.4546189999999797
 20
-105.6380869999999987
 30
0
 11
141.4549999999999841
 21
-105.6400000000000006
 31
0
  0
LINE
  5
19A
330
1A
100
AcDbEntity
  8
BLACK
  6
CONTINUOUS
100
AcDbLine
 10
141.4549999999999841
 20
-105.6400000000000006
 30
0
 11
141.4549999999999841
 21
-106.2599999999999909
 31
0
  0
LINE
  5
19B
330
1A
100
AcDbEntity
  8
BLACK
  6
CONTINUOUS
100
AcDbLine
 10
141.4549999999999841
 20
-106.2599999999999909
 30
0
 11
141.4546189999999797
 21
-106.2619129999999927
 31
0
  0
LINE
  5
19C
330
1A
100
AcDbEntity
  8
BLACK
  6
CONTINUOUS
100
AcDbLine
 10
141.4546189999999797
 20
-106.2619129999999927
 30
0
 11
141.4519129999999905
 21
-106.2646189999999962
 31
0
  0
LINE
  5
19D
330
1A
100
AcDbEntity
  8
BLACK
  6
CONTINUOUS
100
AcDbLine
 10
141.4519129999999905
 20
-106.2646189999999962
 30
0
 11
141.4499999999999886
 21
-106.2650000000000006
 31
0
  0
LINE
  5
19E
330
1A
100
AcDbEntity
  8
BLACK
  6
CONTINUOUS
100
AcDbLine
 10
141.4499999999999886
 20
-106.2650000000000006
 30
0
 11
141.0900000000000034
 21
-106.2650000000000006
 31
0
  0
LINE
  5
19F
330
1A
100
AcDbEntity
  8
BLACK
  6
CONTINUOUS
100
AcDbLine
 10
141.0900000000000034
 20
-106.2650000000000006
 30
0
 11
141.0880870000000016
 21
-106.2646189999999962
 31
0
  0
LINE
  5
1A0
330
1A
100
AcDbEntity
  8
BLACK
  6
CONTINUOUS
100
AcDbLine
 10
141.0880870000000016
 20
-106.2646189999999962
 30
0
 11
141.0853809999999839
 21
-106.2619129999999927
 31
0
  0
LINE
  5
1A1
330
1A
100
AcDbEntity
  8
BLACK
  6
CONTINUOUS
100
AcDbLine
 10
141.0853809999999839
 20
-106.2619129999999927
 30
0
 11
141.0849999999999795
 21
-106.2599999999999909
 31
0
  0
LINE
  5
1A2
330
1A
100
AcDbEntity
  8
BLACK
  6
CONTINUOUS
100
AcDbLine
 10
141.0849999999999795
 20
-106.2599999999999909
 30
0
 11
141.0849999999999795
 21
-105.6400000000000006
 31
0
  0
LINE
  5
1A3
330
1A
100
AcDbEntity
  8
BLACK
  6
CONTINUOUS
100
AcDbLine
 10
141.0849999999999795
 20
-105.6400000000000006
 30
0
 11
141.0853809999999839
 21
-105.6380869999999987
 31
0
  0
LINE
  5
1A4
330
1A
100
AcDbEntity
  8
BLACK
  6
CONTINUOUS
100
AcDbLine
 10
141.0853809999999839
 20
-105.6380869999999987
 30
0
 11
141.0880870000000016
 21
-105.6353809999999953
 31
0
  0
LINE
  5
1A5
330
1A
100
AcDbEntity
  8
BLACK
  6
CONTINUOUS
100
AcDbLine
 10
141.0880870000000016
 20
-105.6353809999999953
 30
0
 11
141.0900000000000034
 21
-105.6349999999999909
 31
0
  0
LINE
  5
1A6
330
1A
100
AcDbEntity
  8
BLACK
  6
CONTINUOUS
100
AcDbLine
 10
141.0900000000000034
 20
-105.6349999999999909
 30
0
 11
141.4499999999999886
 21
-105.6349999999999909
 31
0
  0
LINE
  5
1A7
330
1A
100
AcDbEntity
  8
BLACK
  6
CONTINUOUS
100
AcDbLine
 10
141.4499999999999886
 20
-105.6349999999999909
 30
0
 11
141.4519129999999905
 21
-105.6353809999999953
 31
0
  0
LINE
  5
1A8
330
1A
100
AcDbEntity
  8
BLACK
  6
CONTINUOUS
100
AcDbLine
 10
142.0119129999999927
 20
-105.6353809999999953
 30
0
 11
142.014618999999982
 21
-105.6380869999999987
 31
0
  0
LINE
  5
1A9
330
1A
100
AcDbEntity
  8
BLACK
  6
CONTINUOUS
100
AcDbLine
 10
142.014618999999982
 20
-105.6380869999999987
 30
0
 11
142.0149999999999864
 21
-105.6400000000000006
 31
0
  0
LINE
  5
1AA
330
1A
100
AcDbEntity
  8
BLACK
  6
CONTINUOUS
100
AcDbLine
 10
142.0149999999999864
 20
-105.6400000000000006
 30
0
 11
142.0149999999999864
 21
-106.2599999999999909
 31
0
  0
LINE
  5
1AB
330
1A
100
AcDbEntity
  8
BLACK
  6
CONTINUOUS
100
AcDbLine
 10
142.0149999999999864
 20
-106.2599999999999909
 30
0
 11
142.014618999999982
 21
-106.2619129999999927
 31
0
  0
LINE
  5
1AC
330
1A
100
AcDbEntity
  8
BLACK
  6
CONTINUOUS
100
AcDbLine
 10
142.014618999999982
 20
-106.2619129999999927
 30
0
 11
142.0119129999999927
 21
-106.2646189999999962
 31
0
  0
LINE
  5
1AD
330
1A
100
AcDbEntity
  8
BLACK
  6
CONTINUOUS
100
AcDbLine
 10
142.0119129999999927
 20
-106.2646189999999962
 30
0
 11
142.0099999999999909
 21
-106.2650000000000006
 31
0
  0
LINE
  5
1AE
330
1A
100
AcDbEntity
  8
BLACK
  6
CONTINUOUS
100
AcDbLine
 10
142.0099999999999909
 20
-106.2650000000000006
 30
0
 11
141.6500000000000057
 21
-106.2650000000000006
 31
0
  0
LINE
  5
1AF
330
1A
100
AcDbEntity
  8
BLACK
  6
CONTINUOUS
100
AcDbLine
 10
141.6500000000000057
 20
-106.2650000000000006
 30
0
 11
141.6480870000000039
 21
-106.2646189999999962
 31
0
  0
LINE
  5
1B0
330
1A
100
AcDbEntity
  8
BLACK
  6
CONTINUOUS
100
AcDbLine
 10
141.6480870000000039
 20
-106.2646189999999962
 30
0
 11
141.6453809999999862
 21
-106.2619129999999927
 31
0
  0
LINE
  5
1B1
330
1A
100
AcDbEntity
  8
BLACK
  6
CONTINUOUS
100
AcDbLine
 10
141.6453809999999862
 20
-106.2619129999999927
 30
0
 11
141.6449999999999818
 21
-106.2599999999999909
 31
0
  0
LINE
  5
1B2
330
1A
100
AcDbEntity
  8
BLACK
  6
CONTINUOUS
100
AcDbLine
 10
141.6449999999999818
 20
-106.2599999999999909
 30
0
 11
141.6449999999999818
 21
-105.6400000000000006
 31
0
  0
LINE
  5
1B3
330
1A
100
AcDbEntity
  8
BLACK
  6
CONTINUOUS
100
AcDbLine
 10
141.6449999999999818
 20
-105.6400000000000006
 30
0
 11
141.6453809999999862
 21
-105.6380869999999987
 31
0
  0
LINE
  5
1B4
330
1A
100
AcDbEntity
  8
BLACK
  6
CONTINUOUS
100
AcDbLine
 10
141.6453809999999862
 20
-105.6380869999999987
 30
0
 11
141.6480870000000039
 21
-105.6353809999999953
 31
0
  0
LINE
  5
1B5
330
1A
100
AcDbEntity
  8
BLACK
  6
CONTINUOUS
100
AcDbLine
 10
141.6480870000000039
 20
-105.6353809999999953
 30
0
 11
141.6500000000000057
 21
-105.6349999999999909
 31
0
  0
LINE
  5
1B6
330
1A
100
AcDbEntity
  8
BLACK
  6
CONTINUOUS
100
AcDbLine
 10
141.6500000000000057
 20
-105.6349999999999909
 30
0
 11
142.0099999999999909
 21
-105.6349999999999909
 31
0
  0
LINE
  5
1B7
330
1A
100
AcDbEntity
  8
BLACK
  6
CONTINUOUS
100
AcDbLine
 10
142.0099999999999909
 20
-105.6349999999999909
 30
0
 11
142.0119129999999927
 21
-105.6353809999999953
 31
0
  0
LINE
  5
1B8
330
1A
100
AcDbEntity
  8
BLACK
  6
CONTINUOUS
100
AcDbLine
 10
127.0599999999999881
 20
-105.4099999999999966
 30
0
 11
126.8399999999999892
 21
-105.4099999999999966
 31
0
  0
LINE
  5
1B9
330
1A
100
AcDbEntity
  8
BLACK
  6
CONTINUOUS
100
AcDbLine
 10
126.8399999999999892
 20
-105.4099999999999966
 30
0
 11
126.8399999999999892
 21
-104.9499999999999886
 31
0
  0
LINE
  5
1BA
330
1A
100
AcDbEntity
  8
BLACK
  6
CONTINUOUS
100
AcDbLine
 10
126.8399999999999892
 20
-104.9499999999999886
 30
0
 11
127.0599999999999881
 21
-104.9499999999999886
 31
0
  0
LINE
  5
1BB
330
1A
100
AcDbEntity
  8
BLACK
  6
CONTINUOUS
100
AcDbLine
 10
127.0599999999999881
 20
-104.9499999999999886
 30
0
 11
127.0599999999999881
 21
-105.4099999999999966
 31
0
  0
LINE
  5
1BC
330
1A
100
AcDbEntity
  8
BLACK
  6
CONTINUOUS
100
AcDbLine
 10
127.5599999999999881
 20
-105.4099999999999966
 30
0
 11
127.3399999999999892
 21
-105.4099999999999966
 31
0
  0
LINE
  5
1BD
330
1A
100
AcDbEntity
  8
BLACK
  6
CONTINUOUS
100
AcDbLine
 10
127.3399999999999892
 20
-105.4099999999999966
 30
0
 11
127.3399999999999892
 21
-104.9499999999999886
 31
0
  0
LINE
  5
1BE
330
1A
100
AcDbEntity
  8
BLACK
  6
CONTINUOUS
100
AcDbLine
 10
127.3399999999999892
 20
-104.9499999999999886
 30
0
 11
127.5599999999999881
 21
-104.9499999999999886
 31
0
  0
LINE
  5
1BF
330
1A
100
AcDbEntity
  8
BLACK
  6
CONTINUOUS
100
AcDbLine
 10
127.5599999999999881
 20
-104.9499999999999886
 30
0
 11
127.5599999999999881
 21
-105.4099999999999966
 31
0
  0
LINE
  5
1C0
330
1A
100
AcDbEntity
  8
BLACK
  6
CONTINUOUS
100
AcDbLine
 10
128.0600000000000023
 20
-105.4099999999999966
 30
0
 11
127.8399999999999892
 21
-105.4099999999999966
 31
0
  0
LINE
  5
1C1
330
1A
100
AcDbEntity
  8
BLACK
  6
CONTINUOUS
100
AcDbLine
 10
127.8399999999999892
 20
-105.4099999999999966
 30
0
 11
127.8399999999999892
 21
-104.9499999999999886
 31
0
  0
LINE
  5
1C2
330
1A
100
AcDbEntity
  8
BLACK
  6
CONTINUOUS
100
AcDbLine
 10
127.8399999999999892
 20
-104.9499999999999886
 30
0
 11
128.0600000000000023
 21
-104.9499999999999886
 31
0
  0
LINE
  5
1C3
330
1A
100
AcDbEntity
  8
BLACK
  6
CONTINUOUS
100
AcDbLine
 10
128.0600000000000023
 20
-104.9499999999999886
 30
0
 11
128.0600000000000023
 21
-105.4099999999999966
 31
0
  0
LINE
  5
1C4
330
1A
100
AcDbEntity
  8
BLACK
  6
CONTINUOUS
100
AcDbLine
 10
131.7599999999999909
 20
-105.4099999999999966
 30
0
 11
131.539999999999992
 21
-105.4099999999999966
 31
0
  0
LINE
  5
1C5
330
1A
100
AcDbEntity
  8
BLACK
  6
CONTINUOUS
100
AcDbLine
 10
131.539999999999992
 20
-105.4099999999999966
 30
0
 11
131.539999999999992
 21
-104.9499999999999886
 31
0
  0
LINE
  5
1C6
330
1A
100
AcDbEntity
  8
BLACK
  6
CONTINUOUS
100
AcDbLine
 10
131.539999999999992
 20
-104.9499999999999886
 30
0
 11
131.7599999999999909
 21
-104.9499999999999886
 31
0
  0
LINE
  5
1C7
330
1A
100
AcDbEntity
  8
BLACK
  6
CONTINUOUS
100
AcDbLine
 10
131.7599999999999909
 20
-104.9499999999999886
 30
0
 11
131.7599999999999909
 21
-105.4099999999999966
 31
0
  0
LINE
  5
1C8
330
1A
100
AcDbEntity
  8
BLACK
  6
CONTINUOUS
100
AcDbLine
 10
132.2599999999999909
 20
-105.4099999999999966
 30
0
 11
132.039999999999992
 21
-105.4099999999999966
 31
0
  0
LINE
  5
1C9
330
1A
100
AcDbEntity
  8
BLACK
  6
CONTINUOUS
100
AcDbLine
 10
132.039999999999992
 20
-105.4099999999999966
 30
0
 11
132.039999999999992
 21
-104.9499999999999886
 31
0
  0
LINE
  5
1CA
330
1A
100
AcDbEntity
  8
BLACK
  6
CONTINUOUS
100
AcDbLine
 10
132.039999999999992
 20
-104.9499999999999886
 30
0
 11
132.2599999999999909
 21
-104.9499999999999886
 31
0
  0
LINE
  5
1CB
330
1A
100
AcDbEntity
  8
BLACK
  6
CONTINUOUS
100
AcDbLine
 10
132.2599999999999909
 20
-104.9499999999999886
 30
0
 11
132.2599999999999909
 21
-105.4099999999999966
 31
0
  0
LINE
  5
1CC
330
1A
100
AcDbEntity
  8
BLACK
  6
CONTINUOUS
100
AcDbLine
 10
132.7599999999999909
 20
-105.4099999999999966
 30
0
 11
132.539999999999992
 21
-105.4099999999999966
 31
0
  0
LINE
  5
1CD
330
1A
100
AcDbEntity
  8
BLACK
  6
CONTINUOUS
100
AcDbLine
 10
132.539999999999992
 20
-105.4099999999999966
 30
0
 11
132.539999999999992
 21
-104.9499999999999886
 31
0
  0
LINE
  5
1CE
330
1A
100
AcDbEntity
  8
BLACK
  6
CONTINUOUS
100
AcDbLine
 10
132.539999999999992
 20
-104.9499999999999886
 30
0
 11
132.7599999999999909
 21
-104.9499999999999886
 31
0
  0
LINE
  5
1CF
330
1A
100
AcDbEntity
  8
BLACK
  6
CONTINUOUS
100
AcDbLine
 10
132.7599999999999909
 20
-104.9499999999999886
 30
0
 11
132.7599999999999909
 21
-105.4099999999999966
 31
0
  0
LINE
  5
1D0
330
1A
100
AcDbEntity
  8
BLACK
  6
CONTINUOUS
100
AcDbLine
 10
136.460000000000008
 20
-105.4099999999999966
 30
0
 11
136.2399999999999807
 21
-105.4099999999999966
 31
0
  0
LINE
  5
1D1
330
1A
100
AcDbEntity
  8
BLACK
  6
CONTINUOUS
100
AcDbLine
 10
136.2399999999999807
 20
-105.4099999999999966
 30
0
 11
136.2399999999999807
 21
-104.9499999999999886
 31
0
  0
LINE
  5
1D2
330
1A
100
AcDbEntity
  8
BLACK
  6
CONTINUOUS
100
AcDbLine
 10
136.2399999999999807
 20
-104.9499999999999886
 30
0
 11
136.460000000000008
 21
-104.9499999999999886
 31
0
  0
LINE
  5
1D3
330
1A
100
AcDbEntity
  8
BLACK
  6
CONTINUOUS
100
AcDbLine
 10
136.460000000000008
 20
-104.9499999999999886
 30
0
 11
136.460000000000008
 21
-105.4099999999999966
 31
0
  0
LINE
  5
1D4
330
1A
100
AcDbEntity
  8
BLACK
  6
CONTINUOUS
100
AcDbLine
 10
136.960000000000008
 20
-105.4099999999999966
 30
0
 11
136.7399999999999807
 21
-105.4099999999999966
 31
0
  0
LINE
  5
1D5
330
1A
100
AcDbEntity
  8
BLACK
  6
CONTINUOUS
100
AcDbLine
 10
136.7399999999999807
 20
-105.4099999999999966
 30
0
 11
136.7399999999999807
 21
-104.9499999999999886
 31
0
  0
LINE
  5
1D6
330
1A
100
AcDbEntity
  8
BLACK
  6
CONTINUOUS
100
AcDbLine
 10
136.7399999999999807
 20
-104.9499999999999886
 30
0
 11
136.960000000000008
 21
-104.9499999999999886
 31
0
  0
LINE
  5
1D7
330
1A
100
AcDbEntity
  8
BLACK
  6
CONTINUOUS
100
AcDbLine
 10
136.960000000000008
 20
-104.9499999999999886
 30
0
 11
136.960000000000008
 21
-105.4099999999999966
 31
0
  0
LINE
  5
1D8
330
1A
100
AcDbEntity
  8
BLACK
  6
CONTINUOUS
100
AcDbLine
 10
137.460000000000008
 20
-105.4099999999999966
 30
0
 11
137.2399999999999807
 21
-105.4099999999999966
 31
0
  0
LINE
  5
1D9
330
1A
100
AcDbEntity
  8
BLACK
  6
CONTINUOUS
100
AcDbLine
 10
137.2399999999999807
 20
-105.4099999999999966
 30
0
 11
137.2399999999999807
 21
-104.9499999999999886
 31
0
  0
LINE
  5
1DA
330
1A
100
AcDbEntity
  8
BLACK
  6
CONTINUOUS
100
AcDbLine
 10
137.2399999999999807
 20
-104.9499999999999886
 30
0
 11
137.460000000000008
 21
-104.9499999999999886
 31
0
  0
LINE
  5
1DB
330
1A
100
AcDbEntity
  8
BLACK
  6
CONTINUOUS
100
AcDbLine
 10
137.460000000000008
 20
-104.9499999999999886
 30
0
 11
137.460000000000008
 21
-105.4099999999999966
 31
0
  0
LINE
  5
1DC
330
1A
100
AcDbEntity
  8
BLACK
  6
CONTINUOUS
100
AcDbLine
 10
141.1599999999999966
 20
-105.4099999999999966
 30
0
 11
140.9399999999999977
 21
-105.4099999999999966
 31
0
  0
LINE
  5
1DD
330
1A
100
AcDbEntity
  8
BLACK
  6
CONTINUOUS
100
AcDbLine
 10
140.9399999999999977
 20
-105.4099999999999966
 30
0
 11
140.9399999999999977
 21
-104.9499999999999886
 31
0
  0
LINE
  5
1DE
330
1A
100
AcDbEntity
  8
BLACK
  6
CONTINUOUS
100
AcDbLine
 10
140.9399999999999977
 20
-104.9499999999999886
 30
0
 11
141.1599999999999966
 21
-104.9499999999999886
 31
0
  0
LINE
  5
1DF
330
1A
100
AcDbEntity
  8
BLACK
  6
CONTINUOUS
100
AcDbLine
 10
141.1599999999999966
 20
-104.9499999999999886
 30
0
 11
141.1599999999999966
 21
-105.4099999999999966
 31
0
  0
LINE
  5
1E0
330
1A
100
AcDbEntity
  8
BLACK
  6
CONTINUOUS
100
AcDbLine
 10
141.6599999999999966
 20
-105.4099999999999966
 30
0
 11
141.4399999999999977
 21
-105.4099999999999966
 31
0
  0
LINE
  5
1E1
330
1A
100
AcDbEntity
  8
BLACK
  6
CONTINUOUS
100
AcDbLine
 10
141.4399999999999977
 20
-105.4099999999999966
 30
0
 11
141.4399999999999977
 21
-104.9499999999999886
 31
0
  0
LINE
  5
1E2
330
1A
100
AcDbEntity
  8
BLACK
  6
CONTINUOUS
100
AcDbLine
 10
141.4399999999999977
 20
-104.9499999999999886
 30
0
 11
141.6599999999999966
 21
-104.9499999999999886
 31
0
  0
LINE
  5
1E3
330
1A
100
AcDbEntity
  8
BLACK
  6
CONTINUOUS
100
AcDbLine
 10
141.6599999999999966
 20
-104.9499999999999886
 30
0
 11
141.6599999999999966
 21
-105.4099999999999966
 31
0
  0
LINE
  5
1E4
330
1A
100
AcDbEntity
  8
BLACK
  6
CONTINUOUS
100
AcDbLine
 10
142.1599999999999966
 20
-105.4099999999999966
 30
0
 11
141.9399999999999977
 21
-105.4099999999999966
 31
0
  0
LINE
  5
1E5
330
1A
100
AcDbEntity
  8
BLACK
  6
CONTINUOUS
100
AcDbLine
 10
141.9399999999999977
 20
-105.4099999999999966
 30
0
 11
141.9399999999999977
 21
-104.9499999999999886
 31
0
  0
LINE
  5
1E6
330
1A
100
AcDbEntity
  8
BLACK
  6
CONTINUOUS
100
AcDbLine
 10
141.9399999999999977
 20
-104.9499999999999886
 30
0
 11
142.1599999999999966
 21
-104.9499999999999886
 31
0
  0
LINE
  5
1E7
330
1A
100
AcDbEntity
  8
BLACK
  6
CONTINUOUS
100
AcDbLine
 10
142.1599999999999966
 20
-104.9499999999999886
 30
0
 11
142.1599999999999966
 21
-105.4099999999999966
 31
0
  0
LINE
  5
1E8
330
1A
100
AcDbEntity
  8
BLACK
  6
CONTINUOUS
100
AcDbLine
 10
127.0599999999999881
 20
-102.25
 30
0
 11
126.8399999999999892
 21
-102.25
 31
0
  0
LINE
  5
1E9
330
1A
100
AcDbEntity
  8
BLACK
  6
CONTINUOUS
100
AcDbLine
 10
126.8399999999999892
 20
-102.25
 30
0
 11
126.8399999999999892
 21
-101.789999999999992
 31
0
  0
LINE
  5
1EA
330
1A
100
AcDbEntity
  8
BLACK
  6
CONTINUOUS
100
AcDbLine
 10
126.8399999999999892
 20
-101.789999999999992
 30
0
 11
127.0599999999999881
 21
-101.789999999999992
 31
0
  0
LINE
  5
1EB
330
1A
100
AcDbEntity
  8
BLACK
  6
CONTINUOUS
100
AcDbLine
 10
127.0599999999999881
 20
-101.789999999999992
 30
0
 11
127.0599999999999881
 21
-102.25
 31
0
  0
LINE
  5
1EC
330
1A
100
AcDbEntity
  8
BLACK
  6
CONTINUOUS
100
AcDbLine
 10
127.5599999999999881
 20
-102.25
 30
0
 11
127.3399999999999892
 21
-102.25
 31
0
  0
LINE
  5
1ED
330
1A
100
AcDbEntity
  8
BLACK
  6
CONTINUOUS
100
AcDbLine
 10
127.3399999999999892
 20
-102.25
 30
0
 11
127.3399999999999892
 21
-101.789999999999992
 31
0
  0
LINE
  5
1EE
330
1A
100
AcDbEntity
  8
BLACK
  6
CONTINUOUS
100
AcDbLine
 10
127.3399999999999892
 20
-101.789999999999992
 30
0
 11
127.5599999999999881
 21
-101.789999999999992
 31
0
  0
LINE
  5
1EF
330
1A
100
AcDbEntity
  8
BLACK
  6
CONTINUOUS
100
AcDbLine
 10
127.5599999999999881
 20
-101.789999999999992
 30
0
 11
127.5599999999999881
 21
-102.25
 31
0
  0
LINE
  5
1F0
330
1A
100
AcDbEntity
  8
BLACK
  6
CONTINUOUS
100
AcDbLine
 10
128.0600000000000023
 20
-102.25
 30
0
 11
127.8399999999999892
 21
-102.25
 31
0
  0
LINE
  5
1F1
330
1A
100
AcDbEntity
  8
BLACK
  6
CONTINUOUS
100
AcDbLine
 10
127.8399999999999892
 20
-102.25
 30
0
 11
127.8399999999999892
 21
-101.789999999999992
 31
0
  0
LINE
  5
1F2
330
1A
100
AcDbEntity
  8
BLACK
  6
CONTINUOUS
100
AcDbLine
 10
127.8399999999999892
 20
-101.789999999999992
 30
0
 11
128.0600000000000023
 21
-101.789999999999992
 31
0
  0
LINE
  5
1F3
330
1A
100
AcDbEntity
  8
BLACK
  6
CONTINUOUS
100
AcDbLine
 10
128.0600000000000023
 20
-101.789999999999992
 30
0
 11
128.0600000000000023
 21
-102.25
 31
0
  0
LINE
  5
1F4
330
1A
100
AcDbEntity
  8
BLACK
  6
CONTINUOUS
100
AcDbLine
 10
131.7599999999999909
 20
-102.25
 30
0
 11
131.539999999999992
 21
-102.25
 31
0
  0
LINE
  5
1F5
330
1A
100
AcDbEntity
  8
BLACK
  6
CONTINUOUS
100
AcDbLine
 10
131.539999999999992
 20
-102.25
 30
0
 11
131.539999999999992
 21
-101.789999999999992
 31
0
  0
LINE
  5
1F6
330
1A
100
AcDbEntity
  8
BLACK
  6
CONTINUOUS
100
AcDbLine
 10
131.539999999999992
 20
-101.789999999999992
 30
0
 11
131.7599999999999909
 21
-101.789999999999992
 31
0
  0
LINE
  5
1F7
330
1A
100
AcDbEntity
  8
BLACK
  6
CONTINUOUS
100
AcDbLine
 10
131.7599999999999909
 20
-101.789999999999992
 30
0
 11
131.7599999999999909
 21
-102.25
 31
0
  0
LINE
  5
1F8
330
1A
100
AcDbEntity
  8
BLACK
  6
CONTINUOUS
100
AcDbLine
 10
132.2599999999999909
 20
-102.25
 30
0
 11
132.039999999999992
 21
-102.25
 31
0
  0
LINE
  5
1F9
330
1A
100
AcDbEntity
  8
BLACK
  6
CONTINUOUS
100
AcDbLine
 10
132.039999999999992
 20
-102.25
 30
0
 11
132.039999999999992
 21
-101.789999999999992
 31
0
  0
LINE
  5
1FA
330
1A
100
AcDbEntity
  8
BLACK
  6
CONTINUOUS
100
AcDbLine
 10
132.039999999999992
 20
-101.789999999999992
 30
0
 11
132.2599999999999909
 21
-101.789999999999992
 31
0
  0
LINE
  5
1FB
330
1A
100
AcDbEntity
  8
BLACK
  6
CONTINUOUS
100
AcDbLine
 10
132.2599999999999909
 20
-101.789999999999992
 30
0
 11
132.2599999999999909
 21
-102.25
 31
0
  0
LINE
  5
1FC
330
1A
100
AcDbEntity
  8
BLACK
  6
CONTINUOUS
100
AcDbLine
 10
132.7599999999999909
 20
-102.25
 30
0
 11
132.539999999999992
 21
-102.25
 31
0
  0
LINE
  5
1FD
330
1A
100
AcDbEntity
  8
BLACK
  6
CONTINUOUS
100
AcDbLine
 10
132.539999999999992
 20
-102.25
 30
0
 11
132.539999999999992
 21
-101.789999999999992
 31
0
  0
LINE
  5
1FE
330
1A
100
AcDbEntity
  8
BLACK
  6
CONTINUOUS
100
AcDbLine
 10
132.539999999999992
 20
-101.789999999999992
 30
0
 11
132.7599999999999909
 21
-101.789999999999992
 31
0
  0
LINE
  5
1FF
330
1A
100
AcDbEntity
  8
BLACK
  6
CONTINUOUS
100
AcDbLine
 10
132.7599999999999909
 20
-101.789999999999992
 30
0
 11
132.7599999999999909
 21
-102.25
 31
0
  0
LINE
  5
200
330
1A
100
AcDbEntity
  8
BLACK
  6
CONTINUOUS
100
AcDbLine
 10
136.460000000000008
 20
-102.25
 30
0
 11
136.2399999999999807
 21
-102.25
 31
0
  0
LINE
  5
201
330
1A
100
AcDbEntity
  8
BLACK
  6
CONTINUOUS
100
AcDbLine
 10
136.2399999999999807
 20
-102.25
 30
0
 11
136.2399999999999807
 21
-101.789999999999992
 31
0
  0
LINE
  5
202
330
1A
100
AcDbEntity
  8
BLACK
  6
CONTINUOUS
100
AcDbLine
 10
136.2399999999999807
 20
-101.789999999999992
 30
0
 11
136.460000000000008
 21
-101.789999999999992
 31
0
  0
LINE
  5
203
330
1A
100
AcDbEntity
  8
BLACK
  6
CONTINUOUS
100
AcDbLine
 10
136.460000000000008
 20
-101.789999999999992
 30
0
 11
136.460000000000008
 21
-102.25
 31
0
  0
LINE
  5
204
330
1A
100
AcDbEntity
  8
BLACK
  6
CONTINUOUS
100
AcDbLine
 10
136.960000000000008
 20
-102.25
 30
0
 11
136.7399999999999807
 21
-102.25
 31
0
  0
LINE
  5
205
330
1A
100
AcDbEntity
  8
BLACK
  6
CONTINUOUS
100
AcDbLine
 10
136.7399999999999807
 20
-102.25
 30
0
 11
136.7399999999999807
 21
-101.789999999999992
 31
0
  0
LINE
  5
206
330
1A
100
AcDbEntity
  8
BLACK
  6
CONTINUOUS
100
AcDbLine
 10
136.7399999999999807
 20
-101.789999999999992
 30
0
 11
136.960000000000008
 21
-101.789999999999992
 31
0
  0
LINE
  5
207
330
1A
100
AcDbEntity
  8
BLACK
  6
CONTINUOUS
100
AcDbLine
 10
136.960000000000008
 20
-101.789999999999992
 30
0
 11
136.960000000000008
 21
-102.25
 31
0
  0
LINE
  5
208
330
1A
100
AcDbEntity
  8
BLACK
  6
CONTINUOUS
100
AcDbLine
 10
137.460000000000008
 20
-102.25
 30
0
 11
137.2399999999999807
 21
-102.25
 31
0
  0
LINE
  5
209
330
1A
100
AcDbEntity
  8
BLACK
  6
CONTINUOUS
100
AcDbLine
 10
137.2399999999999807
 20
-102.25
 30
0
 11
137.2399999999999807
 21
-101.789999999999992
 31
0
  0
LINE
  5
20A
330
1A
100
AcDbEntity
  8
BLACK
  6
CONTINUOUS
100
AcDbLine
 10
137.2399999999999807
 20
-101.789999999999992
 30
0
 11
137.460000000000008
 21
-101.789999999999992
 31
0
  0
LINE
  5
20B
330
1A
100
AcDbEntity
  8
BLACK
  6
CONTINUOUS
100
AcDbLine
 10
137.460000000000008
 20
-101.789999999999992
 30
0
 11
137.460000000000008
 21
-102.25
 31
0
  0
LINE
  5
20C
330
1A
100
AcDbEntity
  8
BLACK
  6
CONTINUOUS
100
AcDbLine
 10
141.1599999999999966
 20
-102.25
 30
0
 11
140.9399999999999977
 21
-102.25
 31
0
  0
LINE
  5
20D
330
1A
100
AcDbEntity
  8
BLACK
  6
CONTINUOUS
100
AcDbLine
 10
140.9399999999999977
 20
-102.25
 30
0
 11
140.9399999999999977
 21
-101.789999999999992
 31
0
  0
LINE
  5
20E
330
1A
100
AcDbEntity
  8
BLACK
  6
CONTINUOUS
100
AcDbLine
 10
140.9399999999999977
 20
-101.789999999999992
 30
0
 11
141.1599999999999966
 21
-101.789999999999992
 31
0
  0
LINE
  5
20F
330
1A
100
AcDbEntity
  8
BLACK
  6
CONTINUOUS
100
AcDbLine
 10
141.1599999999999966
 20
-101.789999999999992
 30
0
 11
141.1599999999999966
 21
-102.25
 31
0
  0
LINE
  5
210
330
1A
100
AcDbEntity
  8
BLACK
  6
CONTINUOUS
100
AcDbLine
 10
141.6599999999999966
 20
-102.25
 30
0
 11
141.4399999999999977
 21
-102.25
 31
0
  0
LINE
  5
211
330
1A
100
AcDbEntity
  8
BLACK
  6
CONTINUOUS
100
AcDbLine
 10
141.4399999999999977
 20
-102.25
 30
0
 11
141.4399999999999977
 21
-101.789999999999992
 31
0
  0
LINE
  5
212
330
1A
100
AcDbEntity
  8
BLACK
  6
CONTINUOUS
100
AcDbLine
 10
141.4399999999999977
 20
-101.789999999999992
 30
0
 11
141.6599999999999966
 21
-101.789999999999992
 31
0
  0
LINE
  5
213
330
1A
100
AcDbEntity
  8
BLACK
  6
CONTINUOUS
100
AcDbLine
 10
141.6599999999999966
 20
-101.789999999999992
 30
0
 11
141.6599999999999966
 21
-102.25
 31
0
  0
LINE
  5
214
330
1A
100
AcDbEntity
  8
BLACK
  6
CONTINUOUS
100
AcDbLine
 10
142.1599999999999966
 20
-102.25
 30
0
 11
141.9399999999999977
 21
-102.25
 31
0
  0
LINE
  5
215
330
1A
100
AcDbEntity
  8
BLACK
  6
CONTINUOUS
100
AcDbLine
 10
141.9399999999999977
 20
-102.25
 30
0
 11
141.9399999999999977
 21
-101.789999999999992
 31
0
  0
LINE
  5
216
330
1A
100
AcDbEntity
  8
BLACK
  6
CONTINUOUS
100
AcDbLine
 10
141.9399999999999977
 20
-101.789999999999992
 30
0
 11
142.1599999999999966
 21
-101.789999999999992
 31
0
  0
LINE
  5
217
330
1A
100
AcDbEntity
  8
BLACK
  6
CONTINUOUS
100
AcDbLine
 10
142.1599999999999966
 20
-101.789999999999992
 30
0
 11
142.1599999999999966
 21
-102.25
 31
0
  0
LINE
  5
218
330
1A
100
AcDbEntity
  8
BLACK
  6
CONTINUOUS
100
AcDbLine
 10
127.3519129999999961
 20
-100.9353809999999925
 30
0
 11
127.3546189999999996
 21
-100.9380869999999959
 31
0
  0
LINE
  5
219
330
1A
100
AcDbEntity
  8
BLACK
  6
CONTINUOUS
100
AcDbLine
 10
127.3546189999999996
 20
-100.9380869999999959
 30
0
 11
127.3549999999999898
 21
-100.9399999999999977
 31
0
  0
LINE
  5
21A
330
1A
100
AcDbEntity
  8
BLACK
  6
CONTINUOUS
100
AcDbLine
 10
127.3549999999999898
 20
-100.9399999999999977
 30
0
 11
127.3549999999999898
 21
-101.5600000000000023
 31
0
  0
LINE
  5
21B
330
1A
100
AcDbEntity
  8
BLACK
  6
CONTINUOUS
100
AcDbLine
 10
127.3549999999999898
 20
-101.5600000000000023
 30
0
 11
127.3546189999999996
 21
-101.5619129999999899
 31
0
  0
LINE
  5
21C
330
1A
100
AcDbEntity
  8
BLACK
  6
CONTINUOUS
100
AcDbLine
 10
127.3546189999999996
 20
-101.5619129999999899
 30
0
 11
127.3519129999999961
 21
-101.5646189999999933
 31
0
  0
LINE
  5
21D
330
1A
100
AcDbEntity
  8
BLACK
  6
CONTINUOUS
100
AcDbLine
 10
127.3519129999999961
 20
-101.5646189999999933
 30
0
 11
127.3499999999999943
 21
-101.5649999999999977
 31
0
  0
LINE
  5
21E
330
1A
100
AcDbEntity
  8
BLACK
  6
CONTINUOUS
100
AcDbLine
 10
127.3499999999999943
 20
-101.5649999999999977
 30
0
 11
126.9899999999999949
 21
-101.5649999999999977
 31
0
  0
LINE
  5
21F
330
1A
100
AcDbEntity
  8
BLACK
  6
CONTINUOUS
100
AcDbLine
 10
126.9899999999999949
 20
-101.5649999999999977
 30
0
 11
126.9880869999999931
 21
-101.5646189999999933
 31
0
  0
LINE
  5
220
330
1A
100
AcDbEntity
  8
BLACK
  6
CONTINUOUS
100
AcDbLine
 10
126.9880869999999931
 20
-101.5646189999999933
 30
0
 11
126.9853809999999896
 21
-101.5619129999999899
 31
0
  0
LINE
  5
221
330
1A
100
AcDbEntity
  8
BLACK
  6
CONTINUOUS
100
AcDbLine
 10
126.9853809999999896
 20
-101.5619129999999899
 30
0
 11
126.9849999999999994
 21
-101.5600000000000023
 31
0
  0
LINE
  5
222
330
1A
100
AcDbEntity
  8
BLACK
  6
CONTINUOUS
100
AcDbLine
 10
126.9849999999999994
 20
-101.5600000000000023
 30
0
 11
126.9849999999999994
 21
-100.9399999999999977
 31
0
  0
LINE
  5
223
330
1A
100
AcDbEntity
  8
BLACK
  6
CONTINUOUS
100
AcDbLine
 10
126.9849999999999994
 20
-100.9399999999999977
 30
0
 11
126.9853809999999896
 21
-100.9380869999999959
 31
0
  0
LINE
  5
224
330
1A
100
AcDbEntity
  8
BLACK
  6
CONTINUOUS
100
AcDbLine
 10
126.9853809999999896
 20
-100.9380869999999959
 30
0
 11
126.9880869999999931
 21
-100.9353809999999925
 31
0
  0
LINE
  5
225
330
1A
100
AcDbEntity
  8
BLACK
  6
CONTINUOUS
100
AcDbLine
 10
126.9880869999999931
 20
-100.9353809999999925
 30
0
 11
126.9899999999999949
 21
-100.9350000000000023
 31
0
  0
LINE
  5
226
330
1A
100
AcDbEntity
  8
BLACK
  6
CONTINUOUS
100
AcDbLine
 10
126.9899999999999949
 20
-100.9350000000000023
 30
0
 11
127.3499999999999943
 21
-100.9350000000000023
 31
0
  0
LINE
  5
227
330
1A
100
AcDbEntity
  8
BLACK
  6
CONTINUOUS
100
AcDbLine
 10
127.3499999999999943
 20
-100.9350000000000023
 30
0
 11
127.3519129999999961
 21
-100.9353809999999925
 31
0
  0
LINE
  5
228
330
1A
100
AcDbEntity
  8
BLACK
  6
CONTINUOUS
100
AcDbLine
 10
127.9119129999999984
 20
-100.9353809999999925
 30
0
 11
127.9146189999999876
 21
-100.9380869999999959
 31
0
  0
LINE
  5
229
330
1A
100
AcDbEntity
  8
BLACK
  6
CONTINUOUS
100
AcDbLine
 10
127.9146189999999876
 20
-100.9380869999999959
 30
0
 11
127.914999999999992
 21
-100.9399999999999977
 31
0
  0
LINE
  5
22A
330
1A
100
AcDbEntity
  8
BLACK
  6
CONTINUOUS
100
AcDbLine
 10
127.914999999999992
 20
-100.9399999999999977
 30
0
 11
127.914999999999992
 21
-101.5600000000000023
 31
0
  0
LINE
  5
22B
330
1A
100
AcDbEntity
  8
BLACK
  6
CONTINUOUS
100
AcDbLine
 10
127.914999999999992
 20
-101.5600000000000023
 30
0
 11
127.9146189999999876
 21
-101.5619129999999899
 31
0
  0
LINE
  5
22C
330
1A
100
AcDbEntity
  8
BLACK
  6
CONTINUOUS
100
AcDbLine
 10
127.9146189999999876
 20
-101.5619129999999899
 30
0
 11
127.9119129999999984
 21
-101.5646189999999933
 31
0
  0
LINE
  5
22D
330
1A
100
AcDbEntity
  8
BLACK
  6
CONTINUOUS
100
AcDbLine
 10
127.9119129999999984
 20
-101.5646189999999933
 30
0
 11
127.9099999999999966
 21
-101.5649999999999977
 31
0
  0
LINE
  5
22E
330
1A
100
AcDbEntity
  8
BLACK
  6
CONTINUOUS
100
AcDbLine
 10
127.9099999999999966
 20
-101.5649999999999977
 30
0
 11
127.5499999999999972
 21
-101.5649999999999977
 31
0
  0
LINE
  5
22F
330
1A
100
AcDbEntity
  8
BLACK
  6
CONTINUOUS
100
AcDbLine
 10
127.5499999999999972
 20
-101.5649999999999977
 30
0
 11
127.5480869999999953
 21
-101.5646189999999933
 31
0
  0
LINE
  5
230
330
1A
100
AcDbEntity
  8
BLACK
  6
CONTINUOUS
100
AcDbLine
 10
127.5480869999999953
 20
-101.5646189999999933
 30
0
 11
127.5453809999999919
 21
-101.5619129999999899
 31
0
  0
LINE
  5
231
330
1A
100
AcDbEntity
  8
BLACK
  6
CONTINUOUS
100
AcDbLine
 10
127.5453809999999919
 20
-101.5619129999999899
 30
0
 11
127.5449999999999875
 21
-101.5600000000000023
 31
0
  0
LINE
  5
232
330
1A
100
AcDbEntity
  8
BLACK
  6
CONTINUOUS
100
AcDbLine
 10
127.5449999999999875
 20
-101.5600000000000023
 30
0
 11
127.5449999999999875
 21
-100.9399999999999977
 31
0
  0
LINE
  5
233
330
1A
100
AcDbEntity
  8
BLACK
  6
CONTINUOUS
100
AcDbLine
 10
127.5449999999999875
 20
-100.9399999999999977
 30
0
 11
127.5453809999999919
 21
-100.9380869999999959
 31
0
  0
LINE
  5
234
330
1A
100
AcDbEntity
  8
BLACK
  6
CONTINUOUS
100
AcDbLine
 10
127.5453809999999919
 20
-100.9380869999999959
 30
0
 11
127.5480869999999953
 21
-100.9353809999999925
 31
0
  0
LINE
  5
235
330
1A
100
AcDbEntity
  8
BLACK
  6
CONTINUOUS
100
AcDbLine
 10
127.5480869999999953
 20
-100.9353809999999925
 30
0
 11
127.5499999999999972
 21
-100.9350000000000023
 31
0
  0
LINE
  5
236
330
1A
100
AcDbEntity
  8
BLACK
  6
CONTINUOUS
100
AcDbLine
 10
127.5499999999999972
 20
-100.9350000000000023
 30
0
 11
127.9099999999999966
 21
-100.9350000000000023
 31
0
  0
LINE
  5
237
330
1A
100
AcDbEntity
  8
BLACK
  6
CONTINUOUS
100
AcDbLine
 10
127.9099999999999966
 20
-100.9350000000000023
 30
0
 11
127.9119129999999984
 21
-100.9353809999999925
 31
0
  0
LINE
  5
238
330
1A
100
AcDbEntity
  8
BLACK
  6
CONTINUOUS
100
AcDbLine
 10
132.0519129999999848
 20
-100.9353809999999925
 30
0
 11
132.0546190000000024
 21
-100.9380869999999959
 31
0
  0
LINE
  5
239
330
1A
100
AcDbEntity
  8
BLACK
  6
CONTINUOUS
100
AcDbLine
 10
132.0546190000000024
 20
-100.9380869999999959
 30
0
 11
132.0550000000000068
 21
-100.9399999999999977
 31
0
  0
LINE
  5
23A
330
1A
100
AcDbEntity
  8
BLACK
  6
CONTINUOUS
100
AcDbLine
 10
132.0550000000000068
 20
-100.9399999999999977
 30
0
 11
132.0550000000000068
 21
-101.5600000000000023
 31
0
  0
LINE
  5
23B
330
1A
100
AcDbEntity
  8
BLACK
  6
CONTINUOUS
100
AcDbLine
 10
132.0550000000000068
 20
-101.5600000000000023
 30
0
 11
132.0546190000000024
 21
-101.5619129999999899
 31
0
  0
LINE
  5
23C
330
1A
100
AcDbEntity
  8
BLACK
  6
CONTINUOUS
100
AcDbLine
 10
132.0546190000000024
 20
-101.5619129999999899
 30
0
 11
132.0519129999999848
 21
-101.5646189999999933
 31
0
  0
LINE
  5
23D
330
1A
100
AcDbEntity
  8
BLACK
  6
CONTINUOUS
100
AcDbLine
 10
132.0519129999999848
 20
-101.5646189999999933
 30
0
 11
132.0499999999999829
 21
-101.5649999999999977
 31
0
  0
LINE
  5
23E
330
1A
100
AcDbEntity
  8
BLACK
  6
CONTINUOUS
100
AcDbLine
 10
132.0499999999999829
 20
-101.5649999999999977
 30
0
 11
131.6899999999999977
 21
-101.5649999999999977
 31
0
  0
LINE
  5
23F
330
1A
100
AcDbEntity
  8
BLACK
  6
CONTINUOUS
100
AcDbLine
 10
131.6899999999999977
 20
-101.5649999999999977
 30
0
 11
131.6880869999999959
 21
-101.5646189999999933
 31
0
  0
LINE
  5
240
330
1A
100
AcDbEntity
  8
BLACK
  6
CONTINUOUS
100
AcDbLine
 10
131.6880869999999959
 20
-101.5646189999999933
 30
0
 11
131.6853810000000067
 21
-101.5619129999999899
 31
0
  0
LINE
  5
241
330
1A
100
AcDbEntity
  8
BLACK
  6
CONTINUOUS
100
AcDbLine
 10
131.6853810000000067
 20
-101.5619129999999899
 30
0
 11
131.6850000000000023
 21
-101.5600000000000023
 31
0
  0
LINE
  5
242
330
1A
100
AcDbEntity
  8
BLACK
  6
CONTINUOUS
100
AcDbLine
 10
131.6850000000000023
 20
-101.5600000000000023
 30
0
 11
131.6850000000000023
 21
-100.9399999999999977
 31
0
  0
LINE
  5
243
330
1A
100
AcDbEntity
  8
BLACK
  6
CONTINUOUS
100
AcDbLine
 10
131.6850000000000023
 20
-100.9399999999999977
 30
0
 11
131.6853810000000067
 21
-100.9380869999999959
 31
0
  0
LINE
  5
244
330
1A
100
AcDbEntity
  8
BLACK
  6
CONTINUOUS
100
AcDbLine
 10
131.6853810000000067
 20
-100.9380869999999959
 30
0
 11
131.6880869999999959
 21
-100.9353809999999925
 31
0
  0
LINE
  5
245
330
1A
100
AcDbEntity
  8
BLACK
  6
CONTINUOUS
100
AcDbLine
 10
131.6880869999999959
 20
-100.9353809999999925
 30
0
 11
131.6899999999999977
 21
-100.9350000000000023
 31
0
  0
LINE
  5
246
330
1A
100
AcDbEntity
  8
BLACK
  6
CONTINUOUS
100
AcDbLine
 10
131.6899999999999977
 20
-100.9350000000000023
 30
0
 11
132.0499999999999829
 21
-100.9350000000000023
 31
0
  0
LINE
  5
247
330
1A
100
AcDbEntity
  8
BLACK
  6
CONTINUOUS
100
AcDbLine
 10
132.0499999999999829
 20
-100.9350000000000023
 30
0
 11
132.0519129999999848
 21
-100.9353809999999925
 31
0
  0
LINE
  5
248
330
1A
100
AcDbEntity
  8
BLACK
  6
CONTINUOUS
100
AcDbLine
 10
132.6119129999999871
 20
-100.9353809999999925
 30
0
 11
132.6146190000000047
 21
-100.9380869999999959
 31
0
  0
LINE
  5
249
330
1A
100
AcDbEntity
  8
BLACK
  6
CONTINUOUS
100
AcDbLine
 10
132.6146190000000047
 20
-100.9380869999999959
 30
0
 11
132.6149999999999807
 21
-100.9399999999999977
 31
0
  0
LINE
  5
24A
330
1A
100
AcDbEntity
  8
BLACK
  6
CONTINUOUS
100
AcDbLine
 10
132.6149999999999807
 20
-100.9399999999999977
 30
0
 11
132.6149999999999807
 21
-101.5600000000000023
 31
0
  0
LINE
  5
24B
330
1A
100
AcDbEntity
  8
BLACK
  6
CONTINUOUS
100
AcDbLine
 10
132.6149999999999807
 20
-101.5600000000000023
 30
0
 11
132.6146190000000047
 21
-101.5619129999999899
 31
0
  0
LINE
  5
24C
330
1A
100
AcDbEntity
  8
BLACK
  6
CONTINUOUS
100
AcDbLine
 10
132.6146190000000047
 20
-101.5619129999999899
 30
0
 11
132.6119129999999871
 21
-101.5646189999999933
 31
0
  0
LINE
  5
24D
330
1A
100
AcDbEntity
  8
BLACK
  6
CONTINUOUS
100
AcDbLine
 10
132.6119129999999871
 20
-101.5646189999999933
 30
0
 11
132.6099999999999852
 21
-101.5649999999999977
 31
0
  0
LINE
  5
24E
330
1A
100
AcDbEntity
  8
BLACK
  6
CONTINUOUS
100
AcDbLine
 10
132.6099999999999852
 20
-101.5649999999999977
 30
0
 11
132.25
 21
-101.5649999999999977
 31
0
  0
LINE
  5
24F
330
1A
100
AcDbEntity
  8
BLACK
  6
CONTINUOUS
100
AcDbLine
 10
132.25
 20
-101.5649999999999977
 30
0
 11
132.2480869999999982
 21
-101.5646189999999933
 31
0
  0
LINE
  5
250
330
1A
100
AcDbEntity
  8
BLACK
  6
CONTINUOUS
100
AcDbLine
 10
132.2480869999999982
 20
-101.5646189999999933
 30
0
 11
132.2453809999999805
 21
-101.5619129999999899
 31
0
  0
LINE
  5
251
330
1A
100
AcDbEntity
  8
BLACK
  6
CONTINUOUS
100
AcDbLine
 10
132.2453809999999805
 20
-101.5619129999999899
 30
0
 11
132.2450000000000045
 21
-101.5600000000000023
 31
0
  0
LINE
  5
252
330
1A
100
AcDbEntity
  8
BLACK
  6
CONTINUOUS
100
AcDbLine
 10
132.2450000000000045
 20
-101.5600000000000023
 30
0
 11
132.2450000000000045
 21
-100.9399999999999977
 31
0
  0
LINE
  5
253
330
1A
100
AcDbEntity
  8
BLACK
  6
CONTINUOUS
100
AcDbLine
 10
132.2450000000000045
 20
-100.9399999999999977
 30
0
 11
132.2453809999999805
 21
-100.9380869999999959
 31
0
  0
LINE
  5
254
330
1A
100
AcDbEntity
  8
BLACK
  6
CONTINUOUS
100
AcDbLine
 10
132.2453809999999805
 20
-100.9380869999999959
 30
0
 11
132.2480869999999982
 21
-100.9353809999999925
 31
0
  0
LINE
  5
255
330
1A
100
AcDbEntity
  8
BLACK
  6
CONTINUOUS
100
AcDbLine
 10
132.2480869999999982
 20
-100.9353809999999925
 30
0
 11
132.25
 21
-100.9350000000000023
 31
0
  0
LINE
  5
256
330
1A
100
AcDbEntity
  8
BLACK
  6
CONTINUOUS
100
AcDbLine
 10
132.25
 20
-100.9350000000000023
 30
0
 11
132.6099999999999852
 21
-100.9350000000000023
 31
0
  0
LINE
  5
257
330
1A
100
AcDbEntity
  8
BLACK
  6
CONTINUOUS
100
AcDbLine
 10
132.6099999999999852
 20
-100.9350000000000023
 30
0
 11
132.6119129999999871
 21
-100.9353809999999925
 31
0
  0
LINE
  5
258
330
1A
100
AcDbEntity
  8
BLACK
  6
CONTINUOUS
100
AcDbLine
 10
136.7519130000000018
 20
-100.9353809999999925
 30
0
 11
136.754618999999991
 21
-100.9380869999999959
 31
0
  0
LINE
  5
259
330
1A
100
AcDbEntity
  8
BLACK
  6
CONTINUOUS
100
AcDbLine
 10
136.754618999999991
 20
-100.9380869999999959
 30
0
 11
136.7549999999999955
 21
-100.9399999999999977
 31
0
  0
LINE
  5
25A
330
1A
100
AcDbEntity
  8
BLACK
  6
CONTINUOUS
100
AcDbLine
 10
136.7549999999999955
 20
-100.9399999999999977
 30
0
 11
136.7549999999999955
 21
-101.5600000000000023
 31
0
  0
LINE
  5
25B
330
1A
100
AcDbEntity
  8
BLACK
  6
CONTINUOUS
100
AcDbLine
 10
136.7549999999999955
 20
-101.5600000000000023
 30
0
 11
136.754618999999991
 21
-101.5619129999999899
 31
0
  0
LINE
  5
25C
330
1A
100
AcDbEntity
  8
BLACK
  6
CONTINUOUS
100
AcDbLine
 10
136.754618999999991
 20
-101.5619129999999899
 30
0
 11
136.7519130000000018
 21
-101.5646189999999933
 31
0
  0
LINE
  5
25D
330
1A
100
AcDbEntity
  8
BLACK
  6
CONTINUOUS
100
AcDbLine
 10
136.7519130000000018
 20
-101.5646189999999933
 30
0
 11
136.75
 21
-101.5649999999999977
 31
0
  0
LINE
  5
25E
330
1A
100
AcDbEntity
  8
BLACK
  6
CONTINUOUS
100
AcDbLine
 10
136.75
 20
-101.5649999999999977
 30
0
 11
136.3899999999999864
 21
-101.5649999999999977
 31
0
  0
LINE
  5
25F
330
1A
100
AcDbEntity
  8
BLACK
  6
CONTINUOUS
100
AcDbLine
 10
136.3899999999999864
 20
-101.5649999999999977
 30
0
 11
136.3880869999999845
 21
-101.5646189999999933
 31
0
  0
LINE
  5
260
330
1A
100
AcDbEntity
  8
BLACK
  6
CONTINUOUS
100
AcDbLine
 10
136.3880869999999845
 20
-101.5646189999999933
 30
0
 11
136.3853809999999953
 21
-101.5619129999999899
 31
0
  0
LINE
  5
261
330
1A
100
AcDbEntity
  8
BLACK
  6
CONTINUOUS
100
AcDbLine
 10
136.3853809999999953
 20
-101.5619129999999899
 30
0
 11
136.3849999999999909
 21
-101.5600000000000023
 31
0
  0
LINE
  5
262
330
1A
100
AcDbEntity
  8
BLACK
  6
CONTINUOUS
100
AcDbLine
 10
136.3849999999999909
 20
-101.5600000000000023
 30
0
 11
136.3849999999999909
 21
-100.9399999999999977
 31
0
  0
LINE
  5
263
330
1A
100
AcDbEntity
  8
BLACK
  6
CONTINUOUS
100
AcDbLine
 10
136.3849999999999909
 20
-100.9399999999999977
 30
0
 11
136.3853809999999953
 21
-100.9380869999999959
 31
0
  0
LINE
  5
264
330
1A
100
AcDbEntity
  8
BLACK
  6
CONTINUOUS
100
AcDbLine
 10
136.3853809999999953
 20
-100.9380869999999959
 30
0
 11
136.3880869999999845
 21
-100.9353809999999925
 31
0
  0
LINE
  5
265
330
1A
100
AcDbEntity
  8
BLACK
  6
CONTINUOUS
100
AcDbLine
 10
136.3880869999999845
 20
-100.9353809999999925
 30
0
 11
136.3899999999999864
 21
-100.9350000000000023
 31
0
  0
LINE
  5
266
330
1A
100
AcDbEntity
  8
BLACK
  6
CONTINUOUS
100
AcDbLine
 10
136.3899999999999864
 20
-100.9350000000000023
 30
0
 11
136.75
 21
-100.9350000000000023
 31
0
  0
LINE
  5
267
330
1A
100
AcDbEntity
  8
BLACK
  6
CONTINUOUS
100
AcDbLine
 10
136.75
 20
-100.9350000000000023
 30
0
 11
136.7519130000000018
 21
-100.9353809999999925
 31
0
  0
LINE
  5
268
330
1A
100
AcDbEntity
  8
BLACK
  6
CONTINUOUS
100
AcDbLine
 10
137.3119130000000041
 20
-100.9353809999999925
 30
0
 11
137.3146189999999933
 21
-100.9380869999999959
 31
0
  0
LINE
  5
269
330
1A
100
AcDbEntity
  8
BLACK
  6
CONTINUOUS
100
AcDbLine
 10
137.3146189999999933
 20
-100.9380869999999959
 30
0
 11
137.3149999999999977
 21
-100.9399999999999977
 31
0
  0
LINE
  5
26A
330
1A
100
AcDbEntity
  8
BLACK
  6
CONTINUOUS
100
AcDbLine
 10
137.3149999999999977
 20
-100.9399999999999977
 30
0
 11
137.3149999999999977
 21
-101.5600000000000023
 31
0
  0
LINE
  5
26B
330
1A
100
AcDbEntity
  8
BLACK
  6
CONTINUOUS
100
AcDbLine
 10
137.3149999999999977
 20
-101.5600000000000023
 30
0
 11
137.3146189999999933
 21
-101.5619129999999899
 31
0
  0
LINE
  5
26C
330
1A
100
AcDbEntity
  8
BLACK
  6
CONTINUOUS
100
AcDbLine
 10
137.3146189999999933
 20
-101.5619129999999899
 30
0
 11
137.3119130000000041
 21
-101.5646189999999933
 31
0
  0
LINE
  5
26D
330
1A
100
AcDbEntity
  8
BLACK
  6
CONTINUOUS
100
AcDbLine
 10
137.3119130000000041
 20
-101.5646189999999933
 30
0
 11
137.3100000000000023
 21
-101.5649999999999977
 31
0
  0
LINE
  5
26E
330
1A
100
AcDbEntity
  8
BLACK
  6
CONTINUOUS
100
AcDbLine
 10
137.3100000000000023
 20
-101.5649999999999977
 30
0
 11
136.9499999999999886
 21
-101.5649999999999977
 31
0
  0
LINE
  5
26F
330
1A
100
AcDbEntity
  8
BLACK
  6
CONTINUOUS
100
AcDbLine
 10
136.9499999999999886
 20
-101.5649999999999977
 30
0
 11
136.9480869999999868
 21
-101.5646189999999933
 31
0
  0
LINE
  5
270
330
1A
100
AcDbEntity
  8
BLACK
  6
CONTINUOUS
100
AcDbLine
 10
136.9480869999999868
 20
-101.5646189999999933
 30
0
 11
136.9453809999999976
 21
-101.5619129999999899
 31
0
  0
LINE
  5
271
330
1A
100
AcDbEntity
  8
BLACK
  6
CONTINUOUS
100
AcDbLine
 10
136.9453809999999976
 20
-101.5619129999999899
 30
0
 11
136.9449999999999932
 21
-101.5600000000000023
 31
0
  0
LINE
  5
272
330
1A
100
AcDbEntity
  8
BLACK
  6
CONTINUOUS
100
AcDbLine
 10
136.9449999999999932
 20
-101.5600000000000023
 30
0
 11
136.9449999999999932
 21
-100.9399999999999977
 31
0
  0
LINE
  5
273
330
1A
100
AcDbEntity
  8
BLACK
  6
CONTINUOUS
100
AcDbLine
 10
136.9449999999999932
 20
-100.9399999999999977
 30
0
 11
136.9453809999999976
 21
-100.9380869999999959
 31
0
  0
LINE
  5
274
330
1A
100
AcDbEntity
  8
BLACK
  6
CONTINUOUS
100
AcDbLine
 10
136.9453809999999976
 20
-100.9380869999999959
 30
0
 11
136.9480869999999868
 21
-100.9353809999999925
 31
0
  0
LINE
  5
275
330
1A
100
AcDbEntity
  8
BLACK
  6
CONTINUOUS
100
AcDbLine
 10
136.9480869999999868
 20
-100.9353809999999925
 30
0
 11
136.9499999999999886
 21
-100.9350000000000023
 31
0
  0
LINE
  5
276
330
1A
100
AcDbEntity
  8
BLACK
  6
CONTINUOUS
100
AcDbLine
 10
136.9499999999999886
 20
-100.9350000000000023
 30
0
 11
137.3100000000000023
 21
-100.9350000000000023
 31
0
  0
LINE
  5
277
330
1A
100
AcDbEntity
  8
BLACK
  6
CONTINUOUS
100
AcDbLine
 10
137.3100000000000023
 20
-100.9350000000000023
 30
0
 11
137.3119130000000041
 21
-100.9353809999999925
 31
0
  0
LINE
  5
278
330
1A
100
AcDbEntity
  8
BLACK
  6
CONTINUOUS
100
AcDbLine
 10
141.4519129999999905
 20
-100.9353809999999925
 30
0
 11
141.4546189999999797
 21
-100.9380869999999959
 31
0
  0
LINE
  5
279
330
1A
100
AcDbEntity
  8
BLACK
  6
CONTINUOUS
100
AcDbLine
 10
141.4546189999999797
 20
-100.9380869999999959
 30
0
 11
141.4549999999999841
 21
-100.9399999999999977
 31
0
  0
LINE
  5
27A
330
1A
100
AcDbEntity
  8
BLACK
  6
CONTINUOUS
100
AcDbLine
 10
141.4549999999999841
 20
-100.9399999999999977
 30
0
 11
141.4549999999999841
 21
-101.5600000000000023
 31
0
  0
LINE
  5
27B
330
1A
100
AcDbEntity
  8
BLACK
  6
CONTINUOUS
100
AcDbLine
 10
141.4549999999999841
 20
-101.5600000000000023
 30
0
 11
141.4546189999999797
 21
-101.5619129999999899
 31
0
  0
LINE
  5
27C
330
1A
100
AcDbEntity
  8
BLACK
  6
CONTINUOUS
100
AcDbLine
 10
141.4546189999999797
 20
-101.5619129999999899
 30
0
 11
141.4519129999999905
 21
-101.5646189999999933
 31
0
  0
LINE
  5
27D
330
1A
100
AcDbEntity
  8
BLACK
  6
CONTINUOUS
100
AcDbLine
 10
141.4519129999999905
 20
-101.5646189999999933
 30
0
 11
141.4499999999999886
 21
-101.5649999999999977
 31
0
  0
LINE
  5
27E
330
1A
100
AcDbEntity
  8
BLACK
  6
CONTINUOUS
100
AcDbLine
 10
141.4499999999999886
 20
-101.5649999999999977
 30
0
 11
141.0900000000000034
 21
-101.5649999999999977
 31
0
  0
LINE
  5
27F
330
1A
100
AcDbEntity
  8
BLACK
  6
CONTINUOUS
100
AcDbLine
 10
141.0900000000000034
 20
-101.5649999999999977
 30
0
 11
141.0880870000000016
 21
-101.5646189999999933
 31
0
  0
LINE
  5
280
330
1A
100
AcDbEntity
  8
BLACK
  6
CONTINUOUS
100
AcDbLine
 10
141.0880870000000016
 20
-101.5646189999999933
 30
0
 11
141.0853809999999839
 21
-101.5619129999999899
 31
0
  0
LINE
  5
281
330
1A
100
AcDbEntity
  8
BLACK
  6
CONTINUOUS
100
AcDbLine
 10
141.0853809999999839
 20
-101.5619129999999899
 30
0
 11
141.0849999999999795
 21
-101.5600000000000023
 31
0
  0
LINE
  5
282
330
1A
100
AcDbEntity
  8
BLACK
  6
CONTINUOUS
100
AcDbLine
 10
141.0849999999999795
 20
-101.5600000000000023
 30
0
 11
141.0849999999999795
 21
-100.9399999999999977
 31
0
  0
LINE
  5
283
330
1A
100
AcDbEntity
  8
BLACK
  6
CONTINUOUS
100
AcDbLine
 10
141.0849999999999795
 20
-100.9399999999999977
 30
0
 11
141.0853809999999839
 21
-100.9380869999999959
 31
0
  0
LINE
  5
284
330
1A
100
AcDbEntity
  8
BLACK
  6
CONTINUOUS
100
AcDbLine
 10
141.0853809999999839
 20
-100.9380869999999959
 30
0
 11
141.0880870000000016
 21
-100.9353809999999925
 31
0
  0
LINE
  5
285
330
1A
100
AcDbEntity
  8
BLACK
  6
CONTINUOUS
100
AcDbLine
 10
141.0880870000000016
 20
-100.9353809999999925
 30
0
 11
141.0900000000000034
 21
-100.9350000000000023
 31
0
  0
LINE
  5
286
330
1A
100
AcDbEntity
  8
BLACK
  6
CONTINUOUS
100
AcDbLine
 10
141.0900000000000034
 20
-100.9350000000000023
 30
0
 11
141.4499999999999886
 21
-100.9350000000000023
 31
0
  0
LINE
  5
287
330
1A
100
AcDbEntity
  8
BLACK
  6
CONTINUOUS
100
AcDbLine
 10
141.4499999999999886
 20
-100.9350000000000023
 30
0
 11
141.4519129999999905
 21
-100.9353809999999925
 31
0
  0
LINE
  5
288
330
1A
100
AcDbEntity
  8
BLACK
  6
CONTINUOUS
100
AcDbLine
 10
142.0119129999999927
 20
-100.9353809999999925
 30
0
 11
142.014618999999982
 21
-100.9380869999999959
 31
0
  0
LINE
  5
289
330
1A
100
AcDbEntity
  8
BLACK
  6
CONTINUOUS
100
AcDbLine
 10
142.014618999999982
 20
-100.9380869999999959
 30
0
 11
142.0149999999999864
 21
-100.9399999999999977
 31
0
  0
LINE
  5
28A
330
1A
100
AcDbEntity
  8
BLACK
  6
CONTINUOUS
100
AcDbLine
 10
142.0149999999999864
 20
-100.9399999999999977
 30
0
 11
142.0149999999999864
 21
-101.5600000000000023
 31
0
  0
LINE
  5
28B
330
1A
100
AcDbEntity
  8
BLACK
  6
CONTINUOUS
100
AcDbLine
 10
142.0149999999999864
 20
-101.5600000000000023
 30
0
 11
142.014618999999982
 21
-101.5619129999999899
 31
0
  0
LINE
  5
28C
330
1A
100
AcDbEntity
  8
BLACK
  6
CONTINUOUS
100
AcDbLine
 10
142.014618999999982
 20
-101.5619129999999899
 30
0
 11
142.0119129999999927
 21
-101.5646189999999933
 31
0
  0
LINE
  5
28D
330
1A
100
AcDbEntity
  8
BLACK
  6
CONTINUOUS
100
AcDbLine
 10
142.0119129999999927
 20
-101.5646189999999933
 30
0
 11
142.0099999999999909
 21
-101.5649999999999977
 31
0
  0
LINE
  5
28E
330
1A
100
AcDbEntity
  8
BLACK
  6
CONTINUOUS
100
AcDbLine
 10
142.0099999999999909
 20
-101.5649999999999977
 30
0
 11
141.6500000000000057
 21
-101.5649999999999977
 31
0
  0
LINE
  5
28F
330
1A
100
AcDbEntity
  8
BLACK
  6
CONTINUOUS
100
AcDbLine
 10
141.6500000000000057
 20
-101.5649999999999977
 30
0
 11
141.6480870000000039
 21
-101.5646189999999933
 31
0
  0
LINE
  5
290
330
1A
100
AcDbEntity
  8
BLACK
  6
CONTINUOUS
100
AcDbLine
 10
141.6480870000000039
 20
-101.5646189999999933
 30
0
 11
141.6453809999999862
 21
-101.5619129999999899
 31
0
  0
LINE
  5
291
330
1A
100
AcDbEntity
  8
BLACK
  6
CONTINUOUS
100
AcDbLine
 10
141.6453809999999862
 20
-101.5619129999999899
 30
0
 11
141.6449999999999818
 21
-101.5600000000000023
 31
0
  0
LINE
  5
292
330
1A
100
AcDbEntity
  8
BLACK
  6
CONTINUOUS
100
AcDbLine
 10
141.6449999999999818
 20
-101.5600000000000023
 30
0
 11
141.6449999999999818
 21
-100.9399999999999977
 31
0
  0
LINE
  5
293
330
1A
100
AcDbEntity
  8
BLACK
  6
CONTINUOUS
100
AcDbLine
 10
141.6449999999999818
 20
-100.9399999999999977
 30
0
 11
141.6453809999999862
 21
-100.9380869999999959
 31
0
  0
LINE
  5
294
330
1A
100
AcDbEntity
  8
BLACK
  6
CONTINUOUS
100
AcDbLine
 10
141.6453809999999862
 20
-100.9380869999999959
 30
0
 11
141.6480870000000039
 21
-100.9353809999999925
 31
0
  0
LINE
  5
295
330
1A
100
AcDbEntity
  8
BLACK
  6
CONTINUOUS
100
AcDbLine
 10
141.6480870000000039
 20
-100.9353809999999925
 30
0
 11
141.6500000000000057
 21
-100.9350000000000023
 31
0
  0
LINE
  5
296
330
1A
100
AcDbEntity
  8
BLACK
  6
CONTINUOUS
100
AcDbLine
 10
141.6500000000000057
 20
-100.9350000000000023
 30
0
 11
142.0099999999999909
 21
-100.9350000000000023
 31
0
  0
LINE
  5
297
330
1A
100
AcDbEntity
  8
BLACK
  6
CONTINUOUS
100
AcDbLine
 10
142.0099999999999909
 20
-100.9350000000000023
 30
0
 11
142.0119129999999927
 21
-100.9353809999999925
 31
0
  0
LINE
  5
298
330
1A
100
AcDbEntity
  8
BLACK
  6
CONTINUOUS
100
AcDbLine
 10
127.0599999999999881
 20
-100.7099999999999937
 30
0
 11
126.8399999999999892
 21
-100.7099999999999937
 31
0
  0
LINE
  5
299
330
1A
100
AcDbEntity
  8
BLACK
  6
CONTINUOUS
100
AcDbLine
 10
126.8399999999999892
 20
-100.7099999999999937
 30
0
 11
126.8399999999999892
 21
-100.25
 31
0
  0
LINE
  5
29A
330
1A
100
AcDbEntity
  8
BLACK
  6
CONTINUOUS
100
AcDbLine
 10
126.8399999999999892
 20
-100.25
 30
0
 11
127.0599999999999881
 21
-100.25
 31
0
  0
LINE
  5
29B
330
1A
100
AcDbEntity
  8
BLACK
  6
CONTINUOUS
100
AcDbLine
 10
127.0599999999999881
 20
-100.25
 30
0
 11
127.0599999999999881
 21
-100.7099999999999937
 31
0
  0
LINE
  5
29C
330
1A
100
AcDbEntity
  8
BLACK
  6
CONTINUOUS
100
AcDbLine
 10
127.5599999999999881
 20
-100.7099999999999937
 30
0
 11
127.3399999999999892
 21
-100.7099999999999937
 31
0
  0
LINE
  5
29D
330
1A
100
AcDbEntity
  8
BLACK
  6
CONTINUOUS
100
AcDbLine
 10
127.3399999999999892
 20
-100.7099999999999937
 30
0
 11
127.3399999999999892
 21
-100.25
 31
0
  0
LINE
  5
29E
330
1A
100
AcDbEntity
  8
BLACK
  6
CONTINUOUS
100
AcDbLine
 10
127.3399999999999892
 20
-100.25
 30
0
 11
127.5599999999999881
 21
-100.25
 31
0
  0
LINE
  5
29F
330
1A
100
AcDbEntity
  8
BLACK
  6
CONTINUOUS
100
AcDbLine
 10
127.5599999999999881
 20
-100.25
 30
0
 11
127.5599999999999881
 21
-100.7099999999999937
 31
0
  0
LINE
  5
2A0
330
1A
100
AcDbEntity
  8
BLACK
  6
CONTINUOUS
100
AcDbLine
 10
128.0600000000000023
 20
-100.7099999999999937
 30
0
 11
127.8399999999999892
 21
-100.7099999999999937
 31
0
  0
LINE
  5
2A1
330
1A
100
AcDbEntity
  8
BLACK
  6
CONTINUOUS
100
AcDbLine
 10
127.8399999999999892
 20
-100.7099999999999937
 30
0
 11
127.8399999999999892
 21
-100.25
 31
0
  0
LINE
  5
2A2
330
1A
100
AcDbEntity
  8
BLACK
  6
CONTINUOUS
100
AcDbLine
 10
127.8399999999999892
 20
-100.25
 30
0
 11
128.0600000000000023
 21
-100.25
 31
0
  0
LINE
  5
2A3
330
1A
100
AcDbEntity
  8
BLACK
  6
CONTINUOUS
100
AcDbLine
 10
128.0600000000000023
 20
-100.25
 30
0
 11
128.0600000000000023
 21
-100.7099999999999937
 31
0
  0
LINE
  5
2A4
330
1A
100
AcDbEntity
  8
BLACK
  6
CONTINUOUS
100
AcDbLine
 10
131.7599999999999909
 20
-100.7099999999999937
 30
0
 11
131.539999999999992
 21
-100.7099999999999937
 31
0
  0
LINE
  5
2A5
330
1A
100
AcDbEntity
  8
BLACK
  6
CONTINUOUS
100
AcDbLine
 10
131.539999999999992
 20
-100.7099999999999937
 30
0
 11
131.539999999999992
 21
-100.25
 31
0
  0
LINE
  5
2A6
330
1A
100
AcDbEntity
  8
BLACK
  6
CONTINUOUS
100
AcDbLine
 10
131.539999999999992
 20
-100.25
 30
0
 11
131.7599999999999909
 21
-100.25
 31
0
  0
LINE
  5
2A7
330
1A
100
AcDbEntity
  8
BLACK
  6
CONTINUOUS
100
AcDbLine
 10
131.7599999999999909
 20
-100.25
 30
0
 11
131.7599999999999909
 21
-100.7099999999999937
 31
0
  0
LINE
  5
2A8
330
1A
100
AcDbEntity
  8
BLACK
  6
CONTINUOUS
100
AcDbLine
 10
132.2599999999999909
 20
-100.7099999999999937
 30
0
 11
132.039999999999992
 21
-100.7099999999999937
 31
0
  0
LINE
  5
2A9
330
1A
100
AcDbEntity
  8
BLACK
  6
CONTINUOUS
100
AcDbLine
 10
132.039999999999992
 20
-100.7099999999999937
 30
0
 11
132.039999999999992
 21
-100.25
 31
0
  0
LINE
  5
2AA
330
1A
100
AcDbEntity
  8
BLACK
  6
CONTINUOUS
100
AcDbLine
 10
132.039999999999992
 20
-100.25
 30
0
 11
132.2599999999999909
 21
-100.25
 31
0
  0
LINE
  5
2AB
330
1A
100
AcDbEntity
  8
BLACK
  6
CONTINUOUS
100
AcDbLine
 10
132.2599999999999909
 20
-100.25
 30
0
 11
132.2599999999999909
 21
-100.7099999999999937
 31
0
  0
LINE
  5
2AC
330
1A
100
AcDbEntity
  8
BLACK
  6
CONTINUOUS
100
AcDbLine
 10
132.7599999999999909
 20
-100.7099999999999937
 30
0
 11
132.539999999999992
 21
-100.7099999999999937
 31
0
  0
LINE
  5
2AD
330
1A
100
AcDbEntity
  8
BLACK
  6
CONTINUOUS
100
AcDbLine
 10
132.539999999999992
 20
-100.7099999999999937
 30
0
 11
132.539999999999992
 21
-100.25
 31
0
  0
LINE
  5
2AE
330
1A
100
AcDbEntity
  8
BLACK
  6
CONTINUOUS
100
AcDbLine
 10
132.539999999999992
 20
-100.25
 30
0
 11
132.7599999999999909
 21
-100.25
 31
0
  0
LINE
  5
2AF
330
1A
100
AcDbEntity
  8
BLACK
  6
CONTINUOUS
100
AcDbLine
 10
132.7599999999999909
 20
-100.25
 30
0
 11
132.7599999999999909
 21
-100.7099999999999937
 31
0
  0
LINE
  5
2B0
330
1A
100
AcDbEntity
  8
BLACK
  6
CONTINUOUS
100
AcDbLine
 10
136.460000000000008
 20
-100.7099999999999937
 30
0
 11
136.2399999999999807
 21
-100.7099999999999937
 31
0
  0
LINE
  5
2B1
330
1A
100
AcDbEntity
  8
BLACK
  6
CONTINUOUS
100
AcDbLine
 10
136.2399999999999807
 20
-100.7099999999999937
 30
0
 11
136.2399999999999807
 21
-100.25
 31
0
  0
LINE
  5
2B2
330
1A
100
AcDbEntity
  8
BLACK
  6
CONTINUOUS
100
AcDbLine
 10
136.2399999999999807
 20
-100.25
 30
0
 11
136.460000000000008
 21
-100.25
 31
0
  0
LINE
  5
2B3
330
1A
100
AcDbEntity
  8
BLACK
  6
CONTINUOUS
100
AcDbLine
 10
136.460000000000008
 20
-100.25
 30
0
 11
136.460000000000008
 21
-100.7099999999999937
 31
0
  0
LINE
  5
2B4
330
1A
100
AcDbEntity
  8
BLACK
  6
CONTINUOUS
100
AcDbLine
 10
136.960000000000008
 20
-100.7099999999999937
 30
0
 11
136.7399999999999807
 21
-100.7099999999999937
 31
0
  0
LINE
  5
2B5
330
1A
100
AcDbEntity
  8
BLACK
  6
CONTINUOUS
100
AcDbLine
 10
136.7399999999999807
 20
-100.7099999999999937
 30
0
 11
136.7399999999999807
 21
-100.25
 31
0
  0
LINE
  5
2B6
330
1A
100
AcDbEntity
  8
BLACK
  6
CONTINUOUS
100
AcDbLine
 10
136.7399999999999807
 20
-100.25
 30
0
 11
136.960000000000008
 21
-100.25
 31
0
  0
LINE
  5
2B7
330
1A
100
AcDbEntity
  8
BLACK
  6
CONTINUOUS
100
AcDbLine
 10
136.960000000000008
 20
-100.25
 30
0
 11
136.960000000000008
 21
-100.7099999999999937
 31
0
  0
LINE
  5
2B8
330
1A
100
AcDbEntity
  8
BLACK
  6
CONTINUOUS
100
AcDbLine
 10
137.460000000000008
 20
-100.7099999999999937
 30
0
 11
137.2399999999999807
 21
-100.7099999999999937
 31
0
  0
LINE
  5
2B9
330
1A
100
AcDbEntity
  8
BLACK
  6
CONTINUOUS
100
AcDbLine
 10
137.2399999999999807
 20
-100.7099999999999937
 30
0
 11
137.2399999999999807
 21
-100.25
 31
0
  0
LINE
  5
2BA
330
1A
100
AcDbEntity
  8
BLACK
  6
CONTINUOUS
100
AcDbLine
 10
137.2399999999999807
 20
-100.25
 30
0
 11
137.460000000000008
 21
-100.25
 31
0
  0
LINE
  5
2BB
330
1A
100
AcDbEntity
  8
BLACK
  6
CONTINUOUS
100
AcDbLine
 10
137.460000000000008
 20
-100.25
 30
0
 11
137.460000000000008
 21
-100.7099999999999937
 31
0
  0
LINE
  5
2BC
330
1A
100
AcDbEntity
  8
BLACK
  6
CONTINUOUS
100
AcDbLine
 10
141.1599999999999966
 20
-100.7099999999999937
 30
0
 11
140.9399999999999977
 21
-100.7099999999999937
 31
0
  0
LINE
  5
2BD
330
1A
100
AcDbEntity
  8
BLACK
  6
CONTINUOUS
100
AcDbLine
 10
140.9399999999999977
 20
-100.7099999999999937
 30
0
 11
140.9399999999999977
 21
-100.25
 31
0
  0
LINE
  5
2BE
330
1A
100
AcDbEntity
  8
BLACK
  6
CONTINUOUS
100
AcDbLine
 10
140.9399999999999977
 20
-100.25
 30
0
 11
141.1599999999999966
 21
-100.25
 31
0
  0
LINE
  5
2BF
330
1A
100
AcDbEntity
  8
BLACK
  6
CONTINUOUS
100
AcDbLine
 10
141.1599999999999966
 20
-100.25
 30
0
 11
141.1599999999999966
 21
-100.7099999999999937
 31
0
  0
LINE
  5
2C0
330
1A
100
AcDbEntity
  8
BLACK
  6
CONTINUOUS
100
AcDbLine
 10
141.6599999999999966
 20
-100.7099999999999937
 30
0
 11
141.4399999999999977
 21
-100.7099999999999937
 31
0
  0
LINE
  5
2C1
330
1A
100
AcDbEntity
  8
BLACK
  6
CONTINUOUS
100
AcDbLine
 10
141.4399999999999977
 20
-100.7099999999999937
 30
0
 11
141.4399999999999977
 21
-100.25
 31
0
  0
LINE
  5
2C2
330
1A
100
AcDbEntity
  8
BLACK
  6
CONTINUOUS
100
AcDbLine
 10
141.4399999999999977
 20
-100.25
 30
0
 11
141.6599999999999966
 21
-100.25
 31
0
  0
LINE
  5
2C3
330
1A
100
AcDbEntity
  8
BLACK
  6
CONTINUOUS
100
AcDbLine
 10
141.6599999999999966
 20
-100.25
 30
0
 11
141.6599999999999966
 21
-100.7099999999999937
 31
0
  0
LINE
  5
2C4
330
1A
100
AcDbEntity
  8
BLACK
  6
CONTINUOUS
100
AcDbLine
 10
142.1599999999999966
 20
-100.7099999999999937
 30
0
 11
141.9399999999999977
 21
-100.7099999999999937
 31
0
  0
LINE
  5
2C5
330
1A
100
AcDbEntity
  8
BLACK
  6
CONTINUOUS
100
AcDbLine
 10
141.9399999999999977
 20
-100.7099999999999937
 30
0
 11
141.9399999999999977
 21
-100.25
 31
0
  0
LINE
  5
2C6
330
1A
100
AcDbEntity
  8
BLACK
  6
CONTINUOUS
100
AcDbLine
 10
141.9399999999999977
 20
-100.25
 30
0
 11
142.1599999999999966
 21
-100.25
 31
0
  0
LINE
  5
2C7
330
1A
100
AcDbEntity
  8
BLACK
  6
CONTINUOUS
100
AcDbLine
 10
142.1599999999999966
 20
-100.25
 30
0
 11
142.1599999999999966
 21
-100.7099999999999937
 31
0
  0
LINE
  5
2C8
330
1A
100
AcDbEntity
  8
BLACK
  6
CONTINUOUS
100
AcDbLine
 10
127.0599999999999881
 20
-97.5499999999999972
 30
0
 11
126.8399999999999892
 21
-97.5499999999999972
 31
0
  0
LINE
  5
2C9
330
1A
100
AcDbEntity
  8
BLACK
  6
CONTINUOUS
100
AcDbLine
 10
126.8399999999999892
 20
-97.5499999999999972
 30
0
 11
126.8399999999999892
 21
-97.0899999999999892
 31
0
  0
LINE
  5
2CA
330
1A
100
AcDbEntity
  8
BLACK
  6
CONTINUOUS
100
AcDbLine
 10
126.8399999999999892
 20
-97.0899999999999892
 30
0
 11
127.0599999999999881
 21
-97.0899999999999892
 31
0
  0
LINE
  5
2CB
330
1A
100
AcDbEntity
  8
BLACK
  6
CONTINUOUS
100
AcDbLine
 10
127.0599999999999881
 20
-97.0899999999999892
 30
0
 11
127.0599999999999881
 21
-97.5499999999999972
 31
0
  0
LINE
  5
2CC
330
1A
100
AcDbEntity
  8
BLACK
  6
CONTINUOUS
100
AcDbLine
 10
127.5599999999999881
 20
-97.5499999999999972
 30
0
 11
127.3399999999999892
 21
-97.5499999999999972
 31
0
  0
LINE
  5
2CD
330
1A
100
AcDbEntity
  8
BLACK
  6
CONTINUOUS
100
AcDbLine
 10
127.3399999999999892
 20
-97.5499999999999972
 30
0
 11
127.3399999999999892
 21
-97.0899999999999892
 31
0
  0
LINE
  5
2CE
330
1A
100
AcDbEntity
  8
BLACK
  6
CONTINUOUS
100
AcDbLine
 10
127.3399999999999892
 20
-97.0899999999999892
 30
0
 11
127.5599999999999881
 21
-97.0899999999999892
 31
0
  0
LINE
  5
2CF
330
1A
100
AcDbEntity
  8
BLACK
  6
CONTINUOUS
100
AcDbLine
 10
127.5599999999999881
 20
-97.0899999999999892
 30
0
 11
127.5599999999999881
 21
-97.5499999999999972
 31
0
  0
LINE
  5
2D0
330
1A
100
AcDbEntity
  8
BLACK
  6
CONTINUOUS
100
AcDbLine
 10
128.0600000000000023
 20
-97.5499999999999972
 30
0
 11
127.8399999999999892
 21
-97.5499999999999972
 31
0
  0
LINE
  5
2D1
330
1A
100
AcDbEntity
  8
BLACK
  6
CONTINUOUS
100
AcDbLine
 10
127.8399999999999892
 20
-97.5499999999999972
 30
0
 11
127.8399999999999892
 21
-97.0899999999999892
 31
0
  0
LINE
  5
2D2
330
1A
100
AcDbEntity
  8
BLACK
  6
CONTINUOUS
100
AcDbLine
 10
127.8399999999999892
 20
-97.0899999999999892
 30
0
 11
128.0600000000000023
 21
-97.0899999999999892
 31
0
  0
LINE
  5
2D3
330
1A
100
AcDbEntity
  8
BLACK
  6
CONTINUOUS
100
AcDbLine
 10
128.0600000000000023
 20
-97.0899999999999892
 30
0
 11
128.0600000000000023
 21
-97.5499999999999972
 31
0
  0
LINE
  5
2D4
330
1A
100
AcDbEntity
  8
BLACK
  6
CONTINUOUS
100
AcDbLine
 10
131.7599999999999909
 20
-97.5499999999999972
 30
0
 11
131.539999999999992
 21
-97.5499999999999972
 31
0
  0
LINE
  5
2D5
330
1A
100
AcDbEntity
  8
BLACK
  6
CONTINUOUS
100
AcDbLine
 10
131.539999999999992
 20
-97.5499999999999972
 30
0
 11
131.539999999999992
 21
-97.0899999999999892
 31
0
  0
LINE
  5
2D6
330
1A
100
AcDbEntity
  8
BLACK
  6
CONTINUOUS
100
AcDbLine
 10
131.539999999999992
 20
-97.0899999999999892
 30
0
 11
131.7599999999999909
 21
-97.0899999999999892
 31
0
  0
LINE
  5
2D7
330
1A
100
AcDbEntity
  8
BLACK
  6
CONTINUOUS
100
AcDbLine
 10
131.7599999999999909
 20
-97.0899999999999892
 30
0
 11
131.7599999999999909
 21
-97.5499999999999972
 31
0
  0
LINE
  5
2D8
330
1A
100
AcDbEntity
  8
BLACK
  6
CONTINUOUS
100
AcDbLine
 10
132.2599999999999909
 20
-97.5499999999999972
 30
0
 11
132.039999999999992
 21
-97.5499999999999972
 31
0
  0
LINE
  5
2D9
330
1A
100
AcDbEntity
  8
BLACK
  6
CONTINUOUS
100
AcDbLine
 10
132.039999999999992
 20
-97.5499999999999972
 30
0
 11
132.039999999999992
 21
-97.0899999999999892
 31
0
  0
LINE
  5
2DA
330
1A
100
AcDbEntity
  8
BLACK
  6
CONTINUOUS
100
AcDbLine
 10
132.039999999999992
 20
-97.0899999999999892
 30
0
 11
132.2599999999999909
 21
-97.0899999999999892
 31
0
  0
LINE
  5
2DB
330
1A
100
AcDbEntity
  8
BLACK
  6
CONTINUOUS
100
AcDbLine
 10
132.2599999999999909
 20
-97.0899999999999892
 30
0
 11
132.2599999999999909
 21
-97.5499999999999972
 31
0
  0
LINE
  5
2DC
330
1A
100
AcDbEntity
  8
BLACK
  6
CONTINUOUS
100
AcDbLine
 10
132.7599999999999909
 20
-97.5499999999999972
 30
0
 11
132.539999999999992
 21
-97.5499999999999972
 31
0
  0
LINE
  5
2DD
330
1A
100
AcDbEntity
  8
BLACK
  6
CONTINUOUS
100
AcDbLine
 10
132.539999999999992
 20
-97.5499999999999972
 30
0
 11
132.539999999999992
 21
-97.0899999999999892
 31
0
  0
LINE
  5
2DE
330
1A
100
AcDbEntity
  8
BLACK
  6
CONTINUOUS
100
AcDbLine
 10
132.539999999999992
 20
-97.0899999999999892
 30
0
 11
132.7599999999999909
 21
-97.0899999999999892
 31
0
  0
LINE
  5
2DF
330
1A
100
AcDbEntity
  8
BLACK
  6
CONTINUOUS
100
AcDbLine
 10
132.7599999999999909
 20
-97.0899999999999892
 30
0
 11
132.7599999999999909
 21
-97.5499999999999972
 31
0
  0
LINE
  5
2E0
330
1A
100
AcDbEntity
  8
BLACK
  6
CONTINUOUS
100
AcDbLine
 10
136.460000000000008
 20
-97.5499999999999972
 30
0
 11
136.2399999999999807
 21
-97.5499999999999972
 31
0
  0
LINE
  5
2E1
330
1A
100
AcDbEntity
  8
BLACK
  6
CONTINUOUS
100
AcDbLine
 10
136.2399999999999807
 20
-97.5499999999999972
 30
0
 11
136.2399999999999807
 21
-97.0899999999999892
 31
0
  0
LINE
  5
2E2
330
1A
100
AcDbEntity
  8
BLACK
  6
CONTINUOUS
100
AcDbLine
 10
136.2399999999999807
 20
-97.0899999999999892
 30
0
 11
136.460000000000008
 21
-97.0899999999999892
 31
0
  0
LINE
  5
2E3
330
1A
100
AcDbEntity
  8
BLACK
  6
CONTINUOUS
100
AcDbLine
 10
136.460000000000008
 20
-97.0899999999999892
 30
0
 11
136.460000000000008
 21
-97.5499999999999972
 31
0
  0
LINE
  5
2E4
330
1A
100
AcDbEntity
  8
BLACK
  6
CONTINUOUS
100
AcDbLine
 10
136.960000000000008
 20
-97.5499999999999972
 30
0
 11
136.7399999999999807
 21
-97.5499999999999972
 31
0
  0
LINE
  5
2E5
330
1A
100
AcDbEntity
  8
BLACK
  6
CONTINUOUS
100
AcDbLine
 10
136.7399999999999807
 20
-97.5499999999999972
 30
0
 11
136.7399999999999807
 21
-97.0899999999999892
 31
0
  0
LINE
  5
2E6
330
1A
100
AcDbEntity
  8
BLACK
  6
CONTINUOUS
100
AcDbLine
 10
136.7399999999999807
 20
-97.0899999999999892
 30
0
 11
136.960000000000008
 21
-97.0899999999999892
 31
0
  0
LINE
  5
2E7
330
1A
100
AcDbEntity
  8
BLACK
  6
CONTINUOUS
100
AcDbLine
 10
136.960000000000008
 20
-97.0899999999999892
 30
0
 11
136.960000000000008
 21
-97.5499999999999972
 31
0
  0
LINE
  5
2E8
330
1A
100
AcDbEntity
  8
BLACK
  6
CONTINUOUS
100
AcDbLine
 10
137.460000000000008
 20
-97.5499999999999972
 30
0
 11
137.2399999999999807
 21
-97.5499999999999972
 31
0
  0
LINE
  5
2E9
330
1A
100
AcDbEntity
  8
BLACK
  6
CONTINUOUS
100
AcDbLine
 10
137.2399999999999807
 20
-97.5499999999999972
 30
0
 11
137.2399999999999807
 21
-97.0899999999999892
 31
0
  0
LINE
  5
2EA
330
1A
100
AcDbEntity
  8
BLACK
  6
CONTINUOUS
100
AcDbLine
 10
137.2399999999999807
 20
-97.0899999999999892
 30
0
 11
137.460000000000008
 21
-97.0899999999999892
 31
0
  0
LINE
  5
2EB
330
1A
100
AcDbEntity
  8
BLACK
  6
CONTINUOUS
100
AcDbLine
 10
137.460000000000008
 20
-97.0899999999999892
 30
0
 11
137.460000000000008
 21
-97.5499999999999972
 31
0
  0
LINE
  5
2EC
330
1A
100
AcDbEntity
  8
BLACK
  6
CONTINUOUS
100
AcDbLine
 10
141.1599999999999966
 20
-97.5499999999999972
 30
0
 11
140.9399999999999977
 21
-97.5499999999999972
 31
0
  0
LINE
  5
2ED
330
1A
100
AcDbEntity
  8
BLACK
  6
CONTINUOUS
100
AcDbLine
 10
140.9399999999999977
 20
-97.5499999999999972
 30
0
 11
140.9399999999999977
 21
-97.0899999999999892
 31
0
  0
LINE
  5
2EE
330
1A
100
AcDbEntity
  8
BLACK
  6
CONTINUOUS
100
AcDbLine
 10
140.9399999999999977
 20
-97.0899999999999892
 30
0
 11
141.1599999999999966
 21
-97.0899999999999892
 31
0
  0
LINE
  5
2EF
330
1A
100
AcDbEntity
  8
BLACK
  6
CONTINUOUS
100
AcDbLine
 10
141.1599999999999966
 20
-97.0899999999999892
 30
0
 11
141.1599999999999966
 21
-97.5499999999999972
 31
0
  0
LINE
  5
2F0
330
1A
100
AcDbEntity
  8
BLACK
  6
CONTINUOUS
100
AcDbLine
 10
141.6599999999999966
 20
-97.5499999999999972
 30
0
 11
141.4399999999999977
 21
-97.5499999999999972
 31
0
  0
LINE
  5
2F1
330
1A
100
AcDbEntity
  8
BLACK
  6
CONTINUOUS
100
AcDbLine
 10
141.4399999999999977
 20
-97.5499999999999972
 30
0
 11
141.4399999999999977
 21
-97.0899999999999892
 31
0
  0
LINE
  5
2F2
330
1A
100
AcDbEntity
  8
BLACK
  6
CONTINUOUS
100
AcDbLine
 10
141.4399999999999977
 20
-97.0899999999999892
 30
0
 11
141.6599999999999966
 21
-97.0899999999999892
 31
0
  0
LINE
  5
2F3
330
1A
100
AcDbEntity
  8
BLACK
  6
CONTINUOUS
100
AcDbLine
 10
141.6599999999999966
 20
-97.0899999999999892
 30
0
 11
141.6599999999999966
 21
-97.5499999999999972
 31
0
  0
LINE
  5
2F4
330
1A
100
AcDbEntity
  8
BLACK
  6
CONTINUOUS
100
AcDbLine
 10
142.1599999999999966
 20
-97.5499999999999972
 30
0
 11
141.9399999999999977
 21
-97.5499999999999972
 31
0
  0
LINE
  5
2F5
330
1A
100
AcDbEntity
  8
BLACK
  6
CONTINUOUS
100
AcDbLine
 10
141.9399999999999977
 20
-97.5499999999999972
 30
0
 11
141.9399999999999977
 21
-97.0899999999999892
 31
0
  0
LINE
  5
2F6
330
1A
100
AcDbEntity
  8
BLACK
  6
CONTINUOUS
100
AcDbLine
 10
141.9399999999999977
 20
-97.0899999999999892
 30
0
 11
142.1599999999999966
 21
-97.0899999999999892
 31
0
  0
LINE
  5
2F7
330
1A
100
AcDbEntity
  8
BLACK
  6
CONTINUOUS
100
AcDbLine
 10
142.1599999999999966
 20
-97.0899999999999892
 30
0
 11
142.1599999999999966
 21
-97.5499999999999972
 31
0
  0
LINE
  5
2F8
330
1A
100
AcDbEntity
  8
BLACK
  6
CONTINUOUS
100
AcDbLine
 10
127.3519129999999961
 20
-96.2353809999999896
 30
0
 11
127.3546189999999996
 21
-96.2380869999999931
 31
0
  0
LINE
  5
2F9
330
1A
100
AcDbEntity
  8
BLACK
  6
CONTINUOUS
100
AcDbLine
 10
127.3546189999999996
 20
-96.2380869999999931
 30
0
 11
127.3549999999999898
 21
-96.2399999999999949
 31
0
  0
LINE
  5
2FA
330
1A
100
AcDbEntity
  8
BLACK
  6
CONTINUOUS
100
AcDbLine
 10
127.3549999999999898
 20
-96.2399999999999949
 30
0
 11
127.3549999999999898
 21
-96.8599999999999994
 31
0
  0
LINE
  5
2FB
330
1A
100
AcDbEntity
  8
BLACK
  6
CONTINUOUS
100
AcDbLine
 10
127.3549999999999898
 20
-96.8599999999999994
 30
0
 11
127.3546189999999996
 21
-96.8619130000000013
 31
0
  0
LINE
  5
2FC
330
1A
100
AcDbEntity
  8
BLACK
  6
CONTINUOUS
100
AcDbLine
 10
127.3546189999999996
 20
-96.8619130000000013
 30
0
 11
127.3519129999999961
 21
-96.8646189999999905
 31
0
  0
LINE
  5
2FD
330
1A
100
AcDbEntity
  8
BLACK
  6
CONTINUOUS
100
AcDbLine
 10
127.3519129999999961
 20
-96.8646189999999905
 30
0
 11
127.3499999999999943
 21
-96.8649999999999949
 31
0
  0
LINE
  5
2FE
330
1A
100
AcDbEntity
  8
BLACK
  6
CONTINUOUS
100
AcDbLine
 10
127.3499999999999943
 20
-96.8649999999999949
 30
0
 11
126.9899999999999949
 21
-96.8649999999999949
 31
0
  0
LINE
  5
2FF
330
1A
100
AcDbEntity
  8
BLACK
  6
CONTINUOUS
100
AcDbLine
 10
126.9899999999999949
 20
-96.8649999999999949
 30
0
 11
126.9880869999999931
 21
-96.8646189999999905
 31
0
  0
LINE
  5
300
330
1A
100
AcDbEntity
  8
BLACK
  6
CONTINUOUS
100
AcDbLine
 10
126.9880869999999931
 20
-96.8646189999999905
 30
0
 11
126.9853809999999896
 21
-96.8619130000000013
 31
0
  0
LINE
  5
301
330
1A
100
AcDbEntity
  8
BLACK
  6
CONTINUOUS
100
AcDbLine
 10
126.9853809999999896
 20
-96.8619130000000013
 30
0
 11
126.9849999999999994
 21
-96.8599999999999994
 31
0
  0
LINE
  5
302
330
1A
100
AcDbEntity
  8
BLACK
  6
CONTINUOUS
100
AcDbLine
 10
126.9849999999999994
 20
-96.8599999999999994
 30
0
 11
126.9849999999999994
 21
-96.2399999999999949
 31
0
  0
LINE
  5
303
330
1A
100
AcDbEntity
  8
BLACK
  6
CONTINUOUS
100
AcDbLine
 10
126.9849999999999994
 20
-96.2399999999999949
 30
0
 11
126.9853809999999896
 21
-96.2380869999999931
 31
0
  0
LINE
  5
304
330
1A
100
AcDbEntity
  8
BLACK
  6
CONTINUOUS
100
AcDbLine
 10
126.9853809999999896
 20
-96.2380869999999931
 30
0
 11
126.9880869999999931
 21
-96.2353809999999896
 31
0
  0
LINE
  5
305
330
1A
100
AcDbEntity
  8
BLACK
  6
CONTINUOUS
100
AcDbLine
 10
126.9880869999999931
 20
-96.2353809999999896
 30
0
 11
126.9899999999999949
 21
-96.2349999999999994
 31
0
  0
LINE
  5
306
330
1A
100
AcDbEntity
  8
BLACK
  6
CONTINUOUS
100
AcDbLine
 10
126.9899999999999949
 20
-96.2349999999999994
 30
0
 11
127.3499999999999943
 21
-96.2349999999999994
 31
0
  0
LINE
  5
307
330
1A
100
AcDbEntity
  8
BLACK
  6
CONTINUOUS
100
AcDbLine
 10
127.3499999999999943
 20
-96.2349999999999994
 30
0
 11
127.3519129999999961
 21
-96.2353809999999896
 31
0
  0
LINE
  5
308
330
1A
100
AcDbEntity
  8
BLACK
  6
CONTINUOUS
100
AcDbLine
 10
127.9119129999999984
 20
-96.2353809999999896
 30
0
 11
127.9146189999999876
 21
-96.2380869999999931
 31
0
  0
LINE
  5
309
330
1A
100
AcDbEntity
  8
BLACK
  6
CONTINUOUS
100
AcDbLine
 10
127.9146189999999876
 20
-96.2380869999999931
 30
0
 11
127.914999999999992
 21
-96.2399999999999949
 31
0
  0
LINE
  5
30A
330
1A
100
AcDbEntity
  8
BLACK
  6
CONTINUOUS
100
AcDbLine
 10
127.914999999999992
 20
-96.2399999999999949
 30
0
 11
127.914999999999992
 21
-96.8599999999999994
 31
0
  0
LINE
  5
30B
330
1A
100
AcDbEntity
  8
BLACK
  6
CONTINUOUS
100
AcDbLine
 10
127.914999999999992
 20
-96.8599999999999994
 30
0
 11
127.9146189999999876
 21
-96.8619130000000013
 31
0
  0
LINE
  5
30C
330
1A
100
AcDbEntity
  8
BLACK
  6
CONTINUOUS
100
AcDbLine
 10
127.9146189999999876
 20
-96.8619130000000013
 30
0
 11
127.9119129999999984
 21
-96.8646189999999905
 31
0
  0
LINE
  5
30D
330
1A
100
AcDbEntity
  8
BLACK
  6
CONTINUOUS
100
AcDbLine
 10
127.9119129999999984
 20
-96.8646189999999905
 30
0
 11
127.9099999999999966
 21
-96.8649999999999949
 31
0
  0
LINE
  5
30E
330
1A
100
AcDbEntity
  8
BLACK
  6
CONTINUOUS
100
AcDbLine
 10
127.9099999999999966
 20
-96.8649999999999949
 30
0
 11
127.5499999999999972
 21
-96.8649999999999949
 31
0
  0
LINE
  5
30F
330
1A
100
AcDbEntity
  8
BLACK
  6
CONTINUOUS
100
AcDbLine
 10
127.5499999999999972
 20
-96.8649999999999949
 30
0
 11
127.5480869999999953
 21
-96.8646189999999905
 31
0
  0
LINE
  5
310
330
1A
100
AcDbEntity
  8
BLACK
  6
CONTINUOUS
100
AcDbLine
 10
127.5480869999999953
 20
-96.8646189999999905
 30
0
 11
127.5453809999999919
 21
-96.8619130000000013
 31
0
  0
LINE
  5
311
330
1A
100
AcDbEntity
  8
BLACK
  6
CONTINUOUS
100
AcDbLine
 10
127.5453809999999919
 20
-96.8619130000000013
 30
0
 11
127.5449999999999875
 21
-96.8599999999999994
 31
0
  0
LINE
  5
312
330
1A
100
AcDbEntity
  8
BLACK
  6
CONTINUOUS
100
AcDbLine
 10
127.5449999999999875
 20
-96.8599999999999994
 30
0
 11
127.5449999999999875
 21
-96.2399999999999949
 31
0
  0
LINE
  5
313
330
1A
100
AcDbEntity
  8
BLACK
  6
CONTINUOUS
100
AcDbLine
 10
127.5449999999999875
 20
-96.2399999999999949
 30
0
 11
127.5453809999999919
 21
-96.2380869999999931
 31
0
  0
LINE
  5
314
330
1A
100
AcDbEntity
  8
BLACK
  6
CONTINUOUS
100
AcDbLine
 10
127.5453809999999919
 20
-96.2380869999999931
 30
0
 11
127.5480869999999953
 21
-96.2353809999999896
 31
0
  0
LINE
  5
315
330
1A
100
AcDbEntity
  8
BLACK
  6
CONTINUOUS
100
AcDbLine
 10
127.5480869999999953
 20
-96.2353809999999896
 30
0
 11
127.5499999999999972
 21
-96.2349999999999994
 31
0
  0
LINE
  5
316
330
1A
100
AcDbEntity
  8
BLACK
  6
CONTINUOUS
100
AcDbLine
 10
127.5499999999999972
 20
-96.2349999999999994
 30
0
 11
127.9099999999999966
 21
-96.2349999999999994
 31
0
  0
LINE
  5
317
330
1A
100
AcDbEntity
  8
BLACK
  6
CONTINUOUS
100
AcDbLine
 10
127.9099999999999966
 20
-96.2349999999999994
 30
0
 11
127.9119129999999984
 21
-96.2353809999999896
 31
0
  0
LINE
  5
318
330
1A
100
AcDbEntity
  8
BLACK
  6
CONTINUOUS
100
AcDbLine
 10
132.0519129999999848
 20
-96.2353809999999896
 30
0
 11
132.0546190000000024
 21
-96.2380869999999931
 31
0
  0
LINE
  5
319
330
1A
100
AcDbEntity
  8
BLACK
  6
CONTINUOUS
100
AcDbLine
 10
132.0546190000000024
 20
-96.2380869999999931
 30
0
 11
132.0550000000000068
 21
-96.2399999999999949
 31
0
  0
LINE
  5
31A
330
1A
100
AcDbEntity
  8
BLACK
  6
CONTINUOUS
100
AcDbLine
 10
132.0550000000000068
 20
-96.2399999999999949
 30
0
 11
132.0550000000000068
 21
-96.8599999999999994
 31
0
  0
LINE
  5
31B
330
1A
100
AcDbEntity
  8
BLACK
  6
CONTINUOUS
100
AcDbLine
 10
132.0550000000000068
 20
-96.8599999999999994
 30
0
 11
132.0546190000000024
 21
-96.8619130000000013
 31
0
  0
LINE
  5
31C
330
1A
100
AcDbEntity
  8
BLACK
  6
CONTINUOUS
100
AcDbLine
 10
132.0546190000000024
 20
-96.8619130000000013
 30
0
 11
132.0519129999999848
 21
-96.8646189999999905
 31
0
  0
LINE
  5
31D
330
1A
100
AcDbEntity
  8
BLACK
  6
CONTINUOUS
100
AcDbLine
 10
132.0519129999999848
 20
-96.8646189999999905
 30
0
 11
132.0499999999999829
 21
-96.8649999999999949
 31
0
  0
LINE
  5
31E
330
1A
100
AcDbEntity
  8
BLACK
  6
CONTINUOUS
100
AcDbLine
 10
132.0499999999999829
 20
-96.8649999999999949
 30
0
 11
131.6899999999999977
 21
-96.8649999999999949
 31
0
  0
LINE
  5
31F
330
1A
100
AcDbEntity
  8
BLACK
  6
CONTINUOUS
100
AcDbLine
 10
131.6899999999999977
 20
-96.8649999999999949
 30
0
 11
131.6880869999999959
 21
-96.8646189999999905
 31
0
  0
LINE
  5
320
330
1A
100
AcDbEntity
  8
BLACK
  6
CONTINUOUS
100
AcDbLine
 10
131.6880869999999959
 20
-96.8646189999999905
 30
0
 11
131.6853810000000067
 21
-96.8619130000000013
 31
0
  0
LINE
  5
321
330
1A
100
AcDbEntity
  8
BLACK
  6
CONTINUOUS
100
AcDbLine
 10
131.6853810000000067
 20
-96.8619130000000013
 30
0
 11
131.6850000000000023
 21
-96.8599999999999994
 31
0
  0
LINE
  5
322
330
1A
100
AcDbEntity
  8
BLACK
  6
CONTINUOUS
100
AcDbLine
 10
131.6850000000000023
 20
-96.8599999999999994
 30
0
 11
131.6850000000000023
 21
-96.2399999999999949
 31
0
  0
LINE
  5
323
330
1A
100
AcDbEntity
  8
BLACK
  6
CONTINUOUS
100
AcDbLine
 10
131.6850000000000023
 20
-96.2399999999999949
 30
0
 11
131.6853810000000067
 21
-96.2380869999999931
 31
0
  0
LINE
  5
324
330
1A
100
AcDbEntity
  8
BLACK
  6
CONTINUOUS
100
AcDbLine
 10
131.6853810000000067
 20
-96.2380869999999931
 30
0
 11
131.6880869999999959
 21
-96.2353809999999896
 31
0
  0
LINE
  5
325
330
1A
100
AcDbEntity
  8
BLACK
  6
CONTINUOUS
100
AcDbLine
 10
131.6880869999999959
 20
-96.2353809999999896
 30
0
 11
131.6899999999999977
 21
-96.2349999999999994
 31
0
  0
LINE
  5
326
330
1A
100
AcDbEntity
  8
BLACK
  6
CONTINUOUS
100
AcDbLine
 10
131.6899999999999977
 20
-96.2349999999999994
 30
0
 11
132.0499999999999829
 21
-96.2349999999999994
 31
0
  0
LINE
  5
327
330
1A
100
AcDbEntity
  8
BLACK
  6
CONTINUOUS
100
AcDbLine
 10
132.0499999999999829
 20
-96.2349999999999994
 30
0
 11
132.0519129999999848
 21
-96.2353809999999896
 31
0
  0
LINE
  5
328
330
1A
100
AcDbEntity
  8
BLACK
  6
CONTINUOUS
100
AcDbLine
 10
132.6119129999999871
 20
-96.2353809999999896
 30
0
 11
132.6146190000000047
 21
-96.2380869999999931
 31
0
  0
LINE
  5
329
330
1A
100
AcDbEntity
  8
BLACK
  6
CONTINUOUS
100
AcDbLine
 10
132.6146190000000047
 20
-96.2380869999999931
 30
0
 11
132.6149999999999807
 21
-96.2399999999999949
 31
0
  0
LINE
  5
32A
330
1A
100
AcDbEntity
  8
BLACK
  6
CONTINUOUS
100
AcDbLine
 10
132.6149999999999807
 20
-96.2399999999999949
 30
0
 11
132.6149999999999807
 21
-96.8599999999999994
 31
0
  0
LINE
  5
32B
330
1A
100
AcDbEntity
  8
BLACK
  6
CONTINUOUS
100
AcDbLine
 10
132.6149999999999807
 20
-96.8599999999999994
 30
0
 11
132.6146190000000047
 21
-96.8619130000000013
 31
0
  0
LINE
  5
32C
330
1A
100
AcDbEntity
  8
BLACK
  6
CONTINUOUS
100
AcDbLine
 10
132.6146190000000047
 20
-96.8619130000000013
 30
0
 11
132.6119129999999871
 21
-96.8646189999999905
 31
0
  0
LINE
  5
32D
330
1A
100
AcDbEntity
  8
BLACK
  6
CONTINUOUS
100
AcDbLine
 10
132.6119129999999871
 20
-96.8646189999999905
 30
0
 11
132.6099999999999852
 21
-96.8649999999999949
 31
0
  0
LINE
  5
32E
330
1A
100
AcDbEntity
  8
BLACK
  6
CONTINUOUS
100
AcDbLine
 10
132.6099999999999852
 20
-96.8649999999999949
 30
0
 11
132.25
 21
-96.8649999999999949
 31
0
  0
LINE
  5
32F
330
1A
100
AcDbEntity
  8
BLACK
  6
CONTINUOUS
100
AcDbLine
 10
132.25
 20
-96.8649999999999949
 30
0
 11
132.2480869999999982
 21
-96.8646189999999905
 31
0
  0
LINE
  5
330
330
1A
100
AcDbEntity
  8
BLACK
  6
CONTINUOUS
100
AcDbLine
 10
132.2480869999999982
 20
-96.8646189999999905
 30
0
 11
132.2453809999999805
 21
-96.8619130000000013
 31
0
  0
LINE
  5
331
330
1A
100
AcDbEntity
  8
BLACK
  6
CONTINUOUS
100
AcDbLine
 10
132.2453809999999805
 20
-96.8619130000000013
 30
0
 11
132.2450000000000045
 21
-96.8599999999999994
 31
0
  0
LINE
  5
332
330
1A
100
AcDbEntity
  8
BLACK
  6
CONTINUOUS
100
AcDbLine
 10
132.2450000000000045
 20
-96.8599999999999994
 30
0
 11
132.2450000000000045
 21
-96.2399999999999949
 31
0
  0
LINE
  5
333
330
1A
100
AcDbEntity
  8
BLACK
  6
CONTINUOUS
100
AcDbLine
 10
132.2450000000000045
 20
-96.2399999999999949
 30
0
 11
132.2453809999999805
 21
-96.2380869999999931
 31
0
  0
LINE
  5
334
330
1A
100
AcDbEntity
  8
BLACK
  6
CONTINUOUS
100
AcDbLine
 10
132.2453809999999805
 20
-96.2380869999999931
 30
0
 11
132.2480869999999982
 21
-96.2353809999999896
 31
0
  0
LINE
  5
335
330
1A
100
AcDbEntity
  8
BLACK
  6
CONTINUOUS
100
AcDbLine
 10
132.2480869999999982
 20
-96.2353809999999896
 30
0
 11
132.25
 21
-96.2349999999999994
 31
0
  0
LINE
  5
336
330
1A
100
AcDbEntity
  8
BLACK
  6
CONTINUOUS
100
AcDbLine
 10
132.25
 20
-96.2349999999999994
 30
0
 11
132.6099999999999852
 21
-96.2349999999999994
 31
0
  0
LINE
  5
337
330
1A
100
AcDbEntity
  8
BLACK
  6
CONTINUOUS
100
AcDbLine
 10
132.6099999999999852
 20
-96.2349999999999994
 30
0
 11
132.6119129999999871
 21
-96.2353809999999896
 31
0
  0
LINE
  5
338
330
1A
100
AcDbEntity
  8
BLACK
  6
CONTINUOUS
100
AcDbLine
 10
136.7519130000000018
 20
-96.2353809999999896
 30
0
 11
136.754618999999991
 21
-96.2380869999999931
 31
0
  0
LINE
  5
339
330
1A
100
AcDbEntity
  8
BLACK
  6
CONTINUOUS
100
AcDbLine
 10
136.754618999999991
 20
-96.2380869999999931
 30
0
 11
136.7549999999999955
 21
-96.2399999999999949
 31
0
  0
LINE
  5
33A
330
1A
100
AcDbEntity
  8
BLACK
  6
CONTINUOUS
100
AcDbLine
 10
136.7549999999999955
 20
-96.2399999999999949
 30
0
 11
136.7549999999999955
 21
-96.8599999999999994
 31
0
  0
LINE
  5
33B
330
1A
100
AcDbEntity
  8
BLACK
  6
CONTINUOUS
100
AcDbLine
 10
136.7549999999999955
 20
-96.8599999999999994
 30
0
 11
136.754618999999991
 21
-96.8619130000000013
 31
0
  0
LINE
  5
33C
330
1A
100
AcDbEntity
  8
BLACK
  6
CONTINUOUS
100
AcDbLine
 10
136.754618999999991
 20
-96.8619130000000013
 30
0
 11
136.7519130000000018
 21
-96.8646189999999905
 31
0
  0
LINE
  5
33D
330
1A
100
AcDbEntity
  8
BLACK
  6
CONTINUOUS
100
AcDbLine
 10
136.7519130000000018
 20
-96.8646189999999905
 30
0
 11
136.75
 21
-96.8649999999999949
 31
0
  0
LINE
  5
33E
330
1A
100
AcDbEntity
  8
BLACK
  6
CONTINUOUS
100
AcDbLine
 10
136.75
 20
-96.8649999999999949
 30
0
 11
136.3899999999999864
 21
-96.8649999999999949
 31
0
  0
LINE
  5
33F
330
1A
100
AcDbEntity
  8
BLACK
  6
CONTINUOUS
100
AcDbLine
 10
136.3899999999999864
 20
-96.8649999999999949
 30
0
 11
136.3880869999999845
 21
-96.8646189999999905
 31
0
  0
LINE
  5
340
330
1A
100
AcDbEntity
  8
BLACK
  6
CONTINUOUS
100
AcDbLine
 10
136.3880869999999845
 20
-96.8646189999999905
 30
0
 11
136.3853809999999953
 21
-96.8619130000000013
 31
0
  0
LINE
  5
341
330
1A
100
AcDbEntity
  8
BLACK
  6
CONTINUOUS
100
AcDbLine
 10
136.3853809999999953
 20
-96.8619130000000013
 30
0
 11
136.3849999999999909
 21
-96.8599999999999994
 31
0
  0
LINE
  5
342
330
1A
100
AcDbEntity
  8
BLACK
  6
CONTINUOUS
100
AcDbLine
 10
136.3849999999999909
 20
-96.8599999999999994
 30
0
 11
136.3849999999999909
 21
-96.2399999999999949
 31
0
  0
LINE
  5
343
330
1A
100
AcDbEntity
  8
BLACK
  6
CONTINUOUS
100
AcDbLine
 10
136.3849999999999909
 20
-96.2399999999999949
 30
0
 11
136.3853809999999953
 21
-96.2380869999999931
 31
0
  0
LINE
  5
344
330
1A
100
AcDbEntity
  8
BLACK
  6
CONTINUOUS
100
AcDbLine
 10
136.3853809999999953
 20
-96.2380869999999931
 30
0
 11
136.3880869999999845
 21
-96.2353809999999896
 31
0
  0
LINE
  5
345
330
1A
100
AcDbEntity
  8
BLACK
  6
CONTINUOUS
100
AcDbLine
 10
136.3880869999999845
 20
-96.2353809999999896
 30
0
 11
136.3899999999999864
 21
-96.2349999999999994
 31
0
  0
LINE
  5
346
330
1A
100
AcDbEntity
  8
BLACK
  6
CONTINUOUS
100
AcDbLine
 10
136.3899999999999864
 20
-96.2349999999999994
 30
0
 11
136.75
 21
-96.2349999999999994
 31
0
  0
LINE
  5
347
330
1A
100
AcDbEntity
  8
BLACK
  6
CONTINUOUS
100
AcDbLine
 10
136.75
 20
-96.2349999999999994
 30
0
 11
136.7519130000000018
 21
-96.2353809999999896
 31
0
  0
LINE
  5
348
330
1A
100
AcDbEntity
  8
BLACK
  6
CONTINUOUS
100
AcDbLine
 10
137.3119130000000041
 20
-96.2353809999999896
 30
0
 11
137.3146189999999933
 21
-96.2380869999999931
 31
0
  0
LINE
  5
349
330
1A
100
AcDbEntity
  8
BLACK
  6
CONTINUOUS
100
AcDbLine
 10
137.3146189999999933
 20
-96.2380869999999931
 30
0
 11
137.3149999999999977
 21
-96.2399999999999949
 31
0
  0
LINE
  5
34A
330
1A
100
AcDbEntity
  8
BLACK
  6
CONTINUOUS
100
AcDbLine
 10
137.3149999999999977
 20
-96.2399999999999949
 30
0
 11
137.3149999999999977
 21
-96.8599999999999994
 31
0
  0
LINE
  5
34B
330
1A
100
AcDbEntity
  8
BLACK
  6
CONTINUOUS
100
AcDbLine
 10
137.3149999999999977
 20
-96.8599999999999994
 30
0
 11
137.3146189999999933
 21
-96.8619130000000013
 31
0
  0
LINE
  5
34C
330
1A
100
AcDbEntity
  8
BLACK
  6
CONTINUOUS
100
AcDbLine
 10
137.3146189999999933
 20
-96.8619130000000013
 30
0
 11
137.3119130000000041
 21
-96.8646189999999905
 31
0
  0
LINE
  5
34D
330
1A
100
AcDbEntity
  8
BLACK
  6
CONTINUOUS
100
AcDbLine
 10
137.3119130000000041
 20
-96.8646189999999905
 30
0
 11
137.3100000000000023
 21
-96.8649999999999949
 31
0
  0
LINE
  5
34E
330
1A
100
AcDbEntity
  8
BLACK
  6
CONTINUOUS
100
AcDbLine
 10
137.3100000000000023
 20
-96.8649999999999949
 30
0
 11
136.9499999999999886
 21
-96.8649999999999949
 31
0
  0
LINE
  5
34F
330
1A
100
AcDbEntity
  8
BLACK
  6
CONTINUOUS
100
AcDbLine
 10
136.9499999999999886
 20
-96.8649999999999949
 30
0
 11
136.9480869999999868
 21
-96.8646189999999905
 31
0
  0
LINE
  5
350
330
1A
100
AcDbEntity
  8
BLACK
  6
CONTINUOUS
100
AcDbLine
 10
136.9480869999999868
 20
-96.8646189999999905
 30
0
 11
136.9453809999999976
 21
-96.8619130000000013
 31
0
  0
LINE
  5
351
330
1A
100
AcDbEntity
  8
BLACK
  6
CONTINUOUS
100
AcDbLine
 10
136.9453809999999976
 20
-96.8619130000000013
 30
0
 11
136.9449999999999932
 21
-96.8599999999999994
 31
0
  0
LINE
  5
352
330
1A
100
AcDbEntity
  8
BLACK
  6
CONTINUOUS
100
AcDbLine
 10
136.9449999999999932
 20
-96.8599999999999994
 30
0
 11
136.9449999999999932
 21
-96.2399999999999949
 31
0
  0
LINE
  5
353
330
1A
100
AcDbEntity
  8
BLACK
  6
CONTINUOUS
100
AcDbLine
 10
136.9449999999999932
 20
-96.2399999999999949
 30
0
 11
136.9453809999999976
 21
-96.2380869999999931
 31
0
  0
LINE
  5
354
330
1A
100
AcDbEntity
  8
BLACK
  6
CONTINUOUS
100
AcDbLine
 10
136.9453809999999976
 20
-96.2380869999999931
 30
0
 11
136.9480869999999868
 21
-96.2353809999999896
 31
0
  0
LINE
  5
355
330
1A
100
AcDbEntity
  8
BLACK
  6
CONTINUOUS
100
AcDbLine
 10
136.9480869999999868
 20
-96.2353809999999896
 30
0
 11
136.9499999999999886
 21
-96.2349999999999994
 31
0
  0
LINE
  5
356
330
1A
100
AcDbEntity
  8
BLACK
  6
CONTINUOUS
100
AcDbLine
 10
136.9499999999999886
 20
-96.2349999999999994
 30
0
 11
137.3100000000000023
 21
-96.2349999999999994
 31
0
  0
LINE
  5
357
330
1A
100
AcDbEntity
  8
BLACK
  6
CONTINUOUS
100
AcDbLine
 10
137.3100000000000023
 20
-96.2349999999999994
 30
0
 11
137.3119130000000041
 21
-96.2353809999999896
 31
0
  0
LINE
  5
358
330
1A
100
AcDbEntity
  8
BLACK
  6
CONTINUOUS
100
AcDbLine
 10
141.4519129999999905
 20
-96.2353809999999896
 30
0
 11
141.4546189999999797
 21
-96.2380869999999931
 31
0
  0
LINE
  5
359
330
1A
100
AcDbEntity
  8
BLACK
  6
CONTINUOUS
100
AcDbLine
 10
141.4546189999999797
 20
-96.2380869999999931
 30
0
 11
141.4549999999999841
 21
-96.2399999999999949
 31
0
  0
LINE
  5
35A
330
1A
100
AcDbEntity
  8
BLACK
  6
CONTINUOUS
100
AcDbLine
 10
141.4549999999999841
 20
-96.2399999999999949
 30
0
 11
141.4549999999999841
 21
-96.8599999999999994
 31
0
  0
LINE
  5
35B
330
1A
100
AcDbEntity
  8
BLACK
  6
CONTINUOUS
100
AcDbLine
 10
141.4549999999999841
 20
-96.8599999999999994
 30
0
 11
141.4546189999999797
 21
-96.8619130000000013
 31
0
  0
LINE
  5
35C
330
1A
100
AcDbEntity
  8
BLACK
  6
CONTINUOUS
100
AcDbLine
 10
141.4546189999999797
 20
-96.8619130000000013
 30
0
 11
141.4519129999999905
 21
-96.8646189999999905
 31
0
  0
LINE
  5
35D
330
1A
100
AcDbEntity
  8
BLACK
  6
CONTINUOUS
100
AcDbLine
 10
141.4519129999999905
 20
-96.8646189999999905
 30
0
 11
141.4499999999999886
 21
-96.8649999999999949
 31
0
  0
LINE
  5
35E
330
1A
100
AcDbEntity
  8
BLACK
  6
CONTINUOUS
100
AcDbLine
 10
141.4499999999999886
 20
-96.8649999999999949
 30
0
 11
141.0900000000000034
 21
-96.8649999999999949
 31
0
  0
LINE
  5
35F
330
1A
100
AcDbEntity
  8
BLACK
  6
CONTINUOUS
100
AcDbLine
 10
141.0900000000000034
 20
-96.8649999999999949
 30
0
 11
141.0880870000000016
 21
-96.8646189999999905
 31
0
  0
LINE
  5
360
330
1A
100
AcDbEntity
  8
BLACK
  6
CONTINUOUS
100
AcDbLine
 10
141.0880870000000016
 20
-96.8646189999999905
 30
0
 11
141.0853809999999839
 21
-96.8619130000000013
 31
0
  0
LINE
  5
361
330
1A
100
AcDbEntity
  8
BLACK
  6
CONTINUOUS
100
AcDbLine
 10
141.0853809999999839
 20
-96.8619130000000013
 30
0
 11
141.0849999999999795
 21
-96.8599999999999994
 31
0
  0
LINE
  5
362
330
1A
100
AcDbEntity
  8
BLACK
  6
CONTINUOUS
100
AcDbLine
 10
141.0849999999999795
 20
-96.8599999999999994
 30
0
 11
141.0849999999999795
 21
-96.2399999999999949
 31
0
  0
LINE
  5
363
330
1A
100
AcDbEntity
  8
BLACK
  6
CONTINUOUS
100
AcDbLine
 10
141.0849999999999795
 20
-96.2399999999999949
 30
0
 11
141.0853809999999839
 21
-96.2380869999999931
 31
0
  0
LINE
  5
364
330
1A
100
AcDbEntity
  8
BLACK
  6
CONTINUOUS
100
AcDbLine
 10
141.0853809999999839
 20
-96.2380869999999931
 30
0
 11
141.0880870000000016
 21
-96.2353809999999896
 31
0
  0
LINE
  5
365
330
1A
100
AcDbEntity
  8
BLACK
  6
CONTINUOUS
100
AcDbLine
 10
141.0880870000000016
 20
-96.2353809999999896
 30
0
 11
141.0900000000000034
 21
-96.2349999999999994
 31
0
  0
LINE
  5
366
330
1A
100
AcDbEntity
  8
BLACK
  6
CONTINUOUS
100
AcDbLine
 10
141.0900000000000034
 20
-96.2349999999999994
 30
0
 11
141.4499999999999886
 21
-96.2349999999999994
 31
0
  0
LINE
  5
367
330
1A
100
AcDbEntity
  8
BLACK
  6
CONTINUOUS
100
AcDbLine
 10
141.4499999999999886
 20
-96.2349999999999994
 30
0
 11
141.4519129999999905
 21
-96.2353809999999896
 31
0
  0
LINE
  5
368
330
1A
100
AcDbEntity
  8
BLACK
  6
CONTINUOUS
100
AcDbLine
 10
142.0119129999999927
 20
-96.2353809999999896
 30
0
 11
142.014618999999982
 21
-96.2380869999999931
 31
0
  0
LINE
  5
369
330
1A
100
AcDbEntity
  8
BLACK
  6
CONTINUOUS
100
AcDbLine
 10
142.014618999999982
 20
-96.2380869999999931
 30
0
 11
142.0149999999999864
 21
-96.2399999999999949
 31
0
  0
LINE
  5
36A
330
1A
100
AcDbEntity
  8
BLACK
  6
CONTINUOUS
100
AcDbLine
 10
142.0149999999999864
 20
-96.2399999999999949
 30
0
 11
142.0149999999999864
 21
-96.8599999999999994
 31
0
  0
LINE
  5
36B
330
1A
100
AcDbEntity
  8
BLACK
  6
CONTINUOUS
100
AcDbLine
 10
142.0149999999999864
 20
-96.8599999999999994
 30
0
 11
142.014618999999982
 21
-96.8619130000000013
 31
0
  0
LINE
  5
36C
330
1A
100
AcDbEntity
  8
BLACK
  6
CONTINUOUS
100
AcDbLine
 10
142.014618999999982
 20
-96.8619130000000013
 30
0
 11
142.0119129999999927
 21
-96.8646189999999905
 31
0
  0
LINE
  5
36D
330
1A
100
AcDbEntity
  8
BLACK
  6
CONTINUOUS
100
AcDbLine
 10
142.0119129999999927
 20
-96.8646189999999905
 30
0
 11
142.0099999999999909
 21
-96.8649999999999949
 31
0
  0
LINE
  5
36E
330
1A
100
AcDbEntity
  8
BLACK
  6
CONTINUOUS
100
AcDbLine
 10
142.0099999999999909
 20
-96.8649999999999949
 30
0
 11
141.6500000000000057
 21
-96.8649999999999949
 31
0
  0
LINE
  5
36F
330
1A
100
AcDbEntity
  8
BLACK
  6
CONTINUOUS
100
AcDbLine
 10
141.6500000000000057
 20
-96.8649999999999949
 30
0
 11
141.6480870000000039
 21
-96.8646189999999905
 31
0
  0
LINE
  5
370
330
1A
100
AcDbEntity
  8
BLACK
  6
CONTINUOUS
100
AcDbLine
 10
141.6480870000000039
 20
-96.8646189999999905
 30
0
 11
141.6453809999999862
 21
-96.8619130000000013
 31
0
  0
LINE
  5
371
330
1A
100
AcDbEntity
  8
BLACK
  6
CONTINUOUS
100
AcDbLine
 10
141.6453809999999862
 20
-96.8619130000000013
 30
0
 11
141.6449999999999818
 21
-96.8599999999999994
 31
0
  0
LINE
  5
372
330
1A
100
AcDbEntity
  8
BLACK
  6
CONTINUOUS
100
AcDbLine
 10
141.6449999999999818
 20
-96.8599999999999994
 30
0
 11
141.6449999999999818
 21
-96.2399999999999949
 31
0
  0
LINE
  5
373
330
1A
100
AcDbEntity
  8
BLACK
  6
CONTINUOUS
100
AcDbLine
 10
141.6449999999999818
 20
-96.2399999999999949
 30
0
 11
141.6453809999999862
 21
-96.2380869999999931
 31
0
  0
LINE
  5
374
330
1A
100
AcDbEntity
  8
BLACK
  6
CONTINUOUS
100
AcDbLine
 10
141.6453809999999862
 20
-96.2380869999999931
 30
0
 11
141.6480870000000039
 21
-96.2353809999999896
 31
0
  0
LINE
  5
375
330
1A
100
AcDbEntity
  8
BLACK
  6
CONTINUOUS
100
AcDbLine
 10
141.6480870000000039
 20
-96.2353809999999896
 30
0
 11
141.6500000000000057
 21
-96.2349999999999994
 31
0
  0
LINE
  5
376
330
1A
100
AcDbEntity
  8
BLACK
  6
CONTINUOUS
100
AcDbLine
 10
141.6500000000000057
 20
-96.2349999999999994
 30
0
 11
142.0099999999999909
 21
-96.2349999999999994
 31
0
  0
LINE
  5
377
330
1A
100
AcDbEntity
  8
BLACK
  6
CONTINUOUS
100
AcDbLine
 10
142.0099999999999909
 20
-96.2349999999999994
 30
0
 11
142.0119129999999927
 21
-96.2353809999999896
 31
0
  0
LINE
  5
378
330
1A
100
AcDbEntity
  8
BLACK
  6
CONTINUOUS
100
AcDbLine
 10
127.0599999999999881
 20
-96.0099999999999909
 30
0
 11
126.8399999999999892
 21
-96.0099999999999909
 31
0
  0
LINE
  5
379
330
1A
100
AcDbEntity
  8
BLACK
  6
CONTINUOUS
100
AcDbLine
 10
126.8399999999999892
 20
-96.0099999999999909
 30
0
 11
126.8399999999999892
 21
-95.5499999999999972
 31
0
  0
LINE
  5
37A
330
1A
100
AcDbEntity
  8
BLACK
  6
CONTINUOUS
100
AcDbLine
 10
126.8399999999999892
 20
-95.5499999999999972
 30
0
 11
127.0599999999999881
 21
-95.5499999999999972
 31
0
  0
LINE
  5
37B
330
1A
100
AcDbEntity
  8
BLACK
  6
CONTINUOUS
100
AcDbLine
 10
127.0599999999999881
 20
-95.5499999999999972
 30
0
 11
127.0599999999999881
 21
-96.0099999999999909
 31
0
  0
LINE
  5
37C
330
1A
100
AcDbEntity
  8
BLACK
  6
CONTINUOUS
100
AcDbLine
 10
127.5599999999999881
 20
-96.0099999999999909
 30
0
 11
127.3399999999999892
 21
-96.0099999999999909
 31
0
  0
LINE
  5
37D
330
1A
100
AcDbEntity
  8
BLACK
  6
CONTINUOUS
100
AcDbLine
 10
127.3399999999999892
 20
-96.0099999999999909
 30
0
 11
127.3399999999999892
 21
-95.5499999999999972
 31
0
  0
LINE
  5
37E
330
1A
100
AcDbEntity
  8
BLACK
  6
CONTINUOUS
100
AcDbLine
 10
127.3399999999999892
 20
-95.5499999999999972
 30
0
 11
127.5599999999999881
 21
-95.5499999999999972
 31
0
  0
LINE
  5
37F
330
1A
100
AcDbEntity
  8
BLACK
  6
CONTINUOUS
100
AcDbLine
 10
127.5599999999999881
 20
-95.5499999999999972
 30
0
 11
127.5599999999999881
 21
-96.0099999999999909
 31
0
  0
LINE
  5
380
330
1A
100
AcDbEntity
  8
BLACK
  6
CONTINUOUS
100
AcDbLine
 10
128.0600000000000023
 20
-96.0099999999999909
 30
0
 11
127.8399999999999892
 21
-96.0099999999999909
 31
0
  0
LINE
  5
381
330
1A
100
AcDbEntity
  8
BLACK
  6
CONTINUOUS
100
AcDbLine
 10
127.8399999999999892
 20
-96.0099999999999909
 30
0
 11
127.8399999999999892
 21
-95.5499999999999972
 31
0
  0
LINE
  5
382
330
1A
100
AcDbEntity
  8
BLACK
  6
CONTINUOUS
100
AcDbLine
 10
127.8399999999999892
 20
-95.5499999999999972
 30
0
 11
128.0600000000000023
 21
-95.5499999999999972
 31
0
  0
LINE
  5
383
330
1A
100
AcDbEntity
  8
BLACK
  6
CONTINUOUS
100
AcDbLine
 10
128.0600000000000023
 20
-95.5499999999999972
 30
0
 11
128.0600000000000023
 21
-96.0099999999999909
 31
0
  0
LINE
  5
384
330
1A
100
AcDbEntity
  8
BLACK
  6
CONTINUOUS
100
AcDbLine
 10
131.7599999999999909
 20
-96.0099999999999909
 30
0
 11
131.539999999999992
 21
-96.0099999999999909
 31
0
  0
LINE
  5
385
330
1A
100
AcDbEntity
  8
BLACK
  6
CONTINUOUS
100
AcDbLine
 10
131.539999999999992
 20
-96.0099999999999909
 30
0
 11
131.539999999999992
 21
-95.5499999999999972
 31
0
  0
LINE
  5
386
330
1A
100
AcDbEntity
  8
BLACK
  6
CONTINUOUS
100
AcDbLine
 10
131.539999999999992
 20
-95.5499999999999972
 30
0
 11
131.7599999999999909
 21
-95.5499999999999972
 31
0
  0
LINE
  5
387
330
1A
100
AcDbEntity
  8
BLACK
  6
CONTINUOUS
100
AcDbLine
 10
131.7599999999999909
 20
-95.5499999999999972
 30
0
 11
131.7599999999999909
 21
-96.0099999999999909
 31
0
  0
LINE
  5
388
330
1A
100
AcDbEntity
  8
BLACK
  6
CONTINUOUS
100
AcDbLine
 10
132.2599999999999909
 20
-96.0099999999999909
 30
0
 11
132.039999999999992
 21
-96.0099999999999909
 31
0
  0
LINE
  5
389
330
1A
100
AcDbEntity
  8
BLACK
  6
CONTINUOUS
100
AcDbLine
 10
132.039999999999992
 20
-96.0099999999999909
 30
0
 11
132.039999999999992
 21
-95.5499999999999972
 31
0
  0
LINE
  5
38A
330
1A
100
AcDbEntity
  8
BLACK
  6
CONTINUOUS
100
AcDbLine
 10
132.039999999999992
 20
-95.5499999999999972
 30
0
 11
132.2599999999999909
 21
-95.5499999999999972
 31
0
  0
LINE
  5
38B
330
1A
100
AcDbEntity
  8
BLACK
  6
CONTINUOUS
100
AcDbLine
 10
132.2599999999999909
 20
-95.5499999999999972
 30
0
 11
132.2599999999999909
 21
-96.0099999999999909
 31
0
  0
LINE
  5
38C
330
1A
100
AcDbEntity
  8
BLACK
  6
CONTINUOUS
100
AcDbLine
 10
132.7599999999999909
 20
-96.0099999999999909
 30
0
 11
132.539999999999992
 21
-96.0099999999999909
 31
0
  0
LINE
  5
38D
330
1A
100
AcDbEntity
  8
BLACK
  6
CONTINUOUS
100
AcDbLine
 10
132.539999999999992
 20
-96.0099999999999909
 30
0
 11
132.539999999999992
 21
-95.5499999999999972
 31
0
  0
LINE
  5
38E
330
1A
100
AcDbEntity
  8
BLACK
  6
CONTINUOUS
100
AcDbLine
 10
132.539999999999992
 20
-95.5499999999999972
 30
0
 11
132.7599999999999909
 21
-95.5499999999999972
 31
0
  0
LINE
  5
38F
330
1A
100
AcDbEntity
  8
BLACK
  6
CONTINUOUS
100
AcDbLine
 10
132.7599999999999909
 20
-95.5499999999999972
 30
0
 11
132.7599999999999909
 21
-96.0099999999999909
 31
0
  0
LINE
  5
390
330
1A
100
AcDbEntity
  8
BLACK
  6
CONTINUOUS
100
AcDbLine
 10
136.460000000000008
 20
-96.0099999999999909
 30
0
 11
136.2399999999999807
 21
-96.0099999999999909
 31
0
  0
LINE
  5
391
330
1A
100
AcDbEntity
  8
BLACK
  6
CONTINUOUS
100
AcDbLine
 10
136.2399999999999807
 20
-96.0099999999999909
 30
0
 11
136.2399999999999807
 21
-95.5499999999999972
 31
0
  0
LINE
  5
392
330
1A
100
AcDbEntity
  8
BLACK
  6
CONTINUOUS
100
AcDbLine
 10
136.2399999999999807
 20
-95.5499999999999972
 30
0
 11
136.460000000000008
 21
-95.5499999999999972
 31
0
  0
LINE
  5
393
330
1A
100
AcDbEntity
  8
BLACK
  6
CONTINUOUS
100
AcDbLine
 10
136.460000000000008
 20
-95.5499999999999972
 30
0
 11
136.460000000000008
 21
-96.0099999999999909
 31
0
  0
LINE
  5
394
330
1A
100
AcDbEntity
  8
BLACK
  6
CONTINUOUS
100
AcDbLine
 10
136.960000000000008
 20
-96.0099999999999909
 30
0
 11
136.7399999999999807
 21
-96.0099999999999909
 31
0
  0
LINE
  5
395
330
1A
100
AcDbEntity
  8
BLACK
  6
CONTINUOUS
100
AcDbLine
 10
136.7399999999999807
 20
-96.0099999999999909
 30
0
 11
136.7399999999999807
 21
-95.5499999999999972
 31
0
  0
LINE
  5
396
330
1A
100
AcDbEntity
  8
BLACK
  6
CONTINUOUS
100
AcDbLine
 10
136.7399999999999807
 20
-95.5499999999999972
 30
0
 11
136.960000000000008
 21
-95.5499999999999972
 31
0
  0
LINE
  5
397
330
1A
100
AcDbEntity
  8
BLACK
  6
CONTINUOUS
100
AcDbLine
 10
136.960000000000008
 20
-95.5499999999999972
 30
0
 11
136.960000000000008
 21
-96.0099999999999909
 31
0
  0
LINE
  5
398
330
1A
100
AcDbEntity
  8
BLACK
  6
CONTINUOUS
100
AcDbLine
 10
137.460000000000008
 20
-96.0099999999999909
 30
0
 11
137.2399999999999807
 21
-96.0099999999999909
 31
0
  0
LINE
  5
399
330
1A
100
AcDbEntity
  8
BLACK
  6
CONTINUOUS
100
AcDbLine
 10
137.2399999999999807
 20
-96.0099999999999909
 30
0
 11
137.2399999999999807
 21
-95.5499999999999972
 31
0
  0
LINE
  5
39A
330
1A
100
AcDbEntity
  8
BLACK
  6
CONTINUOUS
100
AcDbLine
 10
137.2399999999999807
 20
-95.5499999999999972
 30
0
 11
137.460000000000008
 21
-95.5499999999999972
 31
0
  0
LINE
  5
39B
330
1A
100
AcDbEntity
  8
BLACK
  6
CONTINUOUS
100
AcDbLine
 10
137.460000000000008
 20
-95.5499999999999972
 30
0
 11
137.460000000000008
 21
-96.0099999999999909
 31
0
  0
LINE
  5
39C
330
1A
100
AcDbEntity
  8
BLACK
  6
CONTINUOUS
100
AcDbLine
 10
141.1599999999999966
 20
-96.0099999999999909
 30
0
 11
140.9399999999999977
 21
-96.0099999999999909
 31
0
  0
LINE
  5
39D
330
1A
100
AcDbEntity
  8
BLACK
  6
CONTINUOUS
100
AcDbLine
 10
140.9399999999999977
 20
-96.0099999999999909
 30
0
 11
140.9399999999999977
 21
-95.5499999999999972
 31
0
  0
LINE
  5
39E
330
1A
100
AcDbEntity
  8
BLACK
  6
CONTINUOUS
100
AcDbLine
 10
140.9399999999999977
 20
-95.5499999999999972
 30
0
 11
141.1599999999999966
 21
-95.5499999999999972
 31
0
  0
LINE
  5
39F
330
1A
100
AcDbEntity
  8
BLACK
  6
CONTINUOUS
100
AcDbLine
 10
141.1599999999999966
 20
-95.5499999999999972
 30
0
 11
141.1599999999999966
 21
-96.0099999999999909
 31
0
  0
LINE
  5
3A0
330
1A
100
AcDbEntity
  8
BLACK
  6
CONTINUOUS
100
AcDbLine
 10
141.6599999999999966
 20
-96.0099999999999909
 30
0
 11
141.4399999999999977
 21
-96.0099999999999909
 31
0
  0
LINE
  5
3A1
330
1A
100
AcDbEntity
  8
BLACK
  6
CONTINUOUS
100
AcDbLine
 10
141.4399999999999977
 20
-96.0099999999999909
 30
0
 11
141.4399999999999977
 21
-95.5499999999999972
 31
0
  0
LINE
  5
3A2
330
1A
100
AcDbEntity
  8
BLACK
  6
CONTINUOUS
100
AcDbLine
 10
141.4399999999999977
 20
-95.5499999999999972
 30
0
 11
141.6599999999999966
 21
-95.5499999999999972
 31
0
  0
LINE
  5
3A3
330
1A
100
AcDbEntity
  8
BLACK
  6
CONTINUOUS
100
AcDbLine
 10
141.6599999999999966
 20
-95.5499999999999972
 30
0
 11
141.6599999999999966
 21
-96.0099999999999909
 31
0
  0
LINE
  5
3A4
330
1A
100
AcDbEntity
  8
BLACK
  6
CONTINUOUS
100
AcDbLine
 10
142.1599999999999966
 20
-96.0099999999999909
 30
0
 11
141.9399999999999977
 21
-96.0099999999999909
 31
0
  0
LINE
  5
3A5
330
1A
100
AcDbEntity
  8
BLACK
  6
CONTINUOUS
100
AcDbLine
 10
141.9399999999999977
 20
-96.0099999999999909
 30
0
 11
141.9399999999999977
 21
-95.5499999999999972
 31
0
  0
LINE
  5
3A6
330
1A
100
AcDbEntity
  8
BLACK
  6
CONTINUOUS
100
AcDbLine
 10
141.9399999999999977
 20
-95.5499999999999972
 30
0
 11
142.1599999999999966
 21
-95.5499999999999972
 31
0
  0
LINE
  5
3A7
330
1A
100
AcDbEntity
  8
BLACK
  6
CONTINUOUS
100
AcDbLine
 10
142.1599999999999966
 20
-95.5499999999999972
 30
0
 11
142.1599999999999966
 21
-96.0099999999999909
 31
0
  0
LINE
  5
3A8
330
1A
100
AcDbEntity
  8
BLACK
  6
CONTINUOUS
100
AcDbLine
 10
131.1599999999999966
 20
-94.6099999999999994
 30
0
 11
130.6599999999999966
 21
-94.6099999999999994
 31
0
  0
LINE
  5
3A9
330
1A
100
AcDbEntity
  8
BLACK
  6
CONTINUOUS
100
AcDbLine
 10
130.6599999999999966
 20
-94.6099999999999994
 30
0
 11
130.6599999999999966
 21
-93.6099999999999994
 31
0
  0
LINE
  5
3AA
330
1A
100
AcDbEntity
  8
BLACK
  6
CONTINUOUS
100
AcDbLine
 10
130.6599999999999966
 20
-93.6099999999999994
 30
0
 11
131.1599999999999966
 21
-93.6099999999999994
 31
0
  0
LINE
  5
3AB
330
1A
100
AcDbEntity
  8
BLACK
  6
CONTINUOUS
100
AcDbLine
 10
131.1599999999999966
 20
-93.6099999999999994
 30
0
 11
131.1599999999999966
 21
-94.6099999999999994
 31
0
  0
LINE
  5
3AC
330
1A
100
AcDbEntity
  8
BLACK
  6
CONTINUOUS
100
AcDbLine
 10
131.960000000000008
 20
-94.6099999999999994
 30
0
 11
131.460000000000008
 21
-94.6099999999999994
 31
0
  0
LINE
  5
3AD
330
1A
100
AcDbEntity
  8
BLACK
  6
CONTINUOUS
100
AcDbLine
 10
131.460000000000008
 20
-94.6099999999999994
 30
0
 11
131.460000000000008
 21
-93.6099999999999994
 31
0
  0
LINE
  5
3AE
330
1A
100
AcDbEntity
  8
BLACK
  6
CONTINUOUS
100
AcDbLine
 10
131.460000000000008
 20
-93.6099999999999994
 30
0
 11
131.960000000000008
 21
-93.6099999999999994
 31
0
  0
LINE
  5
3AF
330
1A
100
AcDbEntity
  8
BLACK
  6
CONTINUOUS
100
AcDbLine
 10
131.960000000000008
 20
-93.6099999999999994
 30
0
 11
131.960000000000008
 21
-94.6099999999999994
 31
0
  0
LINE
  5
3B0
330
1A
100
AcDbEntity
  8
BLACK
  6
CONTINUOUS
100
AcDbLine
 10
132.7599999999999909
 20
-94.6099999999999994
 30
0
 11
132.2599999999999909
 21
-94.6099999999999994
 31
0
  0
LINE
  5
3B1
330
1A
100
AcDbEntity
  8
BLACK
  6
CONTINUOUS
100
AcDbLine
 10
132.2599999999999909
 20
-94.6099999999999994
 30
0
 11
132.2599999999999909
 21
-93.6099999999999994
 31
0
  0
LINE
  5
3B2
330
1A
100
AcDbEntity
  8
BLACK
  6
CONTINUOUS
100
AcDbLine
 10
132.2599999999999909
 20
-93.6099999999999994
 30
0
 11
132.7599999999999909
 21
-93.6099999999999994
 31
0
  0
LINE
  5
3B3
330
1A
100
AcDbEntity
  8
BLACK
  6
CONTINUOUS
100
AcDbLine
 10
132.7599999999999909
 20
-93.6099999999999994
 30
0
 11
132.7599999999999909
 21
-94.6099999999999994
 31
0
  0
LINE
  5
3B4
330
1A
100
AcDbEntity
  8
BLACK
  6
CONTINUOUS
100
AcDbLine
 10
133.5600000000000023
 20
-94.6099999999999994
 30
0
 11
133.0600000000000023
 21
-94.6099999999999994
 31
0
  0
LINE
  5
3B5
330
1A
100
AcDbEntity
  8
BLACK
  6
CONTINUOUS
100
AcDbLine
 10
133.0600000000000023
 20
-94.6099999999999994
 30
0
 11
133.0600000000000023
 21
-93.6099999999999994
 31
0
  0
LINE
  5
3B6
330
1A
100
AcDbEntity
  8
BLACK
  6
CONTINUOUS
100
AcDbLine
 10
133.0600000000000023
 20
-93.6099999999999994
 30
0
 11
133.5600000000000023
 21
-93.6099999999999994
 31
0
  0
LINE
  5
3B7
330
1A
100
AcDbEntity
  8
BLACK
  6
CONTINUOUS
100
AcDbLine
 10
133.5600000000000023
 20
-93.6099999999999994
 30
0
 11
133.5600000000000023
 21
-94.6099999999999994
 31
0
  0
LINE
  5
3B8
330
1A
100
AcDbEntity
  8
BLACK
  6
CONTINUOUS
100
AcDbLine
 10
134.3599999999999852
 20
-94.6099999999999994
 30
0
 11
133.8599999999999852
 21
-94.6099999999999994
 31
0
  0
LINE
  5
3B9
330
1A
100
AcDbEntity
  8
BLACK
  6
CONTINUOUS
100
AcDbLine
 10
133.8599999999999852
 20
-94.6099999999999994
 30
0
 11
133.8599999999999852
 21
-93.6099999999999994
 31
0
  0
LINE
  5
3BA
330
1A
100
AcDbEntity
  8
BLACK
  6
CONTINUOUS
100
AcDbLine
 10
133.8599999999999852
 20
-93.6099999999999994
 30
0
 11
134.3599999999999852
 21
-93.6099999999999994
 31
0
  0
LINE
  5
3BB
330
1A
100
AcDbEntity
  8
BLACK
  6
CONTINUOUS
100
AcDbLine
 10
134.3599999999999852
 20
-93.6099999999999994
 30
0
 11
134.3599999999999852
 21
-94.6099999999999994
 31
0
  0
LINE
  5
3BC
330
1A
100
AcDbEntity
  8
BLACK
  6
CONTINUOUS
100
AcDbLine
 10
135.1599999999999966
 20
-94.6099999999999994
 30
0
 11
134.6599999999999966
 21
-94.6099999999999994
 31
0
  0
LINE
  5
3BD
330
1A
100
AcDbEntity
  8
BLACK
  6
CONTINUOUS
100
AcDbLine
 10
134.6599999999999966
 20
-94.6099999999999994
 30
0
 11
134.6599999999999966
 21
-93.6099999999999994
 31
0
  0
LINE
  5
3BE
330
1A
100
AcDbEntity
  8
BLACK
  6
CONTINUOUS
100
AcDbLine
 10
134.6599999999999966
 20
-93.6099999999999994
 30
0
 11
135.1599999999999966
 21
-93.6099999999999994
 31
0
  0
LINE
  5
3BF
330
1A
100
AcDbEntity
  8
BLACK
  6
CONTINUOUS
100
AcDbLine
 10
135.1599999999999966
 20
-93.6099999999999994
 30
0
 11
135.1599999999999966
 21
-94.6099999999999994
 31
0
  0
LINE
  5
3C0
330
1A
100
AcDbEntity
  8
BLACK
  6
CONTINUOUS
100
AcDbLine
 10
135.960000000000008
 20
-94.6099999999999994
 30
0
 11
135.460000000000008
 21
-94.6099999999999994
 31
0
  0
LINE
  5
3C1
330
1A
100
AcDbEntity
  8
BLACK
  6
CONTINUOUS
100
AcDbLine
 10
135.460000000000008
 20
-94.6099999999999994
 30
0
 11
135.460000000000008
 21
-93.6099999999999994
 31
0
  0
LINE
  5
3C2
330
1A
100
AcDbEntity
  8
BLACK
  6
CONTINUOUS
100
AcDbLine
 10
135.460000000000008
 20
-93.6099999999999994
 30
0
 11
135.960000000000008
 21
-93.6099999999999994
 31
0
  0
LINE
  5
3C3
330
1A
100
AcDbEntity
  8
BLACK
  6
CONTINUOUS
100
AcDbLine
 10
135.960000000000008
 20
-93.6099999999999994
 30
0
 11
135.960000000000008
 21
-94.6099999999999994
 31
0
  0
LINE
  5
3C4
330
1A
100
AcDbEntity
  8
BLACK
  6
CONTINUOUS
100
AcDbLine
 10
136.7599999999999909
 20
-94.6099999999999994
 30
0
 11
136.2599999999999909
 21
-94.6099999999999994
 31
0
  0
LINE
  5
3C5
330
1A
100
AcDbEntity
  8
BLACK
  6
CONTINUOUS
100
AcDbLine
 10
136.2599999999999909
 20
-94.6099999999999994
 30
0
 11
136.2599999999999909
 21
-93.6099999999999994
 31
0
  0
LINE
  5
3C6
330
1A
100
AcDbEntity
  8
BLACK
  6
CONTINUOUS
100
AcDbLine
 10
136.2599999999999909
 20
-93.6099999999999994
 30
0
 11
136.7599999999999909
 21
-93.6099999999999994
 31
0
  0
LINE
  5
3C7
330
1A
100
AcDbEntity
  8
BLACK
  6
CONTINUOUS
100
AcDbLine
 10
136.7599999999999909
 20
-93.6099999999999994
 30
0
 11
136.7599999999999909
 21
-94.6099999999999994
 31
0
  0
LINE
  5
3C8
330
1A
100
AcDbEntity
  8
BLACK
  6
CONTINUOUS
100
AcDbLine
 10
137.5600000000000023
 20
-94.6099999999999994
 30
0
 11
137.0600000000000023
 21
-94.6099999999999994
 31
0
  0
LINE
  5
3C9
330
1A
100
AcDbEntity
  8
BLACK
  6
CONTINUOUS
100
AcDbLine
 10
137.0600000000000023
 20
-94.6099999999999994
 30
0
 11
137.0600000000000023
 21
-93.6099999999999994
 31
0
  0
LINE
  5
3CA
330
1A
100
AcDbEntity
  8
BLACK
  6
CONTINUOUS
100
AcDbLine
 10
137.0600000000000023
 20
-93.6099999999999994
 30
0
 11
137.5600000000000023
 21
-93.6099999999999994
 31
0
  0
LINE
  5
3CB
330
1A
100
AcDbEntity
  8
BLACK
  6
CONTINUOUS
100
AcDbLine
 10
137.5600000000000023
 20
-93.6099999999999994
 30
0
 11
137.5600000000000023
 21
-94.6099999999999994
 31
0
  0
LINE
  5
3CC
330
1A
100
AcDbEntity
  8
BLACK
  6
CONTINUOUS
100
AcDbLine
 10
138.3599999999999852
 20
-94.6099999999999994
 30
0
 11
137.8599999999999852
 21
-94.6099999999999994
 31
0
  0
LINE
  5
3CD
330
1A
100
AcDbEntity
  8
BLACK
  6
CONTINUOUS
100
AcDbLine
 10
137.8599999999999852
 20
-94.6099999999999994
 30
0
 11
137.8599999999999852
 21
-93.6099999999999994
 31
0
  0
LINE
  5
3CE
330
1A
100
AcDbEntity
  8
BLACK
  6
CONTINUOUS
100
AcDbLine
 10
137.8599999999999852
 20
-93.6099999999999994
 30
0
 11
138.3599999999999852
 21
-93.6099999999999994
 31
0
  0
LINE
  5
3CF
330
1A
100
AcDbEntity
  8
BLACK
  6
CONTINUOUS
100
AcDbLine
 10
138.3599999999999852
 20
-93.6099999999999994
 30
0
 11
138.3599999999999852
 21
-94.6099999999999994
 31
0
  0
LINE
  5
3D0
330
1A
100
AcDbEntity
  8
BLACK
  6
CONTINUOUS
100
AcDbLine
 10
130.210000000000008
 20
-93.1099999999999994
 30
0
 11
129.0099999999999909
 21
-93.1099999999999994
 31
0
  0
LINE
  5
3D1
330
1A
100
AcDbEntity
  8
BLACK
  6
CONTINUOUS
100
AcDbLine
 10
129.0099999999999909
 20
-93.1099999999999994
 30
0
 11
129.0099999999999909
 21
-91.4099999999999966
 31
0
  0
LINE
  5
3D2
330
1A
100
AcDbEntity
  8
BLACK
  6
CONTINUOUS
100
AcDbLine
 10
129.0099999999999909
 20
-91.4099999999999966
 30
0
 11
130.210000000000008
 21
-91.4099999999999966
 31
0
  0
LINE
  5
3D3
330
1A
100
AcDbEntity
  8
BLACK
  6
CONTINUOUS
100
AcDbLine
 10
130.210000000000008
 20
-91.4099999999999966
 30
0
 11
130.210000000000008
 21
-93.1099999999999994
 31
0
  0
LINE
  5
3D4
330
1A
100
AcDbEntity
  8
BLACK
  6
CONTINUOUS
100
AcDbLine
 10
140.0099999999999909
 20
-93.1099999999999994
 30
0
 11
138.8100000000000023
 21
-93.1099999999999994
 31
0
  0
LINE
  5
3D5
330
1A
100
AcDbEntity
  8
BLACK
  6
CONTINUOUS
100
AcDbLine
 10
138.8100000000000023
 20
-93.1099999999999994
 30
0
 11
138.8100000000000023
 21
-91.4099999999999966
 31
0
  0
LINE
  5
3D6
330
1A
100
AcDbEntity
  8
BLACK
  6
CONTINUOUS
100
AcDbLine
 10
138.8100000000000023
 20
-91.4099999999999966
 30
0
 11
140.0099999999999909
 21
-91.4099999999999966
 31
0
  0
LINE
  5
3D7
330
1A
100
AcDbEntity
  8
BLACK
  6
CONTINUOUS
100
AcDbLine
 10
140.0099999999999909
 20
-91.4099999999999966
 30
0
 11
140.0099999999999909
 21
-93.1099999999999994
 31
0
  0
ENDSEC
  0
SECTION
  2
OBJECTS
  0
DICTIONARY
  5
20
330
0
100
AcDbDictionary
281
1
  3
ACAD_GROUP
350
3D8
  3
ACAD_LAYOUT
350
21
  3
ACAD_PLOTSTYLENAME
350
11
  0
DICTIONARY
  5
3D8
330
20
100
AcDbDictionary
281
1
  0
ACDBDICTIONARYWDFLT
  5
11
330
20
100
AcDbDictionary
281
1
  3
Normal
350
10
100
AcDbDictionaryWithDefault
340
10
  0
ACDBPLACEHOLDER
  5
10
330
11
  0
DICTIONARY
  5
21
330
20
100
AcDbDictionary
281
1
  3
Model
350
1D
  3
Layout1
350
1E
  3
Layout2
350
1F
  0
LAYOUT
  5
1D
330
21
100
AcDbPlotSettings
  1

  2
none_device
  4
A3
  6

 40
0.0
 41
0.0
 42
0.0
 43
0.0
 44
420.0
 45
297.0
 46
0.0
 47
0.0
 48
0.0
 49
0.0
140
0.0
141
0.0
142
1.0
143
1.0
 70
1024
 72
1
 73
0
 74
5
  7

 75
16
 76
0
 77
2
 78
300
147
1.0
148
0.0
149
0.0
100
AcDbLayout
  1
Model
 70
1
 71
0
 10
0.0
 20
0.0
 11
420.0
 21
297.0
 12
0.0
 22
0.0
 32
0.0
 14
1e+20
 24
1e+20
 34
1e+20
 15
-1e+20
 25
-1e+20
 35
-1e+20
146
0.0
 13
0.0
 23
0.0
 33
0.0
 16
1.0
 26
0.0
 36
0.0
 17
0.0
 27
1.0
 37
0.0
 76
0
330
1A
  0
LAYOUT
  5
1E
330
21
100
AcDbPlotSettings
  1

  2
none_device
  4
A3
  6

 40
0.0
 41
0.0
 42
0.0
 43
0.0
 44
420.0
 45
297.0
 46
0.0
 47
0.0
 48
0.0
 49
0.0
140
0.0
141
0.0
142
1.0
143
1.0
 70
0
 72
1
 73
0
 74
5
  7

 75
16
 76
0
 77
2
 78
300
147
1.0
148
0.0
149
0.0
100
AcDbLayout
  1
Layout1
 70
1
 71
1
 10
0.0
 20
0.0
 11
420.0
 21
297.0
 12
0.0
 22
0.0
 32
0.0
 14
1e+20
 24
1e+20
 34
1e+20
 15
-1e+20
 25
-1e+20
 35
-1e+20
146
0.0
 13
0.0
 23
0.0
 33
0.0
 16
1.0
 26
0.0
 36
0.0
 17
0.0
 27
1.0
 37
0.0
 76
0
330
1B
  0
LAYOUT
  5
1F
330
21
100
AcDbPlotSettings
  1

  2
none_device
  4
A3
  6

 40
0.0
 41
0.0
 42
0.0
 43
0.0
 44
420.0
 45
297.0
 46
0.0
 47
0.0
 48
0.0
 49
0.0
140
0.0
141
0.0
142
1.0
143
1.0
 70
0
 72
1
 73
0
 74
5
  7

 75
16
 76
0
 77
2
 78
300
147
1.0
148
0.0
149
0.0
100
AcDbLayout
  1
Layout2
 70
1
 71
2
 10
0.0
 20
0.0
 11
420.0
 21
297.0
 12
0.0
 22
0.0
 32
0.0
 14
1e+20
 24
1e+20
 34
1e+20
 15
-1e+20
 25
-1e+20
 35
-1e+20
146
0.0
 13
0.0
 23
0.0
 33
0.0
 16
1.0
 26
0.0
 36
0.0
 17
0.0
 27
1.0
 37
0.0
 76
0
330
1C
  0
ENDSEC
  0
EOF
