<?xml version="1.0" standalone="no"?>
 <!DOCTYPE svg PUBLIC "-//W3C//DTD SVG 1.1//EN" 
 "http://www.w3.org/Graphics/SVG/1.1/DTD/svg11.dtd"> 
<svg
  xmlns:svg="http://www.w3.org/2000/svg"
  xmlns="http://www.w3.org/2000/svg"
  xmlns:xlink="http://www.w3.org/1999/xlink"
  xmlns:inkscape="http://www.inkscape.org/namespaces/inkscape"
  version="1.1"
  width="297.0022mm" height="210.0072mm" viewBox="0.0000 0.0000 297.0022 210.0072">
<title>SVG Image created as 4x4-B_Cu0.svg date 2026-06-30T15:29:07 </title>
  <desc>Image generated by PCBNEW </desc>
<g style="fill:#000000; fill-opacity:1.0000;stroke:#000000; stroke-opacity:1.0000;
stroke-linecap:round; stroke-linejoin:round;"
 transform="translate(0 0) scale(1 1)">
<path style="fill:#000000; fill-opacity:1.0000; stroke:none;fill-rule:evenodd;"
d="M 167.1522,96.0100
166.5522,96.0100
166.5522,96.5500
167.1522,96.5500
Z" /> 
<path style="fill:#000000; fill-opacity:1.0000; stroke:none;fill-rule:evenodd;"
d="M 167.1522,96.8740
166.5522,96.8740
166.5522,97.4140
167.1522,97.4140
Z" /> 
<path style="fill:#000000; fill-opacity:1.0000; stroke:none;fill-rule:evenodd;"
d="M 171.8522,110.0980
171.2522,110.0980
171.2522,110.6380
171.8522,110.6380
Z" /> 
<path style="fill:#000000; fill-opacity:1.0000; stroke:none;fill-rule:evenodd;"
d="M 171.8522,110.9620
171.2522,110.9620
171.2522,111.5020
171.8522,111.5020
Z" /> 
<path style="fill:#000000; fill-opacity:1.0000; stroke:none;fill-rule:evenodd;"
d="M 162.4522,100.7100
161.8522,100.7100
161.8522,101.2500
162.4522,101.2500
Z" /> 
<path style="fill:#000000; fill-opacity:1.0000; stroke:none;fill-rule:evenodd;"
d="M 162.4522,101.5740
161.8522,101.5740
161.8522,102.1140
162.4522,102.1140
Z" /> 
<path style="fill:#000000; fill-opacity:1.0000; stroke:none;fill-rule:evenodd;"
d="M 157.7522,100.7100
157.1522,100.7100
157.1522,101.2500
157.7522,101.2500
Z" /> 
<path style="fill:#000000; fill-opacity:1.0000; stroke:none;fill-rule:evenodd;"
d="M 157.7522,101.5740
157.1522,101.5740
157.1522,102.1140
157.7522,102.1140
Z" /> 
<path style="fill:#000000; fill-opacity:1.0000; stroke:none;fill-rule:evenodd;"
d="M 167.1522,100.7100
166.5522,100.7100
166.5522,101.2500
167.1522,101.2500
Z" /> 
<path style="fill:#000000; fill-opacity:1.0000; stroke:none;fill-rule:evenodd;"
d="M 167.1522,101.5740
166.5522,101.5740
166.5522,102.1140
167.1522,102.1140
Z" /> 
<path style="fill:#000000; fill-opacity:1.0000; stroke:none;fill-rule:evenodd;"
d="M 157.7522,110.1100
157.1522,110.1100
157.1522,110.6500
157.7522,110.6500
Z" /> 
<path style="fill:#000000; fill-opacity:1.0000; stroke:none;fill-rule:evenodd;"
d="M 157.7522,110.9740
157.1522,110.9740
157.1522,111.5140
157.7522,111.5140
Z" /> 
<path style="fill:#000000; fill-opacity:1.0000; stroke:none;fill-rule:evenodd;"
d="M 162.4522,96.0100
161.8522,96.0100
161.8522,96.5500
162.4522,96.5500
Z" /> 
<path style="fill:#000000; fill-opacity:1.0000; stroke:none;fill-rule:evenodd;"
d="M 162.4522,96.8740
161.8522,96.8740
161.8522,97.4140
162.4522,97.4140
Z" /> 
<path style="fill:#000000; fill-opacity:1.0000; stroke:none;fill-rule:evenodd;"
d="M 162.4522,105.4100
161.8522,105.4100
161.8522,105.9500
162.4522,105.9500
Z" /> 
<path style="fill:#000000; fill-opacity:1.0000; stroke:none;fill-rule:evenodd;"
d="M 162.4522,106.2740
161.8522,106.2740
161.8522,106.8140
162.4522,106.8140
Z" /> 
<path style="fill:#000000; fill-opacity:1.0000; stroke:none;fill-rule:evenodd;"
d="M 171.8522,96.0100
171.2522,96.0100
171.2522,96.5500
171.8522,96.5500
Z" /> 
<path style="fill:#000000; fill-opacity:1.0000; stroke:none;fill-rule:evenodd;"
d="M 171.8522,96.8740
171.2522,96.8740
171.2522,97.4140
171.8522,97.4140
Z" /> 
<path style="fill:#000000; fill-opacity:1.0000; stroke:none;fill-rule:evenodd;"
d="M 157.7522,105.4100
157.1522,105.4100
157.1522,105.9500
157.7522,105.9500
Z" /> 
<path style="fill:#000000; fill-opacity:1.0000; stroke:none;fill-rule:evenodd;"
d="M 157.7522,106.2740
157.1522,106.2740
157.1522,106.8140
157.7522,106.8140
Z" /> 
<path style="fill:#000000; fill-opacity:1.0000; stroke:none;fill-rule:evenodd;"
d="M 171.8522,100.7100
171.2522,100.7100
171.2522,101.2500
171.8522,101.2500
Z" /> 
<path style="fill:#000000; fill-opacity:1.0000; stroke:none;fill-rule:evenodd;"
d="M 171.8522,101.5740
171.2522,101.5740
171.2522,102.1140
171.8522,102.1140
Z" /> 
<path style="fill:#000000; fill-opacity:1.0000; stroke:none;fill-rule:evenodd;"
d="M 167.1522,110.1100
166.5522,110.1100
166.5522,110.6500
167.1522,110.6500
Z" /> 
<path style="fill:#000000; fill-opacity:1.0000; stroke:none;fill-rule:evenodd;"
d="M 167.1522,110.9740
166.5522,110.9740
166.5522,111.5140
167.1522,111.5140
Z" /> 
<path style="fill:#000000; fill-opacity:1.0000; stroke:none;fill-rule:evenodd;"
d="M 167.1522,105.4100
166.5522,105.4100
166.5522,105.9500
167.1522,105.9500
Z" /> 
<path style="fill:#000000; fill-opacity:1.0000; stroke:none;fill-rule:evenodd;"
d="M 167.1522,106.2740
166.5522,106.2740
166.5522,106.8140
167.1522,106.8140
Z" /> 
<path style="fill:#000000; fill-opacity:1.0000; stroke:none;fill-rule:evenodd;"
d="M 157.7522,96.0100
157.1522,96.0100
157.1522,96.5500
157.7522,96.5500
Z" /> 
<path style="fill:#000000; fill-opacity:1.0000; stroke:none;fill-rule:evenodd;"
d="M 157.7522,96.8740
157.1522,96.8740
157.1522,97.4140
157.7522,97.4140
Z" /> 
<path style="fill:#000000; fill-opacity:1.0000; stroke:none;fill-rule:evenodd;"
d="M 162.4522,110.1100
161.8522,110.1100
161.8522,110.6500
162.4522,110.6500
Z" /> 
<path style="fill:#000000; fill-opacity:1.0000; stroke:none;fill-rule:evenodd;"
d="M 162.4522,110.9740
161.8522,110.9740
161.8522,111.5140
162.4522,111.5140
Z" /> 
<path style="fill:#000000; fill-opacity:1.0000; stroke:none;fill-rule:evenodd;"
d="M 171.8522,105.4100
171.2522,105.4100
171.2522,105.9500
171.8522,105.9500
Z" /> 
<path style="fill:#000000; fill-opacity:1.0000; stroke:none;fill-rule:evenodd;"
d="M 171.8522,106.2740
171.2522,106.2740
171.2522,106.8140
171.8522,106.8140
Z" /> 
</g>
<g style="fill:#000000; fill-opacity:1.0000; stroke:none;">
<circle cx="159.1762" cy="96.9620" r="0.2286" /> 
<circle cx="168.5022" cy="110.6500" r="0.2286" /> 
<circle cx="168.5022" cy="96.5500" r="0.2286" /> 
<circle cx="162.1522" cy="102.4000" r="0.2286" /> 
<circle cx="154.4022" cy="96.5500" r="0.2286" /> 
<circle cx="170.6522" cy="111.3000" r="0.2286" /> 
<circle cx="168.2232" cy="92.2600" r="0.2286" /> 
<circle cx="166.0022" cy="111.2500" r="0.2286" /> 
<circle cx="159.1022" cy="101.2500" r="0.2286" /> 
<circle cx="156.5522" cy="101.8500" r="0.2286" /> 
<circle cx="168.5022" cy="101.2500" r="0.2286" /> 
<circle cx="165.9522" cy="101.8500" r="0.2286" /> 
<circle cx="165.9522" cy="106.5500" r="0.2286" /> 
<circle cx="162.1522" cy="97.7000" r="0.2286" /> 
<circle cx="156.6022" cy="106.5500" r="0.2286" /> 
<circle cx="154.4022" cy="110.6500" r="0.2286" /> 
<circle cx="156.7622" cy="92.2600" r="0.2286" /> 
<circle cx="163.8022" cy="96.5500" r="0.2286" /> 
<circle cx="159.1022" cy="105.9500" r="0.2286" /> 
<circle cx="154.4022" cy="105.9500" r="0.2286" /> 
<circle cx="163.8022" cy="101.2500" r="0.2286" /> 
<circle cx="154.4022" cy="101.2500" r="0.2286" /> 
<circle cx="161.3022" cy="111.2500" r="0.2286" /> 
<circle cx="156.6022" cy="111.2500" r="0.2286" /> 
<circle cx="163.8022" cy="110.6500" r="0.2286" /> 
<circle cx="156.5522" cy="97.1500" r="0.2286" /> 
<circle cx="162.1522" cy="107.1000" r="0.2286" /> 
<circle cx="170.6522" cy="101.8500" r="0.2286" /> 
<circle cx="168.5022" cy="105.9500" r="0.2286" /> 
<circle cx="163.8022" cy="105.9500" r="0.2286" /> 
<circle cx="170.6522" cy="106.5500" r="0.2286" /> 
<circle cx="170.6522" cy="97.1500" r="0.2286" /> 
<circle cx="165.9522" cy="97.1500" r="0.2286" /> 
<circle cx="159.1022" cy="110.6500" r="0.2286" /> 
<circle cx="156.4222" cy="113.1240" r="0.2286" /> 
<circle cx="166.5722" cy="94.0020" r="0.2286" /> 
<circle cx="156.6022" cy="105.1750" r="0.2286" /> 
<circle cx="166.0272" cy="109.8875" r="0.2286" /> 
<circle cx="166.0522" cy="95.7750" r="0.2286" /> 
<circle cx="161.4022" cy="95.7750" r="0.2286" /> 
<circle cx="156.8757" cy="96.0735" r="0.2286" /> 
<circle cx="157.4817" cy="94.5475" r="0.2286" /> 
<circle cx="166.0522" cy="105.1750" r="0.2286" /> 
<circle cx="170.8522" cy="109.8750" r="0.2286" /> 
<circle cx="170.7522" cy="100.4750" r="0.2286" /> 
<circle cx="170.6642" cy="96.2800" r="0.2286" /> 
<circle cx="161.4022" cy="105.2000" r="0.2286" /> 
<circle cx="170.7522" cy="105.1750" r="0.2286" /> 
<circle cx="167.7272" cy="111.3750" r="0.2286" /> 
<circle cx="166.1272" cy="100.4750" r="0.2286" /> 
<circle cx="156.6522" cy="100.4750" r="0.2286" /> 
<circle cx="161.4022" cy="109.9000" r="0.2286" /> 
<circle cx="156.7022" cy="109.8750" r="0.2286" /> 
<circle cx="161.4022" cy="100.4750" r="0.2286" /> 
<circle cx="161.9212" cy="93.2900" r="0.2286" /> 
<circle cx="159.1532" cy="96.0470" r="0.2286" /> 
<circle cx="159.1532" cy="96.0470" r="0.2286" /> 
</g>
<g style="fill:none; 
stroke:#000000; stroke-width:0.1524; stroke-opacity:1; 
stroke-linecap:round; stroke-linejoin:round;">
<path d="M166.8522 101.8440
L165.9582 101.8440
" />
<path d="M165.9582 106.5440
L165.9522 106.5500
" />
<path d="M165.9582 101.8440
L165.9522 101.8500
" />
<path d="M156.5582 97.1440
L156.5522 97.1500
" />
<path d="M162.1522 97.1440
L162.1522 97.7000
" />
<path d="M157.4522 106.5440
L156.6082 106.5440
" />
<path d="M166.8522 111.2440
L166.0082 111.2440
" />
<path d="M170.7202 111.2320
L170.6522 111.3000
" />
<path d="M161.3082 111.2440
L161.3022 111.2500
" />
<path d="M171.5522 101.8440
L170.6582 101.8440
" />
<path d="M166.0082 111.2440
L166.0022 111.2500
" />
<path d="M165.9582 97.1440
L165.9522 97.1500
" />
<path d="M166.8522 106.5440
L165.9582 106.5440
" />
<path d="M162.1522 101.8440
L162.1522 102.4000
" />
<path d="M156.6082 106.5440
L156.6022 106.5500
" />
<path d="M156.5582 101.8440
L156.5522 101.8500
" />
<path d="M166.8522 97.1440
L165.9582 97.1440
" />
<path d="M157.4522 97.1440
L156.5582 97.1440
" />
<path d="M157.4522 101.8440
L156.5582 101.8440
" />
<path d="M170.6582 97.1440
L170.6522 97.1500
" />
<path d="M162.1522 111.2440
L161.3082 111.2440
" />
<path d="M171.5522 111.2320
L170.7202 111.2320
" />
<path d="M170.6582 101.8440
L170.6522 101.8500
" />
<path d="M170.6582 106.5440
L170.6522 106.5500
" />
<path d="M156.6082 111.2440
L156.6022 111.2500
" />
<path d="M162.1522 106.5440
L162.1522 107.1000
" />
<path d="M157.4522 111.2440
L156.6082 111.2440
" />
<path d="M171.5522 97.1440
L170.6582 97.1440
" />
<path d="M171.5522 106.5440
L170.6582 106.5440
" />
<path d="M157.1572 100.9800
L156.6522 100.4750
" />
<path d="M157.4522 100.9800
L157.1572 100.9800
" />
<path d="M171.2572 105.6800
L170.7522 105.1750
" />
<path d="M160.6722 96.5050
L161.4022 95.7750
" />
<path d="M171.3452 110.3680
L170.8522 109.8750
" />
<path d="M157.3072 96.5050
L160.6722 96.5050
" />
<path d="M170.8397 109.8875
L170.8522 109.8750
" />
<path d="M171.5522 110.3680
L171.3452 110.3680
" />
<path d="M161.4022 105.2000
L161.4022 100.4750
" />
<path d="M161.4022 109.9000
L156.7272 109.9000
" />
<path d="M167.7272 110.2000
L167.7272 111.3750
" />
<path d="M166.1272 100.4750
L170.7522 100.4750
" />
<path d="M162.1522 105.6800
L161.8822 105.6800
" />
<path d="M156.6272 105.2000
L156.6022 105.1750
" />
<path d="M161.9072 100.9800
L161.4022 100.4750
" />
<path d="M166.8522 105.6800
L166.5572 105.6800
" />
<path d="M161.4022 100.4750
L161.4022 95.7750
" />
<path d="M161.4022 100.4750
L156.6522 100.4750
" />
<path d="M166.0522 95.7750
L170.1592 95.7750
" />
<path d="M166.5572 96.2800
L166.0522 95.7750
" />
<path d="M161.4022 95.7750
L166.0522 95.7750
" />
<path d="M161.4022 105.2000
L166.0272 105.2000
" />
<path d="M166.8522 100.9800
L166.6322 100.9800
" />
<path d="M161.4022 109.9000
L166.0147 109.9000
" />
<path d="M166.6322 100.9800
L166.1272 100.4750
" />
<path d="M171.5522 105.6800
L171.2572 105.6800
" />
<path d="M166.5572 105.6800
L166.0522 105.1750
" />
<path d="M166.5197 110.3800
L166.0272 109.8875
" />
<path d="M157.4817 94.5475
L156.5772 95.4520
" />
<path d="M166.0272 109.8875
L167.4022 109.8875
" />
<path d="M161.4022 109.9000
L161.4022 105.2000
" />
<path d="M157.4522 105.6800
L157.1072 105.6800
" />
<path d="M161.4022 105.2000
L156.6272 105.2000
" />
<path d="M170.1592 95.7750
L170.6642 96.2800
" />
<path d="M161.8822 110.3800
L161.4022 109.9000
" />
<path d="M157.0822 96.2800
L157.4522 96.2800
" />
<path d="M161.4022 100.4750
L166.1272 100.4750
" />
<path d="M171.5522 100.9800
L171.2572 100.9800
" />
<path d="M157.1072 105.6800
L156.6022 105.1750
" />
<path d="M156.8757 96.0735
L157.0822 96.2800
" />
<path d="M156.5772 95.7750
L156.8757 96.0735
" />
<path d="M166.8522 110.3800
L166.5197 110.3800
" />
<path d="M167.4022 109.8875
L170.8397 109.8875
" />
<path d="M157.4522 110.3800
L157.2072 110.3800
" />
<path d="M156.8757 96.0735
L157.3072 96.5050
" />
<path d="M166.8522 96.2800
L166.5572 96.2800
" />
<path d="M166.0147 109.9000
L166.0272 109.8875
" />
<path d="M156.5772 95.4520
L156.5772 95.7750
" />
<path d="M171.2572 100.9800
L170.7522 100.4750
" />
<path d="M167.4022 109.8875
L167.4147 109.8875
" />
<path d="M162.1522 100.9800
L161.9072 100.9800
" />
<path d="M162.1522 110.3800
L161.8822 110.3800
" />
<path d="M167.4147 109.8875
L167.7272 110.2000
" />
<path d="M161.8822 105.6800
L161.4022 105.2000
" />
<path d="M157.2072 110.3800
L156.7022 109.8750
" />
<path d="M166.0522 105.1750
L170.7522 105.1750
" />
<path d="M161.9072 96.2800
L161.4022 95.7750
" />
<path d="M162.1522 96.2800
L161.9072 96.2800
" />
<path d="M166.0272 105.2000
L166.0522 105.1750
" />
<path d="M156.7272 109.9000
L156.7022 109.8750
" />
<path d="M170.6642 96.2800
L171.5522 96.2800
" />
<path d="M161.9212 93.2900
L161.8232 93.3880
" />
<path d="M161.8122 93.3880
L159.1532 96.0470
" />
<path d="M161.8232 93.3880
L161.8122 93.3880
" />
<path style="fill:#000000; fill-opacity:1.0000; stroke:none;fill-rule:evenodd;"
d="M 172.0412,91.2087
172.0322,91.2105
172.0322,91.2105
153.0291,91.2105
153.0083,91.2105
152.9961,91.2111
152.8389,91.2266
152.8150,91.2313
152.6697,91.2754
152.6472,91.2847
152.5132,91.3563
152.4930,91.3698
152.3756,91.4662
152.3584,91.4834
152.2620,91.6008
152.2485,91.6210
152.1769,91.7550
152.1676,91.7775
152.1235,91.9228
152.1188,91.9467
152.1033,92.1039
152.1027,92.1161
152.1027,113.0939
152.1033,113.1061
152.1188,113.2633
152.1235,113.2872
152.1676,113.4325
152.1769,113.4550
152.2485,113.5890
152.2620,113.6092
152.3584,113.7266
152.3756,113.7438
152.4930,113.8402
152.5132,113.8537
152.6472,113.9253
152.6697,113.9346
152.8150,113.9787
152.8389,113.9834
152.9548,113.9948
152.9961,113.9989
153.0083,113.9995
171.9961,113.9995
172.0083,113.9989
172.1655,113.9834
172.1894,113.9787
172.3347,113.9346
172.3572,113.9253
172.4912,113.8537
172.5114,113.8402
172.6288,113.7438
172.6460,113.7266
172.7424,113.6092
172.7559,113.5890
172.7677,113.5669
172.8275,113.4550
172.8368,113.4325
172.8809,113.2872
172.8856,113.2633
172.9011,113.1061
172.9017,113.0939
172.9017,113.0566
172.9017,113.0564
172.9024,111.5498
172.3522,111.5498
172.3458,111.6094
172.3458,111.6094
172.2956,111.7441
172.2956,111.7441
172.2094,111.8592
172.2094,111.8592
172.0943,111.9453
172.0943,111.9454
171.9596,111.9956
171.9596,111.9956
171.9000,112.0020
171.9000,112.0020
171.8022,112.0020
171.3022,112.0020
171.2044,112.0020
171.2044,112.0020
171.1448,111.9956
171.1448,111.9956
171.0101,111.9454
171.0101,111.9453
170.8950,111.8592
170.8950,111.8592
170.8088,111.7441
170.8088,111.7441
170.7586,111.6094
170.7586,111.6094
170.7522,111.5498
170.7522,111.5498
170.7522,111.4820
171.3022,111.4820
171.3022,112.0020
171.8022,112.0020
171.8022,111.4820
172.3522,111.4820
172.3522,111.5498
172.9024,111.5498
172.9025,111.4307
172.9028,110.8391
172.9047,106.8618
172.3522,106.8618
172.3458,106.9214
172.3458,106.9214
172.2956,107.0561
172.2956,107.0561
172.2094,107.1712
172.2094,107.1712
172.0943,107.2573
172.0943,107.2574
171.9596,107.3076
171.9596,107.3076
171.9000,107.3140
171.9000,107.3140
171.8022,107.3140
171.3022,107.3140
171.2044,107.3140
171.2044,107.3140
171.1448,107.3076
171.1448,107.3076
171.0101,107.2574
171.0101,107.2573
170.8950,107.1712
170.8950,107.1712
170.8088,107.0561
170.8088,107.0561
170.7586,106.9214
170.7586,106.9214
170.7522,106.8618
167.6522,106.8618
167.6458,106.9214
167.6458,106.9214
167.5956,107.0561
167.5956,107.0561
167.5094,107.1712
167.5094,107.1712
167.3943,107.2573
167.3943,107.2574
167.2596,107.3076
167.2596,107.3076
167.2000,107.3140
167.2000,107.3140
167.1022,107.3140
166.6022,107.3140
166.5044,107.3140
166.5044,107.3140
166.4448,107.3076
166.4448,107.3076
166.3101,107.2574
166.3101,107.2573
166.1950,107.1712
166.1950,107.1712
166.1088,107.0561
166.1088,107.0561
166.0586,106.9214
166.0586,106.9214
166.0522,106.8618
162.9522,106.8618
162.9458,106.9214
162.9458,106.9214
162.8956,107.0561
162.8956,107.0561
162.8094,107.1712
162.8094,107.1712
162.6943,107.2573
162.6943,107.2574
162.5596,107.3076
162.5596,107.3076
162.5000,107.3140
162.5000,107.3140
162.4022,107.3140
162.4022,106.7940
162.9522,106.7940
162.9522,106.8618
166.0522,106.8618
166.0522,106.8618
166.0522,106.7940
166.6022,106.7940
166.6022,107.3140
167.1022,107.3140
167.1022,106.7940
167.6522,106.7940
167.6522,106.8618
170.7522,106.8618
170.7522,106.8618
170.7522,106.7940
171.3022,106.7940
171.3022,107.3140
171.8022,107.3140
171.8022,106.7940
172.3522,106.7940
172.3522,106.8618
172.9047,106.8618
172.9069,102.1618
172.3522,102.1618
172.3458,102.2214
172.3458,102.2214
172.2956,102.3561
172.2956,102.3561
172.2094,102.4712
172.2094,102.4712
172.0943,102.5573
172.0943,102.5574
171.9596,102.6076
171.9596,102.6076
171.9000,102.6140
171.9000,102.6140
171.8022,102.6140
171.3022,102.6140
171.2044,102.6140
171.2044,102.6140
171.1448,102.6076
171.1448,102.6076
171.0101,102.5574
171.0101,102.5573
170.8950,102.4712
170.8950,102.4712
170.8088,102.3561
170.8088,102.3561
170.7586,102.2214
170.7586,102.2214
170.7522,102.1618
167.6522,102.1618
167.6458,102.2214
167.6458,102.2214
167.5956,102.3561
167.5956,102.3561
167.5094,102.4712
167.5094,102.4712
167.3943,102.5573
167.3943,102.5574
167.2596,102.6076
167.2596,102.6076
167.2000,102.6140
167.2000,102.6140
167.1022,102.6140
166.6022,102.6140
166.5044,102.6140
166.5044,102.6140
166.4448,102.6076
166.4448,102.6076
166.3101,102.5574
166.3101,102.5573
166.1950,102.4712
166.1950,102.4712
166.1088,102.3561
166.1088,102.3561
166.0586,102.2214
166.0586,102.2214
166.0522,102.1618
162.9522,102.1618
162.9458,102.2214
162.9458,102.2214
162.8956,102.3561
162.8956,102.3561
162.8094,102.4712
162.8094,102.4712
162.6943,102.5573
162.6943,102.5574
162.5596,102.6076
162.5596,102.6076
162.5000,102.6140
162.5000,102.6140
162.4022,102.6140
162.4022,102.0940
162.9522,102.0940
162.9522,102.1618
166.0522,102.1618
166.0522,102.1618
166.0522,102.0940
166.6022,102.0940
166.6022,102.6140
167.1022,102.6140
167.1022,102.0940
167.6522,102.0940
167.6522,102.1618
170.7522,102.1618
170.7522,102.1618
170.7522,102.0940
171.3022,102.0940
171.3022,102.6140
171.8022,102.6140
171.8022,102.0940
172.3522,102.0940
172.3522,102.1618
172.9069,102.1618
172.9091,97.4618
172.3522,97.4618
172.3458,97.5214
172.3458,97.5214
172.2956,97.6561
172.2956,97.6561
172.2094,97.7712
172.2094,97.7712
172.0943,97.8573
172.0943,97.8574
171.9596,97.9076
171.9596,97.9076
171.9000,97.9140
171.9000,97.9140
171.8022,97.9140
171.3022,97.9140
171.2044,97.9140
171.2044,97.9140
171.1448,97.9076
171.1448,97.9076
171.0101,97.8574
171.0101,97.8573
170.8950,97.7712
170.8950,97.7712
170.8088,97.6561
170.8088,97.6561
170.7586,97.5214
170.7586,97.5214
170.7522,97.4618
167.6522,97.4618
167.6458,97.5214
167.6458,97.5214
167.5956,97.6561
167.5956,97.6561
167.5094,97.7712
167.5094,97.7712
167.3943,97.8573
167.3943,97.8574
167.2596,97.9076
167.2596,97.9076
167.2000,97.9140
167.2000,97.9140
167.1022,97.9140
166.6022,97.9140
166.5044,97.9140
166.5044,97.9140
166.4448,97.9076
166.4448,97.9076
166.3101,97.8574
166.3101,97.8573
166.1950,97.7712
166.1950,97.7712
166.1088,97.6561
166.1088,97.6561
166.0586,97.5214
166.0586,97.5214
166.0522,97.4618
162.9522,97.4618
162.9458,97.5214
162.9458,97.5214
162.8956,97.6561
162.8956,97.6561
162.8094,97.7712
162.8094,97.7712
162.6943,97.8573
162.6943,97.8574
162.5596,97.9076
162.5596,97.9076
162.5000,97.9140
162.5000,97.9140
162.4022,97.9140
162.4022,97.3940
162.9522,97.3940
162.9522,97.4618
166.0522,97.4618
166.0522,97.4618
166.0522,97.3940
166.6022,97.3940
166.6022,97.9140
167.1022,97.9140
167.1022,97.3940
167.6522,97.3940
167.6522,97.4618
170.7522,97.4618
170.7522,97.4618
170.7522,97.3940
171.3022,97.3940
171.3022,97.9140
171.8022,97.9140
171.8022,97.3940
172.3522,97.3940
172.3522,97.4618
172.9091,97.4618
172.9099,95.9621
172.3527,95.9621
172.3527,95.9621
172.3527,95.9621
172.3527,96.5979
172.3527,96.5979
172.3463,96.6575
172.3419,96.6694
172.3369,96.7391
172.3419,96.7560
172.3458,96.7666
172.3458,96.7666
172.3522,96.8262
172.3522,96.8940
172.2691,96.8940
172.2021,96.9137
172.1948,96.9187
172.0963,96.9925
172.0945,96.9938
172.0945,96.9938
172.0535,97.0091
171.9597,97.0441
171.9001,97.0505
171.2043,97.0505
171.1447,97.0441
171.0099,96.9938
171.0081,96.9925
171.0060,96.9917
171.0021,96.9895
171.0018,96.9901
170.9426,96.9680
170.8863,96.9772
170.8769,96.9811
170.7360,97.0091
170.7360,97.0091
170.7360,97.0091
170.5924,97.0091
170.5924,97.0091
170.4515,96.9811
170.3188,96.9261
170.1994,96.8463
170.0979,96.7448
170.0181,96.6254
169.9631,96.4927
169.9351,96.3518
169.9351,96.2082
169.9351,96.2082
169.9586,96.0899
169.9524,96.0203
169.9095,95.9651
169.8437,95.9419
169.8370,95.9417
167.7767,95.9417
167.7097,95.9614
167.6639,96.0142
167.6527,96.0657
167.6527,96.5979
167.6527,96.5979
167.6463,96.6575
167.6419,96.6694
167.6369,96.7391
167.6419,96.7560
167.6458,96.7666
167.6458,96.7666
167.6522,96.8262
167.6522,96.8940
167.5691,96.8940
167.5021,96.9137
167.4948,96.9187
167.3963,96.9925
167.3945,96.9938
167.3945,96.9938
167.3535,97.0091
167.2597,97.0441
167.2001,97.0505
166.5043,97.0505
166.4447,97.0441
166.3099,96.9938
166.2096,96.9187
166.1441,96.8943
166.1353,96.8940
166.0522,96.8940
166.0522,96.8262
166.0522,96.8262
166.0586,96.7666
166.0625,96.7561
166.0683,96.6903
166.0664,96.6796
166.0581,96.6575
166.0522,96.6025
166.0514,96.5980
166.0376,96.5708
166.0260,96.5426
166.0220,96.5399
166.0199,96.5356
165.9936,96.5201
165.9686,96.5027
165.9604,96.5006
165.9597,96.5001
165.9589,96.5002
165.9536,96.4988
165.9187,96.4918
165.8395,96.4761
165.7068,96.4211
165.5874,96.3413
165.4859,96.2398
165.4061,96.1204
165.3638,96.0182
165.3199,95.9638
165.2536,95.9418
165.2492,95.9417
163.0767,95.9417
163.0097,95.9614
162.9639,96.0142
162.9527,96.0657
162.9527,96.5979
162.9527,96.5979
162.9463,96.6575
162.9419,96.6694
162.9369,96.7391
162.9419,96.7560
162.9458,96.7666
162.9458,96.7666
162.9522,96.8262
162.9522,96.8940
162.8691,96.8940
162.8021,96.9137
162.7948,96.9187
162.6963,96.9925
162.6945,96.9938
162.6945,96.9938
162.6535,97.0091
162.5597,97.0441
162.5001,97.0505
161.8043,97.0505
161.7447,97.0441
161.7362,97.0409
161.7056,97.0387
161.6753,97.0344
161.6711,97.0363
161.6665,97.0359
161.6396,97.0506
161.6117,97.0634
161.6092,97.0672
161.6052,97.0694
161.5905,97.0964
161.5739,97.1222
161.5730,97.1284
161.5717,97.1307
161.5689,97.1571
161.5689,97.2700
161.5886,97.3370
161.6414,97.3828
161.6929,97.3940
161.9022,97.3940
161.9022,97.9140
161.8044,97.9140
161.8044,97.9140
161.7448,97.9076
161.7448,97.9076
161.7362,97.9044
161.6665,97.8994
161.6052,97.9329
161.5717,97.9942
161.5689,98.0206
161.5689,99.6720
161.5886,99.7391
161.6414,99.7848
161.6454,99.7866
161.7476,99.8289
161.7476,99.8289
161.8670,99.9087
161.8670,99.9087
161.9685,100.0102
161.9685,100.0102
162.0483,100.1296
162.0483,100.1296
162.0497,100.1330
162.0509,100.1344
162.0512,100.1350
162.0513,100.1350
162.0935,100.1874
162.1598,100.2094
162.1643,100.2095
162.5001,100.2095
162.5001,100.2095
162.5597,100.2159
162.6945,100.2662
162.6945,100.2662
162.7177,100.2836
162.7832,100.3080
162.7920,100.3083
165.3242,100.3083
165.3913,100.2886
165.4370,100.2358
165.4388,100.2318
165.4811,100.1296
165.4811,100.1296
165.5609,100.0102
165.5609,100.0102
165.6624,99.9087
165.6624,99.9087
165.7818,99.8289
165.7818,99.8289
165.9145,99.7739
165.9145,99.7739
166.0554,99.7459
166.0554,99.7459
166.1990,99.7459
166.1990,99.7459
166.3399,99.7739
166.3399,99.7739
166.4726,99.8289
166.4726,99.8289
166.5920,99.9087
166.5920,99.9087
166.6935,100.0102
166.6935,100.0102
166.7733,100.1296
166.7733,100.1296
166.7747,100.1330
166.7759,100.1344
166.7762,100.1350
166.7763,100.1350
166.8185,100.1874
166.8848,100.2094
166.8893,100.2095
167.2001,100.2095
167.2001,100.2095
167.2597,100.2159
167.3945,100.2662
167.3945,100.2662
167.4177,100.2836
167.4832,100.3080
167.4920,100.3083
169.9492,100.3083
170.0163,100.2886
170.0620,100.2358
170.0638,100.2318
170.1061,100.1296
170.1061,100.1296
170.1859,100.0102
170.1859,100.0102
170.2874,99.9087
170.2874,99.9087
170.4068,99.8289
170.4068,99.8289
170.5395,99.7739
170.5395,99.7739
170.6804,99.7459
170.6804,99.7459
170.8240,99.7459
170.8240,99.7459
170.9649,99.7739
170.9649,99.7739
171.0976,99.8289
171.0976,99.8289
171.2170,99.9087
171.2170,99.9087
171.3185,100.0102
171.3185,100.0102
171.3983,100.1296
171.3983,100.1296
171.3997,100.1330
171.4009,100.1344
171.4012,100.1350
171.4013,100.1350
171.4435,100.1874
171.5098,100.2094
171.5143,100.2095
171.9001,100.2095
171.9001,100.2095
171.9597,100.2159
172.0945,100.2662
172.0945,100.2662
172.2097,100.3525
172.2097,100.3525
172.2960,100.4677
172.2960,100.4677
172.3463,100.6025
172.3463,100.6025
172.3527,100.6621
172.3527,100.6621
172.3527,100.6621
172.3527,101.2979
172.3527,101.2979
172.3463,101.3575
172.3419,101.3694
172.3369,101.4391
172.3419,101.4560
172.3458,101.4666
172.3458,101.4666
172.3522,101.5262
172.3522,101.5940
172.2691,101.5940
172.2021,101.6137
172.1948,101.6187
172.0945,101.6938
172.0945,101.6938
172.0496,101.7106
171.9597,101.7441
171.9001,101.7505
171.2043,101.7505
171.1447,101.7441
171.0099,101.6938
170.9096,101.6187
170.8441,101.5943
170.8353,101.5940
170.7522,101.5940
170.7522,101.5262
170.7522,101.5262
170.7586,101.4666
170.7625,101.4561
170.7683,101.3903
170.7664,101.3796
170.7581,101.3575
170.7522,101.3025
170.7514,101.2980
170.7376,101.2708
170.7260,101.2426
170.7220,101.2399
170.7199,101.2356
170.6936,101.2201
170.6686,101.2027
170.6604,101.2006
170.6597,101.2001
170.6589,101.2002
170.6536,101.1988
170.6084,101.1898
170.5395,101.1761
170.4068,101.1211
170.2874,101.0413
170.1859,100.9398
170.1061,100.8204
170.0638,100.7182
170.0199,100.6638
169.9536,100.6418
169.9492,100.6417
167.7767,100.6417
167.7097,100.6614
167.6639,100.7142
167.6527,100.7657
167.6527,101.2979
167.6527,101.2979
167.6463,101.3575
167.6419,101.3694
167.6369,101.4391
167.6419,101.4560
167.6458,101.4666
167.6458,101.4666
167.6522,101.5262
167.6522,101.5940
167.5691,101.5940
167.5021,101.6137
167.4948,101.6187
167.3945,101.6938
167.3945,101.6938
167.3496,101.7106
167.2597,101.7441
167.2001,101.7505
166.5043,101.7505
166.4447,101.7441
166.3099,101.6938
166.2096,101.6187
166.1441,101.5943
166.1353,101.5940
166.0522,101.5940
166.0522,101.5262
166.0522,101.5262
166.0586,101.4666
166.0625,101.4561
166.0686,101.3917
166.0666,101.3803
166.0581,101.3575
166.0517,101.2979
166.0517,101.2934
166.0501,101.2842
166.0378,101.2591
166.0285,101.2327
166.0226,101.2281
166.0194,101.2215
165.9954,101.2070
165.9733,101.1898
165.9611,101.1862
165.9596,101.1853
165.9582,101.1853
165.9521,101.1836
165.9145,101.1761
165.7818,101.1211
165.6624,101.0413
165.5609,100.9398
165.4811,100.8204
165.4388,100.7182
165.3949,100.6638
165.3286,100.6418
165.3242,100.6417
163.0767,100.6417
163.0097,100.6614
162.9639,100.7142
162.9527,100.7657
162.9527,101.2979
162.9527,101.2979
162.9463,101.3575
162.9419,101.3694
162.9369,101.4391
162.9419,101.4560
162.9458,101.4666
162.9458,101.4666
162.9522,101.5262
162.9522,101.5940
162.8691,101.5940
162.8021,101.6137
162.7948,101.6187
162.6945,101.6938
162.6945,101.6938
162.6496,101.7106
162.5597,101.7441
162.5001,101.7505
161.8043,101.7505
161.7447,101.7441
161.7362,101.7409
161.7056,101.7387
161.6753,101.7344
161.6711,101.7363
161.6665,101.7359
161.6396,101.7506
161.6117,101.7634
161.6092,101.7672
161.6052,101.7694
161.5905,101.7964
161.5739,101.8222
161.5730,101.8284
161.5717,101.8307
161.5689,101.8571
161.5689,101.9700
161.5886,102.0370
161.6414,102.0828
161.6929,102.0940
161.9022,102.0940
161.9022,102.6140
161.8044,102.6140
161.8044,102.6140
161.7448,102.6076
161.7448,102.6076
161.7362,102.6044
161.6665,102.5994
161.6052,102.6329
161.5717,102.6942
161.5689,102.7206
161.5689,104.3970
161.5886,104.4641
161.6414,104.5098
161.6454,104.5116
161.7476,104.5539
161.7476,104.5539
161.8670,104.6337
161.8670,104.6337
161.9685,104.7352
161.9685,104.7352
162.0482,104.8544
162.1018,104.8992
162.1513,104.9095
162.5001,104.9095
162.5001,104.9095
162.5597,104.9159
162.6945,104.9662
162.6945,104.9662
162.7511,105.0086
162.8166,105.0330
162.8254,105.0333
165.2389,105.0333
165.3059,105.0136
165.3517,104.9608
165.3534,104.9568
165.4061,104.8296
165.4061,104.8296
165.4859,104.7102
165.4859,104.7102
165.5874,104.6087
165.5874,104.6087
165.7068,104.5289
165.7068,104.5289
165.8395,104.4739
165.8395,104.4739
165.9804,104.4459
165.9804,104.4459
166.1240,104.4459
166.1240,104.4459
166.2649,104.4739
166.2649,104.4739
166.3976,104.5289
166.3976,104.5289
166.5170,104.6087
166.5170,104.6087
166.6185,104.7102
166.6185,104.7102
166.6983,104.8296
166.6983,104.8296
166.6997,104.8330
166.7009,104.8344
166.7012,104.8350
166.7013,104.8350
166.7435,104.8874
166.8098,104.9094
166.8143,104.9095
167.2001,104.9095
167.2001,104.9095
167.2597,104.9159
167.3945,104.9662
167.3945,104.9662
167.4177,104.9836
167.4832,105.0080
167.4920,105.0083
169.9492,105.0083
170.0163,104.9886
170.0620,104.9358
170.0638,104.9318
170.1061,104.8296
170.1061,104.8296
170.1859,104.7102
170.1859,104.7102
170.2874,104.6087
170.2874,104.6087
170.4068,104.5289
170.4068,104.5289
170.5395,104.4739
170.5395,104.4739
170.6804,104.4459
170.6804,104.4459
170.8240,104.4459
170.8240,104.4459
170.9649,104.4739
170.9649,104.4739
171.0976,104.5289
171.0976,104.5289
171.2170,104.6087
171.2170,104.6087
171.3185,104.7102
171.3185,104.7102
171.3983,104.8296
171.3983,104.8296
171.3997,104.8330
171.4009,104.8344
171.4012,104.8350
171.4013,104.8350
171.4435,104.8874
171.5098,104.9094
171.5143,104.9095
171.9001,104.9095
171.9001,104.9095
171.9597,104.9159
172.0945,104.9662
172.0945,104.9662
172.2097,105.0525
172.2097,105.0525
172.2960,105.1677
172.2960,105.1677
172.3463,105.3025
172.3463,105.3025
172.3527,105.3621
172.3527,105.3621
172.3527,105.3621
172.3527,105.9979
172.3527,105.9979
172.3463,106.0575
172.3419,106.0694
172.3369,106.1391
172.3419,106.1560
172.3458,106.1666
172.3458,106.1666
172.3522,106.2262
172.3522,106.2940
172.2691,106.2940
172.2021,106.3137
172.1948,106.3187
172.0945,106.3938
172.0945,106.3938
172.0496,106.4106
171.9597,106.4441
171.9001,106.4505
171.2043,106.4505
171.1447,106.4441
171.0099,106.3938
170.9096,106.3187
170.8441,106.2943
170.8353,106.2940
170.7522,106.2940
170.7522,106.2262
170.7522,106.2262
170.7586,106.1666
170.7625,106.1561
170.7683,106.0903
170.7664,106.0796
170.7581,106.0575
170.7522,106.0025
170.7514,105.9980
170.7376,105.9708
170.7260,105.9426
170.7220,105.9399
170.7199,105.9356
170.6936,105.9201
170.6686,105.9027
170.6604,105.9006
170.6597,105.9001
170.6589,105.9002
170.6536,105.8988
170.6104,105.8902
170.5395,105.8761
170.4068,105.8211
170.2874,105.7413
170.1859,105.6398
170.1061,105.5204
170.0638,105.4182
170.0199,105.3638
169.9536,105.3418
169.9492,105.3417
167.7767,105.3417
167.7097,105.3614
167.6639,105.4142
167.6527,105.4657
167.6527,105.9979
167.6527,105.9979
167.6463,106.0575
167.6419,106.0694
167.6369,106.1391
167.6419,106.1560
167.6458,106.1666
167.6458,106.1666
167.6522,106.2262
167.6522,106.2940
167.5691,106.2940
167.5021,106.3137
167.4948,106.3187
167.3945,106.3938
167.3945,106.3938
167.3496,106.4106
167.2597,106.4441
167.2001,106.4505
166.5043,106.4505
166.4447,106.4441
166.3099,106.3938
166.2096,106.3187
166.1441,106.2943
166.1353,106.2940
166.0522,106.2940
166.0522,106.2262
166.0522,106.2262
166.0586,106.1666
166.0625,106.1561
166.0683,106.0903
166.0664,106.0796
166.0581,106.0575
166.0522,106.0025
166.0514,105.9980
166.0376,105.9708
166.0260,105.9426
166.0220,105.9399
166.0199,105.9356
165.9936,105.9201
165.9686,105.9027
165.9604,105.9006
165.9597,105.9001
165.9589,105.9002
165.9536,105.8988
165.9104,105.8902
165.8395,105.8761
165.7068,105.8211
165.5874,105.7413
165.4859,105.6398
165.4061,105.5204
165.3741,105.4432
165.3303,105.3888
165.2640,105.3668
165.2596,105.3667
163.0767,105.3667
163.0097,105.3864
162.9639,105.4392
162.9527,105.4907
162.9527,105.9979
162.9527,105.9979
162.9463,106.0575
162.9419,106.0694
162.9369,106.1391
162.9419,106.1560
162.9458,106.1666
162.9458,106.1666
162.9522,106.2262
162.9522,106.2940
162.8691,106.2940
162.8021,106.3137
162.7948,106.3187
162.6945,106.3938
162.6945,106.3938
162.6496,106.4106
162.5597,106.4441
162.5001,106.4505
161.8043,106.4505
161.7447,106.4441
161.7362,106.4409
161.7056,106.4387
161.6753,106.4344
161.6711,106.4363
161.6665,106.4359
161.6396,106.4506
161.6117,106.4634
161.6092,106.4672
161.6052,106.4694
161.5905,106.4964
161.5739,106.5222
161.5730,106.5284
161.5717,106.5307
161.5689,106.5571
161.5689,106.6700
161.5886,106.7370
161.6414,106.7828
161.6929,106.7940
161.9022,106.7940
161.9022,107.3140
161.8044,107.3140
161.8044,107.3140
161.7448,107.3076
161.7448,107.3076
161.7362,107.3044
161.6665,107.2994
161.6052,107.3329
161.5717,107.3942
161.5689,107.4206
161.5689,109.0970
161.5886,109.1641
161.6414,109.2098
161.6454,109.2116
161.7476,109.2539
161.7476,109.2539
161.8670,109.3337
161.8670,109.3337
161.9685,109.4352
161.9685,109.4352
162.0482,109.5544
162.1018,109.5992
162.1513,109.6095
162.5001,109.6095
162.5001,109.6095
162.5597,109.6159
162.6945,109.6662
162.6945,109.6662
162.7511,109.7086
162.8166,109.7330
162.8254,109.7333
165.2190,109.7333
165.2861,109.7136
165.3318,109.6608
165.3336,109.6568
165.3647,109.5818
165.3811,109.5421
165.3811,109.5421
165.3811,109.5421
165.4609,109.4227
165.4609,109.4227
165.5624,109.3212
165.5624,109.3212
165.6818,109.2414
165.6818,109.2414
165.8145,109.1864
165.8145,109.1864
165.9554,109.1584
165.9554,109.1584
166.0990,109.1584
166.0990,109.1584
166.2399,109.1864
166.2399,109.1864
166.3726,109.2414
166.3726,109.2414
166.4920,109.3212
166.4920,109.3212
166.5935,109.4227
166.5935,109.4227
166.6733,109.5421
166.6743,109.5440
166.6750,109.5447
166.6767,109.5472
166.6772,109.5469
166.7233,109.5938
166.7836,109.6095
167.2001,109.6095
167.2001,109.6095
167.2597,109.6159
167.3945,109.6662
167.3945,109.6662
167.4344,109.6961
167.4999,109.7205
167.5087,109.7208
170.0440,109.7208
170.1111,109.7011
170.1568,109.6483
170.1586,109.6443
170.1989,109.5469
170.2061,109.5296
170.2061,109.5296
170.2061,109.5296
170.2859,109.4102
170.2859,109.4102
170.3874,109.3087
170.3874,109.3087
170.5068,109.2289
170.5068,109.2289
170.6395,109.1739
170.6395,109.1739
170.7804,109.1459
170.7804,109.1459
170.9240,109.1459
170.9240,109.1459
171.0649,109.1739
171.0649,109.1739
171.1976,109.2289
171.1976,109.2289
171.3170,109.3087
171.3170,109.3087
171.4185,109.4102
171.4983,109.5297
171.4996,109.5320
171.5005,109.5329
171.5017,109.5347
171.5020,109.5345
171.5485,109.5818
171.6089,109.5975
171.9001,109.5975
171.9001,109.5975
171.9597,109.6039
172.0945,109.6542
172.0945,109.6542
172.2097,109.7405
172.2097,109.7405
172.2960,109.8557
172.2960,109.8557
172.3463,109.9905
172.3463,109.9905
172.3527,110.0501
172.3527,110.0501
172.3527,110.0501
172.3527,110.6859
172.3527,110.6859
172.3463,110.7455
172.3419,110.7574
172.3369,110.8271
172.3419,110.8440
172.3458,110.8546
172.3458,110.8546
172.3522,110.9142
172.3522,110.9820
172.2691,110.9820
172.2021,111.0017
172.1948,111.0067
172.0945,111.0818
172.0945,111.0818
172.0624,111.0938
171.9597,111.1321
171.9001,111.1385
171.2043,111.1385
171.1447,111.1321
171.0099,111.0818
170.9096,111.0067
170.8441,110.9823
170.8353,110.9820
170.7522,110.9820
170.7522,110.9142
170.7522,110.9142
170.7586,110.8546
170.7625,110.8441
170.7685,110.7790
170.7665,110.7679
170.7581,110.7455
170.7517,110.6859
170.7517,110.6847
170.7506,110.6786
170.7369,110.6510
170.7251,110.6225
170.7215,110.6200
170.7195,110.6161
170.6930,110.6003
170.6677,110.5827
170.6603,110.5807
170.6595,110.5803
170.6587,110.5803
170.6527,110.5787
170.6395,110.5761
170.5068,110.5211
170.3874,110.4413
170.2859,110.3398
170.2061,110.2204
170.1938,110.1907
170.1690,110.1307
170.1251,110.0763
170.0588,110.0543
170.0544,110.0542
168.0179,110.0542
167.9509,110.0739
167.9051,110.1267
167.8939,110.1782
167.8939,110.5720
167.9136,110.6391
167.9664,110.6848
167.9704,110.6866
168.0726,110.7289
168.0726,110.7289
168.1920,110.8087
168.1920,110.8087
168.2935,110.9102
168.2935,110.9102
168.3733,111.0296
168.3733,111.0296
168.4283,111.1623
168.4283,111.1623
168.4563,111.3032
168.4563,111.4468
168.4283,111.5877
168.4283,111.5877
168.3733,111.7204
168.3733,111.7204
168.2935,111.8398
168.2935,111.8398
168.1920,111.9413
168.1920,111.9413
168.0726,112.0211
168.0726,112.0211
168.0726,112.0211
167.9399,112.0761
167.7990,112.1041
167.7990,112.1041
167.7990,112.1041
167.6554,112.1041
167.6554,112.1041
167.5145,112.0761
167.3818,112.0211
167.3778,112.0184
167.3112,111.9976
167.2656,112.0054
167.2596,112.0076
167.2596,112.0076
167.2000,112.0140
167.2000,112.0140
167.1022,112.0140
166.6022,112.0140
166.5044,112.0140
166.5044,112.0140
166.4448,112.0076
166.4448,112.0076
166.3101,111.9574
166.3101,111.9573
166.1950,111.8712
166.1950,111.8712
166.1088,111.7561
166.1088,111.7561
166.0586,111.6214
166.0586,111.6214
166.0522,111.5618
162.9522,111.5618
162.9458,111.6214
162.9458,111.6214
162.8956,111.7561
162.8956,111.7561
162.8094,111.8712
162.8094,111.8712
162.6943,111.9573
162.6943,111.9574
162.5596,112.0076
162.5596,112.0076
162.5000,112.0140
162.5000,112.0140
162.4022,112.0140
161.9022,112.0140
161.8044,112.0140
161.8044,112.0140
161.7448,112.0076
161.7448,112.0076
161.6101,111.9574
161.6101,111.9573
161.4950,111.8712
161.4950,111.8712
161.4089,111.7561
161.4088,111.7561
161.3586,111.6214
161.3586,111.6214
161.3522,111.5618
158.2522,111.5618
158.2458,111.6214
158.2458,111.6214
158.1956,111.7561
158.1956,111.7561
158.1094,111.8712
158.1094,111.8712
157.9943,111.9573
157.9943,111.9574
157.8596,112.0076
157.8596,112.0076
157.8000,112.0140
157.8000,112.0140
157.7022,112.0140
157.2022,112.0140
157.1044,112.0140
157.1044,112.0140
157.0448,112.0076
157.0448,112.0076
156.9101,111.9574
156.9101,111.9573
156.7950,111.8712
156.7950,111.8712
156.7088,111.7561
156.7088,111.7561
156.6586,111.6214
156.6586,111.6214
156.6522,111.5618
156.6522,111.5618
156.6522,111.4940
157.2022,111.4940
157.2022,112.0140
157.7022,112.0140
157.7022,111.4940
158.2522,111.4940
158.2522,111.5618
161.3522,111.5618
161.3522,111.5618
161.3522,111.4940
161.9022,111.4940
161.9022,112.0140
162.4022,112.0140
162.4022,111.4940
162.9522,111.4940
162.9522,111.5618
166.0522,111.5618
166.0522,111.5618
166.0522,111.4940
166.6022,111.4940
166.6022,112.0140
167.1022,112.0140
167.1022,111.7896
167.0835,111.7260
167.0839,111.7257
167.0828,111.7237
167.0825,111.7225
167.0813,111.7207
167.0811,111.7204
167.0261,111.5877
166.9981,111.4468
166.9981,111.3680
166.9784,111.3010
166.9256,111.2552
166.8741,111.2440
166.8522,111.2440
166.8395,111.2313
166.8325,111.2075
166.7797,111.1617
166.7282,111.1505
166.5043,111.1505
166.5043,111.1505
166.4447,111.1441
166.3099,111.0938
166.2096,111.0187
166.1441,110.9943
166.1353,110.9940
166.0522,110.9940
166.0522,110.9262
166.0522,110.9262
166.0586,110.8666
166.0625,110.8561
166.0679,110.7882
166.0660,110.7786
166.0581,110.7575
166.0540,110.7193
166.0529,110.7137
166.0392,110.6876
166.0279,110.6604
166.0230,110.6571
166.0203,110.6519
165.9947,110.6374
165.9705,110.6206
165.9601,110.6178
165.9595,110.6175
165.9589,110.6175
165.9555,110.6166
165.9554,110.6166
165.9554,110.6166
165.8145,110.5886
165.6818,110.5336
165.5624,110.4538
165.4609,110.3523
165.3811,110.2329
165.3759,110.2204
165.3440,110.1432
165.3001,110.0888
165.2338,110.0668
165.2294,110.0667
163.0767,110.0667
163.0097,110.0864
162.9639,110.1392
162.9527,110.1907
162.9527,110.6979
162.9527,110.6979
162.9463,110.7575
162.9419,110.7694
162.9369,110.8391
162.9419,110.8560
162.9458,110.8666
162.9458,110.8666
162.9522,110.9262
162.9522,110.9940
162.8691,110.9940
162.8021,111.0137
162.7948,111.0187
162.6945,111.0938
162.6945,111.0938
162.6496,111.1106
162.5597,111.1441
162.5001,111.1505
161.8043,111.1505
161.7447,111.1441
161.6099,111.0938
161.5096,111.0187
161.4441,110.9943
161.4353,110.9940
161.3522,110.9940
161.3522,110.9262
161.3522,110.9262
161.3586,110.8666
161.3625,110.8561
161.3680,110.7885
161.3660,110.7787
161.3581,110.7575
161.3538,110.7170
161.3527,110.7116
161.3390,110.6853
161.3276,110.6580
161.3229,110.6547
161.3203,110.6497
161.2946,110.6350
161.2702,110.6181
161.2602,110.6155
161.2596,110.6151
161.2589,110.6151
161.2553,110.6142
161.1895,110.6011
161.0568,110.5461
160.9374,110.4663
160.8359,110.3648
160.7561,110.2454
160.7138,110.1432
160.6699,110.0888
160.6036,110.0668
160.5992,110.0667
158.3767,110.0667
158.3097,110.0864
158.2639,110.1392
158.2527,110.1907
158.2527,110.6979
158.2527,110.6979
158.2463,110.7575
158.2419,110.7694
158.2369,110.8391
158.2419,110.8560
158.2458,110.8666
158.2458,110.8666
158.2522,110.9262
158.2522,110.9940
158.1691,110.9940
158.1021,111.0137
158.0948,111.0187
157.9945,111.0938
157.9945,111.0938
157.9496,111.1106
157.8597,111.1441
157.8001,111.1505
157.1043,111.1505
157.0447,111.1441
156.9099,111.0938
156.8096,111.0187
156.7441,110.9943
156.7353,110.9940
156.6522,110.9940
156.6522,110.9262
156.6522,110.9262
156.6586,110.8666
156.6625,110.8561
156.6685,110.7912
156.6665,110.7800
156.6581,110.7575
156.6517,110.6979
156.6517,110.6959
156.6504,110.6887
156.6367,110.6610
156.6249,110.6324
156.6213,110.6300
156.6194,110.6261
156.5929,110.6102
156.5675,110.5926
156.5602,110.5907
156.5595,110.5902
156.5586,110.5902
156.5525,110.5886
156.5317,110.5845
156.4895,110.5761
156.3568,110.5211
156.2374,110.4413
156.1359,110.3398
156.0561,110.2204
156.0011,110.0877
155.9731,109.9468
155.9731,109.8032
155.9731,109.8032
155.9731,109.8032
155.9856,109.7405
156.0011,109.6623
156.0457,109.5546
156.0561,109.5296
156.0561,109.5296
156.1359,109.4102
156.1359,109.4102
156.2374,109.3087
156.2374,109.3087
156.3568,109.2289
156.3568,109.2289
156.4895,109.1739
156.4895,109.1739
156.6304,109.1459
156.6304,109.1459
156.7740,109.1459
156.7740,109.1459
156.9149,109.1739
156.9149,109.1739
157.0476,109.2289
157.0476,109.2289
157.1670,109.3087
157.1670,109.3087
157.2685,109.4102
157.2685,109.4102
157.3483,109.5296
157.3483,109.5296
157.3497,109.5330
157.3509,109.5344
157.3512,109.5350
157.3513,109.5350
157.3935,109.5874
157.4598,109.6094
157.4643,109.6095
157.8001,109.6095
157.8001,109.6095
157.8597,109.6159
157.9945,109.6662
157.9945,109.6662
158.0511,109.7086
158.1166,109.7330
158.1254,109.7333
160.5992,109.7333
160.6663,109.7136
160.7120,109.6608
160.7138,109.6568
160.7561,109.5546
160.7561,109.5546
160.8359,109.4352
160.8359,109.4352
160.9374,109.3337
160.9374,109.3337
161.0568,109.2539
161.0568,109.2539
161.1590,109.2116
161.2134,109.1677
161.2354,109.1014
161.2355,109.0970
161.2355,106.8618
158.2522,106.8618
158.2458,106.9214
158.2458,106.9214
158.1956,107.0561
158.1956,107.0561
158.1094,107.1712
158.1094,107.1712
157.9943,107.2573
157.9943,107.2574
157.8596,107.3076
157.8596,107.3076
157.8000,107.3140
157.8000,107.3140
157.7022,107.3140
157.2022,107.3140
157.1044,107.3140
157.1044,107.3140
157.0448,107.3076
157.0448,107.3076
156.9101,107.2574
156.9101,107.2573
156.7950,107.1712
156.7950,107.1712
156.7088,107.0561
156.7088,107.0561
156.6586,106.9214
156.6586,106.9214
156.6522,106.8618
156.6522,106.8618
156.6522,106.7940
157.2022,106.7940
157.2022,107.3140
157.7022,107.3140
157.7022,106.7940
158.2522,106.7940
158.2522,106.8618
161.2355,106.8618
161.2355,106.0030
161.2158,105.9359
161.1630,105.8902
161.1590,105.8884
161.0568,105.8461
160.9374,105.7663
160.8359,105.6648
160.7561,105.5454
160.7138,105.4432
160.6699,105.3888
160.6036,105.3668
160.5992,105.3667
158.3767,105.3667
158.3097,105.3864
158.2639,105.4392
158.2527,105.4907
158.2527,105.9979
158.2527,105.9979
158.2463,106.0575
158.2419,106.0694
158.2369,106.1391
158.2419,106.1560
158.2458,106.1666
158.2458,106.1666
158.2522,106.2262
158.2522,106.2940
158.1691,106.2940
158.1021,106.3137
158.0948,106.3187
157.9945,106.3938
157.9945,106.3938
157.9496,106.4106
157.8597,106.4441
157.8001,106.4505
157.1043,106.4505
157.0447,106.4441
156.9099,106.3938
156.8096,106.3187
156.7441,106.2943
156.7353,106.2940
156.6522,106.2940
156.6522,106.2262
156.6522,106.2262
156.6586,106.1666
156.6625,106.1561
156.6682,106.0895
156.6662,106.0792
156.6581,106.0575
156.6530,106.0098
156.6520,106.0049
156.6383,105.9781
156.6268,105.9503
156.6225,105.9473
156.6202,105.9427
156.5941,105.9276
156.5694,105.9104
156.5626,105.9093
156.5597,105.9077
156.5538,105.9079
156.5364,105.9051
156.5365,105.9047
156.5304,105.9041
156.5304,105.9041
156.3895,105.8761
156.2568,105.8211
156.1374,105.7413
156.0359,105.6398
155.9561,105.5204
155.9011,105.3877
155.8731,105.2468
155.8731,105.1032
155.8731,105.1032
155.8731,105.1032
155.8832,105.0525
155.9011,104.9623
155.9457,104.8546
155.9561,104.8296
155.9561,104.8296
156.0359,104.7102
156.0359,104.7102
156.1374,104.6087
156.1374,104.6087
156.2568,104.5289
156.2568,104.5289
156.3895,104.4739
156.3895,104.4739
156.5304,104.4459
156.5304,104.4459
156.6740,104.4459
156.6740,104.4459
156.8149,104.4739
156.8149,104.4739
156.9476,104.5289
156.9476,104.5289
157.0670,104.6087
157.0670,104.6087
157.1685,104.7102
157.1685,104.7102
157.2483,104.8296
157.2483,104.8296
157.2497,104.8330
157.2509,104.8344
157.2512,104.8350
157.2513,104.8350
157.2935,104.8874
157.3598,104.9094
157.3643,104.9095
157.8001,104.9095
157.8001,104.9095
157.8597,104.9159
157.9945,104.9662
157.9945,104.9662
158.0511,105.0086
158.1166,105.0330
158.1254,105.0333
160.5992,105.0333
160.6663,105.0136
160.7120,104.9608
160.7138,104.9568
160.7561,104.8546
160.7561,104.8546
160.8359,104.7352
160.8359,104.7352
160.9374,104.6337
160.9374,104.6337
161.0568,104.5539
161.0568,104.5539
161.1590,104.5116
161.2134,104.4677
161.2354,104.4014
161.2355,104.3970
161.2355,102.1618
158.2522,102.1618
158.2458,102.2214
158.2458,102.2214
158.1956,102.3561
158.1956,102.3561
158.1094,102.4712
158.1094,102.4712
157.9943,102.5573
157.9943,102.5574
157.8596,102.6076
157.8596,102.6076
157.8000,102.6140
157.8000,102.6140
157.7022,102.6140
157.2022,102.6140
157.1044,102.6140
157.1044,102.6140
157.0448,102.6076
157.0448,102.6076
156.9101,102.5574
156.9101,102.5573
156.7950,102.4712
156.7950,102.4712
156.7088,102.3561
156.7088,102.3561
156.6586,102.2214
156.6586,102.2214
156.6522,102.1618
156.6522,102.1618
156.6522,102.0940
157.2022,102.0940
157.2022,102.6140
157.7022,102.6140
157.7022,102.0940
158.2522,102.0940
158.2522,102.1618
161.2355,102.1618
161.2355,101.2780
161.2158,101.2109
161.1630,101.1652
161.1590,101.1634
161.0568,101.1211
160.9374,101.0413
160.8359,100.9398
160.7561,100.8204
160.7138,100.7182
160.6699,100.6638
160.6036,100.6418
160.5992,100.6417
158.3767,100.6417
158.3097,100.6614
158.2639,100.7142
158.2527,100.7657
158.2527,101.2979
158.2527,101.2979
158.2463,101.3575
158.2419,101.3694
158.2369,101.4391
158.2419,101.4560
158.2458,101.4666
158.2458,101.4666
158.2522,101.5262
158.2522,101.5940
158.1691,101.5940
158.1021,101.6137
158.0948,101.6187
157.9945,101.6938
157.9945,101.6938
157.9496,101.7106
157.8597,101.7441
157.8001,101.7505
157.1043,101.7505
157.0447,101.7441
156.9099,101.6938
156.8096,101.6187
156.7441,101.5943
156.7353,101.5940
156.6522,101.5940
156.6522,101.5262
156.6522,101.5262
156.6586,101.4666
156.6625,101.4561
156.6683,101.3903
156.6664,101.3796
156.6581,101.3575
156.6522,101.3025
156.6514,101.2980
156.6376,101.2708
156.6260,101.2426
156.6220,101.2399
156.6199,101.2356
156.5936,101.2201
156.5686,101.2027
156.5604,101.2006
156.5597,101.2001
156.5589,101.2002
156.5536,101.1988
156.5084,101.1898
156.4395,101.1761
156.3068,101.1211
156.1874,101.0413
156.0859,100.9398
156.0061,100.8204
155.9511,100.6877
155.9231,100.5468
155.9231,100.4032
155.9231,100.4032
155.9231,100.4032
155.9332,100.3525
155.9511,100.2623
156.0039,100.1350
156.0061,100.1296
156.0061,100.1296
156.0859,100.0102
156.0859,100.0102
156.1874,99.9087
156.1874,99.9087
156.3068,99.8289
156.3068,99.8289
156.4395,99.7739
156.4395,99.7739
156.5804,99.7459
156.5804,99.7459
156.7240,99.7459
156.7240,99.7459
156.8649,99.7739
156.8649,99.7739
156.9976,99.8289
156.9976,99.8289
157.1170,99.9087
157.1170,99.9087
157.2185,100.0102
157.2185,100.0102
157.2983,100.1296
157.2983,100.1296
157.2997,100.1330
157.3009,100.1344
157.3012,100.1350
157.3013,100.1350
157.3435,100.1874
157.4098,100.2094
157.4143,100.2095
157.8001,100.2095
157.8001,100.2095
157.8597,100.2159
157.9945,100.2662
157.9945,100.2662
158.0177,100.2836
158.0832,100.3080
158.0920,100.3083
160.5992,100.3083
160.6663,100.2886
160.7120,100.2358
160.7138,100.2318
160.7561,100.1296
160.7561,100.1296
160.8359,100.0102
160.8359,100.0102
160.9374,99.9087
160.9374,99.9087
161.0568,99.8289
161.0568,99.8289
161.1590,99.7866
161.2134,99.7427
161.2354,99.6764
161.2355,99.6720
161.2355,97.4618
158.2522,97.4618
158.2458,97.5214
158.2458,97.5214
158.1956,97.6561
158.1956,97.6561
158.1094,97.7712
158.1094,97.7712
157.9943,97.8573
157.9943,97.8574
157.8596,97.9076
157.8596,97.9076
157.8000,97.9140
157.8000,97.9140
157.7022,97.9140
157.2022,97.9140
157.1044,97.9140
157.1044,97.9140
157.0448,97.9076
157.0448,97.9076
156.9101,97.8574
156.9101,97.8573
156.7950,97.7712
156.7950,97.7712
156.7088,97.6561
156.7088,97.6561
156.6586,97.5214
156.6586,97.5214
156.6522,97.4618
156.6522,97.4618
156.6522,97.3940
157.2022,97.3940
157.2022,97.9140
157.7022,97.9140
157.7022,97.3940
158.2522,97.3940
158.2522,97.4618
161.2355,97.4618
161.2355,96.5780
161.2299,96.5588
161.2292,96.5388
161.2202,96.5260
161.2158,96.5109
161.2007,96.4978
161.1893,96.4814
161.1654,96.4672
161.1630,96.4652
161.1590,96.4634
161.0874,96.4338
161.0179,96.4263
160.9555,96.4576
160.9523,96.4607
160.8135,96.5994
160.7666,96.6463
160.7054,96.6717
159.5682,96.6717
159.5041,96.6905
159.5039,96.6903
159.5026,96.6910
159.5012,96.6914
159.4994,96.6926
159.4986,96.6931
159.3659,96.7481
159.2250,96.7761
159.2250,96.7761
159.2250,96.7761
159.0814,96.7761
159.0814,96.7761
158.9405,96.7481
158.8078,96.6931
158.8071,96.6926
158.8066,96.6924
158.8025,96.6903
158.8021,96.6910
158.7404,96.6717
158.7382,96.6717
158.3736,96.6717
158.3066,96.6914
158.2608,96.7442
158.2503,96.8090
158.2522,96.8262
158.2522,96.8940
158.1691,96.8940
158.1021,96.9137
158.0948,96.9187
157.9963,96.9925
157.9945,96.9938
157.9945,96.9938
157.9535,97.0091
157.8597,97.0441
157.8001,97.0505
157.1043,97.0505
157.0447,97.0441
156.9099,96.9938
156.8096,96.9187
156.7441,96.8943
156.7353,96.8940
156.6522,96.8940
156.6522,96.8529
156.6325,96.7859
156.5797,96.7402
156.5757,96.7384
156.5303,96.7196
156.4109,96.6398
156.3094,96.5383
156.2296,96.4189
156.1746,96.2862
156.1466,96.1453
156.1466,96.0017
156.1466,96.0017
156.1466,96.0017
156.1546,95.9614
156.1746,95.8608
156.2296,95.7281
156.2296,95.7281
156.2296,95.7281
156.3094,95.6087
156.3094,95.6087
156.3742,95.5439
156.4077,95.4826
156.4105,95.4562
156.4105,95.4188
156.4105,95.4188
156.4359,95.3576
156.4828,95.3107
156.7960,94.9974
156.8295,94.9361
156.8245,94.8664
156.8229,94.8623
156.7806,94.7602
156.7526,94.6193
156.7526,94.4757
156.7526,94.4757
156.7526,94.4757
156.7806,94.3348
156.7806,94.3348
156.8356,94.2021
156.8356,94.2021
156.8356,94.2021
156.9154,94.0827
156.9154,94.0827
157.0169,93.9812
157.0169,93.9812
157.1363,93.9014
157.1363,93.9014
157.2690,93.8464
157.2690,93.8464
157.4099,93.8184
157.4099,93.8184
157.5535,93.8184
157.5535,93.8184
157.6944,93.8464
157.6944,93.8464
157.8271,93.9014
157.8271,93.9014
157.9465,93.9812
157.9465,93.9812
158.0480,94.0827
158.0480,94.0827
158.1278,94.2021
158.1278,94.2021
158.1828,94.3348
158.1828,94.3348
158.2108,94.4757
158.2108,94.6193
158.1828,94.7602
158.1828,94.7602
158.1278,94.8929
158.1278,94.8929
158.0480,95.0123
158.0480,95.0123
157.9465,95.1138
157.9465,95.1138
157.8271,95.1936
157.8271,95.1936
157.8271,95.1936
157.6944,95.2486
157.6372,95.2600
157.6174,95.2639
157.5555,95.2963
157.5210,95.3570
157.5247,95.4268
157.5656,95.4834
157.6306,95.5090
157.6416,95.5095
157.8001,95.5095
157.8001,95.5095
157.8597,95.5159
157.9945,95.5662
157.9945,95.5662
158.1097,95.6525
158.1097,95.6525
158.1960,95.7677
158.1960,95.7677
158.2203,95.8328
158.2622,95.8888
158.3276,95.9132
158.3959,95.8983
158.4453,95.8489
158.4510,95.8369
158.4527,95.8328
158.4797,95.7677
158.5071,95.7016
158.5071,95.7016
158.5869,95.5822
158.5869,95.5822
158.6884,95.4807
158.6884,95.4807
158.8078,95.4009
158.8078,95.4009
158.9405,95.3459
158.9405,95.3459
159.0814,95.3179
159.0814,95.3179
159.2250,95.3179
159.2250,95.3179
159.3659,95.3459
159.3659,95.3459
159.4680,95.3882
159.5375,95.3957
159.5999,95.3644
159.6031,95.3613
161.2323,93.7321
161.2658,93.6708
161.2608,93.6011
161.2592,93.5971
161.2201,93.5027
161.1921,93.3618
161.1921,93.2182
161.1921,93.2182
161.1921,93.2182
161.2201,93.0773
161.2201,93.0773
161.2751,92.9446
161.2751,92.9446
161.2751,92.9446
161.3549,92.8252
161.3549,92.8252
161.4564,92.7237
161.4564,92.7237
161.5758,92.6439
161.5758,92.6439
161.7085,92.5889
161.7085,92.5889
161.8494,92.5609
161.8494,92.5609
161.9930,92.5609
161.9930,92.5609
162.1339,92.5889
162.1339,92.5889
162.2666,92.6439
162.2666,92.6439
162.3860,92.7237
162.3860,92.7237
162.4875,92.8252
162.4875,92.8252
162.5673,92.9446
162.5673,92.9446
162.6223,93.0773
162.6223,93.0773
162.6503,93.2182
162.6503,93.3618
162.6223,93.5027
162.6223,93.5027
162.5673,93.6354
162.5673,93.6354
162.4875,93.7548
162.4875,93.7548
162.3860,93.8563
162.3860,93.8563
162.2666,93.9361
162.2666,93.9361
162.2438,93.9456
162.1339,93.9911
161.9930,94.0191
161.9930,94.0191
161.9930,94.0191
161.8494,94.0191
161.8494,94.0191
161.7085,93.9911
161.5986,93.9456
161.5292,93.9381
161.4667,93.9694
161.4635,93.9724
159.8389,95.5971
159.8054,95.6584
159.8104,95.7281
159.8120,95.7322
159.8543,95.8343
159.8543,95.8343
159.8823,95.9752
159.8823,95.9752
159.8823,96.1188
159.8823,96.1188
159.8823,96.1188
159.8681,96.1901
159.8743,96.2597
159.9172,96.3149
159.9831,96.3381
159.9897,96.3383
160.5518,96.3383
160.5812,96.3297
160.6112,96.3231
160.6162,96.3194
160.6188,96.3186
160.6395,96.3020
160.7165,96.2249
160.7500,96.1636
160.7450,96.0939
160.7434,96.0898
160.7334,96.0657
160.7011,95.9877
160.6731,95.8468
160.6731,95.7032
160.6731,95.7032
160.6731,95.7032
160.6832,95.6525
160.7011,95.5623
160.7539,95.4350
160.7561,95.4296
160.7561,95.4296
160.8359,95.3102
160.8359,95.3102
160.9374,95.2087
160.9374,95.2087
161.0568,95.1289
161.0568,95.1289
161.1895,95.0739
161.1895,95.0739
161.3304,95.0459
161.3304,95.0459
161.4740,95.0459
161.4740,95.0459
161.6149,95.0739
161.6149,95.0739
161.7476,95.1289
161.7476,95.1289
161.8670,95.2087
161.8670,95.2087
161.9685,95.3102
161.9685,95.3102
162.0483,95.4296
162.0483,95.4296
162.0497,95.4330
162.0509,95.4344
162.0512,95.4350
162.0513,95.4350
162.0935,95.4874
162.1598,95.5094
162.1643,95.5095
162.5001,95.5095
162.5001,95.5095
162.5597,95.5159
162.6945,95.5662
162.6945,95.5662
162.7177,95.5836
162.7832,95.6080
162.7920,95.6083
165.2492,95.6083
165.3163,95.5886
165.3620,95.5358
165.3638,95.5318
165.4061,95.4296
165.4061,95.4296
165.4859,95.3102
165.4859,95.3102
165.5874,95.2087
165.5874,95.2087
165.7068,95.1289
165.7068,95.1289
165.8395,95.0739
165.8395,95.0739
165.9804,95.0459
165.9804,95.0459
166.1240,95.0459
166.1240,95.0459
166.2649,95.0739
166.2649,95.0739
166.3976,95.1289
166.3976,95.1289
166.5170,95.2087
166.5170,95.2087
166.6185,95.3102
166.6185,95.3102
166.6983,95.4296
166.6983,95.4296
166.6997,95.4330
166.7009,95.4344
166.7012,95.4350
166.7013,95.4350
166.7435,95.4874
166.8098,95.5094
166.8143,95.5095
167.2001,95.5095
167.2001,95.5095
167.2597,95.5159
167.3945,95.5662
167.3945,95.5662
167.4177,95.5836
167.4832,95.6080
167.4920,95.6083
170.1260,95.6083
170.1260,95.6083
170.1924,95.6083
170.2522,95.6331
170.2664,95.6354
170.2874,95.6328
170.3085,95.6351
170.3339,95.6276
170.4515,95.5789
170.4515,95.5789
170.5924,95.5509
170.5924,95.5509
170.7360,95.5509
170.7360,95.5509
170.8769,95.5789
170.8769,95.5789
170.8863,95.5828
170.9558,95.5903
171.0020,95.5702
171.0021,95.5705
171.0048,95.5690
171.0081,95.5675
171.0099,95.5662
171.0099,95.5662
171.1447,95.5159
171.1447,95.5159
171.1447,95.5159
171.2043,95.5095
171.2043,95.5095
171.9001,95.5095
171.9001,95.5095
171.9597,95.5159
172.0945,95.5662
172.0945,95.5662
172.2097,95.6525
172.2097,95.6525
172.2960,95.7677
172.2960,95.7677
172.3447,95.8983
172.3463,95.9025
172.3527,95.9621
172.9099,95.9621
172.9117,92.1061
172.9111,92.0939
172.8956,91.9367
172.8909,91.9128
172.8468,91.7675
172.8375,91.7450
172.7659,91.6110
172.7524,91.5908
172.6560,91.4734
172.6388,91.4562
172.5214,91.3598
172.5012,91.3463
172.3672,91.2747
172.3447,91.2654
172.1994,91.2213
172.1755,91.2166
172.0869,91.2079
172.0775,91.2069
Z" /> 
</g>
<g style="fill:#FFFFFF; fill-opacity:1.0000; stroke:none;">
<circle cx="159.1762" cy="96.9620" r="0.1270" /> 
<circle cx="168.5022" cy="110.6500" r="0.1270" /> 
<circle cx="168.5022" cy="96.5500" r="0.1270" /> 
<circle cx="162.1522" cy="102.4000" r="0.1270" /> 
<circle cx="154.4022" cy="96.5500" r="0.1270" /> 
<circle cx="170.6522" cy="111.3000" r="0.1270" /> 
<circle cx="168.2232" cy="92.2600" r="0.1270" /> 
<circle cx="166.0022" cy="111.2500" r="0.1270" /> 
<circle cx="159.1022" cy="101.2500" r="0.1270" /> 
<circle cx="156.5522" cy="101.8500" r="0.1270" /> 
<circle cx="168.5022" cy="101.2500" r="0.1270" /> 
<circle cx="165.9522" cy="101.8500" r="0.1270" /> 
<circle cx="165.9522" cy="106.5500" r="0.1270" /> 
<circle cx="162.1522" cy="97.7000" r="0.1270" /> 
<circle cx="156.6022" cy="106.5500" r="0.1270" /> 
<circle cx="154.4022" cy="110.6500" r="0.1270" /> 
<circle cx="156.7622" cy="92.2600" r="0.1270" /> 
<circle cx="163.8022" cy="96.5500" r="0.1270" /> 
<circle cx="159.1022" cy="105.9500" r="0.1270" /> 
<circle cx="154.4022" cy="105.9500" r="0.1270" /> 
<circle cx="163.8022" cy="101.2500" r="0.1270" /> 
<circle cx="154.4022" cy="101.2500" r="0.1270" /> 
<circle cx="161.3022" cy="111.2500" r="0.1270" /> 
<circle cx="156.6022" cy="111.2500" r="0.1270" /> 
<circle cx="163.8022" cy="110.6500" r="0.1270" /> 
<circle cx="156.5522" cy="97.1500" r="0.1270" /> 
<circle cx="162.1522" cy="107.1000" r="0.1270" /> 
<circle cx="170.6522" cy="101.8500" r="0.1270" /> 
<circle cx="168.5022" cy="105.9500" r="0.1270" /> 
<circle cx="163.8022" cy="105.9500" r="0.1270" /> 
<circle cx="170.6522" cy="106.5500" r="0.1270" /> 
<circle cx="170.6522" cy="97.1500" r="0.1270" /> 
<circle cx="165.9522" cy="97.1500" r="0.1270" /> 
<circle cx="159.1022" cy="110.6500" r="0.1270" /> 
<circle cx="156.4222" cy="113.1240" r="0.1270" /> 
<circle cx="166.5722" cy="94.0020" r="0.1270" /> 
<circle cx="156.6022" cy="105.1750" r="0.1270" /> 
<circle cx="166.0272" cy="109.8875" r="0.1270" /> 
<circle cx="166.0522" cy="95.7750" r="0.1270" /> 
<circle cx="161.4022" cy="95.7750" r="0.1270" /> 
<circle cx="156.8757" cy="96.0735" r="0.1270" /> 
<circle cx="157.4817" cy="94.5475" r="0.1270" /> 
<circle cx="166.0522" cy="105.1750" r="0.1270" /> 
<circle cx="170.8522" cy="109.8750" r="0.1270" /> 
<circle cx="170.7522" cy="100.4750" r="0.1270" /> 
<circle cx="170.6642" cy="96.2800" r="0.1270" /> 
<circle cx="161.4022" cy="105.2000" r="0.1270" /> 
<circle cx="170.7522" cy="105.1750" r="0.1270" /> 
<circle cx="167.7272" cy="111.3750" r="0.1270" /> 
<circle cx="166.1272" cy="100.4750" r="0.1270" /> 
<circle cx="156.6522" cy="100.4750" r="0.1270" /> 
<circle cx="161.4022" cy="109.9000" r="0.1270" /> 
<circle cx="156.7022" cy="109.8750" r="0.1270" /> 
<circle cx="161.4022" cy="100.4750" r="0.1270" /> 
<circle cx="161.9212" cy="93.2900" r="0.1270" /> 
<circle cx="159.1532" cy="96.0470" r="0.1270" /> 
<circle cx="159.1532" cy="96.0470" r="0.1270" /> 
</g> 
</svg>
