<?xml version="1.0" standalone="no"?>
 <!DOCTYPE svg PUBLIC "-//W3C//DTD SVG 1.1//EN" 
 "http://www.w3.org/Graphics/SVG/1.1/DTD/svg11.dtd"> 
<svg
  xmlns:svg="http://www.w3.org/2000/svg"
  xmlns="http://www.w3.org/2000/svg"
  xmlns:xlink="http://www.w3.org/1999/xlink"
  xmlns:inkscape="http://www.inkscape.org/namespaces/inkscape"
  version="1.1"
  width="297.0022mm" height="210.0072mm" viewBox="0.0000 0.0000 297.0022 210.0072">
<title>SVG Image created as 4x4-F_Paste2.svg date 2026-06-30T15:28:58 </title>
  <desc>Image generated by PCBNEW </desc>
<g style="fill:#000000; fill-opacity:1.0000;stroke:#000000; stroke-opacity:1.0000;
stroke-linecap:round; stroke-linejoin:round;"
 transform="translate(0 0) scale(1 1)">
<path style="fill:#000000; fill-opacity:1.0000; 
stroke:#000000; stroke-width:0.0100; stroke-opacity:1; 
stroke-linecap:round; stroke-linejoin:round;fill-rule:evenodd;"
d="M 131.6900,96.2400
132.0500,96.2400
132.0500,96.8600
131.6900,96.8600
Z" /> 
<path style="fill:#000000; fill-opacity:1.0000; 
stroke:#000000; stroke-width:0.0100; stroke-opacity:1; 
stroke-linecap:round; stroke-linejoin:round;fill-rule:evenodd;"
d="M 132.2500,96.2400
132.6100,96.2400
132.6100,96.8600
132.2500,96.8600
Z" /> 
<path style="fill:#000000; fill-opacity:1.0000; 
stroke:#000000; stroke-width:0.0100; stroke-opacity:1; 
stroke-linecap:round; stroke-linejoin:round;fill-rule:evenodd;"
d="M 126.9900,100.9400
127.3500,100.9400
127.3500,101.5600
126.9900,101.5600
Z" /> 
<path style="fill:#000000; fill-opacity:1.0000; 
stroke:#000000; stroke-width:0.0100; stroke-opacity:1; 
stroke-linecap:round; stroke-linejoin:round;fill-rule:evenodd;"
d="M 127.5500,100.9400
127.9100,100.9400
127.9100,101.5600
127.5500,101.5600
Z" /> 
<path style="fill:#000000; fill-opacity:1.0000; 
stroke:#000000; stroke-width:0.0100; stroke-opacity:1; 
stroke-linecap:round; stroke-linejoin:round;fill-rule:evenodd;"
d="M 141.0900,100.9400
141.4500,100.9400
141.4500,101.5600
141.0900,101.5600
Z" /> 
<path style="fill:#000000; fill-opacity:1.0000; 
stroke:#000000; stroke-width:0.0100; stroke-opacity:1; 
stroke-linecap:round; stroke-linejoin:round;fill-rule:evenodd;"
d="M 141.6500,100.9400
142.0100,100.9400
142.0100,101.5600
141.6500,101.5600
Z" /> 
<path style="fill:#000000; fill-opacity:1.0000; 
stroke:#000000; stroke-width:0.0100; stroke-opacity:1; 
stroke-linecap:round; stroke-linejoin:round;fill-rule:evenodd;"
d="M 131.6900,100.9400
132.0500,100.9400
132.0500,101.5600
131.6900,101.5600
Z" /> 
<path style="fill:#000000; fill-opacity:1.0000; 
stroke:#000000; stroke-width:0.0100; stroke-opacity:1; 
stroke-linecap:round; stroke-linejoin:round;fill-rule:evenodd;"
d="M 132.2500,100.9400
132.6100,100.9400
132.6100,101.5600
132.2500,101.5600
Z" /> 
<path style="fill:#000000; fill-opacity:1.0000; 
stroke:#000000; stroke-width:0.0100; stroke-opacity:1; 
stroke-linecap:round; stroke-linejoin:round;fill-rule:evenodd;"
d="M 126.9900,96.2400
127.3500,96.2400
127.3500,96.8600
126.9900,96.8600
Z" /> 
<path style="fill:#000000; fill-opacity:1.0000; 
stroke:#000000; stroke-width:0.0100; stroke-opacity:1; 
stroke-linecap:round; stroke-linejoin:round;fill-rule:evenodd;"
d="M 127.5500,96.2400
127.9100,96.2400
127.9100,96.8600
127.5500,96.8600
Z" /> 
<path style="fill:#000000; fill-opacity:1.0000; 
stroke:#000000; stroke-width:0.0100; stroke-opacity:1; 
stroke-linecap:round; stroke-linejoin:round;fill-rule:evenodd;"
d="M 126.9900,105.6400
127.3500,105.6400
127.3500,106.2600
126.9900,106.2600
Z" /> 
<path style="fill:#000000; fill-opacity:1.0000; 
stroke:#000000; stroke-width:0.0100; stroke-opacity:1; 
stroke-linecap:round; stroke-linejoin:round;fill-rule:evenodd;"
d="M 127.5500,105.6400
127.9100,105.6400
127.9100,106.2600
127.5500,106.2600
Z" /> 
<path style="fill:#000000; fill-opacity:1.0000; 
stroke:#000000; stroke-width:0.0100; stroke-opacity:1; 
stroke-linecap:round; stroke-linejoin:round;fill-rule:evenodd;"
d="M 136.3900,105.6400
136.7500,105.6400
136.7500,106.2600
136.3900,106.2600
Z" /> 
<path style="fill:#000000; fill-opacity:1.0000; 
stroke:#000000; stroke-width:0.0100; stroke-opacity:1; 
stroke-linecap:round; stroke-linejoin:round;fill-rule:evenodd;"
d="M 136.9500,105.6400
137.3100,105.6400
137.3100,106.2600
136.9500,106.2600
Z" /> 
<path style="fill:#000000; fill-opacity:1.0000; 
stroke:#000000; stroke-width:0.0100; stroke-opacity:1; 
stroke-linecap:round; stroke-linejoin:round;fill-rule:evenodd;"
d="M 141.0900,105.6400
141.4500,105.6400
141.4500,106.2600
141.0900,106.2600
Z" /> 
<path style="fill:#000000; fill-opacity:1.0000; 
stroke:#000000; stroke-width:0.0100; stroke-opacity:1; 
stroke-linecap:round; stroke-linejoin:round;fill-rule:evenodd;"
d="M 141.6500,105.6400
142.0100,105.6400
142.0100,106.2600
141.6500,106.2600
Z" /> 
<path style="fill:#000000; fill-opacity:1.0000; 
stroke:#000000; stroke-width:0.0100; stroke-opacity:1; 
stroke-linecap:round; stroke-linejoin:round;fill-rule:evenodd;"
d="M 141.0900,110.3400
141.4500,110.3400
141.4500,110.9600
141.0900,110.9600
Z" /> 
<path style="fill:#000000; fill-opacity:1.0000; 
stroke:#000000; stroke-width:0.0100; stroke-opacity:1; 
stroke-linecap:round; stroke-linejoin:round;fill-rule:evenodd;"
d="M 141.6500,110.3400
142.0100,110.3400
142.0100,110.9600
141.6500,110.9600
Z" /> 
<path style="fill:#000000; fill-opacity:1.0000; 
stroke:#000000; stroke-width:0.0100; stroke-opacity:1; 
stroke-linecap:round; stroke-linejoin:round;fill-rule:evenodd;"
d="M 136.3900,100.9400
136.7500,100.9400
136.7500,101.5600
136.3900,101.5600
Z" /> 
<path style="fill:#000000; fill-opacity:1.0000; 
stroke:#000000; stroke-width:0.0100; stroke-opacity:1; 
stroke-linecap:round; stroke-linejoin:round;fill-rule:evenodd;"
d="M 136.9500,100.9400
137.3100,100.9400
137.3100,101.5600
136.9500,101.5600
Z" /> 
<path style="fill:#000000; fill-opacity:1.0000; 
stroke:#000000; stroke-width:0.0100; stroke-opacity:1; 
stroke-linecap:round; stroke-linejoin:round;fill-rule:evenodd;"
d="M 141.0900,96.2400
141.4500,96.2400
141.4500,96.8600
141.0900,96.8600
Z" /> 
<path style="fill:#000000; fill-opacity:1.0000; 
stroke:#000000; stroke-width:0.0100; stroke-opacity:1; 
stroke-linecap:round; stroke-linejoin:round;fill-rule:evenodd;"
d="M 141.6500,96.2400
142.0100,96.2400
142.0100,96.8600
141.6500,96.8600
Z" /> 
<path style="fill:#000000; fill-opacity:1.0000; 
stroke:#000000; stroke-width:0.0100; stroke-opacity:1; 
stroke-linecap:round; stroke-linejoin:round;fill-rule:evenodd;"
d="M 126.9900,110.3400
127.3500,110.3400
127.3500,110.9600
126.9900,110.9600
Z" /> 
<path style="fill:#000000; fill-opacity:1.0000; 
stroke:#000000; stroke-width:0.0100; stroke-opacity:1; 
stroke-linecap:round; stroke-linejoin:round;fill-rule:evenodd;"
d="M 127.5500,110.3400
127.9100,110.3400
127.9100,110.9600
127.5500,110.9600
Z" /> 
<path style="fill:#000000; fill-opacity:1.0000; 
stroke:#000000; stroke-width:0.0100; stroke-opacity:1; 
stroke-linecap:round; stroke-linejoin:round;fill-rule:evenodd;"
d="M 131.6900,110.3400
132.0500,110.3400
132.0500,110.9600
131.6900,110.9600
Z" /> 
<path style="fill:#000000; fill-opacity:1.0000; 
stroke:#000000; stroke-width:0.0100; stroke-opacity:1; 
stroke-linecap:round; stroke-linejoin:round;fill-rule:evenodd;"
d="M 132.2500,110.3400
132.6100,110.3400
132.6100,110.9600
132.2500,110.9600
Z" /> 
<path style="fill:#000000; fill-opacity:1.0000; 
stroke:#000000; stroke-width:0.0100; stroke-opacity:1; 
stroke-linecap:round; stroke-linejoin:round;fill-rule:evenodd;"
d="M 131.6900,105.6400
132.0500,105.6400
132.0500,106.2600
131.6900,106.2600
Z" /> 
<path style="fill:#000000; fill-opacity:1.0000; 
stroke:#000000; stroke-width:0.0100; stroke-opacity:1; 
stroke-linecap:round; stroke-linejoin:round;fill-rule:evenodd;"
d="M 132.2500,105.6400
132.6100,105.6400
132.6100,106.2600
132.2500,106.2600
Z" /> 
<path style="fill:#000000; fill-opacity:1.0000; 
stroke:#000000; stroke-width:0.0100; stroke-opacity:1; 
stroke-linecap:round; stroke-linejoin:round;fill-rule:evenodd;"
d="M 136.3900,110.3400
136.7500,110.3400
136.7500,110.9600
136.3900,110.9600
Z" /> 
<path style="fill:#000000; fill-opacity:1.0000; 
stroke:#000000; stroke-width:0.0100; stroke-opacity:1; 
stroke-linecap:round; stroke-linejoin:round;fill-rule:evenodd;"
d="M 136.9500,110.3400
137.3100,110.3400
137.3100,110.9600
136.9500,110.9600
Z" /> 
<path style="fill:#000000; fill-opacity:1.0000; 
stroke:#000000; stroke-width:0.0100; stroke-opacity:1; 
stroke-linecap:round; stroke-linejoin:round;fill-rule:evenodd;"
d="M 136.3900,96.2400
136.7500,96.2400
136.7500,96.8600
136.3900,96.8600
Z" /> 
<path style="fill:#000000; fill-opacity:1.0000; 
stroke:#000000; stroke-width:0.0100; stroke-opacity:1; 
stroke-linecap:round; stroke-linejoin:round;fill-rule:evenodd;"
d="M 136.9500,96.2400
137.3100,96.2400
137.3100,96.8600
136.9500,96.8600
Z" /> 
<path style="fill:#000000; fill-opacity:1.0000; stroke:none;fill-rule:evenodd;"
d="M 131.5400,97.5500
131.5400,97.0900
131.7600,97.0900
131.7600,97.5500
Z" /> 
<path style="fill:#000000; fill-opacity:1.0000; stroke:none;fill-rule:evenodd;"
d="M 132.0400,97.5500
132.0400,97.0900
132.2600,97.0900
132.2600,97.5500
Z" /> 
<path style="fill:#000000; fill-opacity:1.0000; stroke:none;fill-rule:evenodd;"
d="M 132.5400,97.5500
132.5400,97.0900
132.7600,97.0900
132.7600,97.5500
Z" /> 
<path style="fill:#000000; fill-opacity:1.0000; stroke:none;fill-rule:evenodd;"
d="M 132.5400,96.0100
132.5400,95.5500
132.7600,95.5500
132.7600,96.0100
Z" /> 
<path style="fill:#000000; fill-opacity:1.0000; stroke:none;fill-rule:evenodd;"
d="M 132.0400,96.0100
132.0400,95.5500
132.2600,95.5500
132.2600,96.0100
Z" /> 
<path style="fill:#000000; fill-opacity:1.0000; stroke:none;fill-rule:evenodd;"
d="M 131.5400,96.0100
131.5400,95.5500
131.7600,95.5500
131.7600,96.0100
Z" /> 
<path style="fill:#000000; fill-opacity:1.0000; stroke:none;fill-rule:evenodd;"
d="M 126.8400,102.2500
126.8400,101.7900
127.0600,101.7900
127.0600,102.2500
Z" /> 
<path style="fill:#000000; fill-opacity:1.0000; stroke:none;fill-rule:evenodd;"
d="M 127.3400,102.2500
127.3400,101.7900
127.5600,101.7900
127.5600,102.2500
Z" /> 
<path style="fill:#000000; fill-opacity:1.0000; stroke:none;fill-rule:evenodd;"
d="M 127.8400,102.2500
127.8400,101.7900
128.0600,101.7900
128.0600,102.2500
Z" /> 
<path style="fill:#000000; fill-opacity:1.0000; stroke:none;fill-rule:evenodd;"
d="M 127.8400,100.7100
127.8400,100.2500
128.0600,100.2500
128.0600,100.7100
Z" /> 
<path style="fill:#000000; fill-opacity:1.0000; stroke:none;fill-rule:evenodd;"
d="M 127.3400,100.7100
127.3400,100.2500
127.5600,100.2500
127.5600,100.7100
Z" /> 
<path style="fill:#000000; fill-opacity:1.0000; stroke:none;fill-rule:evenodd;"
d="M 126.8400,100.7100
126.8400,100.2500
127.0600,100.2500
127.0600,100.7100
Z" /> 
<path style="fill:#000000; fill-opacity:1.0000; stroke:none;fill-rule:evenodd;"
d="M 140.9400,102.2500
140.9400,101.7900
141.1600,101.7900
141.1600,102.2500
Z" /> 
<path style="fill:#000000; fill-opacity:1.0000; stroke:none;fill-rule:evenodd;"
d="M 141.4400,102.2500
141.4400,101.7900
141.6600,101.7900
141.6600,102.2500
Z" /> 
<path style="fill:#000000; fill-opacity:1.0000; stroke:none;fill-rule:evenodd;"
d="M 141.9400,102.2500
141.9400,101.7900
142.1600,101.7900
142.1600,102.2500
Z" /> 
<path style="fill:#000000; fill-opacity:1.0000; stroke:none;fill-rule:evenodd;"
d="M 141.9400,100.7100
141.9400,100.2500
142.1600,100.2500
142.1600,100.7100
Z" /> 
<path style="fill:#000000; fill-opacity:1.0000; stroke:none;fill-rule:evenodd;"
d="M 141.4400,100.7100
141.4400,100.2500
141.6600,100.2500
141.6600,100.7100
Z" /> 
<path style="fill:#000000; fill-opacity:1.0000; stroke:none;fill-rule:evenodd;"
d="M 140.9400,100.7100
140.9400,100.2500
141.1600,100.2500
141.1600,100.7100
Z" /> 
<path style="fill:#000000; fill-opacity:1.0000; stroke:none;fill-rule:evenodd;"
d="M 138.3600,93.6100
138.3600,94.6100
137.8600,94.6100
137.8600,93.6100
Z" /> 
<path style="fill:#000000; fill-opacity:1.0000; stroke:none;fill-rule:evenodd;"
d="M 137.5600,93.6100
137.5600,94.6100
137.0600,94.6100
137.0600,93.6100
Z" /> 
<path style="fill:#000000; fill-opacity:1.0000; stroke:none;fill-rule:evenodd;"
d="M 136.7600,93.6100
136.7600,94.6100
136.2600,94.6100
136.2600,93.6100
Z" /> 
<path style="fill:#000000; fill-opacity:1.0000; stroke:none;fill-rule:evenodd;"
d="M 135.9600,93.6100
135.9600,94.6100
135.4600,94.6100
135.4600,93.6100
Z" /> 
<path style="fill:#000000; fill-opacity:1.0000; stroke:none;fill-rule:evenodd;"
d="M 135.1600,93.6100
135.1600,94.6100
134.6600,94.6100
134.6600,93.6100
Z" /> 
<path style="fill:#000000; fill-opacity:1.0000; stroke:none;fill-rule:evenodd;"
d="M 134.3600,93.6100
134.3600,94.6100
133.8600,94.6100
133.8600,93.6100
Z" /> 
<path style="fill:#000000; fill-opacity:1.0000; stroke:none;fill-rule:evenodd;"
d="M 133.5600,93.6100
133.5600,94.6100
133.0600,94.6100
133.0600,93.6100
Z" /> 
<path style="fill:#000000; fill-opacity:1.0000; stroke:none;fill-rule:evenodd;"
d="M 132.7600,93.6100
132.7600,94.6100
132.2600,94.6100
132.2600,93.6100
Z" /> 
<path style="fill:#000000; fill-opacity:1.0000; stroke:none;fill-rule:evenodd;"
d="M 131.9600,93.6100
131.9600,94.6100
131.4600,94.6100
131.4600,93.6100
Z" /> 
<path style="fill:#000000; fill-opacity:1.0000; stroke:none;fill-rule:evenodd;"
d="M 131.1600,93.6100
131.1600,94.6100
130.6600,94.6100
130.6600,93.6100
Z" /> 
<path style="fill:#000000; fill-opacity:1.0000; stroke:none;fill-rule:evenodd;"
d="M 140.0100,91.4100
140.0100,93.1100
138.8100,93.1100
138.8100,91.4100
Z" /> 
<path style="fill:#000000; fill-opacity:1.0000; stroke:none;fill-rule:evenodd;"
d="M 130.2100,91.4100
130.2100,93.1100
129.0100,93.1100
129.0100,91.4100
Z" /> 
<path style="fill:#000000; fill-opacity:1.0000; stroke:none;fill-rule:evenodd;"
d="M 131.5400,102.2500
131.5400,101.7900
131.7600,101.7900
131.7600,102.2500
Z" /> 
<path style="fill:#000000; fill-opacity:1.0000; stroke:none;fill-rule:evenodd;"
d="M 132.0400,102.2500
132.0400,101.7900
132.2600,101.7900
132.2600,102.2500
Z" /> 
<path style="fill:#000000; fill-opacity:1.0000; stroke:none;fill-rule:evenodd;"
d="M 132.5400,102.2500
132.5400,101.7900
132.7600,101.7900
132.7600,102.2500
Z" /> 
<path style="fill:#000000; fill-opacity:1.0000; stroke:none;fill-rule:evenodd;"
d="M 132.5400,100.7100
132.5400,100.2500
132.7600,100.2500
132.7600,100.7100
Z" /> 
<path style="fill:#000000; fill-opacity:1.0000; stroke:none;fill-rule:evenodd;"
d="M 132.0400,100.7100
132.0400,100.2500
132.2600,100.2500
132.2600,100.7100
Z" /> 
<path style="fill:#000000; fill-opacity:1.0000; stroke:none;fill-rule:evenodd;"
d="M 131.5400,100.7100
131.5400,100.2500
131.7600,100.2500
131.7600,100.7100
Z" /> 
<path style="fill:#000000; fill-opacity:1.0000; stroke:none;fill-rule:evenodd;"
d="M 126.8400,97.5500
126.8400,97.0900
127.0600,97.0900
127.0600,97.5500
Z" /> 
<path style="fill:#000000; fill-opacity:1.0000; stroke:none;fill-rule:evenodd;"
d="M 127.3400,97.5500
127.3400,97.0900
127.5600,97.0900
127.5600,97.5500
Z" /> 
<path style="fill:#000000; fill-opacity:1.0000; stroke:none;fill-rule:evenodd;"
d="M 127.8400,97.5500
127.8400,97.0900
128.0600,97.0900
128.0600,97.5500
Z" /> 
<path style="fill:#000000; fill-opacity:1.0000; stroke:none;fill-rule:evenodd;"
d="M 127.8400,96.0100
127.8400,95.5500
128.0600,95.5500
128.0600,96.0100
Z" /> 
<path style="fill:#000000; fill-opacity:1.0000; stroke:none;fill-rule:evenodd;"
d="M 127.3400,96.0100
127.3400,95.5500
127.5600,95.5500
127.5600,96.0100
Z" /> 
<path style="fill:#000000; fill-opacity:1.0000; stroke:none;fill-rule:evenodd;"
d="M 126.8400,96.0100
126.8400,95.5500
127.0600,95.5500
127.0600,96.0100
Z" /> 
<path style="fill:#000000; fill-opacity:1.0000; stroke:none;fill-rule:evenodd;"
d="M 126.8400,106.9500
126.8400,106.4900
127.0600,106.4900
127.0600,106.9500
Z" /> 
<path style="fill:#000000; fill-opacity:1.0000; stroke:none;fill-rule:evenodd;"
d="M 127.3400,106.9500
127.3400,106.4900
127.5600,106.4900
127.5600,106.9500
Z" /> 
<path style="fill:#000000; fill-opacity:1.0000; stroke:none;fill-rule:evenodd;"
d="M 127.8400,106.9500
127.8400,106.4900
128.0600,106.4900
128.0600,106.9500
Z" /> 
<path style="fill:#000000; fill-opacity:1.0000; stroke:none;fill-rule:evenodd;"
d="M 127.8400,105.4100
127.8400,104.9500
128.0600,104.9500
128.0600,105.4100
Z" /> 
<path style="fill:#000000; fill-opacity:1.0000; stroke:none;fill-rule:evenodd;"
d="M 127.3400,105.4100
127.3400,104.9500
127.5600,104.9500
127.5600,105.4100
Z" /> 
<path style="fill:#000000; fill-opacity:1.0000; stroke:none;fill-rule:evenodd;"
d="M 126.8400,105.4100
126.8400,104.9500
127.0600,104.9500
127.0600,105.4100
Z" /> 
<path style="fill:#000000; fill-opacity:1.0000; stroke:none;fill-rule:evenodd;"
d="M 136.2400,106.9500
136.2400,106.4900
136.4600,106.4900
136.4600,106.9500
Z" /> 
<path style="fill:#000000; fill-opacity:1.0000; stroke:none;fill-rule:evenodd;"
d="M 136.7400,106.9500
136.7400,106.4900
136.9600,106.4900
136.9600,106.9500
Z" /> 
<path style="fill:#000000; fill-opacity:1.0000; stroke:none;fill-rule:evenodd;"
d="M 137.2400,106.9500
137.2400,106.4900
137.4600,106.4900
137.4600,106.9500
Z" /> 
<path style="fill:#000000; fill-opacity:1.0000; stroke:none;fill-rule:evenodd;"
d="M 137.2400,105.4100
137.2400,104.9500
137.4600,104.9500
137.4600,105.4100
Z" /> 
<path style="fill:#000000; fill-opacity:1.0000; stroke:none;fill-rule:evenodd;"
d="M 136.7400,105.4100
136.7400,104.9500
136.9600,104.9500
136.9600,105.4100
Z" /> 
<path style="fill:#000000; fill-opacity:1.0000; stroke:none;fill-rule:evenodd;"
d="M 136.2400,105.4100
136.2400,104.9500
136.4600,104.9500
136.4600,105.4100
Z" /> 
<path style="fill:#000000; fill-opacity:1.0000; stroke:none;fill-rule:evenodd;"
d="M 140.9400,106.9500
140.9400,106.4900
141.1600,106.4900
141.1600,106.9500
Z" /> 
<path style="fill:#000000; fill-opacity:1.0000; stroke:none;fill-rule:evenodd;"
d="M 141.4400,106.9500
141.4400,106.4900
141.6600,106.4900
141.6600,106.9500
Z" /> 
<path style="fill:#000000; fill-opacity:1.0000; stroke:none;fill-rule:evenodd;"
d="M 141.9400,106.9500
141.9400,106.4900
142.1600,106.4900
142.1600,106.9500
Z" /> 
<path style="fill:#000000; fill-opacity:1.0000; stroke:none;fill-rule:evenodd;"
d="M 141.9400,105.4100
141.9400,104.9500
142.1600,104.9500
142.1600,105.4100
Z" /> 
<path style="fill:#000000; fill-opacity:1.0000; stroke:none;fill-rule:evenodd;"
d="M 141.4400,105.4100
141.4400,104.9500
141.6600,104.9500
141.6600,105.4100
Z" /> 
<path style="fill:#000000; fill-opacity:1.0000; stroke:none;fill-rule:evenodd;"
d="M 140.9400,105.4100
140.9400,104.9500
141.1600,104.9500
141.1600,105.4100
Z" /> 
<path style="fill:#000000; fill-opacity:1.0000; stroke:none;fill-rule:evenodd;"
d="M 140.9400,111.6500
140.9400,111.1900
141.1600,111.1900
141.1600,111.6500
Z" /> 
<path style="fill:#000000; fill-opacity:1.0000; stroke:none;fill-rule:evenodd;"
d="M 141.4400,111.6500
141.4400,111.1900
141.6600,111.1900
141.6600,111.6500
Z" /> 
<path style="fill:#000000; fill-opacity:1.0000; stroke:none;fill-rule:evenodd;"
d="M 141.9400,111.6500
141.9400,111.1900
142.1600,111.1900
142.1600,111.6500
Z" /> 
<path style="fill:#000000; fill-opacity:1.0000; stroke:none;fill-rule:evenodd;"
d="M 141.9400,110.1100
141.9400,109.6500
142.1600,109.6500
142.1600,110.1100
Z" /> 
<path style="fill:#000000; fill-opacity:1.0000; stroke:none;fill-rule:evenodd;"
d="M 141.4400,110.1100
141.4400,109.6500
141.6600,109.6500
141.6600,110.1100
Z" /> 
<path style="fill:#000000; fill-opacity:1.0000; stroke:none;fill-rule:evenodd;"
d="M 140.9400,110.1100
140.9400,109.6500
141.1600,109.6500
141.1600,110.1100
Z" /> 
<path style="fill:#000000; fill-opacity:1.0000; stroke:none;fill-rule:evenodd;"
d="M 136.2400,102.2500
136.2400,101.7900
136.4600,101.7900
136.4600,102.2500
Z" /> 
<path style="fill:#000000; fill-opacity:1.0000; stroke:none;fill-rule:evenodd;"
d="M 136.7400,102.2500
136.7400,101.7900
136.9600,101.7900
136.9600,102.2500
Z" /> 
<path style="fill:#000000; fill-opacity:1.0000; stroke:none;fill-rule:evenodd;"
d="M 137.2400,102.2500
137.2400,101.7900
137.4600,101.7900
137.4600,102.2500
Z" /> 
<path style="fill:#000000; fill-opacity:1.0000; stroke:none;fill-rule:evenodd;"
d="M 137.2400,100.7100
137.2400,100.2500
137.4600,100.2500
137.4600,100.7100
Z" /> 
<path style="fill:#000000; fill-opacity:1.0000; stroke:none;fill-rule:evenodd;"
d="M 136.7400,100.7100
136.7400,100.2500
136.9600,100.2500
136.9600,100.7100
Z" /> 
<path style="fill:#000000; fill-opacity:1.0000; stroke:none;fill-rule:evenodd;"
d="M 136.2400,100.7100
136.2400,100.2500
136.4600,100.2500
136.4600,100.7100
Z" /> 
<path style="fill:#000000; fill-opacity:1.0000; stroke:none;fill-rule:evenodd;"
d="M 140.9400,97.5500
140.9400,97.0900
141.1600,97.0900
141.1600,97.5500
Z" /> 
<path style="fill:#000000; fill-opacity:1.0000; stroke:none;fill-rule:evenodd;"
d="M 141.4400,97.5500
141.4400,97.0900
141.6600,97.0900
141.6600,97.5500
Z" /> 
<path style="fill:#000000; fill-opacity:1.0000; stroke:none;fill-rule:evenodd;"
d="M 141.9400,97.5500
141.9400,97.0900
142.1600,97.0900
142.1600,97.5500
Z" /> 
<path style="fill:#000000; fill-opacity:1.0000; stroke:none;fill-rule:evenodd;"
d="M 141.9400,96.0100
141.9400,95.5500
142.1600,95.5500
142.1600,96.0100
Z" /> 
<path style="fill:#000000; fill-opacity:1.0000; stroke:none;fill-rule:evenodd;"
d="M 141.4400,96.0100
141.4400,95.5500
141.6600,95.5500
141.6600,96.0100
Z" /> 
<path style="fill:#000000; fill-opacity:1.0000; stroke:none;fill-rule:evenodd;"
d="M 140.9400,96.0100
140.9400,95.5500
141.1600,95.5500
141.1600,96.0100
Z" /> 
<path style="fill:#000000; fill-opacity:1.0000; stroke:none;fill-rule:evenodd;"
d="M 126.8400,111.6500
126.8400,111.1900
127.0600,111.1900
127.0600,111.6500
Z" /> 
<path style="fill:#000000; fill-opacity:1.0000; stroke:none;fill-rule:evenodd;"
d="M 127.3400,111.6500
127.3400,111.1900
127.5600,111.1900
127.5600,111.6500
Z" /> 
<path style="fill:#000000; fill-opacity:1.0000; stroke:none;fill-rule:evenodd;"
d="M 127.8400,111.6500
127.8400,111.1900
128.0600,111.1900
128.0600,111.6500
Z" /> 
<path style="fill:#000000; fill-opacity:1.0000; stroke:none;fill-rule:evenodd;"
d="M 127.8400,110.1100
127.8400,109.6500
128.0600,109.6500
128.0600,110.1100
Z" /> 
<path style="fill:#000000; fill-opacity:1.0000; stroke:none;fill-rule:evenodd;"
d="M 127.3400,110.1100
127.3400,109.6500
127.5600,109.6500
127.5600,110.1100
Z" /> 
<path style="fill:#000000; fill-opacity:1.0000; stroke:none;fill-rule:evenodd;"
d="M 126.8400,110.1100
126.8400,109.6500
127.0600,109.6500
127.0600,110.1100
Z" /> 
<path style="fill:#000000; fill-opacity:1.0000; stroke:none;fill-rule:evenodd;"
d="M 131.5400,111.6500
131.5400,111.1900
131.7600,111.1900
131.7600,111.6500
Z" /> 
<path style="fill:#000000; fill-opacity:1.0000; stroke:none;fill-rule:evenodd;"
d="M 132.0400,111.6500
132.0400,111.1900
132.2600,111.1900
132.2600,111.6500
Z" /> 
<path style="fill:#000000; fill-opacity:1.0000; stroke:none;fill-rule:evenodd;"
d="M 132.5400,111.6500
132.5400,111.1900
132.7600,111.1900
132.7600,111.6500
Z" /> 
<path style="fill:#000000; fill-opacity:1.0000; stroke:none;fill-rule:evenodd;"
d="M 132.5400,110.1100
132.5400,109.6500
132.7600,109.6500
132.7600,110.1100
Z" /> 
<path style="fill:#000000; fill-opacity:1.0000; stroke:none;fill-rule:evenodd;"
d="M 132.0400,110.1100
132.0400,109.6500
132.2600,109.6500
132.2600,110.1100
Z" /> 
<path style="fill:#000000; fill-opacity:1.0000; stroke:none;fill-rule:evenodd;"
d="M 131.5400,110.1100
131.5400,109.6500
131.7600,109.6500
131.7600,110.1100
Z" /> 
<path style="fill:#000000; fill-opacity:1.0000; stroke:none;fill-rule:evenodd;"
d="M 131.5400,106.9500
131.5400,106.4900
131.7600,106.4900
131.7600,106.9500
Z" /> 
<path style="fill:#000000; fill-opacity:1.0000; stroke:none;fill-rule:evenodd;"
d="M 132.0400,106.9500
132.0400,106.4900
132.2600,106.4900
132.2600,106.9500
Z" /> 
<path style="fill:#000000; fill-opacity:1.0000; stroke:none;fill-rule:evenodd;"
d="M 132.5400,106.9500
132.5400,106.4900
132.7600,106.4900
132.7600,106.9500
Z" /> 
<path style="fill:#000000; fill-opacity:1.0000; stroke:none;fill-rule:evenodd;"
d="M 132.5400,105.4100
132.5400,104.9500
132.7600,104.9500
132.7600,105.4100
Z" /> 
<path style="fill:#000000; fill-opacity:1.0000; stroke:none;fill-rule:evenodd;"
d="M 132.0400,105.4100
132.0400,104.9500
132.2600,104.9500
132.2600,105.4100
Z" /> 
<path style="fill:#000000; fill-opacity:1.0000; stroke:none;fill-rule:evenodd;"
d="M 131.5400,105.4100
131.5400,104.9500
131.7600,104.9500
131.7600,105.4100
Z" /> 
<path style="fill:#000000; fill-opacity:1.0000; stroke:none;fill-rule:evenodd;"
d="M 136.2400,111.6500
136.2400,111.1900
136.4600,111.1900
136.4600,111.6500
Z" /> 
<path style="fill:#000000; fill-opacity:1.0000; stroke:none;fill-rule:evenodd;"
d="M 136.7400,111.6500
136.7400,111.1900
136.9600,111.1900
136.9600,111.6500
Z" /> 
<path style="fill:#000000; fill-opacity:1.0000; stroke:none;fill-rule:evenodd;"
d="M 137.2400,111.6500
137.2400,111.1900
137.4600,111.1900
137.4600,111.6500
Z" /> 
<path style="fill:#000000; fill-opacity:1.0000; stroke:none;fill-rule:evenodd;"
d="M 137.2400,110.1100
137.2400,109.6500
137.4600,109.6500
137.4600,110.1100
Z" /> 
<path style="fill:#000000; fill-opacity:1.0000; stroke:none;fill-rule:evenodd;"
d="M 136.7400,110.1100
136.7400,109.6500
136.9600,109.6500
136.9600,110.1100
Z" /> 
<path style="fill:#000000; fill-opacity:1.0000; stroke:none;fill-rule:evenodd;"
d="M 136.2400,110.1100
136.2400,109.6500
136.4600,109.6500
136.4600,110.1100
Z" /> 
<path style="fill:#000000; fill-opacity:1.0000; stroke:none;fill-rule:evenodd;"
d="M 136.2400,97.5500
136.2400,97.0900
136.4600,97.0900
136.4600,97.5500
Z" /> 
<path style="fill:#000000; fill-opacity:1.0000; stroke:none;fill-rule:evenodd;"
d="M 136.7400,97.5500
136.7400,97.0900
136.9600,97.0900
136.9600,97.5500
Z" /> 
<path style="fill:#000000; fill-opacity:1.0000; stroke:none;fill-rule:evenodd;"
d="M 137.2400,97.5500
137.2400,97.0900
137.4600,97.0900
137.4600,97.5500
Z" /> 
<path style="fill:#000000; fill-opacity:1.0000; stroke:none;fill-rule:evenodd;"
d="M 137.2400,96.0100
137.2400,95.5500
137.4600,95.5500
137.4600,96.0100
Z" /> 
<path style="fill:#000000; fill-opacity:1.0000; stroke:none;fill-rule:evenodd;"
d="M 136.7400,96.0100
136.7400,95.5500
136.9600,95.5500
136.9600,96.0100
Z" /> 
<path style="fill:#000000; fill-opacity:1.0000; stroke:none;fill-rule:evenodd;"
d="M 136.2400,96.0100
136.2400,95.5500
136.4600,95.5500
136.4600,96.0100
Z" /> 
</g> 
</svg>
