  0
SECTION
  2
HEADER
  9
$ACADVER
  1
AC1018
  9
$HANDSEED
  5
FFFFFFFF
  9
$ANGBASE
  50
0.0
  9
$ANGDIR
  70
1
  9
$MEASUREMENT
  70
0
  9
$INSUNITS
  70
1
  0
ENDSEC
  0
SECTION
  2
TABLES
  0
TABLE
  2
APPID
  5
1
330
0
100
AcDbSymbolTable
 70
1
  0
APPID
  5
2
330
1
100
AcDbSymbolTableRecord
100
AcDbRegAppTableRecord
  2
ACAD
 70
0
  0
ENDTAB
  0
TABLE
  2
LTYPE
  5
3
330
0
100
AcDbSymbolTable
 70
6
  0
LTYPE
  5
4
330
3
100
AcDbSymbolTableRecord
100
AcDbLinetypeTableRecord
  2
ByBlock
 70
0
  3

 72
65
 73
0
 40
0
  0
LTYPE
  5
5
330
3
100
AcDbSymbolTableRecord
100
AcDbLinetypeTableRecord
  2
ByLayer
 70
0
  3

 72
65
 73
0
 40
0
  0
LTYPE
  5
6
330
3
100
AcDbSymbolTableRecord
100
AcDbLinetypeTableRecord
  2
CONTINUOUS
 70
0
  3
Solid line
 72
65
 73
0
 40
0
  0
LTYPE
  5
7
330
3
100
AcDbSymbolTableRecord
100
AcDbLinetypeTableRecord
  2
DASHDOT
 70
0
  3
Dash Dot ____ _ ____ _
 72
65
 73
4
 40
2
 49
1.25
 74
0
 49
-0.25
 74
0
 49
0.25
 74
0
 49
-0.25
 74
0
  0
LTYPE
  5
8
330
3
100
AcDbSymbolTableRecord
100
AcDbLinetypeTableRecord
  2
DASHED
 70
0
  3
Dashed __ __ __ __ __
 72
65
 73
2
 40
0.75
 49
0.5
 74
0
 49
-0.25
 74
0
  0
LTYPE
  5
9
330
3
100
AcDbSymbolTableRecord
100
AcDbLinetypeTableRecord
  2
DOTTED
 70
0
  3
Dotted .  .  .  .
 72
65
 73
2
 40
0.2
 49
0.0
 74
0
 49
-0.2
 74
0
  0
ENDTAB
  0
TABLE
  2
STYLE
  5
A
330
0
100
AcDbSymbolTable
 70
4
  0
STYLE
  5
B
330
A
100
AcDbSymbolTableRecord
100
AcDbTextStyleTableRecord
  2
KICAD
 70
0
 40
0
 41
1
 42
1
 50
0
 71
0
  3
isocp.shx
  0
STYLE
  5
C
330
A
100
AcDbSymbolTableRecord
100
AcDbTextStyleTableRecord
  2
KICADB
 70
0
 40
0
 41
1
 42
1
 50
0
 71
0
  3
isocp.shx
  0
STYLE
  5
D
330
A
100
AcDbSymbolTableRecord
100
AcDbTextStyleTableRecord
  2
KICADI
 70
0
 40
0
 41
1
 42
1
 50
15
 71
0
  3
isocp.shx
  0
STYLE
  5
E
330
A
100
AcDbSymbolTableRecord
100
AcDbTextStyleTableRecord
  2
KICADBI
 70
0
 40
0
 41
1
 42
1
 50
15
 71
0
  3
isocp.shx
  0
ENDTAB
  0
TABLE
  2
LAYER
  5
F
330
0
100
AcDbSymbolTable
 70
2
  0
LAYER
  5
12
330
F
100
AcDbSymbolTableRecord
100
AcDbLayerTableRecord
  2
0
 70
0
 62
7
  6
CONTINUOUS
390
10
  0
LAYER
  5
13
330
F
100
AcDbSymbolTableRecord
100
AcDbLayerTableRecord
  2
BLACK
 70
0
 62
250
  6
CONTINUOUS
390
10
  0
ENDTAB
  0
TABLE
  2
VPORT
  5
14
330
0
100
AcDbSymbolTable
 70
0
  0
ENDTAB
  0
TABLE
  2
VIEW
  5
15
330
0
100
AcDbSymbolTable
 70
0
  0
ENDTAB
  0
TABLE
  2
UCS
  5
16
330
0
100
AcDbSymbolTable
 70
0
  0
ENDTAB
  0
TABLE
  2
DIMSTYLE
  5
17
330
0
100
AcDbSymbolTable
 70
1
100
AcDbDimStyleTable
 71
0
  0
DIMSTYLE
105
18
330
17
100
AcDbSymbolTableRecord
100
AcDbDimStyleTableRecord
  2
Standard
 70
0
  0
ENDTAB
  0
TABLE
  2
BLOCK_RECORD
  5
19
330
0
100
AcDbSymbolTable
 70
3
  0
BLOCK_RECORD
  5
1A
330
19
100
AcDbSymbolTableRecord
100
AcDbBlockTableRecord
  2
*Model_Space
340
1D
 70
0
280
1
281
0
  0
BLOCK_RECORD
  5
1B
330
19
100
AcDbSymbolTableRecord
100
AcDbBlockTableRecord
  2
*Paper_Space
340
1E
 70
0
280
1
281
0
  0
BLOCK_RECORD
  5
1C
330
19
100
AcDbSymbolTableRecord
100
AcDbBlockTableRecord
  2
*Paper_Space0
340
1F
 70
0
280
1
281
0
  0
ENDTAB
  0
ENDSEC
  0
SECTION
  2
BLOCKS
  0
BLOCK
  5
23
330
1A
100
AcDbEntity
  8
0
100
AcDbBlockBegin
  2
*Model_Space
 70
0
 10
0.0
 20
0.0
 30
0.0
  3
*Model_Space
  1

  0
ENDBLK
  5
22
330
1A
100
AcDbEntity
  8
0
100
AcDbBlockEnd
  0
BLOCK
  5
25
330
1B
100
AcDbEntity
 67
1
  8
0
100
AcDbBlockBegin
  2
*Paper_Space
 70
0
 10
0.0
 20
0.0
 30
0.0
  3
*Paper_Space
  1

  0
ENDBLK
  5
24
330
1B
100
AcDbEntity
 67
1
  8
0
100
AcDbBlockEnd
  0
BLOCK
  5
27
330
1C
100
AcDbEntity
 67
1
  8
0
100
AcDbBlockBegin
  2
*Paper_Space0
 70
0
 10
0.0
 20
0.0
 30
0.0
  3
*Paper_Space0
  1

  0
ENDBLK
  5
26
330
1C
100
AcDbEntity
 67
1
  8
0
100
AcDbBlockEnd
  0
ENDSEC
  0
SECTION
  2
ENTITIES
  0
LINE
  5
28
330
1A
100
AcDbEntity
  8
BLACK
  6
CONTINUOUS
100
AcDbLine
 10
4.9214446850393703
 20
-3.5858179133858266
 30
0
 11
4.9215941338582674
 21
-3.5860236220472439
 31
0
  0
LINE
  5
29
330
1A
100
AcDbEntity
  8
BLACK
  6
CONTINUOUS
100
AcDbLine
 10
4.9215941338582674
 20
-3.5860236220472439
 30
0
 11
5.6692913385826769
 21
-3.5860236220472439
 31
0
  0
LINE
  5
2A
330
1A
100
AcDbEntity
  8
BLACK
  6
CONTINUOUS
100
AcDbLine
 10
5.6692913385826769
 20
-3.5860236220472439
 30
0
 11
5.676298779527559
 21
-3.5866366929133857
 31
0
  0
LINE
  5
2B
330
1A
100
AcDbEntity
  8
BLACK
  6
CONTINUOUS
100
AcDbLine
 10
5.676298779527559
 20
-3.5866366929133857
 30
0
 11
5.6830933464566931
 21
-3.5884572834645669
 31
0
  0
LINE
  5
2C
330
1A
100
AcDbEntity
  8
BLACK
  6
CONTINUOUS
100
AcDbLine
 10
5.6830933464566931
 20
-3.5884572834645669
 30
0
 11
5.6894685039370074
 21
-3.5914300787401574
 31
0
  0
LINE
  5
2D
330
1A
100
AcDbEntity
  8
BLACK
  6
CONTINUOUS
100
AcDbLine
 10
5.6894685039370074
 20
-3.5914300787401574
 30
0
 11
5.6952306299212596
 21
-3.5954647244094486
 31
0
  0
LINE
  5
2E
330
1A
100
AcDbEntity
  8
BLACK
  6
CONTINUOUS
100
AcDbLine
 10
5.6952306299212596
 20
-3.5954647244094486
 30
0
 11
5.7002045669291341
 21
-3.6004386614173227
 31
0
  0
LINE
  5
2F
330
1A
100
AcDbEntity
  8
BLACK
  6
CONTINUOUS
100
AcDbLine
 10
5.7002045669291341
 20
-3.6004386614173227
 30
0
 11
5.7042392125984254
 21
-3.6062007874015749
 31
0
  0
LINE
  5
30
330
1A
100
AcDbEntity
  8
BLACK
  6
CONTINUOUS
100
AcDbLine
 10
5.7042392125984254
 20
-3.6062007874015749
 30
0
 11
5.7072120078740154
 21
-3.6125759448818897
 31
0
  0
LINE
  5
31
330
1A
100
AcDbEntity
  8
BLACK
  6
CONTINUOUS
100
AcDbLine
 10
5.7072120078740154
 20
-3.6125759448818897
 30
0
 11
5.7090325984251971
 21
-3.6193705118110238
 31
0
  0
LINE
  5
32
330
1A
100
AcDbEntity
  8
BLACK
  6
CONTINUOUS
100
AcDbLine
 10
5.7090325984251971
 20
-3.6193705118110238
 30
0
 11
5.7096456692913389
 21
-3.6263779527559055
 31
0
  0
LINE
  5
33
330
1A
100
AcDbEntity
  8
BLACK
  6
CONTINUOUS
100
AcDbLine
 10
5.7096456692913389
 20
-3.6263779527559055
 30
0
 11
5.7096456692913389
 21
-4.4527559055118111
 31
0
  0
LINE
  5
34
330
1A
100
AcDbEntity
  8
BLACK
  6
CONTINUOUS
100
AcDbLine
 10
5.7096456692913389
 20
-4.4527559055118111
 30
0
 11
5.7090325984251971
 21
-4.4597633464566933
 31
0
  0
LINE
  5
35
330
1A
100
AcDbEntity
  8
BLACK
  6
CONTINUOUS
100
AcDbLine
 10
5.7090325984251971
 20
-4.4597633464566933
 30
0
 11
5.7072120078740154
 21
-4.4665579133858264
 31
0
  0
LINE
  5
36
330
1A
100
AcDbEntity
  8
BLACK
  6
CONTINUOUS
100
AcDbLine
 10
5.7072120078740154
 20
-4.4665579133858264
 30
0
 11
5.7042392125984254
 21
-4.4729330708661417
 31
0
  0
LINE
  5
37
330
1A
100
AcDbEntity
  8
BLACK
  6
CONTINUOUS
100
AcDbLine
 10
5.7042392125984254
 20
-4.4729330708661417
 30
0
 11
5.7002045669291341
 21
-4.4786951968503939
 31
0
  0
LINE
  5
38
330
1A
100
AcDbEntity
  8
BLACK
  6
CONTINUOUS
100
AcDbLine
 10
5.7002045669291341
 20
-4.4786951968503939
 30
0
 11
5.6952306299212596
 21
-4.4836691338582675
 31
0
  0
LINE
  5
39
330
1A
100
AcDbEntity
  8
BLACK
  6
CONTINUOUS
100
AcDbLine
 10
5.6952306299212596
 20
-4.4836691338582675
 30
0
 11
5.6894685039370074
 21
-4.4877037795275587
 31
0
  0
LINE
  5
3A
330
1A
100
AcDbEntity
  8
BLACK
  6
CONTINUOUS
100
AcDbLine
 10
5.6894685039370074
 20
-4.4877037795275587
 30
0
 11
5.6830933464566931
 21
-4.4906765748031496
 31
0
  0
LINE
  5
3B
330
1A
100
AcDbEntity
  8
BLACK
  6
CONTINUOUS
100
AcDbLine
 10
5.6830933464566931
 20
-4.4906765748031496
 30
0
 11
5.676298779527559
 21
-4.4924971653543304
 31
0
  0
LINE
  5
3C
330
1A
100
AcDbEntity
  8
BLACK
  6
CONTINUOUS
100
AcDbLine
 10
5.676298779527559
 20
-4.4924971653543304
 30
0
 11
5.6692913385826769
 21
-4.4931102362204722
 31
0
  0
LINE
  5
3D
330
1A
100
AcDbEntity
  8
BLACK
  6
CONTINUOUS
100
AcDbLine
 10
5.6692913385826769
 20
-4.4931102362204722
 30
0
 11
4.9212598425196852
 21
-4.4931102362204722
 31
0
  0
LINE
  5
3E
330
1A
100
AcDbEntity
  8
BLACK
  6
CONTINUOUS
100
AcDbLine
 10
4.9212598425196852
 20
-4.4931102362204722
 30
0
 11
4.914252401574803
 21
-4.4924971653543304
 31
0
  0
LINE
  5
3F
330
1A
100
AcDbEntity
  8
BLACK
  6
CONTINUOUS
100
AcDbLine
 10
4.914252401574803
 20
-4.4924971653543304
 30
0
 11
4.907457834645669
 21
-4.4906765748031496
 31
0
  0
LINE
  5
40
330
1A
100
AcDbEntity
  8
BLACK
  6
CONTINUOUS
100
AcDbLine
 10
4.907457834645669
 20
-4.4906765748031496
 30
0
 11
4.9010826771653546
 21
-4.4877037795275587
 31
0
  0
LINE
  5
41
330
1A
100
AcDbEntity
  8
BLACK
  6
CONTINUOUS
100
AcDbLine
 10
4.9010826771653546
 20
-4.4877037795275587
 30
0
 11
4.8953205511811024
 21
-4.4836691338582675
 31
0
  0
LINE
  5
42
330
1A
100
AcDbEntity
  8
BLACK
  6
CONTINUOUS
100
AcDbLine
 10
4.8953205511811024
 20
-4.4836691338582675
 30
0
 11
4.8903466141732279
 21
-4.4786951968503939
 31
0
  0
LINE
  5
43
330
1A
100
AcDbEntity
  8
BLACK
  6
CONTINUOUS
100
AcDbLine
 10
4.8903466141732279
 20
-4.4786951968503939
 30
0
 11
4.8863119685039367
 21
-4.4729330708661417
 31
0
  0
LINE
  5
44
330
1A
100
AcDbEntity
  8
BLACK
  6
CONTINUOUS
100
AcDbLine
 10
4.8863119685039367
 20
-4.4729330708661417
 30
0
 11
4.8833391732283467
 21
-4.4665579133858264
 31
0
  0
LINE
  5
45
330
1A
100
AcDbEntity
  8
BLACK
  6
CONTINUOUS
100
AcDbLine
 10
4.8833391732283467
 20
-4.4665579133858264
 30
0
 11
4.881518582677165
 21
-4.4597633464566933
 31
0
  0
LINE
  5
46
330
1A
100
AcDbEntity
  8
BLACK
  6
CONTINUOUS
100
AcDbLine
 10
4.881518582677165
 20
-4.4597633464566933
 30
0
 11
4.8809055511811019
 21
-4.452756732283464
 31
0
  0
LINE
  5
47
330
1A
100
AcDbEntity
  8
BLACK
  6
CONTINUOUS
100
AcDbLine
 10
4.8809055511811019
 20
-4.452756732283464
 30
0
 11
4.8809055118110232
 21
-4.4527563779527561
 31
0
  0
LINE
  5
48
330
1A
100
AcDbEntity
  8
BLACK
  6
CONTINUOUS
100
AcDbLine
 10
4.8809055118110232
 20
-4.4527563779527561
 30
0
 11
4.8805118110236219
 21
-3.6259847244094487
 31
0
  0
LINE
  5
49
330
1A
100
AcDbEntity
  8
BLACK
  6
CONTINUOUS
100
AcDbLine
 10
4.8805118110236219
 20
-3.6259847244094487
 30
0
 11
4.8805118503937006
 21
-3.6259844094488187
 31
0
  0
LINE
  5
4A
330
1A
100
AcDbEntity
  8
BLACK
  6
CONTINUOUS
100
AcDbLine
 10
4.8805118503937006
 20
-3.6259844094488187
 30
0
 11
4.8805118110236219
 21
-3.6259842519685037
 31
0
  0
LINE
  5
4B
330
1A
100
AcDbEntity
  8
BLACK
  6
CONTINUOUS
100
AcDbLine
 10
4.8805118110236219
 20
-3.6259842519685037
 30
0
 11
4.8811248818897637
 21
-3.618976811023622
 31
0
  0
LINE
  5
4C
330
1A
100
AcDbEntity
  8
BLACK
  6
CONTINUOUS
100
AcDbLine
 10
4.8811248818897637
 20
-3.618976811023622
 30
0
 11
4.8829454724409445
 21
-3.612182244094488
 31
0
  0
LINE
  5
4D
330
1A
100
AcDbEntity
  8
BLACK
  6
CONTINUOUS
100
AcDbLine
 10
4.8829454724409445
 20
-3.612182244094488
 30
0
 11
4.8859182677165354
 21
-3.6058070866141732
 31
0
  0
LINE
  5
4E
330
1A
100
AcDbEntity
  8
BLACK
  6
CONTINUOUS
100
AcDbLine
 10
4.8859182677165354
 20
-3.6058070866141732
 30
0
 11
4.8899529133858266
 21
-3.600044960629921
 31
0
  0
LINE
  5
4F
330
1A
100
AcDbEntity
  8
BLACK
  6
CONTINUOUS
100
AcDbLine
 10
4.8899529133858266
 20
-3.600044960629921
 30
0
 11
4.8949268503937002
 21
-3.5950710236220473
 31
0
  0
LINE
  5
50
330
1A
100
AcDbEntity
  8
BLACK
  6
CONTINUOUS
100
AcDbLine
 10
4.8949268503937002
 20
-3.5950710236220473
 30
0
 11
4.9006889763779524
 21
-3.5910363779527557
 31
0
  0
LINE
  5
51
330
1A
100
AcDbEntity
  8
BLACK
  6
CONTINUOUS
100
AcDbLine
 10
4.9006889763779524
 20
-3.5910363779527557
 30
0
 11
4.9070641338582677
 21
-3.5880635826771652
 31
0
  0
LINE
  5
52
330
1A
100
AcDbEntity
  8
BLACK
  6
CONTINUOUS
100
AcDbLine
 10
4.9070641338582677
 20
-3.5880635826771652
 30
0
 11
4.9138587007874017
 21
-3.586242992125984
 31
0
  0
LINE
  5
53
330
1A
100
AcDbEntity
  8
BLACK
  6
CONTINUOUS
100
AcDbLine
 10
4.9138587007874017
 20
-3.586242992125984
 30
0
 11
4.920866141732283
 21
-3.5856299212598426
 31
0
  0
LINE
  5
54
330
1A
100
AcDbEntity
  8
BLACK
  6
CONTINUOUS
100
AcDbLine
 10
4.920866141732283
 20
-3.5856299212598426
 30
0
 11
4.9214446850393703
 21
-3.5858179133858266
 31
0
  0
LINE
  5
55
330
1A
100
AcDbEntity
  8
BLACK
  6
CONTINUOUS
100
AcDbLine
 10
4.9175078346456695
 20
-3.5875984251968505
 30
0
 11
4.9108932283464561
 21
-3.5887647637795275
 31
0
  0
LINE
  5
56
330
1A
100
AcDbEntity
  8
BLACK
  6
CONTINUOUS
100
AcDbLine
 10
4.9108932283464561
 20
-3.5887647637795275
 30
0
 11
4.9045816141732281
 21
-3.5910620078740156
 31
0
  0
LINE
  5
57
330
1A
100
AcDbEntity
  8
BLACK
  6
CONTINUOUS
100
AcDbLine
 10
4.9045816141732281
 20
-3.5910620078740156
 30
0
 11
4.898764842519685
 21
-3.59442031496063
 31
0
  0
LINE
  5
58
330
1A
100
AcDbEntity
  8
BLACK
  6
CONTINUOUS
100
AcDbLine
 10
4.898764842519685
 20
-3.59442031496063
 30
0
 11
4.893619566929134
 21
-3.5987376771653543
 31
0
  0
LINE
  5
59
330
1A
100
AcDbEntity
  8
BLACK
  6
CONTINUOUS
100
AcDbLine
 10
4.893619566929134
 20
-3.5987376771653543
 30
0
 11
4.8893022047244097
 21
-3.6038829527559053
 31
0
  0
LINE
  5
5A
330
1A
100
AcDbEntity
  8
BLACK
  6
CONTINUOUS
100
AcDbLine
 10
4.8893022047244097
 20
-3.6038829527559053
 30
0
 11
4.8859438976377954
 21
-3.6096997244094489
 31
0
  0
LINE
  5
5B
330
1A
100
AcDbEntity
  8
BLACK
  6
CONTINUOUS
100
AcDbLine
 10
4.8859438976377954
 20
-3.6096997244094489
 30
0
 11
4.8836466535433072
 21
-3.6160113385826769
 31
0
  0
LINE
  5
5C
330
1A
100
AcDbEntity
  8
BLACK
  6
CONTINUOUS
100
AcDbLine
 10
4.8836466535433072
 20
-3.6160113385826769
 30
0
 11
4.8824803149606302
 21
-3.6226259448818898
 31
0
  0
LINE
  5
5D
330
1A
100
AcDbEntity
  8
BLACK
  6
CONTINUOUS
100
AcDbLine
 10
4.8824803149606302
 20
-3.6226259448818898
 30
0
 11
4.8824803149606302
 21
-3.6259837795275591
 31
0
  0
LINE
  5
5E
330
1A
100
AcDbEntity
  8
BLACK
  6
CONTINUOUS
100
AcDbLine
 10
4.8824803149606302
 20
-3.6259837795275591
 30
0
 11
4.8828740157480315
 21
-4.4527554330708661
 31
0
  0
LINE
  5
5F
330
1A
100
AcDbEntity
  8
BLACK
  6
CONTINUOUS
100
AcDbLine
 10
4.8828740157480315
 20
-4.4527554330708661
 30
0
 11
4.882873937007874
 21
-4.4527557086614173
 31
0
  0
LINE
  5
60
330
1A
100
AcDbEntity
  8
BLACK
  6
CONTINUOUS
100
AcDbLine
 10
4.882873937007874
 20
-4.4527557086614173
 30
0
 11
4.8828740157480315
 21
-4.4527559055118111
 31
0
  0
LINE
  5
61
330
1A
100
AcDbEntity
  8
BLACK
  6
CONTINUOUS
100
AcDbLine
 10
4.8828740157480315
 20
-4.4527559055118111
 30
0
 11
4.8828740157480315
 21
-4.4561142125984254
 31
0
  0
LINE
  5
62
330
1A
100
AcDbEntity
  8
BLACK
  6
CONTINUOUS
100
AcDbLine
 10
4.8828740157480315
 20
-4.4561142125984254
 30
0
 11
4.8840403543307085
 21
-4.462728818897638
 31
0
  0
LINE
  5
63
330
1A
100
AcDbEntity
  8
BLACK
  6
CONTINUOUS
100
AcDbLine
 10
4.8840403543307085
 20
-4.462728818897638
 30
0
 11
4.8863375984251967
 21
-4.469040433070866
 31
0
  0
LINE
  5
64
330
1A
100
AcDbEntity
  8
BLACK
  6
CONTINUOUS
100
AcDbLine
 10
4.8863375984251967
 20
-4.469040433070866
 30
0
 11
4.889695905511811
 21
-4.4748572047244091
 31
0
  0
LINE
  5
65
330
1A
100
AcDbEntity
  8
BLACK
  6
CONTINUOUS
100
AcDbLine
 10
4.889695905511811
 20
-4.4748572047244091
 30
0
 11
4.8940132677165353
 21
-4.480002480314961
 31
0
  0
LINE
  5
66
330
1A
100
AcDbEntity
  8
BLACK
  6
CONTINUOUS
100
AcDbLine
 10
4.8940132677165353
 20
-4.480002480314961
 30
0
 11
4.8991585433070863
 21
-4.4843198425196853
 31
0
  0
LINE
  5
67
330
1A
100
AcDbEntity
  8
BLACK
  6
CONTINUOUS
100
AcDbLine
 10
4.8991585433070863
 20
-4.4843198425196853
 30
0
 11
4.9049753149606294
 21
-4.4876781496062987
 31
0
  0
LINE
  5
68
330
1A
100
AcDbEntity
  8
BLACK
  6
CONTINUOUS
100
AcDbLine
 10
4.9049753149606294
 20
-4.4876781496062987
 30
0
 11
4.9112869291338583
 21
-4.4899753937007869
 31
0
  0
LINE
  5
69
330
1A
100
AcDbEntity
  8
BLACK
  6
CONTINUOUS
100
AcDbLine
 10
4.9112869291338583
 20
-4.4899753937007869
 30
0
 11
4.9179015354330708
 21
-4.4911417322834648
 31
0
  0
LINE
  5
6A
330
1A
100
AcDbEntity
  8
BLACK
  6
CONTINUOUS
100
AcDbLine
 10
4.9179015354330708
 20
-4.4911417322834648
 30
0
 11
4.9212598425196852
 21
-4.4911417322834648
 31
0
  0
LINE
  5
6B
330
1A
100
AcDbEntity
  8
BLACK
  6
CONTINUOUS
100
AcDbLine
 10
4.9212598425196852
 20
-4.4911417322834648
 30
0
 11
5.6692913385826769
 21
-4.4911417322834648
 31
0
  0
LINE
  5
6C
330
1A
100
AcDbEntity
  8
BLACK
  6
CONTINUOUS
100
AcDbLine
 10
5.6692913385826769
 20
-4.4911417322834648
 30
0
 11
5.6726496456692912
 21
-4.4911417322834648
 31
0
  0
LINE
  5
6D
330
1A
100
AcDbEntity
  8
BLACK
  6
CONTINUOUS
100
AcDbLine
 10
5.6726496456692912
 20
-4.4911417322834648
 30
0
 11
5.6792642519685037
 21
-4.4899753937007869
 31
0
  0
LINE
  5
6E
330
1A
100
AcDbEntity
  8
BLACK
  6
CONTINUOUS
100
AcDbLine
 10
5.6792642519685037
 20
-4.4899753937007869
 30
0
 11
5.6855758661417317
 21
-4.4876781496062987
 31
0
  0
LINE
  5
6F
330
1A
100
AcDbEntity
  8
BLACK
  6
CONTINUOUS
100
AcDbLine
 10
5.6855758661417317
 20
-4.4876781496062987
 30
0
 11
5.6913926377952757
 21
-4.4843198425196853
 31
0
  0
LINE
  5
70
330
1A
100
AcDbEntity
  8
BLACK
  6
CONTINUOUS
100
AcDbLine
 10
5.6913926377952757
 20
-4.4843198425196853
 30
0
 11
5.6965379133858267
 21
-4.480002480314961
 31
0
  0
LINE
  5
71
330
1A
100
AcDbEntity
  8
BLACK
  6
CONTINUOUS
100
AcDbLine
 10
5.6965379133858267
 20
-4.480002480314961
 30
0
 11
5.7008552755905511
 21
-4.4748572047244091
 31
0
  0
LINE
  5
72
330
1A
100
AcDbEntity
  8
BLACK
  6
CONTINUOUS
100
AcDbLine
 10
5.7008552755905511
 20
-4.4748572047244091
 30
0
 11
5.7042135826771654
 21
-4.469040433070866
 31
0
  0
LINE
  5
73
330
1A
100
AcDbEntity
  8
BLACK
  6
CONTINUOUS
100
AcDbLine
 10
5.7042135826771654
 20
-4.469040433070866
 30
0
 11
5.7065108267716536
 21
-4.462728818897638
 31
0
  0
LINE
  5
74
330
1A
100
AcDbEntity
  8
BLACK
  6
CONTINUOUS
100
AcDbLine
 10
5.7065108267716536
 20
-4.462728818897638
 30
0
 11
5.7076771653543306
 21
-4.4561142125984254
 31
0
  0
LINE
  5
75
330
1A
100
AcDbEntity
  8
BLACK
  6
CONTINUOUS
100
AcDbLine
 10
5.7076771653543306
 20
-4.4561142125984254
 30
0
 11
5.7076771653543306
 21
-4.4527559055118111
 31
0
  0
LINE
  5
76
330
1A
100
AcDbEntity
  8
BLACK
  6
CONTINUOUS
100
AcDbLine
 10
5.7076771653543306
 20
-4.4527559055118111
 30
0
 11
5.7076771653543306
 21
-3.6263779527559055
 31
0
  0
LINE
  5
77
330
1A
100
AcDbEntity
  8
BLACK
  6
CONTINUOUS
100
AcDbLine
 10
5.7076771653543306
 20
-3.6263779527559055
 30
0
 11
5.7076771653543306
 21
-3.6230196456692911
 31
0
  0
LINE
  5
78
330
1A
100
AcDbEntity
  8
BLACK
  6
CONTINUOUS
100
AcDbLine
 10
5.7076771653543306
 20
-3.6230196456692911
 30
0
 11
5.7065108267716536
 21
-3.6164050393700786
 31
0
  0
LINE
  5
79
330
1A
100
AcDbEntity
  8
BLACK
  6
CONTINUOUS
100
AcDbLine
 10
5.7065108267716536
 20
-3.6164050393700786
 30
0
 11
5.7042135826771654
 21
-3.6100934251968502
 31
0
  0
LINE
  5
7A
330
1A
100
AcDbEntity
  8
BLACK
  6
CONTINUOUS
100
AcDbLine
 10
5.7042135826771654
 20
-3.6100934251968502
 30
0
 11
5.7008552755905511
 21
-3.6042766535433071
 31
0
  0
LINE
  5
7B
330
1A
100
AcDbEntity
  8
BLACK
  6
CONTINUOUS
100
AcDbLine
 10
5.7008552755905511
 20
-3.6042766535433071
 30
0
 11
5.6965379133858267
 21
-3.5991313779527556
 31
0
  0
LINE
  5
7C
330
1A
100
AcDbEntity
  8
BLACK
  6
CONTINUOUS
100
AcDbLine
 10
5.6965379133858267
 20
-3.5991313779527556
 30
0
 11
5.6913926377952757
 21
-3.5948140157480313
 31
0
  0
LINE
  5
7D
330
1A
100
AcDbEntity
  8
BLACK
  6
CONTINUOUS
100
AcDbLine
 10
5.6913926377952757
 20
-3.5948140157480313
 30
0
 11
5.6855758661417317
 21
-3.5914557086614174
 31
0
  0
LINE
  5
7E
330
1A
100
AcDbEntity
  8
BLACK
  6
CONTINUOUS
100
AcDbLine
 10
5.6855758661417317
 20
-3.5914557086614174
 30
0
 11
5.6792642519685037
 21
-3.5891584645669292
 31
0
  0
LINE
  5
7F
330
1A
100
AcDbEntity
  8
BLACK
  6
CONTINUOUS
100
AcDbLine
 10
5.6792642519685037
 20
-3.5891584645669292
 30
0
 11
5.6726496456692912
 21
-3.5879921259842518
 31
0
  0
LINE
  5
80
330
1A
100
AcDbEntity
  8
BLACK
  6
CONTINUOUS
100
AcDbLine
 10
5.6726496456692912
 20
-3.5879921259842518
 30
0
 11
5.6692913385826769
 21
-3.5879921259842518
 31
0
  0
LINE
  5
81
330
1A
100
AcDbEntity
  8
BLACK
  6
CONTINUOUS
100
AcDbLine
 10
5.6692913385826769
 20
-3.5879921259842518
 30
0
 11
4.920866141732283
 21
-3.5879921259842518
 31
0
  0
LINE
  5
82
330
1A
100
AcDbEntity
  8
BLACK
  6
CONTINUOUS
100
AcDbLine
 10
4.920866141732283
 20
-3.5879921259842518
 30
0
 11
4.9204894881889762
 21
-3.5879172047244094
 31
0
  0
LINE
  5
83
330
1A
100
AcDbEntity
  8
BLACK
  6
CONTINUOUS
100
AcDbLine
 10
4.9204894881889762
 20
-3.5879172047244094
 30
0
 11
4.9201707086614173
 21
-3.5875984251968505
 31
0
  0
LINE
  5
84
330
1A
100
AcDbEntity
  8
BLACK
  6
CONTINUOUS
100
AcDbLine
 10
4.9201707086614173
 20
-3.5875984251968505
 30
0
 11
4.9175078346456695
 21
-3.5875984251968505
 31
0
  0
ENDSEC
  0
SECTION
  2
OBJECTS
  0
DICTIONARY
  5
20
330
0
100
AcDbDictionary
281
1
  3
ACAD_GROUP
350
85
  3
ACAD_LAYOUT
350
21
  3
ACAD_PLOTSTYLENAME
350
11
  0
DICTIONARY
  5
85
330
20
100
AcDbDictionary
281
1
  0
ACDBDICTIONARYWDFLT
  5
11
330
20
100
AcDbDictionary
281
1
  3
Normal
350
10
100
AcDbDictionaryWithDefault
340
10
  0
ACDBPLACEHOLDER
  5
10
330
11
  0
DICTIONARY
  5
21
330
20
100
AcDbDictionary
281
1
  3
Model
350
1D
  3
Layout1
350
1E
  3
Layout2
350
1F
  0
LAYOUT
  5
1D
330
21
100
AcDbPlotSettings
  1

  2
none_device
  4
A3
  6

 40
0.0
 41
0.0
 42
0.0
 43
0.0
 44
420.0
 45
297.0
 46
0.0
 47
0.0
 48
0.0
 49
0.0
140
0.0
141
0.0
142
1.0
143
1.0
 70
1024
 72
1
 73
0
 74
5
  7

 75
16
 76
0
 77
2
 78
300
147
1.0
148
0.0
149
0.0
100
AcDbLayout
  1
Model
 70
1
 71
0
 10
0.0
 20
0.0
 11
420.0
 21
297.0
 12
0.0
 22
0.0
 32
0.0
 14
1e+20
 24
1e+20
 34
1e+20
 15
-1e+20
 25
-1e+20
 35
-1e+20
146
0.0
 13
0.0
 23
0.0
 33
0.0
 16
1.0
 26
0.0
 36
0.0
 17
0.0
 27
1.0
 37
0.0
 76
0
330
1A
  0
LAYOUT
  5
1E
330
21
100
AcDbPlotSettings
  1

  2
none_device
  4
A3
  6

 40
0.0
 41
0.0
 42
0.0
 43
0.0
 44
420.0
 45
297.0
 46
0.0
 47
0.0
 48
0.0
 49
0.0
140
0.0
141
0.0
142
1.0
143
1.0
 70
0
 72
1
 73
0
 74
5
  7

 75
16
 76
0
 77
2
 78
300
147
1.0
148
0.0
149
0.0
100
AcDbLayout
  1
Layout1
 70
1
 71
1
 10
0.0
 20
0.0
 11
420.0
 21
297.0
 12
0.0
 22
0.0
 32
0.0
 14
1e+20
 24
1e+20
 34
1e+20
 15
-1e+20
 25
-1e+20
 35
-1e+20
146
0.0
 13
0.0
 23
0.0
 33
0.0
 16
1.0
 26
0.0
 36
0.0
 17
0.0
 27
1.0
 37
0.0
 76
0
330
1B
  0
LAYOUT
  5
1F
330
21
100
AcDbPlotSettings
  1

  2
none_device
  4
A3
  6

 40
0.0
 41
0.0
 42
0.0
 43
0.0
 44
420.0
 45
297.0
 46
0.0
 47
0.0
 48
0.0
 49
0.0
140
0.0
141
0.0
142
1.0
143
1.0
 70
0
 72
1
 73
0
 74
5
  7

 75
16
 76
0
 77
2
 78
300
147
1.0
148
0.0
149
0.0
100
AcDbLayout
  1
Layout2
 70
1
 71
2
 10
0.0
 20
0.0
 11
420.0
 21
297.0
 12
0.0
 22
0.0
 32
0.0
 14
1e+20
 24
1e+20
 34
1e+20
 15
-1e+20
 25
-1e+20
 35
-1e+20
146
0.0
 13
0.0
 23
0.0
 33
0.0
 16
1.0
 26
0.0
 36
0.0
 17
0.0
 27
1.0
 37
0.0
 76
0
330
1C
  0
ENDSEC
  0
EOF
