  0
SECTION
  2
HEADER
  9
$ACADVER
  1
AC1018
  9
$HANDSEED
  5
FFFFFFFF
  9
$ANGBASE
  50
0.0
  9
$ANGDIR
  70
1
  9
$MEASUREMENT
  70
0
  9
$INSUNITS
  70
1
  0
ENDSEC
  0
SECTION
  2
TABLES
  0
TABLE
  2
APPID
  5
1
330
0
100
AcDbSymbolTable
 70
1
  0
APPID
  5
2
330
1
100
AcDbSymbolTableRecord
100
AcDbRegAppTableRecord
  2
ACAD
 70
0
  0
ENDTAB
  0
TABLE
  2
LTYPE
  5
3
330
0
100
AcDbSymbolTable
 70
6
  0
LTYPE
  5
4
330
3
100
AcDbSymbolTableRecord
100
AcDbLinetypeTableRecord
  2
ByBlock
 70
0
  3

 72
65
 73
0
 40
0
  0
LTYPE
  5
5
330
3
100
AcDbSymbolTableRecord
100
AcDbLinetypeTableRecord
  2
ByLayer
 70
0
  3

 72
65
 73
0
 40
0
  0
LTYPE
  5
6
330
3
100
AcDbSymbolTableRecord
100
AcDbLinetypeTableRecord
  2
CONTINUOUS
 70
0
  3
Solid line
 72
65
 73
0
 40
0
  0
LTYPE
  5
7
330
3
100
AcDbSymbolTableRecord
100
AcDbLinetypeTableRecord
  2
DASHDOT
 70
0
  3
Dash Dot ____ _ ____ _
 72
65
 73
4
 40
2
 49
1.25
 74
0
 49
-0.25
 74
0
 49
0.25
 74
0
 49
-0.25
 74
0
  0
LTYPE
  5
8
330
3
100
AcDbSymbolTableRecord
100
AcDbLinetypeTableRecord
  2
DASHED
 70
0
  3
Dashed __ __ __ __ __
 72
65
 73
2
 40
0.75
 49
0.5
 74
0
 49
-0.25
 74
0
  0
LTYPE
  5
9
330
3
100
AcDbSymbolTableRecord
100
AcDbLinetypeTableRecord
  2
DOTTED
 70
0
  3
Dotted .  .  .  .
 72
65
 73
2
 40
0.2
 49
0.0
 74
0
 49
-0.2
 74
0
  0
ENDTAB
  0
TABLE
  2
STYLE
  5
A
330
0
100
AcDbSymbolTable
 70
4
  0
STYLE
  5
B
330
A
100
AcDbSymbolTableRecord
100
AcDbTextStyleTableRecord
  2
KICAD
 70
0
 40
0
 41
1
 42
1
 50
0
 71
0
  3
isocp.shx
  0
STYLE
  5
C
330
A
100
AcDbSymbolTableRecord
100
AcDbTextStyleTableRecord
  2
KICADB
 70
0
 40
0
 41
1
 42
1
 50
0
 71
0
  3
isocp.shx
  0
STYLE
  5
D
330
A
100
AcDbSymbolTableRecord
100
AcDbTextStyleTableRecord
  2
KICADI
 70
0
 40
0
 41
1
 42
1
 50
15
 71
0
  3
isocp.shx
  0
STYLE
  5
E
330
A
100
AcDbSymbolTableRecord
100
AcDbTextStyleTableRecord
  2
KICADBI
 70
0
 40
0
 41
1
 42
1
 50
15
 71
0
  3
isocp.shx
  0
ENDTAB
  0
TABLE
  2
LAYER
  5
F
330
0
100
AcDbSymbolTable
 70
2
  0
LAYER
  5
12
330
F
100
AcDbSymbolTableRecord
100
AcDbLayerTableRecord
  2
0
 70
0
 62
7
  6
CONTINUOUS
390
10
  0
LAYER
  5
13
330
F
100
AcDbSymbolTableRecord
100
AcDbLayerTableRecord
  2
BLACK
 70
0
 62
250
  6
CONTINUOUS
390
10
  0
ENDTAB
  0
TABLE
  2
VPORT
  5
14
330
0
100
AcDbSymbolTable
 70
0
  0
ENDTAB
  0
TABLE
  2
VIEW
  5
15
330
0
100
AcDbSymbolTable
 70
0
  0
ENDTAB
  0
TABLE
  2
UCS
  5
16
330
0
100
AcDbSymbolTable
 70
0
  0
ENDTAB
  0
TABLE
  2
DIMSTYLE
  5
17
330
0
100
AcDbSymbolTable
 70
1
100
AcDbDimStyleTable
 71
0
  0
DIMSTYLE
105
18
330
17
100
AcDbSymbolTableRecord
100
AcDbDimStyleTableRecord
  2
Standard
 70
0
  0
ENDTAB
  0
TABLE
  2
BLOCK_RECORD
  5
19
330
0
100
AcDbSymbolTable
 70
3
  0
BLOCK_RECORD
  5
1A
330
19
100
AcDbSymbolTableRecord
100
AcDbBlockTableRecord
  2
*Model_Space
340
1D
 70
0
280
1
281
0
  0
BLOCK_RECORD
  5
1B
330
19
100
AcDbSymbolTableRecord
100
AcDbBlockTableRecord
  2
*Paper_Space
340
1E
 70
0
280
1
281
0
  0
BLOCK_RECORD
  5
1C
330
19
100
AcDbSymbolTableRecord
100
AcDbBlockTableRecord
  2
*Paper_Space0
340
1F
 70
0
280
1
281
0
  0
ENDTAB
  0
ENDSEC
  0
SECTION
  2
BLOCKS
  0
BLOCK
  5
23
330
1A
100
AcDbEntity
  8
0
100
AcDbBlockBegin
  2
*Model_Space
 70
0
 10
0.0
 20
0.0
 30
0.0
  3
*Model_Space
  1

  0
ENDBLK
  5
22
330
1A
100
AcDbEntity
  8
0
100
AcDbBlockEnd
  0
BLOCK
  5
25
330
1B
100
AcDbEntity
 67
1
  8
0
100
AcDbBlockBegin
  2
*Paper_Space
 70
0
 10
0.0
 20
0.0
 30
0.0
  3
*Paper_Space
  1

  0
ENDBLK
  5
24
330
1B
100
AcDbEntity
 67
1
  8
0
100
AcDbBlockEnd
  0
BLOCK
  5
27
330
1C
100
AcDbEntity
 67
1
  8
0
100
AcDbBlockBegin
  2
*Paper_Space0
 70
0
 10
0.0
 20
0.0
 30
0.0
  3
*Paper_Space0
  1

  0
ENDBLK
  5
26
330
1C
100
AcDbEntity
 67
1
  8
0
100
AcDbBlockEnd
  0
ENDSEC
  0
SECTION
  2
ENTITIES
  0
LINE
  5
28
330
1A
100
AcDbEntity
  8
BLACK
  6
CONTINUOUS
100
AcDbLine
 10
5.1615157086614172
 20
-4.4385848425196848
 30
0
 11
5.1615157086614172
 21
-4.4400677165354328
 31
0
  0
LINE
  5
29
330
1A
100
AcDbEntity
  8
BLACK
  6
CONTINUOUS
100
AcDbLine
 10
5.1615157086614172
 20
-4.4400677165354328
 30
0
 11
5.1610957086614171
 21
-4.4406962992125987
 31
0
  0
LINE
  5
2A
330
1A
100
AcDbEntity
  8
BLACK
  6
CONTINUOUS
100
AcDbLine
 10
5.1610957086614171
 20
-4.4406962992125987
 30
0
 11
5.1605799606299207
 21
-4.4412120078740154
 31
0
  0
LINE
  5
2B
330
1A
100
AcDbEntity
  8
BLACK
  6
CONTINUOUS
100
AcDbLine
 10
5.1605799606299207
 20
-4.4412120078740154
 30
0
 11
5.1604156692913383
 21
-4.4415405511811024
 31
0
  0
LINE
  5
2C
330
1A
100
AcDbEntity
  8
BLACK
  6
CONTINUOUS
100
AcDbLine
 10
5.1604156692913383
 20
-4.4415405511811024
 30
0
 11
5.1614586614173223
 21
-4.4436265354330704
 31
0
  0
LINE
  5
2D
330
1A
100
AcDbEntity
  8
BLACK
  6
CONTINUOUS
100
AcDbLine
 10
5.1614586614173223
 20
-4.4436265354330704
 30
0
 11
5.161658307086614
 21
-4.4443556692913386
 31
0
  0
LINE
  5
2E
330
1A
100
AcDbEntity
  8
BLACK
  6
CONTINUOUS
100
AcDbLine
 10
5.161658307086614
 20
-4.4443556692913386
 30
0
 11
5.1616125196850389
 21
-4.4444929921259844
 31
0
  0
LINE
  5
2F
330
1A
100
AcDbEntity
  8
BLACK
  6
CONTINUOUS
100
AcDbLine
 10
5.1616125196850389
 20
-4.4444929921259844
 30
0
 11
5.161658307086614
 21
-4.4446303543307089
 31
0
  0
LINE
  5
30
330
1A
100
AcDbEntity
  8
BLACK
  6
CONTINUOUS
100
AcDbLine
 10
5.161658307086614
 20
-4.4446303543307089
 30
0
 11
5.1614586220472436
 21
-4.4453594881889762
 31
0
  0
LINE
  5
31
330
1A
100
AcDbEntity
  8
BLACK
  6
CONTINUOUS
100
AcDbLine
 10
5.1614586220472436
 20
-4.4453594881889762
 30
0
 11
5.1607205118110233
 21
-4.4468356692913389
 31
0
  0
LINE
  5
32
330
1A
100
AcDbEntity
  8
BLACK
  6
CONTINUOUS
100
AcDbLine
 10
5.1607205118110233
 20
-4.4468356692913389
 30
0
 11
5.1605301574803146
 21
-4.447080905511811
 31
0
  0
LINE
  5
33
330
1A
100
AcDbEntity
  8
BLACK
  6
CONTINUOUS
100
AcDbLine
 10
5.1605301574803146
 20
-4.447080905511811
 30
0
 11
5.1603576377952756
 21
-4.447339133858268
 31
0
  0
LINE
  5
34
330
1A
100
AcDbEntity
  8
BLACK
  6
CONTINUOUS
100
AcDbLine
 10
5.1603576377952756
 20
-4.447339133858268
 30
0
 11
5.159619566929134
 21
-4.4480772440944882
 31
0
  0
LINE
  5
35
330
1A
100
AcDbEntity
  8
BLACK
  6
CONTINUOUS
100
AcDbLine
 10
5.159619566929134
 20
-4.4480772440944882
 30
0
 11
5.1589910236220469
 21
-4.4484972834645671
 31
0
  0
LINE
  5
36
330
1A
100
AcDbEntity
  8
BLACK
  6
CONTINUOUS
100
AcDbLine
 10
5.1589910236220469
 20
-4.4484972834645671
 30
0
 11
5.1575081496062989
 21
-4.4484973228346458
 31
0
  0
LINE
  5
37
330
1A
100
AcDbEntity
  8
BLACK
  6
CONTINUOUS
100
AcDbLine
 10
5.1575081496062989
 20
-4.4484973228346458
 30
0
 11
5.156459527559055
 21
-4.4474487795275586
 31
0
  0
LINE
  5
38
330
1A
100
AcDbEntity
  8
BLACK
  6
CONTINUOUS
100
AcDbLine
 10
5.156459527559055
 20
-4.4474487795275586
 30
0
 11
5.1564594881889763
 21
-4.4459659055118106
 31
0
  0
LINE
  5
39
330
1A
100
AcDbEntity
  8
BLACK
  6
CONTINUOUS
100
AcDbLine
 10
5.1564594881889763
 20
-4.4459659055118106
 30
0
 11
5.1568794881889763
 21
-4.4453373228346456
 31
0
  0
LINE
  5
3A
330
1A
100
AcDbEntity
  8
BLACK
  6
CONTINUOUS
100
AcDbLine
 10
5.1568794881889763
 20
-4.4453373228346456
 30
0
 11
5.1573952362204727
 21
-4.4448214960629917
 31
0
  0
LINE
  5
3B
330
1A
100
AcDbEntity
  8
BLACK
  6
CONTINUOUS
100
AcDbLine
 10
5.1573952362204727
 20
-4.4448214960629917
 30
0
 11
5.1575595275590551
 21
-4.4444929921259844
 31
0
  0
LINE
  5
3C
330
1A
100
AcDbEntity
  8
BLACK
  6
CONTINUOUS
100
AcDbLine
 10
5.1575595275590551
 20
-4.4444929921259844
 30
0
 11
5.1565165748031498
 21
-4.4424070472440942
 31
0
  0
LINE
  5
3D
330
1A
100
AcDbEntity
  8
BLACK
  6
CONTINUOUS
100
AcDbLine
 10
5.1565165748031498
 20
-4.4424070472440942
 30
0
 11
5.1563169291338582
 21
-4.4416779133858268
 31
0
  0
LINE
  5
3E
330
1A
100
AcDbEntity
  8
BLACK
  6
CONTINUOUS
100
AcDbLine
 10
5.1563169291338582
 20
-4.4416779133858268
 30
0
 11
5.1563626771653546
 21
-4.4415405511811024
 31
0
  0
LINE
  5
3F
330
1A
100
AcDbEntity
  8
BLACK
  6
CONTINUOUS
100
AcDbLine
 10
5.1563626771653546
 20
-4.4415405511811024
 30
0
 11
5.1563169291338582
 21
-4.4414032677165354
 31
0
  0
LINE
  5
40
330
1A
100
AcDbEntity
  8
BLACK
  6
CONTINUOUS
100
AcDbLine
 10
5.1563169291338582
 20
-4.4414032677165354
 30
0
 11
5.1565165748031498
 21
-4.440674133858268
 31
0
  0
LINE
  5
41
330
1A
100
AcDbEntity
  8
BLACK
  6
CONTINUOUS
100
AcDbLine
 10
5.1565165748031498
 20
-4.440674133858268
 30
0
 11
5.1572546456692914
 21
-4.4391979921259841
 31
0
  0
LINE
  5
42
330
1A
100
AcDbEntity
  8
BLACK
  6
CONTINUOUS
100
AcDbLine
 10
5.1572546456692914
 20
-4.4391979921259841
 30
0
 11
5.1574450393700788
 21
-4.4389526377952757
 31
0
  0
LINE
  5
43
330
1A
100
AcDbEntity
  8
BLACK
  6
CONTINUOUS
100
AcDbLine
 10
5.1574450393700788
 20
-4.4389526377952757
 30
0
 11
5.1576175984251966
 21
-4.4386944094488188
 31
0
  0
LINE
  5
44
330
1A
100
AcDbEntity
  8
BLACK
  6
CONTINUOUS
100
AcDbLine
 10
5.1576175984251966
 20
-4.4386944094488188
 30
0
 11
5.1583557086614169
 21
-4.4379562992125985
 31
0
  0
LINE
  5
45
330
1A
100
AcDbEntity
  8
BLACK
  6
CONTINUOUS
100
AcDbLine
 10
5.1583557086614169
 20
-4.4379562992125985
 30
0
 11
5.1589842913385828
 21
-4.4375362992125984
 31
0
  0
LINE
  5
46
330
1A
100
AcDbEntity
  8
BLACK
  6
CONTINUOUS
100
AcDbLine
 10
5.1589842913385828
 20
-4.4375362992125984
 30
0
 11
5.1604671653543308
 21
-4.4375362992125984
 31
0
  0
LINE
  5
47
330
1A
100
AcDbEntity
  8
BLACK
  6
CONTINUOUS
100
AcDbLine
 10
5.1604671653543308
 20
-4.4375362992125984
 30
0
 11
5.1615157086614172
 21
-4.4385848425196848
 31
0
  0
LINE
  5
48
330
1A
100
AcDbEntity
  8
BLACK
  6
CONTINUOUS
100
AcDbLine
 10
5.346555078740157
 20
-4.4385848425196848
 30
0
 11
5.346555078740157
 21
-4.4400677165354328
 31
0
  0
LINE
  5
49
330
1A
100
AcDbEntity
  8
BLACK
  6
CONTINUOUS
100
AcDbLine
 10
5.346555078740157
 20
-4.4400677165354328
 30
0
 11
5.3461350787401569
 21
-4.4406962992125987
 31
0
  0
LINE
  5
4A
330
1A
100
AcDbEntity
  8
BLACK
  6
CONTINUOUS
100
AcDbLine
 10
5.3461350787401569
 20
-4.4406962992125987
 30
0
 11
5.3456193307086615
 21
-4.4412120078740154
 31
0
  0
LINE
  5
4B
330
1A
100
AcDbEntity
  8
BLACK
  6
CONTINUOUS
100
AcDbLine
 10
5.3456193307086615
 20
-4.4412120078740154
 30
0
 11
5.345455039370079
 21
-4.4415405511811024
 31
0
  0
LINE
  5
4C
330
1A
100
AcDbEntity
  8
BLACK
  6
CONTINUOUS
100
AcDbLine
 10
5.345455039370079
 20
-4.4415405511811024
 30
0
 11
5.3464980314960631
 21
-4.4436265354330704
 31
0
  0
LINE
  5
4D
330
1A
100
AcDbEntity
  8
BLACK
  6
CONTINUOUS
100
AcDbLine
 10
5.3464980314960631
 20
-4.4436265354330704
 30
0
 11
5.3466976771653538
 21
-4.4443556692913386
 31
0
  0
LINE
  5
4E
330
1A
100
AcDbEntity
  8
BLACK
  6
CONTINUOUS
100
AcDbLine
 10
5.3466976771653538
 20
-4.4443556692913386
 30
0
 11
5.3466518897637796
 21
-4.4444929921259844
 31
0
  0
LINE
  5
4F
330
1A
100
AcDbEntity
  8
BLACK
  6
CONTINUOUS
100
AcDbLine
 10
5.3466518897637796
 20
-4.4444929921259844
 30
0
 11
5.3466976771653538
 21
-4.4446303543307089
 31
0
  0
LINE
  5
50
330
1A
100
AcDbEntity
  8
BLACK
  6
CONTINUOUS
100
AcDbLine
 10
5.3466976771653538
 20
-4.4446303543307089
 30
0
 11
5.3464979921259843
 21
-4.4453594881889762
 31
0
  0
LINE
  5
51
330
1A
100
AcDbEntity
  8
BLACK
  6
CONTINUOUS
100
AcDbLine
 10
5.3464979921259843
 20
-4.4453594881889762
 30
0
 11
5.345759881889764
 21
-4.4468356692913389
 31
0
  0
LINE
  5
52
330
1A
100
AcDbEntity
  8
BLACK
  6
CONTINUOUS
100
AcDbLine
 10
5.345759881889764
 20
-4.4468356692913389
 30
0
 11
5.3455695275590553
 21
-4.447080905511811
 31
0
  0
LINE
  5
53
330
1A
100
AcDbEntity
  8
BLACK
  6
CONTINUOUS
100
AcDbLine
 10
5.3455695275590553
 20
-4.447080905511811
 30
0
 11
5.3453970078740154
 21
-4.447339133858268
 31
0
  0
LINE
  5
54
330
1A
100
AcDbEntity
  8
BLACK
  6
CONTINUOUS
100
AcDbLine
 10
5.3453970078740154
 20
-4.447339133858268
 30
0
 11
5.3446589370078739
 21
-4.4480772440944882
 31
0
  0
LINE
  5
55
330
1A
100
AcDbEntity
  8
BLACK
  6
CONTINUOUS
100
AcDbLine
 10
5.3446589370078739
 20
-4.4480772440944882
 30
0
 11
5.3440303937007876
 21
-4.4484972834645671
 31
0
  0
LINE
  5
56
330
1A
100
AcDbEntity
  8
BLACK
  6
CONTINUOUS
100
AcDbLine
 10
5.3440303937007876
 20
-4.4484972834645671
 30
0
 11
5.3425475196850396
 21
-4.4484973228346458
 31
0
  0
LINE
  5
57
330
1A
100
AcDbEntity
  8
BLACK
  6
CONTINUOUS
100
AcDbLine
 10
5.3425475196850396
 20
-4.4484973228346458
 30
0
 11
5.3414988976377948
 21
-4.4474487795275586
 31
0
  0
LINE
  5
58
330
1A
100
AcDbEntity
  8
BLACK
  6
CONTINUOUS
100
AcDbLine
 10
5.3414988976377948
 20
-4.4474487795275586
 30
0
 11
5.3414988582677161
 21
-4.4459659055118106
 31
0
  0
LINE
  5
59
330
1A
100
AcDbEntity
  8
BLACK
  6
CONTINUOUS
100
AcDbLine
 10
5.3414988582677161
 20
-4.4459659055118106
 30
0
 11
5.3419188582677162
 21
-4.4453373228346456
 31
0
  0
LINE
  5
5A
330
1A
100
AcDbEntity
  8
BLACK
  6
CONTINUOUS
100
AcDbLine
 10
5.3419188582677162
 20
-4.4453373228346456
 30
0
 11
5.3424346062992125
 21
-4.4448214960629917
 31
0
  0
LINE
  5
5B
330
1A
100
AcDbEntity
  8
BLACK
  6
CONTINUOUS
100
AcDbLine
 10
5.3424346062992125
 20
-4.4448214960629917
 30
0
 11
5.3425988976377949
 21
-4.4444929921259844
 31
0
  0
LINE
  5
5C
330
1A
100
AcDbEntity
  8
BLACK
  6
CONTINUOUS
100
AcDbLine
 10
5.3425988976377949
 20
-4.4444929921259844
 30
0
 11
5.3415559448818897
 21
-4.4424070472440942
 31
0
  0
LINE
  5
5D
330
1A
100
AcDbEntity
  8
BLACK
  6
CONTINUOUS
100
AcDbLine
 10
5.3415559448818897
 20
-4.4424070472440942
 30
0
 11
5.341356299212598
 21
-4.4416779133858268
 31
0
  0
LINE
  5
5E
330
1A
100
AcDbEntity
  8
BLACK
  6
CONTINUOUS
100
AcDbLine
 10
5.341356299212598
 20
-4.4416779133858268
 30
0
 11
5.3414020472440944
 21
-4.4415405511811024
 31
0
  0
LINE
  5
5F
330
1A
100
AcDbEntity
  8
BLACK
  6
CONTINUOUS
100
AcDbLine
 10
5.3414020472440944
 20
-4.4415405511811024
 30
0
 11
5.341356299212598
 21
-4.4414032677165354
 31
0
  0
LINE
  5
60
330
1A
100
AcDbEntity
  8
BLACK
  6
CONTINUOUS
100
AcDbLine
 10
5.341356299212598
 20
-4.4414032677165354
 30
0
 11
5.3415559448818897
 21
-4.440674133858268
 31
0
  0
LINE
  5
61
330
1A
100
AcDbEntity
  8
BLACK
  6
CONTINUOUS
100
AcDbLine
 10
5.3415559448818897
 20
-4.440674133858268
 30
0
 11
5.3422940157480312
 21
-4.4391979921259841
 31
0
  0
LINE
  5
62
330
1A
100
AcDbEntity
  8
BLACK
  6
CONTINUOUS
100
AcDbLine
 10
5.3422940157480312
 20
-4.4391979921259841
 30
0
 11
5.3424844094488186
 21
-4.4389526377952757
 31
0
  0
LINE
  5
63
330
1A
100
AcDbEntity
  8
BLACK
  6
CONTINUOUS
100
AcDbLine
 10
5.3424844094488186
 20
-4.4389526377952757
 30
0
 11
5.3426569685039365
 21
-4.4386944094488188
 31
0
  0
LINE
  5
64
330
1A
100
AcDbEntity
  8
BLACK
  6
CONTINUOUS
100
AcDbLine
 10
5.3426569685039365
 20
-4.4386944094488188
 30
0
 11
5.3433950787401576
 21
-4.4379562992125985
 31
0
  0
LINE
  5
65
330
1A
100
AcDbEntity
  8
BLACK
  6
CONTINUOUS
100
AcDbLine
 10
5.3433950787401576
 20
-4.4379562992125985
 30
0
 11
5.3440236614173227
 21
-4.4375362992125984
 31
0
  0
LINE
  5
66
330
1A
100
AcDbEntity
  8
BLACK
  6
CONTINUOUS
100
AcDbLine
 10
5.3440236614173227
 20
-4.4375362992125984
 30
0
 11
5.3455065354330706
 21
-4.4375362992125984
 31
0
  0
LINE
  5
67
330
1A
100
AcDbEntity
  8
BLACK
  6
CONTINUOUS
100
AcDbLine
 10
5.3455065354330706
 20
-4.4375362992125984
 30
0
 11
5.346555078740157
 21
-4.4385848425196848
 31
0
  0
LINE
  5
68
330
1A
100
AcDbEntity
  8
BLACK
  6
CONTINUOUS
100
AcDbLine
 10
5.5315944488188977
 20
-4.4385848425196848
 30
0
 11
5.5315944488188977
 21
-4.4400677165354328
 31
0
  0
LINE
  5
69
330
1A
100
AcDbEntity
  8
BLACK
  6
CONTINUOUS
100
AcDbLine
 10
5.5315944488188977
 20
-4.4400677165354328
 30
0
 11
5.5311744488188976
 21
-4.4406962992125987
 31
0
  0
LINE
  5
6A
330
1A
100
AcDbEntity
  8
BLACK
  6
CONTINUOUS
100
AcDbLine
 10
5.5311744488188976
 20
-4.4406962992125987
 30
0
 11
5.5306587007874013
 21
-4.4412120078740154
 31
0
  0
LINE
  5
6B
330
1A
100
AcDbEntity
  8
BLACK
  6
CONTINUOUS
100
AcDbLine
 10
5.5306587007874013
 20
-4.4412120078740154
 30
0
 11
5.5304944094488189
 21
-4.4415405511811024
 31
0
  0
LINE
  5
6C
330
1A
100
AcDbEntity
  8
BLACK
  6
CONTINUOUS
100
AcDbLine
 10
5.5304944094488189
 20
-4.4415405511811024
 30
0
 11
5.5315374015748029
 21
-4.4436265354330704
 31
0
  0
LINE
  5
6D
330
1A
100
AcDbEntity
  8
BLACK
  6
CONTINUOUS
100
AcDbLine
 10
5.5315374015748029
 20
-4.4436265354330704
 30
0
 11
5.5317370472440945
 21
-4.4443556692913386
 31
0
  0
LINE
  5
6E
330
1A
100
AcDbEntity
  8
BLACK
  6
CONTINUOUS
100
AcDbLine
 10
5.5317370472440945
 20
-4.4443556692913386
 30
0
 11
5.5316912598425194
 21
-4.4444929921259844
 31
0
  0
LINE
  5
6F
330
1A
100
AcDbEntity
  8
BLACK
  6
CONTINUOUS
100
AcDbLine
 10
5.5316912598425194
 20
-4.4444929921259844
 30
0
 11
5.5317370472440945
 21
-4.4446303543307089
 31
0
  0
LINE
  5
70
330
1A
100
AcDbEntity
  8
BLACK
  6
CONTINUOUS
100
AcDbLine
 10
5.5317370472440945
 20
-4.4446303543307089
 30
0
 11
5.5315373622047241
 21
-4.4453594881889762
 31
0
  0
LINE
  5
71
330
1A
100
AcDbEntity
  8
BLACK
  6
CONTINUOUS
100
AcDbLine
 10
5.5315373622047241
 20
-4.4453594881889762
 30
0
 11
5.5307992519685039
 21
-4.4468356692913389
 31
0
  0
LINE
  5
72
330
1A
100
AcDbEntity
  8
BLACK
  6
CONTINUOUS
100
AcDbLine
 10
5.5307992519685039
 20
-4.4468356692913389
 30
0
 11
5.5306088976377952
 21
-4.447080905511811
 31
0
  0
LINE
  5
73
330
1A
100
AcDbEntity
  8
BLACK
  6
CONTINUOUS
100
AcDbLine
 10
5.5306088976377952
 20
-4.447080905511811
 30
0
 11
5.5304363779527561
 21
-4.447339133858268
 31
0
  0
LINE
  5
74
330
1A
100
AcDbEntity
  8
BLACK
  6
CONTINUOUS
100
AcDbLine
 10
5.5304363779527561
 20
-4.447339133858268
 30
0
 11
5.5296983070866137
 21
-4.4480772440944882
 31
0
  0
LINE
  5
75
330
1A
100
AcDbEntity
  8
BLACK
  6
CONTINUOUS
100
AcDbLine
 10
5.5296983070866137
 20
-4.4480772440944882
 30
0
 11
5.5290697637795274
 21
-4.4484972834645671
 31
0
  0
LINE
  5
76
330
1A
100
AcDbEntity
  8
BLACK
  6
CONTINUOUS
100
AcDbLine
 10
5.5290697637795274
 20
-4.4484972834645671
 30
0
 11
5.5275868897637794
 21
-4.4484973228346458
 31
0
  0
LINE
  5
77
330
1A
100
AcDbEntity
  8
BLACK
  6
CONTINUOUS
100
AcDbLine
 10
5.5275868897637794
 20
-4.4484973228346458
 30
0
 11
5.5265382677165356
 21
-4.4474487795275586
 31
0
  0
LINE
  5
78
330
1A
100
AcDbEntity
  8
BLACK
  6
CONTINUOUS
100
AcDbLine
 10
5.5265382677165356
 20
-4.4474487795275586
 30
0
 11
5.5265382283464568
 21
-4.4459659055118106
 31
0
  0
LINE
  5
79
330
1A
100
AcDbEntity
  8
BLACK
  6
CONTINUOUS
100
AcDbLine
 10
5.5265382283464568
 20
-4.4459659055118106
 30
0
 11
5.5269582283464569
 21
-4.4453373228346456
 31
0
  0
LINE
  5
7A
330
1A
100
AcDbEntity
  8
BLACK
  6
CONTINUOUS
100
AcDbLine
 10
5.5269582283464569
 20
-4.4453373228346456
 30
0
 11
5.5274739763779523
 21
-4.4448214960629917
 31
0
  0
LINE
  5
7B
330
1A
100
AcDbEntity
  8
BLACK
  6
CONTINUOUS
100
AcDbLine
 10
5.5274739763779523
 20
-4.4448214960629917
 30
0
 11
5.5276382677165357
 21
-4.4444929921259844
 31
0
  0
LINE
  5
7C
330
1A
100
AcDbEntity
  8
BLACK
  6
CONTINUOUS
100
AcDbLine
 10
5.5276382677165357
 20
-4.4444929921259844
 30
0
 11
5.5265953149606295
 21
-4.4424070472440942
 31
0
  0
LINE
  5
7D
330
1A
100
AcDbEntity
  8
BLACK
  6
CONTINUOUS
100
AcDbLine
 10
5.5265953149606295
 20
-4.4424070472440942
 30
0
 11
5.5263956692913387
 21
-4.4416779133858268
 31
0
  0
LINE
  5
7E
330
1A
100
AcDbEntity
  8
BLACK
  6
CONTINUOUS
100
AcDbLine
 10
5.5263956692913387
 20
-4.4416779133858268
 30
0
 11
5.5264414173228342
 21
-4.4415405511811024
 31
0
  0
LINE
  5
7F
330
1A
100
AcDbEntity
  8
BLACK
  6
CONTINUOUS
100
AcDbLine
 10
5.5264414173228342
 20
-4.4415405511811024
 30
0
 11
5.5263956692913387
 21
-4.4414032677165354
 31
0
  0
LINE
  5
80
330
1A
100
AcDbEntity
  8
BLACK
  6
CONTINUOUS
100
AcDbLine
 10
5.5263956692913387
 20
-4.4414032677165354
 30
0
 11
5.5265953149606295
 21
-4.440674133858268
 31
0
  0
LINE
  5
81
330
1A
100
AcDbEntity
  8
BLACK
  6
CONTINUOUS
100
AcDbLine
 10
5.5265953149606295
 20
-4.440674133858268
 30
0
 11
5.5273333858267719
 21
-4.4391979921259841
 31
0
  0
LINE
  5
82
330
1A
100
AcDbEntity
  8
BLACK
  6
CONTINUOUS
100
AcDbLine
 10
5.5273333858267719
 20
-4.4391979921259841
 30
0
 11
5.5275237795275594
 21
-4.4389526377952757
 31
0
  0
LINE
  5
83
330
1A
100
AcDbEntity
  8
BLACK
  6
CONTINUOUS
100
AcDbLine
 10
5.5275237795275594
 20
-4.4389526377952757
 30
0
 11
5.5276963385826772
 21
-4.4386944094488188
 31
0
  0
LINE
  5
84
330
1A
100
AcDbEntity
  8
BLACK
  6
CONTINUOUS
100
AcDbLine
 10
5.5276963385826772
 20
-4.4386944094488188
 30
0
 11
5.5284344488188975
 21
-4.4379562992125985
 31
0
  0
LINE
  5
85
330
1A
100
AcDbEntity
  8
BLACK
  6
CONTINUOUS
100
AcDbLine
 10
5.5284344488188975
 20
-4.4379562992125985
 30
0
 11
5.5290630314960625
 21
-4.4375362992125984
 31
0
  0
LINE
  5
86
330
1A
100
AcDbEntity
  8
BLACK
  6
CONTINUOUS
100
AcDbLine
 10
5.5290630314960625
 20
-4.4375362992125984
 30
0
 11
5.5305459055118105
 21
-4.4375362992125984
 31
0
  0
LINE
  5
87
330
1A
100
AcDbEntity
  8
BLACK
  6
CONTINUOUS
100
AcDbLine
 10
5.5305459055118105
 20
-4.4375362992125984
 30
0
 11
5.5315944488188977
 21
-4.4385848425196848
 31
0
  0
LINE
  5
88
330
1A
100
AcDbEntity
  8
BLACK
  6
CONTINUOUS
100
AcDbLine
 10
4.9764763385826774
 20
-4.438112401574803
 30
0
 11
4.9764763385826774
 21
-4.439595275590551
 31
0
  0
LINE
  5
89
330
1A
100
AcDbEntity
  8
BLACK
  6
CONTINUOUS
100
AcDbLine
 10
4.9764763385826774
 20
-4.439595275590551
 30
0
 11
4.9760563385826773
 21
-4.440223858267716
 31
0
  0
LINE
  5
8A
330
1A
100
AcDbEntity
  8
BLACK
  6
CONTINUOUS
100
AcDbLine
 10
4.9760563385826773
 20
-4.440223858267716
 30
0
 11
4.9755405905511809
 21
-4.4407395669291336
 31
0
  0
LINE
  5
8B
330
1A
100
AcDbEntity
  8
BLACK
  6
CONTINUOUS
100
AcDbLine
 10
4.9755405905511809
 20
-4.4407395669291336
 30
0
 11
4.9753762992125985
 21
-4.4410681102362206
 31
0
  0
LINE
  5
8C
330
1A
100
AcDbEntity
  8
BLACK
  6
CONTINUOUS
100
AcDbLine
 10
4.9753762992125985
 20
-4.4410681102362206
 30
0
 11
4.9764192913385825
 21
-4.4431540944881887
 31
0
  0
LINE
  5
8D
330
1A
100
AcDbEntity
  8
BLACK
  6
CONTINUOUS
100
AcDbLine
 10
4.9764192913385825
 20
-4.4431540944881887
 30
0
 11
4.9766189370078742
 21
-4.4438832283464569
 31
0
  0
LINE
  5
8E
330
1A
100
AcDbEntity
  8
BLACK
  6
CONTINUOUS
100
AcDbLine
 10
4.9766189370078742
 20
-4.4438832283464569
 30
0
 11
4.976573149606299
 21
-4.4440205511811026
 31
0
  0
LINE
  5
8F
330
1A
100
AcDbEntity
  8
BLACK
  6
CONTINUOUS
100
AcDbLine
 10
4.976573149606299
 20
-4.4440205511811026
 30
0
 11
4.9766189370078742
 21
-4.4441579133858271
 31
0
  0
LINE
  5
90
330
1A
100
AcDbEntity
  8
BLACK
  6
CONTINUOUS
100
AcDbLine
 10
4.9766189370078742
 20
-4.4441579133858271
 30
0
 11
4.9764192519685038
 21
-4.4448870472440944
 31
0
  0
LINE
  5
91
330
1A
100
AcDbEntity
  8
BLACK
  6
CONTINUOUS
100
AcDbLine
 10
4.9764192519685038
 20
-4.4448870472440944
 30
0
 11
4.9756811417322835
 21
-4.4463632283464563
 31
0
  0
LINE
  5
92
330
1A
100
AcDbEntity
  8
BLACK
  6
CONTINUOUS
100
AcDbLine
 10
4.9756811417322835
 20
-4.4463632283464563
 30
0
 11
4.9754907874015748
 21
-4.4466084645669293
 31
0
  0
LINE
  5
93
330
1A
100
AcDbEntity
  8
BLACK
  6
CONTINUOUS
100
AcDbLine
 10
4.9754907874015748
 20
-4.4466084645669293
 30
0
 11
4.9753182677165357
 21
-4.4468666929133853
 31
0
  0
LINE
  5
94
330
1A
100
AcDbEntity
  8
BLACK
  6
CONTINUOUS
100
AcDbLine
 10
4.9753182677165357
 20
-4.4468666929133853
 30
0
 11
4.9745801968503933
 21
-4.4476048031496065
 31
0
  0
LINE
  5
95
330
1A
100
AcDbEntity
  8
BLACK
  6
CONTINUOUS
100
AcDbLine
 10
4.9745801968503933
 20
-4.4476048031496065
 30
0
 11
4.973951653543307
 21
-4.4480248425196853
 31
0
  0
LINE
  5
96
330
1A
100
AcDbEntity
  8
BLACK
  6
CONTINUOUS
100
AcDbLine
 10
4.973951653543307
 20
-4.4480248425196853
 30
0
 11
4.9724687795275591
 21
-4.4480248818897641
 31
0
  0
LINE
  5
97
330
1A
100
AcDbEntity
  8
BLACK
  6
CONTINUOUS
100
AcDbLine
 10
4.9724687795275591
 20
-4.4480248818897641
 30
0
 11
4.9714201574803152
 21
-4.4469763385826768
 31
0
  0
LINE
  5
98
330
1A
100
AcDbEntity
  8
BLACK
  6
CONTINUOUS
100
AcDbLine
 10
4.9714201574803152
 20
-4.4469763385826768
 30
0
 11
4.9714201181102364
 21
-4.4454934645669288
 31
0
  0
LINE
  5
99
330
1A
100
AcDbEntity
  8
BLACK
  6
CONTINUOUS
100
AcDbLine
 10
4.9714201181102364
 20
-4.4454934645669288
 30
0
 11
4.9718401181102365
 21
-4.4448648818897638
 31
0
  0
LINE
  5
9A
330
1A
100
AcDbEntity
  8
BLACK
  6
CONTINUOUS
100
AcDbLine
 10
4.9718401181102365
 20
-4.4448648818897638
 30
0
 11
4.972355866141732
 21
-4.44434905511811
 31
0
  0
LINE
  5
9B
330
1A
100
AcDbEntity
  8
BLACK
  6
CONTINUOUS
100
AcDbLine
 10
4.972355866141732
 20
-4.44434905511811
 30
0
 11
4.9725201574803153
 21
-4.4440205511811026
 31
0
  0
LINE
  5
9C
330
1A
100
AcDbEntity
  8
BLACK
  6
CONTINUOUS
100
AcDbLine
 10
4.9725201574803153
 20
-4.4440205511811026
 30
0
 11
4.9714772047244091
 21
-4.4419346062992124
 31
0
  0
LINE
  5
9D
330
1A
100
AcDbEntity
  8
BLACK
  6
CONTINUOUS
100
AcDbLine
 10
4.9714772047244091
 20
-4.4419346062992124
 30
0
 11
4.9712775590551184
 21
-4.4412054724409451
 31
0
  0
LINE
  5
9E
330
1A
100
AcDbEntity
  8
BLACK
  6
CONTINUOUS
100
AcDbLine
 10
4.9712775590551184
 20
-4.4412054724409451
 30
0
 11
4.9713233070866139
 21
-4.4410681102362206
 31
0
  0
LINE
  5
9F
330
1A
100
AcDbEntity
  8
BLACK
  6
CONTINUOUS
100
AcDbLine
 10
4.9713233070866139
 20
-4.4410681102362206
 30
0
 11
4.9712775590551184
 21
-4.4409308267716536
 31
0
  0
LINE
  5
A0
330
1A
100
AcDbEntity
  8
BLACK
  6
CONTINUOUS
100
AcDbLine
 10
4.9712775590551184
 20
-4.4409308267716536
 30
0
 11
4.9714772047244091
 21
-4.4402016929133854
 31
0
  0
LINE
  5
A1
330
1A
100
AcDbEntity
  8
BLACK
  6
CONTINUOUS
100
AcDbLine
 10
4.9714772047244091
 20
-4.4402016929133854
 30
0
 11
4.9722152755905507
 21
-4.4387255511811023
 31
0
  0
LINE
  5
A2
330
1A
100
AcDbEntity
  8
BLACK
  6
CONTINUOUS
100
AcDbLine
 10
4.9722152755905507
 20
-4.4387255511811023
 30
0
 11
4.9724056692913381
 21
-4.438480196850394
 31
0
  0
LINE
  5
A3
330
1A
100
AcDbEntity
  8
BLACK
  6
CONTINUOUS
100
AcDbLine
 10
4.9724056692913381
 20
-4.438480196850394
 30
0
 11
4.9725782283464568
 21
-4.438221968503937
 31
0
  0
LINE
  5
A4
330
1A
100
AcDbEntity
  8
BLACK
  6
CONTINUOUS
100
AcDbLine
 10
4.9725782283464568
 20
-4.438221968503937
 30
0
 11
4.9733163385826771
 21
-4.4374838582677167
 31
0
  0
LINE
  5
A5
330
1A
100
AcDbEntity
  8
BLACK
  6
CONTINUOUS
100
AcDbLine
 10
4.9733163385826771
 20
-4.4374838582677167
 30
0
 11
4.9739449212598421
 21
-4.4370638582677167
 31
0
  0
LINE
  5
A6
330
1A
100
AcDbEntity
  8
BLACK
  6
CONTINUOUS
100
AcDbLine
 10
4.9739449212598421
 20
-4.4370638582677167
 30
0
 11
4.9754277952755901
 21
-4.4370638582677167
 31
0
  0
LINE
  5
A7
330
1A
100
AcDbEntity
  8
BLACK
  6
CONTINUOUS
100
AcDbLine
 10
4.9754277952755901
 20
-4.4370638582677167
 30
0
 11
4.9764763385826774
 21
-4.438112401574803
 31
0
  0
LINE
  5
A8
330
1A
100
AcDbEntity
  8
BLACK
  6
CONTINUOUS
100
AcDbLine
 10
5.1359960629921257
 20
-4.3395013385826768
 30
0
 11
5.1373490551181105
 21
-4.3408543307086616
 31
0
  0
LINE
  5
A9
330
1A
100
AcDbEntity
  8
BLACK
  6
CONTINUOUS
100
AcDbLine
 10
5.1373490551181105
 20
-4.3408543307086616
 30
0
 11
5.1375393700787404
 21
-4.3418110236220473
 31
0
  0
LINE
  5
AA
330
1A
100
AcDbEntity
  8
BLACK
  6
CONTINUOUS
100
AcDbLine
 10
5.1375393700787404
 20
-4.3418110236220473
 30
0
 11
5.1375393700787404
 21
-4.3835433070866143
 31
0
  0
LINE
  5
AB
330
1A
100
AcDbEntity
  8
BLACK
  6
CONTINUOUS
100
AcDbLine
 10
5.1375393700787404
 20
-4.3835433070866143
 30
0
 11
5.1373490551181105
 21
-4.3845000000000001
 31
0
  0
LINE
  5
AC
330
1A
100
AcDbEntity
  8
BLACK
  6
CONTINUOUS
100
AcDbLine
 10
5.1373490551181105
 20
-4.3845000000000001
 30
0
 11
5.1359960629921257
 21
-4.3858529921259839
 31
0
  0
LINE
  5
AD
330
1A
100
AcDbEntity
  8
BLACK
  6
CONTINUOUS
100
AcDbLine
 10
5.1359960629921257
 20
-4.3858529921259839
 30
0
 11
5.13503937007874
 21
-4.3860433070866138
 31
0
  0
LINE
  5
AE
330
1A
100
AcDbEntity
  8
BLACK
  6
CONTINUOUS
100
AcDbLine
 10
5.13503937007874
 20
-4.3860433070866138
 30
0
 11
5.1129921259842517
 21
-4.3860433070866138
 31
0
  0
LINE
  5
AF
330
1A
100
AcDbEntity
  8
BLACK
  6
CONTINUOUS
100
AcDbLine
 10
5.1129921259842517
 20
-4.3860433070866138
 30
0
 11
5.1120354330708659
 21
-4.3858529921259839
 31
0
  0
LINE
  5
B0
330
1A
100
AcDbEntity
  8
BLACK
  6
CONTINUOUS
100
AcDbLine
 10
5.1120354330708659
 20
-4.3858529921259839
 30
0
 11
5.1106824409448821
 21
-4.3845000000000001
 31
0
  0
LINE
  5
B1
330
1A
100
AcDbEntity
  8
BLACK
  6
CONTINUOUS
100
AcDbLine
 10
5.1106824409448821
 20
-4.3845000000000001
 30
0
 11
5.1104921259842522
 21
-4.3835433070866143
 31
0
  0
LINE
  5
B2
330
1A
100
AcDbEntity
  8
BLACK
  6
CONTINUOUS
100
AcDbLine
 10
5.1104921259842522
 20
-4.3835433070866143
 30
0
 11
5.1104921259842522
 21
-4.3418110236220473
 31
0
  0
LINE
  5
B3
330
1A
100
AcDbEntity
  8
BLACK
  6
CONTINUOUS
100
AcDbLine
 10
5.1104921259842522
 20
-4.3418110236220473
 30
0
 11
5.1106824409448821
 21
-4.3408543307086616
 31
0
  0
LINE
  5
B4
330
1A
100
AcDbEntity
  8
BLACK
  6
CONTINUOUS
100
AcDbLine
 10
5.1106824409448821
 20
-4.3408543307086616
 30
0
 11
5.1120354330708659
 21
-4.3395013385826768
 31
0
  0
LINE
  5
B5
330
1A
100
AcDbEntity
  8
BLACK
  6
CONTINUOUS
100
AcDbLine
 10
5.1120354330708659
 20
-4.3395013385826768
 30
0
 11
5.1129921259842517
 21
-4.3393110236220469
 31
0
  0
LINE
  5
B6
330
1A
100
AcDbEntity
  8
BLACK
  6
CONTINUOUS
100
AcDbLine
 10
5.1129921259842517
 20
-4.3393110236220469
 30
0
 11
5.13503937007874
 21
-4.3393110236220469
 31
0
  0
LINE
  5
B7
330
1A
100
AcDbEntity
  8
BLACK
  6
CONTINUOUS
100
AcDbLine
 10
5.13503937007874
 20
-4.3393110236220469
 30
0
 11
5.1359960629921257
 21
-4.3395013385826768
 31
0
  0
LINE
  5
B8
330
1A
100
AcDbEntity
  8
BLACK
  6
CONTINUOUS
100
AcDbLine
 10
5.1154921259842521
 20
-4.3443110236220468
 30
0
 11
5.1154921259842521
 21
-4.3810433070866139
 31
0
  0
LINE
  5
B9
330
1A
100
AcDbEntity
  8
BLACK
  6
CONTINUOUS
100
AcDbLine
 10
5.1154921259842521
 20
-4.3810433070866139
 30
0
 11
5.1325393700787396
 21
-4.3810433070866139
 31
0
  0
LINE
  5
BA
330
1A
100
AcDbEntity
  8
BLACK
  6
CONTINUOUS
100
AcDbLine
 10
5.1325393700787396
 20
-4.3810433070866139
 30
0
 11
5.1325393700787396
 21
-4.3443110236220468
 31
0
  0
LINE
  5
BB
330
1A
100
AcDbEntity
  8
BLACK
  6
CONTINUOUS
100
AcDbLine
 10
5.1325393700787396
 20
-4.3443110236220468
 30
0
 11
5.1154921259842521
 21
-4.3443110236220468
 31
0
  0
LINE
  5
BC
330
1A
100
AcDbEntity
  8
BLACK
  6
CONTINUOUS
100
AcDbLine
 10
5.3210354330708665
 20
-4.3395013385826768
 30
0
 11
5.3223884251968503
 21
-4.3408543307086616
 31
0
  0
LINE
  5
BD
330
1A
100
AcDbEntity
  8
BLACK
  6
CONTINUOUS
100
AcDbLine
 10
5.3223884251968503
 20
-4.3408543307086616
 30
0
 11
5.3225787401574802
 21
-4.3418110236220473
 31
0
  0
LINE
  5
BE
330
1A
100
AcDbEntity
  8
BLACK
  6
CONTINUOUS
100
AcDbLine
 10
5.3225787401574802
 20
-4.3418110236220473
 30
0
 11
5.3225787401574802
 21
-4.3835433070866143
 31
0
  0
LINE
  5
BF
330
1A
100
AcDbEntity
  8
BLACK
  6
CONTINUOUS
100
AcDbLine
 10
5.3225787401574802
 20
-4.3835433070866143
 30
0
 11
5.3223884251968503
 21
-4.3845000000000001
 31
0
  0
LINE
  5
C0
330
1A
100
AcDbEntity
  8
BLACK
  6
CONTINUOUS
100
AcDbLine
 10
5.3223884251968503
 20
-4.3845000000000001
 30
0
 11
5.3210354330708665
 21
-4.3858529921259839
 31
0
  0
LINE
  5
C1
330
1A
100
AcDbEntity
  8
BLACK
  6
CONTINUOUS
100
AcDbLine
 10
5.3210354330708665
 20
-4.3858529921259839
 30
0
 11
5.3200787401574798
 21
-4.3860433070866138
 31
0
  0
LINE
  5
C2
330
1A
100
AcDbEntity
  8
BLACK
  6
CONTINUOUS
100
AcDbLine
 10
5.3200787401574798
 20
-4.3860433070866138
 30
0
 11
5.2980314960629924
 21
-4.3860433070866138
 31
0
  0
LINE
  5
C3
330
1A
100
AcDbEntity
  8
BLACK
  6
CONTINUOUS
100
AcDbLine
 10
5.2980314960629924
 20
-4.3860433070866138
 30
0
 11
5.2970748031496058
 21
-4.3858529921259839
 31
0
  0
LINE
  5
C4
330
1A
100
AcDbEntity
  8
BLACK
  6
CONTINUOUS
100
AcDbLine
 10
5.2970748031496058
 20
-4.3858529921259839
 30
0
 11
5.2957218110236219
 21
-4.3845000000000001
 31
0
  0
LINE
  5
C5
330
1A
100
AcDbEntity
  8
BLACK
  6
CONTINUOUS
100
AcDbLine
 10
5.2957218110236219
 20
-4.3845000000000001
 30
0
 11
5.295531496062992
 21
-4.3835433070866143
 31
0
  0
LINE
  5
C6
330
1A
100
AcDbEntity
  8
BLACK
  6
CONTINUOUS
100
AcDbLine
 10
5.295531496062992
 20
-4.3835433070866143
 30
0
 11
5.295531496062992
 21
-4.3418110236220473
 31
0
  0
LINE
  5
C7
330
1A
100
AcDbEntity
  8
BLACK
  6
CONTINUOUS
100
AcDbLine
 10
5.295531496062992
 20
-4.3418110236220473
 30
0
 11
5.2957218110236219
 21
-4.3408543307086616
 31
0
  0
LINE
  5
C8
330
1A
100
AcDbEntity
  8
BLACK
  6
CONTINUOUS
100
AcDbLine
 10
5.2957218110236219
 20
-4.3408543307086616
 30
0
 11
5.2970748031496058
 21
-4.3395013385826768
 31
0
  0
LINE
  5
C9
330
1A
100
AcDbEntity
  8
BLACK
  6
CONTINUOUS
100
AcDbLine
 10
5.2970748031496058
 20
-4.3395013385826768
 30
0
 11
5.2980314960629924
 21
-4.3393110236220469
 31
0
  0
LINE
  5
CA
330
1A
100
AcDbEntity
  8
BLACK
  6
CONTINUOUS
100
AcDbLine
 10
5.2980314960629924
 20
-4.3393110236220469
 30
0
 11
5.3200787401574798
 21
-4.3393110236220469
 31
0
  0
LINE
  5
CB
330
1A
100
AcDbEntity
  8
BLACK
  6
CONTINUOUS
100
AcDbLine
 10
5.3200787401574798
 20
-4.3393110236220469
 30
0
 11
5.3210354330708665
 21
-4.3395013385826768
 31
0
  0
LINE
  5
CC
330
1A
100
AcDbEntity
  8
BLACK
  6
CONTINUOUS
100
AcDbLine
 10
5.3005314960629919
 20
-4.3443110236220468
 30
0
 11
5.3005314960629919
 21
-4.3810433070866139
 31
0
  0
LINE
  5
CD
330
1A
100
AcDbEntity
  8
BLACK
  6
CONTINUOUS
100
AcDbLine
 10
5.3005314960629919
 20
-4.3810433070866139
 30
0
 11
5.3175787401574803
 21
-4.3810433070866139
 31
0
  0
LINE
  5
CE
330
1A
100
AcDbEntity
  8
BLACK
  6
CONTINUOUS
100
AcDbLine
 10
5.3175787401574803
 20
-4.3810433070866139
 30
0
 11
5.3175787401574803
 21
-4.3443110236220468
 31
0
  0
LINE
  5
CF
330
1A
100
AcDbEntity
  8
BLACK
  6
CONTINUOUS
100
AcDbLine
 10
5.3175787401574803
 20
-4.3443110236220468
 30
0
 11
5.3005314960629919
 21
-4.3443110236220468
 31
0
  0
LINE
  5
D0
330
1A
100
AcDbEntity
  8
BLACK
  6
CONTINUOUS
100
AcDbLine
 10
5.5060748031496063
 20
-4.3395013385826768
 30
0
 11
5.5074277952755901
 21
-4.3408543307086616
 31
0
  0
LINE
  5
D1
330
1A
100
AcDbEntity
  8
BLACK
  6
CONTINUOUS
100
AcDbLine
 10
5.5074277952755901
 20
-4.3408543307086616
 30
0
 11
5.5076181102362201
 21
-4.3418110236220473
 31
0
  0
LINE
  5
D2
330
1A
100
AcDbEntity
  8
BLACK
  6
CONTINUOUS
100
AcDbLine
 10
5.5076181102362201
 20
-4.3418110236220473
 30
0
 11
5.5076181102362201
 21
-4.3835433070866143
 31
0
  0
LINE
  5
D3
330
1A
100
AcDbEntity
  8
BLACK
  6
CONTINUOUS
100
AcDbLine
 10
5.5076181102362201
 20
-4.3835433070866143
 30
0
 11
5.5074277952755901
 21
-4.3845000000000001
 31
0
  0
LINE
  5
D4
330
1A
100
AcDbEntity
  8
BLACK
  6
CONTINUOUS
100
AcDbLine
 10
5.5074277952755901
 20
-4.3845000000000001
 30
0
 11
5.5060748031496063
 21
-4.3858529921259839
 31
0
  0
LINE
  5
D5
330
1A
100
AcDbEntity
  8
BLACK
  6
CONTINUOUS
100
AcDbLine
 10
5.5060748031496063
 20
-4.3858529921259839
 30
0
 11
5.5051181102362206
 21
-4.3860433070866138
 31
0
  0
LINE
  5
D6
330
1A
100
AcDbEntity
  8
BLACK
  6
CONTINUOUS
100
AcDbLine
 10
5.5051181102362206
 20
-4.3860433070866138
 30
0
 11
5.4830708661417322
 21
-4.3860433070866138
 31
0
  0
LINE
  5
D7
330
1A
100
AcDbEntity
  8
BLACK
  6
CONTINUOUS
100
AcDbLine
 10
5.4830708661417322
 20
-4.3860433070866138
 30
0
 11
5.4821141732283465
 21
-4.3858529921259839
 31
0
  0
LINE
  5
D8
330
1A
100
AcDbEntity
  8
BLACK
  6
CONTINUOUS
100
AcDbLine
 10
5.4821141732283465
 20
-4.3858529921259839
 30
0
 11
5.4807611811023618
 21
-4.3845000000000001
 31
0
  0
LINE
  5
D9
330
1A
100
AcDbEntity
  8
BLACK
  6
CONTINUOUS
100
AcDbLine
 10
5.4807611811023618
 20
-4.3845000000000001
 30
0
 11
5.4805708661417318
 21
-4.3835433070866143
 31
0
  0
LINE
  5
DA
330
1A
100
AcDbEntity
  8
BLACK
  6
CONTINUOUS
100
AcDbLine
 10
5.4805708661417318
 20
-4.3835433070866143
 30
0
 11
5.4805708661417318
 21
-4.3418110236220473
 31
0
  0
LINE
  5
DB
330
1A
100
AcDbEntity
  8
BLACK
  6
CONTINUOUS
100
AcDbLine
 10
5.4805708661417318
 20
-4.3418110236220473
 30
0
 11
5.4807611811023618
 21
-4.3408543307086616
 31
0
  0
LINE
  5
DC
330
1A
100
AcDbEntity
  8
BLACK
  6
CONTINUOUS
100
AcDbLine
 10
5.4807611811023618
 20
-4.3408543307086616
 30
0
 11
5.4821141732283465
 21
-4.3395013385826768
 31
0
  0
LINE
  5
DD
330
1A
100
AcDbEntity
  8
BLACK
  6
CONTINUOUS
100
AcDbLine
 10
5.4821141732283465
 20
-4.3395013385826768
 30
0
 11
5.4830708661417322
 21
-4.3393110236220469
 31
0
  0
LINE
  5
DE
330
1A
100
AcDbEntity
  8
BLACK
  6
CONTINUOUS
100
AcDbLine
 10
5.4830708661417322
 20
-4.3393110236220469
 30
0
 11
5.5051181102362206
 21
-4.3393110236220469
 31
0
  0
LINE
  5
DF
330
1A
100
AcDbEntity
  8
BLACK
  6
CONTINUOUS
100
AcDbLine
 10
5.5051181102362206
 20
-4.3393110236220469
 30
0
 11
5.5060748031496063
 21
-4.3395013385826768
 31
0
  0
LINE
  5
E0
330
1A
100
AcDbEntity
  8
BLACK
  6
CONTINUOUS
100
AcDbLine
 10
5.4855708661417317
 20
-4.3443110236220468
 30
0
 11
5.4855708661417317
 21
-4.3810433070866139
 31
0
  0
LINE
  5
E1
330
1A
100
AcDbEntity
  8
BLACK
  6
CONTINUOUS
100
AcDbLine
 10
5.4855708661417317
 20
-4.3810433070866139
 30
0
 11
5.5026181102362202
 21
-4.3810433070866139
 31
0
  0
LINE
  5
E2
330
1A
100
AcDbEntity
  8
BLACK
  6
CONTINUOUS
100
AcDbLine
 10
5.5026181102362202
 20
-4.3810433070866139
 30
0
 11
5.5026181102362202
 21
-4.3443110236220468
 31
0
  0
LINE
  5
E3
330
1A
100
AcDbEntity
  8
BLACK
  6
CONTINUOUS
100
AcDbLine
 10
5.5026181102362202
 20
-4.3443110236220468
 30
0
 11
5.4855708661417317
 21
-4.3443110236220468
 31
0
  0
LINE
  5
E4
330
1A
100
AcDbEntity
  8
BLACK
  6
CONTINUOUS
100
AcDbLine
 10
4.9509566929133859
 20
-4.3390288976377951
 30
0
 11
4.9523096850393697
 21
-4.3403818897637798
 31
0
  0
LINE
  5
E5
330
1A
100
AcDbEntity
  8
BLACK
  6
CONTINUOUS
100
AcDbLine
 10
4.9523096850393697
 20
-4.3403818897637798
 30
0
 11
4.9524999999999997
 21
-4.3413385826771655
 31
0
  0
LINE
  5
E6
330
1A
100
AcDbEntity
  8
BLACK
  6
CONTINUOUS
100
AcDbLine
 10
4.9524999999999997
 20
-4.3413385826771655
 30
0
 11
4.9524999999999997
 21
-4.3830708661417326
 31
0
  0
LINE
  5
E7
330
1A
100
AcDbEntity
  8
BLACK
  6
CONTINUOUS
100
AcDbLine
 10
4.9524999999999997
 20
-4.3830708661417326
 30
0
 11
4.9523096850393697
 21
-4.3840275590551183
 31
0
  0
LINE
  5
E8
330
1A
100
AcDbEntity
  8
BLACK
  6
CONTINUOUS
100
AcDbLine
 10
4.9523096850393697
 20
-4.3840275590551183
 30
0
 11
4.9509566929133859
 21
-4.3853805511811021
 31
0
  0
LINE
  5
E9
330
1A
100
AcDbEntity
  8
BLACK
  6
CONTINUOUS
100
AcDbLine
 10
4.9509566929133859
 20
-4.3853805511811021
 30
0
 11
4.9500000000000002
 21
-4.3855708661417321
 31
0
  0
LINE
  5
EA
330
1A
100
AcDbEntity
  8
BLACK
  6
CONTINUOUS
100
AcDbLine
 10
4.9500000000000002
 20
-4.3855708661417321
 30
0
 11
4.9279527559055119
 21
-4.3855708661417321
 31
0
  0
LINE
  5
EB
330
1A
100
AcDbEntity
  8
BLACK
  6
CONTINUOUS
100
AcDbLine
 10
4.9279527559055119
 20
-4.3855708661417321
 30
0
 11
4.9269960629921261
 21
-4.3853805511811021
 31
0
  0
LINE
  5
EC
330
1A
100
AcDbEntity
  8
BLACK
  6
CONTINUOUS
100
AcDbLine
 10
4.9269960629921261
 20
-4.3853805511811021
 30
0
 11
4.9256430708661414
 21
-4.3840275590551183
 31
0
  0
LINE
  5
ED
330
1A
100
AcDbEntity
  8
BLACK
  6
CONTINUOUS
100
AcDbLine
 10
4.9256430708661414
 20
-4.3840275590551183
 30
0
 11
4.9254527559055115
 21
-4.3830708661417326
 31
0
  0
LINE
  5
EE
330
1A
100
AcDbEntity
  8
BLACK
  6
CONTINUOUS
100
AcDbLine
 10
4.9254527559055115
 20
-4.3830708661417326
 30
0
 11
4.9254527559055115
 21
-4.3413385826771655
 31
0
  0
LINE
  5
EF
330
1A
100
AcDbEntity
  8
BLACK
  6
CONTINUOUS
100
AcDbLine
 10
4.9254527559055115
 20
-4.3413385826771655
 30
0
 11
4.9256430708661414
 21
-4.3403818897637798
 31
0
  0
LINE
  5
F0
330
1A
100
AcDbEntity
  8
BLACK
  6
CONTINUOUS
100
AcDbLine
 10
4.9256430708661414
 20
-4.3403818897637798
 30
0
 11
4.9269960629921261
 21
-4.3390288976377951
 31
0
  0
LINE
  5
F1
330
1A
100
AcDbEntity
  8
BLACK
  6
CONTINUOUS
100
AcDbLine
 10
4.9269960629921261
 20
-4.3390288976377951
 30
0
 11
4.9279527559055119
 21
-4.3388385826771652
 31
0
  0
LINE
  5
F2
330
1A
100
AcDbEntity
  8
BLACK
  6
CONTINUOUS
100
AcDbLine
 10
4.9279527559055119
 20
-4.3388385826771652
 30
0
 11
4.9500000000000002
 21
-4.3388385826771652
 31
0
  0
LINE
  5
F3
330
1A
100
AcDbEntity
  8
BLACK
  6
CONTINUOUS
100
AcDbLine
 10
4.9500000000000002
 20
-4.3388385826771652
 30
0
 11
4.9509566929133859
 21
-4.3390288976377951
 31
0
  0
LINE
  5
F4
330
1A
100
AcDbEntity
  8
BLACK
  6
CONTINUOUS
100
AcDbLine
 10
4.9304527559055114
 20
-4.343838582677165
 30
0
 11
4.9304527559055114
 21
-4.3805708661417322
 31
0
  0
LINE
  5
F5
330
1A
100
AcDbEntity
  8
BLACK
  6
CONTINUOUS
100
AcDbLine
 10
4.9304527559055114
 20
-4.3805708661417322
 30
0
 11
4.9474999999999998
 21
-4.3805708661417322
 31
0
  0
LINE
  5
F6
330
1A
100
AcDbEntity
  8
BLACK
  6
CONTINUOUS
100
AcDbLine
 10
4.9474999999999998
 20
-4.3805708661417322
 30
0
 11
4.9474999999999998
 21
-4.343838582677165
 31
0
  0
LINE
  5
F7
330
1A
100
AcDbEntity
  8
BLACK
  6
CONTINUOUS
100
AcDbLine
 10
4.9474999999999998
 20
-4.343838582677165
 30
0
 11
4.9304527559055114
 21
-4.343838582677165
 31
0
  0
LINE
  5
F8
330
1A
100
AcDbEntity
  8
BLACK
  6
CONTINUOUS
100
AcDbLine
 10
4.9764763385826774
 20
-4.2535454724409449
 30
0
 11
4.9764763385826774
 21
-4.2550283464566929
 31
0
  0
LINE
  5
F9
330
1A
100
AcDbEntity
  8
BLACK
  6
CONTINUOUS
100
AcDbLine
 10
4.9764763385826774
 20
-4.2550283464566929
 30
0
 11
4.9760563385826773
 21
-4.255656929133858
 31
0
  0
LINE
  5
FA
330
1A
100
AcDbEntity
  8
BLACK
  6
CONTINUOUS
100
AcDbLine
 10
4.9760563385826773
 20
-4.255656929133858
 30
0
 11
4.9755405905511809
 21
-4.2561726377952755
 31
0
  0
LINE
  5
FB
330
1A
100
AcDbEntity
  8
BLACK
  6
CONTINUOUS
100
AcDbLine
 10
4.9755405905511809
 20
-4.2561726377952755
 30
0
 11
4.9753762992125985
 21
-4.2565011811023625
 31
0
  0
LINE
  5
FC
330
1A
100
AcDbEntity
  8
BLACK
  6
CONTINUOUS
100
AcDbLine
 10
4.9753762992125985
 20
-4.2565011811023625
 30
0
 11
4.9764192913385825
 21
-4.2585871653543306
 31
0
  0
LINE
  5
FD
330
1A
100
AcDbEntity
  8
BLACK
  6
CONTINUOUS
100
AcDbLine
 10
4.9764192913385825
 20
-4.2585871653543306
 30
0
 11
4.9766189370078742
 21
-4.2593162992125979
 31
0
  0
LINE
  5
FE
330
1A
100
AcDbEntity
  8
BLACK
  6
CONTINUOUS
100
AcDbLine
 10
4.9766189370078742
 20
-4.2593162992125979
 30
0
 11
4.976573149606299
 21
-4.2594536220472436
 31
0
  0
LINE
  5
FF
330
1A
100
AcDbEntity
  8
BLACK
  6
CONTINUOUS
100
AcDbLine
 10
4.976573149606299
 20
-4.2594536220472436
 30
0
 11
4.9766189370078742
 21
-4.2595909842519681
 31
0
  0
LINE
  5
100
330
1A
100
AcDbEntity
  8
BLACK
  6
CONTINUOUS
100
AcDbLine
 10
4.9766189370078742
 20
-4.2595909842519681
 30
0
 11
4.9764192519685038
 21
-4.2603201181102364
 31
0
  0
LINE
  5
101
330
1A
100
AcDbEntity
  8
BLACK
  6
CONTINUOUS
100
AcDbLine
 10
4.9764192519685038
 20
-4.2603201181102364
 30
0
 11
4.9756811417322835
 21
-4.2617962992125982
 31
0
  0
LINE
  5
102
330
1A
100
AcDbEntity
  8
BLACK
  6
CONTINUOUS
100
AcDbLine
 10
4.9756811417322835
 20
-4.2617962992125982
 30
0
 11
4.9754907874015748
 21
-4.2620415354330712
 31
0
  0
LINE
  5
103
330
1A
100
AcDbEntity
  8
BLACK
  6
CONTINUOUS
100
AcDbLine
 10
4.9754907874015748
 20
-4.2620415354330712
 30
0
 11
4.9753182677165357
 21
-4.2622997637795272
 31
0
  0
LINE
  5
104
330
1A
100
AcDbEntity
  8
BLACK
  6
CONTINUOUS
100
AcDbLine
 10
4.9753182677165357
 20
-4.2622997637795272
 30
0
 11
4.9745801968503933
 21
-4.2630378740157475
 31
0
  0
LINE
  5
105
330
1A
100
AcDbEntity
  8
BLACK
  6
CONTINUOUS
100
AcDbLine
 10
4.9745801968503933
 20
-4.2630378740157475
 30
0
 11
4.973951653543307
 21
-4.2634579133858264
 31
0
  0
LINE
  5
106
330
1A
100
AcDbEntity
  8
BLACK
  6
CONTINUOUS
100
AcDbLine
 10
4.973951653543307
 20
-4.2634579133858264
 30
0
 11
4.9724687795275591
 21
-4.2634579527559051
 31
0
  0
LINE
  5
107
330
1A
100
AcDbEntity
  8
BLACK
  6
CONTINUOUS
100
AcDbLine
 10
4.9724687795275591
 20
-4.2634579527559051
 30
0
 11
4.9714201574803152
 21
-4.2624094094488187
 31
0
  0
LINE
  5
108
330
1A
100
AcDbEntity
  8
BLACK
  6
CONTINUOUS
100
AcDbLine
 10
4.9714201574803152
 20
-4.2624094094488187
 30
0
 11
4.9714201181102364
 21
-4.2609265354330708
 31
0
  0
LINE
  5
109
330
1A
100
AcDbEntity
  8
BLACK
  6
CONTINUOUS
100
AcDbLine
 10
4.9714201181102364
 20
-4.2609265354330708
 30
0
 11
4.9718401181102365
 21
-4.2602979527559057
 31
0
  0
LINE
  5
10A
330
1A
100
AcDbEntity
  8
BLACK
  6
CONTINUOUS
100
AcDbLine
 10
4.9718401181102365
 20
-4.2602979527559057
 30
0
 11
4.972355866141732
 21
-4.2597821259842519
 31
0
  0
LINE
  5
10B
330
1A
100
AcDbEntity
  8
BLACK
  6
CONTINUOUS
100
AcDbLine
 10
4.972355866141732
 20
-4.2597821259842519
 30
0
 11
4.9725201574803153
 21
-4.2594536220472436
 31
0
  0
LINE
  5
10C
330
1A
100
AcDbEntity
  8
BLACK
  6
CONTINUOUS
100
AcDbLine
 10
4.9725201574803153
 20
-4.2594536220472436
 30
0
 11
4.9714772047244091
 21
-4.2573676771653544
 31
0
  0
LINE
  5
10D
330
1A
100
AcDbEntity
  8
BLACK
  6
CONTINUOUS
100
AcDbLine
 10
4.9714772047244091
 20
-4.2573676771653544
 30
0
 11
4.9712775590551184
 21
-4.2566385433070861
 31
0
  0
LINE
  5
10E
330
1A
100
AcDbEntity
  8
BLACK
  6
CONTINUOUS
100
AcDbLine
 10
4.9712775590551184
 20
-4.2566385433070861
 30
0
 11
4.9713233070866139
 21
-4.2565011811023625
 31
0
  0
LINE
  5
10F
330
1A
100
AcDbEntity
  8
BLACK
  6
CONTINUOUS
100
AcDbLine
 10
4.9713233070866139
 20
-4.2565011811023625
 30
0
 11
4.9712775590551184
 21
-4.2563638976377955
 31
0
  0
LINE
  5
110
330
1A
100
AcDbEntity
  8
BLACK
  6
CONTINUOUS
100
AcDbLine
 10
4.9712775590551184
 20
-4.2563638976377955
 30
0
 11
4.9714772047244091
 21
-4.2556347637795273
 31
0
  0
LINE
  5
111
330
1A
100
AcDbEntity
  8
BLACK
  6
CONTINUOUS
100
AcDbLine
 10
4.9714772047244091
 20
-4.2556347637795273
 30
0
 11
4.9722152755905507
 21
-4.2541586220472443
 31
0
  0
LINE
  5
112
330
1A
100
AcDbEntity
  8
BLACK
  6
CONTINUOUS
100
AcDbLine
 10
4.9722152755905507
 20
-4.2541586220472443
 30
0
 11
4.9724056692913381
 21
-4.253913267716535
 31
0
  0
LINE
  5
113
330
1A
100
AcDbEntity
  8
BLACK
  6
CONTINUOUS
100
AcDbLine
 10
4.9724056692913381
 20
-4.253913267716535
 30
0
 11
4.9725782283464568
 21
-4.2536550393700789
 31
0
  0
LINE
  5
114
330
1A
100
AcDbEntity
  8
BLACK
  6
CONTINUOUS
100
AcDbLine
 10
4.9725782283464568
 20
-4.2536550393700789
 30
0
 11
4.9733163385826771
 21
-4.2529169291338578
 31
0
  0
LINE
  5
115
330
1A
100
AcDbEntity
  8
BLACK
  6
CONTINUOUS
100
AcDbLine
 10
4.9733163385826771
 20
-4.2529169291338578
 30
0
 11
4.9739449212598421
 21
-4.2524969291338586
 31
0
  0
LINE
  5
116
330
1A
100
AcDbEntity
  8
BLACK
  6
CONTINUOUS
100
AcDbLine
 10
4.9739449212598421
 20
-4.2524969291338586
 30
0
 11
4.9754277952755901
 21
-4.2524969291338586
 31
0
  0
LINE
  5
117
330
1A
100
AcDbEntity
  8
BLACK
  6
CONTINUOUS
100
AcDbLine
 10
4.9754277952755901
 20
-4.2524969291338586
 30
0
 11
4.9764763385826774
 21
-4.2535454724409449
 31
0
  0
LINE
  5
118
330
1A
100
AcDbEntity
  8
BLACK
  6
CONTINUOUS
100
AcDbLine
 10
5.1615157086614172
 20
-4.2535454724409449
 30
0
 11
5.1615157086614172
 21
-4.2550283464566929
 31
0
  0
LINE
  5
119
330
1A
100
AcDbEntity
  8
BLACK
  6
CONTINUOUS
100
AcDbLine
 10
5.1615157086614172
 20
-4.2550283464566929
 30
0
 11
5.1610957086614171
 21
-4.255656929133858
 31
0
  0
LINE
  5
11A
330
1A
100
AcDbEntity
  8
BLACK
  6
CONTINUOUS
100
AcDbLine
 10
5.1610957086614171
 20
-4.255656929133858
 30
0
 11
5.1605799606299207
 21
-4.2561726377952755
 31
0
  0
LINE
  5
11B
330
1A
100
AcDbEntity
  8
BLACK
  6
CONTINUOUS
100
AcDbLine
 10
5.1605799606299207
 20
-4.2561726377952755
 30
0
 11
5.1604156692913383
 21
-4.2565011811023625
 31
0
  0
LINE
  5
11C
330
1A
100
AcDbEntity
  8
BLACK
  6
CONTINUOUS
100
AcDbLine
 10
5.1604156692913383
 20
-4.2565011811023625
 30
0
 11
5.1614586614173223
 21
-4.2585871653543306
 31
0
  0
LINE
  5
11D
330
1A
100
AcDbEntity
  8
BLACK
  6
CONTINUOUS
100
AcDbLine
 10
5.1614586614173223
 20
-4.2585871653543306
 30
0
 11
5.161658307086614
 21
-4.2593162992125979
 31
0
  0
LINE
  5
11E
330
1A
100
AcDbEntity
  8
BLACK
  6
CONTINUOUS
100
AcDbLine
 10
5.161658307086614
 20
-4.2593162992125979
 30
0
 11
5.1616125196850389
 21
-4.2594536220472436
 31
0
  0
LINE
  5
11F
330
1A
100
AcDbEntity
  8
BLACK
  6
CONTINUOUS
100
AcDbLine
 10
5.1616125196850389
 20
-4.2594536220472436
 30
0
 11
5.161658307086614
 21
-4.2595909842519681
 31
0
  0
LINE
  5
120
330
1A
100
AcDbEntity
  8
BLACK
  6
CONTINUOUS
100
AcDbLine
 10
5.161658307086614
 20
-4.2595909842519681
 30
0
 11
5.1614586220472436
 21
-4.2603201181102364
 31
0
  0
LINE
  5
121
330
1A
100
AcDbEntity
  8
BLACK
  6
CONTINUOUS
100
AcDbLine
 10
5.1614586220472436
 20
-4.2603201181102364
 30
0
 11
5.1607205118110233
 21
-4.2617962992125982
 31
0
  0
LINE
  5
122
330
1A
100
AcDbEntity
  8
BLACK
  6
CONTINUOUS
100
AcDbLine
 10
5.1607205118110233
 20
-4.2617962992125982
 30
0
 11
5.1605301574803146
 21
-4.2620415354330712
 31
0
  0
LINE
  5
123
330
1A
100
AcDbEntity
  8
BLACK
  6
CONTINUOUS
100
AcDbLine
 10
5.1605301574803146
 20
-4.2620415354330712
 30
0
 11
5.1603576377952756
 21
-4.2622997637795272
 31
0
  0
LINE
  5
124
330
1A
100
AcDbEntity
  8
BLACK
  6
CONTINUOUS
100
AcDbLine
 10
5.1603576377952756
 20
-4.2622997637795272
 30
0
 11
5.159619566929134
 21
-4.2630378740157475
 31
0
  0
LINE
  5
125
330
1A
100
AcDbEntity
  8
BLACK
  6
CONTINUOUS
100
AcDbLine
 10
5.159619566929134
 20
-4.2630378740157475
 30
0
 11
5.1589910236220469
 21
-4.2634579133858264
 31
0
  0
LINE
  5
126
330
1A
100
AcDbEntity
  8
BLACK
  6
CONTINUOUS
100
AcDbLine
 10
5.1589910236220469
 20
-4.2634579133858264
 30
0
 11
5.1575081496062989
 21
-4.2634579527559051
 31
0
  0
LINE
  5
127
330
1A
100
AcDbEntity
  8
BLACK
  6
CONTINUOUS
100
AcDbLine
 10
5.1575081496062989
 20
-4.2634579527559051
 30
0
 11
5.156459527559055
 21
-4.2624094094488187
 31
0
  0
LINE
  5
128
330
1A
100
AcDbEntity
  8
BLACK
  6
CONTINUOUS
100
AcDbLine
 10
5.156459527559055
 20
-4.2624094094488187
 30
0
 11
5.1564594881889763
 21
-4.2609265354330708
 31
0
  0
LINE
  5
129
330
1A
100
AcDbEntity
  8
BLACK
  6
CONTINUOUS
100
AcDbLine
 10
5.1564594881889763
 20
-4.2609265354330708
 30
0
 11
5.1568794881889763
 21
-4.2602979527559057
 31
0
  0
LINE
  5
12A
330
1A
100
AcDbEntity
  8
BLACK
  6
CONTINUOUS
100
AcDbLine
 10
5.1568794881889763
 20
-4.2602979527559057
 30
0
 11
5.1573952362204727
 21
-4.2597821259842519
 31
0
  0
LINE
  5
12B
330
1A
100
AcDbEntity
  8
BLACK
  6
CONTINUOUS
100
AcDbLine
 10
5.1573952362204727
 20
-4.2597821259842519
 30
0
 11
5.1575595275590551
 21
-4.2594536220472436
 31
0
  0
LINE
  5
12C
330
1A
100
AcDbEntity
  8
BLACK
  6
CONTINUOUS
100
AcDbLine
 10
5.1575595275590551
 20
-4.2594536220472436
 30
0
 11
5.1565165748031498
 21
-4.2573676771653544
 31
0
  0
LINE
  5
12D
330
1A
100
AcDbEntity
  8
BLACK
  6
CONTINUOUS
100
AcDbLine
 10
5.1565165748031498
 20
-4.2573676771653544
 30
0
 11
5.1563169291338582
 21
-4.2566385433070861
 31
0
  0
LINE
  5
12E
330
1A
100
AcDbEntity
  8
BLACK
  6
CONTINUOUS
100
AcDbLine
 10
5.1563169291338582
 20
-4.2566385433070861
 30
0
 11
5.1563626771653546
 21
-4.2565011811023625
 31
0
  0
LINE
  5
12F
330
1A
100
AcDbEntity
  8
BLACK
  6
CONTINUOUS
100
AcDbLine
 10
5.1563626771653546
 20
-4.2565011811023625
 30
0
 11
5.1563169291338582
 21
-4.2563638976377955
 31
0
  0
LINE
  5
130
330
1A
100
AcDbEntity
  8
BLACK
  6
CONTINUOUS
100
AcDbLine
 10
5.1563169291338582
 20
-4.2563638976377955
 30
0
 11
5.1565165748031498
 21
-4.2556347637795273
 31
0
  0
LINE
  5
131
330
1A
100
AcDbEntity
  8
BLACK
  6
CONTINUOUS
100
AcDbLine
 10
5.1565165748031498
 20
-4.2556347637795273
 30
0
 11
5.1572546456692914
 21
-4.2541586220472443
 31
0
  0
LINE
  5
132
330
1A
100
AcDbEntity
  8
BLACK
  6
CONTINUOUS
100
AcDbLine
 10
5.1572546456692914
 20
-4.2541586220472443
 30
0
 11
5.1574450393700788
 21
-4.253913267716535
 31
0
  0
LINE
  5
133
330
1A
100
AcDbEntity
  8
BLACK
  6
CONTINUOUS
100
AcDbLine
 10
5.1574450393700788
 20
-4.253913267716535
 30
0
 11
5.1576175984251966
 21
-4.2536550393700789
 31
0
  0
LINE
  5
134
330
1A
100
AcDbEntity
  8
BLACK
  6
CONTINUOUS
100
AcDbLine
 10
5.1576175984251966
 20
-4.2536550393700789
 30
0
 11
5.1583557086614169
 21
-4.2529169291338578
 31
0
  0
LINE
  5
135
330
1A
100
AcDbEntity
  8
BLACK
  6
CONTINUOUS
100
AcDbLine
 10
5.1583557086614169
 20
-4.2529169291338578
 30
0
 11
5.1589842913385828
 21
-4.2524969291338586
 31
0
  0
LINE
  5
136
330
1A
100
AcDbEntity
  8
BLACK
  6
CONTINUOUS
100
AcDbLine
 10
5.1589842913385828
 20
-4.2524969291338586
 30
0
 11
5.1604671653543308
 21
-4.2524969291338586
 31
0
  0
LINE
  5
137
330
1A
100
AcDbEntity
  8
BLACK
  6
CONTINUOUS
100
AcDbLine
 10
5.1604671653543308
 20
-4.2524969291338586
 30
0
 11
5.1615157086614172
 21
-4.2535454724409449
 31
0
  0
LINE
  5
138
330
1A
100
AcDbEntity
  8
BLACK
  6
CONTINUOUS
100
AcDbLine
 10
5.346555078740157
 20
-4.2535454724409449
 30
0
 11
5.346555078740157
 21
-4.2550283464566929
 31
0
  0
LINE
  5
139
330
1A
100
AcDbEntity
  8
BLACK
  6
CONTINUOUS
100
AcDbLine
 10
5.346555078740157
 20
-4.2550283464566929
 30
0
 11
5.3461350787401569
 21
-4.255656929133858
 31
0
  0
LINE
  5
13A
330
1A
100
AcDbEntity
  8
BLACK
  6
CONTINUOUS
100
AcDbLine
 10
5.3461350787401569
 20
-4.255656929133858
 30
0
 11
5.3456193307086615
 21
-4.2561726377952755
 31
0
  0
LINE
  5
13B
330
1A
100
AcDbEntity
  8
BLACK
  6
CONTINUOUS
100
AcDbLine
 10
5.3456193307086615
 20
-4.2561726377952755
 30
0
 11
5.345455039370079
 21
-4.2565011811023625
 31
0
  0
LINE
  5
13C
330
1A
100
AcDbEntity
  8
BLACK
  6
CONTINUOUS
100
AcDbLine
 10
5.345455039370079
 20
-4.2565011811023625
 30
0
 11
5.3464980314960631
 21
-4.2585871653543306
 31
0
  0
LINE
  5
13D
330
1A
100
AcDbEntity
  8
BLACK
  6
CONTINUOUS
100
AcDbLine
 10
5.3464980314960631
 20
-4.2585871653543306
 30
0
 11
5.3466976771653538
 21
-4.2593162992125979
 31
0
  0
LINE
  5
13E
330
1A
100
AcDbEntity
  8
BLACK
  6
CONTINUOUS
100
AcDbLine
 10
5.3466976771653538
 20
-4.2593162992125979
 30
0
 11
5.3466518897637796
 21
-4.2594536220472436
 31
0
  0
LINE
  5
13F
330
1A
100
AcDbEntity
  8
BLACK
  6
CONTINUOUS
100
AcDbLine
 10
5.3466518897637796
 20
-4.2594536220472436
 30
0
 11
5.3466976771653538
 21
-4.2595909842519681
 31
0
  0
LINE
  5
140
330
1A
100
AcDbEntity
  8
BLACK
  6
CONTINUOUS
100
AcDbLine
 10
5.3466976771653538
 20
-4.2595909842519681
 30
0
 11
5.3464979921259843
 21
-4.2603201181102364
 31
0
  0
LINE
  5
141
330
1A
100
AcDbEntity
  8
BLACK
  6
CONTINUOUS
100
AcDbLine
 10
5.3464979921259843
 20
-4.2603201181102364
 30
0
 11
5.345759881889764
 21
-4.2617962992125982
 31
0
  0
LINE
  5
142
330
1A
100
AcDbEntity
  8
BLACK
  6
CONTINUOUS
100
AcDbLine
 10
5.345759881889764
 20
-4.2617962992125982
 30
0
 11
5.3455695275590553
 21
-4.2620415354330712
 31
0
  0
LINE
  5
143
330
1A
100
AcDbEntity
  8
BLACK
  6
CONTINUOUS
100
AcDbLine
 10
5.3455695275590553
 20
-4.2620415354330712
 30
0
 11
5.3453970078740154
 21
-4.2622997637795272
 31
0
  0
LINE
  5
144
330
1A
100
AcDbEntity
  8
BLACK
  6
CONTINUOUS
100
AcDbLine
 10
5.3453970078740154
 20
-4.2622997637795272
 30
0
 11
5.3446589370078739
 21
-4.2630378740157475
 31
0
  0
LINE
  5
145
330
1A
100
AcDbEntity
  8
BLACK
  6
CONTINUOUS
100
AcDbLine
 10
5.3446589370078739
 20
-4.2630378740157475
 30
0
 11
5.3440303937007876
 21
-4.2634579133858264
 31
0
  0
LINE
  5
146
330
1A
100
AcDbEntity
  8
BLACK
  6
CONTINUOUS
100
AcDbLine
 10
5.3440303937007876
 20
-4.2634579133858264
 30
0
 11
5.3425475196850396
 21
-4.2634579527559051
 31
0
  0
LINE
  5
147
330
1A
100
AcDbEntity
  8
BLACK
  6
CONTINUOUS
100
AcDbLine
 10
5.3425475196850396
 20
-4.2634579527559051
 30
0
 11
5.3414988976377948
 21
-4.2624094094488187
 31
0
  0
LINE
  5
148
330
1A
100
AcDbEntity
  8
BLACK
  6
CONTINUOUS
100
AcDbLine
 10
5.3414988976377948
 20
-4.2624094094488187
 30
0
 11
5.3414988582677161
 21
-4.2609265354330708
 31
0
  0
LINE
  5
149
330
1A
100
AcDbEntity
  8
BLACK
  6
CONTINUOUS
100
AcDbLine
 10
5.3414988582677161
 20
-4.2609265354330708
 30
0
 11
5.3419188582677162
 21
-4.2602979527559057
 31
0
  0
LINE
  5
14A
330
1A
100
AcDbEntity
  8
BLACK
  6
CONTINUOUS
100
AcDbLine
 10
5.3419188582677162
 20
-4.2602979527559057
 30
0
 11
5.3424346062992125
 21
-4.2597821259842519
 31
0
  0
LINE
  5
14B
330
1A
100
AcDbEntity
  8
BLACK
  6
CONTINUOUS
100
AcDbLine
 10
5.3424346062992125
 20
-4.2597821259842519
 30
0
 11
5.3425988976377949
 21
-4.2594536220472436
 31
0
  0
LINE
  5
14C
330
1A
100
AcDbEntity
  8
BLACK
  6
CONTINUOUS
100
AcDbLine
 10
5.3425988976377949
 20
-4.2594536220472436
 30
0
 11
5.3415559448818897
 21
-4.2573676771653544
 31
0
  0
LINE
  5
14D
330
1A
100
AcDbEntity
  8
BLACK
  6
CONTINUOUS
100
AcDbLine
 10
5.3415559448818897
 20
-4.2573676771653544
 30
0
 11
5.341356299212598
 21
-4.2566385433070861
 31
0
  0
LINE
  5
14E
330
1A
100
AcDbEntity
  8
BLACK
  6
CONTINUOUS
100
AcDbLine
 10
5.341356299212598
 20
-4.2566385433070861
 30
0
 11
5.3414020472440944
 21
-4.2565011811023625
 31
0
  0
LINE
  5
14F
330
1A
100
AcDbEntity
  8
BLACK
  6
CONTINUOUS
100
AcDbLine
 10
5.3414020472440944
 20
-4.2565011811023625
 30
0
 11
5.341356299212598
 21
-4.2563638976377955
 31
0
  0
LINE
  5
150
330
1A
100
AcDbEntity
  8
BLACK
  6
CONTINUOUS
100
AcDbLine
 10
5.341356299212598
 20
-4.2563638976377955
 30
0
 11
5.3415559448818897
 21
-4.2556347637795273
 31
0
  0
LINE
  5
151
330
1A
100
AcDbEntity
  8
BLACK
  6
CONTINUOUS
100
AcDbLine
 10
5.3415559448818897
 20
-4.2556347637795273
 30
0
 11
5.3422940157480312
 21
-4.2541586220472443
 31
0
  0
LINE
  5
152
330
1A
100
AcDbEntity
  8
BLACK
  6
CONTINUOUS
100
AcDbLine
 10
5.3422940157480312
 20
-4.2541586220472443
 30
0
 11
5.3424844094488186
 21
-4.253913267716535
 31
0
  0
LINE
  5
153
330
1A
100
AcDbEntity
  8
BLACK
  6
CONTINUOUS
100
AcDbLine
 10
5.3424844094488186
 20
-4.253913267716535
 30
0
 11
5.3426569685039365
 21
-4.2536550393700789
 31
0
  0
LINE
  5
154
330
1A
100
AcDbEntity
  8
BLACK
  6
CONTINUOUS
100
AcDbLine
 10
5.3426569685039365
 20
-4.2536550393700789
 30
0
 11
5.3433950787401576
 21
-4.2529169291338578
 31
0
  0
LINE
  5
155
330
1A
100
AcDbEntity
  8
BLACK
  6
CONTINUOUS
100
AcDbLine
 10
5.3433950787401576
 20
-4.2529169291338578
 30
0
 11
5.3440236614173227
 21
-4.2524969291338586
 31
0
  0
LINE
  5
156
330
1A
100
AcDbEntity
  8
BLACK
  6
CONTINUOUS
100
AcDbLine
 10
5.3440236614173227
 20
-4.2524969291338586
 30
0
 11
5.3455065354330706
 21
-4.2524969291338586
 31
0
  0
LINE
  5
157
330
1A
100
AcDbEntity
  8
BLACK
  6
CONTINUOUS
100
AcDbLine
 10
5.3455065354330706
 20
-4.2524969291338586
 30
0
 11
5.346555078740157
 21
-4.2535454724409449
 31
0
  0
LINE
  5
158
330
1A
100
AcDbEntity
  8
BLACK
  6
CONTINUOUS
100
AcDbLine
 10
5.5315944488188977
 20
-4.2535454724409449
 30
0
 11
5.5315944488188977
 21
-4.2550283464566929
 31
0
  0
LINE
  5
159
330
1A
100
AcDbEntity
  8
BLACK
  6
CONTINUOUS
100
AcDbLine
 10
5.5315944488188977
 20
-4.2550283464566929
 30
0
 11
5.5311744488188976
 21
-4.255656929133858
 31
0
  0
LINE
  5
15A
330
1A
100
AcDbEntity
  8
BLACK
  6
CONTINUOUS
100
AcDbLine
 10
5.5311744488188976
 20
-4.255656929133858
 30
0
 11
5.5306587007874013
 21
-4.2561726377952755
 31
0
  0
LINE
  5
15B
330
1A
100
AcDbEntity
  8
BLACK
  6
CONTINUOUS
100
AcDbLine
 10
5.5306587007874013
 20
-4.2561726377952755
 30
0
 11
5.5304944094488189
 21
-4.2565011811023625
 31
0
  0
LINE
  5
15C
330
1A
100
AcDbEntity
  8
BLACK
  6
CONTINUOUS
100
AcDbLine
 10
5.5304944094488189
 20
-4.2565011811023625
 30
0
 11
5.5315374015748029
 21
-4.2585871653543306
 31
0
  0
LINE
  5
15D
330
1A
100
AcDbEntity
  8
BLACK
  6
CONTINUOUS
100
AcDbLine
 10
5.5315374015748029
 20
-4.2585871653543306
 30
0
 11
5.5317370472440945
 21
-4.2593162992125979
 31
0
  0
LINE
  5
15E
330
1A
100
AcDbEntity
  8
BLACK
  6
CONTINUOUS
100
AcDbLine
 10
5.5317370472440945
 20
-4.2593162992125979
 30
0
 11
5.5316912598425194
 21
-4.2594536220472436
 31
0
  0
LINE
  5
15F
330
1A
100
AcDbEntity
  8
BLACK
  6
CONTINUOUS
100
AcDbLine
 10
5.5316912598425194
 20
-4.2594536220472436
 30
0
 11
5.5317370472440945
 21
-4.2595909842519681
 31
0
  0
LINE
  5
160
330
1A
100
AcDbEntity
  8
BLACK
  6
CONTINUOUS
100
AcDbLine
 10
5.5317370472440945
 20
-4.2595909842519681
 30
0
 11
5.5315373622047241
 21
-4.2603201181102364
 31
0
  0
LINE
  5
161
330
1A
100
AcDbEntity
  8
BLACK
  6
CONTINUOUS
100
AcDbLine
 10
5.5315373622047241
 20
-4.2603201181102364
 30
0
 11
5.5307992519685039
 21
-4.2617962992125982
 31
0
  0
LINE
  5
162
330
1A
100
AcDbEntity
  8
BLACK
  6
CONTINUOUS
100
AcDbLine
 10
5.5307992519685039
 20
-4.2617962992125982
 30
0
 11
5.5306088976377952
 21
-4.2620415354330712
 31
0
  0
LINE
  5
163
330
1A
100
AcDbEntity
  8
BLACK
  6
CONTINUOUS
100
AcDbLine
 10
5.5306088976377952
 20
-4.2620415354330712
 30
0
 11
5.5304363779527561
 21
-4.2622997637795272
 31
0
  0
LINE
  5
164
330
1A
100
AcDbEntity
  8
BLACK
  6
CONTINUOUS
100
AcDbLine
 10
5.5304363779527561
 20
-4.2622997637795272
 30
0
 11
5.5296983070866137
 21
-4.2630378740157475
 31
0
  0
LINE
  5
165
330
1A
100
AcDbEntity
  8
BLACK
  6
CONTINUOUS
100
AcDbLine
 10
5.5296983070866137
 20
-4.2630378740157475
 30
0
 11
5.5290697637795274
 21
-4.2634579133858264
 31
0
  0
LINE
  5
166
330
1A
100
AcDbEntity
  8
BLACK
  6
CONTINUOUS
100
AcDbLine
 10
5.5290697637795274
 20
-4.2634579133858264
 30
0
 11
5.5275868897637794
 21
-4.2634579527559051
 31
0
  0
LINE
  5
167
330
1A
100
AcDbEntity
  8
BLACK
  6
CONTINUOUS
100
AcDbLine
 10
5.5275868897637794
 20
-4.2634579527559051
 30
0
 11
5.5265382677165356
 21
-4.2624094094488187
 31
0
  0
LINE
  5
168
330
1A
100
AcDbEntity
  8
BLACK
  6
CONTINUOUS
100
AcDbLine
 10
5.5265382677165356
 20
-4.2624094094488187
 30
0
 11
5.5265382283464568
 21
-4.2609265354330708
 31
0
  0
LINE
  5
169
330
1A
100
AcDbEntity
  8
BLACK
  6
CONTINUOUS
100
AcDbLine
 10
5.5265382283464568
 20
-4.2609265354330708
 30
0
 11
5.5269582283464569
 21
-4.2602979527559057
 31
0
  0
LINE
  5
16A
330
1A
100
AcDbEntity
  8
BLACK
  6
CONTINUOUS
100
AcDbLine
 10
5.5269582283464569
 20
-4.2602979527559057
 30
0
 11
5.5274739763779523
 21
-4.2597821259842519
 31
0
  0
LINE
  5
16B
330
1A
100
AcDbEntity
  8
BLACK
  6
CONTINUOUS
100
AcDbLine
 10
5.5274739763779523
 20
-4.2597821259842519
 30
0
 11
5.5276382677165357
 21
-4.2594536220472436
 31
0
  0
LINE
  5
16C
330
1A
100
AcDbEntity
  8
BLACK
  6
CONTINUOUS
100
AcDbLine
 10
5.5276382677165357
 20
-4.2594536220472436
 30
0
 11
5.5265953149606295
 21
-4.2573676771653544
 31
0
  0
LINE
  5
16D
330
1A
100
AcDbEntity
  8
BLACK
  6
CONTINUOUS
100
AcDbLine
 10
5.5265953149606295
 20
-4.2573676771653544
 30
0
 11
5.5263956692913387
 21
-4.2566385433070861
 31
0
  0
LINE
  5
16E
330
1A
100
AcDbEntity
  8
BLACK
  6
CONTINUOUS
100
AcDbLine
 10
5.5263956692913387
 20
-4.2566385433070861
 30
0
 11
5.5264414173228342
 21
-4.2565011811023625
 31
0
  0
LINE
  5
16F
330
1A
100
AcDbEntity
  8
BLACK
  6
CONTINUOUS
100
AcDbLine
 10
5.5264414173228342
 20
-4.2565011811023625
 30
0
 11
5.5263956692913387
 21
-4.2563638976377955
 31
0
  0
LINE
  5
170
330
1A
100
AcDbEntity
  8
BLACK
  6
CONTINUOUS
100
AcDbLine
 10
5.5263956692913387
 20
-4.2563638976377955
 30
0
 11
5.5265953149606295
 21
-4.2556347637795273
 31
0
  0
LINE
  5
171
330
1A
100
AcDbEntity
  8
BLACK
  6
CONTINUOUS
100
AcDbLine
 10
5.5265953149606295
 20
-4.2556347637795273
 30
0
 11
5.5273333858267719
 21
-4.2541586220472443
 31
0
  0
LINE
  5
172
330
1A
100
AcDbEntity
  8
BLACK
  6
CONTINUOUS
100
AcDbLine
 10
5.5273333858267719
 20
-4.2541586220472443
 30
0
 11
5.5275237795275594
 21
-4.253913267716535
 31
0
  0
LINE
  5
173
330
1A
100
AcDbEntity
  8
BLACK
  6
CONTINUOUS
100
AcDbLine
 10
5.5275237795275594
 20
-4.253913267716535
 30
0
 11
5.5276963385826772
 21
-4.2536550393700789
 31
0
  0
LINE
  5
174
330
1A
100
AcDbEntity
  8
BLACK
  6
CONTINUOUS
100
AcDbLine
 10
5.5276963385826772
 20
-4.2536550393700789
 30
0
 11
5.5284344488188975
 21
-4.2529169291338578
 31
0
  0
LINE
  5
175
330
1A
100
AcDbEntity
  8
BLACK
  6
CONTINUOUS
100
AcDbLine
 10
5.5284344488188975
 20
-4.2529169291338578
 30
0
 11
5.5290630314960625
 21
-4.2524969291338586
 31
0
  0
LINE
  5
176
330
1A
100
AcDbEntity
  8
BLACK
  6
CONTINUOUS
100
AcDbLine
 10
5.5290630314960625
 20
-4.2524969291338586
 30
0
 11
5.5305459055118105
 21
-4.2524969291338586
 31
0
  0
LINE
  5
177
330
1A
100
AcDbEntity
  8
BLACK
  6
CONTINUOUS
100
AcDbLine
 10
5.5305459055118105
 20
-4.2524969291338586
 30
0
 11
5.5315944488188977
 21
-4.2535454724409449
 31
0
  0
LINE
  5
178
330
1A
100
AcDbEntity
  8
BLACK
  6
CONTINUOUS
100
AcDbLine
 10
4.9509566929133859
 20
-4.154461968503937
 30
0
 11
4.9523096850393697
 21
-4.1558149606299208
 31
0
  0
LINE
  5
179
330
1A
100
AcDbEntity
  8
BLACK
  6
CONTINUOUS
100
AcDbLine
 10
4.9523096850393697
 20
-4.1558149606299208
 30
0
 11
4.9524999999999997
 21
-4.1567716535433066
 31
0
  0
LINE
  5
17A
330
1A
100
AcDbEntity
  8
BLACK
  6
CONTINUOUS
100
AcDbLine
 10
4.9524999999999997
 20
-4.1567716535433066
 30
0
 11
4.9524999999999997
 21
-4.1985039370078736
 31
0
  0
LINE
  5
17B
330
1A
100
AcDbEntity
  8
BLACK
  6
CONTINUOUS
100
AcDbLine
 10
4.9524999999999997
 20
-4.1985039370078736
 30
0
 11
4.9523096850393697
 21
-4.1994606299212593
 31
0
  0
LINE
  5
17C
330
1A
100
AcDbEntity
  8
BLACK
  6
CONTINUOUS
100
AcDbLine
 10
4.9523096850393697
 20
-4.1994606299212593
 30
0
 11
4.9509566929133859
 21
-4.2008136220472441
 31
0
  0
LINE
  5
17D
330
1A
100
AcDbEntity
  8
BLACK
  6
CONTINUOUS
100
AcDbLine
 10
4.9509566929133859
 20
-4.2008136220472441
 30
0
 11
4.9500000000000002
 21
-4.201003937007874
 31
0
  0
LINE
  5
17E
330
1A
100
AcDbEntity
  8
BLACK
  6
CONTINUOUS
100
AcDbLine
 10
4.9500000000000002
 20
-4.201003937007874
 30
0
 11
4.9279527559055119
 21
-4.201003937007874
 31
0
  0
LINE
  5
17F
330
1A
100
AcDbEntity
  8
BLACK
  6
CONTINUOUS
100
AcDbLine
 10
4.9279527559055119
 20
-4.201003937007874
 30
0
 11
4.9269960629921261
 21
-4.2008136220472441
 31
0
  0
LINE
  5
180
330
1A
100
AcDbEntity
  8
BLACK
  6
CONTINUOUS
100
AcDbLine
 10
4.9269960629921261
 20
-4.2008136220472441
 30
0
 11
4.9256430708661414
 21
-4.1994606299212593
 31
0
  0
LINE
  5
181
330
1A
100
AcDbEntity
  8
BLACK
  6
CONTINUOUS
100
AcDbLine
 10
4.9256430708661414
 20
-4.1994606299212593
 30
0
 11
4.9254527559055115
 21
-4.1985039370078736
 31
0
  0
LINE
  5
182
330
1A
100
AcDbEntity
  8
BLACK
  6
CONTINUOUS
100
AcDbLine
 10
4.9254527559055115
 20
-4.1985039370078736
 30
0
 11
4.9254527559055115
 21
-4.1567716535433066
 31
0
  0
LINE
  5
183
330
1A
100
AcDbEntity
  8
BLACK
  6
CONTINUOUS
100
AcDbLine
 10
4.9254527559055115
 20
-4.1567716535433066
 30
0
 11
4.9256430708661414
 21
-4.1558149606299208
 31
0
  0
LINE
  5
184
330
1A
100
AcDbEntity
  8
BLACK
  6
CONTINUOUS
100
AcDbLine
 10
4.9256430708661414
 20
-4.1558149606299208
 30
0
 11
4.9269960629921261
 21
-4.154461968503937
 31
0
  0
LINE
  5
185
330
1A
100
AcDbEntity
  8
BLACK
  6
CONTINUOUS
100
AcDbLine
 10
4.9269960629921261
 20
-4.154461968503937
 30
0
 11
4.9279527559055119
 21
-4.1542716535433071
 31
0
  0
LINE
  5
186
330
1A
100
AcDbEntity
  8
BLACK
  6
CONTINUOUS
100
AcDbLine
 10
4.9279527559055119
 20
-4.1542716535433071
 30
0
 11
4.9500000000000002
 21
-4.1542716535433071
 31
0
  0
LINE
  5
187
330
1A
100
AcDbEntity
  8
BLACK
  6
CONTINUOUS
100
AcDbLine
 10
4.9500000000000002
 20
-4.1542716535433071
 30
0
 11
4.9509566929133859
 21
-4.154461968503937
 31
0
  0
LINE
  5
188
330
1A
100
AcDbEntity
  8
BLACK
  6
CONTINUOUS
100
AcDbLine
 10
4.9304527559055114
 20
-4.159271653543307
 30
0
 11
4.9304527559055114
 21
-4.1960039370078741
 31
0
  0
LINE
  5
189
330
1A
100
AcDbEntity
  8
BLACK
  6
CONTINUOUS
100
AcDbLine
 10
4.9304527559055114
 20
-4.1960039370078741
 30
0
 11
4.9474999999999998
 21
-4.1960039370078741
 31
0
  0
LINE
  5
18A
330
1A
100
AcDbEntity
  8
BLACK
  6
CONTINUOUS
100
AcDbLine
 10
4.9474999999999998
 20
-4.1960039370078741
 30
0
 11
4.9474999999999998
 21
-4.159271653543307
 31
0
  0
LINE
  5
18B
330
1A
100
AcDbEntity
  8
BLACK
  6
CONTINUOUS
100
AcDbLine
 10
4.9474999999999998
 20
-4.159271653543307
 30
0
 11
4.9304527559055114
 21
-4.159271653543307
 31
0
  0
LINE
  5
18C
330
1A
100
AcDbEntity
  8
BLACK
  6
CONTINUOUS
100
AcDbLine
 10
5.1359960629921257
 20
-4.154461968503937
 30
0
 11
5.1373490551181105
 21
-4.1558149606299208
 31
0
  0
LINE
  5
18D
330
1A
100
AcDbEntity
  8
BLACK
  6
CONTINUOUS
100
AcDbLine
 10
5.1373490551181105
 20
-4.1558149606299208
 30
0
 11
5.1375393700787404
 21
-4.1567716535433066
 31
0
  0
LINE
  5
18E
330
1A
100
AcDbEntity
  8
BLACK
  6
CONTINUOUS
100
AcDbLine
 10
5.1375393700787404
 20
-4.1567716535433066
 30
0
 11
5.1375393700787404
 21
-4.1985039370078736
 31
0
  0
LINE
  5
18F
330
1A
100
AcDbEntity
  8
BLACK
  6
CONTINUOUS
100
AcDbLine
 10
5.1375393700787404
 20
-4.1985039370078736
 30
0
 11
5.1373490551181105
 21
-4.1994606299212593
 31
0
  0
LINE
  5
190
330
1A
100
AcDbEntity
  8
BLACK
  6
CONTINUOUS
100
AcDbLine
 10
5.1373490551181105
 20
-4.1994606299212593
 30
0
 11
5.1359960629921257
 21
-4.2008136220472441
 31
0
  0
LINE
  5
191
330
1A
100
AcDbEntity
  8
BLACK
  6
CONTINUOUS
100
AcDbLine
 10
5.1359960629921257
 20
-4.2008136220472441
 30
0
 11
5.13503937007874
 21
-4.201003937007874
 31
0
  0
LINE
  5
192
330
1A
100
AcDbEntity
  8
BLACK
  6
CONTINUOUS
100
AcDbLine
 10
5.13503937007874
 20
-4.201003937007874
 30
0
 11
5.1129921259842517
 21
-4.201003937007874
 31
0
  0
LINE
  5
193
330
1A
100
AcDbEntity
  8
BLACK
  6
CONTINUOUS
100
AcDbLine
 10
5.1129921259842517
 20
-4.201003937007874
 30
0
 11
5.1120354330708659
 21
-4.2008136220472441
 31
0
  0
LINE
  5
194
330
1A
100
AcDbEntity
  8
BLACK
  6
CONTINUOUS
100
AcDbLine
 10
5.1120354330708659
 20
-4.2008136220472441
 30
0
 11
5.1106824409448821
 21
-4.1994606299212593
 31
0
  0
LINE
  5
195
330
1A
100
AcDbEntity
  8
BLACK
  6
CONTINUOUS
100
AcDbLine
 10
5.1106824409448821
 20
-4.1994606299212593
 30
0
 11
5.1104921259842522
 21
-4.1985039370078736
 31
0
  0
LINE
  5
196
330
1A
100
AcDbEntity
  8
BLACK
  6
CONTINUOUS
100
AcDbLine
 10
5.1104921259842522
 20
-4.1985039370078736
 30
0
 11
5.1104921259842522
 21
-4.1567716535433066
 31
0
  0
LINE
  5
197
330
1A
100
AcDbEntity
  8
BLACK
  6
CONTINUOUS
100
AcDbLine
 10
5.1104921259842522
 20
-4.1567716535433066
 30
0
 11
5.1106824409448821
 21
-4.1558149606299208
 31
0
  0
LINE
  5
198
330
1A
100
AcDbEntity
  8
BLACK
  6
CONTINUOUS
100
AcDbLine
 10
5.1106824409448821
 20
-4.1558149606299208
 30
0
 11
5.1120354330708659
 21
-4.154461968503937
 31
0
  0
LINE
  5
199
330
1A
100
AcDbEntity
  8
BLACK
  6
CONTINUOUS
100
AcDbLine
 10
5.1120354330708659
 20
-4.154461968503937
 30
0
 11
5.1129921259842517
 21
-4.1542716535433071
 31
0
  0
LINE
  5
19A
330
1A
100
AcDbEntity
  8
BLACK
  6
CONTINUOUS
100
AcDbLine
 10
5.1129921259842517
 20
-4.1542716535433071
 30
0
 11
5.13503937007874
 21
-4.1542716535433071
 31
0
  0
LINE
  5
19B
330
1A
100
AcDbEntity
  8
BLACK
  6
CONTINUOUS
100
AcDbLine
 10
5.13503937007874
 20
-4.1542716535433071
 30
0
 11
5.1359960629921257
 21
-4.154461968503937
 31
0
  0
LINE
  5
19C
330
1A
100
AcDbEntity
  8
BLACK
  6
CONTINUOUS
100
AcDbLine
 10
5.1154921259842521
 20
-4.159271653543307
 30
0
 11
5.1154921259842521
 21
-4.1960039370078741
 31
0
  0
LINE
  5
19D
330
1A
100
AcDbEntity
  8
BLACK
  6
CONTINUOUS
100
AcDbLine
 10
5.1154921259842521
 20
-4.1960039370078741
 30
0
 11
5.1325393700787396
 21
-4.1960039370078741
 31
0
  0
LINE
  5
19E
330
1A
100
AcDbEntity
  8
BLACK
  6
CONTINUOUS
100
AcDbLine
 10
5.1325393700787396
 20
-4.1960039370078741
 30
0
 11
5.1325393700787396
 21
-4.159271653543307
 31
0
  0
LINE
  5
19F
330
1A
100
AcDbEntity
  8
BLACK
  6
CONTINUOUS
100
AcDbLine
 10
5.1325393700787396
 20
-4.159271653543307
 30
0
 11
5.1154921259842521
 21
-4.159271653543307
 31
0
  0
LINE
  5
1A0
330
1A
100
AcDbEntity
  8
BLACK
  6
CONTINUOUS
100
AcDbLine
 10
5.3210354330708665
 20
-4.154461968503937
 30
0
 11
5.3223884251968503
 21
-4.1558149606299208
 31
0
  0
LINE
  5
1A1
330
1A
100
AcDbEntity
  8
BLACK
  6
CONTINUOUS
100
AcDbLine
 10
5.3223884251968503
 20
-4.1558149606299208
 30
0
 11
5.3225787401574802
 21
-4.1567716535433066
 31
0
  0
LINE
  5
1A2
330
1A
100
AcDbEntity
  8
BLACK
  6
CONTINUOUS
100
AcDbLine
 10
5.3225787401574802
 20
-4.1567716535433066
 30
0
 11
5.3225787401574802
 21
-4.1985039370078736
 31
0
  0
LINE
  5
1A3
330
1A
100
AcDbEntity
  8
BLACK
  6
CONTINUOUS
100
AcDbLine
 10
5.3225787401574802
 20
-4.1985039370078736
 30
0
 11
5.3223884251968503
 21
-4.1994606299212593
 31
0
  0
LINE
  5
1A4
330
1A
100
AcDbEntity
  8
BLACK
  6
CONTINUOUS
100
AcDbLine
 10
5.3223884251968503
 20
-4.1994606299212593
 30
0
 11
5.3210354330708665
 21
-4.2008136220472441
 31
0
  0
LINE
  5
1A5
330
1A
100
AcDbEntity
  8
BLACK
  6
CONTINUOUS
100
AcDbLine
 10
5.3210354330708665
 20
-4.2008136220472441
 30
0
 11
5.3200787401574798
 21
-4.201003937007874
 31
0
  0
LINE
  5
1A6
330
1A
100
AcDbEntity
  8
BLACK
  6
CONTINUOUS
100
AcDbLine
 10
5.3200787401574798
 20
-4.201003937007874
 30
0
 11
5.2980314960629924
 21
-4.201003937007874
 31
0
  0
LINE
  5
1A7
330
1A
100
AcDbEntity
  8
BLACK
  6
CONTINUOUS
100
AcDbLine
 10
5.2980314960629924
 20
-4.201003937007874
 30
0
 11
5.2970748031496058
 21
-4.2008136220472441
 31
0
  0
LINE
  5
1A8
330
1A
100
AcDbEntity
  8
BLACK
  6
CONTINUOUS
100
AcDbLine
 10
5.2970748031496058
 20
-4.2008136220472441
 30
0
 11
5.2957218110236219
 21
-4.1994606299212593
 31
0
  0
LINE
  5
1A9
330
1A
100
AcDbEntity
  8
BLACK
  6
CONTINUOUS
100
AcDbLine
 10
5.2957218110236219
 20
-4.1994606299212593
 30
0
 11
5.295531496062992
 21
-4.1985039370078736
 31
0
  0
LINE
  5
1AA
330
1A
100
AcDbEntity
  8
BLACK
  6
CONTINUOUS
100
AcDbLine
 10
5.295531496062992
 20
-4.1985039370078736
 30
0
 11
5.295531496062992
 21
-4.1567716535433066
 31
0
  0
LINE
  5
1AB
330
1A
100
AcDbEntity
  8
BLACK
  6
CONTINUOUS
100
AcDbLine
 10
5.295531496062992
 20
-4.1567716535433066
 30
0
 11
5.2957218110236219
 21
-4.1558149606299208
 31
0
  0
LINE
  5
1AC
330
1A
100
AcDbEntity
  8
BLACK
  6
CONTINUOUS
100
AcDbLine
 10
5.2957218110236219
 20
-4.1558149606299208
 30
0
 11
5.2970748031496058
 21
-4.154461968503937
 31
0
  0
LINE
  5
1AD
330
1A
100
AcDbEntity
  8
BLACK
  6
CONTINUOUS
100
AcDbLine
 10
5.2970748031496058
 20
-4.154461968503937
 30
0
 11
5.2980314960629924
 21
-4.1542716535433071
 31
0
  0
LINE
  5
1AE
330
1A
100
AcDbEntity
  8
BLACK
  6
CONTINUOUS
100
AcDbLine
 10
5.2980314960629924
 20
-4.1542716535433071
 30
0
 11
5.3200787401574798
 21
-4.1542716535433071
 31
0
  0
LINE
  5
1AF
330
1A
100
AcDbEntity
  8
BLACK
  6
CONTINUOUS
100
AcDbLine
 10
5.3200787401574798
 20
-4.1542716535433071
 30
0
 11
5.3210354330708665
 21
-4.154461968503937
 31
0
  0
LINE
  5
1B0
330
1A
100
AcDbEntity
  8
BLACK
  6
CONTINUOUS
100
AcDbLine
 10
5.3005314960629919
 20
-4.159271653543307
 30
0
 11
5.3005314960629919
 21
-4.1960039370078741
 31
0
  0
LINE
  5
1B1
330
1A
100
AcDbEntity
  8
BLACK
  6
CONTINUOUS
100
AcDbLine
 10
5.3005314960629919
 20
-4.1960039370078741
 30
0
 11
5.3175787401574803
 21
-4.1960039370078741
 31
0
  0
LINE
  5
1B2
330
1A
100
AcDbEntity
  8
BLACK
  6
CONTINUOUS
100
AcDbLine
 10
5.3175787401574803
 20
-4.1960039370078741
 30
0
 11
5.3175787401574803
 21
-4.159271653543307
 31
0
  0
LINE
  5
1B3
330
1A
100
AcDbEntity
  8
BLACK
  6
CONTINUOUS
100
AcDbLine
 10
5.3175787401574803
 20
-4.159271653543307
 30
0
 11
5.3005314960629919
 21
-4.159271653543307
 31
0
  0
LINE
  5
1B4
330
1A
100
AcDbEntity
  8
BLACK
  6
CONTINUOUS
100
AcDbLine
 10
5.5060748031496063
 20
-4.154461968503937
 30
0
 11
5.5074277952755901
 21
-4.1558149606299208
 31
0
  0
LINE
  5
1B5
330
1A
100
AcDbEntity
  8
BLACK
  6
CONTINUOUS
100
AcDbLine
 10
5.5074277952755901
 20
-4.1558149606299208
 30
0
 11
5.5076181102362201
 21
-4.1567716535433066
 31
0
  0
LINE
  5
1B6
330
1A
100
AcDbEntity
  8
BLACK
  6
CONTINUOUS
100
AcDbLine
 10
5.5076181102362201
 20
-4.1567716535433066
 30
0
 11
5.5076181102362201
 21
-4.1985039370078736
 31
0
  0
LINE
  5
1B7
330
1A
100
AcDbEntity
  8
BLACK
  6
CONTINUOUS
100
AcDbLine
 10
5.5076181102362201
 20
-4.1985039370078736
 30
0
 11
5.5074277952755901
 21
-4.1994606299212593
 31
0
  0
LINE
  5
1B8
330
1A
100
AcDbEntity
  8
BLACK
  6
CONTINUOUS
100
AcDbLine
 10
5.5074277952755901
 20
-4.1994606299212593
 30
0
 11
5.5060748031496063
 21
-4.2008136220472441
 31
0
  0
LINE
  5
1B9
330
1A
100
AcDbEntity
  8
BLACK
  6
CONTINUOUS
100
AcDbLine
 10
5.5060748031496063
 20
-4.2008136220472441
 30
0
 11
5.5051181102362206
 21
-4.201003937007874
 31
0
  0
LINE
  5
1BA
330
1A
100
AcDbEntity
  8
BLACK
  6
CONTINUOUS
100
AcDbLine
 10
5.5051181102362206
 20
-4.201003937007874
 30
0
 11
5.4830708661417322
 21
-4.201003937007874
 31
0
  0
LINE
  5
1BB
330
1A
100
AcDbEntity
  8
BLACK
  6
CONTINUOUS
100
AcDbLine
 10
5.4830708661417322
 20
-4.201003937007874
 30
0
 11
5.4821141732283465
 21
-4.2008136220472441
 31
0
  0
LINE
  5
1BC
330
1A
100
AcDbEntity
  8
BLACK
  6
CONTINUOUS
100
AcDbLine
 10
5.4821141732283465
 20
-4.2008136220472441
 30
0
 11
5.4807611811023618
 21
-4.1994606299212593
 31
0
  0
LINE
  5
1BD
330
1A
100
AcDbEntity
  8
BLACK
  6
CONTINUOUS
100
AcDbLine
 10
5.4807611811023618
 20
-4.1994606299212593
 30
0
 11
5.4805708661417318
 21
-4.1985039370078736
 31
0
  0
LINE
  5
1BE
330
1A
100
AcDbEntity
  8
BLACK
  6
CONTINUOUS
100
AcDbLine
 10
5.4805708661417318
 20
-4.1985039370078736
 30
0
 11
5.4805708661417318
 21
-4.1567716535433066
 31
0
  0
LINE
  5
1BF
330
1A
100
AcDbEntity
  8
BLACK
  6
CONTINUOUS
100
AcDbLine
 10
5.4805708661417318
 20
-4.1567716535433066
 30
0
 11
5.4807611811023618
 21
-4.1558149606299208
 31
0
  0
LINE
  5
1C0
330
1A
100
AcDbEntity
  8
BLACK
  6
CONTINUOUS
100
AcDbLine
 10
5.4807611811023618
 20
-4.1558149606299208
 30
0
 11
5.4821141732283465
 21
-4.154461968503937
 31
0
  0
LINE
  5
1C1
330
1A
100
AcDbEntity
  8
BLACK
  6
CONTINUOUS
100
AcDbLine
 10
5.4821141732283465
 20
-4.154461968503937
 30
0
 11
5.4830708661417322
 21
-4.1542716535433071
 31
0
  0
LINE
  5
1C2
330
1A
100
AcDbEntity
  8
BLACK
  6
CONTINUOUS
100
AcDbLine
 10
5.4830708661417322
 20
-4.1542716535433071
 30
0
 11
5.5051181102362206
 21
-4.1542716535433071
 31
0
  0
LINE
  5
1C3
330
1A
100
AcDbEntity
  8
BLACK
  6
CONTINUOUS
100
AcDbLine
 10
5.5051181102362206
 20
-4.1542716535433071
 30
0
 11
5.5060748031496063
 21
-4.154461968503937
 31
0
  0
LINE
  5
1C4
330
1A
100
AcDbEntity
  8
BLACK
  6
CONTINUOUS
100
AcDbLine
 10
5.4855708661417317
 20
-4.159271653543307
 30
0
 11
5.4855708661417317
 21
-4.1960039370078741
 31
0
  0
LINE
  5
1C5
330
1A
100
AcDbEntity
  8
BLACK
  6
CONTINUOUS
100
AcDbLine
 10
5.4855708661417317
 20
-4.1960039370078741
 30
0
 11
5.5026181102362202
 21
-4.1960039370078741
 31
0
  0
LINE
  5
1C6
330
1A
100
AcDbEntity
  8
BLACK
  6
CONTINUOUS
100
AcDbLine
 10
5.5026181102362202
 20
-4.1960039370078741
 30
0
 11
5.5026181102362202
 21
-4.159271653543307
 31
0
  0
LINE
  5
1C7
330
1A
100
AcDbEntity
  8
BLACK
  6
CONTINUOUS
100
AcDbLine
 10
5.5026181102362202
 20
-4.159271653543307
 30
0
 11
5.4855708661417317
 21
-4.159271653543307
 31
0
  0
LINE
  5
1C8
330
1A
100
AcDbEntity
  8
BLACK
  6
CONTINUOUS
100
AcDbLine
 10
4.9764763385826774
 20
-4.0685061023622042
 30
0
 11
4.9764763385826774
 21
-4.0699889763779531
 31
0
  0
LINE
  5
1C9
330
1A
100
AcDbEntity
  8
BLACK
  6
CONTINUOUS
100
AcDbLine
 10
4.9764763385826774
 20
-4.0699889763779531
 30
0
 11
4.9760563385826773
 21
-4.0706175590551181
 31
0
  0
LINE
  5
1CA
330
1A
100
AcDbEntity
  8
BLACK
  6
CONTINUOUS
100
AcDbLine
 10
4.9760563385826773
 20
-4.0706175590551181
 30
0
 11
4.9755405905511809
 21
-4.0711332677165357
 31
0
  0
LINE
  5
1CB
330
1A
100
AcDbEntity
  8
BLACK
  6
CONTINUOUS
100
AcDbLine
 10
4.9755405905511809
 20
-4.0711332677165357
 30
0
 11
4.9753762992125985
 21
-4.0714618110236218
 31
0
  0
LINE
  5
1CC
330
1A
100
AcDbEntity
  8
BLACK
  6
CONTINUOUS
100
AcDbLine
 10
4.9753762992125985
 20
-4.0714618110236218
 30
0
 11
4.9764192913385825
 21
-4.0735477952755907
 31
0
  0
LINE
  5
1CD
330
1A
100
AcDbEntity
  8
BLACK
  6
CONTINUOUS
100
AcDbLine
 10
4.9764192913385825
 20
-4.0735477952755907
 30
0
 11
4.9766189370078742
 21
-4.0742769291338581
 31
0
  0
LINE
  5
1CE
330
1A
100
AcDbEntity
  8
BLACK
  6
CONTINUOUS
100
AcDbLine
 10
4.9766189370078742
 20
-4.0742769291338581
 30
0
 11
4.976573149606299
 21
-4.0744142519685038
 31
0
  0
LINE
  5
1CF
330
1A
100
AcDbEntity
  8
BLACK
  6
CONTINUOUS
100
AcDbLine
 10
4.976573149606299
 20
-4.0744142519685038
 30
0
 11
4.9766189370078742
 21
-4.0745516141732283
 31
0
  0
LINE
  5
1D0
330
1A
100
AcDbEntity
  8
BLACK
  6
CONTINUOUS
100
AcDbLine
 10
4.9766189370078742
 20
-4.0745516141732283
 30
0
 11
4.9764192519685038
 21
-4.0752807480314956
 31
0
  0
LINE
  5
1D1
330
1A
100
AcDbEntity
  8
BLACK
  6
CONTINUOUS
100
AcDbLine
 10
4.9764192519685038
 20
-4.0752807480314956
 30
0
 11
4.9756811417322835
 21
-4.0767569291338583
 31
0
  0
LINE
  5
1D2
330
1A
100
AcDbEntity
  8
BLACK
  6
CONTINUOUS
100
AcDbLine
 10
4.9756811417322835
 20
-4.0767569291338583
 30
0
 11
4.9754907874015748
 21
-4.0770021653543305
 31
0
  0
LINE
  5
1D3
330
1A
100
AcDbEntity
  8
BLACK
  6
CONTINUOUS
100
AcDbLine
 10
4.9754907874015748
 20
-4.0770021653543305
 30
0
 11
4.9753182677165357
 21
-4.0772603937007874
 31
0
  0
LINE
  5
1D4
330
1A
100
AcDbEntity
  8
BLACK
  6
CONTINUOUS
100
AcDbLine
 10
4.9753182677165357
 20
-4.0772603937007874
 30
0
 11
4.9745801968503933
 21
-4.0779985039370077
 31
0
  0
LINE
  5
1D5
330
1A
100
AcDbEntity
  8
BLACK
  6
CONTINUOUS
100
AcDbLine
 10
4.9745801968503933
 20
-4.0779985039370077
 30
0
 11
4.973951653543307
 21
-4.0784185433070865
 31
0
  0
LINE
  5
1D6
330
1A
100
AcDbEntity
  8
BLACK
  6
CONTINUOUS
100
AcDbLine
 10
4.973951653543307
 20
-4.0784185433070865
 30
0
 11
4.9724687795275591
 21
-4.0784185826771653
 31
0
  0
LINE
  5
1D7
330
1A
100
AcDbEntity
  8
BLACK
  6
CONTINUOUS
100
AcDbLine
 10
4.9724687795275591
 20
-4.0784185826771653
 30
0
 11
4.9714201574803152
 21
-4.0773700393700789
 31
0
  0
LINE
  5
1D8
330
1A
100
AcDbEntity
  8
BLACK
  6
CONTINUOUS
100
AcDbLine
 10
4.9714201574803152
 20
-4.0773700393700789
 30
0
 11
4.9714201181102364
 21
-4.0758871653543309
 31
0
  0
LINE
  5
1D9
330
1A
100
AcDbEntity
  8
BLACK
  6
CONTINUOUS
100
AcDbLine
 10
4.9714201181102364
 20
-4.0758871653543309
 30
0
 11
4.9718401181102365
 21
-4.075258582677165
 31
0
  0
LINE
  5
1DA
330
1A
100
AcDbEntity
  8
BLACK
  6
CONTINUOUS
100
AcDbLine
 10
4.9718401181102365
 20
-4.075258582677165
 30
0
 11
4.972355866141732
 21
-4.074742755905512
 31
0
  0
LINE
  5
1DB
330
1A
100
AcDbEntity
  8
BLACK
  6
CONTINUOUS
100
AcDbLine
 10
4.972355866141732
 20
-4.074742755905512
 30
0
 11
4.9725201574803153
 21
-4.0744142519685038
 31
0
  0
LINE
  5
1DC
330
1A
100
AcDbEntity
  8
BLACK
  6
CONTINUOUS
100
AcDbLine
 10
4.9725201574803153
 20
-4.0744142519685038
 30
0
 11
4.9714772047244091
 21
-4.0723283070866136
 31
0
  0
LINE
  5
1DD
330
1A
100
AcDbEntity
  8
BLACK
  6
CONTINUOUS
100
AcDbLine
 10
4.9714772047244091
 20
-4.0723283070866136
 30
0
 11
4.9712775590551184
 21
-4.0715991732283463
 31
0
  0
LINE
  5
1DE
330
1A
100
AcDbEntity
  8
BLACK
  6
CONTINUOUS
100
AcDbLine
 10
4.9712775590551184
 20
-4.0715991732283463
 30
0
 11
4.9713233070866139
 21
-4.0714618110236218
 31
0
  0
LINE
  5
1DF
330
1A
100
AcDbEntity
  8
BLACK
  6
CONTINUOUS
100
AcDbLine
 10
4.9713233070866139
 20
-4.0714618110236218
 30
0
 11
4.9712775590551184
 21
-4.0713245275590548
 31
0
  0
LINE
  5
1E0
330
1A
100
AcDbEntity
  8
BLACK
  6
CONTINUOUS
100
AcDbLine
 10
4.9712775590551184
 20
-4.0713245275590548
 30
0
 11
4.9714772047244091
 21
-4.0705953937007875
 31
0
  0
LINE
  5
1E1
330
1A
100
AcDbEntity
  8
BLACK
  6
CONTINUOUS
100
AcDbLine
 10
4.9714772047244091
 20
-4.0705953937007875
 30
0
 11
4.9722152755905507
 21
-4.0691192519685035
 31
0
  0
LINE
  5
1E2
330
1A
100
AcDbEntity
  8
BLACK
  6
CONTINUOUS
100
AcDbLine
 10
4.9722152755905507
 20
-4.0691192519685035
 30
0
 11
4.9724056692913381
 21
-4.0688738976377952
 31
0
  0
LINE
  5
1E3
330
1A
100
AcDbEntity
  8
BLACK
  6
CONTINUOUS
100
AcDbLine
 10
4.9724056692913381
 20
-4.0688738976377952
 30
0
 11
4.9725782283464568
 21
-4.0686156692913382
 31
0
  0
LINE
  5
1E4
330
1A
100
AcDbEntity
  8
BLACK
  6
CONTINUOUS
100
AcDbLine
 10
4.9725782283464568
 20
-4.0686156692913382
 30
0
 11
4.9733163385826771
 21
-4.0678775590551179
 31
0
  0
LINE
  5
1E5
330
1A
100
AcDbEntity
  8
BLACK
  6
CONTINUOUS
100
AcDbLine
 10
4.9733163385826771
 20
-4.0678775590551179
 30
0
 11
4.9739449212598421
 21
-4.0674575590551179
 31
0
  0
LINE
  5
1E6
330
1A
100
AcDbEntity
  8
BLACK
  6
CONTINUOUS
100
AcDbLine
 10
4.9739449212598421
 20
-4.0674575590551179
 30
0
 11
4.9754277952755901
 21
-4.0674575590551179
 31
0
  0
LINE
  5
1E7
330
1A
100
AcDbEntity
  8
BLACK
  6
CONTINUOUS
100
AcDbLine
 10
4.9754277952755901
 20
-4.0674575590551179
 30
0
 11
4.9764763385826774
 21
-4.0685061023622042
 31
0
  0
LINE
  5
1E8
330
1A
100
AcDbEntity
  8
BLACK
  6
CONTINUOUS
100
AcDbLine
 10
5.1615157086614172
 20
-4.0685061023622042
 30
0
 11
5.1615157086614172
 21
-4.0699889763779531
 31
0
  0
LINE
  5
1E9
330
1A
100
AcDbEntity
  8
BLACK
  6
CONTINUOUS
100
AcDbLine
 10
5.1615157086614172
 20
-4.0699889763779531
 30
0
 11
5.1610957086614171
 21
-4.0706175590551181
 31
0
  0
LINE
  5
1EA
330
1A
100
AcDbEntity
  8
BLACK
  6
CONTINUOUS
100
AcDbLine
 10
5.1610957086614171
 20
-4.0706175590551181
 30
0
 11
5.1605799606299207
 21
-4.0711332677165357
 31
0
  0
LINE
  5
1EB
330
1A
100
AcDbEntity
  8
BLACK
  6
CONTINUOUS
100
AcDbLine
 10
5.1605799606299207
 20
-4.0711332677165357
 30
0
 11
5.1604156692913383
 21
-4.0714618110236218
 31
0
  0
LINE
  5
1EC
330
1A
100
AcDbEntity
  8
BLACK
  6
CONTINUOUS
100
AcDbLine
 10
5.1604156692913383
 20
-4.0714618110236218
 30
0
 11
5.1614586614173223
 21
-4.0735477952755907
 31
0
  0
LINE
  5
1ED
330
1A
100
AcDbEntity
  8
BLACK
  6
CONTINUOUS
100
AcDbLine
 10
5.1614586614173223
 20
-4.0735477952755907
 30
0
 11
5.161658307086614
 21
-4.0742769291338581
 31
0
  0
LINE
  5
1EE
330
1A
100
AcDbEntity
  8
BLACK
  6
CONTINUOUS
100
AcDbLine
 10
5.161658307086614
 20
-4.0742769291338581
 30
0
 11
5.1616125196850389
 21
-4.0744142519685038
 31
0
  0
LINE
  5
1EF
330
1A
100
AcDbEntity
  8
BLACK
  6
CONTINUOUS
100
AcDbLine
 10
5.1616125196850389
 20
-4.0744142519685038
 30
0
 11
5.161658307086614
 21
-4.0745516141732283
 31
0
  0
LINE
  5
1F0
330
1A
100
AcDbEntity
  8
BLACK
  6
CONTINUOUS
100
AcDbLine
 10
5.161658307086614
 20
-4.0745516141732283
 30
0
 11
5.1614586220472436
 21
-4.0752807480314956
 31
0
  0
LINE
  5
1F1
330
1A
100
AcDbEntity
  8
BLACK
  6
CONTINUOUS
100
AcDbLine
 10
5.1614586220472436
 20
-4.0752807480314956
 30
0
 11
5.1607205118110233
 21
-4.0767569291338583
 31
0
  0
LINE
  5
1F2
330
1A
100
AcDbEntity
  8
BLACK
  6
CONTINUOUS
100
AcDbLine
 10
5.1607205118110233
 20
-4.0767569291338583
 30
0
 11
5.1605301574803146
 21
-4.0770021653543305
 31
0
  0
LINE
  5
1F3
330
1A
100
AcDbEntity
  8
BLACK
  6
CONTINUOUS
100
AcDbLine
 10
5.1605301574803146
 20
-4.0770021653543305
 30
0
 11
5.1603576377952756
 21
-4.0772603937007874
 31
0
  0
LINE
  5
1F4
330
1A
100
AcDbEntity
  8
BLACK
  6
CONTINUOUS
100
AcDbLine
 10
5.1603576377952756
 20
-4.0772603937007874
 30
0
 11
5.159619566929134
 21
-4.0779985039370077
 31
0
  0
LINE
  5
1F5
330
1A
100
AcDbEntity
  8
BLACK
  6
CONTINUOUS
100
AcDbLine
 10
5.159619566929134
 20
-4.0779985039370077
 30
0
 11
5.1589910236220469
 21
-4.0784185433070865
 31
0
  0
LINE
  5
1F6
330
1A
100
AcDbEntity
  8
BLACK
  6
CONTINUOUS
100
AcDbLine
 10
5.1589910236220469
 20
-4.0784185433070865
 30
0
 11
5.1575081496062989
 21
-4.0784185826771653
 31
0
  0
LINE
  5
1F7
330
1A
100
AcDbEntity
  8
BLACK
  6
CONTINUOUS
100
AcDbLine
 10
5.1575081496062989
 20
-4.0784185826771653
 30
0
 11
5.156459527559055
 21
-4.0773700393700789
 31
0
  0
LINE
  5
1F8
330
1A
100
AcDbEntity
  8
BLACK
  6
CONTINUOUS
100
AcDbLine
 10
5.156459527559055
 20
-4.0773700393700789
 30
0
 11
5.1564594881889763
 21
-4.0758871653543309
 31
0
  0
LINE
  5
1F9
330
1A
100
AcDbEntity
  8
BLACK
  6
CONTINUOUS
100
AcDbLine
 10
5.1564594881889763
 20
-4.0758871653543309
 30
0
 11
5.1568794881889763
 21
-4.075258582677165
 31
0
  0
LINE
  5
1FA
330
1A
100
AcDbEntity
  8
BLACK
  6
CONTINUOUS
100
AcDbLine
 10
5.1568794881889763
 20
-4.075258582677165
 30
0
 11
5.1573952362204727
 21
-4.074742755905512
 31
0
  0
LINE
  5
1FB
330
1A
100
AcDbEntity
  8
BLACK
  6
CONTINUOUS
100
AcDbLine
 10
5.1573952362204727
 20
-4.074742755905512
 30
0
 11
5.1575595275590551
 21
-4.0744142519685038
 31
0
  0
LINE
  5
1FC
330
1A
100
AcDbEntity
  8
BLACK
  6
CONTINUOUS
100
AcDbLine
 10
5.1575595275590551
 20
-4.0744142519685038
 30
0
 11
5.1565165748031498
 21
-4.0723283070866136
 31
0
  0
LINE
  5
1FD
330
1A
100
AcDbEntity
  8
BLACK
  6
CONTINUOUS
100
AcDbLine
 10
5.1565165748031498
 20
-4.0723283070866136
 30
0
 11
5.1563169291338582
 21
-4.0715991732283463
 31
0
  0
LINE
  5
1FE
330
1A
100
AcDbEntity
  8
BLACK
  6
CONTINUOUS
100
AcDbLine
 10
5.1563169291338582
 20
-4.0715991732283463
 30
0
 11
5.1563626771653546
 21
-4.0714618110236218
 31
0
  0
LINE
  5
1FF
330
1A
100
AcDbEntity
  8
BLACK
  6
CONTINUOUS
100
AcDbLine
 10
5.1563626771653546
 20
-4.0714618110236218
 30
0
 11
5.1563169291338582
 21
-4.0713245275590548
 31
0
  0
LINE
  5
200
330
1A
100
AcDbEntity
  8
BLACK
  6
CONTINUOUS
100
AcDbLine
 10
5.1563169291338582
 20
-4.0713245275590548
 30
0
 11
5.1565165748031498
 21
-4.0705953937007875
 31
0
  0
LINE
  5
201
330
1A
100
AcDbEntity
  8
BLACK
  6
CONTINUOUS
100
AcDbLine
 10
5.1565165748031498
 20
-4.0705953937007875
 30
0
 11
5.1572546456692914
 21
-4.0691192519685035
 31
0
  0
LINE
  5
202
330
1A
100
AcDbEntity
  8
BLACK
  6
CONTINUOUS
100
AcDbLine
 10
5.1572546456692914
 20
-4.0691192519685035
 30
0
 11
5.1574450393700788
 21
-4.0688738976377952
 31
0
  0
LINE
  5
203
330
1A
100
AcDbEntity
  8
BLACK
  6
CONTINUOUS
100
AcDbLine
 10
5.1574450393700788
 20
-4.0688738976377952
 30
0
 11
5.1576175984251966
 21
-4.0686156692913382
 31
0
  0
LINE
  5
204
330
1A
100
AcDbEntity
  8
BLACK
  6
CONTINUOUS
100
AcDbLine
 10
5.1576175984251966
 20
-4.0686156692913382
 30
0
 11
5.1583557086614169
 21
-4.0678775590551179
 31
0
  0
LINE
  5
205
330
1A
100
AcDbEntity
  8
BLACK
  6
CONTINUOUS
100
AcDbLine
 10
5.1583557086614169
 20
-4.0678775590551179
 30
0
 11
5.1589842913385828
 21
-4.0674575590551179
 31
0
  0
LINE
  5
206
330
1A
100
AcDbEntity
  8
BLACK
  6
CONTINUOUS
100
AcDbLine
 10
5.1589842913385828
 20
-4.0674575590551179
 30
0
 11
5.1604671653543308
 21
-4.0674575590551179
 31
0
  0
LINE
  5
207
330
1A
100
AcDbEntity
  8
BLACK
  6
CONTINUOUS
100
AcDbLine
 10
5.1604671653543308
 20
-4.0674575590551179
 30
0
 11
5.1615157086614172
 21
-4.0685061023622042
 31
0
  0
LINE
  5
208
330
1A
100
AcDbEntity
  8
BLACK
  6
CONTINUOUS
100
AcDbLine
 10
5.346555078740157
 20
-4.0685061023622042
 30
0
 11
5.346555078740157
 21
-4.0699889763779531
 31
0
  0
LINE
  5
209
330
1A
100
AcDbEntity
  8
BLACK
  6
CONTINUOUS
100
AcDbLine
 10
5.346555078740157
 20
-4.0699889763779531
 30
0
 11
5.3461350787401569
 21
-4.0706175590551181
 31
0
  0
LINE
  5
20A
330
1A
100
AcDbEntity
  8
BLACK
  6
CONTINUOUS
100
AcDbLine
 10
5.3461350787401569
 20
-4.0706175590551181
 30
0
 11
5.3456193307086615
 21
-4.0711332677165357
 31
0
  0
LINE
  5
20B
330
1A
100
AcDbEntity
  8
BLACK
  6
CONTINUOUS
100
AcDbLine
 10
5.3456193307086615
 20
-4.0711332677165357
 30
0
 11
5.345455039370079
 21
-4.0714618110236218
 31
0
  0
LINE
  5
20C
330
1A
100
AcDbEntity
  8
BLACK
  6
CONTINUOUS
100
AcDbLine
 10
5.345455039370079
 20
-4.0714618110236218
 30
0
 11
5.3464980314960631
 21
-4.0735477952755907
 31
0
  0
LINE
  5
20D
330
1A
100
AcDbEntity
  8
BLACK
  6
CONTINUOUS
100
AcDbLine
 10
5.3464980314960631
 20
-4.0735477952755907
 30
0
 11
5.3466976771653538
 21
-4.0742769291338581
 31
0
  0
LINE
  5
20E
330
1A
100
AcDbEntity
  8
BLACK
  6
CONTINUOUS
100
AcDbLine
 10
5.3466976771653538
 20
-4.0742769291338581
 30
0
 11
5.3466518897637796
 21
-4.0744142519685038
 31
0
  0
LINE
  5
20F
330
1A
100
AcDbEntity
  8
BLACK
  6
CONTINUOUS
100
AcDbLine
 10
5.3466518897637796
 20
-4.0744142519685038
 30
0
 11
5.3466976771653538
 21
-4.0745516141732283
 31
0
  0
LINE
  5
210
330
1A
100
AcDbEntity
  8
BLACK
  6
CONTINUOUS
100
AcDbLine
 10
5.3466976771653538
 20
-4.0745516141732283
 30
0
 11
5.3464979921259843
 21
-4.0752807480314956
 31
0
  0
LINE
  5
211
330
1A
100
AcDbEntity
  8
BLACK
  6
CONTINUOUS
100
AcDbLine
 10
5.3464979921259843
 20
-4.0752807480314956
 30
0
 11
5.345759881889764
 21
-4.0767569291338583
 31
0
  0
LINE
  5
212
330
1A
100
AcDbEntity
  8
BLACK
  6
CONTINUOUS
100
AcDbLine
 10
5.345759881889764
 20
-4.0767569291338583
 30
0
 11
5.3455695275590553
 21
-4.0770021653543305
 31
0
  0
LINE
  5
213
330
1A
100
AcDbEntity
  8
BLACK
  6
CONTINUOUS
100
AcDbLine
 10
5.3455695275590553
 20
-4.0770021653543305
 30
0
 11
5.3453970078740154
 21
-4.0772603937007874
 31
0
  0
LINE
  5
214
330
1A
100
AcDbEntity
  8
BLACK
  6
CONTINUOUS
100
AcDbLine
 10
5.3453970078740154
 20
-4.0772603937007874
 30
0
 11
5.3446589370078739
 21
-4.0779985039370077
 31
0
  0
LINE
  5
215
330
1A
100
AcDbEntity
  8
BLACK
  6
CONTINUOUS
100
AcDbLine
 10
5.3446589370078739
 20
-4.0779985039370077
 30
0
 11
5.3440303937007876
 21
-4.0784185433070865
 31
0
  0
LINE
  5
216
330
1A
100
AcDbEntity
  8
BLACK
  6
CONTINUOUS
100
AcDbLine
 10
5.3440303937007876
 20
-4.0784185433070865
 30
0
 11
5.3425475196850396
 21
-4.0784185826771653
 31
0
  0
LINE
  5
217
330
1A
100
AcDbEntity
  8
BLACK
  6
CONTINUOUS
100
AcDbLine
 10
5.3425475196850396
 20
-4.0784185826771653
 30
0
 11
5.3414988976377948
 21
-4.0773700393700789
 31
0
  0
LINE
  5
218
330
1A
100
AcDbEntity
  8
BLACK
  6
CONTINUOUS
100
AcDbLine
 10
5.3414988976377948
 20
-4.0773700393700789
 30
0
 11
5.3414988582677161
 21
-4.0758871653543309
 31
0
  0
LINE
  5
219
330
1A
100
AcDbEntity
  8
BLACK
  6
CONTINUOUS
100
AcDbLine
 10
5.3414988582677161
 20
-4.0758871653543309
 30
0
 11
5.3419188582677162
 21
-4.075258582677165
 31
0
  0
LINE
  5
21A
330
1A
100
AcDbEntity
  8
BLACK
  6
CONTINUOUS
100
AcDbLine
 10
5.3419188582677162
 20
-4.075258582677165
 30
0
 11
5.3424346062992125
 21
-4.074742755905512
 31
0
  0
LINE
  5
21B
330
1A
100
AcDbEntity
  8
BLACK
  6
CONTINUOUS
100
AcDbLine
 10
5.3424346062992125
 20
-4.074742755905512
 30
0
 11
5.3425988976377949
 21
-4.0744142519685038
 31
0
  0
LINE
  5
21C
330
1A
100
AcDbEntity
  8
BLACK
  6
CONTINUOUS
100
AcDbLine
 10
5.3425988976377949
 20
-4.0744142519685038
 30
0
 11
5.3415559448818897
 21
-4.0723283070866136
 31
0
  0
LINE
  5
21D
330
1A
100
AcDbEntity
  8
BLACK
  6
CONTINUOUS
100
AcDbLine
 10
5.3415559448818897
 20
-4.0723283070866136
 30
0
 11
5.341356299212598
 21
-4.0715991732283463
 31
0
  0
LINE
  5
21E
330
1A
100
AcDbEntity
  8
BLACK
  6
CONTINUOUS
100
AcDbLine
 10
5.341356299212598
 20
-4.0715991732283463
 30
0
 11
5.3414020472440944
 21
-4.0714618110236218
 31
0
  0
LINE
  5
21F
330
1A
100
AcDbEntity
  8
BLACK
  6
CONTINUOUS
100
AcDbLine
 10
5.3414020472440944
 20
-4.0714618110236218
 30
0
 11
5.341356299212598
 21
-4.0713245275590548
 31
0
  0
LINE
  5
220
330
1A
100
AcDbEntity
  8
BLACK
  6
CONTINUOUS
100
AcDbLine
 10
5.341356299212598
 20
-4.0713245275590548
 30
0
 11
5.3415559448818897
 21
-4.0705953937007875
 31
0
  0
LINE
  5
221
330
1A
100
AcDbEntity
  8
BLACK
  6
CONTINUOUS
100
AcDbLine
 10
5.3415559448818897
 20
-4.0705953937007875
 30
0
 11
5.3422940157480312
 21
-4.0691192519685035
 31
0
  0
LINE
  5
222
330
1A
100
AcDbEntity
  8
BLACK
  6
CONTINUOUS
100
AcDbLine
 10
5.3422940157480312
 20
-4.0691192519685035
 30
0
 11
5.3424844094488186
 21
-4.0688738976377952
 31
0
  0
LINE
  5
223
330
1A
100
AcDbEntity
  8
BLACK
  6
CONTINUOUS
100
AcDbLine
 10
5.3424844094488186
 20
-4.0688738976377952
 30
0
 11
5.3426569685039365
 21
-4.0686156692913382
 31
0
  0
LINE
  5
224
330
1A
100
AcDbEntity
  8
BLACK
  6
CONTINUOUS
100
AcDbLine
 10
5.3426569685039365
 20
-4.0686156692913382
 30
0
 11
5.3433950787401576
 21
-4.0678775590551179
 31
0
  0
LINE
  5
225
330
1A
100
AcDbEntity
  8
BLACK
  6
CONTINUOUS
100
AcDbLine
 10
5.3433950787401576
 20
-4.0678775590551179
 30
0
 11
5.3440236614173227
 21
-4.0674575590551179
 31
0
  0
LINE
  5
226
330
1A
100
AcDbEntity
  8
BLACK
  6
CONTINUOUS
100
AcDbLine
 10
5.3440236614173227
 20
-4.0674575590551179
 30
0
 11
5.3455065354330706
 21
-4.0674575590551179
 31
0
  0
LINE
  5
227
330
1A
100
AcDbEntity
  8
BLACK
  6
CONTINUOUS
100
AcDbLine
 10
5.3455065354330706
 20
-4.0674575590551179
 30
0
 11
5.346555078740157
 21
-4.0685061023622042
 31
0
  0
LINE
  5
228
330
1A
100
AcDbEntity
  8
BLACK
  6
CONTINUOUS
100
AcDbLine
 10
5.5315944488188977
 20
-4.0685061023622042
 30
0
 11
5.5315944488188977
 21
-4.0699889763779531
 31
0
  0
LINE
  5
229
330
1A
100
AcDbEntity
  8
BLACK
  6
CONTINUOUS
100
AcDbLine
 10
5.5315944488188977
 20
-4.0699889763779531
 30
0
 11
5.5311744488188976
 21
-4.0706175590551181
 31
0
  0
LINE
  5
22A
330
1A
100
AcDbEntity
  8
BLACK
  6
CONTINUOUS
100
AcDbLine
 10
5.5311744488188976
 20
-4.0706175590551181
 30
0
 11
5.5306587007874013
 21
-4.0711332677165357
 31
0
  0
LINE
  5
22B
330
1A
100
AcDbEntity
  8
BLACK
  6
CONTINUOUS
100
AcDbLine
 10
5.5306587007874013
 20
-4.0711332677165357
 30
0
 11
5.5304944094488189
 21
-4.0714618110236218
 31
0
  0
LINE
  5
22C
330
1A
100
AcDbEntity
  8
BLACK
  6
CONTINUOUS
100
AcDbLine
 10
5.5304944094488189
 20
-4.0714618110236218
 30
0
 11
5.5315374015748029
 21
-4.0735477952755907
 31
0
  0
LINE
  5
22D
330
1A
100
AcDbEntity
  8
BLACK
  6
CONTINUOUS
100
AcDbLine
 10
5.5315374015748029
 20
-4.0735477952755907
 30
0
 11
5.5317370472440945
 21
-4.0742769291338581
 31
0
  0
LINE
  5
22E
330
1A
100
AcDbEntity
  8
BLACK
  6
CONTINUOUS
100
AcDbLine
 10
5.5317370472440945
 20
-4.0742769291338581
 30
0
 11
5.5316912598425194
 21
-4.0744142519685038
 31
0
  0
LINE
  5
22F
330
1A
100
AcDbEntity
  8
BLACK
  6
CONTINUOUS
100
AcDbLine
 10
5.5316912598425194
 20
-4.0744142519685038
 30
0
 11
5.5317370472440945
 21
-4.0745516141732283
 31
0
  0
LINE
  5
230
330
1A
100
AcDbEntity
  8
BLACK
  6
CONTINUOUS
100
AcDbLine
 10
5.5317370472440945
 20
-4.0745516141732283
 30
0
 11
5.5315373622047241
 21
-4.0752807480314956
 31
0
  0
LINE
  5
231
330
1A
100
AcDbEntity
  8
BLACK
  6
CONTINUOUS
100
AcDbLine
 10
5.5315373622047241
 20
-4.0752807480314956
 30
0
 11
5.5307992519685039
 21
-4.0767569291338583
 31
0
  0
LINE
  5
232
330
1A
100
AcDbEntity
  8
BLACK
  6
CONTINUOUS
100
AcDbLine
 10
5.5307992519685039
 20
-4.0767569291338583
 30
0
 11
5.5306088976377952
 21
-4.0770021653543305
 31
0
  0
LINE
  5
233
330
1A
100
AcDbEntity
  8
BLACK
  6
CONTINUOUS
100
AcDbLine
 10
5.5306088976377952
 20
-4.0770021653543305
 30
0
 11
5.5304363779527561
 21
-4.0772603937007874
 31
0
  0
LINE
  5
234
330
1A
100
AcDbEntity
  8
BLACK
  6
CONTINUOUS
100
AcDbLine
 10
5.5304363779527561
 20
-4.0772603937007874
 30
0
 11
5.5296983070866137
 21
-4.0779985039370077
 31
0
  0
LINE
  5
235
330
1A
100
AcDbEntity
  8
BLACK
  6
CONTINUOUS
100
AcDbLine
 10
5.5296983070866137
 20
-4.0779985039370077
 30
0
 11
5.5290697637795274
 21
-4.0784185433070865
 31
0
  0
LINE
  5
236
330
1A
100
AcDbEntity
  8
BLACK
  6
CONTINUOUS
100
AcDbLine
 10
5.5290697637795274
 20
-4.0784185433070865
 30
0
 11
5.5275868897637794
 21
-4.0784185826771653
 31
0
  0
LINE
  5
237
330
1A
100
AcDbEntity
  8
BLACK
  6
CONTINUOUS
100
AcDbLine
 10
5.5275868897637794
 20
-4.0784185826771653
 30
0
 11
5.5265382677165356
 21
-4.0773700393700789
 31
0
  0
LINE
  5
238
330
1A
100
AcDbEntity
  8
BLACK
  6
CONTINUOUS
100
AcDbLine
 10
5.5265382677165356
 20
-4.0773700393700789
 30
0
 11
5.5265382283464568
 21
-4.0758871653543309
 31
0
  0
LINE
  5
239
330
1A
100
AcDbEntity
  8
BLACK
  6
CONTINUOUS
100
AcDbLine
 10
5.5265382283464568
 20
-4.0758871653543309
 30
0
 11
5.5269582283464569
 21
-4.075258582677165
 31
0
  0
LINE
  5
23A
330
1A
100
AcDbEntity
  8
BLACK
  6
CONTINUOUS
100
AcDbLine
 10
5.5269582283464569
 20
-4.075258582677165
 30
0
 11
5.5274739763779523
 21
-4.074742755905512
 31
0
  0
LINE
  5
23B
330
1A
100
AcDbEntity
  8
BLACK
  6
CONTINUOUS
100
AcDbLine
 10
5.5274739763779523
 20
-4.074742755905512
 30
0
 11
5.5276382677165357
 21
-4.0744142519685038
 31
0
  0
LINE
  5
23C
330
1A
100
AcDbEntity
  8
BLACK
  6
CONTINUOUS
100
AcDbLine
 10
5.5276382677165357
 20
-4.0744142519685038
 30
0
 11
5.5265953149606295
 21
-4.0723283070866136
 31
0
  0
LINE
  5
23D
330
1A
100
AcDbEntity
  8
BLACK
  6
CONTINUOUS
100
AcDbLine
 10
5.5265953149606295
 20
-4.0723283070866136
 30
0
 11
5.5263956692913387
 21
-4.0715991732283463
 31
0
  0
LINE
  5
23E
330
1A
100
AcDbEntity
  8
BLACK
  6
CONTINUOUS
100
AcDbLine
 10
5.5263956692913387
 20
-4.0715991732283463
 30
0
 11
5.5264414173228342
 21
-4.0714618110236218
 31
0
  0
LINE
  5
23F
330
1A
100
AcDbEntity
  8
BLACK
  6
CONTINUOUS
100
AcDbLine
 10
5.5264414173228342
 20
-4.0714618110236218
 30
0
 11
5.5263956692913387
 21
-4.0713245275590548
 31
0
  0
LINE
  5
240
330
1A
100
AcDbEntity
  8
BLACK
  6
CONTINUOUS
100
AcDbLine
 10
5.5263956692913387
 20
-4.0713245275590548
 30
0
 11
5.5265953149606295
 21
-4.0705953937007875
 31
0
  0
LINE
  5
241
330
1A
100
AcDbEntity
  8
BLACK
  6
CONTINUOUS
100
AcDbLine
 10
5.5265953149606295
 20
-4.0705953937007875
 30
0
 11
5.5273333858267719
 21
-4.0691192519685035
 31
0
  0
LINE
  5
242
330
1A
100
AcDbEntity
  8
BLACK
  6
CONTINUOUS
100
AcDbLine
 10
5.5273333858267719
 20
-4.0691192519685035
 30
0
 11
5.5275237795275594
 21
-4.0688738976377952
 31
0
  0
LINE
  5
243
330
1A
100
AcDbEntity
  8
BLACK
  6
CONTINUOUS
100
AcDbLine
 10
5.5275237795275594
 20
-4.0688738976377952
 30
0
 11
5.5276963385826772
 21
-4.0686156692913382
 31
0
  0
LINE
  5
244
330
1A
100
AcDbEntity
  8
BLACK
  6
CONTINUOUS
100
AcDbLine
 10
5.5276963385826772
 20
-4.0686156692913382
 30
0
 11
5.5284344488188975
 21
-4.0678775590551179
 31
0
  0
LINE
  5
245
330
1A
100
AcDbEntity
  8
BLACK
  6
CONTINUOUS
100
AcDbLine
 10
5.5284344488188975
 20
-4.0678775590551179
 30
0
 11
5.5290630314960625
 21
-4.0674575590551179
 31
0
  0
LINE
  5
246
330
1A
100
AcDbEntity
  8
BLACK
  6
CONTINUOUS
100
AcDbLine
 10
5.5290630314960625
 20
-4.0674575590551179
 30
0
 11
5.5305459055118105
 21
-4.0674575590551179
 31
0
  0
LINE
  5
247
330
1A
100
AcDbEntity
  8
BLACK
  6
CONTINUOUS
100
AcDbLine
 10
5.5305459055118105
 20
-4.0674575590551179
 30
0
 11
5.5315944488188977
 21
-4.0685061023622042
 31
0
  0
LINE
  5
248
330
1A
100
AcDbEntity
  8
BLACK
  6
CONTINUOUS
100
AcDbLine
 10
4.9509566929133859
 20
-3.9694225984251967
 30
0
 11
4.9523096850393697
 21
-3.970775590551181
 31
0
  0
LINE
  5
249
330
1A
100
AcDbEntity
  8
BLACK
  6
CONTINUOUS
100
AcDbLine
 10
4.9523096850393697
 20
-3.970775590551181
 30
0
 11
4.9524999999999997
 21
-3.9717322834645667
 31
0
  0
LINE
  5
24A
330
1A
100
AcDbEntity
  8
BLACK
  6
CONTINUOUS
100
AcDbLine
 10
4.9524999999999997
 20
-3.9717322834645667
 30
0
 11
4.9524999999999997
 21
-4.0134645669291338
 31
0
  0
LINE
  5
24B
330
1A
100
AcDbEntity
  8
BLACK
  6
CONTINUOUS
100
AcDbLine
 10
4.9524999999999997
 20
-4.0134645669291338
 30
0
 11
4.9523096850393697
 21
-4.0144212598425195
 31
0
  0
LINE
  5
24C
330
1A
100
AcDbEntity
  8
BLACK
  6
CONTINUOUS
100
AcDbLine
 10
4.9523096850393697
 20
-4.0144212598425195
 30
0
 11
4.9509566929133859
 21
-4.0157742519685042
 31
0
  0
LINE
  5
24D
330
1A
100
AcDbEntity
  8
BLACK
  6
CONTINUOUS
100
AcDbLine
 10
4.9509566929133859
 20
-4.0157742519685042
 30
0
 11
4.9500000000000002
 21
-4.0159645669291342
 31
0
  0
LINE
  5
24E
330
1A
100
AcDbEntity
  8
BLACK
  6
CONTINUOUS
100
AcDbLine
 10
4.9500000000000002
 20
-4.0159645669291342
 30
0
 11
4.9279527559055119
 21
-4.0159645669291342
 31
0
  0
LINE
  5
24F
330
1A
100
AcDbEntity
  8
BLACK
  6
CONTINUOUS
100
AcDbLine
 10
4.9279527559055119
 20
-4.0159645669291342
 30
0
 11
4.9269960629921261
 21
-4.0157742519685042
 31
0
  0
LINE
  5
250
330
1A
100
AcDbEntity
  8
BLACK
  6
CONTINUOUS
100
AcDbLine
 10
4.9269960629921261
 20
-4.0157742519685042
 30
0
 11
4.9256430708661414
 21
-4.0144212598425195
 31
0
  0
LINE
  5
251
330
1A
100
AcDbEntity
  8
BLACK
  6
CONTINUOUS
100
AcDbLine
 10
4.9256430708661414
 20
-4.0144212598425195
 30
0
 11
4.9254527559055115
 21
-4.0134645669291338
 31
0
  0
LINE
  5
252
330
1A
100
AcDbEntity
  8
BLACK
  6
CONTINUOUS
100
AcDbLine
 10
4.9254527559055115
 20
-4.0134645669291338
 30
0
 11
4.9254527559055115
 21
-3.9717322834645667
 31
0
  0
LINE
  5
253
330
1A
100
AcDbEntity
  8
BLACK
  6
CONTINUOUS
100
AcDbLine
 10
4.9254527559055115
 20
-3.9717322834645667
 30
0
 11
4.9256430708661414
 21
-3.970775590551181
 31
0
  0
LINE
  5
254
330
1A
100
AcDbEntity
  8
BLACK
  6
CONTINUOUS
100
AcDbLine
 10
4.9256430708661414
 20
-3.970775590551181
 30
0
 11
4.9269960629921261
 21
-3.9694225984251967
 31
0
  0
LINE
  5
255
330
1A
100
AcDbEntity
  8
BLACK
  6
CONTINUOUS
100
AcDbLine
 10
4.9269960629921261
 20
-3.9694225984251967
 30
0
 11
4.9279527559055119
 21
-3.9692322834645668
 31
0
  0
LINE
  5
256
330
1A
100
AcDbEntity
  8
BLACK
  6
CONTINUOUS
100
AcDbLine
 10
4.9279527559055119
 20
-3.9692322834645668
 30
0
 11
4.9500000000000002
 21
-3.9692322834645668
 31
0
  0
LINE
  5
257
330
1A
100
AcDbEntity
  8
BLACK
  6
CONTINUOUS
100
AcDbLine
 10
4.9500000000000002
 20
-3.9692322834645668
 30
0
 11
4.9509566929133859
 21
-3.9694225984251967
 31
0
  0
LINE
  5
258
330
1A
100
AcDbEntity
  8
BLACK
  6
CONTINUOUS
100
AcDbLine
 10
4.9304527559055114
 20
-3.9742322834645667
 30
0
 11
4.9304527559055114
 21
-4.0109645669291334
 31
0
  0
LINE
  5
259
330
1A
100
AcDbEntity
  8
BLACK
  6
CONTINUOUS
100
AcDbLine
 10
4.9304527559055114
 20
-4.0109645669291334
 30
0
 11
4.9474999999999998
 21
-4.0109645669291334
 31
0
  0
LINE
  5
25A
330
1A
100
AcDbEntity
  8
BLACK
  6
CONTINUOUS
100
AcDbLine
 10
4.9474999999999998
 20
-4.0109645669291334
 30
0
 11
4.9474999999999998
 21
-3.9742322834645667
 31
0
  0
LINE
  5
25B
330
1A
100
AcDbEntity
  8
BLACK
  6
CONTINUOUS
100
AcDbLine
 10
4.9474999999999998
 20
-3.9742322834645667
 30
0
 11
4.9304527559055114
 21
-3.9742322834645667
 31
0
  0
LINE
  5
25C
330
1A
100
AcDbEntity
  8
BLACK
  6
CONTINUOUS
100
AcDbLine
 10
5.1359960629921257
 20
-3.9694225984251967
 30
0
 11
5.1373490551181105
 21
-3.970775590551181
 31
0
  0
LINE
  5
25D
330
1A
100
AcDbEntity
  8
BLACK
  6
CONTINUOUS
100
AcDbLine
 10
5.1373490551181105
 20
-3.970775590551181
 30
0
 11
5.1375393700787404
 21
-3.9717322834645667
 31
0
  0
LINE
  5
25E
330
1A
100
AcDbEntity
  8
BLACK
  6
CONTINUOUS
100
AcDbLine
 10
5.1375393700787404
 20
-3.9717322834645667
 30
0
 11
5.1375393700787404
 21
-4.0134645669291338
 31
0
  0
LINE
  5
25F
330
1A
100
AcDbEntity
  8
BLACK
  6
CONTINUOUS
100
AcDbLine
 10
5.1375393700787404
 20
-4.0134645669291338
 30
0
 11
5.1373490551181105
 21
-4.0144212598425195
 31
0
  0
LINE
  5
260
330
1A
100
AcDbEntity
  8
BLACK
  6
CONTINUOUS
100
AcDbLine
 10
5.1373490551181105
 20
-4.0144212598425195
 30
0
 11
5.1359960629921257
 21
-4.0157742519685042
 31
0
  0
LINE
  5
261
330
1A
100
AcDbEntity
  8
BLACK
  6
CONTINUOUS
100
AcDbLine
 10
5.1359960629921257
 20
-4.0157742519685042
 30
0
 11
5.13503937007874
 21
-4.0159645669291342
 31
0
  0
LINE
  5
262
330
1A
100
AcDbEntity
  8
BLACK
  6
CONTINUOUS
100
AcDbLine
 10
5.13503937007874
 20
-4.0159645669291342
 30
0
 11
5.1129921259842517
 21
-4.0159645669291342
 31
0
  0
LINE
  5
263
330
1A
100
AcDbEntity
  8
BLACK
  6
CONTINUOUS
100
AcDbLine
 10
5.1129921259842517
 20
-4.0159645669291342
 30
0
 11
5.1120354330708659
 21
-4.0157742519685042
 31
0
  0
LINE
  5
264
330
1A
100
AcDbEntity
  8
BLACK
  6
CONTINUOUS
100
AcDbLine
 10
5.1120354330708659
 20
-4.0157742519685042
 30
0
 11
5.1106824409448821
 21
-4.0144212598425195
 31
0
  0
LINE
  5
265
330
1A
100
AcDbEntity
  8
BLACK
  6
CONTINUOUS
100
AcDbLine
 10
5.1106824409448821
 20
-4.0144212598425195
 30
0
 11
5.1104921259842522
 21
-4.0134645669291338
 31
0
  0
LINE
  5
266
330
1A
100
AcDbEntity
  8
BLACK
  6
CONTINUOUS
100
AcDbLine
 10
5.1104921259842522
 20
-4.0134645669291338
 30
0
 11
5.1104921259842522
 21
-3.9717322834645667
 31
0
  0
LINE
  5
267
330
1A
100
AcDbEntity
  8
BLACK
  6
CONTINUOUS
100
AcDbLine
 10
5.1104921259842522
 20
-3.9717322834645667
 30
0
 11
5.1106824409448821
 21
-3.970775590551181
 31
0
  0
LINE
  5
268
330
1A
100
AcDbEntity
  8
BLACK
  6
CONTINUOUS
100
AcDbLine
 10
5.1106824409448821
 20
-3.970775590551181
 30
0
 11
5.1120354330708659
 21
-3.9694225984251967
 31
0
  0
LINE
  5
269
330
1A
100
AcDbEntity
  8
BLACK
  6
CONTINUOUS
100
AcDbLine
 10
5.1120354330708659
 20
-3.9694225984251967
 30
0
 11
5.1129921259842517
 21
-3.9692322834645668
 31
0
  0
LINE
  5
26A
330
1A
100
AcDbEntity
  8
BLACK
  6
CONTINUOUS
100
AcDbLine
 10
5.1129921259842517
 20
-3.9692322834645668
 30
0
 11
5.13503937007874
 21
-3.9692322834645668
 31
0
  0
LINE
  5
26B
330
1A
100
AcDbEntity
  8
BLACK
  6
CONTINUOUS
100
AcDbLine
 10
5.13503937007874
 20
-3.9692322834645668
 30
0
 11
5.1359960629921257
 21
-3.9694225984251967
 31
0
  0
LINE
  5
26C
330
1A
100
AcDbEntity
  8
BLACK
  6
CONTINUOUS
100
AcDbLine
 10
5.1154921259842521
 20
-3.9742322834645667
 30
0
 11
5.1154921259842521
 21
-4.0109645669291334
 31
0
  0
LINE
  5
26D
330
1A
100
AcDbEntity
  8
BLACK
  6
CONTINUOUS
100
AcDbLine
 10
5.1154921259842521
 20
-4.0109645669291334
 30
0
 11
5.1325393700787396
 21
-4.0109645669291334
 31
0
  0
LINE
  5
26E
330
1A
100
AcDbEntity
  8
BLACK
  6
CONTINUOUS
100
AcDbLine
 10
5.1325393700787396
 20
-4.0109645669291334
 30
0
 11
5.1325393700787396
 21
-3.9742322834645667
 31
0
  0
LINE
  5
26F
330
1A
100
AcDbEntity
  8
BLACK
  6
CONTINUOUS
100
AcDbLine
 10
5.1325393700787396
 20
-3.9742322834645667
 30
0
 11
5.1154921259842521
 21
-3.9742322834645667
 31
0
  0
LINE
  5
270
330
1A
100
AcDbEntity
  8
BLACK
  6
CONTINUOUS
100
AcDbLine
 10
5.3210354330708665
 20
-3.9694225984251967
 30
0
 11
5.3223884251968503
 21
-3.970775590551181
 31
0
  0
LINE
  5
271
330
1A
100
AcDbEntity
  8
BLACK
  6
CONTINUOUS
100
AcDbLine
 10
5.3223884251968503
 20
-3.970775590551181
 30
0
 11
5.3225787401574802
 21
-3.9717322834645667
 31
0
  0
LINE
  5
272
330
1A
100
AcDbEntity
  8
BLACK
  6
CONTINUOUS
100
AcDbLine
 10
5.3225787401574802
 20
-3.9717322834645667
 30
0
 11
5.3225787401574802
 21
-4.0134645669291338
 31
0
  0
LINE
  5
273
330
1A
100
AcDbEntity
  8
BLACK
  6
CONTINUOUS
100
AcDbLine
 10
5.3225787401574802
 20
-4.0134645669291338
 30
0
 11
5.3223884251968503
 21
-4.0144212598425195
 31
0
  0
LINE
  5
274
330
1A
100
AcDbEntity
  8
BLACK
  6
CONTINUOUS
100
AcDbLine
 10
5.3223884251968503
 20
-4.0144212598425195
 30
0
 11
5.3210354330708665
 21
-4.0157742519685042
 31
0
  0
LINE
  5
275
330
1A
100
AcDbEntity
  8
BLACK
  6
CONTINUOUS
100
AcDbLine
 10
5.3210354330708665
 20
-4.0157742519685042
 30
0
 11
5.3200787401574798
 21
-4.0159645669291342
 31
0
  0
LINE
  5
276
330
1A
100
AcDbEntity
  8
BLACK
  6
CONTINUOUS
100
AcDbLine
 10
5.3200787401574798
 20
-4.0159645669291342
 30
0
 11
5.2980314960629924
 21
-4.0159645669291342
 31
0
  0
LINE
  5
277
330
1A
100
AcDbEntity
  8
BLACK
  6
CONTINUOUS
100
AcDbLine
 10
5.2980314960629924
 20
-4.0159645669291342
 30
0
 11
5.2970748031496058
 21
-4.0157742519685042
 31
0
  0
LINE
  5
278
330
1A
100
AcDbEntity
  8
BLACK
  6
CONTINUOUS
100
AcDbLine
 10
5.2970748031496058
 20
-4.0157742519685042
 30
0
 11
5.2957218110236219
 21
-4.0144212598425195
 31
0
  0
LINE
  5
279
330
1A
100
AcDbEntity
  8
BLACK
  6
CONTINUOUS
100
AcDbLine
 10
5.2957218110236219
 20
-4.0144212598425195
 30
0
 11
5.295531496062992
 21
-4.0134645669291338
 31
0
  0
LINE
  5
27A
330
1A
100
AcDbEntity
  8
BLACK
  6
CONTINUOUS
100
AcDbLine
 10
5.295531496062992
 20
-4.0134645669291338
 30
0
 11
5.295531496062992
 21
-3.9717322834645667
 31
0
  0
LINE
  5
27B
330
1A
100
AcDbEntity
  8
BLACK
  6
CONTINUOUS
100
AcDbLine
 10
5.295531496062992
 20
-3.9717322834645667
 30
0
 11
5.2957218110236219
 21
-3.970775590551181
 31
0
  0
LINE
  5
27C
330
1A
100
AcDbEntity
  8
BLACK
  6
CONTINUOUS
100
AcDbLine
 10
5.2957218110236219
 20
-3.970775590551181
 30
0
 11
5.2970748031496058
 21
-3.9694225984251967
 31
0
  0
LINE
  5
27D
330
1A
100
AcDbEntity
  8
BLACK
  6
CONTINUOUS
100
AcDbLine
 10
5.2970748031496058
 20
-3.9694225984251967
 30
0
 11
5.2980314960629924
 21
-3.9692322834645668
 31
0
  0
LINE
  5
27E
330
1A
100
AcDbEntity
  8
BLACK
  6
CONTINUOUS
100
AcDbLine
 10
5.2980314960629924
 20
-3.9692322834645668
 30
0
 11
5.3200787401574798
 21
-3.9692322834645668
 31
0
  0
LINE
  5
27F
330
1A
100
AcDbEntity
  8
BLACK
  6
CONTINUOUS
100
AcDbLine
 10
5.3200787401574798
 20
-3.9692322834645668
 30
0
 11
5.3210354330708665
 21
-3.9694225984251967
 31
0
  0
LINE
  5
280
330
1A
100
AcDbEntity
  8
BLACK
  6
CONTINUOUS
100
AcDbLine
 10
5.3005314960629919
 20
-3.9742322834645667
 30
0
 11
5.3005314960629919
 21
-4.0109645669291334
 31
0
  0
LINE
  5
281
330
1A
100
AcDbEntity
  8
BLACK
  6
CONTINUOUS
100
AcDbLine
 10
5.3005314960629919
 20
-4.0109645669291334
 30
0
 11
5.3175787401574803
 21
-4.0109645669291334
 31
0
  0
LINE
  5
282
330
1A
100
AcDbEntity
  8
BLACK
  6
CONTINUOUS
100
AcDbLine
 10
5.3175787401574803
 20
-4.0109645669291334
 30
0
 11
5.3175787401574803
 21
-3.9742322834645667
 31
0
  0
LINE
  5
283
330
1A
100
AcDbEntity
  8
BLACK
  6
CONTINUOUS
100
AcDbLine
 10
5.3175787401574803
 20
-3.9742322834645667
 30
0
 11
5.3005314960629919
 21
-3.9742322834645667
 31
0
  0
LINE
  5
284
330
1A
100
AcDbEntity
  8
BLACK
  6
CONTINUOUS
100
AcDbLine
 10
5.5060748031496063
 20
-3.9694225984251967
 30
0
 11
5.5074277952755901
 21
-3.970775590551181
 31
0
  0
LINE
  5
285
330
1A
100
AcDbEntity
  8
BLACK
  6
CONTINUOUS
100
AcDbLine
 10
5.5074277952755901
 20
-3.970775590551181
 30
0
 11
5.5076181102362201
 21
-3.9717322834645667
 31
0
  0
LINE
  5
286
330
1A
100
AcDbEntity
  8
BLACK
  6
CONTINUOUS
100
AcDbLine
 10
5.5076181102362201
 20
-3.9717322834645667
 30
0
 11
5.5076181102362201
 21
-4.0134645669291338
 31
0
  0
LINE
  5
287
330
1A
100
AcDbEntity
  8
BLACK
  6
CONTINUOUS
100
AcDbLine
 10
5.5076181102362201
 20
-4.0134645669291338
 30
0
 11
5.5074277952755901
 21
-4.0144212598425195
 31
0
  0
LINE
  5
288
330
1A
100
AcDbEntity
  8
BLACK
  6
CONTINUOUS
100
AcDbLine
 10
5.5074277952755901
 20
-4.0144212598425195
 30
0
 11
5.5060748031496063
 21
-4.0157742519685042
 31
0
  0
LINE
  5
289
330
1A
100
AcDbEntity
  8
BLACK
  6
CONTINUOUS
100
AcDbLine
 10
5.5060748031496063
 20
-4.0157742519685042
 30
0
 11
5.5051181102362206
 21
-4.0159645669291342
 31
0
  0
LINE
  5
28A
330
1A
100
AcDbEntity
  8
BLACK
  6
CONTINUOUS
100
AcDbLine
 10
5.5051181102362206
 20
-4.0159645669291342
 30
0
 11
5.4830708661417322
 21
-4.0159645669291342
 31
0
  0
LINE
  5
28B
330
1A
100
AcDbEntity
  8
BLACK
  6
CONTINUOUS
100
AcDbLine
 10
5.4830708661417322
 20
-4.0159645669291342
 30
0
 11
5.4821141732283465
 21
-4.0157742519685042
 31
0
  0
LINE
  5
28C
330
1A
100
AcDbEntity
  8
BLACK
  6
CONTINUOUS
100
AcDbLine
 10
5.4821141732283465
 20
-4.0157742519685042
 30
0
 11
5.4807611811023618
 21
-4.0144212598425195
 31
0
  0
LINE
  5
28D
330
1A
100
AcDbEntity
  8
BLACK
  6
CONTINUOUS
100
AcDbLine
 10
5.4807611811023618
 20
-4.0144212598425195
 30
0
 11
5.4805708661417318
 21
-4.0134645669291338
 31
0
  0
LINE
  5
28E
330
1A
100
AcDbEntity
  8
BLACK
  6
CONTINUOUS
100
AcDbLine
 10
5.4805708661417318
 20
-4.0134645669291338
 30
0
 11
5.4805708661417318
 21
-3.9717322834645667
 31
0
  0
LINE
  5
28F
330
1A
100
AcDbEntity
  8
BLACK
  6
CONTINUOUS
100
AcDbLine
 10
5.4805708661417318
 20
-3.9717322834645667
 30
0
 11
5.4807611811023618
 21
-3.970775590551181
 31
0
  0
LINE
  5
290
330
1A
100
AcDbEntity
  8
BLACK
  6
CONTINUOUS
100
AcDbLine
 10
5.4807611811023618
 20
-3.970775590551181
 30
0
 11
5.4821141732283465
 21
-3.9694225984251967
 31
0
  0
LINE
  5
291
330
1A
100
AcDbEntity
  8
BLACK
  6
CONTINUOUS
100
AcDbLine
 10
5.4821141732283465
 20
-3.9694225984251967
 30
0
 11
5.4830708661417322
 21
-3.9692322834645668
 31
0
  0
LINE
  5
292
330
1A
100
AcDbEntity
  8
BLACK
  6
CONTINUOUS
100
AcDbLine
 10
5.4830708661417322
 20
-3.9692322834645668
 30
0
 11
5.5051181102362206
 21
-3.9692322834645668
 31
0
  0
LINE
  5
293
330
1A
100
AcDbEntity
  8
BLACK
  6
CONTINUOUS
100
AcDbLine
 10
5.5051181102362206
 20
-3.9692322834645668
 30
0
 11
5.5060748031496063
 21
-3.9694225984251967
 31
0
  0
LINE
  5
294
330
1A
100
AcDbEntity
  8
BLACK
  6
CONTINUOUS
100
AcDbLine
 10
5.4855708661417317
 20
-3.9742322834645667
 30
0
 11
5.4855708661417317
 21
-4.0109645669291334
 31
0
  0
LINE
  5
295
330
1A
100
AcDbEntity
  8
BLACK
  6
CONTINUOUS
100
AcDbLine
 10
5.4855708661417317
 20
-4.0109645669291334
 30
0
 11
5.5026181102362202
 21
-4.0109645669291334
 31
0
  0
LINE
  5
296
330
1A
100
AcDbEntity
  8
BLACK
  6
CONTINUOUS
100
AcDbLine
 10
5.5026181102362202
 20
-4.0109645669291334
 30
0
 11
5.5026181102362202
 21
-3.9742322834645667
 31
0
  0
LINE
  5
297
330
1A
100
AcDbEntity
  8
BLACK
  6
CONTINUOUS
100
AcDbLine
 10
5.5026181102362202
 20
-3.9742322834645667
 30
0
 11
5.4855708661417317
 21
-3.9742322834645667
 31
0
  0
LINE
  5
298
330
1A
100
AcDbEntity
  8
BLACK
  6
CONTINUOUS
100
AcDbLine
 10
4.9764763385826774
 20
-3.8834667322834644
 30
0
 11
4.9764763385826774
 21
-3.8849496062992124
 31
0
  0
LINE
  5
299
330
1A
100
AcDbEntity
  8
BLACK
  6
CONTINUOUS
100
AcDbLine
 10
4.9764763385826774
 20
-3.8849496062992124
 30
0
 11
4.9760563385826773
 21
-3.8855781889763779
 31
0
  0
LINE
  5
29A
330
1A
100
AcDbEntity
  8
BLACK
  6
CONTINUOUS
100
AcDbLine
 10
4.9760563385826773
 20
-3.8855781889763779
 30
0
 11
4.9755405905511809
 21
-3.886093897637795
 31
0
  0
LINE
  5
29B
330
1A
100
AcDbEntity
  8
BLACK
  6
CONTINUOUS
100
AcDbLine
 10
4.9755405905511809
 20
-3.886093897637795
 30
0
 11
4.9753762992125985
 21
-3.886422440944882
 31
0
  0
LINE
  5
29C
330
1A
100
AcDbEntity
  8
BLACK
  6
CONTINUOUS
100
AcDbLine
 10
4.9753762992125985
 20
-3.886422440944882
 30
0
 11
4.9764192913385825
 21
-3.8885084251968505
 31
0
  0
LINE
  5
29D
330
1A
100
AcDbEntity
  8
BLACK
  6
CONTINUOUS
100
AcDbLine
 10
4.9764192913385825
 20
-3.8885084251968505
 30
0
 11
4.9766189370078742
 21
-3.8892375590551178
 31
0
  0
LINE
  5
29E
330
1A
100
AcDbEntity
  8
BLACK
  6
CONTINUOUS
100
AcDbLine
 10
4.9766189370078742
 20
-3.8892375590551178
 30
0
 11
4.976573149606299
 21
-3.8893748818897635
 31
0
  0
LINE
  5
29F
330
1A
100
AcDbEntity
  8
BLACK
  6
CONTINUOUS
100
AcDbLine
 10
4.976573149606299
 20
-3.8893748818897635
 30
0
 11
4.9766189370078742
 21
-3.889512244094488
 31
0
  0
LINE
  5
2A0
330
1A
100
AcDbEntity
  8
BLACK
  6
CONTINUOUS
100
AcDbLine
 10
4.9766189370078742
 20
-3.889512244094488
 30
0
 11
4.9764192519685038
 21
-3.8902413779527558
 31
0
  0
LINE
  5
2A1
330
1A
100
AcDbEntity
  8
BLACK
  6
CONTINUOUS
100
AcDbLine
 10
4.9764192519685038
 20
-3.8902413779527558
 30
0
 11
4.9756811417322835
 21
-3.8917175590551181
 31
0
  0
LINE
  5
2A2
330
1A
100
AcDbEntity
  8
BLACK
  6
CONTINUOUS
100
AcDbLine
 10
4.9756811417322835
 20
-3.8917175590551181
 30
0
 11
4.9754907874015748
 21
-3.8919627952755906
 31
0
  0
LINE
  5
2A3
330
1A
100
AcDbEntity
  8
BLACK
  6
CONTINUOUS
100
AcDbLine
 10
4.9754907874015748
 20
-3.8919627952755906
 30
0
 11
4.9753182677165357
 21
-3.8922210236220471
 31
0
  0
LINE
  5
2A4
330
1A
100
AcDbEntity
  8
BLACK
  6
CONTINUOUS
100
AcDbLine
 10
4.9753182677165357
 20
-3.8922210236220471
 30
0
 11
4.9745801968503933
 21
-3.8929591338582674
 31
0
  0
LINE
  5
2A5
330
1A
100
AcDbEntity
  8
BLACK
  6
CONTINUOUS
100
AcDbLine
 10
4.9745801968503933
 20
-3.8929591338582674
 30
0
 11
4.973951653543307
 21
-3.8933791732283463
 31
0
  0
LINE
  5
2A6
330
1A
100
AcDbEntity
  8
BLACK
  6
CONTINUOUS
100
AcDbLine
 10
4.973951653543307
 20
-3.8933791732283463
 30
0
 11
4.9724687795275591
 21
-3.893379212598425
 31
0
  0
LINE
  5
2A7
330
1A
100
AcDbEntity
  8
BLACK
  6
CONTINUOUS
100
AcDbLine
 10
4.9724687795275591
 20
-3.893379212598425
 30
0
 11
4.9714201574803152
 21
-3.8923306692913386
 31
0
  0
LINE
  5
2A8
330
1A
100
AcDbEntity
  8
BLACK
  6
CONTINUOUS
100
AcDbLine
 10
4.9714201574803152
 20
-3.8923306692913386
 30
0
 11
4.9714201181102364
 21
-3.8908477952755907
 31
0
  0
LINE
  5
2A9
330
1A
100
AcDbEntity
  8
BLACK
  6
CONTINUOUS
100
AcDbLine
 10
4.9714201181102364
 20
-3.8908477952755907
 30
0
 11
4.9718401181102365
 21
-3.8902192125984252
 31
0
  0
LINE
  5
2AA
330
1A
100
AcDbEntity
  8
BLACK
  6
CONTINUOUS
100
AcDbLine
 10
4.9718401181102365
 20
-3.8902192125984252
 30
0
 11
4.972355866141732
 21
-3.8897033858267718
 31
0
  0
LINE
  5
2AB
330
1A
100
AcDbEntity
  8
BLACK
  6
CONTINUOUS
100
AcDbLine
 10
4.972355866141732
 20
-3.8897033858267718
 30
0
 11
4.9725201574803153
 21
-3.8893748818897635
 31
0
  0
LINE
  5
2AC
330
1A
100
AcDbEntity
  8
BLACK
  6
CONTINUOUS
100
AcDbLine
 10
4.9725201574803153
 20
-3.8893748818897635
 30
0
 11
4.9714772047244091
 21
-3.8872889370078738
 31
0
  0
LINE
  5
2AD
330
1A
100
AcDbEntity
  8
BLACK
  6
CONTINUOUS
100
AcDbLine
 10
4.9714772047244091
 20
-3.8872889370078738
 30
0
 11
4.9712775590551184
 21
-3.886559803149606
 31
0
  0
LINE
  5
2AE
330
1A
100
AcDbEntity
  8
BLACK
  6
CONTINUOUS
100
AcDbLine
 10
4.9712775590551184
 20
-3.886559803149606
 30
0
 11
4.9713233070866139
 21
-3.886422440944882
 31
0
  0
LINE
  5
2AF
330
1A
100
AcDbEntity
  8
BLACK
  6
CONTINUOUS
100
AcDbLine
 10
4.9713233070866139
 20
-3.886422440944882
 30
0
 11
4.9712775590551184
 21
-3.886285157480315
 31
0
  0
LINE
  5
2B0
330
1A
100
AcDbEntity
  8
BLACK
  6
CONTINUOUS
100
AcDbLine
 10
4.9712775590551184
 20
-3.886285157480315
 30
0
 11
4.9714772047244091
 21
-3.8855560236220472
 31
0
  0
LINE
  5
2B1
330
1A
100
AcDbEntity
  8
BLACK
  6
CONTINUOUS
100
AcDbLine
 10
4.9714772047244091
 20
-3.8855560236220472
 30
0
 11
4.9722152755905507
 21
-3.8840798818897637
 31
0
  0
LINE
  5
2B2
330
1A
100
AcDbEntity
  8
BLACK
  6
CONTINUOUS
100
AcDbLine
 10
4.9722152755905507
 20
-3.8840798818897637
 30
0
 11
4.9724056692913381
 21
-3.8838345275590549
 31
0
  0
LINE
  5
2B3
330
1A
100
AcDbEntity
  8
BLACK
  6
CONTINUOUS
100
AcDbLine
 10
4.9724056692913381
 20
-3.8838345275590549
 30
0
 11
4.9725782283464568
 21
-3.8835762992125984
 31
0
  0
LINE
  5
2B4
330
1A
100
AcDbEntity
  8
BLACK
  6
CONTINUOUS
100
AcDbLine
 10
4.9725782283464568
 20
-3.8835762992125984
 30
0
 11
4.9733163385826771
 21
-3.8828381889763777
 31
0
  0
LINE
  5
2B5
330
1A
100
AcDbEntity
  8
BLACK
  6
CONTINUOUS
100
AcDbLine
 10
4.9733163385826771
 20
-3.8828381889763777
 30
0
 11
4.9739449212598421
 21
-3.882418188976378
 31
0
  0
LINE
  5
2B6
330
1A
100
AcDbEntity
  8
BLACK
  6
CONTINUOUS
100
AcDbLine
 10
4.9739449212598421
 20
-3.882418188976378
 30
0
 11
4.9754277952755901
 21
-3.882418188976378
 31
0
  0
LINE
  5
2B7
330
1A
100
AcDbEntity
  8
BLACK
  6
CONTINUOUS
100
AcDbLine
 10
4.9754277952755901
 20
-3.882418188976378
 30
0
 11
4.9764763385826774
 21
-3.8834667322834644
 31
0
  0
LINE
  5
2B8
330
1A
100
AcDbEntity
  8
BLACK
  6
CONTINUOUS
100
AcDbLine
 10
5.1615157086614172
 20
-3.8834667322834644
 30
0
 11
5.1615157086614172
 21
-3.8849496062992124
 31
0
  0
LINE
  5
2B9
330
1A
100
AcDbEntity
  8
BLACK
  6
CONTINUOUS
100
AcDbLine
 10
5.1615157086614172
 20
-3.8849496062992124
 30
0
 11
5.1610957086614171
 21
-3.8855781889763779
 31
0
  0
LINE
  5
2BA
330
1A
100
AcDbEntity
  8
BLACK
  6
CONTINUOUS
100
AcDbLine
 10
5.1610957086614171
 20
-3.8855781889763779
 30
0
 11
5.1605799606299207
 21
-3.886093897637795
 31
0
  0
LINE
  5
2BB
330
1A
100
AcDbEntity
  8
BLACK
  6
CONTINUOUS
100
AcDbLine
 10
5.1605799606299207
 20
-3.886093897637795
 30
0
 11
5.1604156692913383
 21
-3.886422440944882
 31
0
  0
LINE
  5
2BC
330
1A
100
AcDbEntity
  8
BLACK
  6
CONTINUOUS
100
AcDbLine
 10
5.1604156692913383
 20
-3.886422440944882
 30
0
 11
5.1614586614173223
 21
-3.8885084251968505
 31
0
  0
LINE
  5
2BD
330
1A
100
AcDbEntity
  8
BLACK
  6
CONTINUOUS
100
AcDbLine
 10
5.1614586614173223
 20
-3.8885084251968505
 30
0
 11
5.161658307086614
 21
-3.8892375590551178
 31
0
  0
LINE
  5
2BE
330
1A
100
AcDbEntity
  8
BLACK
  6
CONTINUOUS
100
AcDbLine
 10
5.161658307086614
 20
-3.8892375590551178
 30
0
 11
5.1616125196850389
 21
-3.8893748818897635
 31
0
  0
LINE
  5
2BF
330
1A
100
AcDbEntity
  8
BLACK
  6
CONTINUOUS
100
AcDbLine
 10
5.1616125196850389
 20
-3.8893748818897635
 30
0
 11
5.161658307086614
 21
-3.889512244094488
 31
0
  0
LINE
  5
2C0
330
1A
100
AcDbEntity
  8
BLACK
  6
CONTINUOUS
100
AcDbLine
 10
5.161658307086614
 20
-3.889512244094488
 30
0
 11
5.1614586220472436
 21
-3.8902413779527558
 31
0
  0
LINE
  5
2C1
330
1A
100
AcDbEntity
  8
BLACK
  6
CONTINUOUS
100
AcDbLine
 10
5.1614586220472436
 20
-3.8902413779527558
 30
0
 11
5.1607205118110233
 21
-3.8917175590551181
 31
0
  0
LINE
  5
2C2
330
1A
100
AcDbEntity
  8
BLACK
  6
CONTINUOUS
100
AcDbLine
 10
5.1607205118110233
 20
-3.8917175590551181
 30
0
 11
5.1605301574803146
 21
-3.8919627952755906
 31
0
  0
LINE
  5
2C3
330
1A
100
AcDbEntity
  8
BLACK
  6
CONTINUOUS
100
AcDbLine
 10
5.1605301574803146
 20
-3.8919627952755906
 30
0
 11
5.1603576377952756
 21
-3.8922210236220471
 31
0
  0
LINE
  5
2C4
330
1A
100
AcDbEntity
  8
BLACK
  6
CONTINUOUS
100
AcDbLine
 10
5.1603576377952756
 20
-3.8922210236220471
 30
0
 11
5.159619566929134
 21
-3.8929591338582674
 31
0
  0
LINE
  5
2C5
330
1A
100
AcDbEntity
  8
BLACK
  6
CONTINUOUS
100
AcDbLine
 10
5.159619566929134
 20
-3.8929591338582674
 30
0
 11
5.1589910236220469
 21
-3.8933791732283463
 31
0
  0
LINE
  5
2C6
330
1A
100
AcDbEntity
  8
BLACK
  6
CONTINUOUS
100
AcDbLine
 10
5.1589910236220469
 20
-3.8933791732283463
 30
0
 11
5.1575081496062989
 21
-3.893379212598425
 31
0
  0
LINE
  5
2C7
330
1A
100
AcDbEntity
  8
BLACK
  6
CONTINUOUS
100
AcDbLine
 10
5.1575081496062989
 20
-3.893379212598425
 30
0
 11
5.156459527559055
 21
-3.8923306692913386
 31
0
  0
LINE
  5
2C8
330
1A
100
AcDbEntity
  8
BLACK
  6
CONTINUOUS
100
AcDbLine
 10
5.156459527559055
 20
-3.8923306692913386
 30
0
 11
5.1564594881889763
 21
-3.8908477952755907
 31
0
  0
LINE
  5
2C9
330
1A
100
AcDbEntity
  8
BLACK
  6
CONTINUOUS
100
AcDbLine
 10
5.1564594881889763
 20
-3.8908477952755907
 30
0
 11
5.1568794881889763
 21
-3.8902192125984252
 31
0
  0
LINE
  5
2CA
330
1A
100
AcDbEntity
  8
BLACK
  6
CONTINUOUS
100
AcDbLine
 10
5.1568794881889763
 20
-3.8902192125984252
 30
0
 11
5.1573952362204727
 21
-3.8897033858267718
 31
0
  0
LINE
  5
2CB
330
1A
100
AcDbEntity
  8
BLACK
  6
CONTINUOUS
100
AcDbLine
 10
5.1573952362204727
 20
-3.8897033858267718
 30
0
 11
5.1575595275590551
 21
-3.8893748818897635
 31
0
  0
LINE
  5
2CC
330
1A
100
AcDbEntity
  8
BLACK
  6
CONTINUOUS
100
AcDbLine
 10
5.1575595275590551
 20
-3.8893748818897635
 30
0
 11
5.1565165748031498
 21
-3.8872889370078738
 31
0
  0
LINE
  5
2CD
330
1A
100
AcDbEntity
  8
BLACK
  6
CONTINUOUS
100
AcDbLine
 10
5.1565165748031498
 20
-3.8872889370078738
 30
0
 11
5.1563169291338582
 21
-3.886559803149606
 31
0
  0
LINE
  5
2CE
330
1A
100
AcDbEntity
  8
BLACK
  6
CONTINUOUS
100
AcDbLine
 10
5.1563169291338582
 20
-3.886559803149606
 30
0
 11
5.1563626771653546
 21
-3.886422440944882
 31
0
  0
LINE
  5
2CF
330
1A
100
AcDbEntity
  8
BLACK
  6
CONTINUOUS
100
AcDbLine
 10
5.1563626771653546
 20
-3.886422440944882
 30
0
 11
5.1563169291338582
 21
-3.886285157480315
 31
0
  0
LINE
  5
2D0
330
1A
100
AcDbEntity
  8
BLACK
  6
CONTINUOUS
100
AcDbLine
 10
5.1563169291338582
 20
-3.886285157480315
 30
0
 11
5.1565165748031498
 21
-3.8855560236220472
 31
0
  0
LINE
  5
2D1
330
1A
100
AcDbEntity
  8
BLACK
  6
CONTINUOUS
100
AcDbLine
 10
5.1565165748031498
 20
-3.8855560236220472
 30
0
 11
5.1572546456692914
 21
-3.8840798818897637
 31
0
  0
LINE
  5
2D2
330
1A
100
AcDbEntity
  8
BLACK
  6
CONTINUOUS
100
AcDbLine
 10
5.1572546456692914
 20
-3.8840798818897637
 30
0
 11
5.1574450393700788
 21
-3.8838345275590549
 31
0
  0
LINE
  5
2D3
330
1A
100
AcDbEntity
  8
BLACK
  6
CONTINUOUS
100
AcDbLine
 10
5.1574450393700788
 20
-3.8838345275590549
 30
0
 11
5.1576175984251966
 21
-3.8835762992125984
 31
0
  0
LINE
  5
2D4
330
1A
100
AcDbEntity
  8
BLACK
  6
CONTINUOUS
100
AcDbLine
 10
5.1576175984251966
 20
-3.8835762992125984
 30
0
 11
5.1583557086614169
 21
-3.8828381889763777
 31
0
  0
LINE
  5
2D5
330
1A
100
AcDbEntity
  8
BLACK
  6
CONTINUOUS
100
AcDbLine
 10
5.1583557086614169
 20
-3.8828381889763777
 30
0
 11
5.1589842913385828
 21
-3.882418188976378
 31
0
  0
LINE
  5
2D6
330
1A
100
AcDbEntity
  8
BLACK
  6
CONTINUOUS
100
AcDbLine
 10
5.1589842913385828
 20
-3.882418188976378
 30
0
 11
5.1604671653543308
 21
-3.882418188976378
 31
0
  0
LINE
  5
2D7
330
1A
100
AcDbEntity
  8
BLACK
  6
CONTINUOUS
100
AcDbLine
 10
5.1604671653543308
 20
-3.882418188976378
 30
0
 11
5.1615157086614172
 21
-3.8834667322834644
 31
0
  0
LINE
  5
2D8
330
1A
100
AcDbEntity
  8
BLACK
  6
CONTINUOUS
100
AcDbLine
 10
5.346555078740157
 20
-3.8834667322834644
 30
0
 11
5.346555078740157
 21
-3.8849496062992124
 31
0
  0
LINE
  5
2D9
330
1A
100
AcDbEntity
  8
BLACK
  6
CONTINUOUS
100
AcDbLine
 10
5.346555078740157
 20
-3.8849496062992124
 30
0
 11
5.3461350787401569
 21
-3.8855781889763779
 31
0
  0
LINE
  5
2DA
330
1A
100
AcDbEntity
  8
BLACK
  6
CONTINUOUS
100
AcDbLine
 10
5.3461350787401569
 20
-3.8855781889763779
 30
0
 11
5.3456193307086615
 21
-3.886093897637795
 31
0
  0
LINE
  5
2DB
330
1A
100
AcDbEntity
  8
BLACK
  6
CONTINUOUS
100
AcDbLine
 10
5.3456193307086615
 20
-3.886093897637795
 30
0
 11
5.345455039370079
 21
-3.886422440944882
 31
0
  0
LINE
  5
2DC
330
1A
100
AcDbEntity
  8
BLACK
  6
CONTINUOUS
100
AcDbLine
 10
5.345455039370079
 20
-3.886422440944882
 30
0
 11
5.3464980314960631
 21
-3.8885084251968505
 31
0
  0
LINE
  5
2DD
330
1A
100
AcDbEntity
  8
BLACK
  6
CONTINUOUS
100
AcDbLine
 10
5.3464980314960631
 20
-3.8885084251968505
 30
0
 11
5.3466976771653538
 21
-3.8892375590551178
 31
0
  0
LINE
  5
2DE
330
1A
100
AcDbEntity
  8
BLACK
  6
CONTINUOUS
100
AcDbLine
 10
5.3466976771653538
 20
-3.8892375590551178
 30
0
 11
5.3466518897637796
 21
-3.8893748818897635
 31
0
  0
LINE
  5
2DF
330
1A
100
AcDbEntity
  8
BLACK
  6
CONTINUOUS
100
AcDbLine
 10
5.3466518897637796
 20
-3.8893748818897635
 30
0
 11
5.3466976771653538
 21
-3.889512244094488
 31
0
  0
LINE
  5
2E0
330
1A
100
AcDbEntity
  8
BLACK
  6
CONTINUOUS
100
AcDbLine
 10
5.3466976771653538
 20
-3.889512244094488
 30
0
 11
5.3464979921259843
 21
-3.8902413779527558
 31
0
  0
LINE
  5
2E1
330
1A
100
AcDbEntity
  8
BLACK
  6
CONTINUOUS
100
AcDbLine
 10
5.3464979921259843
 20
-3.8902413779527558
 30
0
 11
5.345759881889764
 21
-3.8917175590551181
 31
0
  0
LINE
  5
2E2
330
1A
100
AcDbEntity
  8
BLACK
  6
CONTINUOUS
100
AcDbLine
 10
5.345759881889764
 20
-3.8917175590551181
 30
0
 11
5.3455695275590553
 21
-3.8919627952755906
 31
0
  0
LINE
  5
2E3
330
1A
100
AcDbEntity
  8
BLACK
  6
CONTINUOUS
100
AcDbLine
 10
5.3455695275590553
 20
-3.8919627952755906
 30
0
 11
5.3453970078740154
 21
-3.8922210236220471
 31
0
  0
LINE
  5
2E4
330
1A
100
AcDbEntity
  8
BLACK
  6
CONTINUOUS
100
AcDbLine
 10
5.3453970078740154
 20
-3.8922210236220471
 30
0
 11
5.3446589370078739
 21
-3.8929591338582674
 31
0
  0
LINE
  5
2E5
330
1A
100
AcDbEntity
  8
BLACK
  6
CONTINUOUS
100
AcDbLine
 10
5.3446589370078739
 20
-3.8929591338582674
 30
0
 11
5.3440303937007876
 21
-3.8933791732283463
 31
0
  0
LINE
  5
2E6
330
1A
100
AcDbEntity
  8
BLACK
  6
CONTINUOUS
100
AcDbLine
 10
5.3440303937007876
 20
-3.8933791732283463
 30
0
 11
5.3425475196850396
 21
-3.893379212598425
 31
0
  0
LINE
  5
2E7
330
1A
100
AcDbEntity
  8
BLACK
  6
CONTINUOUS
100
AcDbLine
 10
5.3425475196850396
 20
-3.893379212598425
 30
0
 11
5.3414988976377948
 21
-3.8923306692913386
 31
0
  0
LINE
  5
2E8
330
1A
100
AcDbEntity
  8
BLACK
  6
CONTINUOUS
100
AcDbLine
 10
5.3414988976377948
 20
-3.8923306692913386
 30
0
 11
5.3414988582677161
 21
-3.8908477952755907
 31
0
  0
LINE
  5
2E9
330
1A
100
AcDbEntity
  8
BLACK
  6
CONTINUOUS
100
AcDbLine
 10
5.3414988582677161
 20
-3.8908477952755907
 30
0
 11
5.3419188582677162
 21
-3.8902192125984252
 31
0
  0
LINE
  5
2EA
330
1A
100
AcDbEntity
  8
BLACK
  6
CONTINUOUS
100
AcDbLine
 10
5.3419188582677162
 20
-3.8902192125984252
 30
0
 11
5.3424346062992125
 21
-3.8897033858267718
 31
0
  0
LINE
  5
2EB
330
1A
100
AcDbEntity
  8
BLACK
  6
CONTINUOUS
100
AcDbLine
 10
5.3424346062992125
 20
-3.8897033858267718
 30
0
 11
5.3425988976377949
 21
-3.8893748818897635
 31
0
  0
LINE
  5
2EC
330
1A
100
AcDbEntity
  8
BLACK
  6
CONTINUOUS
100
AcDbLine
 10
5.3425988976377949
 20
-3.8893748818897635
 30
0
 11
5.3415559448818897
 21
-3.8872889370078738
 31
0
  0
LINE
  5
2ED
330
1A
100
AcDbEntity
  8
BLACK
  6
CONTINUOUS
100
AcDbLine
 10
5.3415559448818897
 20
-3.8872889370078738
 30
0
 11
5.341356299212598
 21
-3.886559803149606
 31
0
  0
LINE
  5
2EE
330
1A
100
AcDbEntity
  8
BLACK
  6
CONTINUOUS
100
AcDbLine
 10
5.341356299212598
 20
-3.886559803149606
 30
0
 11
5.3414020472440944
 21
-3.886422440944882
 31
0
  0
LINE
  5
2EF
330
1A
100
AcDbEntity
  8
BLACK
  6
CONTINUOUS
100
AcDbLine
 10
5.3414020472440944
 20
-3.886422440944882
 30
0
 11
5.341356299212598
 21
-3.886285157480315
 31
0
  0
LINE
  5
2F0
330
1A
100
AcDbEntity
  8
BLACK
  6
CONTINUOUS
100
AcDbLine
 10
5.341356299212598
 20
-3.886285157480315
 30
0
 11
5.3415559448818897
 21
-3.8855560236220472
 31
0
  0
LINE
  5
2F1
330
1A
100
AcDbEntity
  8
BLACK
  6
CONTINUOUS
100
AcDbLine
 10
5.3415559448818897
 20
-3.8855560236220472
 30
0
 11
5.3422940157480312
 21
-3.8840798818897637
 31
0
  0
LINE
  5
2F2
330
1A
100
AcDbEntity
  8
BLACK
  6
CONTINUOUS
100
AcDbLine
 10
5.3422940157480312
 20
-3.8840798818897637
 30
0
 11
5.3424844094488186
 21
-3.8838345275590549
 31
0
  0
LINE
  5
2F3
330
1A
100
AcDbEntity
  8
BLACK
  6
CONTINUOUS
100
AcDbLine
 10
5.3424844094488186
 20
-3.8838345275590549
 30
0
 11
5.3426569685039365
 21
-3.8835762992125984
 31
0
  0
LINE
  5
2F4
330
1A
100
AcDbEntity
  8
BLACK
  6
CONTINUOUS
100
AcDbLine
 10
5.3426569685039365
 20
-3.8835762992125984
 30
0
 11
5.3433950787401576
 21
-3.8828381889763777
 31
0
  0
LINE
  5
2F5
330
1A
100
AcDbEntity
  8
BLACK
  6
CONTINUOUS
100
AcDbLine
 10
5.3433950787401576
 20
-3.8828381889763777
 30
0
 11
5.3440236614173227
 21
-3.882418188976378
 31
0
  0
LINE
  5
2F6
330
1A
100
AcDbEntity
  8
BLACK
  6
CONTINUOUS
100
AcDbLine
 10
5.3440236614173227
 20
-3.882418188976378
 30
0
 11
5.3455065354330706
 21
-3.882418188976378
 31
0
  0
LINE
  5
2F7
330
1A
100
AcDbEntity
  8
BLACK
  6
CONTINUOUS
100
AcDbLine
 10
5.3455065354330706
 20
-3.882418188976378
 30
0
 11
5.346555078740157
 21
-3.8834667322834644
 31
0
  0
LINE
  5
2F8
330
1A
100
AcDbEntity
  8
BLACK
  6
CONTINUOUS
100
AcDbLine
 10
5.5315944488188977
 20
-3.8834667322834644
 30
0
 11
5.5315944488188977
 21
-3.8849496062992124
 31
0
  0
LINE
  5
2F9
330
1A
100
AcDbEntity
  8
BLACK
  6
CONTINUOUS
100
AcDbLine
 10
5.5315944488188977
 20
-3.8849496062992124
 30
0
 11
5.5311744488188976
 21
-3.8855781889763779
 31
0
  0
LINE
  5
2FA
330
1A
100
AcDbEntity
  8
BLACK
  6
CONTINUOUS
100
AcDbLine
 10
5.5311744488188976
 20
-3.8855781889763779
 30
0
 11
5.5306587007874013
 21
-3.886093897637795
 31
0
  0
LINE
  5
2FB
330
1A
100
AcDbEntity
  8
BLACK
  6
CONTINUOUS
100
AcDbLine
 10
5.5306587007874013
 20
-3.886093897637795
 30
0
 11
5.5304944094488189
 21
-3.886422440944882
 31
0
  0
LINE
  5
2FC
330
1A
100
AcDbEntity
  8
BLACK
  6
CONTINUOUS
100
AcDbLine
 10
5.5304944094488189
 20
-3.886422440944882
 30
0
 11
5.5315374015748029
 21
-3.8885084251968505
 31
0
  0
LINE
  5
2FD
330
1A
100
AcDbEntity
  8
BLACK
  6
CONTINUOUS
100
AcDbLine
 10
5.5315374015748029
 20
-3.8885084251968505
 30
0
 11
5.5317370472440945
 21
-3.8892375590551178
 31
0
  0
LINE
  5
2FE
330
1A
100
AcDbEntity
  8
BLACK
  6
CONTINUOUS
100
AcDbLine
 10
5.5317370472440945
 20
-3.8892375590551178
 30
0
 11
5.5316912598425194
 21
-3.8893748818897635
 31
0
  0
LINE
  5
2FF
330
1A
100
AcDbEntity
  8
BLACK
  6
CONTINUOUS
100
AcDbLine
 10
5.5316912598425194
 20
-3.8893748818897635
 30
0
 11
5.5317370472440945
 21
-3.889512244094488
 31
0
  0
LINE
  5
300
330
1A
100
AcDbEntity
  8
BLACK
  6
CONTINUOUS
100
AcDbLine
 10
5.5317370472440945
 20
-3.889512244094488
 30
0
 11
5.5315373622047241
 21
-3.8902413779527558
 31
0
  0
LINE
  5
301
330
1A
100
AcDbEntity
  8
BLACK
  6
CONTINUOUS
100
AcDbLine
 10
5.5315373622047241
 20
-3.8902413779527558
 30
0
 11
5.5307992519685039
 21
-3.8917175590551181
 31
0
  0
LINE
  5
302
330
1A
100
AcDbEntity
  8
BLACK
  6
CONTINUOUS
100
AcDbLine
 10
5.5307992519685039
 20
-3.8917175590551181
 30
0
 11
5.5306088976377952
 21
-3.8919627952755906
 31
0
  0
LINE
  5
303
330
1A
100
AcDbEntity
  8
BLACK
  6
CONTINUOUS
100
AcDbLine
 10
5.5306088976377952
 20
-3.8919627952755906
 30
0
 11
5.5304363779527561
 21
-3.8922210236220471
 31
0
  0
LINE
  5
304
330
1A
100
AcDbEntity
  8
BLACK
  6
CONTINUOUS
100
AcDbLine
 10
5.5304363779527561
 20
-3.8922210236220471
 30
0
 11
5.5296983070866137
 21
-3.8929591338582674
 31
0
  0
LINE
  5
305
330
1A
100
AcDbEntity
  8
BLACK
  6
CONTINUOUS
100
AcDbLine
 10
5.5296983070866137
 20
-3.8929591338582674
 30
0
 11
5.5290697637795274
 21
-3.8933791732283463
 31
0
  0
LINE
  5
306
330
1A
100
AcDbEntity
  8
BLACK
  6
CONTINUOUS
100
AcDbLine
 10
5.5290697637795274
 20
-3.8933791732283463
 30
0
 11
5.5275868897637794
 21
-3.893379212598425
 31
0
  0
LINE
  5
307
330
1A
100
AcDbEntity
  8
BLACK
  6
CONTINUOUS
100
AcDbLine
 10
5.5275868897637794
 20
-3.893379212598425
 30
0
 11
5.5265382677165356
 21
-3.8923306692913386
 31
0
  0
LINE
  5
308
330
1A
100
AcDbEntity
  8
BLACK
  6
CONTINUOUS
100
AcDbLine
 10
5.5265382677165356
 20
-3.8923306692913386
 30
0
 11
5.5265382283464568
 21
-3.8908477952755907
 31
0
  0
LINE
  5
309
330
1A
100
AcDbEntity
  8
BLACK
  6
CONTINUOUS
100
AcDbLine
 10
5.5265382283464568
 20
-3.8908477952755907
 30
0
 11
5.5269582283464569
 21
-3.8902192125984252
 31
0
  0
LINE
  5
30A
330
1A
100
AcDbEntity
  8
BLACK
  6
CONTINUOUS
100
AcDbLine
 10
5.5269582283464569
 20
-3.8902192125984252
 30
0
 11
5.5274739763779523
 21
-3.8897033858267718
 31
0
  0
LINE
  5
30B
330
1A
100
AcDbEntity
  8
BLACK
  6
CONTINUOUS
100
AcDbLine
 10
5.5274739763779523
 20
-3.8897033858267718
 30
0
 11
5.5276382677165357
 21
-3.8893748818897635
 31
0
  0
LINE
  5
30C
330
1A
100
AcDbEntity
  8
BLACK
  6
CONTINUOUS
100
AcDbLine
 10
5.5276382677165357
 20
-3.8893748818897635
 30
0
 11
5.5265953149606295
 21
-3.8872889370078738
 31
0
  0
LINE
  5
30D
330
1A
100
AcDbEntity
  8
BLACK
  6
CONTINUOUS
100
AcDbLine
 10
5.5265953149606295
 20
-3.8872889370078738
 30
0
 11
5.5263956692913387
 21
-3.886559803149606
 31
0
  0
LINE
  5
30E
330
1A
100
AcDbEntity
  8
BLACK
  6
CONTINUOUS
100
AcDbLine
 10
5.5263956692913387
 20
-3.886559803149606
 30
0
 11
5.5264414173228342
 21
-3.886422440944882
 31
0
  0
LINE
  5
30F
330
1A
100
AcDbEntity
  8
BLACK
  6
CONTINUOUS
100
AcDbLine
 10
5.5264414173228342
 20
-3.886422440944882
 30
0
 11
5.5263956692913387
 21
-3.886285157480315
 31
0
  0
LINE
  5
310
330
1A
100
AcDbEntity
  8
BLACK
  6
CONTINUOUS
100
AcDbLine
 10
5.5263956692913387
 20
-3.886285157480315
 30
0
 11
5.5265953149606295
 21
-3.8855560236220472
 31
0
  0
LINE
  5
311
330
1A
100
AcDbEntity
  8
BLACK
  6
CONTINUOUS
100
AcDbLine
 10
5.5265953149606295
 20
-3.8855560236220472
 30
0
 11
5.5273333858267719
 21
-3.8840798818897637
 31
0
  0
LINE
  5
312
330
1A
100
AcDbEntity
  8
BLACK
  6
CONTINUOUS
100
AcDbLine
 10
5.5273333858267719
 20
-3.8840798818897637
 30
0
 11
5.5275237795275594
 21
-3.8838345275590549
 31
0
  0
LINE
  5
313
330
1A
100
AcDbEntity
  8
BLACK
  6
CONTINUOUS
100
AcDbLine
 10
5.5275237795275594
 20
-3.8838345275590549
 30
0
 11
5.5276963385826772
 21
-3.8835762992125984
 31
0
  0
LINE
  5
314
330
1A
100
AcDbEntity
  8
BLACK
  6
CONTINUOUS
100
AcDbLine
 10
5.5276963385826772
 20
-3.8835762992125984
 30
0
 11
5.5284344488188975
 21
-3.8828381889763777
 31
0
  0
LINE
  5
315
330
1A
100
AcDbEntity
  8
BLACK
  6
CONTINUOUS
100
AcDbLine
 10
5.5284344488188975
 20
-3.8828381889763777
 30
0
 11
5.5290630314960625
 21
-3.882418188976378
 31
0
  0
LINE
  5
316
330
1A
100
AcDbEntity
  8
BLACK
  6
CONTINUOUS
100
AcDbLine
 10
5.5290630314960625
 20
-3.882418188976378
 30
0
 11
5.5305459055118105
 21
-3.882418188976378
 31
0
  0
LINE
  5
317
330
1A
100
AcDbEntity
  8
BLACK
  6
CONTINUOUS
100
AcDbLine
 10
5.5305459055118105
 20
-3.882418188976378
 30
0
 11
5.5315944488188977
 21
-3.8834667322834644
 31
0
  0
LINE
  5
318
330
1A
100
AcDbEntity
  8
BLACK
  6
CONTINUOUS
100
AcDbLine
 10
4.9509566929133859
 20
-3.7843832283464565
 30
0
 11
4.9523096850393697
 21
-3.7857362204724407
 31
0
  0
LINE
  5
319
330
1A
100
AcDbEntity
  8
BLACK
  6
CONTINUOUS
100
AcDbLine
 10
4.9523096850393697
 20
-3.7857362204724407
 30
0
 11
4.9524999999999997
 21
-3.7866929133858265
 31
0
  0
LINE
  5
31A
330
1A
100
AcDbEntity
  8
BLACK
  6
CONTINUOUS
100
AcDbLine
 10
4.9524999999999997
 20
-3.7866929133858265
 30
0
 11
4.9524999999999997
 21
-3.8284251968503935
 31
0
  0
LINE
  5
31B
330
1A
100
AcDbEntity
  8
BLACK
  6
CONTINUOUS
100
AcDbLine
 10
4.9524999999999997
 20
-3.8284251968503935
 30
0
 11
4.9523096850393697
 21
-3.8293818897637792
 31
0
  0
LINE
  5
31C
330
1A
100
AcDbEntity
  8
BLACK
  6
CONTINUOUS
100
AcDbLine
 10
4.9523096850393697
 20
-3.8293818897637792
 30
0
 11
4.9509566929133859
 21
-3.8307348818897635
 31
0
  0
LINE
  5
31D
330
1A
100
AcDbEntity
  8
BLACK
  6
CONTINUOUS
100
AcDbLine
 10
4.9509566929133859
 20
-3.8307348818897635
 30
0
 11
4.9500000000000002
 21
-3.8309251968503935
 31
0
  0
LINE
  5
31E
330
1A
100
AcDbEntity
  8
BLACK
  6
CONTINUOUS
100
AcDbLine
 10
4.9500000000000002
 20
-3.8309251968503935
 30
0
 11
4.9279527559055119
 21
-3.8309251968503935
 31
0
  0
LINE
  5
31F
330
1A
100
AcDbEntity
  8
BLACK
  6
CONTINUOUS
100
AcDbLine
 10
4.9279527559055119
 20
-3.8309251968503935
 30
0
 11
4.9269960629921261
 21
-3.8307348818897635
 31
0
  0
LINE
  5
320
330
1A
100
AcDbEntity
  8
BLACK
  6
CONTINUOUS
100
AcDbLine
 10
4.9269960629921261
 20
-3.8307348818897635
 30
0
 11
4.9256430708661414
 21
-3.8293818897637792
 31
0
  0
LINE
  5
321
330
1A
100
AcDbEntity
  8
BLACK
  6
CONTINUOUS
100
AcDbLine
 10
4.9256430708661414
 20
-3.8293818897637792
 30
0
 11
4.9254527559055115
 21
-3.8284251968503935
 31
0
  0
LINE
  5
322
330
1A
100
AcDbEntity
  8
BLACK
  6
CONTINUOUS
100
AcDbLine
 10
4.9254527559055115
 20
-3.8284251968503935
 30
0
 11
4.9254527559055115
 21
-3.7866929133858265
 31
0
  0
LINE
  5
323
330
1A
100
AcDbEntity
  8
BLACK
  6
CONTINUOUS
100
AcDbLine
 10
4.9254527559055115
 20
-3.7866929133858265
 30
0
 11
4.9256430708661414
 21
-3.7857362204724407
 31
0
  0
LINE
  5
324
330
1A
100
AcDbEntity
  8
BLACK
  6
CONTINUOUS
100
AcDbLine
 10
4.9256430708661414
 20
-3.7857362204724407
 30
0
 11
4.9269960629921261
 21
-3.7843832283464565
 31
0
  0
LINE
  5
325
330
1A
100
AcDbEntity
  8
BLACK
  6
CONTINUOUS
100
AcDbLine
 10
4.9269960629921261
 20
-3.7843832283464565
 30
0
 11
4.9279527559055119
 21
-3.7841929133858265
 31
0
  0
LINE
  5
326
330
1A
100
AcDbEntity
  8
BLACK
  6
CONTINUOUS
100
AcDbLine
 10
4.9279527559055119
 20
-3.7841929133858265
 30
0
 11
4.9500000000000002
 21
-3.7841929133858265
 31
0
  0
LINE
  5
327
330
1A
100
AcDbEntity
  8
BLACK
  6
CONTINUOUS
100
AcDbLine
 10
4.9500000000000002
 20
-3.7841929133858265
 30
0
 11
4.9509566929133859
 21
-3.7843832283464565
 31
0
  0
LINE
  5
328
330
1A
100
AcDbEntity
  8
BLACK
  6
CONTINUOUS
100
AcDbLine
 10
4.9304527559055114
 20
-3.7891929133858269
 30
0
 11
4.9304527559055114
 21
-3.8259251968503936
 31
0
  0
LINE
  5
329
330
1A
100
AcDbEntity
  8
BLACK
  6
CONTINUOUS
100
AcDbLine
 10
4.9304527559055114
 20
-3.8259251968503936
 30
0
 11
4.9474999999999998
 21
-3.8259251968503936
 31
0
  0
LINE
  5
32A
330
1A
100
AcDbEntity
  8
BLACK
  6
CONTINUOUS
100
AcDbLine
 10
4.9474999999999998
 20
-3.8259251968503936
 30
0
 11
4.9474999999999998
 21
-3.7891929133858269
 31
0
  0
LINE
  5
32B
330
1A
100
AcDbEntity
  8
BLACK
  6
CONTINUOUS
100
AcDbLine
 10
4.9474999999999998
 20
-3.7891929133858269
 30
0
 11
4.9304527559055114
 21
-3.7891929133858269
 31
0
  0
LINE
  5
32C
330
1A
100
AcDbEntity
  8
BLACK
  6
CONTINUOUS
100
AcDbLine
 10
5.1359960629921257
 20
-3.7843832283464565
 30
0
 11
5.1373490551181105
 21
-3.7857362204724407
 31
0
  0
LINE
  5
32D
330
1A
100
AcDbEntity
  8
BLACK
  6
CONTINUOUS
100
AcDbLine
 10
5.1373490551181105
 20
-3.7857362204724407
 30
0
 11
5.1375393700787404
 21
-3.7866929133858265
 31
0
  0
LINE
  5
32E
330
1A
100
AcDbEntity
  8
BLACK
  6
CONTINUOUS
100
AcDbLine
 10
5.1375393700787404
 20
-3.7866929133858265
 30
0
 11
5.1375393700787404
 21
-3.8284251968503935
 31
0
  0
LINE
  5
32F
330
1A
100
AcDbEntity
  8
BLACK
  6
CONTINUOUS
100
AcDbLine
 10
5.1375393700787404
 20
-3.8284251968503935
 30
0
 11
5.1373490551181105
 21
-3.8293818897637792
 31
0
  0
LINE
  5
330
330
1A
100
AcDbEntity
  8
BLACK
  6
CONTINUOUS
100
AcDbLine
 10
5.1373490551181105
 20
-3.8293818897637792
 30
0
 11
5.1359960629921257
 21
-3.8307348818897635
 31
0
  0
LINE
  5
331
330
1A
100
AcDbEntity
  8
BLACK
  6
CONTINUOUS
100
AcDbLine
 10
5.1359960629921257
 20
-3.8307348818897635
 30
0
 11
5.13503937007874
 21
-3.8309251968503935
 31
0
  0
LINE
  5
332
330
1A
100
AcDbEntity
  8
BLACK
  6
CONTINUOUS
100
AcDbLine
 10
5.13503937007874
 20
-3.8309251968503935
 30
0
 11
5.1129921259842517
 21
-3.8309251968503935
 31
0
  0
LINE
  5
333
330
1A
100
AcDbEntity
  8
BLACK
  6
CONTINUOUS
100
AcDbLine
 10
5.1129921259842517
 20
-3.8309251968503935
 30
0
 11
5.1120354330708659
 21
-3.8307348818897635
 31
0
  0
LINE
  5
334
330
1A
100
AcDbEntity
  8
BLACK
  6
CONTINUOUS
100
AcDbLine
 10
5.1120354330708659
 20
-3.8307348818897635
 30
0
 11
5.1106824409448821
 21
-3.8293818897637792
 31
0
  0
LINE
  5
335
330
1A
100
AcDbEntity
  8
BLACK
  6
CONTINUOUS
100
AcDbLine
 10
5.1106824409448821
 20
-3.8293818897637792
 30
0
 11
5.1104921259842522
 21
-3.8284251968503935
 31
0
  0
LINE
  5
336
330
1A
100
AcDbEntity
  8
BLACK
  6
CONTINUOUS
100
AcDbLine
 10
5.1104921259842522
 20
-3.8284251968503935
 30
0
 11
5.1104921259842522
 21
-3.7866929133858265
 31
0
  0
LINE
  5
337
330
1A
100
AcDbEntity
  8
BLACK
  6
CONTINUOUS
100
AcDbLine
 10
5.1104921259842522
 20
-3.7866929133858265
 30
0
 11
5.1106824409448821
 21
-3.7857362204724407
 31
0
  0
LINE
  5
338
330
1A
100
AcDbEntity
  8
BLACK
  6
CONTINUOUS
100
AcDbLine
 10
5.1106824409448821
 20
-3.7857362204724407
 30
0
 11
5.1120354330708659
 21
-3.7843832283464565
 31
0
  0
LINE
  5
339
330
1A
100
AcDbEntity
  8
BLACK
  6
CONTINUOUS
100
AcDbLine
 10
5.1120354330708659
 20
-3.7843832283464565
 30
0
 11
5.1129921259842517
 21
-3.7841929133858265
 31
0
  0
LINE
  5
33A
330
1A
100
AcDbEntity
  8
BLACK
  6
CONTINUOUS
100
AcDbLine
 10
5.1129921259842517
 20
-3.7841929133858265
 30
0
 11
5.13503937007874
 21
-3.7841929133858265
 31
0
  0
LINE
  5
33B
330
1A
100
AcDbEntity
  8
BLACK
  6
CONTINUOUS
100
AcDbLine
 10
5.13503937007874
 20
-3.7841929133858265
 30
0
 11
5.1359960629921257
 21
-3.7843832283464565
 31
0
  0
LINE
  5
33C
330
1A
100
AcDbEntity
  8
BLACK
  6
CONTINUOUS
100
AcDbLine
 10
5.1154921259842521
 20
-3.7891929133858269
 30
0
 11
5.1154921259842521
 21
-3.8259251968503936
 31
0
  0
LINE
  5
33D
330
1A
100
AcDbEntity
  8
BLACK
  6
CONTINUOUS
100
AcDbLine
 10
5.1154921259842521
 20
-3.8259251968503936
 30
0
 11
5.1325393700787396
 21
-3.8259251968503936
 31
0
  0
LINE
  5
33E
330
1A
100
AcDbEntity
  8
BLACK
  6
CONTINUOUS
100
AcDbLine
 10
5.1325393700787396
 20
-3.8259251968503936
 30
0
 11
5.1325393700787396
 21
-3.7891929133858269
 31
0
  0
LINE
  5
33F
330
1A
100
AcDbEntity
  8
BLACK
  6
CONTINUOUS
100
AcDbLine
 10
5.1325393700787396
 20
-3.7891929133858269
 30
0
 11
5.1154921259842521
 21
-3.7891929133858269
 31
0
  0
LINE
  5
340
330
1A
100
AcDbEntity
  8
BLACK
  6
CONTINUOUS
100
AcDbLine
 10
5.3210354330708665
 20
-3.7843832283464565
 30
0
 11
5.3223884251968503
 21
-3.7857362204724407
 31
0
  0
LINE
  5
341
330
1A
100
AcDbEntity
  8
BLACK
  6
CONTINUOUS
100
AcDbLine
 10
5.3223884251968503
 20
-3.7857362204724407
 30
0
 11
5.3225787401574802
 21
-3.7866929133858265
 31
0
  0
LINE
  5
342
330
1A
100
AcDbEntity
  8
BLACK
  6
CONTINUOUS
100
AcDbLine
 10
5.3225787401574802
 20
-3.7866929133858265
 30
0
 11
5.3225787401574802
 21
-3.8284251968503935
 31
0
  0
LINE
  5
343
330
1A
100
AcDbEntity
  8
BLACK
  6
CONTINUOUS
100
AcDbLine
 10
5.3225787401574802
 20
-3.8284251968503935
 30
0
 11
5.3223884251968503
 21
-3.8293818897637792
 31
0
  0
LINE
  5
344
330
1A
100
AcDbEntity
  8
BLACK
  6
CONTINUOUS
100
AcDbLine
 10
5.3223884251968503
 20
-3.8293818897637792
 30
0
 11
5.3210354330708665
 21
-3.8307348818897635
 31
0
  0
LINE
  5
345
330
1A
100
AcDbEntity
  8
BLACK
  6
CONTINUOUS
100
AcDbLine
 10
5.3210354330708665
 20
-3.8307348818897635
 30
0
 11
5.3200787401574798
 21
-3.8309251968503935
 31
0
  0
LINE
  5
346
330
1A
100
AcDbEntity
  8
BLACK
  6
CONTINUOUS
100
AcDbLine
 10
5.3200787401574798
 20
-3.8309251968503935
 30
0
 11
5.2980314960629924
 21
-3.8309251968503935
 31
0
  0
LINE
  5
347
330
1A
100
AcDbEntity
  8
BLACK
  6
CONTINUOUS
100
AcDbLine
 10
5.2980314960629924
 20
-3.8309251968503935
 30
0
 11
5.2970748031496058
 21
-3.8307348818897635
 31
0
  0
LINE
  5
348
330
1A
100
AcDbEntity
  8
BLACK
  6
CONTINUOUS
100
AcDbLine
 10
5.2970748031496058
 20
-3.8307348818897635
 30
0
 11
5.2957218110236219
 21
-3.8293818897637792
 31
0
  0
LINE
  5
349
330
1A
100
AcDbEntity
  8
BLACK
  6
CONTINUOUS
100
AcDbLine
 10
5.2957218110236219
 20
-3.8293818897637792
 30
0
 11
5.295531496062992
 21
-3.8284251968503935
 31
0
  0
LINE
  5
34A
330
1A
100
AcDbEntity
  8
BLACK
  6
CONTINUOUS
100
AcDbLine
 10
5.295531496062992
 20
-3.8284251968503935
 30
0
 11
5.295531496062992
 21
-3.7866929133858265
 31
0
  0
LINE
  5
34B
330
1A
100
AcDbEntity
  8
BLACK
  6
CONTINUOUS
100
AcDbLine
 10
5.295531496062992
 20
-3.7866929133858265
 30
0
 11
5.2957218110236219
 21
-3.7857362204724407
 31
0
  0
LINE
  5
34C
330
1A
100
AcDbEntity
  8
BLACK
  6
CONTINUOUS
100
AcDbLine
 10
5.2957218110236219
 20
-3.7857362204724407
 30
0
 11
5.2970748031496058
 21
-3.7843832283464565
 31
0
  0
LINE
  5
34D
330
1A
100
AcDbEntity
  8
BLACK
  6
CONTINUOUS
100
AcDbLine
 10
5.2970748031496058
 20
-3.7843832283464565
 30
0
 11
5.2980314960629924
 21
-3.7841929133858265
 31
0
  0
LINE
  5
34E
330
1A
100
AcDbEntity
  8
BLACK
  6
CONTINUOUS
100
AcDbLine
 10
5.2980314960629924
 20
-3.7841929133858265
 30
0
 11
5.3200787401574798
 21
-3.7841929133858265
 31
0
  0
LINE
  5
34F
330
1A
100
AcDbEntity
  8
BLACK
  6
CONTINUOUS
100
AcDbLine
 10
5.3200787401574798
 20
-3.7841929133858265
 30
0
 11
5.3210354330708665
 21
-3.7843832283464565
 31
0
  0
LINE
  5
350
330
1A
100
AcDbEntity
  8
BLACK
  6
CONTINUOUS
100
AcDbLine
 10
5.3005314960629919
 20
-3.7891929133858269
 30
0
 11
5.3005314960629919
 21
-3.8259251968503936
 31
0
  0
LINE
  5
351
330
1A
100
AcDbEntity
  8
BLACK
  6
CONTINUOUS
100
AcDbLine
 10
5.3005314960629919
 20
-3.8259251968503936
 30
0
 11
5.3175787401574803
 21
-3.8259251968503936
 31
0
  0
LINE
  5
352
330
1A
100
AcDbEntity
  8
BLACK
  6
CONTINUOUS
100
AcDbLine
 10
5.3175787401574803
 20
-3.8259251968503936
 30
0
 11
5.3175787401574803
 21
-3.7891929133858269
 31
0
  0
LINE
  5
353
330
1A
100
AcDbEntity
  8
BLACK
  6
CONTINUOUS
100
AcDbLine
 10
5.3175787401574803
 20
-3.7891929133858269
 30
0
 11
5.3005314960629919
 21
-3.7891929133858269
 31
0
  0
LINE
  5
354
330
1A
100
AcDbEntity
  8
BLACK
  6
CONTINUOUS
100
AcDbLine
 10
5.5060748031496063
 20
-3.7843832283464565
 30
0
 11
5.5074277952755901
 21
-3.7857362204724407
 31
0
  0
LINE
  5
355
330
1A
100
AcDbEntity
  8
BLACK
  6
CONTINUOUS
100
AcDbLine
 10
5.5074277952755901
 20
-3.7857362204724407
 30
0
 11
5.5076181102362201
 21
-3.7866929133858265
 31
0
  0
LINE
  5
356
330
1A
100
AcDbEntity
  8
BLACK
  6
CONTINUOUS
100
AcDbLine
 10
5.5076181102362201
 20
-3.7866929133858265
 30
0
 11
5.5076181102362201
 21
-3.8284251968503935
 31
0
  0
LINE
  5
357
330
1A
100
AcDbEntity
  8
BLACK
  6
CONTINUOUS
100
AcDbLine
 10
5.5076181102362201
 20
-3.8284251968503935
 30
0
 11
5.5074277952755901
 21
-3.8293818897637792
 31
0
  0
LINE
  5
358
330
1A
100
AcDbEntity
  8
BLACK
  6
CONTINUOUS
100
AcDbLine
 10
5.5074277952755901
 20
-3.8293818897637792
 30
0
 11
5.5060748031496063
 21
-3.8307348818897635
 31
0
  0
LINE
  5
359
330
1A
100
AcDbEntity
  8
BLACK
  6
CONTINUOUS
100
AcDbLine
 10
5.5060748031496063
 20
-3.8307348818897635
 30
0
 11
5.5051181102362206
 21
-3.8309251968503935
 31
0
  0
LINE
  5
35A
330
1A
100
AcDbEntity
  8
BLACK
  6
CONTINUOUS
100
AcDbLine
 10
5.5051181102362206
 20
-3.8309251968503935
 30
0
 11
5.4830708661417322
 21
-3.8309251968503935
 31
0
  0
LINE
  5
35B
330
1A
100
AcDbEntity
  8
BLACK
  6
CONTINUOUS
100
AcDbLine
 10
5.4830708661417322
 20
-3.8309251968503935
 30
0
 11
5.4821141732283465
 21
-3.8307348818897635
 31
0
  0
LINE
  5
35C
330
1A
100
AcDbEntity
  8
BLACK
  6
CONTINUOUS
100
AcDbLine
 10
5.4821141732283465
 20
-3.8307348818897635
 30
0
 11
5.4807611811023618
 21
-3.8293818897637792
 31
0
  0
LINE
  5
35D
330
1A
100
AcDbEntity
  8
BLACK
  6
CONTINUOUS
100
AcDbLine
 10
5.4807611811023618
 20
-3.8293818897637792
 30
0
 11
5.4805708661417318
 21
-3.8284251968503935
 31
0
  0
LINE
  5
35E
330
1A
100
AcDbEntity
  8
BLACK
  6
CONTINUOUS
100
AcDbLine
 10
5.4805708661417318
 20
-3.8284251968503935
 30
0
 11
5.4805708661417318
 21
-3.7866929133858265
 31
0
  0
LINE
  5
35F
330
1A
100
AcDbEntity
  8
BLACK
  6
CONTINUOUS
100
AcDbLine
 10
5.4805708661417318
 20
-3.7866929133858265
 30
0
 11
5.4807611811023618
 21
-3.7857362204724407
 31
0
  0
LINE
  5
360
330
1A
100
AcDbEntity
  8
BLACK
  6
CONTINUOUS
100
AcDbLine
 10
5.4807611811023618
 20
-3.7857362204724407
 30
0
 11
5.4821141732283465
 21
-3.7843832283464565
 31
0
  0
LINE
  5
361
330
1A
100
AcDbEntity
  8
BLACK
  6
CONTINUOUS
100
AcDbLine
 10
5.4821141732283465
 20
-3.7843832283464565
 30
0
 11
5.4830708661417322
 21
-3.7841929133858265
 31
0
  0
LINE
  5
362
330
1A
100
AcDbEntity
  8
BLACK
  6
CONTINUOUS
100
AcDbLine
 10
5.4830708661417322
 20
-3.7841929133858265
 30
0
 11
5.5051181102362206
 21
-3.7841929133858265
 31
0
  0
LINE
  5
363
330
1A
100
AcDbEntity
  8
BLACK
  6
CONTINUOUS
100
AcDbLine
 10
5.5051181102362206
 20
-3.7841929133858265
 30
0
 11
5.5060748031496063
 21
-3.7843832283464565
 31
0
  0
LINE
  5
364
330
1A
100
AcDbEntity
  8
BLACK
  6
CONTINUOUS
100
AcDbLine
 10
5.4855708661417317
 20
-3.7891929133858269
 30
0
 11
5.4855708661417317
 21
-3.8259251968503936
 31
0
  0
LINE
  5
365
330
1A
100
AcDbEntity
  8
BLACK
  6
CONTINUOUS
100
AcDbLine
 10
5.4855708661417317
 20
-3.8259251968503936
 30
0
 11
5.5026181102362202
 21
-3.8259251968503936
 31
0
  0
LINE
  5
366
330
1A
100
AcDbEntity
  8
BLACK
  6
CONTINUOUS
100
AcDbLine
 10
5.5026181102362202
 20
-3.8259251968503936
 30
0
 11
5.5026181102362202
 21
-3.7891929133858269
 31
0
  0
LINE
  5
367
330
1A
100
AcDbEntity
  8
BLACK
  6
CONTINUOUS
100
AcDbLine
 10
5.5026181102362202
 20
-3.7891929133858269
 30
0
 11
5.4855708661417317
 21
-3.7891929133858269
 31
0
  0
ENDSEC
  0
SECTION
  2
OBJECTS
  0
DICTIONARY
  5
20
330
0
100
AcDbDictionary
281
1
  3
ACAD_GROUP
350
368
  3
ACAD_LAYOUT
350
21
  3
ACAD_PLOTSTYLENAME
350
11
  0
DICTIONARY
  5
368
330
20
100
AcDbDictionary
281
1
  0
ACDBDICTIONARYWDFLT
  5
11
330
20
100
AcDbDictionary
281
1
  3
Normal
350
10
100
AcDbDictionaryWithDefault
340
10
  0
ACDBPLACEHOLDER
  5
10
330
11
  0
DICTIONARY
  5
21
330
20
100
AcDbDictionary
281
1
  3
Model
350
1D
  3
Layout1
350
1E
  3
Layout2
350
1F
  0
LAYOUT
  5
1D
330
21
100
AcDbPlotSettings
  1

  2
none_device
  4
A3
  6

 40
0.0
 41
0.0
 42
0.0
 43
0.0
 44
420.0
 45
297.0
 46
0.0
 47
0.0
 48
0.0
 49
0.0
140
0.0
141
0.0
142
1.0
143
1.0
 70
1024
 72
1
 73
0
 74
5
  7

 75
16
 76
0
 77
2
 78
300
147
1.0
148
0.0
149
0.0
100
AcDbLayout
  1
Model
 70
1
 71
0
 10
0.0
 20
0.0
 11
420.0
 21
297.0
 12
0.0
 22
0.0
 32
0.0
 14
1e+20
 24
1e+20
 34
1e+20
 15
-1e+20
 25
-1e+20
 35
-1e+20
146
0.0
 13
0.0
 23
0.0
 33
0.0
 16
1.0
 26
0.0
 36
0.0
 17
0.0
 27
1.0
 37
0.0
 76
0
330
1A
  0
LAYOUT
  5
1E
330
21
100
AcDbPlotSettings
  1

  2
none_device
  4
A3
  6

 40
0.0
 41
0.0
 42
0.0
 43
0.0
 44
420.0
 45
297.0
 46
0.0
 47
0.0
 48
0.0
 49
0.0
140
0.0
141
0.0
142
1.0
143
1.0
 70
0
 72
1
 73
0
 74
5
  7

 75
16
 76
0
 77
2
 78
300
147
1.0
148
0.0
149
0.0
100
AcDbLayout
  1
Layout1
 70
1
 71
1
 10
0.0
 20
0.0
 11
420.0
 21
297.0
 12
0.0
 22
0.0
 32
0.0
 14
1e+20
 24
1e+20
 34
1e+20
 15
-1e+20
 25
-1e+20
 35
-1e+20
146
0.0
 13
0.0
 23
0.0
 33
0.0
 16
1.0
 26
0.0
 36
0.0
 17
0.0
 27
1.0
 37
0.0
 76
0
330
1B
  0
LAYOUT
  5
1F
330
21
100
AcDbPlotSettings
  1

  2
none_device
  4
A3
  6

 40
0.0
 41
0.0
 42
0.0
 43
0.0
 44
420.0
 45
297.0
 46
0.0
 47
0.0
 48
0.0
 49
0.0
140
0.0
141
0.0
142
1.0
143
1.0
 70
0
 72
1
 73
0
 74
5
  7

 75
16
 76
0
 77
2
 78
300
147
1.0
148
0.0
149
0.0
100
AcDbLayout
  1
Layout2
 70
1
 71
2
 10
0.0
 20
0.0
 11
420.0
 21
297.0
 12
0.0
 22
0.0
 32
0.0
 14
1e+20
 24
1e+20
 34
1e+20
 15
-1e+20
 25
-1e+20
 35
-1e+20
146
0.0
 13
0.0
 23
0.0
 33
0.0
 16
1.0
 26
0.0
 36
0.0
 17
0.0
 27
1.0
 37
0.0
 76
0
330
1C
  0
ENDSEC
  0
EOF
