  0
SECTION
  2
HEADER
  9
$ACADVER
  1
AC1018
  9
$HANDSEED
  5
FFFFFFFF
  9
$ANGBASE
  50
0.0
  9
$ANGDIR
  70
1
  9
$MEASUREMENT
  70
0
  9
$INSUNITS
  70
1
  0
ENDSEC
  0
SECTION
  2
TABLES
  0
TABLE
  2
APPID
  5
1
330
0
100
AcDbSymbolTable
 70
1
  0
APPID
  5
2
330
1
100
AcDbSymbolTableRecord
100
AcDbRegAppTableRecord
  2
ACAD
 70
0
  0
ENDTAB
  0
TABLE
  2
LTYPE
  5
3
330
0
100
AcDbSymbolTable
 70
6
  0
LTYPE
  5
4
330
3
100
AcDbSymbolTableRecord
100
AcDbLinetypeTableRecord
  2
ByBlock
 70
0
  3

 72
65
 73
0
 40
0
  0
LTYPE
  5
5
330
3
100
AcDbSymbolTableRecord
100
AcDbLinetypeTableRecord
  2
ByLayer
 70
0
  3

 72
65
 73
0
 40
0
  0
LTYPE
  5
6
330
3
100
AcDbSymbolTableRecord
100
AcDbLinetypeTableRecord
  2
CONTINUOUS
 70
0
  3
Solid line
 72
65
 73
0
 40
0
  0
LTYPE
  5
7
330
3
100
AcDbSymbolTableRecord
100
AcDbLinetypeTableRecord
  2
DASHDOT
 70
0
  3
Dash Dot ____ _ ____ _
 72
65
 73
4
 40
2
 49
1.25
 74
0
 49
-0.25
 74
0
 49
0.25
 74
0
 49
-0.25
 74
0
  0
LTYPE
  5
8
330
3
100
AcDbSymbolTableRecord
100
AcDbLinetypeTableRecord
  2
DASHED
 70
0
  3
Dashed __ __ __ __ __
 72
65
 73
2
 40
0.75
 49
0.5
 74
0
 49
-0.25
 74
0
  0
LTYPE
  5
9
330
3
100
AcDbSymbolTableRecord
100
AcDbLinetypeTableRecord
  2
DOTTED
 70
0
  3
Dotted .  .  .  .
 72
65
 73
2
 40
0.2
 49
0.0
 74
0
 49
-0.2
 74
0
  0
ENDTAB
  0
TABLE
  2
STYLE
  5
A
330
0
100
AcDbSymbolTable
 70
4
  0
STYLE
  5
B
330
A
100
AcDbSymbolTableRecord
100
AcDbTextStyleTableRecord
  2
KICAD
 70
0
 40
0
 41
1
 42
1
 50
0
 71
0
  3
isocp.shx
  0
STYLE
  5
C
330
A
100
AcDbSymbolTableRecord
100
AcDbTextStyleTableRecord
  2
KICADB
 70
0
 40
0
 41
1
 42
1
 50
0
 71
0
  3
isocp.shx
  0
STYLE
  5
D
330
A
100
AcDbSymbolTableRecord
100
AcDbTextStyleTableRecord
  2
KICADI
 70
0
 40
0
 41
1
 42
1
 50
15
 71
0
  3
isocp.shx
  0
STYLE
  5
E
330
A
100
AcDbSymbolTableRecord
100
AcDbTextStyleTableRecord
  2
KICADBI
 70
0
 40
0
 41
1
 42
1
 50
15
 71
0
  3
isocp.shx
  0
ENDTAB
  0
TABLE
  2
LAYER
  5
F
330
0
100
AcDbSymbolTable
 70
2
  0
LAYER
  5
12
330
F
100
AcDbSymbolTableRecord
100
AcDbLayerTableRecord
  2
0
 70
0
 62
7
  6
CONTINUOUS
390
10
  0
LAYER
  5
13
330
F
100
AcDbSymbolTableRecord
100
AcDbLayerTableRecord
  2
BLACK
 70
0
 62
250
  6
CONTINUOUS
390
10
  0
ENDTAB
  0
TABLE
  2
VPORT
  5
14
330
0
100
AcDbSymbolTable
 70
0
  0
ENDTAB
  0
TABLE
  2
VIEW
  5
15
330
0
100
AcDbSymbolTable
 70
0
  0
ENDTAB
  0
TABLE
  2
UCS
  5
16
330
0
100
AcDbSymbolTable
 70
0
  0
ENDTAB
  0
TABLE
  2
DIMSTYLE
  5
17
330
0
100
AcDbSymbolTable
 70
1
100
AcDbDimStyleTable
 71
0
  0
DIMSTYLE
105
18
330
17
100
AcDbSymbolTableRecord
100
AcDbDimStyleTableRecord
  2
Standard
 70
0
  0
ENDTAB
  0
TABLE
  2
BLOCK_RECORD
  5
19
330
0
100
AcDbSymbolTable
 70
3
  0
BLOCK_RECORD
  5
1A
330
19
100
AcDbSymbolTableRecord
100
AcDbBlockTableRecord
  2
*Model_Space
340
1D
 70
0
280
1
281
0
  0
BLOCK_RECORD
  5
1B
330
19
100
AcDbSymbolTableRecord
100
AcDbBlockTableRecord
  2
*Paper_Space
340
1E
 70
0
280
1
281
0
  0
BLOCK_RECORD
  5
1C
330
19
100
AcDbSymbolTableRecord
100
AcDbBlockTableRecord
  2
*Paper_Space0
340
1F
 70
0
280
1
281
0
  0
ENDTAB
  0
ENDSEC
  0
SECTION
  2
BLOCKS
  0
BLOCK
  5
23
330
1A
100
AcDbEntity
  8
0
100
AcDbBlockBegin
  2
*Model_Space
 70
0
 10
0.0
 20
0.0
 30
0.0
  3
*Model_Space
  1

  0
ENDBLK
  5
22
330
1A
100
AcDbEntity
  8
0
100
AcDbBlockEnd
  0
BLOCK
  5
25
330
1B
100
AcDbEntity
 67
1
  8
0
100
AcDbBlockBegin
  2
*Paper_Space
 70
0
 10
0.0
 20
0.0
 30
0.0
  3
*Paper_Space
  1

  0
ENDBLK
  5
24
330
1B
100
AcDbEntity
 67
1
  8
0
100
AcDbBlockEnd
  0
BLOCK
  5
27
330
1C
100
AcDbEntity
 67
1
  8
0
100
AcDbBlockBegin
  2
*Paper_Space0
 70
0
 10
0.0
 20
0.0
 30
0.0
  3
*Paper_Space0
  1

  0
ENDBLK
  5
26
330
1C
100
AcDbEntity
 67
1
  8
0
100
AcDbBlockEnd
  0
ENDSEC
  0
SECTION
  2
ENTITIES
  0
LINE
  5
28
330
1A
100
AcDbEntity
  8
BLACK
  6
CONTINUOUS
100
AcDbLine
 10
5.14604594488189
 20
-4.3243662598425194
 30
0
 11
5.1465786220472438
 21
-4.3248989370078741
 31
0
  0
LINE
  5
29
330
1A
100
AcDbEntity
  8
BLACK
  6
CONTINUOUS
100
AcDbLine
 10
5.1465786220472438
 20
-4.3248989370078741
 30
0
 11
5.1466535433070861
 21
-4.3252755905511808
 31
0
  0
LINE
  5
2A
330
1A
100
AcDbEntity
  8
BLACK
  6
CONTINUOUS
100
AcDbLine
 10
5.1466535433070861
 20
-4.3252755905511808
 30
0
 11
5.1466535433070861
 21
-4.4000787401574799
 31
0
  0
LINE
  5
2B
330
1A
100
AcDbEntity
  8
BLACK
  6
CONTINUOUS
100
AcDbLine
 10
5.1466535433070861
 20
-4.4000787401574799
 30
0
 11
5.1465786220472438
 21
-4.4004553937007875
 31
0
  0
LINE
  5
2C
330
1A
100
AcDbEntity
  8
BLACK
  6
CONTINUOUS
100
AcDbLine
 10
5.1465786220472438
 20
-4.4004553937007875
 30
0
 11
5.14604594488189
 21
-4.4009880708661413
 31
0
  0
LINE
  5
2D
330
1A
100
AcDbEntity
  8
BLACK
  6
CONTINUOUS
100
AcDbLine
 10
5.14604594488189
 20
-4.4009880708661413
 30
0
 11
5.1456692913385824
 21
-4.4010629921259845
 31
0
  0
LINE
  5
2E
330
1A
100
AcDbEntity
  8
BLACK
  6
CONTINUOUS
100
AcDbLine
 10
5.1456692913385824
 20
-4.4010629921259845
 30
0
 11
5.1023622047244093
 21
-4.4010629921259845
 31
0
  0
LINE
  5
2F
330
1A
100
AcDbEntity
  8
BLACK
  6
CONTINUOUS
100
AcDbLine
 10
5.1023622047244093
 20
-4.4010629921259845
 30
0
 11
5.1019855511811025
 21
-4.4009880708661413
 31
0
  0
LINE
  5
30
330
1A
100
AcDbEntity
  8
BLACK
  6
CONTINUOUS
100
AcDbLine
 10
5.1019855511811025
 20
-4.4009880708661413
 30
0
 11
5.1014528740157479
 21
-4.4004553937007875
 31
0
  0
LINE
  5
31
330
1A
100
AcDbEntity
  8
BLACK
  6
CONTINUOUS
100
AcDbLine
 10
5.1014528740157479
 20
-4.4004553937007875
 30
0
 11
5.1013779527559056
 21
-4.4000787401574799
 31
0
  0
LINE
  5
32
330
1A
100
AcDbEntity
  8
BLACK
  6
CONTINUOUS
100
AcDbLine
 10
5.1013779527559056
 20
-4.4000787401574799
 30
0
 11
5.1013779527559056
 21
-4.3252755905511808
 31
0
  0
LINE
  5
33
330
1A
100
AcDbEntity
  8
BLACK
  6
CONTINUOUS
100
AcDbLine
 10
5.1013779527559056
 20
-4.3252755905511808
 30
0
 11
5.1014528740157479
 21
-4.3248989370078741
 31
0
  0
LINE
  5
34
330
1A
100
AcDbEntity
  8
BLACK
  6
CONTINUOUS
100
AcDbLine
 10
5.1014528740157479
 20
-4.3248989370078741
 30
0
 11
5.1019855511811025
 21
-4.3243662598425194
 31
0
  0
LINE
  5
35
330
1A
100
AcDbEntity
  8
BLACK
  6
CONTINUOUS
100
AcDbLine
 10
5.1019855511811025
 20
-4.3243662598425194
 30
0
 11
5.1023622047244093
 21
-4.3242913385826771
 31
0
  0
LINE
  5
36
330
1A
100
AcDbEntity
  8
BLACK
  6
CONTINUOUS
100
AcDbLine
 10
5.1023622047244093
 20
-4.3242913385826771
 30
0
 11
5.1456692913385824
 21
-4.3242913385826771
 31
0
  0
LINE
  5
37
330
1A
100
AcDbEntity
  8
BLACK
  6
CONTINUOUS
100
AcDbLine
 10
5.1456692913385824
 20
-4.3242913385826771
 30
0
 11
5.14604594488189
 21
-4.3243662598425194
 31
0
  0
LINE
  5
38
330
1A
100
AcDbEntity
  8
BLACK
  6
CONTINUOUS
100
AcDbLine
 10
5.103346456692913
 20
-4.3262598425196845
 30
0
 11
5.103346456692913
 21
-4.3990944881889762
 31
0
  0
LINE
  5
39
330
1A
100
AcDbEntity
  8
BLACK
  6
CONTINUOUS
100
AcDbLine
 10
5.103346456692913
 20
-4.3990944881889762
 30
0
 11
5.1446850393700787
 21
-4.3990944881889762
 31
0
  0
LINE
  5
3A
330
1A
100
AcDbEntity
  8
BLACK
  6
CONTINUOUS
100
AcDbLine
 10
5.1446850393700787
 20
-4.3990944881889762
 30
0
 11
5.1446850393700787
 21
-4.3262598425196845
 31
0
  0
LINE
  5
3B
330
1A
100
AcDbEntity
  8
BLACK
  6
CONTINUOUS
100
AcDbLine
 10
5.1446850393700787
 20
-4.3262598425196845
 30
0
 11
5.103346456692913
 21
-4.3262598425196845
 31
0
  0
LINE
  5
3C
330
1A
100
AcDbEntity
  8
BLACK
  6
CONTINUOUS
100
AcDbLine
 10
5.3310853149606299
 20
-4.3243662598425194
 30
0
 11
5.3316179921259845
 21
-4.3248989370078741
 31
0
  0
LINE
  5
3D
330
1A
100
AcDbEntity
  8
BLACK
  6
CONTINUOUS
100
AcDbLine
 10
5.3316179921259845
 20
-4.3248989370078741
 30
0
 11
5.3316929133858268
 21
-4.3252755905511808
 31
0
  0
LINE
  5
3E
330
1A
100
AcDbEntity
  8
BLACK
  6
CONTINUOUS
100
AcDbLine
 10
5.3316929133858268
 20
-4.3252755905511808
 30
0
 11
5.3316929133858268
 21
-4.4000787401574799
 31
0
  0
LINE
  5
3F
330
1A
100
AcDbEntity
  8
BLACK
  6
CONTINUOUS
100
AcDbLine
 10
5.3316929133858268
 20
-4.4000787401574799
 30
0
 11
5.3316179921259845
 21
-4.4004553937007875
 31
0
  0
LINE
  5
40
330
1A
100
AcDbEntity
  8
BLACK
  6
CONTINUOUS
100
AcDbLine
 10
5.3316179921259845
 20
-4.4004553937007875
 30
0
 11
5.3310853149606299
 21
-4.4009880708661413
 31
0
  0
LINE
  5
41
330
1A
100
AcDbEntity
  8
BLACK
  6
CONTINUOUS
100
AcDbLine
 10
5.3310853149606299
 20
-4.4009880708661413
 30
0
 11
5.3307086614173231
 21
-4.4010629921259845
 31
0
  0
LINE
  5
42
330
1A
100
AcDbEntity
  8
BLACK
  6
CONTINUOUS
100
AcDbLine
 10
5.3307086614173231
 20
-4.4010629921259845
 30
0
 11
5.2874015748031491
 21
-4.4010629921259845
 31
0
  0
LINE
  5
43
330
1A
100
AcDbEntity
  8
BLACK
  6
CONTINUOUS
100
AcDbLine
 10
5.2874015748031491
 20
-4.4010629921259845
 30
0
 11
5.2870249212598424
 21
-4.4009880708661413
 31
0
  0
LINE
  5
44
330
1A
100
AcDbEntity
  8
BLACK
  6
CONTINUOUS
100
AcDbLine
 10
5.2870249212598424
 20
-4.4009880708661413
 30
0
 11
5.2864922440944877
 21
-4.4004553937007875
 31
0
  0
LINE
  5
45
330
1A
100
AcDbEntity
  8
BLACK
  6
CONTINUOUS
100
AcDbLine
 10
5.2864922440944877
 20
-4.4004553937007875
 30
0
 11
5.2864173228346454
 21
-4.4000787401574799
 31
0
  0
LINE
  5
46
330
1A
100
AcDbEntity
  8
BLACK
  6
CONTINUOUS
100
AcDbLine
 10
5.2864173228346454
 20
-4.4000787401574799
 30
0
 11
5.2864173228346454
 21
-4.3252755905511808
 31
0
  0
LINE
  5
47
330
1A
100
AcDbEntity
  8
BLACK
  6
CONTINUOUS
100
AcDbLine
 10
5.2864173228346454
 20
-4.3252755905511808
 30
0
 11
5.2864922440944877
 21
-4.3248989370078741
 31
0
  0
LINE
  5
48
330
1A
100
AcDbEntity
  8
BLACK
  6
CONTINUOUS
100
AcDbLine
 10
5.2864922440944877
 20
-4.3248989370078741
 30
0
 11
5.2870249212598424
 21
-4.3243662598425194
 31
0
  0
LINE
  5
49
330
1A
100
AcDbEntity
  8
BLACK
  6
CONTINUOUS
100
AcDbLine
 10
5.2870249212598424
 20
-4.3243662598425194
 30
0
 11
5.2874015748031491
 21
-4.3242913385826771
 31
0
  0
LINE
  5
4A
330
1A
100
AcDbEntity
  8
BLACK
  6
CONTINUOUS
100
AcDbLine
 10
5.2874015748031491
 20
-4.3242913385826771
 30
0
 11
5.3307086614173231
 21
-4.3242913385826771
 31
0
  0
LINE
  5
4B
330
1A
100
AcDbEntity
  8
BLACK
  6
CONTINUOUS
100
AcDbLine
 10
5.3307086614173231
 20
-4.3242913385826771
 30
0
 11
5.3310853149606299
 21
-4.3243662598425194
 31
0
  0
LINE
  5
4C
330
1A
100
AcDbEntity
  8
BLACK
  6
CONTINUOUS
100
AcDbLine
 10
5.2883858267716537
 20
-4.3262598425196845
 30
0
 11
5.2883858267716537
 21
-4.3990944881889762
 31
0
  0
LINE
  5
4D
330
1A
100
AcDbEntity
  8
BLACK
  6
CONTINUOUS
100
AcDbLine
 10
5.2883858267716537
 20
-4.3990944881889762
 30
0
 11
5.3297244094488185
 21
-4.3990944881889762
 31
0
  0
LINE
  5
4E
330
1A
100
AcDbEntity
  8
BLACK
  6
CONTINUOUS
100
AcDbLine
 10
5.3297244094488185
 20
-4.3990944881889762
 30
0
 11
5.3297244094488185
 21
-4.3262598425196845
 31
0
  0
LINE
  5
4F
330
1A
100
AcDbEntity
  8
BLACK
  6
CONTINUOUS
100
AcDbLine
 10
5.3297244094488185
 20
-4.3262598425196845
 30
0
 11
5.2883858267716537
 21
-4.3262598425196845
 31
0
  0
LINE
  5
50
330
1A
100
AcDbEntity
  8
BLACK
  6
CONTINUOUS
100
AcDbLine
 10
5.5161246850393697
 20
-4.3243662598425194
 30
0
 11
5.5166573622047244
 21
-4.3248989370078741
 31
0
  0
LINE
  5
51
330
1A
100
AcDbEntity
  8
BLACK
  6
CONTINUOUS
100
AcDbLine
 10
5.5166573622047244
 20
-4.3248989370078741
 30
0
 11
5.5167322834645667
 21
-4.3252755905511808
 31
0
  0
LINE
  5
52
330
1A
100
AcDbEntity
  8
BLACK
  6
CONTINUOUS
100
AcDbLine
 10
5.5167322834645667
 20
-4.3252755905511808
 30
0
 11
5.5167322834645667
 21
-4.4000787401574799
 31
0
  0
LINE
  5
53
330
1A
100
AcDbEntity
  8
BLACK
  6
CONTINUOUS
100
AcDbLine
 10
5.5167322834645667
 20
-4.4000787401574799
 30
0
 11
5.5166573622047244
 21
-4.4004553937007875
 31
0
  0
LINE
  5
54
330
1A
100
AcDbEntity
  8
BLACK
  6
CONTINUOUS
100
AcDbLine
 10
5.5166573622047244
 20
-4.4004553937007875
 30
0
 11
5.5161246850393697
 21
-4.4009880708661413
 31
0
  0
LINE
  5
55
330
1A
100
AcDbEntity
  8
BLACK
  6
CONTINUOUS
100
AcDbLine
 10
5.5161246850393697
 20
-4.4009880708661413
 30
0
 11
5.515748031496063
 21
-4.4010629921259845
 31
0
  0
LINE
  5
56
330
1A
100
AcDbEntity
  8
BLACK
  6
CONTINUOUS
100
AcDbLine
 10
5.515748031496063
 20
-4.4010629921259845
 30
0
 11
5.4724409448818898
 21
-4.4010629921259845
 31
0
  0
LINE
  5
57
330
1A
100
AcDbEntity
  8
BLACK
  6
CONTINUOUS
100
AcDbLine
 10
5.4724409448818898
 20
-4.4010629921259845
 30
0
 11
5.4720642913385822
 21
-4.4009880708661413
 31
0
  0
LINE
  5
58
330
1A
100
AcDbEntity
  8
BLACK
  6
CONTINUOUS
100
AcDbLine
 10
5.4720642913385822
 20
-4.4009880708661413
 30
0
 11
5.4715316141732284
 21
-4.4004553937007875
 31
0
  0
LINE
  5
59
330
1A
100
AcDbEntity
  8
BLACK
  6
CONTINUOUS
100
AcDbLine
 10
5.4715316141732284
 20
-4.4004553937007875
 30
0
 11
5.4714566929133861
 21
-4.4000787401574799
 31
0
  0
LINE
  5
5A
330
1A
100
AcDbEntity
  8
BLACK
  6
CONTINUOUS
100
AcDbLine
 10
5.4714566929133861
 20
-4.4000787401574799
 30
0
 11
5.4714566929133861
 21
-4.3252755905511808
 31
0
  0
LINE
  5
5B
330
1A
100
AcDbEntity
  8
BLACK
  6
CONTINUOUS
100
AcDbLine
 10
5.4714566929133861
 20
-4.3252755905511808
 30
0
 11
5.4715316141732284
 21
-4.3248989370078741
 31
0
  0
LINE
  5
5C
330
1A
100
AcDbEntity
  8
BLACK
  6
CONTINUOUS
100
AcDbLine
 10
5.4715316141732284
 20
-4.3248989370078741
 30
0
 11
5.4720642913385822
 21
-4.3243662598425194
 31
0
  0
LINE
  5
5D
330
1A
100
AcDbEntity
  8
BLACK
  6
CONTINUOUS
100
AcDbLine
 10
5.4720642913385822
 20
-4.3243662598425194
 30
0
 11
5.4724409448818898
 21
-4.3242913385826771
 31
0
  0
LINE
  5
5E
330
1A
100
AcDbEntity
  8
BLACK
  6
CONTINUOUS
100
AcDbLine
 10
5.4724409448818898
 20
-4.3242913385826771
 30
0
 11
5.515748031496063
 21
-4.3242913385826771
 31
0
  0
LINE
  5
5F
330
1A
100
AcDbEntity
  8
BLACK
  6
CONTINUOUS
100
AcDbLine
 10
5.515748031496063
 20
-4.3242913385826771
 30
0
 11
5.5161246850393697
 21
-4.3243662598425194
 31
0
  0
LINE
  5
60
330
1A
100
AcDbEntity
  8
BLACK
  6
CONTINUOUS
100
AcDbLine
 10
5.4734251968503935
 20
-4.3262598425196845
 30
0
 11
5.4734251968503935
 21
-4.3990944881889762
 31
0
  0
LINE
  5
61
330
1A
100
AcDbEntity
  8
BLACK
  6
CONTINUOUS
100
AcDbLine
 10
5.4734251968503935
 20
-4.3990944881889762
 30
0
 11
5.5147637795275593
 21
-4.3990944881889762
 31
0
  0
LINE
  5
62
330
1A
100
AcDbEntity
  8
BLACK
  6
CONTINUOUS
100
AcDbLine
 10
5.5147637795275593
 20
-4.3990944881889762
 30
0
 11
5.5147637795275593
 21
-4.3262598425196845
 31
0
  0
LINE
  5
63
330
1A
100
AcDbEntity
  8
BLACK
  6
CONTINUOUS
100
AcDbLine
 10
5.5147637795275593
 20
-4.3262598425196845
 30
0
 11
5.4734251968503935
 21
-4.3262598425196845
 31
0
  0
LINE
  5
64
330
1A
100
AcDbEntity
  8
BLACK
  6
CONTINUOUS
100
AcDbLine
 10
4.9610065748031493
 20
-4.3238938188976377
 30
0
 11
4.961539251968504
 21
-4.3244264960629923
 31
0
  0
LINE
  5
65
330
1A
100
AcDbEntity
  8
BLACK
  6
CONTINUOUS
100
AcDbLine
 10
4.961539251968504
 20
-4.3244264960629923
 30
0
 11
4.9616141732283463
 21
-4.3248031496062991
 31
0
  0
LINE
  5
66
330
1A
100
AcDbEntity
  8
BLACK
  6
CONTINUOUS
100
AcDbLine
 10
4.9616141732283463
 20
-4.3248031496062991
 30
0
 11
4.9616141732283463
 21
-4.3996062992125982
 31
0
  0
LINE
  5
67
330
1A
100
AcDbEntity
  8
BLACK
  6
CONTINUOUS
100
AcDbLine
 10
4.9616141732283463
 20
-4.3996062992125982
 30
0
 11
4.961539251968504
 21
-4.3999829527559058
 31
0
  0
LINE
  5
68
330
1A
100
AcDbEntity
  8
BLACK
  6
CONTINUOUS
100
AcDbLine
 10
4.961539251968504
 20
-4.3999829527559058
 30
0
 11
4.9610065748031493
 21
-4.4005156299212596
 31
0
  0
LINE
  5
69
330
1A
100
AcDbEntity
  8
BLACK
  6
CONTINUOUS
100
AcDbLine
 10
4.9610065748031493
 20
-4.4005156299212596
 30
0
 11
4.9606299212598426
 21
-4.4005905511811019
 31
0
  0
LINE
  5
6A
330
1A
100
AcDbEntity
  8
BLACK
  6
CONTINUOUS
100
AcDbLine
 10
4.9606299212598426
 20
-4.4005905511811019
 30
0
 11
4.9173228346456694
 21
-4.4005905511811019
 31
0
  0
LINE
  5
6B
330
1A
100
AcDbEntity
  8
BLACK
  6
CONTINUOUS
100
AcDbLine
 10
4.9173228346456694
 20
-4.4005905511811019
 30
0
 11
4.9169461811023618
 21
-4.4005156299212596
 31
0
  0
LINE
  5
6C
330
1A
100
AcDbEntity
  8
BLACK
  6
CONTINUOUS
100
AcDbLine
 10
4.9169461811023618
 20
-4.4005156299212596
 30
0
 11
4.916413503937008
 21
-4.3999829527559058
 31
0
  0
LINE
  5
6D
330
1A
100
AcDbEntity
  8
BLACK
  6
CONTINUOUS
100
AcDbLine
 10
4.916413503937008
 20
-4.3999829527559058
 30
0
 11
4.9163385826771648
 21
-4.3996062992125982
 31
0
  0
LINE
  5
6E
330
1A
100
AcDbEntity
  8
BLACK
  6
CONTINUOUS
100
AcDbLine
 10
4.9163385826771648
 20
-4.3996062992125982
 30
0
 11
4.9163385826771648
 21
-4.3248031496062991
 31
0
  0
LINE
  5
6F
330
1A
100
AcDbEntity
  8
BLACK
  6
CONTINUOUS
100
AcDbLine
 10
4.9163385826771648
 20
-4.3248031496062991
 30
0
 11
4.916413503937008
 21
-4.3244264960629923
 31
0
  0
LINE
  5
70
330
1A
100
AcDbEntity
  8
BLACK
  6
CONTINUOUS
100
AcDbLine
 10
4.916413503937008
 20
-4.3244264960629923
 30
0
 11
4.9169461811023618
 21
-4.3238938188976377
 31
0
  0
LINE
  5
71
330
1A
100
AcDbEntity
  8
BLACK
  6
CONTINUOUS
100
AcDbLine
 10
4.9169461811023618
 20
-4.3238938188976377
 30
0
 11
4.9173228346456694
 21
-4.3238188976377954
 31
0
  0
LINE
  5
72
330
1A
100
AcDbEntity
  8
BLACK
  6
CONTINUOUS
100
AcDbLine
 10
4.9173228346456694
 20
-4.3238188976377954
 30
0
 11
4.9606299212598426
 21
-4.3238188976377954
 31
0
  0
LINE
  5
73
330
1A
100
AcDbEntity
  8
BLACK
  6
CONTINUOUS
100
AcDbLine
 10
4.9606299212598426
 20
-4.3238188976377954
 30
0
 11
4.9610065748031493
 21
-4.3238938188976377
 31
0
  0
LINE
  5
74
330
1A
100
AcDbEntity
  8
BLACK
  6
CONTINUOUS
100
AcDbLine
 10
4.9183070866141732
 20
-4.3257874015748028
 30
0
 11
4.9183070866141732
 21
-4.3986220472440944
 31
0
  0
LINE
  5
75
330
1A
100
AcDbEntity
  8
BLACK
  6
CONTINUOUS
100
AcDbLine
 10
4.9183070866141732
 20
-4.3986220472440944
 30
0
 11
4.9596456692913389
 21
-4.3986220472440944
 31
0
  0
LINE
  5
76
330
1A
100
AcDbEntity
  8
BLACK
  6
CONTINUOUS
100
AcDbLine
 10
4.9596456692913389
 20
-4.3986220472440944
 30
0
 11
4.9596456692913389
 21
-4.3257874015748028
 31
0
  0
LINE
  5
77
330
1A
100
AcDbEntity
  8
BLACK
  6
CONTINUOUS
100
AcDbLine
 10
4.9596456692913389
 20
-4.3257874015748028
 30
0
 11
4.9183070866141732
 21
-4.3257874015748028
 31
0
  0
LINE
  5
78
330
1A
100
AcDbEntity
  8
BLACK
  6
CONTINUOUS
100
AcDbLine
 10
4.9610065748031493
 20
-4.1393268897637796
 30
0
 11
4.961539251968504
 21
-4.1398595669291334
 31
0
  0
LINE
  5
79
330
1A
100
AcDbEntity
  8
BLACK
  6
CONTINUOUS
100
AcDbLine
 10
4.961539251968504
 20
-4.1398595669291334
 30
0
 11
4.9616141732283463
 21
-4.140236220472441
 31
0
  0
LINE
  5
7A
330
1A
100
AcDbEntity
  8
BLACK
  6
CONTINUOUS
100
AcDbLine
 10
4.9616141732283463
 20
-4.140236220472441
 30
0
 11
4.9616141732283463
 21
-4.2150393700787401
 31
0
  0
LINE
  5
7B
330
1A
100
AcDbEntity
  8
BLACK
  6
CONTINUOUS
100
AcDbLine
 10
4.9616141732283463
 20
-4.2150393700787401
 30
0
 11
4.961539251968504
 21
-4.2154160236220468
 31
0
  0
LINE
  5
7C
330
1A
100
AcDbEntity
  8
BLACK
  6
CONTINUOUS
100
AcDbLine
 10
4.961539251968504
 20
-4.2154160236220468
 30
0
 11
4.9610065748031493
 21
-4.2159487007874015
 31
0
  0
LINE
  5
7D
330
1A
100
AcDbEntity
  8
BLACK
  6
CONTINUOUS
100
AcDbLine
 10
4.9610065748031493
 20
-4.2159487007874015
 30
0
 11
4.9606299212598426
 21
-4.2160236220472438
 31
0
  0
LINE
  5
7E
330
1A
100
AcDbEntity
  8
BLACK
  6
CONTINUOUS
100
AcDbLine
 10
4.9606299212598426
 20
-4.2160236220472438
 30
0
 11
4.9173228346456694
 21
-4.2160236220472438
 31
0
  0
LINE
  5
7F
330
1A
100
AcDbEntity
  8
BLACK
  6
CONTINUOUS
100
AcDbLine
 10
4.9173228346456694
 20
-4.2160236220472438
 30
0
 11
4.9169461811023618
 21
-4.2159487007874015
 31
0
  0
LINE
  5
80
330
1A
100
AcDbEntity
  8
BLACK
  6
CONTINUOUS
100
AcDbLine
 10
4.9169461811023618
 20
-4.2159487007874015
 30
0
 11
4.916413503937008
 21
-4.2154160236220468
 31
0
  0
LINE
  5
81
330
1A
100
AcDbEntity
  8
BLACK
  6
CONTINUOUS
100
AcDbLine
 10
4.916413503937008
 20
-4.2154160236220468
 30
0
 11
4.9163385826771648
 21
-4.2150393700787401
 31
0
  0
LINE
  5
82
330
1A
100
AcDbEntity
  8
BLACK
  6
CONTINUOUS
100
AcDbLine
 10
4.9163385826771648
 20
-4.2150393700787401
 30
0
 11
4.9163385826771648
 21
-4.140236220472441
 31
0
  0
LINE
  5
83
330
1A
100
AcDbEntity
  8
BLACK
  6
CONTINUOUS
100
AcDbLine
 10
4.9163385826771648
 20
-4.140236220472441
 30
0
 11
4.916413503937008
 21
-4.1398595669291334
 31
0
  0
LINE
  5
84
330
1A
100
AcDbEntity
  8
BLACK
  6
CONTINUOUS
100
AcDbLine
 10
4.916413503937008
 20
-4.1398595669291334
 30
0
 11
4.9169461811023618
 21
-4.1393268897637796
 31
0
  0
LINE
  5
85
330
1A
100
AcDbEntity
  8
BLACK
  6
CONTINUOUS
100
AcDbLine
 10
4.9169461811023618
 20
-4.1393268897637796
 30
0
 11
4.9173228346456694
 21
-4.1392519685039373
 31
0
  0
LINE
  5
86
330
1A
100
AcDbEntity
  8
BLACK
  6
CONTINUOUS
100
AcDbLine
 10
4.9173228346456694
 20
-4.1392519685039373
 30
0
 11
4.9606299212598426
 21
-4.1392519685039373
 31
0
  0
LINE
  5
87
330
1A
100
AcDbEntity
  8
BLACK
  6
CONTINUOUS
100
AcDbLine
 10
4.9606299212598426
 20
-4.1392519685039373
 30
0
 11
4.9610065748031493
 21
-4.1393268897637796
 31
0
  0
LINE
  5
88
330
1A
100
AcDbEntity
  8
BLACK
  6
CONTINUOUS
100
AcDbLine
 10
4.9183070866141732
 20
-4.1412204724409447
 30
0
 11
4.9183070866141732
 21
-4.2140551181102364
 31
0
  0
LINE
  5
89
330
1A
100
AcDbEntity
  8
BLACK
  6
CONTINUOUS
100
AcDbLine
 10
4.9183070866141732
 20
-4.2140551181102364
 30
0
 11
4.9596456692913389
 21
-4.2140551181102364
 31
0
  0
LINE
  5
8A
330
1A
100
AcDbEntity
  8
BLACK
  6
CONTINUOUS
100
AcDbLine
 10
4.9596456692913389
 20
-4.2140551181102364
 30
0
 11
4.9596456692913389
 21
-4.1412204724409447
 31
0
  0
LINE
  5
8B
330
1A
100
AcDbEntity
  8
BLACK
  6
CONTINUOUS
100
AcDbLine
 10
4.9596456692913389
 20
-4.1412204724409447
 30
0
 11
4.9183070866141732
 21
-4.1412204724409447
 31
0
  0
LINE
  5
8C
330
1A
100
AcDbEntity
  8
BLACK
  6
CONTINUOUS
100
AcDbLine
 10
5.14604594488189
 20
-4.1393268897637796
 30
0
 11
5.1465786220472438
 21
-4.1398595669291334
 31
0
  0
LINE
  5
8D
330
1A
100
AcDbEntity
  8
BLACK
  6
CONTINUOUS
100
AcDbLine
 10
5.1465786220472438
 20
-4.1398595669291334
 30
0
 11
5.1466535433070861
 21
-4.140236220472441
 31
0
  0
LINE
  5
8E
330
1A
100
AcDbEntity
  8
BLACK
  6
CONTINUOUS
100
AcDbLine
 10
5.1466535433070861
 20
-4.140236220472441
 30
0
 11
5.1466535433070861
 21
-4.2150393700787401
 31
0
  0
LINE
  5
8F
330
1A
100
AcDbEntity
  8
BLACK
  6
CONTINUOUS
100
AcDbLine
 10
5.1466535433070861
 20
-4.2150393700787401
 30
0
 11
5.1465786220472438
 21
-4.2154160236220468
 31
0
  0
LINE
  5
90
330
1A
100
AcDbEntity
  8
BLACK
  6
CONTINUOUS
100
AcDbLine
 10
5.1465786220472438
 20
-4.2154160236220468
 30
0
 11
5.14604594488189
 21
-4.2159487007874015
 31
0
  0
LINE
  5
91
330
1A
100
AcDbEntity
  8
BLACK
  6
CONTINUOUS
100
AcDbLine
 10
5.14604594488189
 20
-4.2159487007874015
 30
0
 11
5.1456692913385824
 21
-4.2160236220472438
 31
0
  0
LINE
  5
92
330
1A
100
AcDbEntity
  8
BLACK
  6
CONTINUOUS
100
AcDbLine
 10
5.1456692913385824
 20
-4.2160236220472438
 30
0
 11
5.1023622047244093
 21
-4.2160236220472438
 31
0
  0
LINE
  5
93
330
1A
100
AcDbEntity
  8
BLACK
  6
CONTINUOUS
100
AcDbLine
 10
5.1023622047244093
 20
-4.2160236220472438
 30
0
 11
5.1019855511811025
 21
-4.2159487007874015
 31
0
  0
LINE
  5
94
330
1A
100
AcDbEntity
  8
BLACK
  6
CONTINUOUS
100
AcDbLine
 10
5.1019855511811025
 20
-4.2159487007874015
 30
0
 11
5.1014528740157479
 21
-4.2154160236220468
 31
0
  0
LINE
  5
95
330
1A
100
AcDbEntity
  8
BLACK
  6
CONTINUOUS
100
AcDbLine
 10
5.1014528740157479
 20
-4.2154160236220468
 30
0
 11
5.1013779527559056
 21
-4.2150393700787401
 31
0
  0
LINE
  5
96
330
1A
100
AcDbEntity
  8
BLACK
  6
CONTINUOUS
100
AcDbLine
 10
5.1013779527559056
 20
-4.2150393700787401
 30
0
 11
5.1013779527559056
 21
-4.140236220472441
 31
0
  0
LINE
  5
97
330
1A
100
AcDbEntity
  8
BLACK
  6
CONTINUOUS
100
AcDbLine
 10
5.1013779527559056
 20
-4.140236220472441
 30
0
 11
5.1014528740157479
 21
-4.1398595669291334
 31
0
  0
LINE
  5
98
330
1A
100
AcDbEntity
  8
BLACK
  6
CONTINUOUS
100
AcDbLine
 10
5.1014528740157479
 20
-4.1398595669291334
 30
0
 11
5.1019855511811025
 21
-4.1393268897637796
 31
0
  0
LINE
  5
99
330
1A
100
AcDbEntity
  8
BLACK
  6
CONTINUOUS
100
AcDbLine
 10
5.1019855511811025
 20
-4.1393268897637796
 30
0
 11
5.1023622047244093
 21
-4.1392519685039373
 31
0
  0
LINE
  5
9A
330
1A
100
AcDbEntity
  8
BLACK
  6
CONTINUOUS
100
AcDbLine
 10
5.1023622047244093
 20
-4.1392519685039373
 30
0
 11
5.1456692913385824
 21
-4.1392519685039373
 31
0
  0
LINE
  5
9B
330
1A
100
AcDbEntity
  8
BLACK
  6
CONTINUOUS
100
AcDbLine
 10
5.1456692913385824
 20
-4.1392519685039373
 30
0
 11
5.14604594488189
 21
-4.1393268897637796
 31
0
  0
LINE
  5
9C
330
1A
100
AcDbEntity
  8
BLACK
  6
CONTINUOUS
100
AcDbLine
 10
5.103346456692913
 20
-4.1412204724409447
 30
0
 11
5.103346456692913
 21
-4.2140551181102364
 31
0
  0
LINE
  5
9D
330
1A
100
AcDbEntity
  8
BLACK
  6
CONTINUOUS
100
AcDbLine
 10
5.103346456692913
 20
-4.2140551181102364
 30
0
 11
5.1446850393700787
 21
-4.2140551181102364
 31
0
  0
LINE
  5
9E
330
1A
100
AcDbEntity
  8
BLACK
  6
CONTINUOUS
100
AcDbLine
 10
5.1446850393700787
 20
-4.2140551181102364
 30
0
 11
5.1446850393700787
 21
-4.1412204724409447
 31
0
  0
LINE
  5
9F
330
1A
100
AcDbEntity
  8
BLACK
  6
CONTINUOUS
100
AcDbLine
 10
5.1446850393700787
 20
-4.1412204724409447
 30
0
 11
5.103346456692913
 21
-4.1412204724409447
 31
0
  0
LINE
  5
A0
330
1A
100
AcDbEntity
  8
BLACK
  6
CONTINUOUS
100
AcDbLine
 10
5.3310853149606299
 20
-4.1393268897637796
 30
0
 11
5.3316179921259845
 21
-4.1398595669291334
 31
0
  0
LINE
  5
A1
330
1A
100
AcDbEntity
  8
BLACK
  6
CONTINUOUS
100
AcDbLine
 10
5.3316179921259845
 20
-4.1398595669291334
 30
0
 11
5.3316929133858268
 21
-4.140236220472441
 31
0
  0
LINE
  5
A2
330
1A
100
AcDbEntity
  8
BLACK
  6
CONTINUOUS
100
AcDbLine
 10
5.3316929133858268
 20
-4.140236220472441
 30
0
 11
5.3316929133858268
 21
-4.2150393700787401
 31
0
  0
LINE
  5
A3
330
1A
100
AcDbEntity
  8
BLACK
  6
CONTINUOUS
100
AcDbLine
 10
5.3316929133858268
 20
-4.2150393700787401
 30
0
 11
5.3316179921259845
 21
-4.2154160236220468
 31
0
  0
LINE
  5
A4
330
1A
100
AcDbEntity
  8
BLACK
  6
CONTINUOUS
100
AcDbLine
 10
5.3316179921259845
 20
-4.2154160236220468
 30
0
 11
5.3310853149606299
 21
-4.2159487007874015
 31
0
  0
LINE
  5
A5
330
1A
100
AcDbEntity
  8
BLACK
  6
CONTINUOUS
100
AcDbLine
 10
5.3310853149606299
 20
-4.2159487007874015
 30
0
 11
5.3307086614173231
 21
-4.2160236220472438
 31
0
  0
LINE
  5
A6
330
1A
100
AcDbEntity
  8
BLACK
  6
CONTINUOUS
100
AcDbLine
 10
5.3307086614173231
 20
-4.2160236220472438
 30
0
 11
5.2874015748031491
 21
-4.2160236220472438
 31
0
  0
LINE
  5
A7
330
1A
100
AcDbEntity
  8
BLACK
  6
CONTINUOUS
100
AcDbLine
 10
5.2874015748031491
 20
-4.2160236220472438
 30
0
 11
5.2870249212598424
 21
-4.2159487007874015
 31
0
  0
LINE
  5
A8
330
1A
100
AcDbEntity
  8
BLACK
  6
CONTINUOUS
100
AcDbLine
 10
5.2870249212598424
 20
-4.2159487007874015
 30
0
 11
5.2864922440944877
 21
-4.2154160236220468
 31
0
  0
LINE
  5
A9
330
1A
100
AcDbEntity
  8
BLACK
  6
CONTINUOUS
100
AcDbLine
 10
5.2864922440944877
 20
-4.2154160236220468
 30
0
 11
5.2864173228346454
 21
-4.2150393700787401
 31
0
  0
LINE
  5
AA
330
1A
100
AcDbEntity
  8
BLACK
  6
CONTINUOUS
100
AcDbLine
 10
5.2864173228346454
 20
-4.2150393700787401
 30
0
 11
5.2864173228346454
 21
-4.140236220472441
 31
0
  0
LINE
  5
AB
330
1A
100
AcDbEntity
  8
BLACK
  6
CONTINUOUS
100
AcDbLine
 10
5.2864173228346454
 20
-4.140236220472441
 30
0
 11
5.2864922440944877
 21
-4.1398595669291334
 31
0
  0
LINE
  5
AC
330
1A
100
AcDbEntity
  8
BLACK
  6
CONTINUOUS
100
AcDbLine
 10
5.2864922440944877
 20
-4.1398595669291334
 30
0
 11
5.2870249212598424
 21
-4.1393268897637796
 31
0
  0
LINE
  5
AD
330
1A
100
AcDbEntity
  8
BLACK
  6
CONTINUOUS
100
AcDbLine
 10
5.2870249212598424
 20
-4.1393268897637796
 30
0
 11
5.2874015748031491
 21
-4.1392519685039373
 31
0
  0
LINE
  5
AE
330
1A
100
AcDbEntity
  8
BLACK
  6
CONTINUOUS
100
AcDbLine
 10
5.2874015748031491
 20
-4.1392519685039373
 30
0
 11
5.3307086614173231
 21
-4.1392519685039373
 31
0
  0
LINE
  5
AF
330
1A
100
AcDbEntity
  8
BLACK
  6
CONTINUOUS
100
AcDbLine
 10
5.3307086614173231
 20
-4.1392519685039373
 30
0
 11
5.3310853149606299
 21
-4.1393268897637796
 31
0
  0
LINE
  5
B0
330
1A
100
AcDbEntity
  8
BLACK
  6
CONTINUOUS
100
AcDbLine
 10
5.2883858267716537
 20
-4.1412204724409447
 30
0
 11
5.2883858267716537
 21
-4.2140551181102364
 31
0
  0
LINE
  5
B1
330
1A
100
AcDbEntity
  8
BLACK
  6
CONTINUOUS
100
AcDbLine
 10
5.2883858267716537
 20
-4.2140551181102364
 30
0
 11
5.3297244094488185
 21
-4.2140551181102364
 31
0
  0
LINE
  5
B2
330
1A
100
AcDbEntity
  8
BLACK
  6
CONTINUOUS
100
AcDbLine
 10
5.3297244094488185
 20
-4.2140551181102364
 30
0
 11
5.3297244094488185
 21
-4.1412204724409447
 31
0
  0
LINE
  5
B3
330
1A
100
AcDbEntity
  8
BLACK
  6
CONTINUOUS
100
AcDbLine
 10
5.3297244094488185
 20
-4.1412204724409447
 30
0
 11
5.2883858267716537
 21
-4.1412204724409447
 31
0
  0
LINE
  5
B4
330
1A
100
AcDbEntity
  8
BLACK
  6
CONTINUOUS
100
AcDbLine
 10
5.5161246850393697
 20
-4.1393268897637796
 30
0
 11
5.5166573622047244
 21
-4.1398595669291334
 31
0
  0
LINE
  5
B5
330
1A
100
AcDbEntity
  8
BLACK
  6
CONTINUOUS
100
AcDbLine
 10
5.5166573622047244
 20
-4.1398595669291334
 30
0
 11
5.5167322834645667
 21
-4.140236220472441
 31
0
  0
LINE
  5
B6
330
1A
100
AcDbEntity
  8
BLACK
  6
CONTINUOUS
100
AcDbLine
 10
5.5167322834645667
 20
-4.140236220472441
 30
0
 11
5.5167322834645667
 21
-4.2150393700787401
 31
0
  0
LINE
  5
B7
330
1A
100
AcDbEntity
  8
BLACK
  6
CONTINUOUS
100
AcDbLine
 10
5.5167322834645667
 20
-4.2150393700787401
 30
0
 11
5.5166573622047244
 21
-4.2154160236220468
 31
0
  0
LINE
  5
B8
330
1A
100
AcDbEntity
  8
BLACK
  6
CONTINUOUS
100
AcDbLine
 10
5.5166573622047244
 20
-4.2154160236220468
 30
0
 11
5.5161246850393697
 21
-4.2159487007874015
 31
0
  0
LINE
  5
B9
330
1A
100
AcDbEntity
  8
BLACK
  6
CONTINUOUS
100
AcDbLine
 10
5.5161246850393697
 20
-4.2159487007874015
 30
0
 11
5.515748031496063
 21
-4.2160236220472438
 31
0
  0
LINE
  5
BA
330
1A
100
AcDbEntity
  8
BLACK
  6
CONTINUOUS
100
AcDbLine
 10
5.515748031496063
 20
-4.2160236220472438
 30
0
 11
5.4724409448818898
 21
-4.2160236220472438
 31
0
  0
LINE
  5
BB
330
1A
100
AcDbEntity
  8
BLACK
  6
CONTINUOUS
100
AcDbLine
 10
5.4724409448818898
 20
-4.2160236220472438
 30
0
 11
5.4720642913385822
 21
-4.2159487007874015
 31
0
  0
LINE
  5
BC
330
1A
100
AcDbEntity
  8
BLACK
  6
CONTINUOUS
100
AcDbLine
 10
5.4720642913385822
 20
-4.2159487007874015
 30
0
 11
5.4715316141732284
 21
-4.2154160236220468
 31
0
  0
LINE
  5
BD
330
1A
100
AcDbEntity
  8
BLACK
  6
CONTINUOUS
100
AcDbLine
 10
5.4715316141732284
 20
-4.2154160236220468
 30
0
 11
5.4714566929133861
 21
-4.2150393700787401
 31
0
  0
LINE
  5
BE
330
1A
100
AcDbEntity
  8
BLACK
  6
CONTINUOUS
100
AcDbLine
 10
5.4714566929133861
 20
-4.2150393700787401
 30
0
 11
5.4714566929133861
 21
-4.140236220472441
 31
0
  0
LINE
  5
BF
330
1A
100
AcDbEntity
  8
BLACK
  6
CONTINUOUS
100
AcDbLine
 10
5.4714566929133861
 20
-4.140236220472441
 30
0
 11
5.4715316141732284
 21
-4.1398595669291334
 31
0
  0
LINE
  5
C0
330
1A
100
AcDbEntity
  8
BLACK
  6
CONTINUOUS
100
AcDbLine
 10
5.4715316141732284
 20
-4.1398595669291334
 30
0
 11
5.4720642913385822
 21
-4.1393268897637796
 31
0
  0
LINE
  5
C1
330
1A
100
AcDbEntity
  8
BLACK
  6
CONTINUOUS
100
AcDbLine
 10
5.4720642913385822
 20
-4.1393268897637796
 30
0
 11
5.4724409448818898
 21
-4.1392519685039373
 31
0
  0
LINE
  5
C2
330
1A
100
AcDbEntity
  8
BLACK
  6
CONTINUOUS
100
AcDbLine
 10
5.4724409448818898
 20
-4.1392519685039373
 30
0
 11
5.515748031496063
 21
-4.1392519685039373
 31
0
  0
LINE
  5
C3
330
1A
100
AcDbEntity
  8
BLACK
  6
CONTINUOUS
100
AcDbLine
 10
5.515748031496063
 20
-4.1392519685039373
 30
0
 11
5.5161246850393697
 21
-4.1393268897637796
 31
0
  0
LINE
  5
C4
330
1A
100
AcDbEntity
  8
BLACK
  6
CONTINUOUS
100
AcDbLine
 10
5.4734251968503935
 20
-4.1412204724409447
 30
0
 11
5.4734251968503935
 21
-4.2140551181102364
 31
0
  0
LINE
  5
C5
330
1A
100
AcDbEntity
  8
BLACK
  6
CONTINUOUS
100
AcDbLine
 10
5.4734251968503935
 20
-4.2140551181102364
 30
0
 11
5.5147637795275593
 21
-4.2140551181102364
 31
0
  0
LINE
  5
C6
330
1A
100
AcDbEntity
  8
BLACK
  6
CONTINUOUS
100
AcDbLine
 10
5.5147637795275593
 20
-4.2140551181102364
 30
0
 11
5.5147637795275593
 21
-4.1412204724409447
 31
0
  0
LINE
  5
C7
330
1A
100
AcDbEntity
  8
BLACK
  6
CONTINUOUS
100
AcDbLine
 10
5.5147637795275593
 20
-4.1412204724409447
 30
0
 11
5.4734251968503935
 21
-4.1412204724409447
 31
0
  0
LINE
  5
C8
330
1A
100
AcDbEntity
  8
BLACK
  6
CONTINUOUS
100
AcDbLine
 10
4.9610065748031493
 20
-3.9542875196850393
 30
0
 11
4.961539251968504
 21
-3.9548201968503935
 31
0
  0
LINE
  5
C9
330
1A
100
AcDbEntity
  8
BLACK
  6
CONTINUOUS
100
AcDbLine
 10
4.961539251968504
 20
-3.9548201968503935
 30
0
 11
4.9616141732283463
 21
-3.9551968503937007
 31
0
  0
LINE
  5
CA
330
1A
100
AcDbEntity
  8
BLACK
  6
CONTINUOUS
100
AcDbLine
 10
4.9616141732283463
 20
-3.9551968503937007
 30
0
 11
4.9616141732283463
 21
-4.0300000000000002
 31
0
  0
LINE
  5
CB
330
1A
100
AcDbEntity
  8
BLACK
  6
CONTINUOUS
100
AcDbLine
 10
4.9616141732283463
 20
-4.0300000000000002
 30
0
 11
4.961539251968504
 21
-4.030376653543307
 31
0
  0
LINE
  5
CC
330
1A
100
AcDbEntity
  8
BLACK
  6
CONTINUOUS
100
AcDbLine
 10
4.961539251968504
 20
-4.030376653543307
 30
0
 11
4.9610065748031493
 21
-4.0309093307086616
 31
0
  0
LINE
  5
CD
330
1A
100
AcDbEntity
  8
BLACK
  6
CONTINUOUS
100
AcDbLine
 10
4.9610065748031493
 20
-4.0309093307086616
 30
0
 11
4.9606299212598426
 21
-4.030984251968504
 31
0
  0
LINE
  5
CE
330
1A
100
AcDbEntity
  8
BLACK
  6
CONTINUOUS
100
AcDbLine
 10
4.9606299212598426
 20
-4.030984251968504
 30
0
 11
4.9173228346456694
 21
-4.030984251968504
 31
0
  0
LINE
  5
CF
330
1A
100
AcDbEntity
  8
BLACK
  6
CONTINUOUS
100
AcDbLine
 10
4.9173228346456694
 20
-4.030984251968504
 30
0
 11
4.9169461811023618
 21
-4.0309093307086616
 31
0
  0
LINE
  5
D0
330
1A
100
AcDbEntity
  8
BLACK
  6
CONTINUOUS
100
AcDbLine
 10
4.9169461811023618
 20
-4.0309093307086616
 30
0
 11
4.916413503937008
 21
-4.030376653543307
 31
0
  0
LINE
  5
D1
330
1A
100
AcDbEntity
  8
BLACK
  6
CONTINUOUS
100
AcDbLine
 10
4.916413503937008
 20
-4.030376653543307
 30
0
 11
4.9163385826771648
 21
-4.0300000000000002
 31
0
  0
LINE
  5
D2
330
1A
100
AcDbEntity
  8
BLACK
  6
CONTINUOUS
100
AcDbLine
 10
4.9163385826771648
 20
-4.0300000000000002
 30
0
 11
4.9163385826771648
 21
-3.9551968503937007
 31
0
  0
LINE
  5
D3
330
1A
100
AcDbEntity
  8
BLACK
  6
CONTINUOUS
100
AcDbLine
 10
4.9163385826771648
 20
-3.9551968503937007
 30
0
 11
4.916413503937008
 21
-3.9548201968503935
 31
0
  0
LINE
  5
D4
330
1A
100
AcDbEntity
  8
BLACK
  6
CONTINUOUS
100
AcDbLine
 10
4.916413503937008
 20
-3.9548201968503935
 30
0
 11
4.9169461811023618
 21
-3.9542875196850393
 31
0
  0
LINE
  5
D5
330
1A
100
AcDbEntity
  8
BLACK
  6
CONTINUOUS
100
AcDbLine
 10
4.9169461811023618
 20
-3.9542875196850393
 30
0
 11
4.9173228346456694
 21
-3.9542125984251966
 31
0
  0
LINE
  5
D6
330
1A
100
AcDbEntity
  8
BLACK
  6
CONTINUOUS
100
AcDbLine
 10
4.9173228346456694
 20
-3.9542125984251966
 30
0
 11
4.9606299212598426
 21
-3.9542125984251966
 31
0
  0
LINE
  5
D7
330
1A
100
AcDbEntity
  8
BLACK
  6
CONTINUOUS
100
AcDbLine
 10
4.9606299212598426
 20
-3.9542125984251966
 30
0
 11
4.9610065748031493
 21
-3.9542875196850393
 31
0
  0
LINE
  5
D8
330
1A
100
AcDbEntity
  8
BLACK
  6
CONTINUOUS
100
AcDbLine
 10
4.9183070866141732
 20
-3.9561811023622044
 30
0
 11
4.9183070866141732
 21
-4.0290157480314956
 31
0
  0
LINE
  5
D9
330
1A
100
AcDbEntity
  8
BLACK
  6
CONTINUOUS
100
AcDbLine
 10
4.9183070866141732
 20
-4.0290157480314956
 30
0
 11
4.9596456692913389
 21
-4.0290157480314956
 31
0
  0
LINE
  5
DA
330
1A
100
AcDbEntity
  8
BLACK
  6
CONTINUOUS
100
AcDbLine
 10
4.9596456692913389
 20
-4.0290157480314956
 30
0
 11
4.9596456692913389
 21
-3.9561811023622044
 31
0
  0
LINE
  5
DB
330
1A
100
AcDbEntity
  8
BLACK
  6
CONTINUOUS
100
AcDbLine
 10
4.9596456692913389
 20
-3.9561811023622044
 30
0
 11
4.9183070866141732
 21
-3.9561811023622044
 31
0
  0
LINE
  5
DC
330
1A
100
AcDbEntity
  8
BLACK
  6
CONTINUOUS
100
AcDbLine
 10
5.14604594488189
 20
-3.9542875196850393
 30
0
 11
5.1465786220472438
 21
-3.9548201968503935
 31
0
  0
LINE
  5
DD
330
1A
100
AcDbEntity
  8
BLACK
  6
CONTINUOUS
100
AcDbLine
 10
5.1465786220472438
 20
-3.9548201968503935
 30
0
 11
5.1466535433070861
 21
-3.9551968503937007
 31
0
  0
LINE
  5
DE
330
1A
100
AcDbEntity
  8
BLACK
  6
CONTINUOUS
100
AcDbLine
 10
5.1466535433070861
 20
-3.9551968503937007
 30
0
 11
5.1466535433070861
 21
-4.0300000000000002
 31
0
  0
LINE
  5
DF
330
1A
100
AcDbEntity
  8
BLACK
  6
CONTINUOUS
100
AcDbLine
 10
5.1466535433070861
 20
-4.0300000000000002
 30
0
 11
5.1465786220472438
 21
-4.030376653543307
 31
0
  0
LINE
  5
E0
330
1A
100
AcDbEntity
  8
BLACK
  6
CONTINUOUS
100
AcDbLine
 10
5.1465786220472438
 20
-4.030376653543307
 30
0
 11
5.14604594488189
 21
-4.0309093307086616
 31
0
  0
LINE
  5
E1
330
1A
100
AcDbEntity
  8
BLACK
  6
CONTINUOUS
100
AcDbLine
 10
5.14604594488189
 20
-4.0309093307086616
 30
0
 11
5.1456692913385824
 21
-4.030984251968504
 31
0
  0
LINE
  5
E2
330
1A
100
AcDbEntity
  8
BLACK
  6
CONTINUOUS
100
AcDbLine
 10
5.1456692913385824
 20
-4.030984251968504
 30
0
 11
5.1023622047244093
 21
-4.030984251968504
 31
0
  0
LINE
  5
E3
330
1A
100
AcDbEntity
  8
BLACK
  6
CONTINUOUS
100
AcDbLine
 10
5.1023622047244093
 20
-4.030984251968504
 30
0
 11
5.1019855511811025
 21
-4.0309093307086616
 31
0
  0
LINE
  5
E4
330
1A
100
AcDbEntity
  8
BLACK
  6
CONTINUOUS
100
AcDbLine
 10
5.1019855511811025
 20
-4.0309093307086616
 30
0
 11
5.1014528740157479
 21
-4.030376653543307
 31
0
  0
LINE
  5
E5
330
1A
100
AcDbEntity
  8
BLACK
  6
CONTINUOUS
100
AcDbLine
 10
5.1014528740157479
 20
-4.030376653543307
 30
0
 11
5.1013779527559056
 21
-4.0300000000000002
 31
0
  0
LINE
  5
E6
330
1A
100
AcDbEntity
  8
BLACK
  6
CONTINUOUS
100
AcDbLine
 10
5.1013779527559056
 20
-4.0300000000000002
 30
0
 11
5.1013779527559056
 21
-3.9551968503937007
 31
0
  0
LINE
  5
E7
330
1A
100
AcDbEntity
  8
BLACK
  6
CONTINUOUS
100
AcDbLine
 10
5.1013779527559056
 20
-3.9551968503937007
 30
0
 11
5.1014528740157479
 21
-3.9548201968503935
 31
0
  0
LINE
  5
E8
330
1A
100
AcDbEntity
  8
BLACK
  6
CONTINUOUS
100
AcDbLine
 10
5.1014528740157479
 20
-3.9548201968503935
 30
0
 11
5.1019855511811025
 21
-3.9542875196850393
 31
0
  0
LINE
  5
E9
330
1A
100
AcDbEntity
  8
BLACK
  6
CONTINUOUS
100
AcDbLine
 10
5.1019855511811025
 20
-3.9542875196850393
 30
0
 11
5.1023622047244093
 21
-3.9542125984251966
 31
0
  0
LINE
  5
EA
330
1A
100
AcDbEntity
  8
BLACK
  6
CONTINUOUS
100
AcDbLine
 10
5.1023622047244093
 20
-3.9542125984251966
 30
0
 11
5.1456692913385824
 21
-3.9542125984251966
 31
0
  0
LINE
  5
EB
330
1A
100
AcDbEntity
  8
BLACK
  6
CONTINUOUS
100
AcDbLine
 10
5.1456692913385824
 20
-3.9542125984251966
 30
0
 11
5.14604594488189
 21
-3.9542875196850393
 31
0
  0
LINE
  5
EC
330
1A
100
AcDbEntity
  8
BLACK
  6
CONTINUOUS
100
AcDbLine
 10
5.103346456692913
 20
-3.9561811023622044
 30
0
 11
5.103346456692913
 21
-4.0290157480314956
 31
0
  0
LINE
  5
ED
330
1A
100
AcDbEntity
  8
BLACK
  6
CONTINUOUS
100
AcDbLine
 10
5.103346456692913
 20
-4.0290157480314956
 30
0
 11
5.1446850393700787
 21
-4.0290157480314956
 31
0
  0
LINE
  5
EE
330
1A
100
AcDbEntity
  8
BLACK
  6
CONTINUOUS
100
AcDbLine
 10
5.1446850393700787
 20
-4.0290157480314956
 30
0
 11
5.1446850393700787
 21
-3.9561811023622044
 31
0
  0
LINE
  5
EF
330
1A
100
AcDbEntity
  8
BLACK
  6
CONTINUOUS
100
AcDbLine
 10
5.1446850393700787
 20
-3.9561811023622044
 30
0
 11
5.103346456692913
 21
-3.9561811023622044
 31
0
  0
LINE
  5
F0
330
1A
100
AcDbEntity
  8
BLACK
  6
CONTINUOUS
100
AcDbLine
 10
5.3310853149606299
 20
-3.9542875196850393
 30
0
 11
5.3316179921259845
 21
-3.9548201968503935
 31
0
  0
LINE
  5
F1
330
1A
100
AcDbEntity
  8
BLACK
  6
CONTINUOUS
100
AcDbLine
 10
5.3316179921259845
 20
-3.9548201968503935
 30
0
 11
5.3316929133858268
 21
-3.9551968503937007
 31
0
  0
LINE
  5
F2
330
1A
100
AcDbEntity
  8
BLACK
  6
CONTINUOUS
100
AcDbLine
 10
5.3316929133858268
 20
-3.9551968503937007
 30
0
 11
5.3316929133858268
 21
-4.0300000000000002
 31
0
  0
LINE
  5
F3
330
1A
100
AcDbEntity
  8
BLACK
  6
CONTINUOUS
100
AcDbLine
 10
5.3316929133858268
 20
-4.0300000000000002
 30
0
 11
5.3316179921259845
 21
-4.030376653543307
 31
0
  0
LINE
  5
F4
330
1A
100
AcDbEntity
  8
BLACK
  6
CONTINUOUS
100
AcDbLine
 10
5.3316179921259845
 20
-4.030376653543307
 30
0
 11
5.3310853149606299
 21
-4.0309093307086616
 31
0
  0
LINE
  5
F5
330
1A
100
AcDbEntity
  8
BLACK
  6
CONTINUOUS
100
AcDbLine
 10
5.3310853149606299
 20
-4.0309093307086616
 30
0
 11
5.3307086614173231
 21
-4.030984251968504
 31
0
  0
LINE
  5
F6
330
1A
100
AcDbEntity
  8
BLACK
  6
CONTINUOUS
100
AcDbLine
 10
5.3307086614173231
 20
-4.030984251968504
 30
0
 11
5.2874015748031491
 21
-4.030984251968504
 31
0
  0
LINE
  5
F7
330
1A
100
AcDbEntity
  8
BLACK
  6
CONTINUOUS
100
AcDbLine
 10
5.2874015748031491
 20
-4.030984251968504
 30
0
 11
5.2870249212598424
 21
-4.0309093307086616
 31
0
  0
LINE
  5
F8
330
1A
100
AcDbEntity
  8
BLACK
  6
CONTINUOUS
100
AcDbLine
 10
5.2870249212598424
 20
-4.0309093307086616
 30
0
 11
5.2864922440944877
 21
-4.030376653543307
 31
0
  0
LINE
  5
F9
330
1A
100
AcDbEntity
  8
BLACK
  6
CONTINUOUS
100
AcDbLine
 10
5.2864922440944877
 20
-4.030376653543307
 30
0
 11
5.2864173228346454
 21
-4.0300000000000002
 31
0
  0
LINE
  5
FA
330
1A
100
AcDbEntity
  8
BLACK
  6
CONTINUOUS
100
AcDbLine
 10
5.2864173228346454
 20
-4.0300000000000002
 30
0
 11
5.2864173228346454
 21
-3.9551968503937007
 31
0
  0
LINE
  5
FB
330
1A
100
AcDbEntity
  8
BLACK
  6
CONTINUOUS
100
AcDbLine
 10
5.2864173228346454
 20
-3.9551968503937007
 30
0
 11
5.2864922440944877
 21
-3.9548201968503935
 31
0
  0
LINE
  5
FC
330
1A
100
AcDbEntity
  8
BLACK
  6
CONTINUOUS
100
AcDbLine
 10
5.2864922440944877
 20
-3.9548201968503935
 30
0
 11
5.2870249212598424
 21
-3.9542875196850393
 31
0
  0
LINE
  5
FD
330
1A
100
AcDbEntity
  8
BLACK
  6
CONTINUOUS
100
AcDbLine
 10
5.2870249212598424
 20
-3.9542875196850393
 30
0
 11
5.2874015748031491
 21
-3.9542125984251966
 31
0
  0
LINE
  5
FE
330
1A
100
AcDbEntity
  8
BLACK
  6
CONTINUOUS
100
AcDbLine
 10
5.2874015748031491
 20
-3.9542125984251966
 30
0
 11
5.3307086614173231
 21
-3.9542125984251966
 31
0
  0
LINE
  5
FF
330
1A
100
AcDbEntity
  8
BLACK
  6
CONTINUOUS
100
AcDbLine
 10
5.3307086614173231
 20
-3.9542125984251966
 30
0
 11
5.3310853149606299
 21
-3.9542875196850393
 31
0
  0
LINE
  5
100
330
1A
100
AcDbEntity
  8
BLACK
  6
CONTINUOUS
100
AcDbLine
 10
5.2883858267716537
 20
-3.9561811023622044
 30
0
 11
5.2883858267716537
 21
-4.0290157480314956
 31
0
  0
LINE
  5
101
330
1A
100
AcDbEntity
  8
BLACK
  6
CONTINUOUS
100
AcDbLine
 10
5.2883858267716537
 20
-4.0290157480314956
 30
0
 11
5.3297244094488185
 21
-4.0290157480314956
 31
0
  0
LINE
  5
102
330
1A
100
AcDbEntity
  8
BLACK
  6
CONTINUOUS
100
AcDbLine
 10
5.3297244094488185
 20
-4.0290157480314956
 30
0
 11
5.3297244094488185
 21
-3.9561811023622044
 31
0
  0
LINE
  5
103
330
1A
100
AcDbEntity
  8
BLACK
  6
CONTINUOUS
100
AcDbLine
 10
5.3297244094488185
 20
-3.9561811023622044
 30
0
 11
5.2883858267716537
 21
-3.9561811023622044
 31
0
  0
LINE
  5
104
330
1A
100
AcDbEntity
  8
BLACK
  6
CONTINUOUS
100
AcDbLine
 10
5.5161246850393697
 20
-3.9542875196850393
 30
0
 11
5.5166573622047244
 21
-3.9548201968503935
 31
0
  0
LINE
  5
105
330
1A
100
AcDbEntity
  8
BLACK
  6
CONTINUOUS
100
AcDbLine
 10
5.5166573622047244
 20
-3.9548201968503935
 30
0
 11
5.5167322834645667
 21
-3.9551968503937007
 31
0
  0
LINE
  5
106
330
1A
100
AcDbEntity
  8
BLACK
  6
CONTINUOUS
100
AcDbLine
 10
5.5167322834645667
 20
-3.9551968503937007
 30
0
 11
5.5167322834645667
 21
-4.0300000000000002
 31
0
  0
LINE
  5
107
330
1A
100
AcDbEntity
  8
BLACK
  6
CONTINUOUS
100
AcDbLine
 10
5.5167322834645667
 20
-4.0300000000000002
 30
0
 11
5.5166573622047244
 21
-4.030376653543307
 31
0
  0
LINE
  5
108
330
1A
100
AcDbEntity
  8
BLACK
  6
CONTINUOUS
100
AcDbLine
 10
5.5166573622047244
 20
-4.030376653543307
 30
0
 11
5.5161246850393697
 21
-4.0309093307086616
 31
0
  0
LINE
  5
109
330
1A
100
AcDbEntity
  8
BLACK
  6
CONTINUOUS
100
AcDbLine
 10
5.5161246850393697
 20
-4.0309093307086616
 30
0
 11
5.515748031496063
 21
-4.030984251968504
 31
0
  0
LINE
  5
10A
330
1A
100
AcDbEntity
  8
BLACK
  6
CONTINUOUS
100
AcDbLine
 10
5.515748031496063
 20
-4.030984251968504
 30
0
 11
5.4724409448818898
 21
-4.030984251968504
 31
0
  0
LINE
  5
10B
330
1A
100
AcDbEntity
  8
BLACK
  6
CONTINUOUS
100
AcDbLine
 10
5.4724409448818898
 20
-4.030984251968504
 30
0
 11
5.4720642913385822
 21
-4.0309093307086616
 31
0
  0
LINE
  5
10C
330
1A
100
AcDbEntity
  8
BLACK
  6
CONTINUOUS
100
AcDbLine
 10
5.4720642913385822
 20
-4.0309093307086616
 30
0
 11
5.4715316141732284
 21
-4.030376653543307
 31
0
  0
LINE
  5
10D
330
1A
100
AcDbEntity
  8
BLACK
  6
CONTINUOUS
100
AcDbLine
 10
5.4715316141732284
 20
-4.030376653543307
 30
0
 11
5.4714566929133861
 21
-4.0300000000000002
 31
0
  0
LINE
  5
10E
330
1A
100
AcDbEntity
  8
BLACK
  6
CONTINUOUS
100
AcDbLine
 10
5.4714566929133861
 20
-4.0300000000000002
 30
0
 11
5.4714566929133861
 21
-3.9551968503937007
 31
0
  0
LINE
  5
10F
330
1A
100
AcDbEntity
  8
BLACK
  6
CONTINUOUS
100
AcDbLine
 10
5.4714566929133861
 20
-3.9551968503937007
 30
0
 11
5.4715316141732284
 21
-3.9548201968503935
 31
0
  0
LINE
  5
110
330
1A
100
AcDbEntity
  8
BLACK
  6
CONTINUOUS
100
AcDbLine
 10
5.4715316141732284
 20
-3.9548201968503935
 30
0
 11
5.4720642913385822
 21
-3.9542875196850393
 31
0
  0
LINE
  5
111
330
1A
100
AcDbEntity
  8
BLACK
  6
CONTINUOUS
100
AcDbLine
 10
5.4720642913385822
 20
-3.9542875196850393
 30
0
 11
5.4724409448818898
 21
-3.9542125984251966
 31
0
  0
LINE
  5
112
330
1A
100
AcDbEntity
  8
BLACK
  6
CONTINUOUS
100
AcDbLine
 10
5.4724409448818898
 20
-3.9542125984251966
 30
0
 11
5.515748031496063
 21
-3.9542125984251966
 31
0
  0
LINE
  5
113
330
1A
100
AcDbEntity
  8
BLACK
  6
CONTINUOUS
100
AcDbLine
 10
5.515748031496063
 20
-3.9542125984251966
 30
0
 11
5.5161246850393697
 21
-3.9542875196850393
 31
0
  0
LINE
  5
114
330
1A
100
AcDbEntity
  8
BLACK
  6
CONTINUOUS
100
AcDbLine
 10
5.4734251968503935
 20
-3.9561811023622044
 30
0
 11
5.4734251968503935
 21
-4.0290157480314956
 31
0
  0
LINE
  5
115
330
1A
100
AcDbEntity
  8
BLACK
  6
CONTINUOUS
100
AcDbLine
 10
5.4734251968503935
 20
-4.0290157480314956
 30
0
 11
5.5147637795275593
 21
-4.0290157480314956
 31
0
  0
LINE
  5
116
330
1A
100
AcDbEntity
  8
BLACK
  6
CONTINUOUS
100
AcDbLine
 10
5.5147637795275593
 20
-4.0290157480314956
 30
0
 11
5.5147637795275593
 21
-3.9561811023622044
 31
0
  0
LINE
  5
117
330
1A
100
AcDbEntity
  8
BLACK
  6
CONTINUOUS
100
AcDbLine
 10
5.5147637795275593
 20
-3.9561811023622044
 30
0
 11
5.4734251968503935
 21
-3.9561811023622044
 31
0
  0
LINE
  5
118
330
1A
100
AcDbEntity
  8
BLACK
  6
CONTINUOUS
100
AcDbLine
 10
4.9610065748031493
 20
-3.7692481496062991
 30
0
 11
4.961539251968504
 21
-3.7697808267716533
 31
0
  0
LINE
  5
119
330
1A
100
AcDbEntity
  8
BLACK
  6
CONTINUOUS
100
AcDbLine
 10
4.961539251968504
 20
-3.7697808267716533
 30
0
 11
4.9616141732283463
 21
-3.7701574803149605
 31
0
  0
LINE
  5
11A
330
1A
100
AcDbEntity
  8
BLACK
  6
CONTINUOUS
100
AcDbLine
 10
4.9616141732283463
 20
-3.7701574803149605
 30
0
 11
4.9616141732283463
 21
-3.84496062992126
 31
0
  0
LINE
  5
11B
330
1A
100
AcDbEntity
  8
BLACK
  6
CONTINUOUS
100
AcDbLine
 10
4.9616141732283463
 20
-3.84496062992126
 30
0
 11
4.961539251968504
 21
-3.8453372834645667
 31
0
  0
LINE
  5
11C
330
1A
100
AcDbEntity
  8
BLACK
  6
CONTINUOUS
100
AcDbLine
 10
4.961539251968504
 20
-3.8453372834645667
 30
0
 11
4.9610065748031493
 21
-3.8458699606299214
 31
0
  0
LINE
  5
11D
330
1A
100
AcDbEntity
  8
BLACK
  6
CONTINUOUS
100
AcDbLine
 10
4.9610065748031493
 20
-3.8458699606299214
 30
0
 11
4.9606299212598426
 21
-3.8459448818897637
 31
0
  0
LINE
  5
11E
330
1A
100
AcDbEntity
  8
BLACK
  6
CONTINUOUS
100
AcDbLine
 10
4.9606299212598426
 20
-3.8459448818897637
 30
0
 11
4.9173228346456694
 21
-3.8459448818897637
 31
0
  0
LINE
  5
11F
330
1A
100
AcDbEntity
  8
BLACK
  6
CONTINUOUS
100
AcDbLine
 10
4.9173228346456694
 20
-3.8459448818897637
 30
0
 11
4.9169461811023618
 21
-3.8458699606299214
 31
0
  0
LINE
  5
120
330
1A
100
AcDbEntity
  8
BLACK
  6
CONTINUOUS
100
AcDbLine
 10
4.9169461811023618
 20
-3.8458699606299214
 30
0
 11
4.916413503937008
 21
-3.8453372834645667
 31
0
  0
LINE
  5
121
330
1A
100
AcDbEntity
  8
BLACK
  6
CONTINUOUS
100
AcDbLine
 10
4.916413503937008
 20
-3.8453372834645667
 30
0
 11
4.9163385826771648
 21
-3.84496062992126
 31
0
  0
LINE
  5
122
330
1A
100
AcDbEntity
  8
BLACK
  6
CONTINUOUS
100
AcDbLine
 10
4.9163385826771648
 20
-3.84496062992126
 30
0
 11
4.9163385826771648
 21
-3.7701574803149605
 31
0
  0
LINE
  5
123
330
1A
100
AcDbEntity
  8
BLACK
  6
CONTINUOUS
100
AcDbLine
 10
4.9163385826771648
 20
-3.7701574803149605
 30
0
 11
4.916413503937008
 21
-3.7697808267716533
 31
0
  0
LINE
  5
124
330
1A
100
AcDbEntity
  8
BLACK
  6
CONTINUOUS
100
AcDbLine
 10
4.916413503937008
 20
-3.7697808267716533
 30
0
 11
4.9169461811023618
 21
-3.7692481496062991
 31
0
  0
LINE
  5
125
330
1A
100
AcDbEntity
  8
BLACK
  6
CONTINUOUS
100
AcDbLine
 10
4.9169461811023618
 20
-3.7692481496062991
 30
0
 11
4.9173228346456694
 21
-3.7691732283464567
 31
0
  0
LINE
  5
126
330
1A
100
AcDbEntity
  8
BLACK
  6
CONTINUOUS
100
AcDbLine
 10
4.9173228346456694
 20
-3.7691732283464567
 30
0
 11
4.9606299212598426
 21
-3.7691732283464567
 31
0
  0
LINE
  5
127
330
1A
100
AcDbEntity
  8
BLACK
  6
CONTINUOUS
100
AcDbLine
 10
4.9606299212598426
 20
-3.7691732283464567
 30
0
 11
4.9610065748031493
 21
-3.7692481496062991
 31
0
  0
LINE
  5
128
330
1A
100
AcDbEntity
  8
BLACK
  6
CONTINUOUS
100
AcDbLine
 10
4.9183070866141732
 20
-3.7711417322834646
 30
0
 11
4.9183070866141732
 21
-3.8439763779527558
 31
0
  0
LINE
  5
129
330
1A
100
AcDbEntity
  8
BLACK
  6
CONTINUOUS
100
AcDbLine
 10
4.9183070866141732
 20
-3.8439763779527558
 30
0
 11
4.9596456692913389
 21
-3.8439763779527558
 31
0
  0
LINE
  5
12A
330
1A
100
AcDbEntity
  8
BLACK
  6
CONTINUOUS
100
AcDbLine
 10
4.9596456692913389
 20
-3.8439763779527558
 30
0
 11
4.9596456692913389
 21
-3.7711417322834646
 31
0
  0
LINE
  5
12B
330
1A
100
AcDbEntity
  8
BLACK
  6
CONTINUOUS
100
AcDbLine
 10
4.9596456692913389
 20
-3.7711417322834646
 30
0
 11
4.9183070866141732
 21
-3.7711417322834646
 31
0
  0
LINE
  5
12C
330
1A
100
AcDbEntity
  8
BLACK
  6
CONTINUOUS
100
AcDbLine
 10
5.14604594488189
 20
-3.7692481496062991
 30
0
 11
5.1465786220472438
 21
-3.7697808267716533
 31
0
  0
LINE
  5
12D
330
1A
100
AcDbEntity
  8
BLACK
  6
CONTINUOUS
100
AcDbLine
 10
5.1465786220472438
 20
-3.7697808267716533
 30
0
 11
5.1466535433070861
 21
-3.7701574803149605
 31
0
  0
LINE
  5
12E
330
1A
100
AcDbEntity
  8
BLACK
  6
CONTINUOUS
100
AcDbLine
 10
5.1466535433070861
 20
-3.7701574803149605
 30
0
 11
5.1466535433070861
 21
-3.84496062992126
 31
0
  0
LINE
  5
12F
330
1A
100
AcDbEntity
  8
BLACK
  6
CONTINUOUS
100
AcDbLine
 10
5.1466535433070861
 20
-3.84496062992126
 30
0
 11
5.1465786220472438
 21
-3.8453372834645667
 31
0
  0
LINE
  5
130
330
1A
100
AcDbEntity
  8
BLACK
  6
CONTINUOUS
100
AcDbLine
 10
5.1465786220472438
 20
-3.8453372834645667
 30
0
 11
5.14604594488189
 21
-3.8458699606299214
 31
0
  0
LINE
  5
131
330
1A
100
AcDbEntity
  8
BLACK
  6
CONTINUOUS
100
AcDbLine
 10
5.14604594488189
 20
-3.8458699606299214
 30
0
 11
5.1456692913385824
 21
-3.8459448818897637
 31
0
  0
LINE
  5
132
330
1A
100
AcDbEntity
  8
BLACK
  6
CONTINUOUS
100
AcDbLine
 10
5.1456692913385824
 20
-3.8459448818897637
 30
0
 11
5.1023622047244093
 21
-3.8459448818897637
 31
0
  0
LINE
  5
133
330
1A
100
AcDbEntity
  8
BLACK
  6
CONTINUOUS
100
AcDbLine
 10
5.1023622047244093
 20
-3.8459448818897637
 30
0
 11
5.1019855511811025
 21
-3.8458699606299214
 31
0
  0
LINE
  5
134
330
1A
100
AcDbEntity
  8
BLACK
  6
CONTINUOUS
100
AcDbLine
 10
5.1019855511811025
 20
-3.8458699606299214
 30
0
 11
5.1014528740157479
 21
-3.8453372834645667
 31
0
  0
LINE
  5
135
330
1A
100
AcDbEntity
  8
BLACK
  6
CONTINUOUS
100
AcDbLine
 10
5.1014528740157479
 20
-3.8453372834645667
 30
0
 11
5.1013779527559056
 21
-3.84496062992126
 31
0
  0
LINE
  5
136
330
1A
100
AcDbEntity
  8
BLACK
  6
CONTINUOUS
100
AcDbLine
 10
5.1013779527559056
 20
-3.84496062992126
 30
0
 11
5.1013779527559056
 21
-3.7701574803149605
 31
0
  0
LINE
  5
137
330
1A
100
AcDbEntity
  8
BLACK
  6
CONTINUOUS
100
AcDbLine
 10
5.1013779527559056
 20
-3.7701574803149605
 30
0
 11
5.1014528740157479
 21
-3.7697808267716533
 31
0
  0
LINE
  5
138
330
1A
100
AcDbEntity
  8
BLACK
  6
CONTINUOUS
100
AcDbLine
 10
5.1014528740157479
 20
-3.7697808267716533
 30
0
 11
5.1019855511811025
 21
-3.7692481496062991
 31
0
  0
LINE
  5
139
330
1A
100
AcDbEntity
  8
BLACK
  6
CONTINUOUS
100
AcDbLine
 10
5.1019855511811025
 20
-3.7692481496062991
 30
0
 11
5.1023622047244093
 21
-3.7691732283464567
 31
0
  0
LINE
  5
13A
330
1A
100
AcDbEntity
  8
BLACK
  6
CONTINUOUS
100
AcDbLine
 10
5.1023622047244093
 20
-3.7691732283464567
 30
0
 11
5.1456692913385824
 21
-3.7691732283464567
 31
0
  0
LINE
  5
13B
330
1A
100
AcDbEntity
  8
BLACK
  6
CONTINUOUS
100
AcDbLine
 10
5.1456692913385824
 20
-3.7691732283464567
 30
0
 11
5.14604594488189
 21
-3.7692481496062991
 31
0
  0
LINE
  5
13C
330
1A
100
AcDbEntity
  8
BLACK
  6
CONTINUOUS
100
AcDbLine
 10
5.103346456692913
 20
-3.7711417322834646
 30
0
 11
5.103346456692913
 21
-3.8439763779527558
 31
0
  0
LINE
  5
13D
330
1A
100
AcDbEntity
  8
BLACK
  6
CONTINUOUS
100
AcDbLine
 10
5.103346456692913
 20
-3.8439763779527558
 30
0
 11
5.1446850393700787
 21
-3.8439763779527558
 31
0
  0
LINE
  5
13E
330
1A
100
AcDbEntity
  8
BLACK
  6
CONTINUOUS
100
AcDbLine
 10
5.1446850393700787
 20
-3.8439763779527558
 30
0
 11
5.1446850393700787
 21
-3.7711417322834646
 31
0
  0
LINE
  5
13F
330
1A
100
AcDbEntity
  8
BLACK
  6
CONTINUOUS
100
AcDbLine
 10
5.1446850393700787
 20
-3.7711417322834646
 30
0
 11
5.103346456692913
 21
-3.7711417322834646
 31
0
  0
LINE
  5
140
330
1A
100
AcDbEntity
  8
BLACK
  6
CONTINUOUS
100
AcDbLine
 10
5.3310853149606299
 20
-3.7692481496062991
 30
0
 11
5.3316179921259845
 21
-3.7697808267716533
 31
0
  0
LINE
  5
141
330
1A
100
AcDbEntity
  8
BLACK
  6
CONTINUOUS
100
AcDbLine
 10
5.3316179921259845
 20
-3.7697808267716533
 30
0
 11
5.3316929133858268
 21
-3.7701574803149605
 31
0
  0
LINE
  5
142
330
1A
100
AcDbEntity
  8
BLACK
  6
CONTINUOUS
100
AcDbLine
 10
5.3316929133858268
 20
-3.7701574803149605
 30
0
 11
5.3316929133858268
 21
-3.84496062992126
 31
0
  0
LINE
  5
143
330
1A
100
AcDbEntity
  8
BLACK
  6
CONTINUOUS
100
AcDbLine
 10
5.3316929133858268
 20
-3.84496062992126
 30
0
 11
5.3316179921259845
 21
-3.8453372834645667
 31
0
  0
LINE
  5
144
330
1A
100
AcDbEntity
  8
BLACK
  6
CONTINUOUS
100
AcDbLine
 10
5.3316179921259845
 20
-3.8453372834645667
 30
0
 11
5.3310853149606299
 21
-3.8458699606299214
 31
0
  0
LINE
  5
145
330
1A
100
AcDbEntity
  8
BLACK
  6
CONTINUOUS
100
AcDbLine
 10
5.3310853149606299
 20
-3.8458699606299214
 30
0
 11
5.3307086614173231
 21
-3.8459448818897637
 31
0
  0
LINE
  5
146
330
1A
100
AcDbEntity
  8
BLACK
  6
CONTINUOUS
100
AcDbLine
 10
5.3307086614173231
 20
-3.8459448818897637
 30
0
 11
5.2874015748031491
 21
-3.8459448818897637
 31
0
  0
LINE
  5
147
330
1A
100
AcDbEntity
  8
BLACK
  6
CONTINUOUS
100
AcDbLine
 10
5.2874015748031491
 20
-3.8459448818897637
 30
0
 11
5.2870249212598424
 21
-3.8458699606299214
 31
0
  0
LINE
  5
148
330
1A
100
AcDbEntity
  8
BLACK
  6
CONTINUOUS
100
AcDbLine
 10
5.2870249212598424
 20
-3.8458699606299214
 30
0
 11
5.2864922440944877
 21
-3.8453372834645667
 31
0
  0
LINE
  5
149
330
1A
100
AcDbEntity
  8
BLACK
  6
CONTINUOUS
100
AcDbLine
 10
5.2864922440944877
 20
-3.8453372834645667
 30
0
 11
5.2864173228346454
 21
-3.84496062992126
 31
0
  0
LINE
  5
14A
330
1A
100
AcDbEntity
  8
BLACK
  6
CONTINUOUS
100
AcDbLine
 10
5.2864173228346454
 20
-3.84496062992126
 30
0
 11
5.2864173228346454
 21
-3.7701574803149605
 31
0
  0
LINE
  5
14B
330
1A
100
AcDbEntity
  8
BLACK
  6
CONTINUOUS
100
AcDbLine
 10
5.2864173228346454
 20
-3.7701574803149605
 30
0
 11
5.2864922440944877
 21
-3.7697808267716533
 31
0
  0
LINE
  5
14C
330
1A
100
AcDbEntity
  8
BLACK
  6
CONTINUOUS
100
AcDbLine
 10
5.2864922440944877
 20
-3.7697808267716533
 30
0
 11
5.2870249212598424
 21
-3.7692481496062991
 31
0
  0
LINE
  5
14D
330
1A
100
AcDbEntity
  8
BLACK
  6
CONTINUOUS
100
AcDbLine
 10
5.2870249212598424
 20
-3.7692481496062991
 30
0
 11
5.2874015748031491
 21
-3.7691732283464567
 31
0
  0
LINE
  5
14E
330
1A
100
AcDbEntity
  8
BLACK
  6
CONTINUOUS
100
AcDbLine
 10
5.2874015748031491
 20
-3.7691732283464567
 30
0
 11
5.3307086614173231
 21
-3.7691732283464567
 31
0
  0
LINE
  5
14F
330
1A
100
AcDbEntity
  8
BLACK
  6
CONTINUOUS
100
AcDbLine
 10
5.3307086614173231
 20
-3.7691732283464567
 30
0
 11
5.3310853149606299
 21
-3.7692481496062991
 31
0
  0
LINE
  5
150
330
1A
100
AcDbEntity
  8
BLACK
  6
CONTINUOUS
100
AcDbLine
 10
5.2883858267716537
 20
-3.7711417322834646
 30
0
 11
5.2883858267716537
 21
-3.8439763779527558
 31
0
  0
LINE
  5
151
330
1A
100
AcDbEntity
  8
BLACK
  6
CONTINUOUS
100
AcDbLine
 10
5.2883858267716537
 20
-3.8439763779527558
 30
0
 11
5.3297244094488185
 21
-3.8439763779527558
 31
0
  0
LINE
  5
152
330
1A
100
AcDbEntity
  8
BLACK
  6
CONTINUOUS
100
AcDbLine
 10
5.3297244094488185
 20
-3.8439763779527558
 30
0
 11
5.3297244094488185
 21
-3.7711417322834646
 31
0
  0
LINE
  5
153
330
1A
100
AcDbEntity
  8
BLACK
  6
CONTINUOUS
100
AcDbLine
 10
5.3297244094488185
 20
-3.7711417322834646
 30
0
 11
5.2883858267716537
 21
-3.7711417322834646
 31
0
  0
LINE
  5
154
330
1A
100
AcDbEntity
  8
BLACK
  6
CONTINUOUS
100
AcDbLine
 10
5.5161246850393697
 20
-3.7692481496062991
 30
0
 11
5.5166573622047244
 21
-3.7697808267716533
 31
0
  0
LINE
  5
155
330
1A
100
AcDbEntity
  8
BLACK
  6
CONTINUOUS
100
AcDbLine
 10
5.5166573622047244
 20
-3.7697808267716533
 30
0
 11
5.5167322834645667
 21
-3.7701574803149605
 31
0
  0
LINE
  5
156
330
1A
100
AcDbEntity
  8
BLACK
  6
CONTINUOUS
100
AcDbLine
 10
5.5167322834645667
 20
-3.7701574803149605
 30
0
 11
5.5167322834645667
 21
-3.84496062992126
 31
0
  0
LINE
  5
157
330
1A
100
AcDbEntity
  8
BLACK
  6
CONTINUOUS
100
AcDbLine
 10
5.5167322834645667
 20
-3.84496062992126
 30
0
 11
5.5166573622047244
 21
-3.8453372834645667
 31
0
  0
LINE
  5
158
330
1A
100
AcDbEntity
  8
BLACK
  6
CONTINUOUS
100
AcDbLine
 10
5.5166573622047244
 20
-3.8453372834645667
 30
0
 11
5.5161246850393697
 21
-3.8458699606299214
 31
0
  0
LINE
  5
159
330
1A
100
AcDbEntity
  8
BLACK
  6
CONTINUOUS
100
AcDbLine
 10
5.5161246850393697
 20
-3.8458699606299214
 30
0
 11
5.515748031496063
 21
-3.8459448818897637
 31
0
  0
LINE
  5
15A
330
1A
100
AcDbEntity
  8
BLACK
  6
CONTINUOUS
100
AcDbLine
 10
5.515748031496063
 20
-3.8459448818897637
 30
0
 11
5.4724409448818898
 21
-3.8459448818897637
 31
0
  0
LINE
  5
15B
330
1A
100
AcDbEntity
  8
BLACK
  6
CONTINUOUS
100
AcDbLine
 10
5.4724409448818898
 20
-3.8459448818897637
 30
0
 11
5.4720642913385822
 21
-3.8458699606299214
 31
0
  0
LINE
  5
15C
330
1A
100
AcDbEntity
  8
BLACK
  6
CONTINUOUS
100
AcDbLine
 10
5.4720642913385822
 20
-3.8458699606299214
 30
0
 11
5.4715316141732284
 21
-3.8453372834645667
 31
0
  0
LINE
  5
15D
330
1A
100
AcDbEntity
  8
BLACK
  6
CONTINUOUS
100
AcDbLine
 10
5.4715316141732284
 20
-3.8453372834645667
 30
0
 11
5.4714566929133861
 21
-3.84496062992126
 31
0
  0
LINE
  5
15E
330
1A
100
AcDbEntity
  8
BLACK
  6
CONTINUOUS
100
AcDbLine
 10
5.4714566929133861
 20
-3.84496062992126
 30
0
 11
5.4714566929133861
 21
-3.7701574803149605
 31
0
  0
LINE
  5
15F
330
1A
100
AcDbEntity
  8
BLACK
  6
CONTINUOUS
100
AcDbLine
 10
5.4714566929133861
 20
-3.7701574803149605
 30
0
 11
5.4715316141732284
 21
-3.7697808267716533
 31
0
  0
LINE
  5
160
330
1A
100
AcDbEntity
  8
BLACK
  6
CONTINUOUS
100
AcDbLine
 10
5.4715316141732284
 20
-3.7697808267716533
 30
0
 11
5.4720642913385822
 21
-3.7692481496062991
 31
0
  0
LINE
  5
161
330
1A
100
AcDbEntity
  8
BLACK
  6
CONTINUOUS
100
AcDbLine
 10
5.4720642913385822
 20
-3.7692481496062991
 30
0
 11
5.4724409448818898
 21
-3.7691732283464567
 31
0
  0
LINE
  5
162
330
1A
100
AcDbEntity
  8
BLACK
  6
CONTINUOUS
100
AcDbLine
 10
5.4724409448818898
 20
-3.7691732283464567
 30
0
 11
5.515748031496063
 21
-3.7691732283464567
 31
0
  0
LINE
  5
163
330
1A
100
AcDbEntity
  8
BLACK
  6
CONTINUOUS
100
AcDbLine
 10
5.515748031496063
 20
-3.7691732283464567
 30
0
 11
5.5161246850393697
 21
-3.7692481496062991
 31
0
  0
LINE
  5
164
330
1A
100
AcDbEntity
  8
BLACK
  6
CONTINUOUS
100
AcDbLine
 10
5.4734251968503935
 20
-3.7711417322834646
 30
0
 11
5.4734251968503935
 21
-3.8439763779527558
 31
0
  0
LINE
  5
165
330
1A
100
AcDbEntity
  8
BLACK
  6
CONTINUOUS
100
AcDbLine
 10
5.4734251968503935
 20
-3.8439763779527558
 30
0
 11
5.5147637795275593
 21
-3.8439763779527558
 31
0
  0
LINE
  5
166
330
1A
100
AcDbEntity
  8
BLACK
  6
CONTINUOUS
100
AcDbLine
 10
5.5147637795275593
 20
-3.8439763779527558
 30
0
 11
5.5147637795275593
 21
-3.7711417322834646
 31
0
  0
LINE
  5
167
330
1A
100
AcDbEntity
  8
BLACK
  6
CONTINUOUS
100
AcDbLine
 10
5.5147637795275593
 20
-3.7711417322834646
 30
0
 11
5.4734251968503935
 21
-3.7711417322834646
 31
0
  0
ENDSEC
  0
SECTION
  2
OBJECTS
  0
DICTIONARY
  5
20
330
0
100
AcDbDictionary
281
1
  3
ACAD_GROUP
350
168
  3
ACAD_LAYOUT
350
21
  3
ACAD_PLOTSTYLENAME
350
11
  0
DICTIONARY
  5
168
330
20
100
AcDbDictionary
281
1
  0
ACDBDICTIONARYWDFLT
  5
11
330
20
100
AcDbDictionary
281
1
  3
Normal
350
10
100
AcDbDictionaryWithDefault
340
10
  0
ACDBPLACEHOLDER
  5
10
330
11
  0
DICTIONARY
  5
21
330
20
100
AcDbDictionary
281
1
  3
Model
350
1D
  3
Layout1
350
1E
  3
Layout2
350
1F
  0
LAYOUT
  5
1D
330
21
100
AcDbPlotSettings
  1

  2
none_device
  4
A3
  6

 40
0.0
 41
0.0
 42
0.0
 43
0.0
 44
420.0
 45
297.0
 46
0.0
 47
0.0
 48
0.0
 49
0.0
140
0.0
141
0.0
142
1.0
143
1.0
 70
1024
 72
1
 73
0
 74
5
  7

 75
16
 76
0
 77
2
 78
300
147
1.0
148
0.0
149
0.0
100
AcDbLayout
  1
Model
 70
1
 71
0
 10
0.0
 20
0.0
 11
420.0
 21
297.0
 12
0.0
 22
0.0
 32
0.0
 14
1e+20
 24
1e+20
 34
1e+20
 15
-1e+20
 25
-1e+20
 35
-1e+20
146
0.0
 13
0.0
 23
0.0
 33
0.0
 16
1.0
 26
0.0
 36
0.0
 17
0.0
 27
1.0
 37
0.0
 76
0
330
1A
  0
LAYOUT
  5
1E
330
21
100
AcDbPlotSettings
  1

  2
none_device
  4
A3
  6

 40
0.0
 41
0.0
 42
0.0
 43
0.0
 44
420.0
 45
297.0
 46
0.0
 47
0.0
 48
0.0
 49
0.0
140
0.0
141
0.0
142
1.0
143
1.0
 70
0
 72
1
 73
0
 74
5
  7

 75
16
 76
0
 77
2
 78
300
147
1.0
148
0.0
149
0.0
100
AcDbLayout
  1
Layout1
 70
1
 71
1
 10
0.0
 20
0.0
 11
420.0
 21
297.0
 12
0.0
 22
0.0
 32
0.0
 14
1e+20
 24
1e+20
 34
1e+20
 15
-1e+20
 25
-1e+20
 35
-1e+20
146
0.0
 13
0.0
 23
0.0
 33
0.0
 16
1.0
 26
0.0
 36
0.0
 17
0.0
 27
1.0
 37
0.0
 76
0
330
1B
  0
LAYOUT
  5
1F
330
21
100
AcDbPlotSettings
  1

  2
none_device
  4
A3
  6

 40
0.0
 41
0.0
 42
0.0
 43
0.0
 44
420.0
 45
297.0
 46
0.0
 47
0.0
 48
0.0
 49
0.0
140
0.0
141
0.0
142
1.0
143
1.0
 70
0
 72
1
 73
0
 74
5
  7

 75
16
 76
0
 77
2
 78
300
147
1.0
148
0.0
149
0.0
100
AcDbLayout
  1
Layout2
 70
1
 71
2
 10
0.0
 20
0.0
 11
420.0
 21
297.0
 12
0.0
 22
0.0
 32
0.0
 14
1e+20
 24
1e+20
 34
1e+20
 15
-1e+20
 25
-1e+20
 35
-1e+20
146
0.0
 13
0.0
 23
0.0
 33
0.0
 16
1.0
 26
0.0
 36
0.0
 17
0.0
 27
1.0
 37
0.0
 76
0
330
1C
  0
ENDSEC
  0
EOF
