  0
SECTION
  2
HEADER
  9
$ACADVER
  1
AC1018
  9
$HANDSEED
  5
FFFFFFFF
  9
$ANGBASE
  50
0.0
  9
$ANGDIR
  70
1
  9
$MEASUREMENT
  70
0
  9
$INSUNITS
  70
1
  0
ENDSEC
  0
SECTION
  2
TABLES
  0
TABLE
  2
APPID
  5
1
330
0
100
AcDbSymbolTable
 70
1
  0
APPID
  5
2
330
1
100
AcDbSymbolTableRecord
100
AcDbRegAppTableRecord
  2
ACAD
 70
0
  0
ENDTAB
  0
TABLE
  2
LTYPE
  5
3
330
0
100
AcDbSymbolTable
 70
6
  0
LTYPE
  5
4
330
3
100
AcDbSymbolTableRecord
100
AcDbLinetypeTableRecord
  2
ByBlock
 70
0
  3

 72
65
 73
0
 40
0
  0
LTYPE
  5
5
330
3
100
AcDbSymbolTableRecord
100
AcDbLinetypeTableRecord
  2
ByLayer
 70
0
  3

 72
65
 73
0
 40
0
  0
LTYPE
  5
6
330
3
100
AcDbSymbolTableRecord
100
AcDbLinetypeTableRecord
  2
CONTINUOUS
 70
0
  3
Solid line
 72
65
 73
0
 40
0
  0
LTYPE
  5
7
330
3
100
AcDbSymbolTableRecord
100
AcDbLinetypeTableRecord
  2
DASHDOT
 70
0
  3
Dash Dot ____ _ ____ _
 72
65
 73
4
 40
2
 49
1.25
 74
0
 49
-0.25
 74
0
 49
0.25
 74
0
 49
-0.25
 74
0
  0
LTYPE
  5
8
330
3
100
AcDbSymbolTableRecord
100
AcDbLinetypeTableRecord
  2
DASHED
 70
0
  3
Dashed __ __ __ __ __
 72
65
 73
2
 40
0.75
 49
0.5
 74
0
 49
-0.25
 74
0
  0
LTYPE
  5
9
330
3
100
AcDbSymbolTableRecord
100
AcDbLinetypeTableRecord
  2
DOTTED
 70
0
  3
Dotted .  .  .  .
 72
65
 73
2
 40
0.2
 49
0.0
 74
0
 49
-0.2
 74
0
  0
ENDTAB
  0
TABLE
  2
STYLE
  5
A
330
0
100
AcDbSymbolTable
 70
4
  0
STYLE
  5
B
330
A
100
AcDbSymbolTableRecord
100
AcDbTextStyleTableRecord
  2
KICAD
 70
0
 40
0
 41
1
 42
1
 50
0
 71
0
  3
isocp.shx
  0
STYLE
  5
C
330
A
100
AcDbSymbolTableRecord
100
AcDbTextStyleTableRecord
  2
KICADB
 70
0
 40
0
 41
1
 42
1
 50
0
 71
0
  3
isocp.shx
  0
STYLE
  5
D
330
A
100
AcDbSymbolTableRecord
100
AcDbTextStyleTableRecord
  2
KICADI
 70
0
 40
0
 41
1
 42
1
 50
15
 71
0
  3
isocp.shx
  0
STYLE
  5
E
330
A
100
AcDbSymbolTableRecord
100
AcDbTextStyleTableRecord
  2
KICADBI
 70
0
 40
0
 41
1
 42
1
 50
15
 71
0
  3
isocp.shx
  0
ENDTAB
  0
TABLE
  2
LAYER
  5
F
330
0
100
AcDbSymbolTable
 70
2
  0
LAYER
  5
12
330
F
100
AcDbSymbolTableRecord
100
AcDbLayerTableRecord
  2
0
 70
0
 62
7
  6
CONTINUOUS
390
10
  0
LAYER
  5
13
330
F
100
AcDbSymbolTableRecord
100
AcDbLayerTableRecord
  2
BLACK
 70
0
 62
250
  6
CONTINUOUS
390
10
  0
ENDTAB
  0
TABLE
  2
VPORT
  5
14
330
0
100
AcDbSymbolTable
 70
0
  0
ENDTAB
  0
TABLE
  2
VIEW
  5
15
330
0
100
AcDbSymbolTable
 70
0
  0
ENDTAB
  0
TABLE
  2
UCS
  5
16
330
0
100
AcDbSymbolTable
 70
0
  0
ENDTAB
  0
TABLE
  2
DIMSTYLE
  5
17
330
0
100
AcDbSymbolTable
 70
1
100
AcDbDimStyleTable
 71
0
  0
DIMSTYLE
105
18
330
17
100
AcDbSymbolTableRecord
100
AcDbDimStyleTableRecord
  2
Standard
 70
0
  0
ENDTAB
  0
TABLE
  2
BLOCK_RECORD
  5
19
330
0
100
AcDbSymbolTable
 70
3
  0
BLOCK_RECORD
  5
1A
330
19
100
AcDbSymbolTableRecord
100
AcDbBlockTableRecord
  2
*Model_Space
340
1D
 70
0
280
1
281
0
  0
BLOCK_RECORD
  5
1B
330
19
100
AcDbSymbolTableRecord
100
AcDbBlockTableRecord
  2
*Paper_Space
340
1E
 70
0
280
1
281
0
  0
BLOCK_RECORD
  5
1C
330
19
100
AcDbSymbolTableRecord
100
AcDbBlockTableRecord
  2
*Paper_Space0
340
1F
 70
0
280
1
281
0
  0
ENDTAB
  0
ENDSEC
  0
SECTION
  2
BLOCKS
  0
BLOCK
  5
23
330
1A
100
AcDbEntity
  8
0
100
AcDbBlockBegin
  2
*Model_Space
 70
0
 10
0.0
 20
0.0
 30
0.0
  3
*Model_Space
  1

  0
ENDBLK
  5
22
330
1A
100
AcDbEntity
  8
0
100
AcDbBlockEnd
  0
BLOCK
  5
25
330
1B
100
AcDbEntity
 67
1
  8
0
100
AcDbBlockBegin
  2
*Paper_Space
 70
0
 10
0.0
 20
0.0
 30
0.0
  3
*Paper_Space
  1

  0
ENDBLK
  5
24
330
1B
100
AcDbEntity
 67
1
  8
0
100
AcDbBlockEnd
  0
BLOCK
  5
27
330
1C
100
AcDbEntity
 67
1
  8
0
100
AcDbBlockBegin
  2
*Paper_Space0
 70
0
 10
0.0
 20
0.0
 30
0.0
  3
*Paper_Space0
  1

  0
ENDBLK
  5
26
330
1C
100
AcDbEntity
 67
1
  8
0
100
AcDbBlockEnd
  0
ENDSEC
  0
SECTION
  2
ENTITIES
  0
LINE
  5
28
330
1A
100
AcDbEntity
  8
BLACK
  6
CONTINUOUS
100
AcDbLine
 10
5.0023622047244096
 20
-4.3956692913385824
 30
0
 11
4.9937007874015746
 21
-4.3956692913385824
 31
0
  0
LINE
  5
29
330
1A
100
AcDbEntity
  8
BLACK
  6
CONTINUOUS
100
AcDbLine
 10
4.9937007874015746
 20
-4.3956692913385824
 30
0
 11
4.9937007874015746
 21
-4.3775590551181098
 31
0
  0
LINE
  5
2A
330
1A
100
AcDbEntity
  8
BLACK
  6
CONTINUOUS
100
AcDbLine
 10
4.9937007874015746
 20
-4.3775590551181098
 30
0
 11
5.0023622047244096
 21
-4.3775590551181098
 31
0
  0
LINE
  5
2B
330
1A
100
AcDbEntity
  8
BLACK
  6
CONTINUOUS
100
AcDbLine
 10
5.0023622047244096
 20
-4.3775590551181098
 30
0
 11
5.0023622047244096
 21
-4.3956692913385824
 31
0
  0
LINE
  5
2C
330
1A
100
AcDbEntity
  8
BLACK
  6
CONTINUOUS
100
AcDbLine
 10
5.0220472440944883
 20
-4.3956692913385824
 30
0
 11
5.0133858267716533
 21
-4.3956692913385824
 31
0
  0
LINE
  5
2D
330
1A
100
AcDbEntity
  8
BLACK
  6
CONTINUOUS
100
AcDbLine
 10
5.0133858267716533
 20
-4.3956692913385824
 30
0
 11
5.0133858267716533
 21
-4.3775590551181098
 31
0
  0
LINE
  5
2E
330
1A
100
AcDbEntity
  8
BLACK
  6
CONTINUOUS
100
AcDbLine
 10
5.0133858267716533
 20
-4.3775590551181098
 30
0
 11
5.0220472440944883
 21
-4.3775590551181098
 31
0
  0
LINE
  5
2F
330
1A
100
AcDbEntity
  8
BLACK
  6
CONTINUOUS
100
AcDbLine
 10
5.0220472440944883
 20
-4.3775590551181098
 30
0
 11
5.0220472440944883
 21
-4.3956692913385824
 31
0
  0
LINE
  5
30
330
1A
100
AcDbEntity
  8
BLACK
  6
CONTINUOUS
100
AcDbLine
 10
5.041732283464567
 20
-4.3956692913385824
 30
0
 11
5.033070866141732
 21
-4.3956692913385824
 31
0
  0
LINE
  5
31
330
1A
100
AcDbEntity
  8
BLACK
  6
CONTINUOUS
100
AcDbLine
 10
5.033070866141732
 20
-4.3956692913385824
 30
0
 11
5.033070866141732
 21
-4.3775590551181098
 31
0
  0
LINE
  5
32
330
1A
100
AcDbEntity
  8
BLACK
  6
CONTINUOUS
100
AcDbLine
 10
5.033070866141732
 20
-4.3775590551181098
 30
0
 11
5.041732283464567
 21
-4.3775590551181098
 31
0
  0
LINE
  5
33
330
1A
100
AcDbEntity
  8
BLACK
  6
CONTINUOUS
100
AcDbLine
 10
5.041732283464567
 20
-4.3775590551181098
 30
0
 11
5.041732283464567
 21
-4.3956692913385824
 31
0
  0
LINE
  5
34
330
1A
100
AcDbEntity
  8
BLACK
  6
CONTINUOUS
100
AcDbLine
 10
5.1874015748031495
 20
-4.3956692913385824
 30
0
 11
5.1787401574803145
 21
-4.3956692913385824
 31
0
  0
LINE
  5
35
330
1A
100
AcDbEntity
  8
BLACK
  6
CONTINUOUS
100
AcDbLine
 10
5.1787401574803145
 20
-4.3956692913385824
 30
0
 11
5.1787401574803145
 21
-4.3775590551181098
 31
0
  0
LINE
  5
36
330
1A
100
AcDbEntity
  8
BLACK
  6
CONTINUOUS
100
AcDbLine
 10
5.1787401574803145
 20
-4.3775590551181098
 30
0
 11
5.1874015748031495
 21
-4.3775590551181098
 31
0
  0
LINE
  5
37
330
1A
100
AcDbEntity
  8
BLACK
  6
CONTINUOUS
100
AcDbLine
 10
5.1874015748031495
 20
-4.3775590551181098
 30
0
 11
5.1874015748031495
 21
-4.3956692913385824
 31
0
  0
LINE
  5
38
330
1A
100
AcDbEntity
  8
BLACK
  6
CONTINUOUS
100
AcDbLine
 10
5.2070866141732282
 20
-4.3956692913385824
 30
0
 11
5.1984251968503932
 21
-4.3956692913385824
 31
0
  0
LINE
  5
39
330
1A
100
AcDbEntity
  8
BLACK
  6
CONTINUOUS
100
AcDbLine
 10
5.1984251968503932
 20
-4.3956692913385824
 30
0
 11
5.1984251968503932
 21
-4.3775590551181098
 31
0
  0
LINE
  5
3A
330
1A
100
AcDbEntity
  8
BLACK
  6
CONTINUOUS
100
AcDbLine
 10
5.1984251968503932
 20
-4.3775590551181098
 30
0
 11
5.2070866141732282
 21
-4.3775590551181098
 31
0
  0
LINE
  5
3B
330
1A
100
AcDbEntity
  8
BLACK
  6
CONTINUOUS
100
AcDbLine
 10
5.2070866141732282
 20
-4.3775590551181098
 30
0
 11
5.2070866141732282
 21
-4.3956692913385824
 31
0
  0
LINE
  5
3C
330
1A
100
AcDbEntity
  8
BLACK
  6
CONTINUOUS
100
AcDbLine
 10
5.2267716535433069
 20
-4.3956692913385824
 30
0
 11
5.2181102362204728
 21
-4.3956692913385824
 31
0
  0
LINE
  5
3D
330
1A
100
AcDbEntity
  8
BLACK
  6
CONTINUOUS
100
AcDbLine
 10
5.2181102362204728
 20
-4.3956692913385824
 30
0
 11
5.2181102362204728
 21
-4.3775590551181098
 31
0
  0
LINE
  5
3E
330
1A
100
AcDbEntity
  8
BLACK
  6
CONTINUOUS
100
AcDbLine
 10
5.2181102362204728
 20
-4.3775590551181098
 30
0
 11
5.2267716535433069
 21
-4.3775590551181098
 31
0
  0
LINE
  5
3F
330
1A
100
AcDbEntity
  8
BLACK
  6
CONTINUOUS
100
AcDbLine
 10
5.2267716535433069
 20
-4.3775590551181098
 30
0
 11
5.2267716535433069
 21
-4.3956692913385824
 31
0
  0
LINE
  5
40
330
1A
100
AcDbEntity
  8
BLACK
  6
CONTINUOUS
100
AcDbLine
 10
5.3724409448818893
 20
-4.3956692913385824
 30
0
 11
5.3637795275590552
 21
-4.3956692913385824
 31
0
  0
LINE
  5
41
330
1A
100
AcDbEntity
  8
BLACK
  6
CONTINUOUS
100
AcDbLine
 10
5.3637795275590552
 20
-4.3956692913385824
 30
0
 11
5.3637795275590552
 21
-4.3775590551181098
 31
0
  0
LINE
  5
42
330
1A
100
AcDbEntity
  8
BLACK
  6
CONTINUOUS
100
AcDbLine
 10
5.3637795275590552
 20
-4.3775590551181098
 30
0
 11
5.3724409448818893
 21
-4.3775590551181098
 31
0
  0
LINE
  5
43
330
1A
100
AcDbEntity
  8
BLACK
  6
CONTINUOUS
100
AcDbLine
 10
5.3724409448818893
 20
-4.3775590551181098
 30
0
 11
5.3724409448818893
 21
-4.3956692913385824
 31
0
  0
LINE
  5
44
330
1A
100
AcDbEntity
  8
BLACK
  6
CONTINUOUS
100
AcDbLine
 10
5.392125984251968
 20
-4.3956692913385824
 30
0
 11
5.3834645669291339
 21
-4.3956692913385824
 31
0
  0
LINE
  5
45
330
1A
100
AcDbEntity
  8
BLACK
  6
CONTINUOUS
100
AcDbLine
 10
5.3834645669291339
 20
-4.3956692913385824
 30
0
 11
5.3834645669291339
 21
-4.3775590551181098
 31
0
  0
LINE
  5
46
330
1A
100
AcDbEntity
  8
BLACK
  6
CONTINUOUS
100
AcDbLine
 10
5.3834645669291339
 20
-4.3775590551181098
 30
0
 11
5.392125984251968
 21
-4.3775590551181098
 31
0
  0
LINE
  5
47
330
1A
100
AcDbEntity
  8
BLACK
  6
CONTINUOUS
100
AcDbLine
 10
5.392125984251968
 20
-4.3775590551181098
 30
0
 11
5.392125984251968
 21
-4.3956692913385824
 31
0
  0
LINE
  5
48
330
1A
100
AcDbEntity
  8
BLACK
  6
CONTINUOUS
100
AcDbLine
 10
5.4118110236220467
 20
-4.3956692913385824
 30
0
 11
5.4031496062992126
 21
-4.3956692913385824
 31
0
  0
LINE
  5
49
330
1A
100
AcDbEntity
  8
BLACK
  6
CONTINUOUS
100
AcDbLine
 10
5.4031496062992126
 20
-4.3956692913385824
 30
0
 11
5.4031496062992126
 21
-4.3775590551181098
 31
0
  0
LINE
  5
4A
330
1A
100
AcDbEntity
  8
BLACK
  6
CONTINUOUS
100
AcDbLine
 10
5.4031496062992126
 20
-4.3775590551181098
 30
0
 11
5.4118110236220467
 21
-4.3775590551181098
 31
0
  0
LINE
  5
4B
330
1A
100
AcDbEntity
  8
BLACK
  6
CONTINUOUS
100
AcDbLine
 10
5.4118110236220467
 20
-4.3775590551181098
 30
0
 11
5.4118110236220467
 21
-4.3956692913385824
 31
0
  0
LINE
  5
4C
330
1A
100
AcDbEntity
  8
BLACK
  6
CONTINUOUS
100
AcDbLine
 10
5.55748031496063
 20
-4.3956692913385824
 30
0
 11
5.548818897637795
 21
-4.3956692913385824
 31
0
  0
LINE
  5
4D
330
1A
100
AcDbEntity
  8
BLACK
  6
CONTINUOUS
100
AcDbLine
 10
5.548818897637795
 20
-4.3956692913385824
 30
0
 11
5.548818897637795
 21
-4.3775590551181098
 31
0
  0
LINE
  5
4E
330
1A
100
AcDbEntity
  8
BLACK
  6
CONTINUOUS
100
AcDbLine
 10
5.548818897637795
 20
-4.3775590551181098
 30
0
 11
5.55748031496063
 21
-4.3775590551181098
 31
0
  0
LINE
  5
4F
330
1A
100
AcDbEntity
  8
BLACK
  6
CONTINUOUS
100
AcDbLine
 10
5.55748031496063
 20
-4.3775590551181098
 30
0
 11
5.55748031496063
 21
-4.3956692913385824
 31
0
  0
LINE
  5
50
330
1A
100
AcDbEntity
  8
BLACK
  6
CONTINUOUS
100
AcDbLine
 10
5.5771653543307087
 20
-4.3956692913385824
 30
0
 11
5.5685039370078737
 21
-4.3956692913385824
 31
0
  0
LINE
  5
51
330
1A
100
AcDbEntity
  8
BLACK
  6
CONTINUOUS
100
AcDbLine
 10
5.5685039370078737
 20
-4.3956692913385824
 30
0
 11
5.5685039370078737
 21
-4.3775590551181098
 31
0
  0
LINE
  5
52
330
1A
100
AcDbEntity
  8
BLACK
  6
CONTINUOUS
100
AcDbLine
 10
5.5685039370078737
 20
-4.3775590551181098
 30
0
 11
5.5771653543307087
 21
-4.3775590551181098
 31
0
  0
LINE
  5
53
330
1A
100
AcDbEntity
  8
BLACK
  6
CONTINUOUS
100
AcDbLine
 10
5.5771653543307087
 20
-4.3775590551181098
 30
0
 11
5.5771653543307087
 21
-4.3956692913385824
 31
0
  0
LINE
  5
54
330
1A
100
AcDbEntity
  8
BLACK
  6
CONTINUOUS
100
AcDbLine
 10
5.5968503937007874
 20
-4.3956692913385824
 30
0
 11
5.5881889763779524
 21
-4.3956692913385824
 31
0
  0
LINE
  5
55
330
1A
100
AcDbEntity
  8
BLACK
  6
CONTINUOUS
100
AcDbLine
 10
5.5881889763779524
 20
-4.3956692913385824
 30
0
 11
5.5881889763779524
 21
-4.3775590551181098
 31
0
  0
LINE
  5
56
330
1A
100
AcDbEntity
  8
BLACK
  6
CONTINUOUS
100
AcDbLine
 10
5.5881889763779524
 20
-4.3775590551181098
 30
0
 11
5.5968503937007874
 21
-4.3775590551181098
 31
0
  0
LINE
  5
57
330
1A
100
AcDbEntity
  8
BLACK
  6
CONTINUOUS
100
AcDbLine
 10
5.5968503937007874
 20
-4.3775590551181098
 30
0
 11
5.5968503937007874
 21
-4.3956692913385824
 31
0
  0
LINE
  5
58
330
1A
100
AcDbEntity
  8
BLACK
  6
CONTINUOUS
100
AcDbLine
 10
5.0138548425196845
 20
-4.3439126377952757
 30
0
 11
5.0139613779527554
 21
-4.3440191732283466
 31
0
  0
LINE
  5
59
330
1A
100
AcDbEntity
  8
BLACK
  6
CONTINUOUS
100
AcDbLine
 10
5.0139613779527554
 20
-4.3440191732283466
 30
0
 11
5.0139763779527557
 21
-4.3440944881889765
 31
0
  0
LINE
  5
5A
330
1A
100
AcDbEntity
  8
BLACK
  6
CONTINUOUS
100
AcDbLine
 10
5.0139763779527557
 20
-4.3440944881889765
 30
0
 11
5.0139763779527557
 21
-4.3685039370078735
 31
0
  0
LINE
  5
5B
330
1A
100
AcDbEntity
  8
BLACK
  6
CONTINUOUS
100
AcDbLine
 10
5.0139763779527557
 20
-4.3685039370078735
 30
0
 11
5.0139613779527554
 21
-4.3685792519685043
 31
0
  0
LINE
  5
5C
330
1A
100
AcDbEntity
  8
BLACK
  6
CONTINUOUS
100
AcDbLine
 10
5.0139613779527554
 20
-4.3685792519685043
 30
0
 11
5.0138548425196845
 21
-4.3686857874015743
 31
0
  0
LINE
  5
5D
330
1A
100
AcDbEntity
  8
BLACK
  6
CONTINUOUS
100
AcDbLine
 10
5.0138548425196845
 20
-4.3686857874015743
 30
0
 11
5.0137795275590546
 21
-4.3687007874015746
 31
0
  0
LINE
  5
5E
330
1A
100
AcDbEntity
  8
BLACK
  6
CONTINUOUS
100
AcDbLine
 10
5.0137795275590546
 20
-4.3687007874015746
 30
0
 11
4.9996062992125987
 21
-4.3687007874015746
 31
0
  0
LINE
  5
5F
330
1A
100
AcDbEntity
  8
BLACK
  6
CONTINUOUS
100
AcDbLine
 10
4.9996062992125987
 20
-4.3687007874015746
 30
0
 11
4.999530984251968
 21
-4.3686857874015743
 31
0
  0
LINE
  5
60
330
1A
100
AcDbEntity
  8
BLACK
  6
CONTINUOUS
100
AcDbLine
 10
4.999530984251968
 20
-4.3686857874015743
 30
0
 11
4.9994244488188979
 21
-4.3685792519685043
 31
0
  0
LINE
  5
61
330
1A
100
AcDbEntity
  8
BLACK
  6
CONTINUOUS
100
AcDbLine
 10
4.9994244488188979
 20
-4.3685792519685043
 30
0
 11
4.9994094488188976
 21
-4.3685039370078735
 31
0
  0
LINE
  5
62
330
1A
100
AcDbEntity
  8
BLACK
  6
CONTINUOUS
100
AcDbLine
 10
4.9994094488188976
 20
-4.3685039370078735
 30
0
 11
4.9994094488188976
 21
-4.3440944881889765
 31
0
  0
LINE
  5
63
330
1A
100
AcDbEntity
  8
BLACK
  6
CONTINUOUS
100
AcDbLine
 10
4.9994094488188976
 20
-4.3440944881889765
 30
0
 11
4.9994244488188979
 21
-4.3440191732283466
 31
0
  0
LINE
  5
64
330
1A
100
AcDbEntity
  8
BLACK
  6
CONTINUOUS
100
AcDbLine
 10
4.9994244488188979
 20
-4.3440191732283466
 30
0
 11
4.999530984251968
 21
-4.3439126377952757
 31
0
  0
LINE
  5
65
330
1A
100
AcDbEntity
  8
BLACK
  6
CONTINUOUS
100
AcDbLine
 10
4.999530984251968
 20
-4.3439126377952757
 30
0
 11
4.9996062992125987
 21
-4.3438976377952754
 31
0
  0
LINE
  5
66
330
1A
100
AcDbEntity
  8
BLACK
  6
CONTINUOUS
100
AcDbLine
 10
4.9996062992125987
 20
-4.3438976377952754
 30
0
 11
5.0137795275590546
 21
-4.3438976377952754
 31
0
  0
LINE
  5
67
330
1A
100
AcDbEntity
  8
BLACK
  6
CONTINUOUS
100
AcDbLine
 10
5.0137795275590546
 20
-4.3438976377952754
 30
0
 11
5.0138548425196845
 21
-4.3439126377952757
 31
0
  0
LINE
  5
68
330
1A
100
AcDbEntity
  8
BLACK
  6
CONTINUOUS
100
AcDbLine
 10
5.0359020866141728
 20
-4.3439126377952757
 30
0
 11
5.0360086220472438
 21
-4.3440191732283466
 31
0
  0
LINE
  5
69
330
1A
100
AcDbEntity
  8
BLACK
  6
CONTINUOUS
100
AcDbLine
 10
5.0360086220472438
 20
-4.3440191732283466
 30
0
 11
5.0360236220472441
 21
-4.3440944881889765
 31
0
  0
LINE
  5
6A
330
1A
100
AcDbEntity
  8
BLACK
  6
CONTINUOUS
100
AcDbLine
 10
5.0360236220472441
 20
-4.3440944881889765
 30
0
 11
5.0360236220472441
 21
-4.3685039370078735
 31
0
  0
LINE
  5
6B
330
1A
100
AcDbEntity
  8
BLACK
  6
CONTINUOUS
100
AcDbLine
 10
5.0360236220472441
 20
-4.3685039370078735
 30
0
 11
5.0360086220472438
 21
-4.3685792519685043
 31
0
  0
LINE
  5
6C
330
1A
100
AcDbEntity
  8
BLACK
  6
CONTINUOUS
100
AcDbLine
 10
5.0360086220472438
 20
-4.3685792519685043
 30
0
 11
5.0359020866141728
 21
-4.3686857874015743
 31
0
  0
LINE
  5
6D
330
1A
100
AcDbEntity
  8
BLACK
  6
CONTINUOUS
100
AcDbLine
 10
5.0359020866141728
 20
-4.3686857874015743
 30
0
 11
5.035826771653543
 21
-4.3687007874015746
 31
0
  0
LINE
  5
6E
330
1A
100
AcDbEntity
  8
BLACK
  6
CONTINUOUS
100
AcDbLine
 10
5.035826771653543
 20
-4.3687007874015746
 30
0
 11
5.0216535433070861
 21
-4.3687007874015746
 31
0
  0
LINE
  5
6F
330
1A
100
AcDbEntity
  8
BLACK
  6
CONTINUOUS
100
AcDbLine
 10
5.0216535433070861
 20
-4.3687007874015746
 30
0
 11
5.0215782283464563
 21
-4.3686857874015743
 31
0
  0
LINE
  5
70
330
1A
100
AcDbEntity
  8
BLACK
  6
CONTINUOUS
100
AcDbLine
 10
5.0215782283464563
 20
-4.3686857874015743
 30
0
 11
5.0214716929133854
 21
-4.3685792519685043
 31
0
  0
LINE
  5
71
330
1A
100
AcDbEntity
  8
BLACK
  6
CONTINUOUS
100
AcDbLine
 10
5.0214716929133854
 20
-4.3685792519685043
 30
0
 11
5.0214566929133859
 21
-4.3685039370078735
 31
0
  0
LINE
  5
72
330
1A
100
AcDbEntity
  8
BLACK
  6
CONTINUOUS
100
AcDbLine
 10
5.0214566929133859
 20
-4.3685039370078735
 30
0
 11
5.0214566929133859
 21
-4.3440944881889765
 31
0
  0
LINE
  5
73
330
1A
100
AcDbEntity
  8
BLACK
  6
CONTINUOUS
100
AcDbLine
 10
5.0214566929133859
 20
-4.3440944881889765
 30
0
 11
5.0214716929133854
 21
-4.3440191732283466
 31
0
  0
LINE
  5
74
330
1A
100
AcDbEntity
  8
BLACK
  6
CONTINUOUS
100
AcDbLine
 10
5.0214716929133854
 20
-4.3440191732283466
 30
0
 11
5.0215782283464563
 21
-4.3439126377952757
 31
0
  0
LINE
  5
75
330
1A
100
AcDbEntity
  8
BLACK
  6
CONTINUOUS
100
AcDbLine
 10
5.0215782283464563
 20
-4.3439126377952757
 30
0
 11
5.0216535433070861
 21
-4.3438976377952754
 31
0
  0
LINE
  5
76
330
1A
100
AcDbEntity
  8
BLACK
  6
CONTINUOUS
100
AcDbLine
 10
5.0216535433070861
 20
-4.3438976377952754
 30
0
 11
5.035826771653543
 21
-4.3438976377952754
 31
0
  0
LINE
  5
77
330
1A
100
AcDbEntity
  8
BLACK
  6
CONTINUOUS
100
AcDbLine
 10
5.035826771653543
 20
-4.3438976377952754
 30
0
 11
5.0359020866141728
 21
-4.3439126377952757
 31
0
  0
LINE
  5
78
330
1A
100
AcDbEntity
  8
BLACK
  6
CONTINUOUS
100
AcDbLine
 10
5.1988942125984252
 20
-4.3439126377952757
 30
0
 11
5.1990007480314961
 21
-4.3440191732283466
 31
0
  0
LINE
  5
79
330
1A
100
AcDbEntity
  8
BLACK
  6
CONTINUOUS
100
AcDbLine
 10
5.1990007480314961
 20
-4.3440191732283466
 30
0
 11
5.1990157480314956
 21
-4.3440944881889765
 31
0
  0
LINE
  5
7A
330
1A
100
AcDbEntity
  8
BLACK
  6
CONTINUOUS
100
AcDbLine
 10
5.1990157480314956
 20
-4.3440944881889765
 30
0
 11
5.1990157480314956
 21
-4.3685039370078735
 31
0
  0
LINE
  5
7B
330
1A
100
AcDbEntity
  8
BLACK
  6
CONTINUOUS
100
AcDbLine
 10
5.1990157480314956
 20
-4.3685039370078735
 30
0
 11
5.1990007480314961
 21
-4.3685792519685043
 31
0
  0
LINE
  5
7C
330
1A
100
AcDbEntity
  8
BLACK
  6
CONTINUOUS
100
AcDbLine
 10
5.1990007480314961
 20
-4.3685792519685043
 30
0
 11
5.1988942125984252
 21
-4.3686857874015743
 31
0
  0
LINE
  5
7D
330
1A
100
AcDbEntity
  8
BLACK
  6
CONTINUOUS
100
AcDbLine
 10
5.1988942125984252
 20
-4.3686857874015743
 30
0
 11
5.1988188976377954
 21
-4.3687007874015746
 31
0
  0
LINE
  5
7E
330
1A
100
AcDbEntity
  8
BLACK
  6
CONTINUOUS
100
AcDbLine
 10
5.1988188976377954
 20
-4.3687007874015746
 30
0
 11
5.1846456692913385
 21
-4.3687007874015746
 31
0
  0
LINE
  5
7F
330
1A
100
AcDbEntity
  8
BLACK
  6
CONTINUOUS
100
AcDbLine
 10
5.1846456692913385
 20
-4.3687007874015746
 30
0
 11
5.1845703543307087
 21
-4.3686857874015743
 31
0
  0
LINE
  5
80
330
1A
100
AcDbEntity
  8
BLACK
  6
CONTINUOUS
100
AcDbLine
 10
5.1845703543307087
 20
-4.3686857874015743
 30
0
 11
5.1844638188976377
 21
-4.3685792519685043
 31
0
  0
LINE
  5
81
330
1A
100
AcDbEntity
  8
BLACK
  6
CONTINUOUS
100
AcDbLine
 10
5.1844638188976377
 20
-4.3685792519685043
 30
0
 11
5.1844488188976374
 21
-4.3685039370078735
 31
0
  0
LINE
  5
82
330
1A
100
AcDbEntity
  8
BLACK
  6
CONTINUOUS
100
AcDbLine
 10
5.1844488188976374
 20
-4.3685039370078735
 30
0
 11
5.1844488188976374
 21
-4.3440944881889765
 31
0
  0
LINE
  5
83
330
1A
100
AcDbEntity
  8
BLACK
  6
CONTINUOUS
100
AcDbLine
 10
5.1844488188976374
 20
-4.3440944881889765
 30
0
 11
5.1844638188976377
 21
-4.3440191732283466
 31
0
  0
LINE
  5
84
330
1A
100
AcDbEntity
  8
BLACK
  6
CONTINUOUS
100
AcDbLine
 10
5.1844638188976377
 20
-4.3440191732283466
 30
0
 11
5.1845703543307087
 21
-4.3439126377952757
 31
0
  0
LINE
  5
85
330
1A
100
AcDbEntity
  8
BLACK
  6
CONTINUOUS
100
AcDbLine
 10
5.1845703543307087
 20
-4.3439126377952757
 30
0
 11
5.1846456692913385
 21
-4.3438976377952754
 31
0
  0
LINE
  5
86
330
1A
100
AcDbEntity
  8
BLACK
  6
CONTINUOUS
100
AcDbLine
 10
5.1846456692913385
 20
-4.3438976377952754
 30
0
 11
5.1988188976377954
 21
-4.3438976377952754
 31
0
  0
LINE
  5
87
330
1A
100
AcDbEntity
  8
BLACK
  6
CONTINUOUS
100
AcDbLine
 10
5.1988188976377954
 20
-4.3438976377952754
 30
0
 11
5.1988942125984252
 21
-4.3439126377952757
 31
0
  0
LINE
  5
88
330
1A
100
AcDbEntity
  8
BLACK
  6
CONTINUOUS
100
AcDbLine
 10
5.2209414566929135
 20
-4.3439126377952757
 30
0
 11
5.2210479921259845
 21
-4.3440191732283466
 31
0
  0
LINE
  5
89
330
1A
100
AcDbEntity
  8
BLACK
  6
CONTINUOUS
100
AcDbLine
 10
5.2210479921259845
 20
-4.3440191732283466
 30
0
 11
5.2210629921259839
 21
-4.3440944881889765
 31
0
  0
LINE
  5
8A
330
1A
100
AcDbEntity
  8
BLACK
  6
CONTINUOUS
100
AcDbLine
 10
5.2210629921259839
 20
-4.3440944881889765
 30
0
 11
5.2210629921259839
 21
-4.3685039370078735
 31
0
  0
LINE
  5
8B
330
1A
100
AcDbEntity
  8
BLACK
  6
CONTINUOUS
100
AcDbLine
 10
5.2210629921259839
 20
-4.3685039370078735
 30
0
 11
5.2210479921259845
 21
-4.3685792519685043
 31
0
  0
LINE
  5
8C
330
1A
100
AcDbEntity
  8
BLACK
  6
CONTINUOUS
100
AcDbLine
 10
5.2210479921259845
 20
-4.3685792519685043
 30
0
 11
5.2209414566929135
 21
-4.3686857874015743
 31
0
  0
LINE
  5
8D
330
1A
100
AcDbEntity
  8
BLACK
  6
CONTINUOUS
100
AcDbLine
 10
5.2209414566929135
 20
-4.3686857874015743
 30
0
 11
5.2208661417322837
 21
-4.3687007874015746
 31
0
  0
LINE
  5
8E
330
1A
100
AcDbEntity
  8
BLACK
  6
CONTINUOUS
100
AcDbLine
 10
5.2208661417322837
 20
-4.3687007874015746
 30
0
 11
5.2066929133858268
 21
-4.3687007874015746
 31
0
  0
LINE
  5
8F
330
1A
100
AcDbEntity
  8
BLACK
  6
CONTINUOUS
100
AcDbLine
 10
5.2066929133858268
 20
-4.3687007874015746
 30
0
 11
5.206617598425197
 21
-4.3686857874015743
 31
0
  0
LINE
  5
90
330
1A
100
AcDbEntity
  8
BLACK
  6
CONTINUOUS
100
AcDbLine
 10
5.206617598425197
 20
-4.3686857874015743
 30
0
 11
5.2065110629921261
 21
-4.3685792519685043
 31
0
  0
LINE
  5
91
330
1A
100
AcDbEntity
  8
BLACK
  6
CONTINUOUS
100
AcDbLine
 10
5.2065110629921261
 20
-4.3685792519685043
 30
0
 11
5.2064960629921258
 21
-4.3685039370078735
 31
0
  0
LINE
  5
92
330
1A
100
AcDbEntity
  8
BLACK
  6
CONTINUOUS
100
AcDbLine
 10
5.2064960629921258
 20
-4.3685039370078735
 30
0
 11
5.2064960629921258
 21
-4.3440944881889765
 31
0
  0
LINE
  5
93
330
1A
100
AcDbEntity
  8
BLACK
  6
CONTINUOUS
100
AcDbLine
 10
5.2064960629921258
 20
-4.3440944881889765
 30
0
 11
5.2065110629921261
 21
-4.3440191732283466
 31
0
  0
LINE
  5
94
330
1A
100
AcDbEntity
  8
BLACK
  6
CONTINUOUS
100
AcDbLine
 10
5.2065110629921261
 20
-4.3440191732283466
 30
0
 11
5.206617598425197
 21
-4.3439126377952757
 31
0
  0
LINE
  5
95
330
1A
100
AcDbEntity
  8
BLACK
  6
CONTINUOUS
100
AcDbLine
 10
5.206617598425197
 20
-4.3439126377952757
 30
0
 11
5.2066929133858268
 21
-4.3438976377952754
 31
0
  0
LINE
  5
96
330
1A
100
AcDbEntity
  8
BLACK
  6
CONTINUOUS
100
AcDbLine
 10
5.2066929133858268
 20
-4.3438976377952754
 30
0
 11
5.2208661417322837
 21
-4.3438976377952754
 31
0
  0
LINE
  5
97
330
1A
100
AcDbEntity
  8
BLACK
  6
CONTINUOUS
100
AcDbLine
 10
5.2208661417322837
 20
-4.3438976377952754
 30
0
 11
5.2209414566929135
 21
-4.3439126377952757
 31
0
  0
LINE
  5
98
330
1A
100
AcDbEntity
  8
BLACK
  6
CONTINUOUS
100
AcDbLine
 10
5.383933582677165
 20
-4.3439126377952757
 30
0
 11
5.384040118110236
 21
-4.3440191732283466
 31
0
  0
LINE
  5
99
330
1A
100
AcDbEntity
  8
BLACK
  6
CONTINUOUS
100
AcDbLine
 10
5.384040118110236
 20
-4.3440191732283466
 30
0
 11
5.3840551181102363
 21
-4.3440944881889765
 31
0
  0
LINE
  5
9A
330
1A
100
AcDbEntity
  8
BLACK
  6
CONTINUOUS
100
AcDbLine
 10
5.3840551181102363
 20
-4.3440944881889765
 30
0
 11
5.3840551181102363
 21
-4.3685039370078735
 31
0
  0
LINE
  5
9B
330
1A
100
AcDbEntity
  8
BLACK
  6
CONTINUOUS
100
AcDbLine
 10
5.3840551181102363
 20
-4.3685039370078735
 30
0
 11
5.384040118110236
 21
-4.3685792519685043
 31
0
  0
LINE
  5
9C
330
1A
100
AcDbEntity
  8
BLACK
  6
CONTINUOUS
100
AcDbLine
 10
5.384040118110236
 20
-4.3685792519685043
 30
0
 11
5.383933582677165
 21
-4.3686857874015743
 31
0
  0
LINE
  5
9D
330
1A
100
AcDbEntity
  8
BLACK
  6
CONTINUOUS
100
AcDbLine
 10
5.383933582677165
 20
-4.3686857874015743
 30
0
 11
5.3838582677165352
 21
-4.3687007874015746
 31
0
  0
LINE
  5
9E
330
1A
100
AcDbEntity
  8
BLACK
  6
CONTINUOUS
100
AcDbLine
 10
5.3838582677165352
 20
-4.3687007874015746
 30
0
 11
5.3696850393700783
 21
-4.3687007874015746
 31
0
  0
LINE
  5
9F
330
1A
100
AcDbEntity
  8
BLACK
  6
CONTINUOUS
100
AcDbLine
 10
5.3696850393700783
 20
-4.3687007874015746
 30
0
 11
5.3696097244094485
 21
-4.3686857874015743
 31
0
  0
LINE
  5
A0
330
1A
100
AcDbEntity
  8
BLACK
  6
CONTINUOUS
100
AcDbLine
 10
5.3696097244094485
 20
-4.3686857874015743
 30
0
 11
5.3695031889763776
 21
-4.3685792519685043
 31
0
  0
LINE
  5
A1
330
1A
100
AcDbEntity
  8
BLACK
  6
CONTINUOUS
100
AcDbLine
 10
5.3695031889763776
 20
-4.3685792519685043
 30
0
 11
5.3694881889763781
 21
-4.3685039370078735
 31
0
  0
LINE
  5
A2
330
1A
100
AcDbEntity
  8
BLACK
  6
CONTINUOUS
100
AcDbLine
 10
5.3694881889763781
 20
-4.3685039370078735
 30
0
 11
5.3694881889763781
 21
-4.3440944881889765
 31
0
  0
LINE
  5
A3
330
1A
100
AcDbEntity
  8
BLACK
  6
CONTINUOUS
100
AcDbLine
 10
5.3694881889763781
 20
-4.3440944881889765
 30
0
 11
5.3695031889763776
 21
-4.3440191732283466
 31
0
  0
LINE
  5
A4
330
1A
100
AcDbEntity
  8
BLACK
  6
CONTINUOUS
100
AcDbLine
 10
5.3695031889763776
 20
-4.3440191732283466
 30
0
 11
5.3696097244094485
 21
-4.3439126377952757
 31
0
  0
LINE
  5
A5
330
1A
100
AcDbEntity
  8
BLACK
  6
CONTINUOUS
100
AcDbLine
 10
5.3696097244094485
 20
-4.3439126377952757
 30
0
 11
5.3696850393700783
 21
-4.3438976377952754
 31
0
  0
LINE
  5
A6
330
1A
100
AcDbEntity
  8
BLACK
  6
CONTINUOUS
100
AcDbLine
 10
5.3696850393700783
 20
-4.3438976377952754
 30
0
 11
5.3838582677165352
 21
-4.3438976377952754
 31
0
  0
LINE
  5
A7
330
1A
100
AcDbEntity
  8
BLACK
  6
CONTINUOUS
100
AcDbLine
 10
5.3838582677165352
 20
-4.3438976377952754
 30
0
 11
5.383933582677165
 21
-4.3439126377952757
 31
0
  0
LINE
  5
A8
330
1A
100
AcDbEntity
  8
BLACK
  6
CONTINUOUS
100
AcDbLine
 10
5.4059808267716534
 20
-4.3439126377952757
 30
0
 11
5.4060873622047243
 21
-4.3440191732283466
 31
0
  0
LINE
  5
A9
330
1A
100
AcDbEntity
  8
BLACK
  6
CONTINUOUS
100
AcDbLine
 10
5.4060873622047243
 20
-4.3440191732283466
 30
0
 11
5.4061023622047246
 21
-4.3440944881889765
 31
0
  0
LINE
  5
AA
330
1A
100
AcDbEntity
  8
BLACK
  6
CONTINUOUS
100
AcDbLine
 10
5.4061023622047246
 20
-4.3440944881889765
 30
0
 11
5.4061023622047246
 21
-4.3685039370078735
 31
0
  0
LINE
  5
AB
330
1A
100
AcDbEntity
  8
BLACK
  6
CONTINUOUS
100
AcDbLine
 10
5.4061023622047246
 20
-4.3685039370078735
 30
0
 11
5.4060873622047243
 21
-4.3685792519685043
 31
0
  0
LINE
  5
AC
330
1A
100
AcDbEntity
  8
BLACK
  6
CONTINUOUS
100
AcDbLine
 10
5.4060873622047243
 20
-4.3685792519685043
 30
0
 11
5.4059808267716534
 21
-4.3686857874015743
 31
0
  0
LINE
  5
AD
330
1A
100
AcDbEntity
  8
BLACK
  6
CONTINUOUS
100
AcDbLine
 10
5.4059808267716534
 20
-4.3686857874015743
 30
0
 11
5.4059055118110235
 21
-4.3687007874015746
 31
0
  0
LINE
  5
AE
330
1A
100
AcDbEntity
  8
BLACK
  6
CONTINUOUS
100
AcDbLine
 10
5.4059055118110235
 20
-4.3687007874015746
 30
0
 11
5.3917322834645667
 21
-4.3687007874015746
 31
0
  0
LINE
  5
AF
330
1A
100
AcDbEntity
  8
BLACK
  6
CONTINUOUS
100
AcDbLine
 10
5.3917322834645667
 20
-4.3687007874015746
 30
0
 11
5.3916569685039368
 21
-4.3686857874015743
 31
0
  0
LINE
  5
B0
330
1A
100
AcDbEntity
  8
BLACK
  6
CONTINUOUS
100
AcDbLine
 10
5.3916569685039368
 20
-4.3686857874015743
 30
0
 11
5.3915504330708659
 21
-4.3685792519685043
 31
0
  0
LINE
  5
B1
330
1A
100
AcDbEntity
  8
BLACK
  6
CONTINUOUS
100
AcDbLine
 10
5.3915504330708659
 20
-4.3685792519685043
 30
0
 11
5.3915354330708656
 21
-4.3685039370078735
 31
0
  0
LINE
  5
B2
330
1A
100
AcDbEntity
  8
BLACK
  6
CONTINUOUS
100
AcDbLine
 10
5.3915354330708656
 20
-4.3685039370078735
 30
0
 11
5.3915354330708656
 21
-4.3440944881889765
 31
0
  0
LINE
  5
B3
330
1A
100
AcDbEntity
  8
BLACK
  6
CONTINUOUS
100
AcDbLine
 10
5.3915354330708656
 20
-4.3440944881889765
 30
0
 11
5.3915504330708659
 21
-4.3440191732283466
 31
0
  0
LINE
  5
B4
330
1A
100
AcDbEntity
  8
BLACK
  6
CONTINUOUS
100
AcDbLine
 10
5.3915504330708659
 20
-4.3440191732283466
 30
0
 11
5.3916569685039368
 21
-4.3439126377952757
 31
0
  0
LINE
  5
B5
330
1A
100
AcDbEntity
  8
BLACK
  6
CONTINUOUS
100
AcDbLine
 10
5.3916569685039368
 20
-4.3439126377952757
 30
0
 11
5.3917322834645667
 21
-4.3438976377952754
 31
0
  0
LINE
  5
B6
330
1A
100
AcDbEntity
  8
BLACK
  6
CONTINUOUS
100
AcDbLine
 10
5.3917322834645667
 20
-4.3438976377952754
 30
0
 11
5.4059055118110235
 21
-4.3438976377952754
 31
0
  0
LINE
  5
B7
330
1A
100
AcDbEntity
  8
BLACK
  6
CONTINUOUS
100
AcDbLine
 10
5.4059055118110235
 20
-4.3438976377952754
 30
0
 11
5.4059808267716534
 21
-4.3439126377952757
 31
0
  0
LINE
  5
B8
330
1A
100
AcDbEntity
  8
BLACK
  6
CONTINUOUS
100
AcDbLine
 10
5.5689729527559058
 20
-4.3439126377952757
 30
0
 11
5.5690794881889767
 21
-4.3440191732283466
 31
0
  0
LINE
  5
B9
330
1A
100
AcDbEntity
  8
BLACK
  6
CONTINUOUS
100
AcDbLine
 10
5.5690794881889767
 20
-4.3440191732283466
 30
0
 11
5.5690944881889761
 21
-4.3440944881889765
 31
0
  0
LINE
  5
BA
330
1A
100
AcDbEntity
  8
BLACK
  6
CONTINUOUS
100
AcDbLine
 10
5.5690944881889761
 20
-4.3440944881889765
 30
0
 11
5.5690944881889761
 21
-4.3685039370078735
 31
0
  0
LINE
  5
BB
330
1A
100
AcDbEntity
  8
BLACK
  6
CONTINUOUS
100
AcDbLine
 10
5.5690944881889761
 20
-4.3685039370078735
 30
0
 11
5.5690794881889767
 21
-4.3685792519685043
 31
0
  0
LINE
  5
BC
330
1A
100
AcDbEntity
  8
BLACK
  6
CONTINUOUS
100
AcDbLine
 10
5.5690794881889767
 20
-4.3685792519685043
 30
0
 11
5.5689729527559058
 21
-4.3686857874015743
 31
0
  0
LINE
  5
BD
330
1A
100
AcDbEntity
  8
BLACK
  6
CONTINUOUS
100
AcDbLine
 10
5.5689729527559058
 20
-4.3686857874015743
 30
0
 11
5.568897637795275
 21
-4.3687007874015746
 31
0
  0
LINE
  5
BE
330
1A
100
AcDbEntity
  8
BLACK
  6
CONTINUOUS
100
AcDbLine
 10
5.568897637795275
 20
-4.3687007874015746
 30
0
 11
5.5547244094488191
 21
-4.3687007874015746
 31
0
  0
LINE
  5
BF
330
1A
100
AcDbEntity
  8
BLACK
  6
CONTINUOUS
100
AcDbLine
 10
5.5547244094488191
 20
-4.3687007874015746
 30
0
 11
5.5546490944881892
 21
-4.3686857874015743
 31
0
  0
LINE
  5
C0
330
1A
100
AcDbEntity
  8
BLACK
  6
CONTINUOUS
100
AcDbLine
 10
5.5546490944881892
 20
-4.3686857874015743
 30
0
 11
5.5545425590551183
 21
-4.3685792519685043
 31
0
  0
LINE
  5
C1
330
1A
100
AcDbEntity
  8
BLACK
  6
CONTINUOUS
100
AcDbLine
 10
5.5545425590551183
 20
-4.3685792519685043
 30
0
 11
5.554527559055118
 21
-4.3685039370078735
 31
0
  0
LINE
  5
C2
330
1A
100
AcDbEntity
  8
BLACK
  6
CONTINUOUS
100
AcDbLine
 10
5.554527559055118
 20
-4.3685039370078735
 30
0
 11
5.554527559055118
 21
-4.3440944881889765
 31
0
  0
LINE
  5
C3
330
1A
100
AcDbEntity
  8
BLACK
  6
CONTINUOUS
100
AcDbLine
 10
5.554527559055118
 20
-4.3440944881889765
 30
0
 11
5.5545425590551183
 21
-4.3440191732283466
 31
0
  0
LINE
  5
C4
330
1A
100
AcDbEntity
  8
BLACK
  6
CONTINUOUS
100
AcDbLine
 10
5.5545425590551183
 20
-4.3440191732283466
 30
0
 11
5.5546490944881892
 21
-4.3439126377952757
 31
0
  0
LINE
  5
C5
330
1A
100
AcDbEntity
  8
BLACK
  6
CONTINUOUS
100
AcDbLine
 10
5.5546490944881892
 20
-4.3439126377952757
 30
0
 11
5.5547244094488191
 21
-4.3438976377952754
 31
0
  0
LINE
  5
C6
330
1A
100
AcDbEntity
  8
BLACK
  6
CONTINUOUS
100
AcDbLine
 10
5.5547244094488191
 20
-4.3438976377952754
 30
0
 11
5.568897637795275
 21
-4.3438976377952754
 31
0
  0
LINE
  5
C7
330
1A
100
AcDbEntity
  8
BLACK
  6
CONTINUOUS
100
AcDbLine
 10
5.568897637795275
 20
-4.3438976377952754
 30
0
 11
5.5689729527559058
 21
-4.3439126377952757
 31
0
  0
LINE
  5
C8
330
1A
100
AcDbEntity
  8
BLACK
  6
CONTINUOUS
100
AcDbLine
 10
5.5910201968503932
 20
-4.3439126377952757
 30
0
 11
5.5911267322834641
 21
-4.3440191732283466
 31
0
  0
LINE
  5
C9
330
1A
100
AcDbEntity
  8
BLACK
  6
CONTINUOUS
100
AcDbLine
 10
5.5911267322834641
 20
-4.3440191732283466
 30
0
 11
5.5911417322834644
 21
-4.3440944881889765
 31
0
  0
LINE
  5
CA
330
1A
100
AcDbEntity
  8
BLACK
  6
CONTINUOUS
100
AcDbLine
 10
5.5911417322834644
 20
-4.3440944881889765
 30
0
 11
5.5911417322834644
 21
-4.3685039370078735
 31
0
  0
LINE
  5
CB
330
1A
100
AcDbEntity
  8
BLACK
  6
CONTINUOUS
100
AcDbLine
 10
5.5911417322834644
 20
-4.3685039370078735
 30
0
 11
5.5911267322834641
 21
-4.3685792519685043
 31
0
  0
LINE
  5
CC
330
1A
100
AcDbEntity
  8
BLACK
  6
CONTINUOUS
100
AcDbLine
 10
5.5911267322834641
 20
-4.3685792519685043
 30
0
 11
5.5910201968503932
 21
-4.3686857874015743
 31
0
  0
LINE
  5
CD
330
1A
100
AcDbEntity
  8
BLACK
  6
CONTINUOUS
100
AcDbLine
 10
5.5910201968503932
 20
-4.3686857874015743
 30
0
 11
5.5909448818897634
 21
-4.3687007874015746
 31
0
  0
LINE
  5
CE
330
1A
100
AcDbEntity
  8
BLACK
  6
CONTINUOUS
100
AcDbLine
 10
5.5909448818897634
 20
-4.3687007874015746
 30
0
 11
5.5767716535433074
 21
-4.3687007874015746
 31
0
  0
LINE
  5
CF
330
1A
100
AcDbEntity
  8
BLACK
  6
CONTINUOUS
100
AcDbLine
 10
5.5767716535433074
 20
-4.3687007874015746
 30
0
 11
5.5766963385826767
 21
-4.3686857874015743
 31
0
  0
LINE
  5
D0
330
1A
100
AcDbEntity
  8
BLACK
  6
CONTINUOUS
100
AcDbLine
 10
5.5766963385826767
 20
-4.3686857874015743
 30
0
 11
5.5765898031496057
 21
-4.3685792519685043
 31
0
  0
LINE
  5
D1
330
1A
100
AcDbEntity
  8
BLACK
  6
CONTINUOUS
100
AcDbLine
 10
5.5765898031496057
 20
-4.3685792519685043
 30
0
 11
5.5765748031496063
 21
-4.3685039370078735
 31
0
  0
LINE
  5
D2
330
1A
100
AcDbEntity
  8
BLACK
  6
CONTINUOUS
100
AcDbLine
 10
5.5765748031496063
 20
-4.3685039370078735
 30
0
 11
5.5765748031496063
 21
-4.3440944881889765
 31
0
  0
LINE
  5
D3
330
1A
100
AcDbEntity
  8
BLACK
  6
CONTINUOUS
100
AcDbLine
 10
5.5765748031496063
 20
-4.3440944881889765
 30
0
 11
5.5765898031496057
 21
-4.3440191732283466
 31
0
  0
LINE
  5
D4
330
1A
100
AcDbEntity
  8
BLACK
  6
CONTINUOUS
100
AcDbLine
 10
5.5765898031496057
 20
-4.3440191732283466
 30
0
 11
5.5766963385826767
 21
-4.3439126377952757
 31
0
  0
LINE
  5
D5
330
1A
100
AcDbEntity
  8
BLACK
  6
CONTINUOUS
100
AcDbLine
 10
5.5766963385826767
 20
-4.3439126377952757
 30
0
 11
5.5767716535433074
 21
-4.3438976377952754
 31
0
  0
LINE
  5
D6
330
1A
100
AcDbEntity
  8
BLACK
  6
CONTINUOUS
100
AcDbLine
 10
5.5767716535433074
 20
-4.3438976377952754
 30
0
 11
5.5909448818897634
 21
-4.3438976377952754
 31
0
  0
LINE
  5
D7
330
1A
100
AcDbEntity
  8
BLACK
  6
CONTINUOUS
100
AcDbLine
 10
5.5909448818897634
 20
-4.3438976377952754
 30
0
 11
5.5910201968503932
 21
-4.3439126377952757
 31
0
  0
LINE
  5
D8
330
1A
100
AcDbEntity
  8
BLACK
  6
CONTINUOUS
100
AcDbLine
 10
5.0023622047244096
 20
-4.3350393700787402
 30
0
 11
4.9937007874015746
 21
-4.3350393700787402
 31
0
  0
LINE
  5
D9
330
1A
100
AcDbEntity
  8
BLACK
  6
CONTINUOUS
100
AcDbLine
 10
4.9937007874015746
 20
-4.3350393700787402
 30
0
 11
4.9937007874015746
 21
-4.3169291338582676
 31
0
  0
LINE
  5
DA
330
1A
100
AcDbEntity
  8
BLACK
  6
CONTINUOUS
100
AcDbLine
 10
4.9937007874015746
 20
-4.3169291338582676
 30
0
 11
5.0023622047244096
 21
-4.3169291338582676
 31
0
  0
LINE
  5
DB
330
1A
100
AcDbEntity
  8
BLACK
  6
CONTINUOUS
100
AcDbLine
 10
5.0023622047244096
 20
-4.3169291338582676
 30
0
 11
5.0023622047244096
 21
-4.3350393700787402
 31
0
  0
LINE
  5
DC
330
1A
100
AcDbEntity
  8
BLACK
  6
CONTINUOUS
100
AcDbLine
 10
5.0220472440944883
 20
-4.3350393700787402
 30
0
 11
5.0133858267716533
 21
-4.3350393700787402
 31
0
  0
LINE
  5
DD
330
1A
100
AcDbEntity
  8
BLACK
  6
CONTINUOUS
100
AcDbLine
 10
5.0133858267716533
 20
-4.3350393700787402
 30
0
 11
5.0133858267716533
 21
-4.3169291338582676
 31
0
  0
LINE
  5
DE
330
1A
100
AcDbEntity
  8
BLACK
  6
CONTINUOUS
100
AcDbLine
 10
5.0133858267716533
 20
-4.3169291338582676
 30
0
 11
5.0220472440944883
 21
-4.3169291338582676
 31
0
  0
LINE
  5
DF
330
1A
100
AcDbEntity
  8
BLACK
  6
CONTINUOUS
100
AcDbLine
 10
5.0220472440944883
 20
-4.3169291338582676
 30
0
 11
5.0220472440944883
 21
-4.3350393700787402
 31
0
  0
LINE
  5
E0
330
1A
100
AcDbEntity
  8
BLACK
  6
CONTINUOUS
100
AcDbLine
 10
5.041732283464567
 20
-4.3350393700787402
 30
0
 11
5.033070866141732
 21
-4.3350393700787402
 31
0
  0
LINE
  5
E1
330
1A
100
AcDbEntity
  8
BLACK
  6
CONTINUOUS
100
AcDbLine
 10
5.033070866141732
 20
-4.3350393700787402
 30
0
 11
5.033070866141732
 21
-4.3169291338582676
 31
0
  0
LINE
  5
E2
330
1A
100
AcDbEntity
  8
BLACK
  6
CONTINUOUS
100
AcDbLine
 10
5.033070866141732
 20
-4.3169291338582676
 30
0
 11
5.041732283464567
 21
-4.3169291338582676
 31
0
  0
LINE
  5
E3
330
1A
100
AcDbEntity
  8
BLACK
  6
CONTINUOUS
100
AcDbLine
 10
5.041732283464567
 20
-4.3169291338582676
 30
0
 11
5.041732283464567
 21
-4.3350393700787402
 31
0
  0
LINE
  5
E4
330
1A
100
AcDbEntity
  8
BLACK
  6
CONTINUOUS
100
AcDbLine
 10
5.1874015748031495
 20
-4.3350393700787402
 30
0
 11
5.1787401574803145
 21
-4.3350393700787402
 31
0
  0
LINE
  5
E5
330
1A
100
AcDbEntity
  8
BLACK
  6
CONTINUOUS
100
AcDbLine
 10
5.1787401574803145
 20
-4.3350393700787402
 30
0
 11
5.1787401574803145
 21
-4.3169291338582676
 31
0
  0
LINE
  5
E6
330
1A
100
AcDbEntity
  8
BLACK
  6
CONTINUOUS
100
AcDbLine
 10
5.1787401574803145
 20
-4.3169291338582676
 30
0
 11
5.1874015748031495
 21
-4.3169291338582676
 31
0
  0
LINE
  5
E7
330
1A
100
AcDbEntity
  8
BLACK
  6
CONTINUOUS
100
AcDbLine
 10
5.1874015748031495
 20
-4.3169291338582676
 30
0
 11
5.1874015748031495
 21
-4.3350393700787402
 31
0
  0
LINE
  5
E8
330
1A
100
AcDbEntity
  8
BLACK
  6
CONTINUOUS
100
AcDbLine
 10
5.2070866141732282
 20
-4.3350393700787402
 30
0
 11
5.1984251968503932
 21
-4.3350393700787402
 31
0
  0
LINE
  5
E9
330
1A
100
AcDbEntity
  8
BLACK
  6
CONTINUOUS
100
AcDbLine
 10
5.1984251968503932
 20
-4.3350393700787402
 30
0
 11
5.1984251968503932
 21
-4.3169291338582676
 31
0
  0
LINE
  5
EA
330
1A
100
AcDbEntity
  8
BLACK
  6
CONTINUOUS
100
AcDbLine
 10
5.1984251968503932
 20
-4.3169291338582676
 30
0
 11
5.2070866141732282
 21
-4.3169291338582676
 31
0
  0
LINE
  5
EB
330
1A
100
AcDbEntity
  8
BLACK
  6
CONTINUOUS
100
AcDbLine
 10
5.2070866141732282
 20
-4.3169291338582676
 30
0
 11
5.2070866141732282
 21
-4.3350393700787402
 31
0
  0
LINE
  5
EC
330
1A
100
AcDbEntity
  8
BLACK
  6
CONTINUOUS
100
AcDbLine
 10
5.2267716535433069
 20
-4.3350393700787402
 30
0
 11
5.2181102362204728
 21
-4.3350393700787402
 31
0
  0
LINE
  5
ED
330
1A
100
AcDbEntity
  8
BLACK
  6
CONTINUOUS
100
AcDbLine
 10
5.2181102362204728
 20
-4.3350393700787402
 30
0
 11
5.2181102362204728
 21
-4.3169291338582676
 31
0
  0
LINE
  5
EE
330
1A
100
AcDbEntity
  8
BLACK
  6
CONTINUOUS
100
AcDbLine
 10
5.2181102362204728
 20
-4.3169291338582676
 30
0
 11
5.2267716535433069
 21
-4.3169291338582676
 31
0
  0
LINE
  5
EF
330
1A
100
AcDbEntity
  8
BLACK
  6
CONTINUOUS
100
AcDbLine
 10
5.2267716535433069
 20
-4.3169291338582676
 30
0
 11
5.2267716535433069
 21
-4.3350393700787402
 31
0
  0
LINE
  5
F0
330
1A
100
AcDbEntity
  8
BLACK
  6
CONTINUOUS
100
AcDbLine
 10
5.3724409448818893
 20
-4.3350393700787402
 30
0
 11
5.3637795275590552
 21
-4.3350393700787402
 31
0
  0
LINE
  5
F1
330
1A
100
AcDbEntity
  8
BLACK
  6
CONTINUOUS
100
AcDbLine
 10
5.3637795275590552
 20
-4.3350393700787402
 30
0
 11
5.3637795275590552
 21
-4.3169291338582676
 31
0
  0
LINE
  5
F2
330
1A
100
AcDbEntity
  8
BLACK
  6
CONTINUOUS
100
AcDbLine
 10
5.3637795275590552
 20
-4.3169291338582676
 30
0
 11
5.3724409448818893
 21
-4.3169291338582676
 31
0
  0
LINE
  5
F3
330
1A
100
AcDbEntity
  8
BLACK
  6
CONTINUOUS
100
AcDbLine
 10
5.3724409448818893
 20
-4.3169291338582676
 30
0
 11
5.3724409448818893
 21
-4.3350393700787402
 31
0
  0
LINE
  5
F4
330
1A
100
AcDbEntity
  8
BLACK
  6
CONTINUOUS
100
AcDbLine
 10
5.392125984251968
 20
-4.3350393700787402
 30
0
 11
5.3834645669291339
 21
-4.3350393700787402
 31
0
  0
LINE
  5
F5
330
1A
100
AcDbEntity
  8
BLACK
  6
CONTINUOUS
100
AcDbLine
 10
5.3834645669291339
 20
-4.3350393700787402
 30
0
 11
5.3834645669291339
 21
-4.3169291338582676
 31
0
  0
LINE
  5
F6
330
1A
100
AcDbEntity
  8
BLACK
  6
CONTINUOUS
100
AcDbLine
 10
5.3834645669291339
 20
-4.3169291338582676
 30
0
 11
5.392125984251968
 21
-4.3169291338582676
 31
0
  0
LINE
  5
F7
330
1A
100
AcDbEntity
  8
BLACK
  6
CONTINUOUS
100
AcDbLine
 10
5.392125984251968
 20
-4.3169291338582676
 30
0
 11
5.392125984251968
 21
-4.3350393700787402
 31
0
  0
LINE
  5
F8
330
1A
100
AcDbEntity
  8
BLACK
  6
CONTINUOUS
100
AcDbLine
 10
5.4118110236220467
 20
-4.3350393700787402
 30
0
 11
5.4031496062992126
 21
-4.3350393700787402
 31
0
  0
LINE
  5
F9
330
1A
100
AcDbEntity
  8
BLACK
  6
CONTINUOUS
100
AcDbLine
 10
5.4031496062992126
 20
-4.3350393700787402
 30
0
 11
5.4031496062992126
 21
-4.3169291338582676
 31
0
  0
LINE
  5
FA
330
1A
100
AcDbEntity
  8
BLACK
  6
CONTINUOUS
100
AcDbLine
 10
5.4031496062992126
 20
-4.3169291338582676
 30
0
 11
5.4118110236220467
 21
-4.3169291338582676
 31
0
  0
LINE
  5
FB
330
1A
100
AcDbEntity
  8
BLACK
  6
CONTINUOUS
100
AcDbLine
 10
5.4118110236220467
 20
-4.3169291338582676
 30
0
 11
5.4118110236220467
 21
-4.3350393700787402
 31
0
  0
LINE
  5
FC
330
1A
100
AcDbEntity
  8
BLACK
  6
CONTINUOUS
100
AcDbLine
 10
5.55748031496063
 20
-4.3350393700787402
 30
0
 11
5.548818897637795
 21
-4.3350393700787402
 31
0
  0
LINE
  5
FD
330
1A
100
AcDbEntity
  8
BLACK
  6
CONTINUOUS
100
AcDbLine
 10
5.548818897637795
 20
-4.3350393700787402
 30
0
 11
5.548818897637795
 21
-4.3169291338582676
 31
0
  0
LINE
  5
FE
330
1A
100
AcDbEntity
  8
BLACK
  6
CONTINUOUS
100
AcDbLine
 10
5.548818897637795
 20
-4.3169291338582676
 30
0
 11
5.55748031496063
 21
-4.3169291338582676
 31
0
  0
LINE
  5
FF
330
1A
100
AcDbEntity
  8
BLACK
  6
CONTINUOUS
100
AcDbLine
 10
5.55748031496063
 20
-4.3169291338582676
 30
0
 11
5.55748031496063
 21
-4.3350393700787402
 31
0
  0
LINE
  5
100
330
1A
100
AcDbEntity
  8
BLACK
  6
CONTINUOUS
100
AcDbLine
 10
5.5771653543307087
 20
-4.3350393700787402
 30
0
 11
5.5685039370078737
 21
-4.3350393700787402
 31
0
  0
LINE
  5
101
330
1A
100
AcDbEntity
  8
BLACK
  6
CONTINUOUS
100
AcDbLine
 10
5.5685039370078737
 20
-4.3350393700787402
 30
0
 11
5.5685039370078737
 21
-4.3169291338582676
 31
0
  0
LINE
  5
102
330
1A
100
AcDbEntity
  8
BLACK
  6
CONTINUOUS
100
AcDbLine
 10
5.5685039370078737
 20
-4.3169291338582676
 30
0
 11
5.5771653543307087
 21
-4.3169291338582676
 31
0
  0
LINE
  5
103
330
1A
100
AcDbEntity
  8
BLACK
  6
CONTINUOUS
100
AcDbLine
 10
5.5771653543307087
 20
-4.3169291338582676
 30
0
 11
5.5771653543307087
 21
-4.3350393700787402
 31
0
  0
LINE
  5
104
330
1A
100
AcDbEntity
  8
BLACK
  6
CONTINUOUS
100
AcDbLine
 10
5.5968503937007874
 20
-4.3350393700787402
 30
0
 11
5.5881889763779524
 21
-4.3350393700787402
 31
0
  0
LINE
  5
105
330
1A
100
AcDbEntity
  8
BLACK
  6
CONTINUOUS
100
AcDbLine
 10
5.5881889763779524
 20
-4.3350393700787402
 30
0
 11
5.5881889763779524
 21
-4.3169291338582676
 31
0
  0
LINE
  5
106
330
1A
100
AcDbEntity
  8
BLACK
  6
CONTINUOUS
100
AcDbLine
 10
5.5881889763779524
 20
-4.3169291338582676
 30
0
 11
5.5968503937007874
 21
-4.3169291338582676
 31
0
  0
LINE
  5
107
330
1A
100
AcDbEntity
  8
BLACK
  6
CONTINUOUS
100
AcDbLine
 10
5.5968503937007874
 20
-4.3169291338582676
 30
0
 11
5.5968503937007874
 21
-4.3350393700787402
 31
0
  0
LINE
  5
108
330
1A
100
AcDbEntity
  8
BLACK
  6
CONTINUOUS
100
AcDbLine
 10
5.0023622047244096
 20
-4.2106299212598426
 30
0
 11
4.9937007874015746
 21
-4.2106299212598426
 31
0
  0
LINE
  5
109
330
1A
100
AcDbEntity
  8
BLACK
  6
CONTINUOUS
100
AcDbLine
 10
4.9937007874015746
 20
-4.2106299212598426
 30
0
 11
4.9937007874015746
 21
-4.19251968503937
 31
0
  0
LINE
  5
10A
330
1A
100
AcDbEntity
  8
BLACK
  6
CONTINUOUS
100
AcDbLine
 10
4.9937007874015746
 20
-4.19251968503937
 30
0
 11
5.0023622047244096
 21
-4.19251968503937
 31
0
  0
LINE
  5
10B
330
1A
100
AcDbEntity
  8
BLACK
  6
CONTINUOUS
100
AcDbLine
 10
5.0023622047244096
 20
-4.19251968503937
 30
0
 11
5.0023622047244096
 21
-4.2106299212598426
 31
0
  0
LINE
  5
10C
330
1A
100
AcDbEntity
  8
BLACK
  6
CONTINUOUS
100
AcDbLine
 10
5.0220472440944883
 20
-4.2106299212598426
 30
0
 11
5.0133858267716533
 21
-4.2106299212598426
 31
0
  0
LINE
  5
10D
330
1A
100
AcDbEntity
  8
BLACK
  6
CONTINUOUS
100
AcDbLine
 10
5.0133858267716533
 20
-4.2106299212598426
 30
0
 11
5.0133858267716533
 21
-4.19251968503937
 31
0
  0
LINE
  5
10E
330
1A
100
AcDbEntity
  8
BLACK
  6
CONTINUOUS
100
AcDbLine
 10
5.0133858267716533
 20
-4.19251968503937
 30
0
 11
5.0220472440944883
 21
-4.19251968503937
 31
0
  0
LINE
  5
10F
330
1A
100
AcDbEntity
  8
BLACK
  6
CONTINUOUS
100
AcDbLine
 10
5.0220472440944883
 20
-4.19251968503937
 30
0
 11
5.0220472440944883
 21
-4.2106299212598426
 31
0
  0
LINE
  5
110
330
1A
100
AcDbEntity
  8
BLACK
  6
CONTINUOUS
100
AcDbLine
 10
5.041732283464567
 20
-4.2106299212598426
 30
0
 11
5.033070866141732
 21
-4.2106299212598426
 31
0
  0
LINE
  5
111
330
1A
100
AcDbEntity
  8
BLACK
  6
CONTINUOUS
100
AcDbLine
 10
5.033070866141732
 20
-4.2106299212598426
 30
0
 11
5.033070866141732
 21
-4.19251968503937
 31
0
  0
LINE
  5
112
330
1A
100
AcDbEntity
  8
BLACK
  6
CONTINUOUS
100
AcDbLine
 10
5.033070866141732
 20
-4.19251968503937
 30
0
 11
5.041732283464567
 21
-4.19251968503937
 31
0
  0
LINE
  5
113
330
1A
100
AcDbEntity
  8
BLACK
  6
CONTINUOUS
100
AcDbLine
 10
5.041732283464567
 20
-4.19251968503937
 30
0
 11
5.041732283464567
 21
-4.2106299212598426
 31
0
  0
LINE
  5
114
330
1A
100
AcDbEntity
  8
BLACK
  6
CONTINUOUS
100
AcDbLine
 10
5.1874015748031495
 20
-4.2106299212598426
 30
0
 11
5.1787401574803145
 21
-4.2106299212598426
 31
0
  0
LINE
  5
115
330
1A
100
AcDbEntity
  8
BLACK
  6
CONTINUOUS
100
AcDbLine
 10
5.1787401574803145
 20
-4.2106299212598426
 30
0
 11
5.1787401574803145
 21
-4.19251968503937
 31
0
  0
LINE
  5
116
330
1A
100
AcDbEntity
  8
BLACK
  6
CONTINUOUS
100
AcDbLine
 10
5.1787401574803145
 20
-4.19251968503937
 30
0
 11
5.1874015748031495
 21
-4.19251968503937
 31
0
  0
LINE
  5
117
330
1A
100
AcDbEntity
  8
BLACK
  6
CONTINUOUS
100
AcDbLine
 10
5.1874015748031495
 20
-4.19251968503937
 30
0
 11
5.1874015748031495
 21
-4.2106299212598426
 31
0
  0
LINE
  5
118
330
1A
100
AcDbEntity
  8
BLACK
  6
CONTINUOUS
100
AcDbLine
 10
5.2070866141732282
 20
-4.2106299212598426
 30
0
 11
5.1984251968503932
 21
-4.2106299212598426
 31
0
  0
LINE
  5
119
330
1A
100
AcDbEntity
  8
BLACK
  6
CONTINUOUS
100
AcDbLine
 10
5.1984251968503932
 20
-4.2106299212598426
 30
0
 11
5.1984251968503932
 21
-4.19251968503937
 31
0
  0
LINE
  5
11A
330
1A
100
AcDbEntity
  8
BLACK
  6
CONTINUOUS
100
AcDbLine
 10
5.1984251968503932
 20
-4.19251968503937
 30
0
 11
5.2070866141732282
 21
-4.19251968503937
 31
0
  0
LINE
  5
11B
330
1A
100
AcDbEntity
  8
BLACK
  6
CONTINUOUS
100
AcDbLine
 10
5.2070866141732282
 20
-4.19251968503937
 30
0
 11
5.2070866141732282
 21
-4.2106299212598426
 31
0
  0
LINE
  5
11C
330
1A
100
AcDbEntity
  8
BLACK
  6
CONTINUOUS
100
AcDbLine
 10
5.2267716535433069
 20
-4.2106299212598426
 30
0
 11
5.2181102362204728
 21
-4.2106299212598426
 31
0
  0
LINE
  5
11D
330
1A
100
AcDbEntity
  8
BLACK
  6
CONTINUOUS
100
AcDbLine
 10
5.2181102362204728
 20
-4.2106299212598426
 30
0
 11
5.2181102362204728
 21
-4.19251968503937
 31
0
  0
LINE
  5
11E
330
1A
100
AcDbEntity
  8
BLACK
  6
CONTINUOUS
100
AcDbLine
 10
5.2181102362204728
 20
-4.19251968503937
 30
0
 11
5.2267716535433069
 21
-4.19251968503937
 31
0
  0
LINE
  5
11F
330
1A
100
AcDbEntity
  8
BLACK
  6
CONTINUOUS
100
AcDbLine
 10
5.2267716535433069
 20
-4.19251968503937
 30
0
 11
5.2267716535433069
 21
-4.2106299212598426
 31
0
  0
LINE
  5
120
330
1A
100
AcDbEntity
  8
BLACK
  6
CONTINUOUS
100
AcDbLine
 10
5.3724409448818893
 20
-4.2106299212598426
 30
0
 11
5.3637795275590552
 21
-4.2106299212598426
 31
0
  0
LINE
  5
121
330
1A
100
AcDbEntity
  8
BLACK
  6
CONTINUOUS
100
AcDbLine
 10
5.3637795275590552
 20
-4.2106299212598426
 30
0
 11
5.3637795275590552
 21
-4.19251968503937
 31
0
  0
LINE
  5
122
330
1A
100
AcDbEntity
  8
BLACK
  6
CONTINUOUS
100
AcDbLine
 10
5.3637795275590552
 20
-4.19251968503937
 30
0
 11
5.3724409448818893
 21
-4.19251968503937
 31
0
  0
LINE
  5
123
330
1A
100
AcDbEntity
  8
BLACK
  6
CONTINUOUS
100
AcDbLine
 10
5.3724409448818893
 20
-4.19251968503937
 30
0
 11
5.3724409448818893
 21
-4.2106299212598426
 31
0
  0
LINE
  5
124
330
1A
100
AcDbEntity
  8
BLACK
  6
CONTINUOUS
100
AcDbLine
 10
5.392125984251968
 20
-4.2106299212598426
 30
0
 11
5.3834645669291339
 21
-4.2106299212598426
 31
0
  0
LINE
  5
125
330
1A
100
AcDbEntity
  8
BLACK
  6
CONTINUOUS
100
AcDbLine
 10
5.3834645669291339
 20
-4.2106299212598426
 30
0
 11
5.3834645669291339
 21
-4.19251968503937
 31
0
  0
LINE
  5
126
330
1A
100
AcDbEntity
  8
BLACK
  6
CONTINUOUS
100
AcDbLine
 10
5.3834645669291339
 20
-4.19251968503937
 30
0
 11
5.392125984251968
 21
-4.19251968503937
 31
0
  0
LINE
  5
127
330
1A
100
AcDbEntity
  8
BLACK
  6
CONTINUOUS
100
AcDbLine
 10
5.392125984251968
 20
-4.19251968503937
 30
0
 11
5.392125984251968
 21
-4.2106299212598426
 31
0
  0
LINE
  5
128
330
1A
100
AcDbEntity
  8
BLACK
  6
CONTINUOUS
100
AcDbLine
 10
5.4118110236220467
 20
-4.2106299212598426
 30
0
 11
5.4031496062992126
 21
-4.2106299212598426
 31
0
  0
LINE
  5
129
330
1A
100
AcDbEntity
  8
BLACK
  6
CONTINUOUS
100
AcDbLine
 10
5.4031496062992126
 20
-4.2106299212598426
 30
0
 11
5.4031496062992126
 21
-4.19251968503937
 31
0
  0
LINE
  5
12A
330
1A
100
AcDbEntity
  8
BLACK
  6
CONTINUOUS
100
AcDbLine
 10
5.4031496062992126
 20
-4.19251968503937
 30
0
 11
5.4118110236220467
 21
-4.19251968503937
 31
0
  0
LINE
  5
12B
330
1A
100
AcDbEntity
  8
BLACK
  6
CONTINUOUS
100
AcDbLine
 10
5.4118110236220467
 20
-4.19251968503937
 30
0
 11
5.4118110236220467
 21
-4.2106299212598426
 31
0
  0
LINE
  5
12C
330
1A
100
AcDbEntity
  8
BLACK
  6
CONTINUOUS
100
AcDbLine
 10
5.55748031496063
 20
-4.2106299212598426
 30
0
 11
5.548818897637795
 21
-4.2106299212598426
 31
0
  0
LINE
  5
12D
330
1A
100
AcDbEntity
  8
BLACK
  6
CONTINUOUS
100
AcDbLine
 10
5.548818897637795
 20
-4.2106299212598426
 30
0
 11
5.548818897637795
 21
-4.19251968503937
 31
0
  0
LINE
  5
12E
330
1A
100
AcDbEntity
  8
BLACK
  6
CONTINUOUS
100
AcDbLine
 10
5.548818897637795
 20
-4.19251968503937
 30
0
 11
5.55748031496063
 21
-4.19251968503937
 31
0
  0
LINE
  5
12F
330
1A
100
AcDbEntity
  8
BLACK
  6
CONTINUOUS
100
AcDbLine
 10
5.55748031496063
 20
-4.19251968503937
 30
0
 11
5.55748031496063
 21
-4.2106299212598426
 31
0
  0
LINE
  5
130
330
1A
100
AcDbEntity
  8
BLACK
  6
CONTINUOUS
100
AcDbLine
 10
5.5771653543307087
 20
-4.2106299212598426
 30
0
 11
5.5685039370078737
 21
-4.2106299212598426
 31
0
  0
LINE
  5
131
330
1A
100
AcDbEntity
  8
BLACK
  6
CONTINUOUS
100
AcDbLine
 10
5.5685039370078737
 20
-4.2106299212598426
 30
0
 11
5.5685039370078737
 21
-4.19251968503937
 31
0
  0
LINE
  5
132
330
1A
100
AcDbEntity
  8
BLACK
  6
CONTINUOUS
100
AcDbLine
 10
5.5685039370078737
 20
-4.19251968503937
 30
0
 11
5.5771653543307087
 21
-4.19251968503937
 31
0
  0
LINE
  5
133
330
1A
100
AcDbEntity
  8
BLACK
  6
CONTINUOUS
100
AcDbLine
 10
5.5771653543307087
 20
-4.19251968503937
 30
0
 11
5.5771653543307087
 21
-4.2106299212598426
 31
0
  0
LINE
  5
134
330
1A
100
AcDbEntity
  8
BLACK
  6
CONTINUOUS
100
AcDbLine
 10
5.5968503937007874
 20
-4.2106299212598426
 30
0
 11
5.5881889763779524
 21
-4.2106299212598426
 31
0
  0
LINE
  5
135
330
1A
100
AcDbEntity
  8
BLACK
  6
CONTINUOUS
100
AcDbLine
 10
5.5881889763779524
 20
-4.2106299212598426
 30
0
 11
5.5881889763779524
 21
-4.19251968503937
 31
0
  0
LINE
  5
136
330
1A
100
AcDbEntity
  8
BLACK
  6
CONTINUOUS
100
AcDbLine
 10
5.5881889763779524
 20
-4.19251968503937
 30
0
 11
5.5968503937007874
 21
-4.19251968503937
 31
0
  0
LINE
  5
137
330
1A
100
AcDbEntity
  8
BLACK
  6
CONTINUOUS
100
AcDbLine
 10
5.5968503937007874
 20
-4.19251968503937
 30
0
 11
5.5968503937007874
 21
-4.2106299212598426
 31
0
  0
LINE
  5
138
330
1A
100
AcDbEntity
  8
BLACK
  6
CONTINUOUS
100
AcDbLine
 10
5.0138548425196845
 20
-4.158873267716535
 30
0
 11
5.0139613779527554
 21
-4.1589798031496059
 31
0
  0
LINE
  5
139
330
1A
100
AcDbEntity
  8
BLACK
  6
CONTINUOUS
100
AcDbLine
 10
5.0139613779527554
 20
-4.1589798031496059
 30
0
 11
5.0139763779527557
 21
-4.1590551181102358
 31
0
  0
LINE
  5
13A
330
1A
100
AcDbEntity
  8
BLACK
  6
CONTINUOUS
100
AcDbLine
 10
5.0139763779527557
 20
-4.1590551181102358
 30
0
 11
5.0139763779527557
 21
-4.1834645669291337
 31
0
  0
LINE
  5
13B
330
1A
100
AcDbEntity
  8
BLACK
  6
CONTINUOUS
100
AcDbLine
 10
5.0139763779527557
 20
-4.1834645669291337
 30
0
 11
5.0139613779527554
 21
-4.1835398818897636
 31
0
  0
LINE
  5
13C
330
1A
100
AcDbEntity
  8
BLACK
  6
CONTINUOUS
100
AcDbLine
 10
5.0139613779527554
 20
-4.1835398818897636
 30
0
 11
5.0138548425196845
 21
-4.1836464173228345
 31
0
  0
LINE
  5
13D
330
1A
100
AcDbEntity
  8
BLACK
  6
CONTINUOUS
100
AcDbLine
 10
5.0138548425196845
 20
-4.1836464173228345
 30
0
 11
5.0137795275590546
 21
-4.1836614173228348
 31
0
  0
LINE
  5
13E
330
1A
100
AcDbEntity
  8
BLACK
  6
CONTINUOUS
100
AcDbLine
 10
5.0137795275590546
 20
-4.1836614173228348
 30
0
 11
4.9996062992125987
 21
-4.1836614173228348
 31
0
  0
LINE
  5
13F
330
1A
100
AcDbEntity
  8
BLACK
  6
CONTINUOUS
100
AcDbLine
 10
4.9996062992125987
 20
-4.1836614173228348
 30
0
 11
4.999530984251968
 21
-4.1836464173228345
 31
0
  0
LINE
  5
140
330
1A
100
AcDbEntity
  8
BLACK
  6
CONTINUOUS
100
AcDbLine
 10
4.999530984251968
 20
-4.1836464173228345
 30
0
 11
4.9994244488188979
 21
-4.1835398818897636
 31
0
  0
LINE
  5
141
330
1A
100
AcDbEntity
  8
BLACK
  6
CONTINUOUS
100
AcDbLine
 10
4.9994244488188979
 20
-4.1835398818897636
 30
0
 11
4.9994094488188976
 21
-4.1834645669291337
 31
0
  0
LINE
  5
142
330
1A
100
AcDbEntity
  8
BLACK
  6
CONTINUOUS
100
AcDbLine
 10
4.9994094488188976
 20
-4.1834645669291337
 30
0
 11
4.9994094488188976
 21
-4.1590551181102358
 31
0
  0
LINE
  5
143
330
1A
100
AcDbEntity
  8
BLACK
  6
CONTINUOUS
100
AcDbLine
 10
4.9994094488188976
 20
-4.1590551181102358
 30
0
 11
4.9994244488188979
 21
-4.1589798031496059
 31
0
  0
LINE
  5
144
330
1A
100
AcDbEntity
  8
BLACK
  6
CONTINUOUS
100
AcDbLine
 10
4.9994244488188979
 20
-4.1589798031496059
 30
0
 11
4.999530984251968
 21
-4.158873267716535
 31
0
  0
LINE
  5
145
330
1A
100
AcDbEntity
  8
BLACK
  6
CONTINUOUS
100
AcDbLine
 10
4.999530984251968
 20
-4.158873267716535
 30
0
 11
4.9996062992125987
 21
-4.1588582677165356
 31
0
  0
LINE
  5
146
330
1A
100
AcDbEntity
  8
BLACK
  6
CONTINUOUS
100
AcDbLine
 10
4.9996062992125987
 20
-4.1588582677165356
 30
0
 11
5.0137795275590546
 21
-4.1588582677165356
 31
0
  0
LINE
  5
147
330
1A
100
AcDbEntity
  8
BLACK
  6
CONTINUOUS
100
AcDbLine
 10
5.0137795275590546
 20
-4.1588582677165356
 30
0
 11
5.0138548425196845
 21
-4.158873267716535
 31
0
  0
LINE
  5
148
330
1A
100
AcDbEntity
  8
BLACK
  6
CONTINUOUS
100
AcDbLine
 10
5.0359020866141728
 20
-4.158873267716535
 30
0
 11
5.0360086220472438
 21
-4.1589798031496059
 31
0
  0
LINE
  5
149
330
1A
100
AcDbEntity
  8
BLACK
  6
CONTINUOUS
100
AcDbLine
 10
5.0360086220472438
 20
-4.1589798031496059
 30
0
 11
5.0360236220472441
 21
-4.1590551181102358
 31
0
  0
LINE
  5
14A
330
1A
100
AcDbEntity
  8
BLACK
  6
CONTINUOUS
100
AcDbLine
 10
5.0360236220472441
 20
-4.1590551181102358
 30
0
 11
5.0360236220472441
 21
-4.1834645669291337
 31
0
  0
LINE
  5
14B
330
1A
100
AcDbEntity
  8
BLACK
  6
CONTINUOUS
100
AcDbLine
 10
5.0360236220472441
 20
-4.1834645669291337
 30
0
 11
5.0360086220472438
 21
-4.1835398818897636
 31
0
  0
LINE
  5
14C
330
1A
100
AcDbEntity
  8
BLACK
  6
CONTINUOUS
100
AcDbLine
 10
5.0360086220472438
 20
-4.1835398818897636
 30
0
 11
5.0359020866141728
 21
-4.1836464173228345
 31
0
  0
LINE
  5
14D
330
1A
100
AcDbEntity
  8
BLACK
  6
CONTINUOUS
100
AcDbLine
 10
5.0359020866141728
 20
-4.1836464173228345
 30
0
 11
5.035826771653543
 21
-4.1836614173228348
 31
0
  0
LINE
  5
14E
330
1A
100
AcDbEntity
  8
BLACK
  6
CONTINUOUS
100
AcDbLine
 10
5.035826771653543
 20
-4.1836614173228348
 30
0
 11
5.0216535433070861
 21
-4.1836614173228348
 31
0
  0
LINE
  5
14F
330
1A
100
AcDbEntity
  8
BLACK
  6
CONTINUOUS
100
AcDbLine
 10
5.0216535433070861
 20
-4.1836614173228348
 30
0
 11
5.0215782283464563
 21
-4.1836464173228345
 31
0
  0
LINE
  5
150
330
1A
100
AcDbEntity
  8
BLACK
  6
CONTINUOUS
100
AcDbLine
 10
5.0215782283464563
 20
-4.1836464173228345
 30
0
 11
5.0214716929133854
 21
-4.1835398818897636
 31
0
  0
LINE
  5
151
330
1A
100
AcDbEntity
  8
BLACK
  6
CONTINUOUS
100
AcDbLine
 10
5.0214716929133854
 20
-4.1835398818897636
 30
0
 11
5.0214566929133859
 21
-4.1834645669291337
 31
0
  0
LINE
  5
152
330
1A
100
AcDbEntity
  8
BLACK
  6
CONTINUOUS
100
AcDbLine
 10
5.0214566929133859
 20
-4.1834645669291337
 30
0
 11
5.0214566929133859
 21
-4.1590551181102358
 31
0
  0
LINE
  5
153
330
1A
100
AcDbEntity
  8
BLACK
  6
CONTINUOUS
100
AcDbLine
 10
5.0214566929133859
 20
-4.1590551181102358
 30
0
 11
5.0214716929133854
 21
-4.1589798031496059
 31
0
  0
LINE
  5
154
330
1A
100
AcDbEntity
  8
BLACK
  6
CONTINUOUS
100
AcDbLine
 10
5.0214716929133854
 20
-4.1589798031496059
 30
0
 11
5.0215782283464563
 21
-4.158873267716535
 31
0
  0
LINE
  5
155
330
1A
100
AcDbEntity
  8
BLACK
  6
CONTINUOUS
100
AcDbLine
 10
5.0215782283464563
 20
-4.158873267716535
 30
0
 11
5.0216535433070861
 21
-4.1588582677165356
 31
0
  0
LINE
  5
156
330
1A
100
AcDbEntity
  8
BLACK
  6
CONTINUOUS
100
AcDbLine
 10
5.0216535433070861
 20
-4.1588582677165356
 30
0
 11
5.035826771653543
 21
-4.1588582677165356
 31
0
  0
LINE
  5
157
330
1A
100
AcDbEntity
  8
BLACK
  6
CONTINUOUS
100
AcDbLine
 10
5.035826771653543
 20
-4.1588582677165356
 30
0
 11
5.0359020866141728
 21
-4.158873267716535
 31
0
  0
LINE
  5
158
330
1A
100
AcDbEntity
  8
BLACK
  6
CONTINUOUS
100
AcDbLine
 10
5.1988942125984252
 20
-4.158873267716535
 30
0
 11
5.1990007480314961
 21
-4.1589798031496059
 31
0
  0
LINE
  5
159
330
1A
100
AcDbEntity
  8
BLACK
  6
CONTINUOUS
100
AcDbLine
 10
5.1990007480314961
 20
-4.1589798031496059
 30
0
 11
5.1990157480314956
 21
-4.1590551181102358
 31
0
  0
LINE
  5
15A
330
1A
100
AcDbEntity
  8
BLACK
  6
CONTINUOUS
100
AcDbLine
 10
5.1990157480314956
 20
-4.1590551181102358
 30
0
 11
5.1990157480314956
 21
-4.1834645669291337
 31
0
  0
LINE
  5
15B
330
1A
100
AcDbEntity
  8
BLACK
  6
CONTINUOUS
100
AcDbLine
 10
5.1990157480314956
 20
-4.1834645669291337
 30
0
 11
5.1990007480314961
 21
-4.1835398818897636
 31
0
  0
LINE
  5
15C
330
1A
100
AcDbEntity
  8
BLACK
  6
CONTINUOUS
100
AcDbLine
 10
5.1990007480314961
 20
-4.1835398818897636
 30
0
 11
5.1988942125984252
 21
-4.1836464173228345
 31
0
  0
LINE
  5
15D
330
1A
100
AcDbEntity
  8
BLACK
  6
CONTINUOUS
100
AcDbLine
 10
5.1988942125984252
 20
-4.1836464173228345
 30
0
 11
5.1988188976377954
 21
-4.1836614173228348
 31
0
  0
LINE
  5
15E
330
1A
100
AcDbEntity
  8
BLACK
  6
CONTINUOUS
100
AcDbLine
 10
5.1988188976377954
 20
-4.1836614173228348
 30
0
 11
5.1846456692913385
 21
-4.1836614173228348
 31
0
  0
LINE
  5
15F
330
1A
100
AcDbEntity
  8
BLACK
  6
CONTINUOUS
100
AcDbLine
 10
5.1846456692913385
 20
-4.1836614173228348
 30
0
 11
5.1845703543307087
 21
-4.1836464173228345
 31
0
  0
LINE
  5
160
330
1A
100
AcDbEntity
  8
BLACK
  6
CONTINUOUS
100
AcDbLine
 10
5.1845703543307087
 20
-4.1836464173228345
 30
0
 11
5.1844638188976377
 21
-4.1835398818897636
 31
0
  0
LINE
  5
161
330
1A
100
AcDbEntity
  8
BLACK
  6
CONTINUOUS
100
AcDbLine
 10
5.1844638188976377
 20
-4.1835398818897636
 30
0
 11
5.1844488188976374
 21
-4.1834645669291337
 31
0
  0
LINE
  5
162
330
1A
100
AcDbEntity
  8
BLACK
  6
CONTINUOUS
100
AcDbLine
 10
5.1844488188976374
 20
-4.1834645669291337
 30
0
 11
5.1844488188976374
 21
-4.1590551181102358
 31
0
  0
LINE
  5
163
330
1A
100
AcDbEntity
  8
BLACK
  6
CONTINUOUS
100
AcDbLine
 10
5.1844488188976374
 20
-4.1590551181102358
 30
0
 11
5.1844638188976377
 21
-4.1589798031496059
 31
0
  0
LINE
  5
164
330
1A
100
AcDbEntity
  8
BLACK
  6
CONTINUOUS
100
AcDbLine
 10
5.1844638188976377
 20
-4.1589798031496059
 30
0
 11
5.1845703543307087
 21
-4.158873267716535
 31
0
  0
LINE
  5
165
330
1A
100
AcDbEntity
  8
BLACK
  6
CONTINUOUS
100
AcDbLine
 10
5.1845703543307087
 20
-4.158873267716535
 30
0
 11
5.1846456692913385
 21
-4.1588582677165356
 31
0
  0
LINE
  5
166
330
1A
100
AcDbEntity
  8
BLACK
  6
CONTINUOUS
100
AcDbLine
 10
5.1846456692913385
 20
-4.1588582677165356
 30
0
 11
5.1988188976377954
 21
-4.1588582677165356
 31
0
  0
LINE
  5
167
330
1A
100
AcDbEntity
  8
BLACK
  6
CONTINUOUS
100
AcDbLine
 10
5.1988188976377954
 20
-4.1588582677165356
 30
0
 11
5.1988942125984252
 21
-4.158873267716535
 31
0
  0
LINE
  5
168
330
1A
100
AcDbEntity
  8
BLACK
  6
CONTINUOUS
100
AcDbLine
 10
5.2209414566929135
 20
-4.158873267716535
 30
0
 11
5.2210479921259845
 21
-4.1589798031496059
 31
0
  0
LINE
  5
169
330
1A
100
AcDbEntity
  8
BLACK
  6
CONTINUOUS
100
AcDbLine
 10
5.2210479921259845
 20
-4.1589798031496059
 30
0
 11
5.2210629921259839
 21
-4.1590551181102358
 31
0
  0
LINE
  5
16A
330
1A
100
AcDbEntity
  8
BLACK
  6
CONTINUOUS
100
AcDbLine
 10
5.2210629921259839
 20
-4.1590551181102358
 30
0
 11
5.2210629921259839
 21
-4.1834645669291337
 31
0
  0
LINE
  5
16B
330
1A
100
AcDbEntity
  8
BLACK
  6
CONTINUOUS
100
AcDbLine
 10
5.2210629921259839
 20
-4.1834645669291337
 30
0
 11
5.2210479921259845
 21
-4.1835398818897636
 31
0
  0
LINE
  5
16C
330
1A
100
AcDbEntity
  8
BLACK
  6
CONTINUOUS
100
AcDbLine
 10
5.2210479921259845
 20
-4.1835398818897636
 30
0
 11
5.2209414566929135
 21
-4.1836464173228345
 31
0
  0
LINE
  5
16D
330
1A
100
AcDbEntity
  8
BLACK
  6
CONTINUOUS
100
AcDbLine
 10
5.2209414566929135
 20
-4.1836464173228345
 30
0
 11
5.2208661417322837
 21
-4.1836614173228348
 31
0
  0
LINE
  5
16E
330
1A
100
AcDbEntity
  8
BLACK
  6
CONTINUOUS
100
AcDbLine
 10
5.2208661417322837
 20
-4.1836614173228348
 30
0
 11
5.2066929133858268
 21
-4.1836614173228348
 31
0
  0
LINE
  5
16F
330
1A
100
AcDbEntity
  8
BLACK
  6
CONTINUOUS
100
AcDbLine
 10
5.2066929133858268
 20
-4.1836614173228348
 30
0
 11
5.206617598425197
 21
-4.1836464173228345
 31
0
  0
LINE
  5
170
330
1A
100
AcDbEntity
  8
BLACK
  6
CONTINUOUS
100
AcDbLine
 10
5.206617598425197
 20
-4.1836464173228345
 30
0
 11
5.2065110629921261
 21
-4.1835398818897636
 31
0
  0
LINE
  5
171
330
1A
100
AcDbEntity
  8
BLACK
  6
CONTINUOUS
100
AcDbLine
 10
5.2065110629921261
 20
-4.1835398818897636
 30
0
 11
5.2064960629921258
 21
-4.1834645669291337
 31
0
  0
LINE
  5
172
330
1A
100
AcDbEntity
  8
BLACK
  6
CONTINUOUS
100
AcDbLine
 10
5.2064960629921258
 20
-4.1834645669291337
 30
0
 11
5.2064960629921258
 21
-4.1590551181102358
 31
0
  0
LINE
  5
173
330
1A
100
AcDbEntity
  8
BLACK
  6
CONTINUOUS
100
AcDbLine
 10
5.2064960629921258
 20
-4.1590551181102358
 30
0
 11
5.2065110629921261
 21
-4.1589798031496059
 31
0
  0
LINE
  5
174
330
1A
100
AcDbEntity
  8
BLACK
  6
CONTINUOUS
100
AcDbLine
 10
5.2065110629921261
 20
-4.1589798031496059
 30
0
 11
5.206617598425197
 21
-4.158873267716535
 31
0
  0
LINE
  5
175
330
1A
100
AcDbEntity
  8
BLACK
  6
CONTINUOUS
100
AcDbLine
 10
5.206617598425197
 20
-4.158873267716535
 30
0
 11
5.2066929133858268
 21
-4.1588582677165356
 31
0
  0
LINE
  5
176
330
1A
100
AcDbEntity
  8
BLACK
  6
CONTINUOUS
100
AcDbLine
 10
5.2066929133858268
 20
-4.1588582677165356
 30
0
 11
5.2208661417322837
 21
-4.1588582677165356
 31
0
  0
LINE
  5
177
330
1A
100
AcDbEntity
  8
BLACK
  6
CONTINUOUS
100
AcDbLine
 10
5.2208661417322837
 20
-4.1588582677165356
 30
0
 11
5.2209414566929135
 21
-4.158873267716535
 31
0
  0
LINE
  5
178
330
1A
100
AcDbEntity
  8
BLACK
  6
CONTINUOUS
100
AcDbLine
 10
5.383933582677165
 20
-4.158873267716535
 30
0
 11
5.384040118110236
 21
-4.1589798031496059
 31
0
  0
LINE
  5
179
330
1A
100
AcDbEntity
  8
BLACK
  6
CONTINUOUS
100
AcDbLine
 10
5.384040118110236
 20
-4.1589798031496059
 30
0
 11
5.3840551181102363
 21
-4.1590551181102358
 31
0
  0
LINE
  5
17A
330
1A
100
AcDbEntity
  8
BLACK
  6
CONTINUOUS
100
AcDbLine
 10
5.3840551181102363
 20
-4.1590551181102358
 30
0
 11
5.3840551181102363
 21
-4.1834645669291337
 31
0
  0
LINE
  5
17B
330
1A
100
AcDbEntity
  8
BLACK
  6
CONTINUOUS
100
AcDbLine
 10
5.3840551181102363
 20
-4.1834645669291337
 30
0
 11
5.384040118110236
 21
-4.1835398818897636
 31
0
  0
LINE
  5
17C
330
1A
100
AcDbEntity
  8
BLACK
  6
CONTINUOUS
100
AcDbLine
 10
5.384040118110236
 20
-4.1835398818897636
 30
0
 11
5.383933582677165
 21
-4.1836464173228345
 31
0
  0
LINE
  5
17D
330
1A
100
AcDbEntity
  8
BLACK
  6
CONTINUOUS
100
AcDbLine
 10
5.383933582677165
 20
-4.1836464173228345
 30
0
 11
5.3838582677165352
 21
-4.1836614173228348
 31
0
  0
LINE
  5
17E
330
1A
100
AcDbEntity
  8
BLACK
  6
CONTINUOUS
100
AcDbLine
 10
5.3838582677165352
 20
-4.1836614173228348
 30
0
 11
5.3696850393700783
 21
-4.1836614173228348
 31
0
  0
LINE
  5
17F
330
1A
100
AcDbEntity
  8
BLACK
  6
CONTINUOUS
100
AcDbLine
 10
5.3696850393700783
 20
-4.1836614173228348
 30
0
 11
5.3696097244094485
 21
-4.1836464173228345
 31
0
  0
LINE
  5
180
330
1A
100
AcDbEntity
  8
BLACK
  6
CONTINUOUS
100
AcDbLine
 10
5.3696097244094485
 20
-4.1836464173228345
 30
0
 11
5.3695031889763776
 21
-4.1835398818897636
 31
0
  0
LINE
  5
181
330
1A
100
AcDbEntity
  8
BLACK
  6
CONTINUOUS
100
AcDbLine
 10
5.3695031889763776
 20
-4.1835398818897636
 30
0
 11
5.3694881889763781
 21
-4.1834645669291337
 31
0
  0
LINE
  5
182
330
1A
100
AcDbEntity
  8
BLACK
  6
CONTINUOUS
100
AcDbLine
 10
5.3694881889763781
 20
-4.1834645669291337
 30
0
 11
5.3694881889763781
 21
-4.1590551181102358
 31
0
  0
LINE
  5
183
330
1A
100
AcDbEntity
  8
BLACK
  6
CONTINUOUS
100
AcDbLine
 10
5.3694881889763781
 20
-4.1590551181102358
 30
0
 11
5.3695031889763776
 21
-4.1589798031496059
 31
0
  0
LINE
  5
184
330
1A
100
AcDbEntity
  8
BLACK
  6
CONTINUOUS
100
AcDbLine
 10
5.3695031889763776
 20
-4.1589798031496059
 30
0
 11
5.3696097244094485
 21
-4.158873267716535
 31
0
  0
LINE
  5
185
330
1A
100
AcDbEntity
  8
BLACK
  6
CONTINUOUS
100
AcDbLine
 10
5.3696097244094485
 20
-4.158873267716535
 30
0
 11
5.3696850393700783
 21
-4.1588582677165356
 31
0
  0
LINE
  5
186
330
1A
100
AcDbEntity
  8
BLACK
  6
CONTINUOUS
100
AcDbLine
 10
5.3696850393700783
 20
-4.1588582677165356
 30
0
 11
5.3838582677165352
 21
-4.1588582677165356
 31
0
  0
LINE
  5
187
330
1A
100
AcDbEntity
  8
BLACK
  6
CONTINUOUS
100
AcDbLine
 10
5.3838582677165352
 20
-4.1588582677165356
 30
0
 11
5.383933582677165
 21
-4.158873267716535
 31
0
  0
LINE
  5
188
330
1A
100
AcDbEntity
  8
BLACK
  6
CONTINUOUS
100
AcDbLine
 10
5.4059808267716534
 20
-4.158873267716535
 30
0
 11
5.4060873622047243
 21
-4.1589798031496059
 31
0
  0
LINE
  5
189
330
1A
100
AcDbEntity
  8
BLACK
  6
CONTINUOUS
100
AcDbLine
 10
5.4060873622047243
 20
-4.1589798031496059
 30
0
 11
5.4061023622047246
 21
-4.1590551181102358
 31
0
  0
LINE
  5
18A
330
1A
100
AcDbEntity
  8
BLACK
  6
CONTINUOUS
100
AcDbLine
 10
5.4061023622047246
 20
-4.1590551181102358
 30
0
 11
5.4061023622047246
 21
-4.1834645669291337
 31
0
  0
LINE
  5
18B
330
1A
100
AcDbEntity
  8
BLACK
  6
CONTINUOUS
100
AcDbLine
 10
5.4061023622047246
 20
-4.1834645669291337
 30
0
 11
5.4060873622047243
 21
-4.1835398818897636
 31
0
  0
LINE
  5
18C
330
1A
100
AcDbEntity
  8
BLACK
  6
CONTINUOUS
100
AcDbLine
 10
5.4060873622047243
 20
-4.1835398818897636
 30
0
 11
5.4059808267716534
 21
-4.1836464173228345
 31
0
  0
LINE
  5
18D
330
1A
100
AcDbEntity
  8
BLACK
  6
CONTINUOUS
100
AcDbLine
 10
5.4059808267716534
 20
-4.1836464173228345
 30
0
 11
5.4059055118110235
 21
-4.1836614173228348
 31
0
  0
LINE
  5
18E
330
1A
100
AcDbEntity
  8
BLACK
  6
CONTINUOUS
100
AcDbLine
 10
5.4059055118110235
 20
-4.1836614173228348
 30
0
 11
5.3917322834645667
 21
-4.1836614173228348
 31
0
  0
LINE
  5
18F
330
1A
100
AcDbEntity
  8
BLACK
  6
CONTINUOUS
100
AcDbLine
 10
5.3917322834645667
 20
-4.1836614173228348
 30
0
 11
5.3916569685039368
 21
-4.1836464173228345
 31
0
  0
LINE
  5
190
330
1A
100
AcDbEntity
  8
BLACK
  6
CONTINUOUS
100
AcDbLine
 10
5.3916569685039368
 20
-4.1836464173228345
 30
0
 11
5.3915504330708659
 21
-4.1835398818897636
 31
0
  0
LINE
  5
191
330
1A
100
AcDbEntity
  8
BLACK
  6
CONTINUOUS
100
AcDbLine
 10
5.3915504330708659
 20
-4.1835398818897636
 30
0
 11
5.3915354330708656
 21
-4.1834645669291337
 31
0
  0
LINE
  5
192
330
1A
100
AcDbEntity
  8
BLACK
  6
CONTINUOUS
100
AcDbLine
 10
5.3915354330708656
 20
-4.1834645669291337
 30
0
 11
5.3915354330708656
 21
-4.1590551181102358
 31
0
  0
LINE
  5
193
330
1A
100
AcDbEntity
  8
BLACK
  6
CONTINUOUS
100
AcDbLine
 10
5.3915354330708656
 20
-4.1590551181102358
 30
0
 11
5.3915504330708659
 21
-4.1589798031496059
 31
0
  0
LINE
  5
194
330
1A
100
AcDbEntity
  8
BLACK
  6
CONTINUOUS
100
AcDbLine
 10
5.3915504330708659
 20
-4.1589798031496059
 30
0
 11
5.3916569685039368
 21
-4.158873267716535
 31
0
  0
LINE
  5
195
330
1A
100
AcDbEntity
  8
BLACK
  6
CONTINUOUS
100
AcDbLine
 10
5.3916569685039368
 20
-4.158873267716535
 30
0
 11
5.3917322834645667
 21
-4.1588582677165356
 31
0
  0
LINE
  5
196
330
1A
100
AcDbEntity
  8
BLACK
  6
CONTINUOUS
100
AcDbLine
 10
5.3917322834645667
 20
-4.1588582677165356
 30
0
 11
5.4059055118110235
 21
-4.1588582677165356
 31
0
  0
LINE
  5
197
330
1A
100
AcDbEntity
  8
BLACK
  6
CONTINUOUS
100
AcDbLine
 10
5.4059055118110235
 20
-4.1588582677165356
 30
0
 11
5.4059808267716534
 21
-4.158873267716535
 31
0
  0
LINE
  5
198
330
1A
100
AcDbEntity
  8
BLACK
  6
CONTINUOUS
100
AcDbLine
 10
5.5689729527559058
 20
-4.158873267716535
 30
0
 11
5.5690794881889767
 21
-4.1589798031496059
 31
0
  0
LINE
  5
199
330
1A
100
AcDbEntity
  8
BLACK
  6
CONTINUOUS
100
AcDbLine
 10
5.5690794881889767
 20
-4.1589798031496059
 30
0
 11
5.5690944881889761
 21
-4.1590551181102358
 31
0
  0
LINE
  5
19A
330
1A
100
AcDbEntity
  8
BLACK
  6
CONTINUOUS
100
AcDbLine
 10
5.5690944881889761
 20
-4.1590551181102358
 30
0
 11
5.5690944881889761
 21
-4.1834645669291337
 31
0
  0
LINE
  5
19B
330
1A
100
AcDbEntity
  8
BLACK
  6
CONTINUOUS
100
AcDbLine
 10
5.5690944881889761
 20
-4.1834645669291337
 30
0
 11
5.5690794881889767
 21
-4.1835398818897636
 31
0
  0
LINE
  5
19C
330
1A
100
AcDbEntity
  8
BLACK
  6
CONTINUOUS
100
AcDbLine
 10
5.5690794881889767
 20
-4.1835398818897636
 30
0
 11
5.5689729527559058
 21
-4.1836464173228345
 31
0
  0
LINE
  5
19D
330
1A
100
AcDbEntity
  8
BLACK
  6
CONTINUOUS
100
AcDbLine
 10
5.5689729527559058
 20
-4.1836464173228345
 30
0
 11
5.568897637795275
 21
-4.1836614173228348
 31
0
  0
LINE
  5
19E
330
1A
100
AcDbEntity
  8
BLACK
  6
CONTINUOUS
100
AcDbLine
 10
5.568897637795275
 20
-4.1836614173228348
 30
0
 11
5.5547244094488191
 21
-4.1836614173228348
 31
0
  0
LINE
  5
19F
330
1A
100
AcDbEntity
  8
BLACK
  6
CONTINUOUS
100
AcDbLine
 10
5.5547244094488191
 20
-4.1836614173228348
 30
0
 11
5.5546490944881892
 21
-4.1836464173228345
 31
0
  0
LINE
  5
1A0
330
1A
100
AcDbEntity
  8
BLACK
  6
CONTINUOUS
100
AcDbLine
 10
5.5546490944881892
 20
-4.1836464173228345
 30
0
 11
5.5545425590551183
 21
-4.1835398818897636
 31
0
  0
LINE
  5
1A1
330
1A
100
AcDbEntity
  8
BLACK
  6
CONTINUOUS
100
AcDbLine
 10
5.5545425590551183
 20
-4.1835398818897636
 30
0
 11
5.554527559055118
 21
-4.1834645669291337
 31
0
  0
LINE
  5
1A2
330
1A
100
AcDbEntity
  8
BLACK
  6
CONTINUOUS
100
AcDbLine
 10
5.554527559055118
 20
-4.1834645669291337
 30
0
 11
5.554527559055118
 21
-4.1590551181102358
 31
0
  0
LINE
  5
1A3
330
1A
100
AcDbEntity
  8
BLACK
  6
CONTINUOUS
100
AcDbLine
 10
5.554527559055118
 20
-4.1590551181102358
 30
0
 11
5.5545425590551183
 21
-4.1589798031496059
 31
0
  0
LINE
  5
1A4
330
1A
100
AcDbEntity
  8
BLACK
  6
CONTINUOUS
100
AcDbLine
 10
5.5545425590551183
 20
-4.1589798031496059
 30
0
 11
5.5546490944881892
 21
-4.158873267716535
 31
0
  0
LINE
  5
1A5
330
1A
100
AcDbEntity
  8
BLACK
  6
CONTINUOUS
100
AcDbLine
 10
5.5546490944881892
 20
-4.158873267716535
 30
0
 11
5.5547244094488191
 21
-4.1588582677165356
 31
0
  0
LINE
  5
1A6
330
1A
100
AcDbEntity
  8
BLACK
  6
CONTINUOUS
100
AcDbLine
 10
5.5547244094488191
 20
-4.1588582677165356
 30
0
 11
5.568897637795275
 21
-4.1588582677165356
 31
0
  0
LINE
  5
1A7
330
1A
100
AcDbEntity
  8
BLACK
  6
CONTINUOUS
100
AcDbLine
 10
5.568897637795275
 20
-4.1588582677165356
 30
0
 11
5.5689729527559058
 21
-4.158873267716535
 31
0
  0
LINE
  5
1A8
330
1A
100
AcDbEntity
  8
BLACK
  6
CONTINUOUS
100
AcDbLine
 10
5.5910201968503932
 20
-4.158873267716535
 30
0
 11
5.5911267322834641
 21
-4.1589798031496059
 31
0
  0
LINE
  5
1A9
330
1A
100
AcDbEntity
  8
BLACK
  6
CONTINUOUS
100
AcDbLine
 10
5.5911267322834641
 20
-4.1589798031496059
 30
0
 11
5.5911417322834644
 21
-4.1590551181102358
 31
0
  0
LINE
  5
1AA
330
1A
100
AcDbEntity
  8
BLACK
  6
CONTINUOUS
100
AcDbLine
 10
5.5911417322834644
 20
-4.1590551181102358
 30
0
 11
5.5911417322834644
 21
-4.1834645669291337
 31
0
  0
LINE
  5
1AB
330
1A
100
AcDbEntity
  8
BLACK
  6
CONTINUOUS
100
AcDbLine
 10
5.5911417322834644
 20
-4.1834645669291337
 30
0
 11
5.5911267322834641
 21
-4.1835398818897636
 31
0
  0
LINE
  5
1AC
330
1A
100
AcDbEntity
  8
BLACK
  6
CONTINUOUS
100
AcDbLine
 10
5.5911267322834641
 20
-4.1835398818897636
 30
0
 11
5.5910201968503932
 21
-4.1836464173228345
 31
0
  0
LINE
  5
1AD
330
1A
100
AcDbEntity
  8
BLACK
  6
CONTINUOUS
100
AcDbLine
 10
5.5910201968503932
 20
-4.1836464173228345
 30
0
 11
5.5909448818897634
 21
-4.1836614173228348
 31
0
  0
LINE
  5
1AE
330
1A
100
AcDbEntity
  8
BLACK
  6
CONTINUOUS
100
AcDbLine
 10
5.5909448818897634
 20
-4.1836614173228348
 30
0
 11
5.5767716535433074
 21
-4.1836614173228348
 31
0
  0
LINE
  5
1AF
330
1A
100
AcDbEntity
  8
BLACK
  6
CONTINUOUS
100
AcDbLine
 10
5.5767716535433074
 20
-4.1836614173228348
 30
0
 11
5.5766963385826767
 21
-4.1836464173228345
 31
0
  0
LINE
  5
1B0
330
1A
100
AcDbEntity
  8
BLACK
  6
CONTINUOUS
100
AcDbLine
 10
5.5766963385826767
 20
-4.1836464173228345
 30
0
 11
5.5765898031496057
 21
-4.1835398818897636
 31
0
  0
LINE
  5
1B1
330
1A
100
AcDbEntity
  8
BLACK
  6
CONTINUOUS
100
AcDbLine
 10
5.5765898031496057
 20
-4.1835398818897636
 30
0
 11
5.5765748031496063
 21
-4.1834645669291337
 31
0
  0
LINE
  5
1B2
330
1A
100
AcDbEntity
  8
BLACK
  6
CONTINUOUS
100
AcDbLine
 10
5.5765748031496063
 20
-4.1834645669291337
 30
0
 11
5.5765748031496063
 21
-4.1590551181102358
 31
0
  0
LINE
  5
1B3
330
1A
100
AcDbEntity
  8
BLACK
  6
CONTINUOUS
100
AcDbLine
 10
5.5765748031496063
 20
-4.1590551181102358
 30
0
 11
5.5765898031496057
 21
-4.1589798031496059
 31
0
  0
LINE
  5
1B4
330
1A
100
AcDbEntity
  8
BLACK
  6
CONTINUOUS
100
AcDbLine
 10
5.5765898031496057
 20
-4.1589798031496059
 30
0
 11
5.5766963385826767
 21
-4.158873267716535
 31
0
  0
LINE
  5
1B5
330
1A
100
AcDbEntity
  8
BLACK
  6
CONTINUOUS
100
AcDbLine
 10
5.5766963385826767
 20
-4.158873267716535
 30
0
 11
5.5767716535433074
 21
-4.1588582677165356
 31
0
  0
LINE
  5
1B6
330
1A
100
AcDbEntity
  8
BLACK
  6
CONTINUOUS
100
AcDbLine
 10
5.5767716535433074
 20
-4.1588582677165356
 30
0
 11
5.5909448818897634
 21
-4.1588582677165356
 31
0
  0
LINE
  5
1B7
330
1A
100
AcDbEntity
  8
BLACK
  6
CONTINUOUS
100
AcDbLine
 10
5.5909448818897634
 20
-4.1588582677165356
 30
0
 11
5.5910201968503932
 21
-4.158873267716535
 31
0
  0
LINE
  5
1B8
330
1A
100
AcDbEntity
  8
BLACK
  6
CONTINUOUS
100
AcDbLine
 10
5.0023622047244096
 20
-4.1499999999999995
 30
0
 11
4.9937007874015746
 21
-4.1499999999999995
 31
0
  0
LINE
  5
1B9
330
1A
100
AcDbEntity
  8
BLACK
  6
CONTINUOUS
100
AcDbLine
 10
4.9937007874015746
 20
-4.1499999999999995
 30
0
 11
4.9937007874015746
 21
-4.1318897637795278
 31
0
  0
LINE
  5
1BA
330
1A
100
AcDbEntity
  8
BLACK
  6
CONTINUOUS
100
AcDbLine
 10
4.9937007874015746
 20
-4.1318897637795278
 30
0
 11
5.0023622047244096
 21
-4.1318897637795278
 31
0
  0
LINE
  5
1BB
330
1A
100
AcDbEntity
  8
BLACK
  6
CONTINUOUS
100
AcDbLine
 10
5.0023622047244096
 20
-4.1318897637795278
 30
0
 11
5.0023622047244096
 21
-4.1499999999999995
 31
0
  0
LINE
  5
1BC
330
1A
100
AcDbEntity
  8
BLACK
  6
CONTINUOUS
100
AcDbLine
 10
5.0220472440944883
 20
-4.1499999999999995
 30
0
 11
5.0133858267716533
 21
-4.1499999999999995
 31
0
  0
LINE
  5
1BD
330
1A
100
AcDbEntity
  8
BLACK
  6
CONTINUOUS
100
AcDbLine
 10
5.0133858267716533
 20
-4.1499999999999995
 30
0
 11
5.0133858267716533
 21
-4.1318897637795278
 31
0
  0
LINE
  5
1BE
330
1A
100
AcDbEntity
  8
BLACK
  6
CONTINUOUS
100
AcDbLine
 10
5.0133858267716533
 20
-4.1318897637795278
 30
0
 11
5.0220472440944883
 21
-4.1318897637795278
 31
0
  0
LINE
  5
1BF
330
1A
100
AcDbEntity
  8
BLACK
  6
CONTINUOUS
100
AcDbLine
 10
5.0220472440944883
 20
-4.1318897637795278
 30
0
 11
5.0220472440944883
 21
-4.1499999999999995
 31
0
  0
LINE
  5
1C0
330
1A
100
AcDbEntity
  8
BLACK
  6
CONTINUOUS
100
AcDbLine
 10
5.041732283464567
 20
-4.1499999999999995
 30
0
 11
5.033070866141732
 21
-4.1499999999999995
 31
0
  0
LINE
  5
1C1
330
1A
100
AcDbEntity
  8
BLACK
  6
CONTINUOUS
100
AcDbLine
 10
5.033070866141732
 20
-4.1499999999999995
 30
0
 11
5.033070866141732
 21
-4.1318897637795278
 31
0
  0
LINE
  5
1C2
330
1A
100
AcDbEntity
  8
BLACK
  6
CONTINUOUS
100
AcDbLine
 10
5.033070866141732
 20
-4.1318897637795278
 30
0
 11
5.041732283464567
 21
-4.1318897637795278
 31
0
  0
LINE
  5
1C3
330
1A
100
AcDbEntity
  8
BLACK
  6
CONTINUOUS
100
AcDbLine
 10
5.041732283464567
 20
-4.1318897637795278
 30
0
 11
5.041732283464567
 21
-4.1499999999999995
 31
0
  0
LINE
  5
1C4
330
1A
100
AcDbEntity
  8
BLACK
  6
CONTINUOUS
100
AcDbLine
 10
5.1874015748031495
 20
-4.1499999999999995
 30
0
 11
5.1787401574803145
 21
-4.1499999999999995
 31
0
  0
LINE
  5
1C5
330
1A
100
AcDbEntity
  8
BLACK
  6
CONTINUOUS
100
AcDbLine
 10
5.1787401574803145
 20
-4.1499999999999995
 30
0
 11
5.1787401574803145
 21
-4.1318897637795278
 31
0
  0
LINE
  5
1C6
330
1A
100
AcDbEntity
  8
BLACK
  6
CONTINUOUS
100
AcDbLine
 10
5.1787401574803145
 20
-4.1318897637795278
 30
0
 11
5.1874015748031495
 21
-4.1318897637795278
 31
0
  0
LINE
  5
1C7
330
1A
100
AcDbEntity
  8
BLACK
  6
CONTINUOUS
100
AcDbLine
 10
5.1874015748031495
 20
-4.1318897637795278
 30
0
 11
5.1874015748031495
 21
-4.1499999999999995
 31
0
  0
LINE
  5
1C8
330
1A
100
AcDbEntity
  8
BLACK
  6
CONTINUOUS
100
AcDbLine
 10
5.2070866141732282
 20
-4.1499999999999995
 30
0
 11
5.1984251968503932
 21
-4.1499999999999995
 31
0
  0
LINE
  5
1C9
330
1A
100
AcDbEntity
  8
BLACK
  6
CONTINUOUS
100
AcDbLine
 10
5.1984251968503932
 20
-4.1499999999999995
 30
0
 11
5.1984251968503932
 21
-4.1318897637795278
 31
0
  0
LINE
  5
1CA
330
1A
100
AcDbEntity
  8
BLACK
  6
CONTINUOUS
100
AcDbLine
 10
5.1984251968503932
 20
-4.1318897637795278
 30
0
 11
5.2070866141732282
 21
-4.1318897637795278
 31
0
  0
LINE
  5
1CB
330
1A
100
AcDbEntity
  8
BLACK
  6
CONTINUOUS
100
AcDbLine
 10
5.2070866141732282
 20
-4.1318897637795278
 30
0
 11
5.2070866141732282
 21
-4.1499999999999995
 31
0
  0
LINE
  5
1CC
330
1A
100
AcDbEntity
  8
BLACK
  6
CONTINUOUS
100
AcDbLine
 10
5.2267716535433069
 20
-4.1499999999999995
 30
0
 11
5.2181102362204728
 21
-4.1499999999999995
 31
0
  0
LINE
  5
1CD
330
1A
100
AcDbEntity
  8
BLACK
  6
CONTINUOUS
100
AcDbLine
 10
5.2181102362204728
 20
-4.1499999999999995
 30
0
 11
5.2181102362204728
 21
-4.1318897637795278
 31
0
  0
LINE
  5
1CE
330
1A
100
AcDbEntity
  8
BLACK
  6
CONTINUOUS
100
AcDbLine
 10
5.2181102362204728
 20
-4.1318897637795278
 30
0
 11
5.2267716535433069
 21
-4.1318897637795278
 31
0
  0
LINE
  5
1CF
330
1A
100
AcDbEntity
  8
BLACK
  6
CONTINUOUS
100
AcDbLine
 10
5.2267716535433069
 20
-4.1318897637795278
 30
0
 11
5.2267716535433069
 21
-4.1499999999999995
 31
0
  0
LINE
  5
1D0
330
1A
100
AcDbEntity
  8
BLACK
  6
CONTINUOUS
100
AcDbLine
 10
5.3724409448818893
 20
-4.1499999999999995
 30
0
 11
5.3637795275590552
 21
-4.1499999999999995
 31
0
  0
LINE
  5
1D1
330
1A
100
AcDbEntity
  8
BLACK
  6
CONTINUOUS
100
AcDbLine
 10
5.3637795275590552
 20
-4.1499999999999995
 30
0
 11
5.3637795275590552
 21
-4.1318897637795278
 31
0
  0
LINE
  5
1D2
330
1A
100
AcDbEntity
  8
BLACK
  6
CONTINUOUS
100
AcDbLine
 10
5.3637795275590552
 20
-4.1318897637795278
 30
0
 11
5.3724409448818893
 21
-4.1318897637795278
 31
0
  0
LINE
  5
1D3
330
1A
100
AcDbEntity
  8
BLACK
  6
CONTINUOUS
100
AcDbLine
 10
5.3724409448818893
 20
-4.1318897637795278
 30
0
 11
5.3724409448818893
 21
-4.1499999999999995
 31
0
  0
LINE
  5
1D4
330
1A
100
AcDbEntity
  8
BLACK
  6
CONTINUOUS
100
AcDbLine
 10
5.392125984251968
 20
-4.1499999999999995
 30
0
 11
5.3834645669291339
 21
-4.1499999999999995
 31
0
  0
LINE
  5
1D5
330
1A
100
AcDbEntity
  8
BLACK
  6
CONTINUOUS
100
AcDbLine
 10
5.3834645669291339
 20
-4.1499999999999995
 30
0
 11
5.3834645669291339
 21
-4.1318897637795278
 31
0
  0
LINE
  5
1D6
330
1A
100
AcDbEntity
  8
BLACK
  6
CONTINUOUS
100
AcDbLine
 10
5.3834645669291339
 20
-4.1318897637795278
 30
0
 11
5.392125984251968
 21
-4.1318897637795278
 31
0
  0
LINE
  5
1D7
330
1A
100
AcDbEntity
  8
BLACK
  6
CONTINUOUS
100
AcDbLine
 10
5.392125984251968
 20
-4.1318897637795278
 30
0
 11
5.392125984251968
 21
-4.1499999999999995
 31
0
  0
LINE
  5
1D8
330
1A
100
AcDbEntity
  8
BLACK
  6
CONTINUOUS
100
AcDbLine
 10
5.4118110236220467
 20
-4.1499999999999995
 30
0
 11
5.4031496062992126
 21
-4.1499999999999995
 31
0
  0
LINE
  5
1D9
330
1A
100
AcDbEntity
  8
BLACK
  6
CONTINUOUS
100
AcDbLine
 10
5.4031496062992126
 20
-4.1499999999999995
 30
0
 11
5.4031496062992126
 21
-4.1318897637795278
 31
0
  0
LINE
  5
1DA
330
1A
100
AcDbEntity
  8
BLACK
  6
CONTINUOUS
100
AcDbLine
 10
5.4031496062992126
 20
-4.1318897637795278
 30
0
 11
5.4118110236220467
 21
-4.1318897637795278
 31
0
  0
LINE
  5
1DB
330
1A
100
AcDbEntity
  8
BLACK
  6
CONTINUOUS
100
AcDbLine
 10
5.4118110236220467
 20
-4.1318897637795278
 30
0
 11
5.4118110236220467
 21
-4.1499999999999995
 31
0
  0
LINE
  5
1DC
330
1A
100
AcDbEntity
  8
BLACK
  6
CONTINUOUS
100
AcDbLine
 10
5.55748031496063
 20
-4.1499999999999995
 30
0
 11
5.548818897637795
 21
-4.1499999999999995
 31
0
  0
LINE
  5
1DD
330
1A
100
AcDbEntity
  8
BLACK
  6
CONTINUOUS
100
AcDbLine
 10
5.548818897637795
 20
-4.1499999999999995
 30
0
 11
5.548818897637795
 21
-4.1318897637795278
 31
0
  0
LINE
  5
1DE
330
1A
100
AcDbEntity
  8
BLACK
  6
CONTINUOUS
100
AcDbLine
 10
5.548818897637795
 20
-4.1318897637795278
 30
0
 11
5.55748031496063
 21
-4.1318897637795278
 31
0
  0
LINE
  5
1DF
330
1A
100
AcDbEntity
  8
BLACK
  6
CONTINUOUS
100
AcDbLine
 10
5.55748031496063
 20
-4.1318897637795278
 30
0
 11
5.55748031496063
 21
-4.1499999999999995
 31
0
  0
LINE
  5
1E0
330
1A
100
AcDbEntity
  8
BLACK
  6
CONTINUOUS
100
AcDbLine
 10
5.5771653543307087
 20
-4.1499999999999995
 30
0
 11
5.5685039370078737
 21
-4.1499999999999995
 31
0
  0
LINE
  5
1E1
330
1A
100
AcDbEntity
  8
BLACK
  6
CONTINUOUS
100
AcDbLine
 10
5.5685039370078737
 20
-4.1499999999999995
 30
0
 11
5.5685039370078737
 21
-4.1318897637795278
 31
0
  0
LINE
  5
1E2
330
1A
100
AcDbEntity
  8
BLACK
  6
CONTINUOUS
100
AcDbLine
 10
5.5685039370078737
 20
-4.1318897637795278
 30
0
 11
5.5771653543307087
 21
-4.1318897637795278
 31
0
  0
LINE
  5
1E3
330
1A
100
AcDbEntity
  8
BLACK
  6
CONTINUOUS
100
AcDbLine
 10
5.5771653543307087
 20
-4.1318897637795278
 30
0
 11
5.5771653543307087
 21
-4.1499999999999995
 31
0
  0
LINE
  5
1E4
330
1A
100
AcDbEntity
  8
BLACK
  6
CONTINUOUS
100
AcDbLine
 10
5.5968503937007874
 20
-4.1499999999999995
 30
0
 11
5.5881889763779524
 21
-4.1499999999999995
 31
0
  0
LINE
  5
1E5
330
1A
100
AcDbEntity
  8
BLACK
  6
CONTINUOUS
100
AcDbLine
 10
5.5881889763779524
 20
-4.1499999999999995
 30
0
 11
5.5881889763779524
 21
-4.1318897637795278
 31
0
  0
LINE
  5
1E6
330
1A
100
AcDbEntity
  8
BLACK
  6
CONTINUOUS
100
AcDbLine
 10
5.5881889763779524
 20
-4.1318897637795278
 30
0
 11
5.5968503937007874
 21
-4.1318897637795278
 31
0
  0
LINE
  5
1E7
330
1A
100
AcDbEntity
  8
BLACK
  6
CONTINUOUS
100
AcDbLine
 10
5.5968503937007874
 20
-4.1318897637795278
 30
0
 11
5.5968503937007874
 21
-4.1499999999999995
 31
0
  0
LINE
  5
1E8
330
1A
100
AcDbEntity
  8
BLACK
  6
CONTINUOUS
100
AcDbLine
 10
5.0023622047244096
 20
-4.0255905511811019
 30
0
 11
4.9937007874015746
 21
-4.0255905511811019
 31
0
  0
LINE
  5
1E9
330
1A
100
AcDbEntity
  8
BLACK
  6
CONTINUOUS
100
AcDbLine
 10
4.9937007874015746
 20
-4.0255905511811019
 30
0
 11
4.9937007874015746
 21
-4.0074803149606302
 31
0
  0
LINE
  5
1EA
330
1A
100
AcDbEntity
  8
BLACK
  6
CONTINUOUS
100
AcDbLine
 10
4.9937007874015746
 20
-4.0074803149606302
 30
0
 11
5.0023622047244096
 21
-4.0074803149606302
 31
0
  0
LINE
  5
1EB
330
1A
100
AcDbEntity
  8
BLACK
  6
CONTINUOUS
100
AcDbLine
 10
5.0023622047244096
 20
-4.0074803149606302
 30
0
 11
5.0023622047244096
 21
-4.0255905511811019
 31
0
  0
LINE
  5
1EC
330
1A
100
AcDbEntity
  8
BLACK
  6
CONTINUOUS
100
AcDbLine
 10
5.0220472440944883
 20
-4.0255905511811019
 30
0
 11
5.0133858267716533
 21
-4.0255905511811019
 31
0
  0
LINE
  5
1ED
330
1A
100
AcDbEntity
  8
BLACK
  6
CONTINUOUS
100
AcDbLine
 10
5.0133858267716533
 20
-4.0255905511811019
 30
0
 11
5.0133858267716533
 21
-4.0074803149606302
 31
0
  0
LINE
  5
1EE
330
1A
100
AcDbEntity
  8
BLACK
  6
CONTINUOUS
100
AcDbLine
 10
5.0133858267716533
 20
-4.0074803149606302
 30
0
 11
5.0220472440944883
 21
-4.0074803149606302
 31
0
  0
LINE
  5
1EF
330
1A
100
AcDbEntity
  8
BLACK
  6
CONTINUOUS
100
AcDbLine
 10
5.0220472440944883
 20
-4.0074803149606302
 30
0
 11
5.0220472440944883
 21
-4.0255905511811019
 31
0
  0
LINE
  5
1F0
330
1A
100
AcDbEntity
  8
BLACK
  6
CONTINUOUS
100
AcDbLine
 10
5.041732283464567
 20
-4.0255905511811019
 30
0
 11
5.033070866141732
 21
-4.0255905511811019
 31
0
  0
LINE
  5
1F1
330
1A
100
AcDbEntity
  8
BLACK
  6
CONTINUOUS
100
AcDbLine
 10
5.033070866141732
 20
-4.0255905511811019
 30
0
 11
5.033070866141732
 21
-4.0074803149606302
 31
0
  0
LINE
  5
1F2
330
1A
100
AcDbEntity
  8
BLACK
  6
CONTINUOUS
100
AcDbLine
 10
5.033070866141732
 20
-4.0074803149606302
 30
0
 11
5.041732283464567
 21
-4.0074803149606302
 31
0
  0
LINE
  5
1F3
330
1A
100
AcDbEntity
  8
BLACK
  6
CONTINUOUS
100
AcDbLine
 10
5.041732283464567
 20
-4.0074803149606302
 30
0
 11
5.041732283464567
 21
-4.0255905511811019
 31
0
  0
LINE
  5
1F4
330
1A
100
AcDbEntity
  8
BLACK
  6
CONTINUOUS
100
AcDbLine
 10
5.1874015748031495
 20
-4.0255905511811019
 30
0
 11
5.1787401574803145
 21
-4.0255905511811019
 31
0
  0
LINE
  5
1F5
330
1A
100
AcDbEntity
  8
BLACK
  6
CONTINUOUS
100
AcDbLine
 10
5.1787401574803145
 20
-4.0255905511811019
 30
0
 11
5.1787401574803145
 21
-4.0074803149606302
 31
0
  0
LINE
  5
1F6
330
1A
100
AcDbEntity
  8
BLACK
  6
CONTINUOUS
100
AcDbLine
 10
5.1787401574803145
 20
-4.0074803149606302
 30
0
 11
5.1874015748031495
 21
-4.0074803149606302
 31
0
  0
LINE
  5
1F7
330
1A
100
AcDbEntity
  8
BLACK
  6
CONTINUOUS
100
AcDbLine
 10
5.1874015748031495
 20
-4.0074803149606302
 30
0
 11
5.1874015748031495
 21
-4.0255905511811019
 31
0
  0
LINE
  5
1F8
330
1A
100
AcDbEntity
  8
BLACK
  6
CONTINUOUS
100
AcDbLine
 10
5.2070866141732282
 20
-4.0255905511811019
 30
0
 11
5.1984251968503932
 21
-4.0255905511811019
 31
0
  0
LINE
  5
1F9
330
1A
100
AcDbEntity
  8
BLACK
  6
CONTINUOUS
100
AcDbLine
 10
5.1984251968503932
 20
-4.0255905511811019
 30
0
 11
5.1984251968503932
 21
-4.0074803149606302
 31
0
  0
LINE
  5
1FA
330
1A
100
AcDbEntity
  8
BLACK
  6
CONTINUOUS
100
AcDbLine
 10
5.1984251968503932
 20
-4.0074803149606302
 30
0
 11
5.2070866141732282
 21
-4.0074803149606302
 31
0
  0
LINE
  5
1FB
330
1A
100
AcDbEntity
  8
BLACK
  6
CONTINUOUS
100
AcDbLine
 10
5.2070866141732282
 20
-4.0074803149606302
 30
0
 11
5.2070866141732282
 21
-4.0255905511811019
 31
0
  0
LINE
  5
1FC
330
1A
100
AcDbEntity
  8
BLACK
  6
CONTINUOUS
100
AcDbLine
 10
5.2267716535433069
 20
-4.0255905511811019
 30
0
 11
5.2181102362204728
 21
-4.0255905511811019
 31
0
  0
LINE
  5
1FD
330
1A
100
AcDbEntity
  8
BLACK
  6
CONTINUOUS
100
AcDbLine
 10
5.2181102362204728
 20
-4.0255905511811019
 30
0
 11
5.2181102362204728
 21
-4.0074803149606302
 31
0
  0
LINE
  5
1FE
330
1A
100
AcDbEntity
  8
BLACK
  6
CONTINUOUS
100
AcDbLine
 10
5.2181102362204728
 20
-4.0074803149606302
 30
0
 11
5.2267716535433069
 21
-4.0074803149606302
 31
0
  0
LINE
  5
1FF
330
1A
100
AcDbEntity
  8
BLACK
  6
CONTINUOUS
100
AcDbLine
 10
5.2267716535433069
 20
-4.0074803149606302
 30
0
 11
5.2267716535433069
 21
-4.0255905511811019
 31
0
  0
LINE
  5
200
330
1A
100
AcDbEntity
  8
BLACK
  6
CONTINUOUS
100
AcDbLine
 10
5.3724409448818893
 20
-4.0255905511811019
 30
0
 11
5.3637795275590552
 21
-4.0255905511811019
 31
0
  0
LINE
  5
201
330
1A
100
AcDbEntity
  8
BLACK
  6
CONTINUOUS
100
AcDbLine
 10
5.3637795275590552
 20
-4.0255905511811019
 30
0
 11
5.3637795275590552
 21
-4.0074803149606302
 31
0
  0
LINE
  5
202
330
1A
100
AcDbEntity
  8
BLACK
  6
CONTINUOUS
100
AcDbLine
 10
5.3637795275590552
 20
-4.0074803149606302
 30
0
 11
5.3724409448818893
 21
-4.0074803149606302
 31
0
  0
LINE
  5
203
330
1A
100
AcDbEntity
  8
BLACK
  6
CONTINUOUS
100
AcDbLine
 10
5.3724409448818893
 20
-4.0074803149606302
 30
0
 11
5.3724409448818893
 21
-4.0255905511811019
 31
0
  0
LINE
  5
204
330
1A
100
AcDbEntity
  8
BLACK
  6
CONTINUOUS
100
AcDbLine
 10
5.392125984251968
 20
-4.0255905511811019
 30
0
 11
5.3834645669291339
 21
-4.0255905511811019
 31
0
  0
LINE
  5
205
330
1A
100
AcDbEntity
  8
BLACK
  6
CONTINUOUS
100
AcDbLine
 10
5.3834645669291339
 20
-4.0255905511811019
 30
0
 11
5.3834645669291339
 21
-4.0074803149606302
 31
0
  0
LINE
  5
206
330
1A
100
AcDbEntity
  8
BLACK
  6
CONTINUOUS
100
AcDbLine
 10
5.3834645669291339
 20
-4.0074803149606302
 30
0
 11
5.392125984251968
 21
-4.0074803149606302
 31
0
  0
LINE
  5
207
330
1A
100
AcDbEntity
  8
BLACK
  6
CONTINUOUS
100
AcDbLine
 10
5.392125984251968
 20
-4.0074803149606302
 30
0
 11
5.392125984251968
 21
-4.0255905511811019
 31
0
  0
LINE
  5
208
330
1A
100
AcDbEntity
  8
BLACK
  6
CONTINUOUS
100
AcDbLine
 10
5.4118110236220467
 20
-4.0255905511811019
 30
0
 11
5.4031496062992126
 21
-4.0255905511811019
 31
0
  0
LINE
  5
209
330
1A
100
AcDbEntity
  8
BLACK
  6
CONTINUOUS
100
AcDbLine
 10
5.4031496062992126
 20
-4.0255905511811019
 30
0
 11
5.4031496062992126
 21
-4.0074803149606302
 31
0
  0
LINE
  5
20A
330
1A
100
AcDbEntity
  8
BLACK
  6
CONTINUOUS
100
AcDbLine
 10
5.4031496062992126
 20
-4.0074803149606302
 30
0
 11
5.4118110236220467
 21
-4.0074803149606302
 31
0
  0
LINE
  5
20B
330
1A
100
AcDbEntity
  8
BLACK
  6
CONTINUOUS
100
AcDbLine
 10
5.4118110236220467
 20
-4.0074803149606302
 30
0
 11
5.4118110236220467
 21
-4.0255905511811019
 31
0
  0
LINE
  5
20C
330
1A
100
AcDbEntity
  8
BLACK
  6
CONTINUOUS
100
AcDbLine
 10
5.55748031496063
 20
-4.0255905511811019
 30
0
 11
5.548818897637795
 21
-4.0255905511811019
 31
0
  0
LINE
  5
20D
330
1A
100
AcDbEntity
  8
BLACK
  6
CONTINUOUS
100
AcDbLine
 10
5.548818897637795
 20
-4.0255905511811019
 30
0
 11
5.548818897637795
 21
-4.0074803149606302
 31
0
  0
LINE
  5
20E
330
1A
100
AcDbEntity
  8
BLACK
  6
CONTINUOUS
100
AcDbLine
 10
5.548818897637795
 20
-4.0074803149606302
 30
0
 11
5.55748031496063
 21
-4.0074803149606302
 31
0
  0
LINE
  5
20F
330
1A
100
AcDbEntity
  8
BLACK
  6
CONTINUOUS
100
AcDbLine
 10
5.55748031496063
 20
-4.0074803149606302
 30
0
 11
5.55748031496063
 21
-4.0255905511811019
 31
0
  0
LINE
  5
210
330
1A
100
AcDbEntity
  8
BLACK
  6
CONTINUOUS
100
AcDbLine
 10
5.5771653543307087
 20
-4.0255905511811019
 30
0
 11
5.5685039370078737
 21
-4.0255905511811019
 31
0
  0
LINE
  5
211
330
1A
100
AcDbEntity
  8
BLACK
  6
CONTINUOUS
100
AcDbLine
 10
5.5685039370078737
 20
-4.0255905511811019
 30
0
 11
5.5685039370078737
 21
-4.0074803149606302
 31
0
  0
LINE
  5
212
330
1A
100
AcDbEntity
  8
BLACK
  6
CONTINUOUS
100
AcDbLine
 10
5.5685039370078737
 20
-4.0074803149606302
 30
0
 11
5.5771653543307087
 21
-4.0074803149606302
 31
0
  0
LINE
  5
213
330
1A
100
AcDbEntity
  8
BLACK
  6
CONTINUOUS
100
AcDbLine
 10
5.5771653543307087
 20
-4.0074803149606302
 30
0
 11
5.5771653543307087
 21
-4.0255905511811019
 31
0
  0
LINE
  5
214
330
1A
100
AcDbEntity
  8
BLACK
  6
CONTINUOUS
100
AcDbLine
 10
5.5968503937007874
 20
-4.0255905511811019
 30
0
 11
5.5881889763779524
 21
-4.0255905511811019
 31
0
  0
LINE
  5
215
330
1A
100
AcDbEntity
  8
BLACK
  6
CONTINUOUS
100
AcDbLine
 10
5.5881889763779524
 20
-4.0255905511811019
 30
0
 11
5.5881889763779524
 21
-4.0074803149606302
 31
0
  0
LINE
  5
216
330
1A
100
AcDbEntity
  8
BLACK
  6
CONTINUOUS
100
AcDbLine
 10
5.5881889763779524
 20
-4.0074803149606302
 30
0
 11
5.5968503937007874
 21
-4.0074803149606302
 31
0
  0
LINE
  5
217
330
1A
100
AcDbEntity
  8
BLACK
  6
CONTINUOUS
100
AcDbLine
 10
5.5968503937007874
 20
-4.0074803149606302
 30
0
 11
5.5968503937007874
 21
-4.0255905511811019
 31
0
  0
LINE
  5
218
330
1A
100
AcDbEntity
  8
BLACK
  6
CONTINUOUS
100
AcDbLine
 10
5.0138548425196845
 20
-3.9738338976377952
 30
0
 11
5.0139613779527554
 21
-3.9739404330708661
 31
0
  0
LINE
  5
219
330
1A
100
AcDbEntity
  8
BLACK
  6
CONTINUOUS
100
AcDbLine
 10
5.0139613779527554
 20
-3.9739404330708661
 30
0
 11
5.0139763779527557
 21
-3.9740157480314959
 31
0
  0
LINE
  5
21A
330
1A
100
AcDbEntity
  8
BLACK
  6
CONTINUOUS
100
AcDbLine
 10
5.0139763779527557
 20
-3.9740157480314959
 30
0
 11
5.0139763779527557
 21
-3.9984251968503934
 31
0
  0
LINE
  5
21B
330
1A
100
AcDbEntity
  8
BLACK
  6
CONTINUOUS
100
AcDbLine
 10
5.0139763779527557
 20
-3.9984251968503934
 30
0
 11
5.0139613779527554
 21
-3.9985005118110237
 31
0
  0
LINE
  5
21C
330
1A
100
AcDbEntity
  8
BLACK
  6
CONTINUOUS
100
AcDbLine
 10
5.0139613779527554
 20
-3.9985005118110237
 30
0
 11
5.0138548425196845
 21
-3.9986070472440942
 31
0
  0
LINE
  5
21D
330
1A
100
AcDbEntity
  8
BLACK
  6
CONTINUOUS
100
AcDbLine
 10
5.0138548425196845
 20
-3.9986070472440942
 30
0
 11
5.0137795275590546
 21
-3.9986220472440945
 31
0
  0
LINE
  5
21E
330
1A
100
AcDbEntity
  8
BLACK
  6
CONTINUOUS
100
AcDbLine
 10
5.0137795275590546
 20
-3.9986220472440945
 30
0
 11
4.9996062992125987
 21
-3.9986220472440945
 31
0
  0
LINE
  5
21F
330
1A
100
AcDbEntity
  8
BLACK
  6
CONTINUOUS
100
AcDbLine
 10
4.9996062992125987
 20
-3.9986220472440945
 30
0
 11
4.999530984251968
 21
-3.9986070472440942
 31
0
  0
LINE
  5
220
330
1A
100
AcDbEntity
  8
BLACK
  6
CONTINUOUS
100
AcDbLine
 10
4.999530984251968
 20
-3.9986070472440942
 30
0
 11
4.9994244488188979
 21
-3.9985005118110237
 31
0
  0
LINE
  5
221
330
1A
100
AcDbEntity
  8
BLACK
  6
CONTINUOUS
100
AcDbLine
 10
4.9994244488188979
 20
-3.9985005118110237
 30
0
 11
4.9994094488188976
 21
-3.9984251968503934
 31
0
  0
LINE
  5
222
330
1A
100
AcDbEntity
  8
BLACK
  6
CONTINUOUS
100
AcDbLine
 10
4.9994094488188976
 20
-3.9984251968503934
 30
0
 11
4.9994094488188976
 21
-3.9740157480314959
 31
0
  0
LINE
  5
223
330
1A
100
AcDbEntity
  8
BLACK
  6
CONTINUOUS
100
AcDbLine
 10
4.9994094488188976
 20
-3.9740157480314959
 30
0
 11
4.9994244488188979
 21
-3.9739404330708661
 31
0
  0
LINE
  5
224
330
1A
100
AcDbEntity
  8
BLACK
  6
CONTINUOUS
100
AcDbLine
 10
4.9994244488188979
 20
-3.9739404330708661
 30
0
 11
4.999530984251968
 21
-3.9738338976377952
 31
0
  0
LINE
  5
225
330
1A
100
AcDbEntity
  8
BLACK
  6
CONTINUOUS
100
AcDbLine
 10
4.999530984251968
 20
-3.9738338976377952
 30
0
 11
4.9996062992125987
 21
-3.9738188976377953
 31
0
  0
LINE
  5
226
330
1A
100
AcDbEntity
  8
BLACK
  6
CONTINUOUS
100
AcDbLine
 10
4.9996062992125987
 20
-3.9738188976377953
 30
0
 11
5.0137795275590546
 21
-3.9738188976377953
 31
0
  0
LINE
  5
227
330
1A
100
AcDbEntity
  8
BLACK
  6
CONTINUOUS
100
AcDbLine
 10
5.0137795275590546
 20
-3.9738188976377953
 30
0
 11
5.0138548425196845
 21
-3.9738338976377952
 31
0
  0
LINE
  5
228
330
1A
100
AcDbEntity
  8
BLACK
  6
CONTINUOUS
100
AcDbLine
 10
5.0359020866141728
 20
-3.9738338976377952
 30
0
 11
5.0360086220472438
 21
-3.9739404330708661
 31
0
  0
LINE
  5
229
330
1A
100
AcDbEntity
  8
BLACK
  6
CONTINUOUS
100
AcDbLine
 10
5.0360086220472438
 20
-3.9739404330708661
 30
0
 11
5.0360236220472441
 21
-3.9740157480314959
 31
0
  0
LINE
  5
22A
330
1A
100
AcDbEntity
  8
BLACK
  6
CONTINUOUS
100
AcDbLine
 10
5.0360236220472441
 20
-3.9740157480314959
 30
0
 11
5.0360236220472441
 21
-3.9984251968503934
 31
0
  0
LINE
  5
22B
330
1A
100
AcDbEntity
  8
BLACK
  6
CONTINUOUS
100
AcDbLine
 10
5.0360236220472441
 20
-3.9984251968503934
 30
0
 11
5.0360086220472438
 21
-3.9985005118110237
 31
0
  0
LINE
  5
22C
330
1A
100
AcDbEntity
  8
BLACK
  6
CONTINUOUS
100
AcDbLine
 10
5.0360086220472438
 20
-3.9985005118110237
 30
0
 11
5.0359020866141728
 21
-3.9986070472440942
 31
0
  0
LINE
  5
22D
330
1A
100
AcDbEntity
  8
BLACK
  6
CONTINUOUS
100
AcDbLine
 10
5.0359020866141728
 20
-3.9986070472440942
 30
0
 11
5.035826771653543
 21
-3.9986220472440945
 31
0
  0
LINE
  5
22E
330
1A
100
AcDbEntity
  8
BLACK
  6
CONTINUOUS
100
AcDbLine
 10
5.035826771653543
 20
-3.9986220472440945
 30
0
 11
5.0216535433070861
 21
-3.9986220472440945
 31
0
  0
LINE
  5
22F
330
1A
100
AcDbEntity
  8
BLACK
  6
CONTINUOUS
100
AcDbLine
 10
5.0216535433070861
 20
-3.9986220472440945
 30
0
 11
5.0215782283464563
 21
-3.9986070472440942
 31
0
  0
LINE
  5
230
330
1A
100
AcDbEntity
  8
BLACK
  6
CONTINUOUS
100
AcDbLine
 10
5.0215782283464563
 20
-3.9986070472440942
 30
0
 11
5.0214716929133854
 21
-3.9985005118110237
 31
0
  0
LINE
  5
231
330
1A
100
AcDbEntity
  8
BLACK
  6
CONTINUOUS
100
AcDbLine
 10
5.0214716929133854
 20
-3.9985005118110237
 30
0
 11
5.0214566929133859
 21
-3.9984251968503934
 31
0
  0
LINE
  5
232
330
1A
100
AcDbEntity
  8
BLACK
  6
CONTINUOUS
100
AcDbLine
 10
5.0214566929133859
 20
-3.9984251968503934
 30
0
 11
5.0214566929133859
 21
-3.9740157480314959
 31
0
  0
LINE
  5
233
330
1A
100
AcDbEntity
  8
BLACK
  6
CONTINUOUS
100
AcDbLine
 10
5.0214566929133859
 20
-3.9740157480314959
 30
0
 11
5.0214716929133854
 21
-3.9739404330708661
 31
0
  0
LINE
  5
234
330
1A
100
AcDbEntity
  8
BLACK
  6
CONTINUOUS
100
AcDbLine
 10
5.0214716929133854
 20
-3.9739404330708661
 30
0
 11
5.0215782283464563
 21
-3.9738338976377952
 31
0
  0
LINE
  5
235
330
1A
100
AcDbEntity
  8
BLACK
  6
CONTINUOUS
100
AcDbLine
 10
5.0215782283464563
 20
-3.9738338976377952
 30
0
 11
5.0216535433070861
 21
-3.9738188976377953
 31
0
  0
LINE
  5
236
330
1A
100
AcDbEntity
  8
BLACK
  6
CONTINUOUS
100
AcDbLine
 10
5.0216535433070861
 20
-3.9738188976377953
 30
0
 11
5.035826771653543
 21
-3.9738188976377953
 31
0
  0
LINE
  5
237
330
1A
100
AcDbEntity
  8
BLACK
  6
CONTINUOUS
100
AcDbLine
 10
5.035826771653543
 20
-3.9738188976377953
 30
0
 11
5.0359020866141728
 21
-3.9738338976377952
 31
0
  0
LINE
  5
238
330
1A
100
AcDbEntity
  8
BLACK
  6
CONTINUOUS
100
AcDbLine
 10
5.1988942125984252
 20
-3.9738338976377952
 30
0
 11
5.1990007480314961
 21
-3.9739404330708661
 31
0
  0
LINE
  5
239
330
1A
100
AcDbEntity
  8
BLACK
  6
CONTINUOUS
100
AcDbLine
 10
5.1990007480314961
 20
-3.9739404330708661
 30
0
 11
5.1990157480314956
 21
-3.9740157480314959
 31
0
  0
LINE
  5
23A
330
1A
100
AcDbEntity
  8
BLACK
  6
CONTINUOUS
100
AcDbLine
 10
5.1990157480314956
 20
-3.9740157480314959
 30
0
 11
5.1990157480314956
 21
-3.9984251968503934
 31
0
  0
LINE
  5
23B
330
1A
100
AcDbEntity
  8
BLACK
  6
CONTINUOUS
100
AcDbLine
 10
5.1990157480314956
 20
-3.9984251968503934
 30
0
 11
5.1990007480314961
 21
-3.9985005118110237
 31
0
  0
LINE
  5
23C
330
1A
100
AcDbEntity
  8
BLACK
  6
CONTINUOUS
100
AcDbLine
 10
5.1990007480314961
 20
-3.9985005118110237
 30
0
 11
5.1988942125984252
 21
-3.9986070472440942
 31
0
  0
LINE
  5
23D
330
1A
100
AcDbEntity
  8
BLACK
  6
CONTINUOUS
100
AcDbLine
 10
5.1988942125984252
 20
-3.9986070472440942
 30
0
 11
5.1988188976377954
 21
-3.9986220472440945
 31
0
  0
LINE
  5
23E
330
1A
100
AcDbEntity
  8
BLACK
  6
CONTINUOUS
100
AcDbLine
 10
5.1988188976377954
 20
-3.9986220472440945
 30
0
 11
5.1846456692913385
 21
-3.9986220472440945
 31
0
  0
LINE
  5
23F
330
1A
100
AcDbEntity
  8
BLACK
  6
CONTINUOUS
100
AcDbLine
 10
5.1846456692913385
 20
-3.9986220472440945
 30
0
 11
5.1845703543307087
 21
-3.9986070472440942
 31
0
  0
LINE
  5
240
330
1A
100
AcDbEntity
  8
BLACK
  6
CONTINUOUS
100
AcDbLine
 10
5.1845703543307087
 20
-3.9986070472440942
 30
0
 11
5.1844638188976377
 21
-3.9985005118110237
 31
0
  0
LINE
  5
241
330
1A
100
AcDbEntity
  8
BLACK
  6
CONTINUOUS
100
AcDbLine
 10
5.1844638188976377
 20
-3.9985005118110237
 30
0
 11
5.1844488188976374
 21
-3.9984251968503934
 31
0
  0
LINE
  5
242
330
1A
100
AcDbEntity
  8
BLACK
  6
CONTINUOUS
100
AcDbLine
 10
5.1844488188976374
 20
-3.9984251968503934
 30
0
 11
5.1844488188976374
 21
-3.9740157480314959
 31
0
  0
LINE
  5
243
330
1A
100
AcDbEntity
  8
BLACK
  6
CONTINUOUS
100
AcDbLine
 10
5.1844488188976374
 20
-3.9740157480314959
 30
0
 11
5.1844638188976377
 21
-3.9739404330708661
 31
0
  0
LINE
  5
244
330
1A
100
AcDbEntity
  8
BLACK
  6
CONTINUOUS
100
AcDbLine
 10
5.1844638188976377
 20
-3.9739404330708661
 30
0
 11
5.1845703543307087
 21
-3.9738338976377952
 31
0
  0
LINE
  5
245
330
1A
100
AcDbEntity
  8
BLACK
  6
CONTINUOUS
100
AcDbLine
 10
5.1845703543307087
 20
-3.9738338976377952
 30
0
 11
5.1846456692913385
 21
-3.9738188976377953
 31
0
  0
LINE
  5
246
330
1A
100
AcDbEntity
  8
BLACK
  6
CONTINUOUS
100
AcDbLine
 10
5.1846456692913385
 20
-3.9738188976377953
 30
0
 11
5.1988188976377954
 21
-3.9738188976377953
 31
0
  0
LINE
  5
247
330
1A
100
AcDbEntity
  8
BLACK
  6
CONTINUOUS
100
AcDbLine
 10
5.1988188976377954
 20
-3.9738188976377953
 30
0
 11
5.1988942125984252
 21
-3.9738338976377952
 31
0
  0
LINE
  5
248
330
1A
100
AcDbEntity
  8
BLACK
  6
CONTINUOUS
100
AcDbLine
 10
5.2209414566929135
 20
-3.9738338976377952
 30
0
 11
5.2210479921259845
 21
-3.9739404330708661
 31
0
  0
LINE
  5
249
330
1A
100
AcDbEntity
  8
BLACK
  6
CONTINUOUS
100
AcDbLine
 10
5.2210479921259845
 20
-3.9739404330708661
 30
0
 11
5.2210629921259839
 21
-3.9740157480314959
 31
0
  0
LINE
  5
24A
330
1A
100
AcDbEntity
  8
BLACK
  6
CONTINUOUS
100
AcDbLine
 10
5.2210629921259839
 20
-3.9740157480314959
 30
0
 11
5.2210629921259839
 21
-3.9984251968503934
 31
0
  0
LINE
  5
24B
330
1A
100
AcDbEntity
  8
BLACK
  6
CONTINUOUS
100
AcDbLine
 10
5.2210629921259839
 20
-3.9984251968503934
 30
0
 11
5.2210479921259845
 21
-3.9985005118110237
 31
0
  0
LINE
  5
24C
330
1A
100
AcDbEntity
  8
BLACK
  6
CONTINUOUS
100
AcDbLine
 10
5.2210479921259845
 20
-3.9985005118110237
 30
0
 11
5.2209414566929135
 21
-3.9986070472440942
 31
0
  0
LINE
  5
24D
330
1A
100
AcDbEntity
  8
BLACK
  6
CONTINUOUS
100
AcDbLine
 10
5.2209414566929135
 20
-3.9986070472440942
 30
0
 11
5.2208661417322837
 21
-3.9986220472440945
 31
0
  0
LINE
  5
24E
330
1A
100
AcDbEntity
  8
BLACK
  6
CONTINUOUS
100
AcDbLine
 10
5.2208661417322837
 20
-3.9986220472440945
 30
0
 11
5.2066929133858268
 21
-3.9986220472440945
 31
0
  0
LINE
  5
24F
330
1A
100
AcDbEntity
  8
BLACK
  6
CONTINUOUS
100
AcDbLine
 10
5.2066929133858268
 20
-3.9986220472440945
 30
0
 11
5.206617598425197
 21
-3.9986070472440942
 31
0
  0
LINE
  5
250
330
1A
100
AcDbEntity
  8
BLACK
  6
CONTINUOUS
100
AcDbLine
 10
5.206617598425197
 20
-3.9986070472440942
 30
0
 11
5.2065110629921261
 21
-3.9985005118110237
 31
0
  0
LINE
  5
251
330
1A
100
AcDbEntity
  8
BLACK
  6
CONTINUOUS
100
AcDbLine
 10
5.2065110629921261
 20
-3.9985005118110237
 30
0
 11
5.2064960629921258
 21
-3.9984251968503934
 31
0
  0
LINE
  5
252
330
1A
100
AcDbEntity
  8
BLACK
  6
CONTINUOUS
100
AcDbLine
 10
5.2064960629921258
 20
-3.9984251968503934
 30
0
 11
5.2064960629921258
 21
-3.9740157480314959
 31
0
  0
LINE
  5
253
330
1A
100
AcDbEntity
  8
BLACK
  6
CONTINUOUS
100
AcDbLine
 10
5.2064960629921258
 20
-3.9740157480314959
 30
0
 11
5.2065110629921261
 21
-3.9739404330708661
 31
0
  0
LINE
  5
254
330
1A
100
AcDbEntity
  8
BLACK
  6
CONTINUOUS
100
AcDbLine
 10
5.2065110629921261
 20
-3.9739404330708661
 30
0
 11
5.206617598425197
 21
-3.9738338976377952
 31
0
  0
LINE
  5
255
330
1A
100
AcDbEntity
  8
BLACK
  6
CONTINUOUS
100
AcDbLine
 10
5.206617598425197
 20
-3.9738338976377952
 30
0
 11
5.2066929133858268
 21
-3.9738188976377953
 31
0
  0
LINE
  5
256
330
1A
100
AcDbEntity
  8
BLACK
  6
CONTINUOUS
100
AcDbLine
 10
5.2066929133858268
 20
-3.9738188976377953
 30
0
 11
5.2208661417322837
 21
-3.9738188976377953
 31
0
  0
LINE
  5
257
330
1A
100
AcDbEntity
  8
BLACK
  6
CONTINUOUS
100
AcDbLine
 10
5.2208661417322837
 20
-3.9738188976377953
 30
0
 11
5.2209414566929135
 21
-3.9738338976377952
 31
0
  0
LINE
  5
258
330
1A
100
AcDbEntity
  8
BLACK
  6
CONTINUOUS
100
AcDbLine
 10
5.383933582677165
 20
-3.9738338976377952
 30
0
 11
5.384040118110236
 21
-3.9739404330708661
 31
0
  0
LINE
  5
259
330
1A
100
AcDbEntity
  8
BLACK
  6
CONTINUOUS
100
AcDbLine
 10
5.384040118110236
 20
-3.9739404330708661
 30
0
 11
5.3840551181102363
 21
-3.9740157480314959
 31
0
  0
LINE
  5
25A
330
1A
100
AcDbEntity
  8
BLACK
  6
CONTINUOUS
100
AcDbLine
 10
5.3840551181102363
 20
-3.9740157480314959
 30
0
 11
5.3840551181102363
 21
-3.9984251968503934
 31
0
  0
LINE
  5
25B
330
1A
100
AcDbEntity
  8
BLACK
  6
CONTINUOUS
100
AcDbLine
 10
5.3840551181102363
 20
-3.9984251968503934
 30
0
 11
5.384040118110236
 21
-3.9985005118110237
 31
0
  0
LINE
  5
25C
330
1A
100
AcDbEntity
  8
BLACK
  6
CONTINUOUS
100
AcDbLine
 10
5.384040118110236
 20
-3.9985005118110237
 30
0
 11
5.383933582677165
 21
-3.9986070472440942
 31
0
  0
LINE
  5
25D
330
1A
100
AcDbEntity
  8
BLACK
  6
CONTINUOUS
100
AcDbLine
 10
5.383933582677165
 20
-3.9986070472440942
 30
0
 11
5.3838582677165352
 21
-3.9986220472440945
 31
0
  0
LINE
  5
25E
330
1A
100
AcDbEntity
  8
BLACK
  6
CONTINUOUS
100
AcDbLine
 10
5.3838582677165352
 20
-3.9986220472440945
 30
0
 11
5.3696850393700783
 21
-3.9986220472440945
 31
0
  0
LINE
  5
25F
330
1A
100
AcDbEntity
  8
BLACK
  6
CONTINUOUS
100
AcDbLine
 10
5.3696850393700783
 20
-3.9986220472440945
 30
0
 11
5.3696097244094485
 21
-3.9986070472440942
 31
0
  0
LINE
  5
260
330
1A
100
AcDbEntity
  8
BLACK
  6
CONTINUOUS
100
AcDbLine
 10
5.3696097244094485
 20
-3.9986070472440942
 30
0
 11
5.3695031889763776
 21
-3.9985005118110237
 31
0
  0
LINE
  5
261
330
1A
100
AcDbEntity
  8
BLACK
  6
CONTINUOUS
100
AcDbLine
 10
5.3695031889763776
 20
-3.9985005118110237
 30
0
 11
5.3694881889763781
 21
-3.9984251968503934
 31
0
  0
LINE
  5
262
330
1A
100
AcDbEntity
  8
BLACK
  6
CONTINUOUS
100
AcDbLine
 10
5.3694881889763781
 20
-3.9984251968503934
 30
0
 11
5.3694881889763781
 21
-3.9740157480314959
 31
0
  0
LINE
  5
263
330
1A
100
AcDbEntity
  8
BLACK
  6
CONTINUOUS
100
AcDbLine
 10
5.3694881889763781
 20
-3.9740157480314959
 30
0
 11
5.3695031889763776
 21
-3.9739404330708661
 31
0
  0
LINE
  5
264
330
1A
100
AcDbEntity
  8
BLACK
  6
CONTINUOUS
100
AcDbLine
 10
5.3695031889763776
 20
-3.9739404330708661
 30
0
 11
5.3696097244094485
 21
-3.9738338976377952
 31
0
  0
LINE
  5
265
330
1A
100
AcDbEntity
  8
BLACK
  6
CONTINUOUS
100
AcDbLine
 10
5.3696097244094485
 20
-3.9738338976377952
 30
0
 11
5.3696850393700783
 21
-3.9738188976377953
 31
0
  0
LINE
  5
266
330
1A
100
AcDbEntity
  8
BLACK
  6
CONTINUOUS
100
AcDbLine
 10
5.3696850393700783
 20
-3.9738188976377953
 30
0
 11
5.3838582677165352
 21
-3.9738188976377953
 31
0
  0
LINE
  5
267
330
1A
100
AcDbEntity
  8
BLACK
  6
CONTINUOUS
100
AcDbLine
 10
5.3838582677165352
 20
-3.9738188976377953
 30
0
 11
5.383933582677165
 21
-3.9738338976377952
 31
0
  0
LINE
  5
268
330
1A
100
AcDbEntity
  8
BLACK
  6
CONTINUOUS
100
AcDbLine
 10
5.4059808267716534
 20
-3.9738338976377952
 30
0
 11
5.4060873622047243
 21
-3.9739404330708661
 31
0
  0
LINE
  5
269
330
1A
100
AcDbEntity
  8
BLACK
  6
CONTINUOUS
100
AcDbLine
 10
5.4060873622047243
 20
-3.9739404330708661
 30
0
 11
5.4061023622047246
 21
-3.9740157480314959
 31
0
  0
LINE
  5
26A
330
1A
100
AcDbEntity
  8
BLACK
  6
CONTINUOUS
100
AcDbLine
 10
5.4061023622047246
 20
-3.9740157480314959
 30
0
 11
5.4061023622047246
 21
-3.9984251968503934
 31
0
  0
LINE
  5
26B
330
1A
100
AcDbEntity
  8
BLACK
  6
CONTINUOUS
100
AcDbLine
 10
5.4061023622047246
 20
-3.9984251968503934
 30
0
 11
5.4060873622047243
 21
-3.9985005118110237
 31
0
  0
LINE
  5
26C
330
1A
100
AcDbEntity
  8
BLACK
  6
CONTINUOUS
100
AcDbLine
 10
5.4060873622047243
 20
-3.9985005118110237
 30
0
 11
5.4059808267716534
 21
-3.9986070472440942
 31
0
  0
LINE
  5
26D
330
1A
100
AcDbEntity
  8
BLACK
  6
CONTINUOUS
100
AcDbLine
 10
5.4059808267716534
 20
-3.9986070472440942
 30
0
 11
5.4059055118110235
 21
-3.9986220472440945
 31
0
  0
LINE
  5
26E
330
1A
100
AcDbEntity
  8
BLACK
  6
CONTINUOUS
100
AcDbLine
 10
5.4059055118110235
 20
-3.9986220472440945
 30
0
 11
5.3917322834645667
 21
-3.9986220472440945
 31
0
  0
LINE
  5
26F
330
1A
100
AcDbEntity
  8
BLACK
  6
CONTINUOUS
100
AcDbLine
 10
5.3917322834645667
 20
-3.9986220472440945
 30
0
 11
5.3916569685039368
 21
-3.9986070472440942
 31
0
  0
LINE
  5
270
330
1A
100
AcDbEntity
  8
BLACK
  6
CONTINUOUS
100
AcDbLine
 10
5.3916569685039368
 20
-3.9986070472440942
 30
0
 11
5.3915504330708659
 21
-3.9985005118110237
 31
0
  0
LINE
  5
271
330
1A
100
AcDbEntity
  8
BLACK
  6
CONTINUOUS
100
AcDbLine
 10
5.3915504330708659
 20
-3.9985005118110237
 30
0
 11
5.3915354330708656
 21
-3.9984251968503934
 31
0
  0
LINE
  5
272
330
1A
100
AcDbEntity
  8
BLACK
  6
CONTINUOUS
100
AcDbLine
 10
5.3915354330708656
 20
-3.9984251968503934
 30
0
 11
5.3915354330708656
 21
-3.9740157480314959
 31
0
  0
LINE
  5
273
330
1A
100
AcDbEntity
  8
BLACK
  6
CONTINUOUS
100
AcDbLine
 10
5.3915354330708656
 20
-3.9740157480314959
 30
0
 11
5.3915504330708659
 21
-3.9739404330708661
 31
0
  0
LINE
  5
274
330
1A
100
AcDbEntity
  8
BLACK
  6
CONTINUOUS
100
AcDbLine
 10
5.3915504330708659
 20
-3.9739404330708661
 30
0
 11
5.3916569685039368
 21
-3.9738338976377952
 31
0
  0
LINE
  5
275
330
1A
100
AcDbEntity
  8
BLACK
  6
CONTINUOUS
100
AcDbLine
 10
5.3916569685039368
 20
-3.9738338976377952
 30
0
 11
5.3917322834645667
 21
-3.9738188976377953
 31
0
  0
LINE
  5
276
330
1A
100
AcDbEntity
  8
BLACK
  6
CONTINUOUS
100
AcDbLine
 10
5.3917322834645667
 20
-3.9738188976377953
 30
0
 11
5.4059055118110235
 21
-3.9738188976377953
 31
0
  0
LINE
  5
277
330
1A
100
AcDbEntity
  8
BLACK
  6
CONTINUOUS
100
AcDbLine
 10
5.4059055118110235
 20
-3.9738188976377953
 30
0
 11
5.4059808267716534
 21
-3.9738338976377952
 31
0
  0
LINE
  5
278
330
1A
100
AcDbEntity
  8
BLACK
  6
CONTINUOUS
100
AcDbLine
 10
5.5689729527559058
 20
-3.9738338976377952
 30
0
 11
5.5690794881889767
 21
-3.9739404330708661
 31
0
  0
LINE
  5
279
330
1A
100
AcDbEntity
  8
BLACK
  6
CONTINUOUS
100
AcDbLine
 10
5.5690794881889767
 20
-3.9739404330708661
 30
0
 11
5.5690944881889761
 21
-3.9740157480314959
 31
0
  0
LINE
  5
27A
330
1A
100
AcDbEntity
  8
BLACK
  6
CONTINUOUS
100
AcDbLine
 10
5.5690944881889761
 20
-3.9740157480314959
 30
0
 11
5.5690944881889761
 21
-3.9984251968503934
 31
0
  0
LINE
  5
27B
330
1A
100
AcDbEntity
  8
BLACK
  6
CONTINUOUS
100
AcDbLine
 10
5.5690944881889761
 20
-3.9984251968503934
 30
0
 11
5.5690794881889767
 21
-3.9985005118110237
 31
0
  0
LINE
  5
27C
330
1A
100
AcDbEntity
  8
BLACK
  6
CONTINUOUS
100
AcDbLine
 10
5.5690794881889767
 20
-3.9985005118110237
 30
0
 11
5.5689729527559058
 21
-3.9986070472440942
 31
0
  0
LINE
  5
27D
330
1A
100
AcDbEntity
  8
BLACK
  6
CONTINUOUS
100
AcDbLine
 10
5.5689729527559058
 20
-3.9986070472440942
 30
0
 11
5.568897637795275
 21
-3.9986220472440945
 31
0
  0
LINE
  5
27E
330
1A
100
AcDbEntity
  8
BLACK
  6
CONTINUOUS
100
AcDbLine
 10
5.568897637795275
 20
-3.9986220472440945
 30
0
 11
5.5547244094488191
 21
-3.9986220472440945
 31
0
  0
LINE
  5
27F
330
1A
100
AcDbEntity
  8
BLACK
  6
CONTINUOUS
100
AcDbLine
 10
5.5547244094488191
 20
-3.9986220472440945
 30
0
 11
5.5546490944881892
 21
-3.9986070472440942
 31
0
  0
LINE
  5
280
330
1A
100
AcDbEntity
  8
BLACK
  6
CONTINUOUS
100
AcDbLine
 10
5.5546490944881892
 20
-3.9986070472440942
 30
0
 11
5.5545425590551183
 21
-3.9985005118110237
 31
0
  0
LINE
  5
281
330
1A
100
AcDbEntity
  8
BLACK
  6
CONTINUOUS
100
AcDbLine
 10
5.5545425590551183
 20
-3.9985005118110237
 30
0
 11
5.554527559055118
 21
-3.9984251968503934
 31
0
  0
LINE
  5
282
330
1A
100
AcDbEntity
  8
BLACK
  6
CONTINUOUS
100
AcDbLine
 10
5.554527559055118
 20
-3.9984251968503934
 30
0
 11
5.554527559055118
 21
-3.9740157480314959
 31
0
  0
LINE
  5
283
330
1A
100
AcDbEntity
  8
BLACK
  6
CONTINUOUS
100
AcDbLine
 10
5.554527559055118
 20
-3.9740157480314959
 30
0
 11
5.5545425590551183
 21
-3.9739404330708661
 31
0
  0
LINE
  5
284
330
1A
100
AcDbEntity
  8
BLACK
  6
CONTINUOUS
100
AcDbLine
 10
5.5545425590551183
 20
-3.9739404330708661
 30
0
 11
5.5546490944881892
 21
-3.9738338976377952
 31
0
  0
LINE
  5
285
330
1A
100
AcDbEntity
  8
BLACK
  6
CONTINUOUS
100
AcDbLine
 10
5.5546490944881892
 20
-3.9738338976377952
 30
0
 11
5.5547244094488191
 21
-3.9738188976377953
 31
0
  0
LINE
  5
286
330
1A
100
AcDbEntity
  8
BLACK
  6
CONTINUOUS
100
AcDbLine
 10
5.5547244094488191
 20
-3.9738188976377953
 30
0
 11
5.568897637795275
 21
-3.9738188976377953
 31
0
  0
LINE
  5
287
330
1A
100
AcDbEntity
  8
BLACK
  6
CONTINUOUS
100
AcDbLine
 10
5.568897637795275
 20
-3.9738188976377953
 30
0
 11
5.5689729527559058
 21
-3.9738338976377952
 31
0
  0
LINE
  5
288
330
1A
100
AcDbEntity
  8
BLACK
  6
CONTINUOUS
100
AcDbLine
 10
5.5910201968503932
 20
-3.9738338976377952
 30
0
 11
5.5911267322834641
 21
-3.9739404330708661
 31
0
  0
LINE
  5
289
330
1A
100
AcDbEntity
  8
BLACK
  6
CONTINUOUS
100
AcDbLine
 10
5.5911267322834641
 20
-3.9739404330708661
 30
0
 11
5.5911417322834644
 21
-3.9740157480314959
 31
0
  0
LINE
  5
28A
330
1A
100
AcDbEntity
  8
BLACK
  6
CONTINUOUS
100
AcDbLine
 10
5.5911417322834644
 20
-3.9740157480314959
 30
0
 11
5.5911417322834644
 21
-3.9984251968503934
 31
0
  0
LINE
  5
28B
330
1A
100
AcDbEntity
  8
BLACK
  6
CONTINUOUS
100
AcDbLine
 10
5.5911417322834644
 20
-3.9984251968503934
 30
0
 11
5.5911267322834641
 21
-3.9985005118110237
 31
0
  0
LINE
  5
28C
330
1A
100
AcDbEntity
  8
BLACK
  6
CONTINUOUS
100
AcDbLine
 10
5.5911267322834641
 20
-3.9985005118110237
 30
0
 11
5.5910201968503932
 21
-3.9986070472440942
 31
0
  0
LINE
  5
28D
330
1A
100
AcDbEntity
  8
BLACK
  6
CONTINUOUS
100
AcDbLine
 10
5.5910201968503932
 20
-3.9986070472440942
 30
0
 11
5.5909448818897634
 21
-3.9986220472440945
 31
0
  0
LINE
  5
28E
330
1A
100
AcDbEntity
  8
BLACK
  6
CONTINUOUS
100
AcDbLine
 10
5.5909448818897634
 20
-3.9986220472440945
 30
0
 11
5.5767716535433074
 21
-3.9986220472440945
 31
0
  0
LINE
  5
28F
330
1A
100
AcDbEntity
  8
BLACK
  6
CONTINUOUS
100
AcDbLine
 10
5.5767716535433074
 20
-3.9986220472440945
 30
0
 11
5.5766963385826767
 21
-3.9986070472440942
 31
0
  0
LINE
  5
290
330
1A
100
AcDbEntity
  8
BLACK
  6
CONTINUOUS
100
AcDbLine
 10
5.5766963385826767
 20
-3.9986070472440942
 30
0
 11
5.5765898031496057
 21
-3.9985005118110237
 31
0
  0
LINE
  5
291
330
1A
100
AcDbEntity
  8
BLACK
  6
CONTINUOUS
100
AcDbLine
 10
5.5765898031496057
 20
-3.9985005118110237
 30
0
 11
5.5765748031496063
 21
-3.9984251968503934
 31
0
  0
LINE
  5
292
330
1A
100
AcDbEntity
  8
BLACK
  6
CONTINUOUS
100
AcDbLine
 10
5.5765748031496063
 20
-3.9984251968503934
 30
0
 11
5.5765748031496063
 21
-3.9740157480314959
 31
0
  0
LINE
  5
293
330
1A
100
AcDbEntity
  8
BLACK
  6
CONTINUOUS
100
AcDbLine
 10
5.5765748031496063
 20
-3.9740157480314959
 30
0
 11
5.5765898031496057
 21
-3.9739404330708661
 31
0
  0
LINE
  5
294
330
1A
100
AcDbEntity
  8
BLACK
  6
CONTINUOUS
100
AcDbLine
 10
5.5765898031496057
 20
-3.9739404330708661
 30
0
 11
5.5766963385826767
 21
-3.9738338976377952
 31
0
  0
LINE
  5
295
330
1A
100
AcDbEntity
  8
BLACK
  6
CONTINUOUS
100
AcDbLine
 10
5.5766963385826767
 20
-3.9738338976377952
 30
0
 11
5.5767716535433074
 21
-3.9738188976377953
 31
0
  0
LINE
  5
296
330
1A
100
AcDbEntity
  8
BLACK
  6
CONTINUOUS
100
AcDbLine
 10
5.5767716535433074
 20
-3.9738188976377953
 30
0
 11
5.5909448818897634
 21
-3.9738188976377953
 31
0
  0
LINE
  5
297
330
1A
100
AcDbEntity
  8
BLACK
  6
CONTINUOUS
100
AcDbLine
 10
5.5909448818897634
 20
-3.9738188976377953
 30
0
 11
5.5910201968503932
 21
-3.9738338976377952
 31
0
  0
LINE
  5
298
330
1A
100
AcDbEntity
  8
BLACK
  6
CONTINUOUS
100
AcDbLine
 10
5.0023622047244096
 20
-3.9649606299212596
 30
0
 11
4.9937007874015746
 21
-3.9649606299212596
 31
0
  0
LINE
  5
299
330
1A
100
AcDbEntity
  8
BLACK
  6
CONTINUOUS
100
AcDbLine
 10
4.9937007874015746
 20
-3.9649606299212596
 30
0
 11
4.9937007874015746
 21
-3.9468503937007875
 31
0
  0
LINE
  5
29A
330
1A
100
AcDbEntity
  8
BLACK
  6
CONTINUOUS
100
AcDbLine
 10
4.9937007874015746
 20
-3.9468503937007875
 30
0
 11
5.0023622047244096
 21
-3.9468503937007875
 31
0
  0
LINE
  5
29B
330
1A
100
AcDbEntity
  8
BLACK
  6
CONTINUOUS
100
AcDbLine
 10
5.0023622047244096
 20
-3.9468503937007875
 30
0
 11
5.0023622047244096
 21
-3.9649606299212596
 31
0
  0
LINE
  5
29C
330
1A
100
AcDbEntity
  8
BLACK
  6
CONTINUOUS
100
AcDbLine
 10
5.0220472440944883
 20
-3.9649606299212596
 30
0
 11
5.0133858267716533
 21
-3.9649606299212596
 31
0
  0
LINE
  5
29D
330
1A
100
AcDbEntity
  8
BLACK
  6
CONTINUOUS
100
AcDbLine
 10
5.0133858267716533
 20
-3.9649606299212596
 30
0
 11
5.0133858267716533
 21
-3.9468503937007875
 31
0
  0
LINE
  5
29E
330
1A
100
AcDbEntity
  8
BLACK
  6
CONTINUOUS
100
AcDbLine
 10
5.0133858267716533
 20
-3.9468503937007875
 30
0
 11
5.0220472440944883
 21
-3.9468503937007875
 31
0
  0
LINE
  5
29F
330
1A
100
AcDbEntity
  8
BLACK
  6
CONTINUOUS
100
AcDbLine
 10
5.0220472440944883
 20
-3.9468503937007875
 30
0
 11
5.0220472440944883
 21
-3.9649606299212596
 31
0
  0
LINE
  5
2A0
330
1A
100
AcDbEntity
  8
BLACK
  6
CONTINUOUS
100
AcDbLine
 10
5.041732283464567
 20
-3.9649606299212596
 30
0
 11
5.033070866141732
 21
-3.9649606299212596
 31
0
  0
LINE
  5
2A1
330
1A
100
AcDbEntity
  8
BLACK
  6
CONTINUOUS
100
AcDbLine
 10
5.033070866141732
 20
-3.9649606299212596
 30
0
 11
5.033070866141732
 21
-3.9468503937007875
 31
0
  0
LINE
  5
2A2
330
1A
100
AcDbEntity
  8
BLACK
  6
CONTINUOUS
100
AcDbLine
 10
5.033070866141732
 20
-3.9468503937007875
 30
0
 11
5.041732283464567
 21
-3.9468503937007875
 31
0
  0
LINE
  5
2A3
330
1A
100
AcDbEntity
  8
BLACK
  6
CONTINUOUS
100
AcDbLine
 10
5.041732283464567
 20
-3.9468503937007875
 30
0
 11
5.041732283464567
 21
-3.9649606299212596
 31
0
  0
LINE
  5
2A4
330
1A
100
AcDbEntity
  8
BLACK
  6
CONTINUOUS
100
AcDbLine
 10
5.1874015748031495
 20
-3.9649606299212596
 30
0
 11
5.1787401574803145
 21
-3.9649606299212596
 31
0
  0
LINE
  5
2A5
330
1A
100
AcDbEntity
  8
BLACK
  6
CONTINUOUS
100
AcDbLine
 10
5.1787401574803145
 20
-3.9649606299212596
 30
0
 11
5.1787401574803145
 21
-3.9468503937007875
 31
0
  0
LINE
  5
2A6
330
1A
100
AcDbEntity
  8
BLACK
  6
CONTINUOUS
100
AcDbLine
 10
5.1787401574803145
 20
-3.9468503937007875
 30
0
 11
5.1874015748031495
 21
-3.9468503937007875
 31
0
  0
LINE
  5
2A7
330
1A
100
AcDbEntity
  8
BLACK
  6
CONTINUOUS
100
AcDbLine
 10
5.1874015748031495
 20
-3.9468503937007875
 30
0
 11
5.1874015748031495
 21
-3.9649606299212596
 31
0
  0
LINE
  5
2A8
330
1A
100
AcDbEntity
  8
BLACK
  6
CONTINUOUS
100
AcDbLine
 10
5.2070866141732282
 20
-3.9649606299212596
 30
0
 11
5.1984251968503932
 21
-3.9649606299212596
 31
0
  0
LINE
  5
2A9
330
1A
100
AcDbEntity
  8
BLACK
  6
CONTINUOUS
100
AcDbLine
 10
5.1984251968503932
 20
-3.9649606299212596
 30
0
 11
5.1984251968503932
 21
-3.9468503937007875
 31
0
  0
LINE
  5
2AA
330
1A
100
AcDbEntity
  8
BLACK
  6
CONTINUOUS
100
AcDbLine
 10
5.1984251968503932
 20
-3.9468503937007875
 30
0
 11
5.2070866141732282
 21
-3.9468503937007875
 31
0
  0
LINE
  5
2AB
330
1A
100
AcDbEntity
  8
BLACK
  6
CONTINUOUS
100
AcDbLine
 10
5.2070866141732282
 20
-3.9468503937007875
 30
0
 11
5.2070866141732282
 21
-3.9649606299212596
 31
0
  0
LINE
  5
2AC
330
1A
100
AcDbEntity
  8
BLACK
  6
CONTINUOUS
100
AcDbLine
 10
5.2267716535433069
 20
-3.9649606299212596
 30
0
 11
5.2181102362204728
 21
-3.9649606299212596
 31
0
  0
LINE
  5
2AD
330
1A
100
AcDbEntity
  8
BLACK
  6
CONTINUOUS
100
AcDbLine
 10
5.2181102362204728
 20
-3.9649606299212596
 30
0
 11
5.2181102362204728
 21
-3.9468503937007875
 31
0
  0
LINE
  5
2AE
330
1A
100
AcDbEntity
  8
BLACK
  6
CONTINUOUS
100
AcDbLine
 10
5.2181102362204728
 20
-3.9468503937007875
 30
0
 11
5.2267716535433069
 21
-3.9468503937007875
 31
0
  0
LINE
  5
2AF
330
1A
100
AcDbEntity
  8
BLACK
  6
CONTINUOUS
100
AcDbLine
 10
5.2267716535433069
 20
-3.9468503937007875
 30
0
 11
5.2267716535433069
 21
-3.9649606299212596
 31
0
  0
LINE
  5
2B0
330
1A
100
AcDbEntity
  8
BLACK
  6
CONTINUOUS
100
AcDbLine
 10
5.3724409448818893
 20
-3.9649606299212596
 30
0
 11
5.3637795275590552
 21
-3.9649606299212596
 31
0
  0
LINE
  5
2B1
330
1A
100
AcDbEntity
  8
BLACK
  6
CONTINUOUS
100
AcDbLine
 10
5.3637795275590552
 20
-3.9649606299212596
 30
0
 11
5.3637795275590552
 21
-3.9468503937007875
 31
0
  0
LINE
  5
2B2
330
1A
100
AcDbEntity
  8
BLACK
  6
CONTINUOUS
100
AcDbLine
 10
5.3637795275590552
 20
-3.9468503937007875
 30
0
 11
5.3724409448818893
 21
-3.9468503937007875
 31
0
  0
LINE
  5
2B3
330
1A
100
AcDbEntity
  8
BLACK
  6
CONTINUOUS
100
AcDbLine
 10
5.3724409448818893
 20
-3.9468503937007875
 30
0
 11
5.3724409448818893
 21
-3.9649606299212596
 31
0
  0
LINE
  5
2B4
330
1A
100
AcDbEntity
  8
BLACK
  6
CONTINUOUS
100
AcDbLine
 10
5.392125984251968
 20
-3.9649606299212596
 30
0
 11
5.3834645669291339
 21
-3.9649606299212596
 31
0
  0
LINE
  5
2B5
330
1A
100
AcDbEntity
  8
BLACK
  6
CONTINUOUS
100
AcDbLine
 10
5.3834645669291339
 20
-3.9649606299212596
 30
0
 11
5.3834645669291339
 21
-3.9468503937007875
 31
0
  0
LINE
  5
2B6
330
1A
100
AcDbEntity
  8
BLACK
  6
CONTINUOUS
100
AcDbLine
 10
5.3834645669291339
 20
-3.9468503937007875
 30
0
 11
5.392125984251968
 21
-3.9468503937007875
 31
0
  0
LINE
  5
2B7
330
1A
100
AcDbEntity
  8
BLACK
  6
CONTINUOUS
100
AcDbLine
 10
5.392125984251968
 20
-3.9468503937007875
 30
0
 11
5.392125984251968
 21
-3.9649606299212596
 31
0
  0
LINE
  5
2B8
330
1A
100
AcDbEntity
  8
BLACK
  6
CONTINUOUS
100
AcDbLine
 10
5.4118110236220467
 20
-3.9649606299212596
 30
0
 11
5.4031496062992126
 21
-3.9649606299212596
 31
0
  0
LINE
  5
2B9
330
1A
100
AcDbEntity
  8
BLACK
  6
CONTINUOUS
100
AcDbLine
 10
5.4031496062992126
 20
-3.9649606299212596
 30
0
 11
5.4031496062992126
 21
-3.9468503937007875
 31
0
  0
LINE
  5
2BA
330
1A
100
AcDbEntity
  8
BLACK
  6
CONTINUOUS
100
AcDbLine
 10
5.4031496062992126
 20
-3.9468503937007875
 30
0
 11
5.4118110236220467
 21
-3.9468503937007875
 31
0
  0
LINE
  5
2BB
330
1A
100
AcDbEntity
  8
BLACK
  6
CONTINUOUS
100
AcDbLine
 10
5.4118110236220467
 20
-3.9468503937007875
 30
0
 11
5.4118110236220467
 21
-3.9649606299212596
 31
0
  0
LINE
  5
2BC
330
1A
100
AcDbEntity
  8
BLACK
  6
CONTINUOUS
100
AcDbLine
 10
5.55748031496063
 20
-3.9649606299212596
 30
0
 11
5.548818897637795
 21
-3.9649606299212596
 31
0
  0
LINE
  5
2BD
330
1A
100
AcDbEntity
  8
BLACK
  6
CONTINUOUS
100
AcDbLine
 10
5.548818897637795
 20
-3.9649606299212596
 30
0
 11
5.548818897637795
 21
-3.9468503937007875
 31
0
  0
LINE
  5
2BE
330
1A
100
AcDbEntity
  8
BLACK
  6
CONTINUOUS
100
AcDbLine
 10
5.548818897637795
 20
-3.9468503937007875
 30
0
 11
5.55748031496063
 21
-3.9468503937007875
 31
0
  0
LINE
  5
2BF
330
1A
100
AcDbEntity
  8
BLACK
  6
CONTINUOUS
100
AcDbLine
 10
5.55748031496063
 20
-3.9468503937007875
 30
0
 11
5.55748031496063
 21
-3.9649606299212596
 31
0
  0
LINE
  5
2C0
330
1A
100
AcDbEntity
  8
BLACK
  6
CONTINUOUS
100
AcDbLine
 10
5.5771653543307087
 20
-3.9649606299212596
 30
0
 11
5.5685039370078737
 21
-3.9649606299212596
 31
0
  0
LINE
  5
2C1
330
1A
100
AcDbEntity
  8
BLACK
  6
CONTINUOUS
100
AcDbLine
 10
5.5685039370078737
 20
-3.9649606299212596
 30
0
 11
5.5685039370078737
 21
-3.9468503937007875
 31
0
  0
LINE
  5
2C2
330
1A
100
AcDbEntity
  8
BLACK
  6
CONTINUOUS
100
AcDbLine
 10
5.5685039370078737
 20
-3.9468503937007875
 30
0
 11
5.5771653543307087
 21
-3.9468503937007875
 31
0
  0
LINE
  5
2C3
330
1A
100
AcDbEntity
  8
BLACK
  6
CONTINUOUS
100
AcDbLine
 10
5.5771653543307087
 20
-3.9468503937007875
 30
0
 11
5.5771653543307087
 21
-3.9649606299212596
 31
0
  0
LINE
  5
2C4
330
1A
100
AcDbEntity
  8
BLACK
  6
CONTINUOUS
100
AcDbLine
 10
5.5968503937007874
 20
-3.9649606299212596
 30
0
 11
5.5881889763779524
 21
-3.9649606299212596
 31
0
  0
LINE
  5
2C5
330
1A
100
AcDbEntity
  8
BLACK
  6
CONTINUOUS
100
AcDbLine
 10
5.5881889763779524
 20
-3.9649606299212596
 30
0
 11
5.5881889763779524
 21
-3.9468503937007875
 31
0
  0
LINE
  5
2C6
330
1A
100
AcDbEntity
  8
BLACK
  6
CONTINUOUS
100
AcDbLine
 10
5.5881889763779524
 20
-3.9468503937007875
 30
0
 11
5.5968503937007874
 21
-3.9468503937007875
 31
0
  0
LINE
  5
2C7
330
1A
100
AcDbEntity
  8
BLACK
  6
CONTINUOUS
100
AcDbLine
 10
5.5968503937007874
 20
-3.9468503937007875
 30
0
 11
5.5968503937007874
 21
-3.9649606299212596
 31
0
  0
LINE
  5
2C8
330
1A
100
AcDbEntity
  8
BLACK
  6
CONTINUOUS
100
AcDbLine
 10
5.0023622047244096
 20
-3.840551181102362
 30
0
 11
4.9937007874015746
 21
-3.840551181102362
 31
0
  0
LINE
  5
2C9
330
1A
100
AcDbEntity
  8
BLACK
  6
CONTINUOUS
100
AcDbLine
 10
4.9937007874015746
 20
-3.840551181102362
 30
0
 11
4.9937007874015746
 21
-3.8224409448818895
 31
0
  0
LINE
  5
2CA
330
1A
100
AcDbEntity
  8
BLACK
  6
CONTINUOUS
100
AcDbLine
 10
4.9937007874015746
 20
-3.8224409448818895
 30
0
 11
5.0023622047244096
 21
-3.8224409448818895
 31
0
  0
LINE
  5
2CB
330
1A
100
AcDbEntity
  8
BLACK
  6
CONTINUOUS
100
AcDbLine
 10
5.0023622047244096
 20
-3.8224409448818895
 30
0
 11
5.0023622047244096
 21
-3.840551181102362
 31
0
  0
LINE
  5
2CC
330
1A
100
AcDbEntity
  8
BLACK
  6
CONTINUOUS
100
AcDbLine
 10
5.0220472440944883
 20
-3.840551181102362
 30
0
 11
5.0133858267716533
 21
-3.840551181102362
 31
0
  0
LINE
  5
2CD
330
1A
100
AcDbEntity
  8
BLACK
  6
CONTINUOUS
100
AcDbLine
 10
5.0133858267716533
 20
-3.840551181102362
 30
0
 11
5.0133858267716533
 21
-3.8224409448818895
 31
0
  0
LINE
  5
2CE
330
1A
100
AcDbEntity
  8
BLACK
  6
CONTINUOUS
100
AcDbLine
 10
5.0133858267716533
 20
-3.8224409448818895
 30
0
 11
5.0220472440944883
 21
-3.8224409448818895
 31
0
  0
LINE
  5
2CF
330
1A
100
AcDbEntity
  8
BLACK
  6
CONTINUOUS
100
AcDbLine
 10
5.0220472440944883
 20
-3.8224409448818895
 30
0
 11
5.0220472440944883
 21
-3.840551181102362
 31
0
  0
LINE
  5
2D0
330
1A
100
AcDbEntity
  8
BLACK
  6
CONTINUOUS
100
AcDbLine
 10
5.041732283464567
 20
-3.840551181102362
 30
0
 11
5.033070866141732
 21
-3.840551181102362
 31
0
  0
LINE
  5
2D1
330
1A
100
AcDbEntity
  8
BLACK
  6
CONTINUOUS
100
AcDbLine
 10
5.033070866141732
 20
-3.840551181102362
 30
0
 11
5.033070866141732
 21
-3.8224409448818895
 31
0
  0
LINE
  5
2D2
330
1A
100
AcDbEntity
  8
BLACK
  6
CONTINUOUS
100
AcDbLine
 10
5.033070866141732
 20
-3.8224409448818895
 30
0
 11
5.041732283464567
 21
-3.8224409448818895
 31
0
  0
LINE
  5
2D3
330
1A
100
AcDbEntity
  8
BLACK
  6
CONTINUOUS
100
AcDbLine
 10
5.041732283464567
 20
-3.8224409448818895
 30
0
 11
5.041732283464567
 21
-3.840551181102362
 31
0
  0
LINE
  5
2D4
330
1A
100
AcDbEntity
  8
BLACK
  6
CONTINUOUS
100
AcDbLine
 10
5.1874015748031495
 20
-3.840551181102362
 30
0
 11
5.1787401574803145
 21
-3.840551181102362
 31
0
  0
LINE
  5
2D5
330
1A
100
AcDbEntity
  8
BLACK
  6
CONTINUOUS
100
AcDbLine
 10
5.1787401574803145
 20
-3.840551181102362
 30
0
 11
5.1787401574803145
 21
-3.8224409448818895
 31
0
  0
LINE
  5
2D6
330
1A
100
AcDbEntity
  8
BLACK
  6
CONTINUOUS
100
AcDbLine
 10
5.1787401574803145
 20
-3.8224409448818895
 30
0
 11
5.1874015748031495
 21
-3.8224409448818895
 31
0
  0
LINE
  5
2D7
330
1A
100
AcDbEntity
  8
BLACK
  6
CONTINUOUS
100
AcDbLine
 10
5.1874015748031495
 20
-3.8224409448818895
 30
0
 11
5.1874015748031495
 21
-3.840551181102362
 31
0
  0
LINE
  5
2D8
330
1A
100
AcDbEntity
  8
BLACK
  6
CONTINUOUS
100
AcDbLine
 10
5.2070866141732282
 20
-3.840551181102362
 30
0
 11
5.1984251968503932
 21
-3.840551181102362
 31
0
  0
LINE
  5
2D9
330
1A
100
AcDbEntity
  8
BLACK
  6
CONTINUOUS
100
AcDbLine
 10
5.1984251968503932
 20
-3.840551181102362
 30
0
 11
5.1984251968503932
 21
-3.8224409448818895
 31
0
  0
LINE
  5
2DA
330
1A
100
AcDbEntity
  8
BLACK
  6
CONTINUOUS
100
AcDbLine
 10
5.1984251968503932
 20
-3.8224409448818895
 30
0
 11
5.2070866141732282
 21
-3.8224409448818895
 31
0
  0
LINE
  5
2DB
330
1A
100
AcDbEntity
  8
BLACK
  6
CONTINUOUS
100
AcDbLine
 10
5.2070866141732282
 20
-3.8224409448818895
 30
0
 11
5.2070866141732282
 21
-3.840551181102362
 31
0
  0
LINE
  5
2DC
330
1A
100
AcDbEntity
  8
BLACK
  6
CONTINUOUS
100
AcDbLine
 10
5.2267716535433069
 20
-3.840551181102362
 30
0
 11
5.2181102362204728
 21
-3.840551181102362
 31
0
  0
LINE
  5
2DD
330
1A
100
AcDbEntity
  8
BLACK
  6
CONTINUOUS
100
AcDbLine
 10
5.2181102362204728
 20
-3.840551181102362
 30
0
 11
5.2181102362204728
 21
-3.8224409448818895
 31
0
  0
LINE
  5
2DE
330
1A
100
AcDbEntity
  8
BLACK
  6
CONTINUOUS
100
AcDbLine
 10
5.2181102362204728
 20
-3.8224409448818895
 30
0
 11
5.2267716535433069
 21
-3.8224409448818895
 31
0
  0
LINE
  5
2DF
330
1A
100
AcDbEntity
  8
BLACK
  6
CONTINUOUS
100
AcDbLine
 10
5.2267716535433069
 20
-3.8224409448818895
 30
0
 11
5.2267716535433069
 21
-3.840551181102362
 31
0
  0
LINE
  5
2E0
330
1A
100
AcDbEntity
  8
BLACK
  6
CONTINUOUS
100
AcDbLine
 10
5.3724409448818893
 20
-3.840551181102362
 30
0
 11
5.3637795275590552
 21
-3.840551181102362
 31
0
  0
LINE
  5
2E1
330
1A
100
AcDbEntity
  8
BLACK
  6
CONTINUOUS
100
AcDbLine
 10
5.3637795275590552
 20
-3.840551181102362
 30
0
 11
5.3637795275590552
 21
-3.8224409448818895
 31
0
  0
LINE
  5
2E2
330
1A
100
AcDbEntity
  8
BLACK
  6
CONTINUOUS
100
AcDbLine
 10
5.3637795275590552
 20
-3.8224409448818895
 30
0
 11
5.3724409448818893
 21
-3.8224409448818895
 31
0
  0
LINE
  5
2E3
330
1A
100
AcDbEntity
  8
BLACK
  6
CONTINUOUS
100
AcDbLine
 10
5.3724409448818893
 20
-3.8224409448818895
 30
0
 11
5.3724409448818893
 21
-3.840551181102362
 31
0
  0
LINE
  5
2E4
330
1A
100
AcDbEntity
  8
BLACK
  6
CONTINUOUS
100
AcDbLine
 10
5.392125984251968
 20
-3.840551181102362
 30
0
 11
5.3834645669291339
 21
-3.840551181102362
 31
0
  0
LINE
  5
2E5
330
1A
100
AcDbEntity
  8
BLACK
  6
CONTINUOUS
100
AcDbLine
 10
5.3834645669291339
 20
-3.840551181102362
 30
0
 11
5.3834645669291339
 21
-3.8224409448818895
 31
0
  0
LINE
  5
2E6
330
1A
100
AcDbEntity
  8
BLACK
  6
CONTINUOUS
100
AcDbLine
 10
5.3834645669291339
 20
-3.8224409448818895
 30
0
 11
5.392125984251968
 21
-3.8224409448818895
 31
0
  0
LINE
  5
2E7
330
1A
100
AcDbEntity
  8
BLACK
  6
CONTINUOUS
100
AcDbLine
 10
5.392125984251968
 20
-3.8224409448818895
 30
0
 11
5.392125984251968
 21
-3.840551181102362
 31
0
  0
LINE
  5
2E8
330
1A
100
AcDbEntity
  8
BLACK
  6
CONTINUOUS
100
AcDbLine
 10
5.4118110236220467
 20
-3.840551181102362
 30
0
 11
5.4031496062992126
 21
-3.840551181102362
 31
0
  0
LINE
  5
2E9
330
1A
100
AcDbEntity
  8
BLACK
  6
CONTINUOUS
100
AcDbLine
 10
5.4031496062992126
 20
-3.840551181102362
 30
0
 11
5.4031496062992126
 21
-3.8224409448818895
 31
0
  0
LINE
  5
2EA
330
1A
100
AcDbEntity
  8
BLACK
  6
CONTINUOUS
100
AcDbLine
 10
5.4031496062992126
 20
-3.8224409448818895
 30
0
 11
5.4118110236220467
 21
-3.8224409448818895
 31
0
  0
LINE
  5
2EB
330
1A
100
AcDbEntity
  8
BLACK
  6
CONTINUOUS
100
AcDbLine
 10
5.4118110236220467
 20
-3.8224409448818895
 30
0
 11
5.4118110236220467
 21
-3.840551181102362
 31
0
  0
LINE
  5
2EC
330
1A
100
AcDbEntity
  8
BLACK
  6
CONTINUOUS
100
AcDbLine
 10
5.55748031496063
 20
-3.840551181102362
 30
0
 11
5.548818897637795
 21
-3.840551181102362
 31
0
  0
LINE
  5
2ED
330
1A
100
AcDbEntity
  8
BLACK
  6
CONTINUOUS
100
AcDbLine
 10
5.548818897637795
 20
-3.840551181102362
 30
0
 11
5.548818897637795
 21
-3.8224409448818895
 31
0
  0
LINE
  5
2EE
330
1A
100
AcDbEntity
  8
BLACK
  6
CONTINUOUS
100
AcDbLine
 10
5.548818897637795
 20
-3.8224409448818895
 30
0
 11
5.55748031496063
 21
-3.8224409448818895
 31
0
  0
LINE
  5
2EF
330
1A
100
AcDbEntity
  8
BLACK
  6
CONTINUOUS
100
AcDbLine
 10
5.55748031496063
 20
-3.8224409448818895
 30
0
 11
5.55748031496063
 21
-3.840551181102362
 31
0
  0
LINE
  5
2F0
330
1A
100
AcDbEntity
  8
BLACK
  6
CONTINUOUS
100
AcDbLine
 10
5.5771653543307087
 20
-3.840551181102362
 30
0
 11
5.5685039370078737
 21
-3.840551181102362
 31
0
  0
LINE
  5
2F1
330
1A
100
AcDbEntity
  8
BLACK
  6
CONTINUOUS
100
AcDbLine
 10
5.5685039370078737
 20
-3.840551181102362
 30
0
 11
5.5685039370078737
 21
-3.8224409448818895
 31
0
  0
LINE
  5
2F2
330
1A
100
AcDbEntity
  8
BLACK
  6
CONTINUOUS
100
AcDbLine
 10
5.5685039370078737
 20
-3.8224409448818895
 30
0
 11
5.5771653543307087
 21
-3.8224409448818895
 31
0
  0
LINE
  5
2F3
330
1A
100
AcDbEntity
  8
BLACK
  6
CONTINUOUS
100
AcDbLine
 10
5.5771653543307087
 20
-3.8224409448818895
 30
0
 11
5.5771653543307087
 21
-3.840551181102362
 31
0
  0
LINE
  5
2F4
330
1A
100
AcDbEntity
  8
BLACK
  6
CONTINUOUS
100
AcDbLine
 10
5.5968503937007874
 20
-3.840551181102362
 30
0
 11
5.5881889763779524
 21
-3.840551181102362
 31
0
  0
LINE
  5
2F5
330
1A
100
AcDbEntity
  8
BLACK
  6
CONTINUOUS
100
AcDbLine
 10
5.5881889763779524
 20
-3.840551181102362
 30
0
 11
5.5881889763779524
 21
-3.8224409448818895
 31
0
  0
LINE
  5
2F6
330
1A
100
AcDbEntity
  8
BLACK
  6
CONTINUOUS
100
AcDbLine
 10
5.5881889763779524
 20
-3.8224409448818895
 30
0
 11
5.5968503937007874
 21
-3.8224409448818895
 31
0
  0
LINE
  5
2F7
330
1A
100
AcDbEntity
  8
BLACK
  6
CONTINUOUS
100
AcDbLine
 10
5.5968503937007874
 20
-3.8224409448818895
 30
0
 11
5.5968503937007874
 21
-3.840551181102362
 31
0
  0
LINE
  5
2F8
330
1A
100
AcDbEntity
  8
BLACK
  6
CONTINUOUS
100
AcDbLine
 10
5.0138548425196845
 20
-3.7887945275590549
 30
0
 11
5.0139613779527554
 21
-3.7889010629921258
 31
0
  0
LINE
  5
2F9
330
1A
100
AcDbEntity
  8
BLACK
  6
CONTINUOUS
100
AcDbLine
 10
5.0139613779527554
 20
-3.7889010629921258
 30
0
 11
5.0139763779527557
 21
-3.7889763779527557
 31
0
  0
LINE
  5
2FA
330
1A
100
AcDbEntity
  8
BLACK
  6
CONTINUOUS
100
AcDbLine
 10
5.0139763779527557
 20
-3.7889763779527557
 30
0
 11
5.0139763779527557
 21
-3.8133858267716536
 31
0
  0
LINE
  5
2FB
330
1A
100
AcDbEntity
  8
BLACK
  6
CONTINUOUS
100
AcDbLine
 10
5.0139763779527557
 20
-3.8133858267716536
 30
0
 11
5.0139613779527554
 21
-3.8134611417322835
 31
0
  0
LINE
  5
2FC
330
1A
100
AcDbEntity
  8
BLACK
  6
CONTINUOUS
100
AcDbLine
 10
5.0139613779527554
 20
-3.8134611417322835
 30
0
 11
5.0138548425196845
 21
-3.8135676771653544
 31
0
  0
LINE
  5
2FD
330
1A
100
AcDbEntity
  8
BLACK
  6
CONTINUOUS
100
AcDbLine
 10
5.0138548425196845
 20
-3.8135676771653544
 30
0
 11
5.0137795275590546
 21
-3.8135826771653543
 31
0
  0
LINE
  5
2FE
330
1A
100
AcDbEntity
  8
BLACK
  6
CONTINUOUS
100
AcDbLine
 10
5.0137795275590546
 20
-3.8135826771653543
 30
0
 11
4.9996062992125987
 21
-3.8135826771653543
 31
0
  0
LINE
  5
2FF
330
1A
100
AcDbEntity
  8
BLACK
  6
CONTINUOUS
100
AcDbLine
 10
4.9996062992125987
 20
-3.8135826771653543
 30
0
 11
4.999530984251968
 21
-3.8135676771653544
 31
0
  0
LINE
  5
300
330
1A
100
AcDbEntity
  8
BLACK
  6
CONTINUOUS
100
AcDbLine
 10
4.999530984251968
 20
-3.8135676771653544
 30
0
 11
4.9994244488188979
 21
-3.8134611417322835
 31
0
  0
LINE
  5
301
330
1A
100
AcDbEntity
  8
BLACK
  6
CONTINUOUS
100
AcDbLine
 10
4.9994244488188979
 20
-3.8134611417322835
 30
0
 11
4.9994094488188976
 21
-3.8133858267716536
 31
0
  0
LINE
  5
302
330
1A
100
AcDbEntity
  8
BLACK
  6
CONTINUOUS
100
AcDbLine
 10
4.9994094488188976
 20
-3.8133858267716536
 30
0
 11
4.9994094488188976
 21
-3.7889763779527557
 31
0
  0
LINE
  5
303
330
1A
100
AcDbEntity
  8
BLACK
  6
CONTINUOUS
100
AcDbLine
 10
4.9994094488188976
 20
-3.7889763779527557
 30
0
 11
4.9994244488188979
 21
-3.7889010629921258
 31
0
  0
LINE
  5
304
330
1A
100
AcDbEntity
  8
BLACK
  6
CONTINUOUS
100
AcDbLine
 10
4.9994244488188979
 20
-3.7889010629921258
 30
0
 11
4.999530984251968
 21
-3.7887945275590549
 31
0
  0
LINE
  5
305
330
1A
100
AcDbEntity
  8
BLACK
  6
CONTINUOUS
100
AcDbLine
 10
4.999530984251968
 20
-3.7887945275590549
 30
0
 11
4.9996062992125987
 21
-3.788779527559055
 31
0
  0
LINE
  5
306
330
1A
100
AcDbEntity
  8
BLACK
  6
CONTINUOUS
100
AcDbLine
 10
4.9996062992125987
 20
-3.788779527559055
 30
0
 11
5.0137795275590546
 21
-3.788779527559055
 31
0
  0
LINE
  5
307
330
1A
100
AcDbEntity
  8
BLACK
  6
CONTINUOUS
100
AcDbLine
 10
5.0137795275590546
 20
-3.788779527559055
 30
0
 11
5.0138548425196845
 21
-3.7887945275590549
 31
0
  0
LINE
  5
308
330
1A
100
AcDbEntity
  8
BLACK
  6
CONTINUOUS
100
AcDbLine
 10
5.0359020866141728
 20
-3.7887945275590549
 30
0
 11
5.0360086220472438
 21
-3.7889010629921258
 31
0
  0
LINE
  5
309
330
1A
100
AcDbEntity
  8
BLACK
  6
CONTINUOUS
100
AcDbLine
 10
5.0360086220472438
 20
-3.7889010629921258
 30
0
 11
5.0360236220472441
 21
-3.7889763779527557
 31
0
  0
LINE
  5
30A
330
1A
100
AcDbEntity
  8
BLACK
  6
CONTINUOUS
100
AcDbLine
 10
5.0360236220472441
 20
-3.7889763779527557
 30
0
 11
5.0360236220472441
 21
-3.8133858267716536
 31
0
  0
LINE
  5
30B
330
1A
100
AcDbEntity
  8
BLACK
  6
CONTINUOUS
100
AcDbLine
 10
5.0360236220472441
 20
-3.8133858267716536
 30
0
 11
5.0360086220472438
 21
-3.8134611417322835
 31
0
  0
LINE
  5
30C
330
1A
100
AcDbEntity
  8
BLACK
  6
CONTINUOUS
100
AcDbLine
 10
5.0360086220472438
 20
-3.8134611417322835
 30
0
 11
5.0359020866141728
 21
-3.8135676771653544
 31
0
  0
LINE
  5
30D
330
1A
100
AcDbEntity
  8
BLACK
  6
CONTINUOUS
100
AcDbLine
 10
5.0359020866141728
 20
-3.8135676771653544
 30
0
 11
5.035826771653543
 21
-3.8135826771653543
 31
0
  0
LINE
  5
30E
330
1A
100
AcDbEntity
  8
BLACK
  6
CONTINUOUS
100
AcDbLine
 10
5.035826771653543
 20
-3.8135826771653543
 30
0
 11
5.0216535433070861
 21
-3.8135826771653543
 31
0
  0
LINE
  5
30F
330
1A
100
AcDbEntity
  8
BLACK
  6
CONTINUOUS
100
AcDbLine
 10
5.0216535433070861
 20
-3.8135826771653543
 30
0
 11
5.0215782283464563
 21
-3.8135676771653544
 31
0
  0
LINE
  5
310
330
1A
100
AcDbEntity
  8
BLACK
  6
CONTINUOUS
100
AcDbLine
 10
5.0215782283464563
 20
-3.8135676771653544
 30
0
 11
5.0214716929133854
 21
-3.8134611417322835
 31
0
  0
LINE
  5
311
330
1A
100
AcDbEntity
  8
BLACK
  6
CONTINUOUS
100
AcDbLine
 10
5.0214716929133854
 20
-3.8134611417322835
 30
0
 11
5.0214566929133859
 21
-3.8133858267716536
 31
0
  0
LINE
  5
312
330
1A
100
AcDbEntity
  8
BLACK
  6
CONTINUOUS
100
AcDbLine
 10
5.0214566929133859
 20
-3.8133858267716536
 30
0
 11
5.0214566929133859
 21
-3.7889763779527557
 31
0
  0
LINE
  5
313
330
1A
100
AcDbEntity
  8
BLACK
  6
CONTINUOUS
100
AcDbLine
 10
5.0214566929133859
 20
-3.7889763779527557
 30
0
 11
5.0214716929133854
 21
-3.7889010629921258
 31
0
  0
LINE
  5
314
330
1A
100
AcDbEntity
  8
BLACK
  6
CONTINUOUS
100
AcDbLine
 10
5.0214716929133854
 20
-3.7889010629921258
 30
0
 11
5.0215782283464563
 21
-3.7887945275590549
 31
0
  0
LINE
  5
315
330
1A
100
AcDbEntity
  8
BLACK
  6
CONTINUOUS
100
AcDbLine
 10
5.0215782283464563
 20
-3.7887945275590549
 30
0
 11
5.0216535433070861
 21
-3.788779527559055
 31
0
  0
LINE
  5
316
330
1A
100
AcDbEntity
  8
BLACK
  6
CONTINUOUS
100
AcDbLine
 10
5.0216535433070861
 20
-3.788779527559055
 30
0
 11
5.035826771653543
 21
-3.788779527559055
 31
0
  0
LINE
  5
317
330
1A
100
AcDbEntity
  8
BLACK
  6
CONTINUOUS
100
AcDbLine
 10
5.035826771653543
 20
-3.788779527559055
 30
0
 11
5.0359020866141728
 21
-3.7887945275590549
 31
0
  0
LINE
  5
318
330
1A
100
AcDbEntity
  8
BLACK
  6
CONTINUOUS
100
AcDbLine
 10
5.1988942125984252
 20
-3.7887945275590549
 30
0
 11
5.1990007480314961
 21
-3.7889010629921258
 31
0
  0
LINE
  5
319
330
1A
100
AcDbEntity
  8
BLACK
  6
CONTINUOUS
100
AcDbLine
 10
5.1990007480314961
 20
-3.7889010629921258
 30
0
 11
5.1990157480314956
 21
-3.7889763779527557
 31
0
  0
LINE
  5
31A
330
1A
100
AcDbEntity
  8
BLACK
  6
CONTINUOUS
100
AcDbLine
 10
5.1990157480314956
 20
-3.7889763779527557
 30
0
 11
5.1990157480314956
 21
-3.8133858267716536
 31
0
  0
LINE
  5
31B
330
1A
100
AcDbEntity
  8
BLACK
  6
CONTINUOUS
100
AcDbLine
 10
5.1990157480314956
 20
-3.8133858267716536
 30
0
 11
5.1990007480314961
 21
-3.8134611417322835
 31
0
  0
LINE
  5
31C
330
1A
100
AcDbEntity
  8
BLACK
  6
CONTINUOUS
100
AcDbLine
 10
5.1990007480314961
 20
-3.8134611417322835
 30
0
 11
5.1988942125984252
 21
-3.8135676771653544
 31
0
  0
LINE
  5
31D
330
1A
100
AcDbEntity
  8
BLACK
  6
CONTINUOUS
100
AcDbLine
 10
5.1988942125984252
 20
-3.8135676771653544
 30
0
 11
5.1988188976377954
 21
-3.8135826771653543
 31
0
  0
LINE
  5
31E
330
1A
100
AcDbEntity
  8
BLACK
  6
CONTINUOUS
100
AcDbLine
 10
5.1988188976377954
 20
-3.8135826771653543
 30
0
 11
5.1846456692913385
 21
-3.8135826771653543
 31
0
  0
LINE
  5
31F
330
1A
100
AcDbEntity
  8
BLACK
  6
CONTINUOUS
100
AcDbLine
 10
5.1846456692913385
 20
-3.8135826771653543
 30
0
 11
5.1845703543307087
 21
-3.8135676771653544
 31
0
  0
LINE
  5
320
330
1A
100
AcDbEntity
  8
BLACK
  6
CONTINUOUS
100
AcDbLine
 10
5.1845703543307087
 20
-3.8135676771653544
 30
0
 11
5.1844638188976377
 21
-3.8134611417322835
 31
0
  0
LINE
  5
321
330
1A
100
AcDbEntity
  8
BLACK
  6
CONTINUOUS
100
AcDbLine
 10
5.1844638188976377
 20
-3.8134611417322835
 30
0
 11
5.1844488188976374
 21
-3.8133858267716536
 31
0
  0
LINE
  5
322
330
1A
100
AcDbEntity
  8
BLACK
  6
CONTINUOUS
100
AcDbLine
 10
5.1844488188976374
 20
-3.8133858267716536
 30
0
 11
5.1844488188976374
 21
-3.7889763779527557
 31
0
  0
LINE
  5
323
330
1A
100
AcDbEntity
  8
BLACK
  6
CONTINUOUS
100
AcDbLine
 10
5.1844488188976374
 20
-3.7889763779527557
 30
0
 11
5.1844638188976377
 21
-3.7889010629921258
 31
0
  0
LINE
  5
324
330
1A
100
AcDbEntity
  8
BLACK
  6
CONTINUOUS
100
AcDbLine
 10
5.1844638188976377
 20
-3.7889010629921258
 30
0
 11
5.1845703543307087
 21
-3.7887945275590549
 31
0
  0
LINE
  5
325
330
1A
100
AcDbEntity
  8
BLACK
  6
CONTINUOUS
100
AcDbLine
 10
5.1845703543307087
 20
-3.7887945275590549
 30
0
 11
5.1846456692913385
 21
-3.788779527559055
 31
0
  0
LINE
  5
326
330
1A
100
AcDbEntity
  8
BLACK
  6
CONTINUOUS
100
AcDbLine
 10
5.1846456692913385
 20
-3.788779527559055
 30
0
 11
5.1988188976377954
 21
-3.788779527559055
 31
0
  0
LINE
  5
327
330
1A
100
AcDbEntity
  8
BLACK
  6
CONTINUOUS
100
AcDbLine
 10
5.1988188976377954
 20
-3.788779527559055
 30
0
 11
5.1988942125984252
 21
-3.7887945275590549
 31
0
  0
LINE
  5
328
330
1A
100
AcDbEntity
  8
BLACK
  6
CONTINUOUS
100
AcDbLine
 10
5.2209414566929135
 20
-3.7887945275590549
 30
0
 11
5.2210479921259845
 21
-3.7889010629921258
 31
0
  0
LINE
  5
329
330
1A
100
AcDbEntity
  8
BLACK
  6
CONTINUOUS
100
AcDbLine
 10
5.2210479921259845
 20
-3.7889010629921258
 30
0
 11
5.2210629921259839
 21
-3.7889763779527557
 31
0
  0
LINE
  5
32A
330
1A
100
AcDbEntity
  8
BLACK
  6
CONTINUOUS
100
AcDbLine
 10
5.2210629921259839
 20
-3.7889763779527557
 30
0
 11
5.2210629921259839
 21
-3.8133858267716536
 31
0
  0
LINE
  5
32B
330
1A
100
AcDbEntity
  8
BLACK
  6
CONTINUOUS
100
AcDbLine
 10
5.2210629921259839
 20
-3.8133858267716536
 30
0
 11
5.2210479921259845
 21
-3.8134611417322835
 31
0
  0
LINE
  5
32C
330
1A
100
AcDbEntity
  8
BLACK
  6
CONTINUOUS
100
AcDbLine
 10
5.2210479921259845
 20
-3.8134611417322835
 30
0
 11
5.2209414566929135
 21
-3.8135676771653544
 31
0
  0
LINE
  5
32D
330
1A
100
AcDbEntity
  8
BLACK
  6
CONTINUOUS
100
AcDbLine
 10
5.2209414566929135
 20
-3.8135676771653544
 30
0
 11
5.2208661417322837
 21
-3.8135826771653543
 31
0
  0
LINE
  5
32E
330
1A
100
AcDbEntity
  8
BLACK
  6
CONTINUOUS
100
AcDbLine
 10
5.2208661417322837
 20
-3.8135826771653543
 30
0
 11
5.2066929133858268
 21
-3.8135826771653543
 31
0
  0
LINE
  5
32F
330
1A
100
AcDbEntity
  8
BLACK
  6
CONTINUOUS
100
AcDbLine
 10
5.2066929133858268
 20
-3.8135826771653543
 30
0
 11
5.206617598425197
 21
-3.8135676771653544
 31
0
  0
LINE
  5
330
330
1A
100
AcDbEntity
  8
BLACK
  6
CONTINUOUS
100
AcDbLine
 10
5.206617598425197
 20
-3.8135676771653544
 30
0
 11
5.2065110629921261
 21
-3.8134611417322835
 31
0
  0
LINE
  5
331
330
1A
100
AcDbEntity
  8
BLACK
  6
CONTINUOUS
100
AcDbLine
 10
5.2065110629921261
 20
-3.8134611417322835
 30
0
 11
5.2064960629921258
 21
-3.8133858267716536
 31
0
  0
LINE
  5
332
330
1A
100
AcDbEntity
  8
BLACK
  6
CONTINUOUS
100
AcDbLine
 10
5.2064960629921258
 20
-3.8133858267716536
 30
0
 11
5.2064960629921258
 21
-3.7889763779527557
 31
0
  0
LINE
  5
333
330
1A
100
AcDbEntity
  8
BLACK
  6
CONTINUOUS
100
AcDbLine
 10
5.2064960629921258
 20
-3.7889763779527557
 30
0
 11
5.2065110629921261
 21
-3.7889010629921258
 31
0
  0
LINE
  5
334
330
1A
100
AcDbEntity
  8
BLACK
  6
CONTINUOUS
100
AcDbLine
 10
5.2065110629921261
 20
-3.7889010629921258
 30
0
 11
5.206617598425197
 21
-3.7887945275590549
 31
0
  0
LINE
  5
335
330
1A
100
AcDbEntity
  8
BLACK
  6
CONTINUOUS
100
AcDbLine
 10
5.206617598425197
 20
-3.7887945275590549
 30
0
 11
5.2066929133858268
 21
-3.788779527559055
 31
0
  0
LINE
  5
336
330
1A
100
AcDbEntity
  8
BLACK
  6
CONTINUOUS
100
AcDbLine
 10
5.2066929133858268
 20
-3.788779527559055
 30
0
 11
5.2208661417322837
 21
-3.788779527559055
 31
0
  0
LINE
  5
337
330
1A
100
AcDbEntity
  8
BLACK
  6
CONTINUOUS
100
AcDbLine
 10
5.2208661417322837
 20
-3.788779527559055
 30
0
 11
5.2209414566929135
 21
-3.7887945275590549
 31
0
  0
LINE
  5
338
330
1A
100
AcDbEntity
  8
BLACK
  6
CONTINUOUS
100
AcDbLine
 10
5.383933582677165
 20
-3.7887945275590549
 30
0
 11
5.384040118110236
 21
-3.7889010629921258
 31
0
  0
LINE
  5
339
330
1A
100
AcDbEntity
  8
BLACK
  6
CONTINUOUS
100
AcDbLine
 10
5.384040118110236
 20
-3.7889010629921258
 30
0
 11
5.3840551181102363
 21
-3.7889763779527557
 31
0
  0
LINE
  5
33A
330
1A
100
AcDbEntity
  8
BLACK
  6
CONTINUOUS
100
AcDbLine
 10
5.3840551181102363
 20
-3.7889763779527557
 30
0
 11
5.3840551181102363
 21
-3.8133858267716536
 31
0
  0
LINE
  5
33B
330
1A
100
AcDbEntity
  8
BLACK
  6
CONTINUOUS
100
AcDbLine
 10
5.3840551181102363
 20
-3.8133858267716536
 30
0
 11
5.384040118110236
 21
-3.8134611417322835
 31
0
  0
LINE
  5
33C
330
1A
100
AcDbEntity
  8
BLACK
  6
CONTINUOUS
100
AcDbLine
 10
5.384040118110236
 20
-3.8134611417322835
 30
0
 11
5.383933582677165
 21
-3.8135676771653544
 31
0
  0
LINE
  5
33D
330
1A
100
AcDbEntity
  8
BLACK
  6
CONTINUOUS
100
AcDbLine
 10
5.383933582677165
 20
-3.8135676771653544
 30
0
 11
5.3838582677165352
 21
-3.8135826771653543
 31
0
  0
LINE
  5
33E
330
1A
100
AcDbEntity
  8
BLACK
  6
CONTINUOUS
100
AcDbLine
 10
5.3838582677165352
 20
-3.8135826771653543
 30
0
 11
5.3696850393700783
 21
-3.8135826771653543
 31
0
  0
LINE
  5
33F
330
1A
100
AcDbEntity
  8
BLACK
  6
CONTINUOUS
100
AcDbLine
 10
5.3696850393700783
 20
-3.8135826771653543
 30
0
 11
5.3696097244094485
 21
-3.8135676771653544
 31
0
  0
LINE
  5
340
330
1A
100
AcDbEntity
  8
BLACK
  6
CONTINUOUS
100
AcDbLine
 10
5.3696097244094485
 20
-3.8135676771653544
 30
0
 11
5.3695031889763776
 21
-3.8134611417322835
 31
0
  0
LINE
  5
341
330
1A
100
AcDbEntity
  8
BLACK
  6
CONTINUOUS
100
AcDbLine
 10
5.3695031889763776
 20
-3.8134611417322835
 30
0
 11
5.3694881889763781
 21
-3.8133858267716536
 31
0
  0
LINE
  5
342
330
1A
100
AcDbEntity
  8
BLACK
  6
CONTINUOUS
100
AcDbLine
 10
5.3694881889763781
 20
-3.8133858267716536
 30
0
 11
5.3694881889763781
 21
-3.7889763779527557
 31
0
  0
LINE
  5
343
330
1A
100
AcDbEntity
  8
BLACK
  6
CONTINUOUS
100
AcDbLine
 10
5.3694881889763781
 20
-3.7889763779527557
 30
0
 11
5.3695031889763776
 21
-3.7889010629921258
 31
0
  0
LINE
  5
344
330
1A
100
AcDbEntity
  8
BLACK
  6
CONTINUOUS
100
AcDbLine
 10
5.3695031889763776
 20
-3.7889010629921258
 30
0
 11
5.3696097244094485
 21
-3.7887945275590549
 31
0
  0
LINE
  5
345
330
1A
100
AcDbEntity
  8
BLACK
  6
CONTINUOUS
100
AcDbLine
 10
5.3696097244094485
 20
-3.7887945275590549
 30
0
 11
5.3696850393700783
 21
-3.788779527559055
 31
0
  0
LINE
  5
346
330
1A
100
AcDbEntity
  8
BLACK
  6
CONTINUOUS
100
AcDbLine
 10
5.3696850393700783
 20
-3.788779527559055
 30
0
 11
5.3838582677165352
 21
-3.788779527559055
 31
0
  0
LINE
  5
347
330
1A
100
AcDbEntity
  8
BLACK
  6
CONTINUOUS
100
AcDbLine
 10
5.3838582677165352
 20
-3.788779527559055
 30
0
 11
5.383933582677165
 21
-3.7887945275590549
 31
0
  0
LINE
  5
348
330
1A
100
AcDbEntity
  8
BLACK
  6
CONTINUOUS
100
AcDbLine
 10
5.4059808267716534
 20
-3.7887945275590549
 30
0
 11
5.4060873622047243
 21
-3.7889010629921258
 31
0
  0
LINE
  5
349
330
1A
100
AcDbEntity
  8
BLACK
  6
CONTINUOUS
100
AcDbLine
 10
5.4060873622047243
 20
-3.7889010629921258
 30
0
 11
5.4061023622047246
 21
-3.7889763779527557
 31
0
  0
LINE
  5
34A
330
1A
100
AcDbEntity
  8
BLACK
  6
CONTINUOUS
100
AcDbLine
 10
5.4061023622047246
 20
-3.7889763779527557
 30
0
 11
5.4061023622047246
 21
-3.8133858267716536
 31
0
  0
LINE
  5
34B
330
1A
100
AcDbEntity
  8
BLACK
  6
CONTINUOUS
100
AcDbLine
 10
5.4061023622047246
 20
-3.8133858267716536
 30
0
 11
5.4060873622047243
 21
-3.8134611417322835
 31
0
  0
LINE
  5
34C
330
1A
100
AcDbEntity
  8
BLACK
  6
CONTINUOUS
100
AcDbLine
 10
5.4060873622047243
 20
-3.8134611417322835
 30
0
 11
5.4059808267716534
 21
-3.8135676771653544
 31
0
  0
LINE
  5
34D
330
1A
100
AcDbEntity
  8
BLACK
  6
CONTINUOUS
100
AcDbLine
 10
5.4059808267716534
 20
-3.8135676771653544
 30
0
 11
5.4059055118110235
 21
-3.8135826771653543
 31
0
  0
LINE
  5
34E
330
1A
100
AcDbEntity
  8
BLACK
  6
CONTINUOUS
100
AcDbLine
 10
5.4059055118110235
 20
-3.8135826771653543
 30
0
 11
5.3917322834645667
 21
-3.8135826771653543
 31
0
  0
LINE
  5
34F
330
1A
100
AcDbEntity
  8
BLACK
  6
CONTINUOUS
100
AcDbLine
 10
5.3917322834645667
 20
-3.8135826771653543
 30
0
 11
5.3916569685039368
 21
-3.8135676771653544
 31
0
  0
LINE
  5
350
330
1A
100
AcDbEntity
  8
BLACK
  6
CONTINUOUS
100
AcDbLine
 10
5.3916569685039368
 20
-3.8135676771653544
 30
0
 11
5.3915504330708659
 21
-3.8134611417322835
 31
0
  0
LINE
  5
351
330
1A
100
AcDbEntity
  8
BLACK
  6
CONTINUOUS
100
AcDbLine
 10
5.3915504330708659
 20
-3.8134611417322835
 30
0
 11
5.3915354330708656
 21
-3.8133858267716536
 31
0
  0
LINE
  5
352
330
1A
100
AcDbEntity
  8
BLACK
  6
CONTINUOUS
100
AcDbLine
 10
5.3915354330708656
 20
-3.8133858267716536
 30
0
 11
5.3915354330708656
 21
-3.7889763779527557
 31
0
  0
LINE
  5
353
330
1A
100
AcDbEntity
  8
BLACK
  6
CONTINUOUS
100
AcDbLine
 10
5.3915354330708656
 20
-3.7889763779527557
 30
0
 11
5.3915504330708659
 21
-3.7889010629921258
 31
0
  0
LINE
  5
354
330
1A
100
AcDbEntity
  8
BLACK
  6
CONTINUOUS
100
AcDbLine
 10
5.3915504330708659
 20
-3.7889010629921258
 30
0
 11
5.3916569685039368
 21
-3.7887945275590549
 31
0
  0
LINE
  5
355
330
1A
100
AcDbEntity
  8
BLACK
  6
CONTINUOUS
100
AcDbLine
 10
5.3916569685039368
 20
-3.7887945275590549
 30
0
 11
5.3917322834645667
 21
-3.788779527559055
 31
0
  0
LINE
  5
356
330
1A
100
AcDbEntity
  8
BLACK
  6
CONTINUOUS
100
AcDbLine
 10
5.3917322834645667
 20
-3.788779527559055
 30
0
 11
5.4059055118110235
 21
-3.788779527559055
 31
0
  0
LINE
  5
357
330
1A
100
AcDbEntity
  8
BLACK
  6
CONTINUOUS
100
AcDbLine
 10
5.4059055118110235
 20
-3.788779527559055
 30
0
 11
5.4059808267716534
 21
-3.7887945275590549
 31
0
  0
LINE
  5
358
330
1A
100
AcDbEntity
  8
BLACK
  6
CONTINUOUS
100
AcDbLine
 10
5.5689729527559058
 20
-3.7887945275590549
 30
0
 11
5.5690794881889767
 21
-3.7889010629921258
 31
0
  0
LINE
  5
359
330
1A
100
AcDbEntity
  8
BLACK
  6
CONTINUOUS
100
AcDbLine
 10
5.5690794881889767
 20
-3.7889010629921258
 30
0
 11
5.5690944881889761
 21
-3.7889763779527557
 31
0
  0
LINE
  5
35A
330
1A
100
AcDbEntity
  8
BLACK
  6
CONTINUOUS
100
AcDbLine
 10
5.5690944881889761
 20
-3.7889763779527557
 30
0
 11
5.5690944881889761
 21
-3.8133858267716536
 31
0
  0
LINE
  5
35B
330
1A
100
AcDbEntity
  8
BLACK
  6
CONTINUOUS
100
AcDbLine
 10
5.5690944881889761
 20
-3.8133858267716536
 30
0
 11
5.5690794881889767
 21
-3.8134611417322835
 31
0
  0
LINE
  5
35C
330
1A
100
AcDbEntity
  8
BLACK
  6
CONTINUOUS
100
AcDbLine
 10
5.5690794881889767
 20
-3.8134611417322835
 30
0
 11
5.5689729527559058
 21
-3.8135676771653544
 31
0
  0
LINE
  5
35D
330
1A
100
AcDbEntity
  8
BLACK
  6
CONTINUOUS
100
AcDbLine
 10
5.5689729527559058
 20
-3.8135676771653544
 30
0
 11
5.568897637795275
 21
-3.8135826771653543
 31
0
  0
LINE
  5
35E
330
1A
100
AcDbEntity
  8
BLACK
  6
CONTINUOUS
100
AcDbLine
 10
5.568897637795275
 20
-3.8135826771653543
 30
0
 11
5.5547244094488191
 21
-3.8135826771653543
 31
0
  0
LINE
  5
35F
330
1A
100
AcDbEntity
  8
BLACK
  6
CONTINUOUS
100
AcDbLine
 10
5.5547244094488191
 20
-3.8135826771653543
 30
0
 11
5.5546490944881892
 21
-3.8135676771653544
 31
0
  0
LINE
  5
360
330
1A
100
AcDbEntity
  8
BLACK
  6
CONTINUOUS
100
AcDbLine
 10
5.5546490944881892
 20
-3.8135676771653544
 30
0
 11
5.5545425590551183
 21
-3.8134611417322835
 31
0
  0
LINE
  5
361
330
1A
100
AcDbEntity
  8
BLACK
  6
CONTINUOUS
100
AcDbLine
 10
5.5545425590551183
 20
-3.8134611417322835
 30
0
 11
5.554527559055118
 21
-3.8133858267716536
 31
0
  0
LINE
  5
362
330
1A
100
AcDbEntity
  8
BLACK
  6
CONTINUOUS
100
AcDbLine
 10
5.554527559055118
 20
-3.8133858267716536
 30
0
 11
5.554527559055118
 21
-3.7889763779527557
 31
0
  0
LINE
  5
363
330
1A
100
AcDbEntity
  8
BLACK
  6
CONTINUOUS
100
AcDbLine
 10
5.554527559055118
 20
-3.7889763779527557
 30
0
 11
5.5545425590551183
 21
-3.7889010629921258
 31
0
  0
LINE
  5
364
330
1A
100
AcDbEntity
  8
BLACK
  6
CONTINUOUS
100
AcDbLine
 10
5.5545425590551183
 20
-3.7889010629921258
 30
0
 11
5.5546490944881892
 21
-3.7887945275590549
 31
0
  0
LINE
  5
365
330
1A
100
AcDbEntity
  8
BLACK
  6
CONTINUOUS
100
AcDbLine
 10
5.5546490944881892
 20
-3.7887945275590549
 30
0
 11
5.5547244094488191
 21
-3.788779527559055
 31
0
  0
LINE
  5
366
330
1A
100
AcDbEntity
  8
BLACK
  6
CONTINUOUS
100
AcDbLine
 10
5.5547244094488191
 20
-3.788779527559055
 30
0
 11
5.568897637795275
 21
-3.788779527559055
 31
0
  0
LINE
  5
367
330
1A
100
AcDbEntity
  8
BLACK
  6
CONTINUOUS
100
AcDbLine
 10
5.568897637795275
 20
-3.788779527559055
 30
0
 11
5.5689729527559058
 21
-3.7887945275590549
 31
0
  0
LINE
  5
368
330
1A
100
AcDbEntity
  8
BLACK
  6
CONTINUOUS
100
AcDbLine
 10
5.5910201968503932
 20
-3.7887945275590549
 30
0
 11
5.5911267322834641
 21
-3.7889010629921258
 31
0
  0
LINE
  5
369
330
1A
100
AcDbEntity
  8
BLACK
  6
CONTINUOUS
100
AcDbLine
 10
5.5911267322834641
 20
-3.7889010629921258
 30
0
 11
5.5911417322834644
 21
-3.7889763779527557
 31
0
  0
LINE
  5
36A
330
1A
100
AcDbEntity
  8
BLACK
  6
CONTINUOUS
100
AcDbLine
 10
5.5911417322834644
 20
-3.7889763779527557
 30
0
 11
5.5911417322834644
 21
-3.8133858267716536
 31
0
  0
LINE
  5
36B
330
1A
100
AcDbEntity
  8
BLACK
  6
CONTINUOUS
100
AcDbLine
 10
5.5911417322834644
 20
-3.8133858267716536
 30
0
 11
5.5911267322834641
 21
-3.8134611417322835
 31
0
  0
LINE
  5
36C
330
1A
100
AcDbEntity
  8
BLACK
  6
CONTINUOUS
100
AcDbLine
 10
5.5911267322834641
 20
-3.8134611417322835
 30
0
 11
5.5910201968503932
 21
-3.8135676771653544
 31
0
  0
LINE
  5
36D
330
1A
100
AcDbEntity
  8
BLACK
  6
CONTINUOUS
100
AcDbLine
 10
5.5910201968503932
 20
-3.8135676771653544
 30
0
 11
5.5909448818897634
 21
-3.8135826771653543
 31
0
  0
LINE
  5
36E
330
1A
100
AcDbEntity
  8
BLACK
  6
CONTINUOUS
100
AcDbLine
 10
5.5909448818897634
 20
-3.8135826771653543
 30
0
 11
5.5767716535433074
 21
-3.8135826771653543
 31
0
  0
LINE
  5
36F
330
1A
100
AcDbEntity
  8
BLACK
  6
CONTINUOUS
100
AcDbLine
 10
5.5767716535433074
 20
-3.8135826771653543
 30
0
 11
5.5766963385826767
 21
-3.8135676771653544
 31
0
  0
LINE
  5
370
330
1A
100
AcDbEntity
  8
BLACK
  6
CONTINUOUS
100
AcDbLine
 10
5.5766963385826767
 20
-3.8135676771653544
 30
0
 11
5.5765898031496057
 21
-3.8134611417322835
 31
0
  0
LINE
  5
371
330
1A
100
AcDbEntity
  8
BLACK
  6
CONTINUOUS
100
AcDbLine
 10
5.5765898031496057
 20
-3.8134611417322835
 30
0
 11
5.5765748031496063
 21
-3.8133858267716536
 31
0
  0
LINE
  5
372
330
1A
100
AcDbEntity
  8
BLACK
  6
CONTINUOUS
100
AcDbLine
 10
5.5765748031496063
 20
-3.8133858267716536
 30
0
 11
5.5765748031496063
 21
-3.7889763779527557
 31
0
  0
LINE
  5
373
330
1A
100
AcDbEntity
  8
BLACK
  6
CONTINUOUS
100
AcDbLine
 10
5.5765748031496063
 20
-3.7889763779527557
 30
0
 11
5.5765898031496057
 21
-3.7889010629921258
 31
0
  0
LINE
  5
374
330
1A
100
AcDbEntity
  8
BLACK
  6
CONTINUOUS
100
AcDbLine
 10
5.5765898031496057
 20
-3.7889010629921258
 30
0
 11
5.5766963385826767
 21
-3.7887945275590549
 31
0
  0
LINE
  5
375
330
1A
100
AcDbEntity
  8
BLACK
  6
CONTINUOUS
100
AcDbLine
 10
5.5766963385826767
 20
-3.7887945275590549
 30
0
 11
5.5767716535433074
 21
-3.788779527559055
 31
0
  0
LINE
  5
376
330
1A
100
AcDbEntity
  8
BLACK
  6
CONTINUOUS
100
AcDbLine
 10
5.5767716535433074
 20
-3.788779527559055
 30
0
 11
5.5909448818897634
 21
-3.788779527559055
 31
0
  0
LINE
  5
377
330
1A
100
AcDbEntity
  8
BLACK
  6
CONTINUOUS
100
AcDbLine
 10
5.5909448818897634
 20
-3.788779527559055
 30
0
 11
5.5910201968503932
 21
-3.7887945275590549
 31
0
  0
LINE
  5
378
330
1A
100
AcDbEntity
  8
BLACK
  6
CONTINUOUS
100
AcDbLine
 10
5.0023622047244096
 20
-3.7799212598425198
 30
0
 11
4.9937007874015746
 21
-3.7799212598425198
 31
0
  0
LINE
  5
379
330
1A
100
AcDbEntity
  8
BLACK
  6
CONTINUOUS
100
AcDbLine
 10
4.9937007874015746
 20
-3.7799212598425198
 30
0
 11
4.9937007874015746
 21
-3.7618110236220472
 31
0
  0
LINE
  5
37A
330
1A
100
AcDbEntity
  8
BLACK
  6
CONTINUOUS
100
AcDbLine
 10
4.9937007874015746
 20
-3.7618110236220472
 30
0
 11
5.0023622047244096
 21
-3.7618110236220472
 31
0
  0
LINE
  5
37B
330
1A
100
AcDbEntity
  8
BLACK
  6
CONTINUOUS
100
AcDbLine
 10
5.0023622047244096
 20
-3.7618110236220472
 30
0
 11
5.0023622047244096
 21
-3.7799212598425198
 31
0
  0
LINE
  5
37C
330
1A
100
AcDbEntity
  8
BLACK
  6
CONTINUOUS
100
AcDbLine
 10
5.0220472440944883
 20
-3.7799212598425198
 30
0
 11
5.0133858267716533
 21
-3.7799212598425198
 31
0
  0
LINE
  5
37D
330
1A
100
AcDbEntity
  8
BLACK
  6
CONTINUOUS
100
AcDbLine
 10
5.0133858267716533
 20
-3.7799212598425198
 30
0
 11
5.0133858267716533
 21
-3.7618110236220472
 31
0
  0
LINE
  5
37E
330
1A
100
AcDbEntity
  8
BLACK
  6
CONTINUOUS
100
AcDbLine
 10
5.0133858267716533
 20
-3.7618110236220472
 30
0
 11
5.0220472440944883
 21
-3.7618110236220472
 31
0
  0
LINE
  5
37F
330
1A
100
AcDbEntity
  8
BLACK
  6
CONTINUOUS
100
AcDbLine
 10
5.0220472440944883
 20
-3.7618110236220472
 30
0
 11
5.0220472440944883
 21
-3.7799212598425198
 31
0
  0
LINE
  5
380
330
1A
100
AcDbEntity
  8
BLACK
  6
CONTINUOUS
100
AcDbLine
 10
5.041732283464567
 20
-3.7799212598425198
 30
0
 11
5.033070866141732
 21
-3.7799212598425198
 31
0
  0
LINE
  5
381
330
1A
100
AcDbEntity
  8
BLACK
  6
CONTINUOUS
100
AcDbLine
 10
5.033070866141732
 20
-3.7799212598425198
 30
0
 11
5.033070866141732
 21
-3.7618110236220472
 31
0
  0
LINE
  5
382
330
1A
100
AcDbEntity
  8
BLACK
  6
CONTINUOUS
100
AcDbLine
 10
5.033070866141732
 20
-3.7618110236220472
 30
0
 11
5.041732283464567
 21
-3.7618110236220472
 31
0
  0
LINE
  5
383
330
1A
100
AcDbEntity
  8
BLACK
  6
CONTINUOUS
100
AcDbLine
 10
5.041732283464567
 20
-3.7618110236220472
 30
0
 11
5.041732283464567
 21
-3.7799212598425198
 31
0
  0
LINE
  5
384
330
1A
100
AcDbEntity
  8
BLACK
  6
CONTINUOUS
100
AcDbLine
 10
5.1874015748031495
 20
-3.7799212598425198
 30
0
 11
5.1787401574803145
 21
-3.7799212598425198
 31
0
  0
LINE
  5
385
330
1A
100
AcDbEntity
  8
BLACK
  6
CONTINUOUS
100
AcDbLine
 10
5.1787401574803145
 20
-3.7799212598425198
 30
0
 11
5.1787401574803145
 21
-3.7618110236220472
 31
0
  0
LINE
  5
386
330
1A
100
AcDbEntity
  8
BLACK
  6
CONTINUOUS
100
AcDbLine
 10
5.1787401574803145
 20
-3.7618110236220472
 30
0
 11
5.1874015748031495
 21
-3.7618110236220472
 31
0
  0
LINE
  5
387
330
1A
100
AcDbEntity
  8
BLACK
  6
CONTINUOUS
100
AcDbLine
 10
5.1874015748031495
 20
-3.7618110236220472
 30
0
 11
5.1874015748031495
 21
-3.7799212598425198
 31
0
  0
LINE
  5
388
330
1A
100
AcDbEntity
  8
BLACK
  6
CONTINUOUS
100
AcDbLine
 10
5.2070866141732282
 20
-3.7799212598425198
 30
0
 11
5.1984251968503932
 21
-3.7799212598425198
 31
0
  0
LINE
  5
389
330
1A
100
AcDbEntity
  8
BLACK
  6
CONTINUOUS
100
AcDbLine
 10
5.1984251968503932
 20
-3.7799212598425198
 30
0
 11
5.1984251968503932
 21
-3.7618110236220472
 31
0
  0
LINE
  5
38A
330
1A
100
AcDbEntity
  8
BLACK
  6
CONTINUOUS
100
AcDbLine
 10
5.1984251968503932
 20
-3.7618110236220472
 30
0
 11
5.2070866141732282
 21
-3.7618110236220472
 31
0
  0
LINE
  5
38B
330
1A
100
AcDbEntity
  8
BLACK
  6
CONTINUOUS
100
AcDbLine
 10
5.2070866141732282
 20
-3.7618110236220472
 30
0
 11
5.2070866141732282
 21
-3.7799212598425198
 31
0
  0
LINE
  5
38C
330
1A
100
AcDbEntity
  8
BLACK
  6
CONTINUOUS
100
AcDbLine
 10
5.2267716535433069
 20
-3.7799212598425198
 30
0
 11
5.2181102362204728
 21
-3.7799212598425198
 31
0
  0
LINE
  5
38D
330
1A
100
AcDbEntity
  8
BLACK
  6
CONTINUOUS
100
AcDbLine
 10
5.2181102362204728
 20
-3.7799212598425198
 30
0
 11
5.2181102362204728
 21
-3.7618110236220472
 31
0
  0
LINE
  5
38E
330
1A
100
AcDbEntity
  8
BLACK
  6
CONTINUOUS
100
AcDbLine
 10
5.2181102362204728
 20
-3.7618110236220472
 30
0
 11
5.2267716535433069
 21
-3.7618110236220472
 31
0
  0
LINE
  5
38F
330
1A
100
AcDbEntity
  8
BLACK
  6
CONTINUOUS
100
AcDbLine
 10
5.2267716535433069
 20
-3.7618110236220472
 30
0
 11
5.2267716535433069
 21
-3.7799212598425198
 31
0
  0
LINE
  5
390
330
1A
100
AcDbEntity
  8
BLACK
  6
CONTINUOUS
100
AcDbLine
 10
5.3724409448818893
 20
-3.7799212598425198
 30
0
 11
5.3637795275590552
 21
-3.7799212598425198
 31
0
  0
LINE
  5
391
330
1A
100
AcDbEntity
  8
BLACK
  6
CONTINUOUS
100
AcDbLine
 10
5.3637795275590552
 20
-3.7799212598425198
 30
0
 11
5.3637795275590552
 21
-3.7618110236220472
 31
0
  0
LINE
  5
392
330
1A
100
AcDbEntity
  8
BLACK
  6
CONTINUOUS
100
AcDbLine
 10
5.3637795275590552
 20
-3.7618110236220472
 30
0
 11
5.3724409448818893
 21
-3.7618110236220472
 31
0
  0
LINE
  5
393
330
1A
100
AcDbEntity
  8
BLACK
  6
CONTINUOUS
100
AcDbLine
 10
5.3724409448818893
 20
-3.7618110236220472
 30
0
 11
5.3724409448818893
 21
-3.7799212598425198
 31
0
  0
LINE
  5
394
330
1A
100
AcDbEntity
  8
BLACK
  6
CONTINUOUS
100
AcDbLine
 10
5.392125984251968
 20
-3.7799212598425198
 30
0
 11
5.3834645669291339
 21
-3.7799212598425198
 31
0
  0
LINE
  5
395
330
1A
100
AcDbEntity
  8
BLACK
  6
CONTINUOUS
100
AcDbLine
 10
5.3834645669291339
 20
-3.7799212598425198
 30
0
 11
5.3834645669291339
 21
-3.7618110236220472
 31
0
  0
LINE
  5
396
330
1A
100
AcDbEntity
  8
BLACK
  6
CONTINUOUS
100
AcDbLine
 10
5.3834645669291339
 20
-3.7618110236220472
 30
0
 11
5.392125984251968
 21
-3.7618110236220472
 31
0
  0
LINE
  5
397
330
1A
100
AcDbEntity
  8
BLACK
  6
CONTINUOUS
100
AcDbLine
 10
5.392125984251968
 20
-3.7618110236220472
 30
0
 11
5.392125984251968
 21
-3.7799212598425198
 31
0
  0
LINE
  5
398
330
1A
100
AcDbEntity
  8
BLACK
  6
CONTINUOUS
100
AcDbLine
 10
5.4118110236220467
 20
-3.7799212598425198
 30
0
 11
5.4031496062992126
 21
-3.7799212598425198
 31
0
  0
LINE
  5
399
330
1A
100
AcDbEntity
  8
BLACK
  6
CONTINUOUS
100
AcDbLine
 10
5.4031496062992126
 20
-3.7799212598425198
 30
0
 11
5.4031496062992126
 21
-3.7618110236220472
 31
0
  0
LINE
  5
39A
330
1A
100
AcDbEntity
  8
BLACK
  6
CONTINUOUS
100
AcDbLine
 10
5.4031496062992126
 20
-3.7618110236220472
 30
0
 11
5.4118110236220467
 21
-3.7618110236220472
 31
0
  0
LINE
  5
39B
330
1A
100
AcDbEntity
  8
BLACK
  6
CONTINUOUS
100
AcDbLine
 10
5.4118110236220467
 20
-3.7618110236220472
 30
0
 11
5.4118110236220467
 21
-3.7799212598425198
 31
0
  0
LINE
  5
39C
330
1A
100
AcDbEntity
  8
BLACK
  6
CONTINUOUS
100
AcDbLine
 10
5.55748031496063
 20
-3.7799212598425198
 30
0
 11
5.548818897637795
 21
-3.7799212598425198
 31
0
  0
LINE
  5
39D
330
1A
100
AcDbEntity
  8
BLACK
  6
CONTINUOUS
100
AcDbLine
 10
5.548818897637795
 20
-3.7799212598425198
 30
0
 11
5.548818897637795
 21
-3.7618110236220472
 31
0
  0
LINE
  5
39E
330
1A
100
AcDbEntity
  8
BLACK
  6
CONTINUOUS
100
AcDbLine
 10
5.548818897637795
 20
-3.7618110236220472
 30
0
 11
5.55748031496063
 21
-3.7618110236220472
 31
0
  0
LINE
  5
39F
330
1A
100
AcDbEntity
  8
BLACK
  6
CONTINUOUS
100
AcDbLine
 10
5.55748031496063
 20
-3.7618110236220472
 30
0
 11
5.55748031496063
 21
-3.7799212598425198
 31
0
  0
LINE
  5
3A0
330
1A
100
AcDbEntity
  8
BLACK
  6
CONTINUOUS
100
AcDbLine
 10
5.5771653543307087
 20
-3.7799212598425198
 30
0
 11
5.5685039370078737
 21
-3.7799212598425198
 31
0
  0
LINE
  5
3A1
330
1A
100
AcDbEntity
  8
BLACK
  6
CONTINUOUS
100
AcDbLine
 10
5.5685039370078737
 20
-3.7799212598425198
 30
0
 11
5.5685039370078737
 21
-3.7618110236220472
 31
0
  0
LINE
  5
3A2
330
1A
100
AcDbEntity
  8
BLACK
  6
CONTINUOUS
100
AcDbLine
 10
5.5685039370078737
 20
-3.7618110236220472
 30
0
 11
5.5771653543307087
 21
-3.7618110236220472
 31
0
  0
LINE
  5
3A3
330
1A
100
AcDbEntity
  8
BLACK
  6
CONTINUOUS
100
AcDbLine
 10
5.5771653543307087
 20
-3.7618110236220472
 30
0
 11
5.5771653543307087
 21
-3.7799212598425198
 31
0
  0
LINE
  5
3A4
330
1A
100
AcDbEntity
  8
BLACK
  6
CONTINUOUS
100
AcDbLine
 10
5.5968503937007874
 20
-3.7799212598425198
 30
0
 11
5.5881889763779524
 21
-3.7799212598425198
 31
0
  0
LINE
  5
3A5
330
1A
100
AcDbEntity
  8
BLACK
  6
CONTINUOUS
100
AcDbLine
 10
5.5881889763779524
 20
-3.7799212598425198
 30
0
 11
5.5881889763779524
 21
-3.7618110236220472
 31
0
  0
LINE
  5
3A6
330
1A
100
AcDbEntity
  8
BLACK
  6
CONTINUOUS
100
AcDbLine
 10
5.5881889763779524
 20
-3.7618110236220472
 30
0
 11
5.5968503937007874
 21
-3.7618110236220472
 31
0
  0
LINE
  5
3A7
330
1A
100
AcDbEntity
  8
BLACK
  6
CONTINUOUS
100
AcDbLine
 10
5.5968503937007874
 20
-3.7618110236220472
 30
0
 11
5.5968503937007874
 21
-3.7799212598425198
 31
0
  0
LINE
  5
3A8
330
1A
100
AcDbEntity
  8
BLACK
  6
CONTINUOUS
100
AcDbLine
 10
5.163779527559055
 20
-3.724803149606299
 30
0
 11
5.1440944881889763
 21
-3.724803149606299
 31
0
  0
LINE
  5
3A9
330
1A
100
AcDbEntity
  8
BLACK
  6
CONTINUOUS
100
AcDbLine
 10
5.1440944881889763
 20
-3.724803149606299
 30
0
 11
5.1440944881889763
 21
-3.6854330708661416
 31
0
  0
LINE
  5
3AA
330
1A
100
AcDbEntity
  8
BLACK
  6
CONTINUOUS
100
AcDbLine
 10
5.1440944881889763
 20
-3.6854330708661416
 30
0
 11
5.163779527559055
 21
-3.6854330708661416
 31
0
  0
LINE
  5
3AB
330
1A
100
AcDbEntity
  8
BLACK
  6
CONTINUOUS
100
AcDbLine
 10
5.163779527559055
 20
-3.6854330708661416
 30
0
 11
5.163779527559055
 21
-3.724803149606299
 31
0
  0
LINE
  5
3AC
330
1A
100
AcDbEntity
  8
BLACK
  6
CONTINUOUS
100
AcDbLine
 10
5.1952755905511809
 20
-3.724803149606299
 30
0
 11
5.1755905511811022
 21
-3.724803149606299
 31
0
  0
LINE
  5
3AD
330
1A
100
AcDbEntity
  8
BLACK
  6
CONTINUOUS
100
AcDbLine
 10
5.1755905511811022
 20
-3.724803149606299
 30
0
 11
5.1755905511811022
 21
-3.6854330708661416
 31
0
  0
LINE
  5
3AE
330
1A
100
AcDbEntity
  8
BLACK
  6
CONTINUOUS
100
AcDbLine
 10
5.1755905511811022
 20
-3.6854330708661416
 30
0
 11
5.1952755905511809
 21
-3.6854330708661416
 31
0
  0
LINE
  5
3AF
330
1A
100
AcDbEntity
  8
BLACK
  6
CONTINUOUS
100
AcDbLine
 10
5.1952755905511809
 20
-3.6854330708661416
 30
0
 11
5.1952755905511809
 21
-3.724803149606299
 31
0
  0
LINE
  5
3B0
330
1A
100
AcDbEntity
  8
BLACK
  6
CONTINUOUS
100
AcDbLine
 10
5.2267716535433069
 20
-3.724803149606299
 30
0
 11
5.2070866141732282
 21
-3.724803149606299
 31
0
  0
LINE
  5
3B1
330
1A
100
AcDbEntity
  8
BLACK
  6
CONTINUOUS
100
AcDbLine
 10
5.2070866141732282
 20
-3.724803149606299
 30
0
 11
5.2070866141732282
 21
-3.6854330708661416
 31
0
  0
LINE
  5
3B2
330
1A
100
AcDbEntity
  8
BLACK
  6
CONTINUOUS
100
AcDbLine
 10
5.2070866141732282
 20
-3.6854330708661416
 30
0
 11
5.2267716535433069
 21
-3.6854330708661416
 31
0
  0
LINE
  5
3B3
330
1A
100
AcDbEntity
  8
BLACK
  6
CONTINUOUS
100
AcDbLine
 10
5.2267716535433069
 20
-3.6854330708661416
 30
0
 11
5.2267716535433069
 21
-3.724803149606299
 31
0
  0
LINE
  5
3B4
330
1A
100
AcDbEntity
  8
BLACK
  6
CONTINUOUS
100
AcDbLine
 10
5.2582677165354328
 20
-3.724803149606299
 30
0
 11
5.2385826771653541
 21
-3.724803149606299
 31
0
  0
LINE
  5
3B5
330
1A
100
AcDbEntity
  8
BLACK
  6
CONTINUOUS
100
AcDbLine
 10
5.2385826771653541
 20
-3.724803149606299
 30
0
 11
5.2385826771653541
 21
-3.6854330708661416
 31
0
  0
LINE
  5
3B6
330
1A
100
AcDbEntity
  8
BLACK
  6
CONTINUOUS
100
AcDbLine
 10
5.2385826771653541
 20
-3.6854330708661416
 30
0
 11
5.2582677165354328
 21
-3.6854330708661416
 31
0
  0
LINE
  5
3B7
330
1A
100
AcDbEntity
  8
BLACK
  6
CONTINUOUS
100
AcDbLine
 10
5.2582677165354328
 20
-3.6854330708661416
 30
0
 11
5.2582677165354328
 21
-3.724803149606299
 31
0
  0
LINE
  5
3B8
330
1A
100
AcDbEntity
  8
BLACK
  6
CONTINUOUS
100
AcDbLine
 10
5.2897637795275587
 20
-3.724803149606299
 30
0
 11
5.27007874015748
 21
-3.724803149606299
 31
0
  0
LINE
  5
3B9
330
1A
100
AcDbEntity
  8
BLACK
  6
CONTINUOUS
100
AcDbLine
 10
5.27007874015748
 20
-3.724803149606299
 30
0
 11
5.27007874015748
 21
-3.6854330708661416
 31
0
  0
LINE
  5
3BA
330
1A
100
AcDbEntity
  8
BLACK
  6
CONTINUOUS
100
AcDbLine
 10
5.27007874015748
 20
-3.6854330708661416
 30
0
 11
5.2897637795275587
 21
-3.6854330708661416
 31
0
  0
LINE
  5
3BB
330
1A
100
AcDbEntity
  8
BLACK
  6
CONTINUOUS
100
AcDbLine
 10
5.2897637795275587
 20
-3.6854330708661416
 30
0
 11
5.2897637795275587
 21
-3.724803149606299
 31
0
  0
LINE
  5
3BC
330
1A
100
AcDbEntity
  8
BLACK
  6
CONTINUOUS
100
AcDbLine
 10
5.3212598425196846
 20
-3.724803149606299
 30
0
 11
5.3015748031496059
 21
-3.724803149606299
 31
0
  0
LINE
  5
3BD
330
1A
100
AcDbEntity
  8
BLACK
  6
CONTINUOUS
100
AcDbLine
 10
5.3015748031496059
 20
-3.724803149606299
 30
0
 11
5.3015748031496059
 21
-3.6854330708661416
 31
0
  0
LINE
  5
3BE
330
1A
100
AcDbEntity
  8
BLACK
  6
CONTINUOUS
100
AcDbLine
 10
5.3015748031496059
 20
-3.6854330708661416
 30
0
 11
5.3212598425196846
 21
-3.6854330708661416
 31
0
  0
LINE
  5
3BF
330
1A
100
AcDbEntity
  8
BLACK
  6
CONTINUOUS
100
AcDbLine
 10
5.3212598425196846
 20
-3.6854330708661416
 30
0
 11
5.3212598425196846
 21
-3.724803149606299
 31
0
  0
LINE
  5
3C0
330
1A
100
AcDbEntity
  8
BLACK
  6
CONTINUOUS
100
AcDbLine
 10
5.3527559055118106
 20
-3.724803149606299
 30
0
 11
5.3330708661417319
 21
-3.724803149606299
 31
0
  0
LINE
  5
3C1
330
1A
100
AcDbEntity
  8
BLACK
  6
CONTINUOUS
100
AcDbLine
 10
5.3330708661417319
 20
-3.724803149606299
 30
0
 11
5.3330708661417319
 21
-3.6854330708661416
 31
0
  0
LINE
  5
3C2
330
1A
100
AcDbEntity
  8
BLACK
  6
CONTINUOUS
100
AcDbLine
 10
5.3330708661417319
 20
-3.6854330708661416
 30
0
 11
5.3527559055118106
 21
-3.6854330708661416
 31
0
  0
LINE
  5
3C3
330
1A
100
AcDbEntity
  8
BLACK
  6
CONTINUOUS
100
AcDbLine
 10
5.3527559055118106
 20
-3.6854330708661416
 30
0
 11
5.3527559055118106
 21
-3.724803149606299
 31
0
  0
LINE
  5
3C4
330
1A
100
AcDbEntity
  8
BLACK
  6
CONTINUOUS
100
AcDbLine
 10
5.3842519685039365
 20
-3.724803149606299
 30
0
 11
5.3645669291338578
 21
-3.724803149606299
 31
0
  0
LINE
  5
3C5
330
1A
100
AcDbEntity
  8
BLACK
  6
CONTINUOUS
100
AcDbLine
 10
5.3645669291338578
 20
-3.724803149606299
 30
0
 11
5.3645669291338578
 21
-3.6854330708661416
 31
0
  0
LINE
  5
3C6
330
1A
100
AcDbEntity
  8
BLACK
  6
CONTINUOUS
100
AcDbLine
 10
5.3645669291338578
 20
-3.6854330708661416
 30
0
 11
5.3842519685039365
 21
-3.6854330708661416
 31
0
  0
LINE
  5
3C7
330
1A
100
AcDbEntity
  8
BLACK
  6
CONTINUOUS
100
AcDbLine
 10
5.3842519685039365
 20
-3.6854330708661416
 30
0
 11
5.3842519685039365
 21
-3.724803149606299
 31
0
  0
LINE
  5
3C8
330
1A
100
AcDbEntity
  8
BLACK
  6
CONTINUOUS
100
AcDbLine
 10
5.4157480314960624
 20
-3.724803149606299
 30
0
 11
5.3960629921259837
 21
-3.724803149606299
 31
0
  0
LINE
  5
3C9
330
1A
100
AcDbEntity
  8
BLACK
  6
CONTINUOUS
100
AcDbLine
 10
5.3960629921259837
 20
-3.724803149606299
 30
0
 11
5.3960629921259837
 21
-3.6854330708661416
 31
0
  0
LINE
  5
3CA
330
1A
100
AcDbEntity
  8
BLACK
  6
CONTINUOUS
100
AcDbLine
 10
5.3960629921259837
 20
-3.6854330708661416
 30
0
 11
5.4157480314960624
 21
-3.6854330708661416
 31
0
  0
LINE
  5
3CB
330
1A
100
AcDbEntity
  8
BLACK
  6
CONTINUOUS
100
AcDbLine
 10
5.4157480314960624
 20
-3.6854330708661416
 30
0
 11
5.4157480314960624
 21
-3.724803149606299
 31
0
  0
LINE
  5
3CC
330
1A
100
AcDbEntity
  8
BLACK
  6
CONTINUOUS
100
AcDbLine
 10
5.4472440944881892
 20
-3.724803149606299
 30
0
 11
5.4275590551181105
 21
-3.724803149606299
 31
0
  0
LINE
  5
3CD
330
1A
100
AcDbEntity
  8
BLACK
  6
CONTINUOUS
100
AcDbLine
 10
5.4275590551181105
 20
-3.724803149606299
 30
0
 11
5.4275590551181105
 21
-3.6854330708661416
 31
0
  0
LINE
  5
3CE
330
1A
100
AcDbEntity
  8
BLACK
  6
CONTINUOUS
100
AcDbLine
 10
5.4275590551181105
 20
-3.6854330708661416
 30
0
 11
5.4472440944881892
 21
-3.6854330708661416
 31
0
  0
LINE
  5
3CF
330
1A
100
AcDbEntity
  8
BLACK
  6
CONTINUOUS
100
AcDbLine
 10
5.4472440944881892
 20
-3.6854330708661416
 30
0
 11
5.4472440944881892
 21
-3.724803149606299
 31
0
  0
LINE
  5
3D0
330
1A
100
AcDbEntity
  8
BLACK
  6
CONTINUOUS
100
AcDbLine
 10
5.126377952755905
 20
-3.6657480314960629
 30
0
 11
5.0791338582677161
 21
-3.6657480314960629
 31
0
  0
LINE
  5
3D1
330
1A
100
AcDbEntity
  8
BLACK
  6
CONTINUOUS
100
AcDbLine
 10
5.0791338582677161
 20
-3.6657480314960629
 30
0
 11
5.0791338582677161
 21
-3.5988188976377953
 31
0
  0
LINE
  5
3D2
330
1A
100
AcDbEntity
  8
BLACK
  6
CONTINUOUS
100
AcDbLine
 10
5.0791338582677161
 20
-3.5988188976377953
 30
0
 11
5.126377952755905
 21
-3.5988188976377953
 31
0
  0
LINE
  5
3D3
330
1A
100
AcDbEntity
  8
BLACK
  6
CONTINUOUS
100
AcDbLine
 10
5.126377952755905
 20
-3.5988188976377953
 30
0
 11
5.126377952755905
 21
-3.6657480314960629
 31
0
  0
LINE
  5
3D4
330
1A
100
AcDbEntity
  8
BLACK
  6
CONTINUOUS
100
AcDbLine
 10
5.5122047244094485
 20
-3.6657480314960629
 30
0
 11
5.4649606299212596
 21
-3.6657480314960629
 31
0
  0
LINE
  5
3D5
330
1A
100
AcDbEntity
  8
BLACK
  6
CONTINUOUS
100
AcDbLine
 10
5.4649606299212596
 20
-3.6657480314960629
 30
0
 11
5.4649606299212596
 21
-3.5988188976377953
 31
0
  0
LINE
  5
3D6
330
1A
100
AcDbEntity
  8
BLACK
  6
CONTINUOUS
100
AcDbLine
 10
5.4649606299212596
 20
-3.5988188976377953
 30
0
 11
5.5122047244094485
 21
-3.5988188976377953
 31
0
  0
LINE
  5
3D7
330
1A
100
AcDbEntity
  8
BLACK
  6
CONTINUOUS
100
AcDbLine
 10
5.5122047244094485
 20
-3.5988188976377953
 30
0
 11
5.5122047244094485
 21
-3.6657480314960629
 31
0
  0
ENDSEC
  0
SECTION
  2
OBJECTS
  0
DICTIONARY
  5
20
330
0
100
AcDbDictionary
281
1
  3
ACAD_GROUP
350
3D8
  3
ACAD_LAYOUT
350
21
  3
ACAD_PLOTSTYLENAME
350
11
  0
DICTIONARY
  5
3D8
330
20
100
AcDbDictionary
281
1
  0
ACDBDICTIONARYWDFLT
  5
11
330
20
100
AcDbDictionary
281
1
  3
Normal
350
10
100
AcDbDictionaryWithDefault
340
10
  0
ACDBPLACEHOLDER
  5
10
330
11
  0
DICTIONARY
  5
21
330
20
100
AcDbDictionary
281
1
  3
Model
350
1D
  3
Layout1
350
1E
  3
Layout2
350
1F
  0
LAYOUT
  5
1D
330
21
100
AcDbPlotSettings
  1

  2
none_device
  4
A3
  6

 40
0.0
 41
0.0
 42
0.0
 43
0.0
 44
420.0
 45
297.0
 46
0.0
 47
0.0
 48
0.0
 49
0.0
140
0.0
141
0.0
142
1.0
143
1.0
 70
1024
 72
1
 73
0
 74
5
  7

 75
16
 76
0
 77
2
 78
300
147
1.0
148
0.0
149
0.0
100
AcDbLayout
  1
Model
 70
1
 71
0
 10
0.0
 20
0.0
 11
420.0
 21
297.0
 12
0.0
 22
0.0
 32
0.0
 14
1e+20
 24
1e+20
 34
1e+20
 15
-1e+20
 25
-1e+20
 35
-1e+20
146
0.0
 13
0.0
 23
0.0
 33
0.0
 16
1.0
 26
0.0
 36
0.0
 17
0.0
 27
1.0
 37
0.0
 76
0
330
1A
  0
LAYOUT
  5
1E
330
21
100
AcDbPlotSettings
  1

  2
none_device
  4
A3
  6

 40
0.0
 41
0.0
 42
0.0
 43
0.0
 44
420.0
 45
297.0
 46
0.0
 47
0.0
 48
0.0
 49
0.0
140
0.0
141
0.0
142
1.0
143
1.0
 70
0
 72
1
 73
0
 74
5
  7

 75
16
 76
0
 77
2
 78
300
147
1.0
148
0.0
149
0.0
100
AcDbLayout
  1
Layout1
 70
1
 71
1
 10
0.0
 20
0.0
 11
420.0
 21
297.0
 12
0.0
 22
0.0
 32
0.0
 14
1e+20
 24
1e+20
 34
1e+20
 15
-1e+20
 25
-1e+20
 35
-1e+20
146
0.0
 13
0.0
 23
0.0
 33
0.0
 16
1.0
 26
0.0
 36
0.0
 17
0.0
 27
1.0
 37
0.0
 76
0
330
1B
  0
LAYOUT
  5
1F
330
21
100
AcDbPlotSettings
  1

  2
none_device
  4
A3
  6

 40
0.0
 41
0.0
 42
0.0
 43
0.0
 44
420.0
 45
297.0
 46
0.0
 47
0.0
 48
0.0
 49
0.0
140
0.0
141
0.0
142
1.0
143
1.0
 70
0
 72
1
 73
0
 74
5
  7

 75
16
 76
0
 77
2
 78
300
147
1.0
148
0.0
149
0.0
100
AcDbLayout
  1
Layout2
 70
1
 71
2
 10
0.0
 20
0.0
 11
420.0
 21
297.0
 12
0.0
 22
0.0
 32
0.0
 14
1e+20
 24
1e+20
 34
1e+20
 15
-1e+20
 25
-1e+20
 35
-1e+20
146
0.0
 13
0.0
 23
0.0
 33
0.0
 16
1.0
 26
0.0
 36
0.0
 17
0.0
 27
1.0
 37
0.0
 76
0
330
1C
  0
ENDSEC
  0
EOF
