  0
SECTION
  2
HEADER
  9
$ACADVER
  1
AC1018
  9
$HANDSEED
  5
FFFFFFFF
  9
$ANGBASE
  50
0.0
  9
$ANGDIR
  70
1
  9
$MEASUREMENT
  70
0
  9
$INSUNITS
  70
1
  0
ENDSEC
  0
SECTION
  2
TABLES
  0
TABLE
  2
APPID
  5
1
330
0
100
AcDbSymbolTable
 70
1
  0
APPID
  5
2
330
1
100
AcDbSymbolTableRecord
100
AcDbRegAppTableRecord
  2
ACAD
 70
0
  0
ENDTAB
  0
TABLE
  2
LTYPE
  5
3
330
0
100
AcDbSymbolTable
 70
6
  0
LTYPE
  5
4
330
3
100
AcDbSymbolTableRecord
100
AcDbLinetypeTableRecord
  2
ByBlock
 70
0
  3

 72
65
 73
0
 40
0
  0
LTYPE
  5
5
330
3
100
AcDbSymbolTableRecord
100
AcDbLinetypeTableRecord
  2
ByLayer
 70
0
  3

 72
65
 73
0
 40
0
  0
LTYPE
  5
6
330
3
100
AcDbSymbolTableRecord
100
AcDbLinetypeTableRecord
  2
CONTINUOUS
 70
0
  3
Solid line
 72
65
 73
0
 40
0
  0
LTYPE
  5
7
330
3
100
AcDbSymbolTableRecord
100
AcDbLinetypeTableRecord
  2
DASHDOT
 70
0
  3
Dash Dot ____ _ ____ _
 72
65
 73
4
 40
2
 49
1.25
 74
0
 49
-0.25
 74
0
 49
0.25
 74
0
 49
-0.25
 74
0
  0
LTYPE
  5
8
330
3
100
AcDbSymbolTableRecord
100
AcDbLinetypeTableRecord
  2
DASHED
 70
0
  3
Dashed __ __ __ __ __
 72
65
 73
2
 40
0.75
 49
0.5
 74
0
 49
-0.25
 74
0
  0
LTYPE
  5
9
330
3
100
AcDbSymbolTableRecord
100
AcDbLinetypeTableRecord
  2
DOTTED
 70
0
  3
Dotted .  .  .  .
 72
65
 73
2
 40
0.2
 49
0.0
 74
0
 49
-0.2
 74
0
  0
ENDTAB
  0
TABLE
  2
STYLE
  5
A
330
0
100
AcDbSymbolTable
 70
4
  0
STYLE
  5
B
330
A
100
AcDbSymbolTableRecord
100
AcDbTextStyleTableRecord
  2
KICAD
 70
0
 40
0
 41
1
 42
1
 50
0
 71
0
  3
isocp.shx
  0
STYLE
  5
C
330
A
100
AcDbSymbolTableRecord
100
AcDbTextStyleTableRecord
  2
KICADB
 70
0
 40
0
 41
1
 42
1
 50
0
 71
0
  3
isocp.shx
  0
STYLE
  5
D
330
A
100
AcDbSymbolTableRecord
100
AcDbTextStyleTableRecord
  2
KICADI
 70
0
 40
0
 41
1
 42
1
 50
15
 71
0
  3
isocp.shx
  0
STYLE
  5
E
330
A
100
AcDbSymbolTableRecord
100
AcDbTextStyleTableRecord
  2
KICADBI
 70
0
 40
0
 41
1
 42
1
 50
15
 71
0
  3
isocp.shx
  0
ENDTAB
  0
TABLE
  2
LAYER
  5
F
330
0
100
AcDbSymbolTable
 70
2
  0
LAYER
  5
12
330
F
100
AcDbSymbolTableRecord
100
AcDbLayerTableRecord
  2
0
 70
0
 62
7
  6
CONTINUOUS
390
10
  0
LAYER
  5
13
330
F
100
AcDbSymbolTableRecord
100
AcDbLayerTableRecord
  2
BLACK
 70
0
 62
250
  6
CONTINUOUS
390
10
  0
ENDTAB
  0
TABLE
  2
VPORT
  5
14
330
0
100
AcDbSymbolTable
 70
0
  0
ENDTAB
  0
TABLE
  2
VIEW
  5
15
330
0
100
AcDbSymbolTable
 70
0
  0
ENDTAB
  0
TABLE
  2
UCS
  5
16
330
0
100
AcDbSymbolTable
 70
0
  0
ENDTAB
  0
TABLE
  2
DIMSTYLE
  5
17
330
0
100
AcDbSymbolTable
 70
1
100
AcDbDimStyleTable
 71
0
  0
DIMSTYLE
105
18
330
17
100
AcDbSymbolTableRecord
100
AcDbDimStyleTableRecord
  2
Standard
 70
0
  0
ENDTAB
  0
TABLE
  2
BLOCK_RECORD
  5
19
330
0
100
AcDbSymbolTable
 70
3
  0
BLOCK_RECORD
  5
1A
330
19
100
AcDbSymbolTableRecord
100
AcDbBlockTableRecord
  2
*Model_Space
340
1D
 70
0
280
1
281
0
  0
BLOCK_RECORD
  5
1B
330
19
100
AcDbSymbolTableRecord
100
AcDbBlockTableRecord
  2
*Paper_Space
340
1E
 70
0
280
1
281
0
  0
BLOCK_RECORD
  5
1C
330
19
100
AcDbSymbolTableRecord
100
AcDbBlockTableRecord
  2
*Paper_Space0
340
1F
 70
0
280
1
281
0
  0
ENDTAB
  0
ENDSEC
  0
SECTION
  2
BLOCKS
  0
BLOCK
  5
23
330
1A
100
AcDbEntity
  8
0
100
AcDbBlockBegin
  2
*Model_Space
 70
0
 10
0.0
 20
0.0
 30
0.0
  3
*Model_Space
  1

  0
ENDBLK
  5
22
330
1A
100
AcDbEntity
  8
0
100
AcDbBlockEnd
  0
BLOCK
  5
25
330
1B
100
AcDbEntity
 67
1
  8
0
100
AcDbBlockBegin
  2
*Paper_Space
 70
0
 10
0.0
 20
0.0
 30
0.0
  3
*Paper_Space
  1

  0
ENDBLK
  5
24
330
1B
100
AcDbEntity
 67
1
  8
0
100
AcDbBlockEnd
  0
BLOCK
  5
27
330
1C
100
AcDbEntity
 67
1
  8
0
100
AcDbBlockBegin
  2
*Paper_Space0
 70
0
 10
0.0
 20
0.0
 30
0.0
  3
*Paper_Space0
  1

  0
ENDBLK
  5
26
330
1C
100
AcDbEntity
 67
1
  8
0
100
AcDbBlockEnd
  0
ENDSEC
  0
SECTION
  2
ENTITIES
  0
LINE
  5
28
330
1A
100
AcDbEntity
  8
BLACK
  6
CONTINUOUS
100
AcDbLine
 10
5.1373635433070861
 20
-4.3653450393700783
 30
0
 11
5.1386663385826772
 21
-4.3662155511811021
 31
0
  0
LINE
  5
29
330
1A
100
AcDbEntity
  8
BLACK
  6
CONTINUOUS
100
AcDbLine
 10
5.1386663385826772
 20
-4.3662155511811021
 30
0
 11
5.1395368503937009
 21
-4.3675183464566931
 31
0
  0
LINE
  5
2A
330
1A
100
AcDbEntity
  8
BLACK
  6
CONTINUOUS
100
AcDbLine
 10
5.1395368503937009
 20
-4.3675183464566931
 30
0
 11
5.1398425196850397
 21
-4.3690551181102357
 31
0
  0
LINE
  5
2B
330
1A
100
AcDbEntity
  8
BLACK
  6
CONTINUOUS
100
AcDbLine
 10
5.1398425196850397
 20
-4.3690551181102357
 30
0
 11
5.1398425196850397
 21
-4.3903149606299214
 31
0
  0
LINE
  5
2C
330
1A
100
AcDbEntity
  8
BLACK
  6
CONTINUOUS
100
AcDbLine
 10
5.1398425196850397
 20
-4.3903149606299214
 30
0
 11
5.1395368503937009
 21
-4.391851732283464
 31
0
  0
LINE
  5
2D
330
1A
100
AcDbEntity
  8
BLACK
  6
CONTINUOUS
100
AcDbLine
 10
5.1395368503937009
 20
-4.391851732283464
 30
0
 11
5.1386663385826772
 21
-4.3931545275590551
 31
0
  0
LINE
  5
2E
330
1A
100
AcDbEntity
  8
BLACK
  6
CONTINUOUS
100
AcDbLine
 10
5.1386663385826772
 20
-4.3931545275590551
 30
0
 11
5.1373635433070861
 21
-4.3940250393700788
 31
0
  0
LINE
  5
2F
330
1A
100
AcDbEntity
  8
BLACK
  6
CONTINUOUS
100
AcDbLine
 10
5.1373635433070861
 20
-4.3940250393700788
 30
0
 11
5.1358267716535435
 21
-4.3943307086614176
 31
0
  0
LINE
  5
30
330
1A
100
AcDbEntity
  8
BLACK
  6
CONTINUOUS
100
AcDbLine
 10
5.1358267716535435
 20
-4.3943307086614176
 30
0
 11
5.1122047244094491
 21
-4.3943307086614176
 31
0
  0
LINE
  5
31
330
1A
100
AcDbEntity
  8
BLACK
  6
CONTINUOUS
100
AcDbLine
 10
5.1122047244094491
 20
-4.3943307086614176
 30
0
 11
5.1106679527559056
 21
-4.3940250393700788
 31
0
  0
LINE
  5
32
330
1A
100
AcDbEntity
  8
BLACK
  6
CONTINUOUS
100
AcDbLine
 10
5.1106679527559056
 20
-4.3940250393700788
 30
0
 11
5.1093651574803145
 21
-4.3931545275590551
 31
0
  0
LINE
  5
33
330
1A
100
AcDbEntity
  8
BLACK
  6
CONTINUOUS
100
AcDbLine
 10
5.1093651574803145
 20
-4.3931545275590551
 30
0
 11
5.1084946456692908
 21
-4.391851732283464
 31
0
  0
LINE
  5
34
330
1A
100
AcDbEntity
  8
BLACK
  6
CONTINUOUS
100
AcDbLine
 10
5.1084946456692908
 20
-4.391851732283464
 30
0
 11
5.1081889763779529
 21
-4.3903149606299214
 31
0
  0
LINE
  5
35
330
1A
100
AcDbEntity
  8
BLACK
  6
CONTINUOUS
100
AcDbLine
 10
5.1081889763779529
 20
-4.3903149606299214
 30
0
 11
5.1081889763779529
 21
-4.3690551181102357
 31
0
  0
LINE
  5
36
330
1A
100
AcDbEntity
  8
BLACK
  6
CONTINUOUS
100
AcDbLine
 10
5.1081889763779529
 20
-4.3690551181102357
 30
0
 11
5.1084946456692908
 21
-4.3675183464566931
 31
0
  0
LINE
  5
37
330
1A
100
AcDbEntity
  8
BLACK
  6
CONTINUOUS
100
AcDbLine
 10
5.1084946456692908
 20
-4.3675183464566931
 30
0
 11
5.1093651574803145
 21
-4.3662155511811021
 31
0
  0
LINE
  5
38
330
1A
100
AcDbEntity
  8
BLACK
  6
CONTINUOUS
100
AcDbLine
 10
5.1093651574803145
 20
-4.3662155511811021
 30
0
 11
5.1106679527559056
 21
-4.3653450393700783
 31
0
  0
LINE
  5
39
330
1A
100
AcDbEntity
  8
BLACK
  6
CONTINUOUS
100
AcDbLine
 10
5.1106679527559056
 20
-4.3653450393700783
 30
0
 11
5.1122047244094491
 21
-4.3650393700787404
 31
0
  0
LINE
  5
3A
330
1A
100
AcDbEntity
  8
BLACK
  6
CONTINUOUS
100
AcDbLine
 10
5.1122047244094491
 20
-4.3650393700787404
 30
0
 11
5.1358267716535435
 21
-4.3650393700787404
 31
0
  0
LINE
  5
3B
330
1A
100
AcDbEntity
  8
BLACK
  6
CONTINUOUS
100
AcDbLine
 10
5.1358267716535435
 20
-4.3650393700787404
 30
0
 11
5.1373635433070861
 21
-4.3653450393700783
 31
0
  0
LINE
  5
3C
330
1A
100
AcDbEntity
  8
BLACK
  6
CONTINUOUS
100
AcDbLine
 10
5.3224029133858268
 20
-4.3653450393700783
 30
0
 11
5.323705708661417
 21
-4.3662155511811021
 31
0
  0
LINE
  5
3D
330
1A
100
AcDbEntity
  8
BLACK
  6
CONTINUOUS
100
AcDbLine
 10
5.323705708661417
 20
-4.3662155511811021
 30
0
 11
5.3245762204724407
 21
-4.3675183464566931
 31
0
  0
LINE
  5
3E
330
1A
100
AcDbEntity
  8
BLACK
  6
CONTINUOUS
100
AcDbLine
 10
5.3245762204724407
 20
-4.3675183464566931
 30
0
 11
5.3248818897637795
 21
-4.3690551181102357
 31
0
  0
LINE
  5
3F
330
1A
100
AcDbEntity
  8
BLACK
  6
CONTINUOUS
100
AcDbLine
 10
5.3248818897637795
 20
-4.3690551181102357
 30
0
 11
5.3248818897637795
 21
-4.3903149606299214
 31
0
  0
LINE
  5
40
330
1A
100
AcDbEntity
  8
BLACK
  6
CONTINUOUS
100
AcDbLine
 10
5.3248818897637795
 20
-4.3903149606299214
 30
0
 11
5.3245762204724407
 21
-4.391851732283464
 31
0
  0
LINE
  5
41
330
1A
100
AcDbEntity
  8
BLACK
  6
CONTINUOUS
100
AcDbLine
 10
5.3245762204724407
 20
-4.391851732283464
 30
0
 11
5.323705708661417
 21
-4.3931545275590551
 31
0
  0
LINE
  5
42
330
1A
100
AcDbEntity
  8
BLACK
  6
CONTINUOUS
100
AcDbLine
 10
5.323705708661417
 20
-4.3931545275590551
 30
0
 11
5.3224029133858268
 21
-4.3940250393700788
 31
0
  0
LINE
  5
43
330
1A
100
AcDbEntity
  8
BLACK
  6
CONTINUOUS
100
AcDbLine
 10
5.3224029133858268
 20
-4.3940250393700788
 30
0
 11
5.3208661417322833
 21
-4.3943307086614176
 31
0
  0
LINE
  5
44
330
1A
100
AcDbEntity
  8
BLACK
  6
CONTINUOUS
100
AcDbLine
 10
5.3208661417322833
 20
-4.3943307086614176
 30
0
 11
5.2972440944881889
 21
-4.3943307086614176
 31
0
  0
LINE
  5
45
330
1A
100
AcDbEntity
  8
BLACK
  6
CONTINUOUS
100
AcDbLine
 10
5.2972440944881889
 20
-4.3943307086614176
 30
0
 11
5.2957073228346454
 21
-4.3940250393700788
 31
0
  0
LINE
  5
46
330
1A
100
AcDbEntity
  8
BLACK
  6
CONTINUOUS
100
AcDbLine
 10
5.2957073228346454
 20
-4.3940250393700788
 30
0
 11
5.2944045275590552
 21
-4.3931545275590551
 31
0
  0
LINE
  5
47
330
1A
100
AcDbEntity
  8
BLACK
  6
CONTINUOUS
100
AcDbLine
 10
5.2944045275590552
 20
-4.3931545275590551
 30
0
 11
5.2935340157480315
 21
-4.391851732283464
 31
0
  0
LINE
  5
48
330
1A
100
AcDbEntity
  8
BLACK
  6
CONTINUOUS
100
AcDbLine
 10
5.2935340157480315
 20
-4.391851732283464
 30
0
 11
5.2932283464566927
 21
-4.3903149606299214
 31
0
  0
LINE
  5
49
330
1A
100
AcDbEntity
  8
BLACK
  6
CONTINUOUS
100
AcDbLine
 10
5.2932283464566927
 20
-4.3903149606299214
 30
0
 11
5.2932283464566927
 21
-4.3690551181102357
 31
0
  0
LINE
  5
4A
330
1A
100
AcDbEntity
  8
BLACK
  6
CONTINUOUS
100
AcDbLine
 10
5.2932283464566927
 20
-4.3690551181102357
 30
0
 11
5.2935340157480315
 21
-4.3675183464566931
 31
0
  0
LINE
  5
4B
330
1A
100
AcDbEntity
  8
BLACK
  6
CONTINUOUS
100
AcDbLine
 10
5.2935340157480315
 20
-4.3675183464566931
 30
0
 11
5.2944045275590552
 21
-4.3662155511811021
 31
0
  0
LINE
  5
4C
330
1A
100
AcDbEntity
  8
BLACK
  6
CONTINUOUS
100
AcDbLine
 10
5.2944045275590552
 20
-4.3662155511811021
 30
0
 11
5.2957073228346454
 21
-4.3653450393700783
 31
0
  0
LINE
  5
4D
330
1A
100
AcDbEntity
  8
BLACK
  6
CONTINUOUS
100
AcDbLine
 10
5.2957073228346454
 20
-4.3653450393700783
 30
0
 11
5.2972440944881889
 21
-4.3650393700787404
 31
0
  0
LINE
  5
4E
330
1A
100
AcDbEntity
  8
BLACK
  6
CONTINUOUS
100
AcDbLine
 10
5.2972440944881889
 20
-4.3650393700787404
 30
0
 11
5.3208661417322833
 21
-4.3650393700787404
 31
0
  0
LINE
  5
4F
330
1A
100
AcDbEntity
  8
BLACK
  6
CONTINUOUS
100
AcDbLine
 10
5.3208661417322833
 20
-4.3650393700787404
 30
0
 11
5.3224029133858268
 21
-4.3653450393700783
 31
0
  0
LINE
  5
50
330
1A
100
AcDbEntity
  8
BLACK
  6
CONTINUOUS
100
AcDbLine
 10
5.5074422834645667
 20
-4.3653450393700783
 30
0
 11
5.5087450787401577
 21
-4.3662155511811021
 31
0
  0
LINE
  5
51
330
1A
100
AcDbEntity
  8
BLACK
  6
CONTINUOUS
100
AcDbLine
 10
5.5087450787401577
 20
-4.3662155511811021
 30
0
 11
5.5096155905511806
 21
-4.3675183464566931
 31
0
  0
LINE
  5
52
330
1A
100
AcDbEntity
  8
BLACK
  6
CONTINUOUS
100
AcDbLine
 10
5.5096155905511806
 20
-4.3675183464566931
 30
0
 11
5.5099212598425193
 21
-4.3690551181102357
 31
0
  0
LINE
  5
53
330
1A
100
AcDbEntity
  8
BLACK
  6
CONTINUOUS
100
AcDbLine
 10
5.5099212598425193
 20
-4.3690551181102357
 30
0
 11
5.5099212598425193
 21
-4.3903149606299214
 31
0
  0
LINE
  5
54
330
1A
100
AcDbEntity
  8
BLACK
  6
CONTINUOUS
100
AcDbLine
 10
5.5099212598425193
 20
-4.3903149606299214
 30
0
 11
5.5096155905511806
 21
-4.391851732283464
 31
0
  0
LINE
  5
55
330
1A
100
AcDbEntity
  8
BLACK
  6
CONTINUOUS
100
AcDbLine
 10
5.5096155905511806
 20
-4.391851732283464
 30
0
 11
5.5087450787401577
 21
-4.3931545275590551
 31
0
  0
LINE
  5
56
330
1A
100
AcDbEntity
  8
BLACK
  6
CONTINUOUS
100
AcDbLine
 10
5.5087450787401577
 20
-4.3931545275590551
 30
0
 11
5.5074422834645667
 21
-4.3940250393700788
 31
0
  0
LINE
  5
57
330
1A
100
AcDbEntity
  8
BLACK
  6
CONTINUOUS
100
AcDbLine
 10
5.5074422834645667
 20
-4.3940250393700788
 30
0
 11
5.5059055118110232
 21
-4.3943307086614176
 31
0
  0
LINE
  5
58
330
1A
100
AcDbEntity
  8
BLACK
  6
CONTINUOUS
100
AcDbLine
 10
5.5059055118110232
 20
-4.3943307086614176
 30
0
 11
5.4822834645669287
 21
-4.3943307086614176
 31
0
  0
LINE
  5
59
330
1A
100
AcDbEntity
  8
BLACK
  6
CONTINUOUS
100
AcDbLine
 10
5.4822834645669287
 20
-4.3943307086614176
 30
0
 11
5.4807466929133861
 21
-4.3940250393700788
 31
0
  0
LINE
  5
5A
330
1A
100
AcDbEntity
  8
BLACK
  6
CONTINUOUS
100
AcDbLine
 10
5.4807466929133861
 20
-4.3940250393700788
 30
0
 11
5.479443897637795
 21
-4.3931545275590551
 31
0
  0
LINE
  5
5B
330
1A
100
AcDbEntity
  8
BLACK
  6
CONTINUOUS
100
AcDbLine
 10
5.479443897637795
 20
-4.3931545275590551
 30
0
 11
5.4785733858267713
 21
-4.391851732283464
 31
0
  0
LINE
  5
5C
330
1A
100
AcDbEntity
  8
BLACK
  6
CONTINUOUS
100
AcDbLine
 10
5.4785733858267713
 20
-4.391851732283464
 30
0
 11
5.4782677165354325
 21
-4.3903149606299214
 31
0
  0
LINE
  5
5D
330
1A
100
AcDbEntity
  8
BLACK
  6
CONTINUOUS
100
AcDbLine
 10
5.4782677165354325
 20
-4.3903149606299214
 30
0
 11
5.4782677165354325
 21
-4.3690551181102357
 31
0
  0
LINE
  5
5E
330
1A
100
AcDbEntity
  8
BLACK
  6
CONTINUOUS
100
AcDbLine
 10
5.4782677165354325
 20
-4.3690551181102357
 30
0
 11
5.4785733858267713
 21
-4.3675183464566931
 31
0
  0
LINE
  5
5F
330
1A
100
AcDbEntity
  8
BLACK
  6
CONTINUOUS
100
AcDbLine
 10
5.4785733858267713
 20
-4.3675183464566931
 30
0
 11
5.479443897637795
 21
-4.3662155511811021
 31
0
  0
LINE
  5
60
330
1A
100
AcDbEntity
  8
BLACK
  6
CONTINUOUS
100
AcDbLine
 10
5.479443897637795
 20
-4.3662155511811021
 30
0
 11
5.4807466929133861
 21
-4.3653450393700783
 31
0
  0
LINE
  5
61
330
1A
100
AcDbEntity
  8
BLACK
  6
CONTINUOUS
100
AcDbLine
 10
5.4807466929133861
 20
-4.3653450393700783
 30
0
 11
5.4822834645669287
 21
-4.3650393700787404
 31
0
  0
LINE
  5
62
330
1A
100
AcDbEntity
  8
BLACK
  6
CONTINUOUS
100
AcDbLine
 10
5.4822834645669287
 20
-4.3650393700787404
 30
0
 11
5.5059055118110232
 21
-4.3650393700787404
 31
0
  0
LINE
  5
63
330
1A
100
AcDbEntity
  8
BLACK
  6
CONTINUOUS
100
AcDbLine
 10
5.5059055118110232
 20
-4.3650393700787404
 30
0
 11
5.5074422834645667
 21
-4.3653450393700783
 31
0
  0
LINE
  5
64
330
1A
100
AcDbEntity
  8
BLACK
  6
CONTINUOUS
100
AcDbLine
 10
4.9523241732283463
 20
-4.3648725984251966
 30
0
 11
4.9536269685039365
 21
-4.3657431102362203
 31
0
  0
LINE
  5
65
330
1A
100
AcDbEntity
  8
BLACK
  6
CONTINUOUS
100
AcDbLine
 10
4.9536269685039365
 20
-4.3657431102362203
 30
0
 11
4.9544974803149602
 21
-4.3670459055118105
 31
0
  0
LINE
  5
66
330
1A
100
AcDbEntity
  8
BLACK
  6
CONTINUOUS
100
AcDbLine
 10
4.9544974803149602
 20
-4.3670459055118105
 30
0
 11
4.954803149606299
 21
-4.368582677165354
 31
0
  0
LINE
  5
67
330
1A
100
AcDbEntity
  8
BLACK
  6
CONTINUOUS
100
AcDbLine
 10
4.954803149606299
 20
-4.368582677165354
 30
0
 11
4.954803149606299
 21
-4.3898425196850397
 31
0
  0
LINE
  5
68
330
1A
100
AcDbEntity
  8
BLACK
  6
CONTINUOUS
100
AcDbLine
 10
4.954803149606299
 20
-4.3898425196850397
 30
0
 11
4.9544974803149602
 21
-4.3913792913385823
 31
0
  0
LINE
  5
69
330
1A
100
AcDbEntity
  8
BLACK
  6
CONTINUOUS
100
AcDbLine
 10
4.9544974803149602
 20
-4.3913792913385823
 30
0
 11
4.9536269685039365
 21
-4.3926820866141734
 31
0
  0
LINE
  5
6A
330
1A
100
AcDbEntity
  8
BLACK
  6
CONTINUOUS
100
AcDbLine
 10
4.9536269685039365
 20
-4.3926820866141734
 30
0
 11
4.9523241732283463
 21
-4.3935525984251971
 31
0
  0
LINE
  5
6B
330
1A
100
AcDbEntity
  8
BLACK
  6
CONTINUOUS
100
AcDbLine
 10
4.9523241732283463
 20
-4.3935525984251971
 30
0
 11
4.9507874015748028
 21
-4.393858267716535
 31
0
  0
LINE
  5
6C
330
1A
100
AcDbEntity
  8
BLACK
  6
CONTINUOUS
100
AcDbLine
 10
4.9507874015748028
 20
-4.393858267716535
 30
0
 11
4.9271653543307083
 21
-4.393858267716535
 31
0
  0
LINE
  5
6D
330
1A
100
AcDbEntity
  8
BLACK
  6
CONTINUOUS
100
AcDbLine
 10
4.9271653543307083
 20
-4.393858267716535
 30
0
 11
4.9256285826771649
 21
-4.3935525984251971
 31
0
  0
LINE
  5
6E
330
1A
100
AcDbEntity
  8
BLACK
  6
CONTINUOUS
100
AcDbLine
 10
4.9256285826771649
 20
-4.3935525984251971
 30
0
 11
4.9243257874015747
 21
-4.3926820866141734
 31
0
  0
LINE
  5
6F
330
1A
100
AcDbEntity
  8
BLACK
  6
CONTINUOUS
100
AcDbLine
 10
4.9243257874015747
 20
-4.3926820866141734
 30
0
 11
4.923455275590551
 21
-4.3913792913385823
 31
0
  0
LINE
  5
70
330
1A
100
AcDbEntity
  8
BLACK
  6
CONTINUOUS
100
AcDbLine
 10
4.923455275590551
 20
-4.3913792913385823
 30
0
 11
4.9231496062992122
 21
-4.3898425196850397
 31
0
  0
LINE
  5
71
330
1A
100
AcDbEntity
  8
BLACK
  6
CONTINUOUS
100
AcDbLine
 10
4.9231496062992122
 20
-4.3898425196850397
 30
0
 11
4.9231496062992122
 21
-4.368582677165354
 31
0
  0
LINE
  5
72
330
1A
100
AcDbEntity
  8
BLACK
  6
CONTINUOUS
100
AcDbLine
 10
4.9231496062992122
 20
-4.368582677165354
 30
0
 11
4.923455275590551
 21
-4.3670459055118105
 31
0
  0
LINE
  5
73
330
1A
100
AcDbEntity
  8
BLACK
  6
CONTINUOUS
100
AcDbLine
 10
4.923455275590551
 20
-4.3670459055118105
 30
0
 11
4.9243257874015747
 21
-4.3657431102362203
 31
0
  0
LINE
  5
74
330
1A
100
AcDbEntity
  8
BLACK
  6
CONTINUOUS
100
AcDbLine
 10
4.9243257874015747
 20
-4.3657431102362203
 30
0
 11
4.9256285826771649
 21
-4.3648725984251966
 31
0
  0
LINE
  5
75
330
1A
100
AcDbEntity
  8
BLACK
  6
CONTINUOUS
100
AcDbLine
 10
4.9256285826771649
 20
-4.3648725984251966
 30
0
 11
4.9271653543307083
 21
-4.3645669291338578
 31
0
  0
LINE
  5
76
330
1A
100
AcDbEntity
  8
BLACK
  6
CONTINUOUS
100
AcDbLine
 10
4.9271653543307083
 20
-4.3645669291338578
 30
0
 11
4.9507874015748028
 21
-4.3645669291338578
 31
0
  0
LINE
  5
77
330
1A
100
AcDbEntity
  8
BLACK
  6
CONTINUOUS
100
AcDbLine
 10
4.9507874015748028
 20
-4.3645669291338578
 30
0
 11
4.9523241732283463
 21
-4.3648725984251966
 31
0
  0
LINE
  5
78
330
1A
100
AcDbEntity
  8
BLACK
  6
CONTINUOUS
100
AcDbLine
 10
5.1373635433070861
 20
-4.3313292913385828
 30
0
 11
5.1386663385826772
 21
-4.3321998031496065
 31
0
  0
LINE
  5
79
330
1A
100
AcDbEntity
  8
BLACK
  6
CONTINUOUS
100
AcDbLine
 10
5.1386663385826772
 20
-4.3321998031496065
 30
0
 11
5.1395368503937009
 21
-4.3335025984251967
 31
0
  0
LINE
  5
7A
330
1A
100
AcDbEntity
  8
BLACK
  6
CONTINUOUS
100
AcDbLine
 10
5.1395368503937009
 20
-4.3335025984251967
 30
0
 11
5.1398425196850397
 21
-4.3350393700787402
 31
0
  0
LINE
  5
7B
330
1A
100
AcDbEntity
  8
BLACK
  6
CONTINUOUS
100
AcDbLine
 10
5.1398425196850397
 20
-4.3350393700787402
 30
0
 11
5.1398425196850397
 21
-4.356299212598425
 31
0
  0
LINE
  5
7C
330
1A
100
AcDbEntity
  8
BLACK
  6
CONTINUOUS
100
AcDbLine
 10
5.1398425196850397
 20
-4.356299212598425
 30
0
 11
5.1395368503937009
 21
-4.3578359842519685
 31
0
  0
LINE
  5
7D
330
1A
100
AcDbEntity
  8
BLACK
  6
CONTINUOUS
100
AcDbLine
 10
5.1395368503937009
 20
-4.3578359842519685
 30
0
 11
5.1386663385826772
 21
-4.3591387795275587
 31
0
  0
LINE
  5
7E
330
1A
100
AcDbEntity
  8
BLACK
  6
CONTINUOUS
100
AcDbLine
 10
5.1386663385826772
 20
-4.3591387795275587
 30
0
 11
5.1373635433070861
 21
-4.3600092913385824
 31
0
  0
LINE
  5
7F
330
1A
100
AcDbEntity
  8
BLACK
  6
CONTINUOUS
100
AcDbLine
 10
5.1373635433070861
 20
-4.3600092913385824
 30
0
 11
5.1358267716535435
 21
-4.3603149606299212
 31
0
  0
LINE
  5
80
330
1A
100
AcDbEntity
  8
BLACK
  6
CONTINUOUS
100
AcDbLine
 10
5.1358267716535435
 20
-4.3603149606299212
 30
0
 11
5.1122047244094491
 21
-4.3603149606299212
 31
0
  0
LINE
  5
81
330
1A
100
AcDbEntity
  8
BLACK
  6
CONTINUOUS
100
AcDbLine
 10
5.1122047244094491
 20
-4.3603149606299212
 30
0
 11
5.1106679527559056
 21
-4.3600092913385824
 31
0
  0
LINE
  5
82
330
1A
100
AcDbEntity
  8
BLACK
  6
CONTINUOUS
100
AcDbLine
 10
5.1106679527559056
 20
-4.3600092913385824
 30
0
 11
5.1093651574803145
 21
-4.3591387795275587
 31
0
  0
LINE
  5
83
330
1A
100
AcDbEntity
  8
BLACK
  6
CONTINUOUS
100
AcDbLine
 10
5.1093651574803145
 20
-4.3591387795275587
 30
0
 11
5.1084946456692908
 21
-4.3578359842519685
 31
0
  0
LINE
  5
84
330
1A
100
AcDbEntity
  8
BLACK
  6
CONTINUOUS
100
AcDbLine
 10
5.1084946456692908
 20
-4.3578359842519685
 30
0
 11
5.1081889763779529
 21
-4.356299212598425
 31
0
  0
LINE
  5
85
330
1A
100
AcDbEntity
  8
BLACK
  6
CONTINUOUS
100
AcDbLine
 10
5.1081889763779529
 20
-4.356299212598425
 30
0
 11
5.1081889763779529
 21
-4.3350393700787402
 31
0
  0
LINE
  5
86
330
1A
100
AcDbEntity
  8
BLACK
  6
CONTINUOUS
100
AcDbLine
 10
5.1081889763779529
 20
-4.3350393700787402
 30
0
 11
5.1084946456692908
 21
-4.3335025984251967
 31
0
  0
LINE
  5
87
330
1A
100
AcDbEntity
  8
BLACK
  6
CONTINUOUS
100
AcDbLine
 10
5.1084946456692908
 20
-4.3335025984251967
 30
0
 11
5.1093651574803145
 21
-4.3321998031496065
 31
0
  0
LINE
  5
88
330
1A
100
AcDbEntity
  8
BLACK
  6
CONTINUOUS
100
AcDbLine
 10
5.1093651574803145
 20
-4.3321998031496065
 30
0
 11
5.1106679527559056
 21
-4.3313292913385828
 31
0
  0
LINE
  5
89
330
1A
100
AcDbEntity
  8
BLACK
  6
CONTINUOUS
100
AcDbLine
 10
5.1106679527559056
 20
-4.3313292913385828
 30
0
 11
5.1122047244094491
 21
-4.331023622047244
 31
0
  0
LINE
  5
8A
330
1A
100
AcDbEntity
  8
BLACK
  6
CONTINUOUS
100
AcDbLine
 10
5.1122047244094491
 20
-4.331023622047244
 30
0
 11
5.1358267716535435
 21
-4.331023622047244
 31
0
  0
LINE
  5
8B
330
1A
100
AcDbEntity
  8
BLACK
  6
CONTINUOUS
100
AcDbLine
 10
5.1358267716535435
 20
-4.331023622047244
 30
0
 11
5.1373635433070861
 21
-4.3313292913385828
 31
0
  0
LINE
  5
8C
330
1A
100
AcDbEntity
  8
BLACK
  6
CONTINUOUS
100
AcDbLine
 10
5.3224029133858268
 20
-4.3313292913385828
 30
0
 11
5.323705708661417
 21
-4.3321998031496065
 31
0
  0
LINE
  5
8D
330
1A
100
AcDbEntity
  8
BLACK
  6
CONTINUOUS
100
AcDbLine
 10
5.323705708661417
 20
-4.3321998031496065
 30
0
 11
5.3245762204724407
 21
-4.3335025984251967
 31
0
  0
LINE
  5
8E
330
1A
100
AcDbEntity
  8
BLACK
  6
CONTINUOUS
100
AcDbLine
 10
5.3245762204724407
 20
-4.3335025984251967
 30
0
 11
5.3248818897637795
 21
-4.3350393700787402
 31
0
  0
LINE
  5
8F
330
1A
100
AcDbEntity
  8
BLACK
  6
CONTINUOUS
100
AcDbLine
 10
5.3248818897637795
 20
-4.3350393700787402
 30
0
 11
5.3248818897637795
 21
-4.356299212598425
 31
0
  0
LINE
  5
90
330
1A
100
AcDbEntity
  8
BLACK
  6
CONTINUOUS
100
AcDbLine
 10
5.3248818897637795
 20
-4.356299212598425
 30
0
 11
5.3245762204724407
 21
-4.3578359842519685
 31
0
  0
LINE
  5
91
330
1A
100
AcDbEntity
  8
BLACK
  6
CONTINUOUS
100
AcDbLine
 10
5.3245762204724407
 20
-4.3578359842519685
 30
0
 11
5.323705708661417
 21
-4.3591387795275587
 31
0
  0
LINE
  5
92
330
1A
100
AcDbEntity
  8
BLACK
  6
CONTINUOUS
100
AcDbLine
 10
5.323705708661417
 20
-4.3591387795275587
 30
0
 11
5.3224029133858268
 21
-4.3600092913385824
 31
0
  0
LINE
  5
93
330
1A
100
AcDbEntity
  8
BLACK
  6
CONTINUOUS
100
AcDbLine
 10
5.3224029133858268
 20
-4.3600092913385824
 30
0
 11
5.3208661417322833
 21
-4.3603149606299212
 31
0
  0
LINE
  5
94
330
1A
100
AcDbEntity
  8
BLACK
  6
CONTINUOUS
100
AcDbLine
 10
5.3208661417322833
 20
-4.3603149606299212
 30
0
 11
5.2972440944881889
 21
-4.3603149606299212
 31
0
  0
LINE
  5
95
330
1A
100
AcDbEntity
  8
BLACK
  6
CONTINUOUS
100
AcDbLine
 10
5.2972440944881889
 20
-4.3603149606299212
 30
0
 11
5.2957073228346454
 21
-4.3600092913385824
 31
0
  0
LINE
  5
96
330
1A
100
AcDbEntity
  8
BLACK
  6
CONTINUOUS
100
AcDbLine
 10
5.2957073228346454
 20
-4.3600092913385824
 30
0
 11
5.2944045275590552
 21
-4.3591387795275587
 31
0
  0
LINE
  5
97
330
1A
100
AcDbEntity
  8
BLACK
  6
CONTINUOUS
100
AcDbLine
 10
5.2944045275590552
 20
-4.3591387795275587
 30
0
 11
5.2935340157480315
 21
-4.3578359842519685
 31
0
  0
LINE
  5
98
330
1A
100
AcDbEntity
  8
BLACK
  6
CONTINUOUS
100
AcDbLine
 10
5.2935340157480315
 20
-4.3578359842519685
 30
0
 11
5.2932283464566927
 21
-4.356299212598425
 31
0
  0
LINE
  5
99
330
1A
100
AcDbEntity
  8
BLACK
  6
CONTINUOUS
100
AcDbLine
 10
5.2932283464566927
 20
-4.356299212598425
 30
0
 11
5.2932283464566927
 21
-4.3350393700787402
 31
0
  0
LINE
  5
9A
330
1A
100
AcDbEntity
  8
BLACK
  6
CONTINUOUS
100
AcDbLine
 10
5.2932283464566927
 20
-4.3350393700787402
 30
0
 11
5.2935340157480315
 21
-4.3335025984251967
 31
0
  0
LINE
  5
9B
330
1A
100
AcDbEntity
  8
BLACK
  6
CONTINUOUS
100
AcDbLine
 10
5.2935340157480315
 20
-4.3335025984251967
 30
0
 11
5.2944045275590552
 21
-4.3321998031496065
 31
0
  0
LINE
  5
9C
330
1A
100
AcDbEntity
  8
BLACK
  6
CONTINUOUS
100
AcDbLine
 10
5.2944045275590552
 20
-4.3321998031496065
 30
0
 11
5.2957073228346454
 21
-4.3313292913385828
 31
0
  0
LINE
  5
9D
330
1A
100
AcDbEntity
  8
BLACK
  6
CONTINUOUS
100
AcDbLine
 10
5.2957073228346454
 20
-4.3313292913385828
 30
0
 11
5.2972440944881889
 21
-4.331023622047244
 31
0
  0
LINE
  5
9E
330
1A
100
AcDbEntity
  8
BLACK
  6
CONTINUOUS
100
AcDbLine
 10
5.2972440944881889
 20
-4.331023622047244
 30
0
 11
5.3208661417322833
 21
-4.331023622047244
 31
0
  0
LINE
  5
9F
330
1A
100
AcDbEntity
  8
BLACK
  6
CONTINUOUS
100
AcDbLine
 10
5.3208661417322833
 20
-4.331023622047244
 30
0
 11
5.3224029133858268
 21
-4.3313292913385828
 31
0
  0
LINE
  5
A0
330
1A
100
AcDbEntity
  8
BLACK
  6
CONTINUOUS
100
AcDbLine
 10
5.5074422834645667
 20
-4.3313292913385828
 30
0
 11
5.5087450787401577
 21
-4.3321998031496065
 31
0
  0
LINE
  5
A1
330
1A
100
AcDbEntity
  8
BLACK
  6
CONTINUOUS
100
AcDbLine
 10
5.5087450787401577
 20
-4.3321998031496065
 30
0
 11
5.5096155905511806
 21
-4.3335025984251967
 31
0
  0
LINE
  5
A2
330
1A
100
AcDbEntity
  8
BLACK
  6
CONTINUOUS
100
AcDbLine
 10
5.5096155905511806
 20
-4.3335025984251967
 30
0
 11
5.5099212598425193
 21
-4.3350393700787402
 31
0
  0
LINE
  5
A3
330
1A
100
AcDbEntity
  8
BLACK
  6
CONTINUOUS
100
AcDbLine
 10
5.5099212598425193
 20
-4.3350393700787402
 30
0
 11
5.5099212598425193
 21
-4.356299212598425
 31
0
  0
LINE
  5
A4
330
1A
100
AcDbEntity
  8
BLACK
  6
CONTINUOUS
100
AcDbLine
 10
5.5099212598425193
 20
-4.356299212598425
 30
0
 11
5.5096155905511806
 21
-4.3578359842519685
 31
0
  0
LINE
  5
A5
330
1A
100
AcDbEntity
  8
BLACK
  6
CONTINUOUS
100
AcDbLine
 10
5.5096155905511806
 20
-4.3578359842519685
 30
0
 11
5.5087450787401577
 21
-4.3591387795275587
 31
0
  0
LINE
  5
A6
330
1A
100
AcDbEntity
  8
BLACK
  6
CONTINUOUS
100
AcDbLine
 10
5.5087450787401577
 20
-4.3591387795275587
 30
0
 11
5.5074422834645667
 21
-4.3600092913385824
 31
0
  0
LINE
  5
A7
330
1A
100
AcDbEntity
  8
BLACK
  6
CONTINUOUS
100
AcDbLine
 10
5.5074422834645667
 20
-4.3600092913385824
 30
0
 11
5.5059055118110232
 21
-4.3603149606299212
 31
0
  0
LINE
  5
A8
330
1A
100
AcDbEntity
  8
BLACK
  6
CONTINUOUS
100
AcDbLine
 10
5.5059055118110232
 20
-4.3603149606299212
 30
0
 11
5.4822834645669287
 21
-4.3603149606299212
 31
0
  0
LINE
  5
A9
330
1A
100
AcDbEntity
  8
BLACK
  6
CONTINUOUS
100
AcDbLine
 10
5.4822834645669287
 20
-4.3603149606299212
 30
0
 11
5.4807466929133861
 21
-4.3600092913385824
 31
0
  0
LINE
  5
AA
330
1A
100
AcDbEntity
  8
BLACK
  6
CONTINUOUS
100
AcDbLine
 10
5.4807466929133861
 20
-4.3600092913385824
 30
0
 11
5.479443897637795
 21
-4.3591387795275587
 31
0
  0
LINE
  5
AB
330
1A
100
AcDbEntity
  8
BLACK
  6
CONTINUOUS
100
AcDbLine
 10
5.479443897637795
 20
-4.3591387795275587
 30
0
 11
5.4785733858267713
 21
-4.3578359842519685
 31
0
  0
LINE
  5
AC
330
1A
100
AcDbEntity
  8
BLACK
  6
CONTINUOUS
100
AcDbLine
 10
5.4785733858267713
 20
-4.3578359842519685
 30
0
 11
5.4782677165354325
 21
-4.356299212598425
 31
0
  0
LINE
  5
AD
330
1A
100
AcDbEntity
  8
BLACK
  6
CONTINUOUS
100
AcDbLine
 10
5.4782677165354325
 20
-4.356299212598425
 30
0
 11
5.4782677165354325
 21
-4.3350393700787402
 31
0
  0
LINE
  5
AE
330
1A
100
AcDbEntity
  8
BLACK
  6
CONTINUOUS
100
AcDbLine
 10
5.4782677165354325
 20
-4.3350393700787402
 30
0
 11
5.4785733858267713
 21
-4.3335025984251967
 31
0
  0
LINE
  5
AF
330
1A
100
AcDbEntity
  8
BLACK
  6
CONTINUOUS
100
AcDbLine
 10
5.4785733858267713
 20
-4.3335025984251967
 30
0
 11
5.479443897637795
 21
-4.3321998031496065
 31
0
  0
LINE
  5
B0
330
1A
100
AcDbEntity
  8
BLACK
  6
CONTINUOUS
100
AcDbLine
 10
5.479443897637795
 20
-4.3321998031496065
 30
0
 11
5.4807466929133861
 21
-4.3313292913385828
 31
0
  0
LINE
  5
B1
330
1A
100
AcDbEntity
  8
BLACK
  6
CONTINUOUS
100
AcDbLine
 10
5.4807466929133861
 20
-4.3313292913385828
 30
0
 11
5.4822834645669287
 21
-4.331023622047244
 31
0
  0
LINE
  5
B2
330
1A
100
AcDbEntity
  8
BLACK
  6
CONTINUOUS
100
AcDbLine
 10
5.4822834645669287
 20
-4.331023622047244
 30
0
 11
5.5059055118110232
 21
-4.331023622047244
 31
0
  0
LINE
  5
B3
330
1A
100
AcDbEntity
  8
BLACK
  6
CONTINUOUS
100
AcDbLine
 10
5.5059055118110232
 20
-4.331023622047244
 30
0
 11
5.5074422834645667
 21
-4.3313292913385828
 31
0
  0
LINE
  5
B4
330
1A
100
AcDbEntity
  8
BLACK
  6
CONTINUOUS
100
AcDbLine
 10
4.9523241732283463
 20
-4.3308568503937011
 30
0
 11
4.9536269685039365
 21
-4.3317273622047239
 31
0
  0
LINE
  5
B5
330
1A
100
AcDbEntity
  8
BLACK
  6
CONTINUOUS
100
AcDbLine
 10
4.9536269685039365
 20
-4.3317273622047239
 30
0
 11
4.9544974803149602
 21
-4.3330301574803149
 31
0
  0
LINE
  5
B6
330
1A
100
AcDbEntity
  8
BLACK
  6
CONTINUOUS
100
AcDbLine
 10
4.9544974803149602
 20
-4.3330301574803149
 30
0
 11
4.954803149606299
 21
-4.3345669291338584
 31
0
  0
LINE
  5
B7
330
1A
100
AcDbEntity
  8
BLACK
  6
CONTINUOUS
100
AcDbLine
 10
4.954803149606299
 20
-4.3345669291338584
 30
0
 11
4.954803149606299
 21
-4.3558267716535433
 31
0
  0
LINE
  5
B8
330
1A
100
AcDbEntity
  8
BLACK
  6
CONTINUOUS
100
AcDbLine
 10
4.954803149606299
 20
-4.3558267716535433
 30
0
 11
4.9544974803149602
 21
-4.3573635433070868
 31
0
  0
LINE
  5
B9
330
1A
100
AcDbEntity
  8
BLACK
  6
CONTINUOUS
100
AcDbLine
 10
4.9544974803149602
 20
-4.3573635433070868
 30
0
 11
4.9536269685039365
 21
-4.3586663385826769
 31
0
  0
LINE
  5
BA
330
1A
100
AcDbEntity
  8
BLACK
  6
CONTINUOUS
100
AcDbLine
 10
4.9536269685039365
 20
-4.3586663385826769
 30
0
 11
4.9523241732283463
 21
-4.3595368503937006
 31
0
  0
LINE
  5
BB
330
1A
100
AcDbEntity
  8
BLACK
  6
CONTINUOUS
100
AcDbLine
 10
4.9523241732283463
 20
-4.3595368503937006
 30
0
 11
4.9507874015748028
 21
-4.3598425196850394
 31
0
  0
LINE
  5
BC
330
1A
100
AcDbEntity
  8
BLACK
  6
CONTINUOUS
100
AcDbLine
 10
4.9507874015748028
 20
-4.3598425196850394
 30
0
 11
4.9271653543307083
 21
-4.3598425196850394
 31
0
  0
LINE
  5
BD
330
1A
100
AcDbEntity
  8
BLACK
  6
CONTINUOUS
100
AcDbLine
 10
4.9271653543307083
 20
-4.3598425196850394
 30
0
 11
4.9256285826771649
 21
-4.3595368503937006
 31
0
  0
LINE
  5
BE
330
1A
100
AcDbEntity
  8
BLACK
  6
CONTINUOUS
100
AcDbLine
 10
4.9256285826771649
 20
-4.3595368503937006
 30
0
 11
4.9243257874015747
 21
-4.3586663385826769
 31
0
  0
LINE
  5
BF
330
1A
100
AcDbEntity
  8
BLACK
  6
CONTINUOUS
100
AcDbLine
 10
4.9243257874015747
 20
-4.3586663385826769
 30
0
 11
4.923455275590551
 21
-4.3573635433070868
 31
0
  0
LINE
  5
C0
330
1A
100
AcDbEntity
  8
BLACK
  6
CONTINUOUS
100
AcDbLine
 10
4.923455275590551
 20
-4.3573635433070868
 30
0
 11
4.9231496062992122
 21
-4.3558267716535433
 31
0
  0
LINE
  5
C1
330
1A
100
AcDbEntity
  8
BLACK
  6
CONTINUOUS
100
AcDbLine
 10
4.9231496062992122
 20
-4.3558267716535433
 30
0
 11
4.9231496062992122
 21
-4.3345669291338584
 31
0
  0
LINE
  5
C2
330
1A
100
AcDbEntity
  8
BLACK
  6
CONTINUOUS
100
AcDbLine
 10
4.9231496062992122
 20
-4.3345669291338584
 30
0
 11
4.923455275590551
 21
-4.3330301574803149
 31
0
  0
LINE
  5
C3
330
1A
100
AcDbEntity
  8
BLACK
  6
CONTINUOUS
100
AcDbLine
 10
4.923455275590551
 20
-4.3330301574803149
 30
0
 11
4.9243257874015747
 21
-4.3317273622047239
 31
0
  0
LINE
  5
C4
330
1A
100
AcDbEntity
  8
BLACK
  6
CONTINUOUS
100
AcDbLine
 10
4.9243257874015747
 20
-4.3317273622047239
 30
0
 11
4.9256285826771649
 21
-4.3308568503937011
 31
0
  0
LINE
  5
C5
330
1A
100
AcDbEntity
  8
BLACK
  6
CONTINUOUS
100
AcDbLine
 10
4.9256285826771649
 20
-4.3308568503937011
 30
0
 11
4.9271653543307083
 21
-4.3305511811023623
 31
0
  0
LINE
  5
C6
330
1A
100
AcDbEntity
  8
BLACK
  6
CONTINUOUS
100
AcDbLine
 10
4.9271653543307083
 20
-4.3305511811023623
 30
0
 11
4.9507874015748028
 21
-4.3305511811023623
 31
0
  0
LINE
  5
C7
330
1A
100
AcDbEntity
  8
BLACK
  6
CONTINUOUS
100
AcDbLine
 10
4.9507874015748028
 20
-4.3305511811023623
 30
0
 11
4.9523241732283463
 21
-4.3308568503937011
 31
0
  0
LINE
  5
C8
330
1A
100
AcDbEntity
  8
BLACK
  6
CONTINUOUS
100
AcDbLine
 10
4.9523241732283463
 20
-4.1803056692913385
 30
0
 11
4.9536269685039365
 21
-4.1811761811023622
 31
0
  0
LINE
  5
C9
330
1A
100
AcDbEntity
  8
BLACK
  6
CONTINUOUS
100
AcDbLine
 10
4.9536269685039365
 20
-4.1811761811023622
 30
0
 11
4.9544974803149602
 21
-4.1824789763779524
 31
0
  0
LINE
  5
CA
330
1A
100
AcDbEntity
  8
BLACK
  6
CONTINUOUS
100
AcDbLine
 10
4.9544974803149602
 20
-4.1824789763779524
 30
0
 11
4.954803149606299
 21
-4.1840157480314959
 31
0
  0
LINE
  5
CB
330
1A
100
AcDbEntity
  8
BLACK
  6
CONTINUOUS
100
AcDbLine
 10
4.954803149606299
 20
-4.1840157480314959
 30
0
 11
4.954803149606299
 21
-4.2052755905511807
 31
0
  0
LINE
  5
CC
330
1A
100
AcDbEntity
  8
BLACK
  6
CONTINUOUS
100
AcDbLine
 10
4.954803149606299
 20
-4.2052755905511807
 30
0
 11
4.9544974803149602
 21
-4.2068123622047242
 31
0
  0
LINE
  5
CD
330
1A
100
AcDbEntity
  8
BLACK
  6
CONTINUOUS
100
AcDbLine
 10
4.9544974803149602
 20
-4.2068123622047242
 30
0
 11
4.9536269685039365
 21
-4.2081151574803153
 31
0
  0
LINE
  5
CE
330
1A
100
AcDbEntity
  8
BLACK
  6
CONTINUOUS
100
AcDbLine
 10
4.9536269685039365
 20
-4.2081151574803153
 30
0
 11
4.9523241732283463
 21
-4.2089856692913381
 31
0
  0
LINE
  5
CF
330
1A
100
AcDbEntity
  8
BLACK
  6
CONTINUOUS
100
AcDbLine
 10
4.9523241732283463
 20
-4.2089856692913381
 30
0
 11
4.9507874015748028
 21
-4.2092913385826769
 31
0
  0
LINE
  5
D0
330
1A
100
AcDbEntity
  8
BLACK
  6
CONTINUOUS
100
AcDbLine
 10
4.9507874015748028
 20
-4.2092913385826769
 30
0
 11
4.9271653543307083
 21
-4.2092913385826769
 31
0
  0
LINE
  5
D1
330
1A
100
AcDbEntity
  8
BLACK
  6
CONTINUOUS
100
AcDbLine
 10
4.9271653543307083
 20
-4.2092913385826769
 30
0
 11
4.9256285826771649
 21
-4.2089856692913381
 31
0
  0
LINE
  5
D2
330
1A
100
AcDbEntity
  8
BLACK
  6
CONTINUOUS
100
AcDbLine
 10
4.9256285826771649
 20
-4.2089856692913381
 30
0
 11
4.9243257874015747
 21
-4.2081151574803153
 31
0
  0
LINE
  5
D3
330
1A
100
AcDbEntity
  8
BLACK
  6
CONTINUOUS
100
AcDbLine
 10
4.9243257874015747
 20
-4.2081151574803153
 30
0
 11
4.923455275590551
 21
-4.2068123622047242
 31
0
  0
LINE
  5
D4
330
1A
100
AcDbEntity
  8
BLACK
  6
CONTINUOUS
100
AcDbLine
 10
4.923455275590551
 20
-4.2068123622047242
 30
0
 11
4.9231496062992122
 21
-4.2052755905511807
 31
0
  0
LINE
  5
D5
330
1A
100
AcDbEntity
  8
BLACK
  6
CONTINUOUS
100
AcDbLine
 10
4.9231496062992122
 20
-4.2052755905511807
 30
0
 11
4.9231496062992122
 21
-4.1840157480314959
 31
0
  0
LINE
  5
D6
330
1A
100
AcDbEntity
  8
BLACK
  6
CONTINUOUS
100
AcDbLine
 10
4.9231496062992122
 20
-4.1840157480314959
 30
0
 11
4.923455275590551
 21
-4.1824789763779524
 31
0
  0
LINE
  5
D7
330
1A
100
AcDbEntity
  8
BLACK
  6
CONTINUOUS
100
AcDbLine
 10
4.923455275590551
 20
-4.1824789763779524
 30
0
 11
4.9243257874015747
 21
-4.1811761811023622
 31
0
  0
LINE
  5
D8
330
1A
100
AcDbEntity
  8
BLACK
  6
CONTINUOUS
100
AcDbLine
 10
4.9243257874015747
 20
-4.1811761811023622
 30
0
 11
4.9256285826771649
 21
-4.1803056692913385
 31
0
  0
LINE
  5
D9
330
1A
100
AcDbEntity
  8
BLACK
  6
CONTINUOUS
100
AcDbLine
 10
4.9256285826771649
 20
-4.1803056692913385
 30
0
 11
4.9271653543307083
 21
-4.1799999999999997
 31
0
  0
LINE
  5
DA
330
1A
100
AcDbEntity
  8
BLACK
  6
CONTINUOUS
100
AcDbLine
 10
4.9271653543307083
 20
-4.1799999999999997
 30
0
 11
4.9507874015748028
 21
-4.1799999999999997
 31
0
  0
LINE
  5
DB
330
1A
100
AcDbEntity
  8
BLACK
  6
CONTINUOUS
100
AcDbLine
 10
4.9507874015748028
 20
-4.1799999999999997
 30
0
 11
4.9523241732283463
 21
-4.1803056692913385
 31
0
  0
LINE
  5
DC
330
1A
100
AcDbEntity
  8
BLACK
  6
CONTINUOUS
100
AcDbLine
 10
5.1373635433070861
 20
-4.1803056692913385
 30
0
 11
5.1386663385826772
 21
-4.1811761811023622
 31
0
  0
LINE
  5
DD
330
1A
100
AcDbEntity
  8
BLACK
  6
CONTINUOUS
100
AcDbLine
 10
5.1386663385826772
 20
-4.1811761811023622
 30
0
 11
5.1395368503937009
 21
-4.1824789763779524
 31
0
  0
LINE
  5
DE
330
1A
100
AcDbEntity
  8
BLACK
  6
CONTINUOUS
100
AcDbLine
 10
5.1395368503937009
 20
-4.1824789763779524
 30
0
 11
5.1398425196850397
 21
-4.1840157480314959
 31
0
  0
LINE
  5
DF
330
1A
100
AcDbEntity
  8
BLACK
  6
CONTINUOUS
100
AcDbLine
 10
5.1398425196850397
 20
-4.1840157480314959
 30
0
 11
5.1398425196850397
 21
-4.2052755905511807
 31
0
  0
LINE
  5
E0
330
1A
100
AcDbEntity
  8
BLACK
  6
CONTINUOUS
100
AcDbLine
 10
5.1398425196850397
 20
-4.2052755905511807
 30
0
 11
5.1395368503937009
 21
-4.2068123622047242
 31
0
  0
LINE
  5
E1
330
1A
100
AcDbEntity
  8
BLACK
  6
CONTINUOUS
100
AcDbLine
 10
5.1395368503937009
 20
-4.2068123622047242
 30
0
 11
5.1386663385826772
 21
-4.2081151574803153
 31
0
  0
LINE
  5
E2
330
1A
100
AcDbEntity
  8
BLACK
  6
CONTINUOUS
100
AcDbLine
 10
5.1386663385826772
 20
-4.2081151574803153
 30
0
 11
5.1373635433070861
 21
-4.2089856692913381
 31
0
  0
LINE
  5
E3
330
1A
100
AcDbEntity
  8
BLACK
  6
CONTINUOUS
100
AcDbLine
 10
5.1373635433070861
 20
-4.2089856692913381
 30
0
 11
5.1358267716535435
 21
-4.2092913385826769
 31
0
  0
LINE
  5
E4
330
1A
100
AcDbEntity
  8
BLACK
  6
CONTINUOUS
100
AcDbLine
 10
5.1358267716535435
 20
-4.2092913385826769
 30
0
 11
5.1122047244094491
 21
-4.2092913385826769
 31
0
  0
LINE
  5
E5
330
1A
100
AcDbEntity
  8
BLACK
  6
CONTINUOUS
100
AcDbLine
 10
5.1122047244094491
 20
-4.2092913385826769
 30
0
 11
5.1106679527559056
 21
-4.2089856692913381
 31
0
  0
LINE
  5
E6
330
1A
100
AcDbEntity
  8
BLACK
  6
CONTINUOUS
100
AcDbLine
 10
5.1106679527559056
 20
-4.2089856692913381
 30
0
 11
5.1093651574803145
 21
-4.2081151574803153
 31
0
  0
LINE
  5
E7
330
1A
100
AcDbEntity
  8
BLACK
  6
CONTINUOUS
100
AcDbLine
 10
5.1093651574803145
 20
-4.2081151574803153
 30
0
 11
5.1084946456692908
 21
-4.2068123622047242
 31
0
  0
LINE
  5
E8
330
1A
100
AcDbEntity
  8
BLACK
  6
CONTINUOUS
100
AcDbLine
 10
5.1084946456692908
 20
-4.2068123622047242
 30
0
 11
5.1081889763779529
 21
-4.2052755905511807
 31
0
  0
LINE
  5
E9
330
1A
100
AcDbEntity
  8
BLACK
  6
CONTINUOUS
100
AcDbLine
 10
5.1081889763779529
 20
-4.2052755905511807
 30
0
 11
5.1081889763779529
 21
-4.1840157480314959
 31
0
  0
LINE
  5
EA
330
1A
100
AcDbEntity
  8
BLACK
  6
CONTINUOUS
100
AcDbLine
 10
5.1081889763779529
 20
-4.1840157480314959
 30
0
 11
5.1084946456692908
 21
-4.1824789763779524
 31
0
  0
LINE
  5
EB
330
1A
100
AcDbEntity
  8
BLACK
  6
CONTINUOUS
100
AcDbLine
 10
5.1084946456692908
 20
-4.1824789763779524
 30
0
 11
5.1093651574803145
 21
-4.1811761811023622
 31
0
  0
LINE
  5
EC
330
1A
100
AcDbEntity
  8
BLACK
  6
CONTINUOUS
100
AcDbLine
 10
5.1093651574803145
 20
-4.1811761811023622
 30
0
 11
5.1106679527559056
 21
-4.1803056692913385
 31
0
  0
LINE
  5
ED
330
1A
100
AcDbEntity
  8
BLACK
  6
CONTINUOUS
100
AcDbLine
 10
5.1106679527559056
 20
-4.1803056692913385
 30
0
 11
5.1122047244094491
 21
-4.1799999999999997
 31
0
  0
LINE
  5
EE
330
1A
100
AcDbEntity
  8
BLACK
  6
CONTINUOUS
100
AcDbLine
 10
5.1122047244094491
 20
-4.1799999999999997
 30
0
 11
5.1358267716535435
 21
-4.1799999999999997
 31
0
  0
LINE
  5
EF
330
1A
100
AcDbEntity
  8
BLACK
  6
CONTINUOUS
100
AcDbLine
 10
5.1358267716535435
 20
-4.1799999999999997
 30
0
 11
5.1373635433070861
 21
-4.1803056692913385
 31
0
  0
LINE
  5
F0
330
1A
100
AcDbEntity
  8
BLACK
  6
CONTINUOUS
100
AcDbLine
 10
5.3224029133858268
 20
-4.1803056692913385
 30
0
 11
5.323705708661417
 21
-4.1811761811023622
 31
0
  0
LINE
  5
F1
330
1A
100
AcDbEntity
  8
BLACK
  6
CONTINUOUS
100
AcDbLine
 10
5.323705708661417
 20
-4.1811761811023622
 30
0
 11
5.3245762204724407
 21
-4.1824789763779524
 31
0
  0
LINE
  5
F2
330
1A
100
AcDbEntity
  8
BLACK
  6
CONTINUOUS
100
AcDbLine
 10
5.3245762204724407
 20
-4.1824789763779524
 30
0
 11
5.3248818897637795
 21
-4.1840157480314959
 31
0
  0
LINE
  5
F3
330
1A
100
AcDbEntity
  8
BLACK
  6
CONTINUOUS
100
AcDbLine
 10
5.3248818897637795
 20
-4.1840157480314959
 30
0
 11
5.3248818897637795
 21
-4.2052755905511807
 31
0
  0
LINE
  5
F4
330
1A
100
AcDbEntity
  8
BLACK
  6
CONTINUOUS
100
AcDbLine
 10
5.3248818897637795
 20
-4.2052755905511807
 30
0
 11
5.3245762204724407
 21
-4.2068123622047242
 31
0
  0
LINE
  5
F5
330
1A
100
AcDbEntity
  8
BLACK
  6
CONTINUOUS
100
AcDbLine
 10
5.3245762204724407
 20
-4.2068123622047242
 30
0
 11
5.323705708661417
 21
-4.2081151574803153
 31
0
  0
LINE
  5
F6
330
1A
100
AcDbEntity
  8
BLACK
  6
CONTINUOUS
100
AcDbLine
 10
5.323705708661417
 20
-4.2081151574803153
 30
0
 11
5.3224029133858268
 21
-4.2089856692913381
 31
0
  0
LINE
  5
F7
330
1A
100
AcDbEntity
  8
BLACK
  6
CONTINUOUS
100
AcDbLine
 10
5.3224029133858268
 20
-4.2089856692913381
 30
0
 11
5.3208661417322833
 21
-4.2092913385826769
 31
0
  0
LINE
  5
F8
330
1A
100
AcDbEntity
  8
BLACK
  6
CONTINUOUS
100
AcDbLine
 10
5.3208661417322833
 20
-4.2092913385826769
 30
0
 11
5.2972440944881889
 21
-4.2092913385826769
 31
0
  0
LINE
  5
F9
330
1A
100
AcDbEntity
  8
BLACK
  6
CONTINUOUS
100
AcDbLine
 10
5.2972440944881889
 20
-4.2092913385826769
 30
0
 11
5.2957073228346454
 21
-4.2089856692913381
 31
0
  0
LINE
  5
FA
330
1A
100
AcDbEntity
  8
BLACK
  6
CONTINUOUS
100
AcDbLine
 10
5.2957073228346454
 20
-4.2089856692913381
 30
0
 11
5.2944045275590552
 21
-4.2081151574803153
 31
0
  0
LINE
  5
FB
330
1A
100
AcDbEntity
  8
BLACK
  6
CONTINUOUS
100
AcDbLine
 10
5.2944045275590552
 20
-4.2081151574803153
 30
0
 11
5.2935340157480315
 21
-4.2068123622047242
 31
0
  0
LINE
  5
FC
330
1A
100
AcDbEntity
  8
BLACK
  6
CONTINUOUS
100
AcDbLine
 10
5.2935340157480315
 20
-4.2068123622047242
 30
0
 11
5.2932283464566927
 21
-4.2052755905511807
 31
0
  0
LINE
  5
FD
330
1A
100
AcDbEntity
  8
BLACK
  6
CONTINUOUS
100
AcDbLine
 10
5.2932283464566927
 20
-4.2052755905511807
 30
0
 11
5.2932283464566927
 21
-4.1840157480314959
 31
0
  0
LINE
  5
FE
330
1A
100
AcDbEntity
  8
BLACK
  6
CONTINUOUS
100
AcDbLine
 10
5.2932283464566927
 20
-4.1840157480314959
 30
0
 11
5.2935340157480315
 21
-4.1824789763779524
 31
0
  0
LINE
  5
FF
330
1A
100
AcDbEntity
  8
BLACK
  6
CONTINUOUS
100
AcDbLine
 10
5.2935340157480315
 20
-4.1824789763779524
 30
0
 11
5.2944045275590552
 21
-4.1811761811023622
 31
0
  0
LINE
  5
100
330
1A
100
AcDbEntity
  8
BLACK
  6
CONTINUOUS
100
AcDbLine
 10
5.2944045275590552
 20
-4.1811761811023622
 30
0
 11
5.2957073228346454
 21
-4.1803056692913385
 31
0
  0
LINE
  5
101
330
1A
100
AcDbEntity
  8
BLACK
  6
CONTINUOUS
100
AcDbLine
 10
5.2957073228346454
 20
-4.1803056692913385
 30
0
 11
5.2972440944881889
 21
-4.1799999999999997
 31
0
  0
LINE
  5
102
330
1A
100
AcDbEntity
  8
BLACK
  6
CONTINUOUS
100
AcDbLine
 10
5.2972440944881889
 20
-4.1799999999999997
 30
0
 11
5.3208661417322833
 21
-4.1799999999999997
 31
0
  0
LINE
  5
103
330
1A
100
AcDbEntity
  8
BLACK
  6
CONTINUOUS
100
AcDbLine
 10
5.3208661417322833
 20
-4.1799999999999997
 30
0
 11
5.3224029133858268
 21
-4.1803056692913385
 31
0
  0
LINE
  5
104
330
1A
100
AcDbEntity
  8
BLACK
  6
CONTINUOUS
100
AcDbLine
 10
5.5074422834645667
 20
-4.1803056692913385
 30
0
 11
5.5087450787401577
 21
-4.1811761811023622
 31
0
  0
LINE
  5
105
330
1A
100
AcDbEntity
  8
BLACK
  6
CONTINUOUS
100
AcDbLine
 10
5.5087450787401577
 20
-4.1811761811023622
 30
0
 11
5.5096155905511806
 21
-4.1824789763779524
 31
0
  0
LINE
  5
106
330
1A
100
AcDbEntity
  8
BLACK
  6
CONTINUOUS
100
AcDbLine
 10
5.5096155905511806
 20
-4.1824789763779524
 30
0
 11
5.5099212598425193
 21
-4.1840157480314959
 31
0
  0
LINE
  5
107
330
1A
100
AcDbEntity
  8
BLACK
  6
CONTINUOUS
100
AcDbLine
 10
5.5099212598425193
 20
-4.1840157480314959
 30
0
 11
5.5099212598425193
 21
-4.2052755905511807
 31
0
  0
LINE
  5
108
330
1A
100
AcDbEntity
  8
BLACK
  6
CONTINUOUS
100
AcDbLine
 10
5.5099212598425193
 20
-4.2052755905511807
 30
0
 11
5.5096155905511806
 21
-4.2068123622047242
 31
0
  0
LINE
  5
109
330
1A
100
AcDbEntity
  8
BLACK
  6
CONTINUOUS
100
AcDbLine
 10
5.5096155905511806
 20
-4.2068123622047242
 30
0
 11
5.5087450787401577
 21
-4.2081151574803153
 31
0
  0
LINE
  5
10A
330
1A
100
AcDbEntity
  8
BLACK
  6
CONTINUOUS
100
AcDbLine
 10
5.5087450787401577
 20
-4.2081151574803153
 30
0
 11
5.5074422834645667
 21
-4.2089856692913381
 31
0
  0
LINE
  5
10B
330
1A
100
AcDbEntity
  8
BLACK
  6
CONTINUOUS
100
AcDbLine
 10
5.5074422834645667
 20
-4.2089856692913381
 30
0
 11
5.5059055118110232
 21
-4.2092913385826769
 31
0
  0
LINE
  5
10C
330
1A
100
AcDbEntity
  8
BLACK
  6
CONTINUOUS
100
AcDbLine
 10
5.5059055118110232
 20
-4.2092913385826769
 30
0
 11
5.4822834645669287
 21
-4.2092913385826769
 31
0
  0
LINE
  5
10D
330
1A
100
AcDbEntity
  8
BLACK
  6
CONTINUOUS
100
AcDbLine
 10
5.4822834645669287
 20
-4.2092913385826769
 30
0
 11
5.4807466929133861
 21
-4.2089856692913381
 31
0
  0
LINE
  5
10E
330
1A
100
AcDbEntity
  8
BLACK
  6
CONTINUOUS
100
AcDbLine
 10
5.4807466929133861
 20
-4.2089856692913381
 30
0
 11
5.479443897637795
 21
-4.2081151574803153
 31
0
  0
LINE
  5
10F
330
1A
100
AcDbEntity
  8
BLACK
  6
CONTINUOUS
100
AcDbLine
 10
5.479443897637795
 20
-4.2081151574803153
 30
0
 11
5.4785733858267713
 21
-4.2068123622047242
 31
0
  0
LINE
  5
110
330
1A
100
AcDbEntity
  8
BLACK
  6
CONTINUOUS
100
AcDbLine
 10
5.4785733858267713
 20
-4.2068123622047242
 30
0
 11
5.4782677165354325
 21
-4.2052755905511807
 31
0
  0
LINE
  5
111
330
1A
100
AcDbEntity
  8
BLACK
  6
CONTINUOUS
100
AcDbLine
 10
5.4782677165354325
 20
-4.2052755905511807
 30
0
 11
5.4782677165354325
 21
-4.1840157480314959
 31
0
  0
LINE
  5
112
330
1A
100
AcDbEntity
  8
BLACK
  6
CONTINUOUS
100
AcDbLine
 10
5.4782677165354325
 20
-4.1840157480314959
 30
0
 11
5.4785733858267713
 21
-4.1824789763779524
 31
0
  0
LINE
  5
113
330
1A
100
AcDbEntity
  8
BLACK
  6
CONTINUOUS
100
AcDbLine
 10
5.4785733858267713
 20
-4.1824789763779524
 30
0
 11
5.479443897637795
 21
-4.1811761811023622
 31
0
  0
LINE
  5
114
330
1A
100
AcDbEntity
  8
BLACK
  6
CONTINUOUS
100
AcDbLine
 10
5.479443897637795
 20
-4.1811761811023622
 30
0
 11
5.4807466929133861
 21
-4.1803056692913385
 31
0
  0
LINE
  5
115
330
1A
100
AcDbEntity
  8
BLACK
  6
CONTINUOUS
100
AcDbLine
 10
5.4807466929133861
 20
-4.1803056692913385
 30
0
 11
5.4822834645669287
 21
-4.1799999999999997
 31
0
  0
LINE
  5
116
330
1A
100
AcDbEntity
  8
BLACK
  6
CONTINUOUS
100
AcDbLine
 10
5.4822834645669287
 20
-4.1799999999999997
 30
0
 11
5.5059055118110232
 21
-4.1799999999999997
 31
0
  0
LINE
  5
117
330
1A
100
AcDbEntity
  8
BLACK
  6
CONTINUOUS
100
AcDbLine
 10
5.5059055118110232
 20
-4.1799999999999997
 30
0
 11
5.5074422834645667
 21
-4.1803056692913385
 31
0
  0
LINE
  5
118
330
1A
100
AcDbEntity
  8
BLACK
  6
CONTINUOUS
100
AcDbLine
 10
4.9523241732283463
 20
-4.1462899212598421
 30
0
 11
4.9536269685039365
 21
-4.1471604330708658
 31
0
  0
LINE
  5
119
330
1A
100
AcDbEntity
  8
BLACK
  6
CONTINUOUS
100
AcDbLine
 10
4.9536269685039365
 20
-4.1471604330708658
 30
0
 11
4.9544974803149602
 21
-4.1484632283464569
 31
0
  0
LINE
  5
11A
330
1A
100
AcDbEntity
  8
BLACK
  6
CONTINUOUS
100
AcDbLine
 10
4.9544974803149602
 20
-4.1484632283464569
 30
0
 11
4.954803149606299
 21
-4.1499999999999995
 31
0
  0
LINE
  5
11B
330
1A
100
AcDbEntity
  8
BLACK
  6
CONTINUOUS
100
AcDbLine
 10
4.954803149606299
 20
-4.1499999999999995
 30
0
 11
4.954803149606299
 21
-4.1712598425196852
 31
0
  0
LINE
  5
11C
330
1A
100
AcDbEntity
  8
BLACK
  6
CONTINUOUS
100
AcDbLine
 10
4.954803149606299
 20
-4.1712598425196852
 30
0
 11
4.9544974803149602
 21
-4.1727966141732287
 31
0
  0
LINE
  5
11D
330
1A
100
AcDbEntity
  8
BLACK
  6
CONTINUOUS
100
AcDbLine
 10
4.9544974803149602
 20
-4.1727966141732287
 30
0
 11
4.9536269685039365
 21
-4.1740994094488189
 31
0
  0
LINE
  5
11E
330
1A
100
AcDbEntity
  8
BLACK
  6
CONTINUOUS
100
AcDbLine
 10
4.9536269685039365
 20
-4.1740994094488189
 30
0
 11
4.9523241732283463
 21
-4.1749699212598426
 31
0
  0
LINE
  5
11F
330
1A
100
AcDbEntity
  8
BLACK
  6
CONTINUOUS
100
AcDbLine
 10
4.9523241732283463
 20
-4.1749699212598426
 30
0
 11
4.9507874015748028
 21
-4.1752755905511814
 31
0
  0
LINE
  5
120
330
1A
100
AcDbEntity
  8
BLACK
  6
CONTINUOUS
100
AcDbLine
 10
4.9507874015748028
 20
-4.1752755905511814
 30
0
 11
4.9271653543307083
 21
-4.1752755905511814
 31
0
  0
LINE
  5
121
330
1A
100
AcDbEntity
  8
BLACK
  6
CONTINUOUS
100
AcDbLine
 10
4.9271653543307083
 20
-4.1752755905511814
 30
0
 11
4.9256285826771649
 21
-4.1749699212598426
 31
0
  0
LINE
  5
122
330
1A
100
AcDbEntity
  8
BLACK
  6
CONTINUOUS
100
AcDbLine
 10
4.9256285826771649
 20
-4.1749699212598426
 30
0
 11
4.9243257874015747
 21
-4.1740994094488189
 31
0
  0
LINE
  5
123
330
1A
100
AcDbEntity
  8
BLACK
  6
CONTINUOUS
100
AcDbLine
 10
4.9243257874015747
 20
-4.1740994094488189
 30
0
 11
4.923455275590551
 21
-4.1727966141732287
 31
0
  0
LINE
  5
124
330
1A
100
AcDbEntity
  8
BLACK
  6
CONTINUOUS
100
AcDbLine
 10
4.923455275590551
 20
-4.1727966141732287
 30
0
 11
4.9231496062992122
 21
-4.1712598425196852
 31
0
  0
LINE
  5
125
330
1A
100
AcDbEntity
  8
BLACK
  6
CONTINUOUS
100
AcDbLine
 10
4.9231496062992122
 20
-4.1712598425196852
 30
0
 11
4.9231496062992122
 21
-4.1499999999999995
 31
0
  0
LINE
  5
126
330
1A
100
AcDbEntity
  8
BLACK
  6
CONTINUOUS
100
AcDbLine
 10
4.9231496062992122
 20
-4.1499999999999995
 30
0
 11
4.923455275590551
 21
-4.1484632283464569
 31
0
  0
LINE
  5
127
330
1A
100
AcDbEntity
  8
BLACK
  6
CONTINUOUS
100
AcDbLine
 10
4.923455275590551
 20
-4.1484632283464569
 30
0
 11
4.9243257874015747
 21
-4.1471604330708658
 31
0
  0
LINE
  5
128
330
1A
100
AcDbEntity
  8
BLACK
  6
CONTINUOUS
100
AcDbLine
 10
4.9243257874015747
 20
-4.1471604330708658
 30
0
 11
4.9256285826771649
 21
-4.1462899212598421
 31
0
  0
LINE
  5
129
330
1A
100
AcDbEntity
  8
BLACK
  6
CONTINUOUS
100
AcDbLine
 10
4.9256285826771649
 20
-4.1462899212598421
 30
0
 11
4.9271653543307083
 21
-4.1459842519685042
 31
0
  0
LINE
  5
12A
330
1A
100
AcDbEntity
  8
BLACK
  6
CONTINUOUS
100
AcDbLine
 10
4.9271653543307083
 20
-4.1459842519685042
 30
0
 11
4.9507874015748028
 21
-4.1459842519685042
 31
0
  0
LINE
  5
12B
330
1A
100
AcDbEntity
  8
BLACK
  6
CONTINUOUS
100
AcDbLine
 10
4.9507874015748028
 20
-4.1459842519685042
 30
0
 11
4.9523241732283463
 21
-4.1462899212598421
 31
0
  0
LINE
  5
12C
330
1A
100
AcDbEntity
  8
BLACK
  6
CONTINUOUS
100
AcDbLine
 10
5.1373635433070861
 20
-4.1462899212598421
 30
0
 11
5.1386663385826772
 21
-4.1471604330708658
 31
0
  0
LINE
  5
12D
330
1A
100
AcDbEntity
  8
BLACK
  6
CONTINUOUS
100
AcDbLine
 10
5.1386663385826772
 20
-4.1471604330708658
 30
0
 11
5.1395368503937009
 21
-4.1484632283464569
 31
0
  0
LINE
  5
12E
330
1A
100
AcDbEntity
  8
BLACK
  6
CONTINUOUS
100
AcDbLine
 10
5.1395368503937009
 20
-4.1484632283464569
 30
0
 11
5.1398425196850397
 21
-4.1499999999999995
 31
0
  0
LINE
  5
12F
330
1A
100
AcDbEntity
  8
BLACK
  6
CONTINUOUS
100
AcDbLine
 10
5.1398425196850397
 20
-4.1499999999999995
 30
0
 11
5.1398425196850397
 21
-4.1712598425196852
 31
0
  0
LINE
  5
130
330
1A
100
AcDbEntity
  8
BLACK
  6
CONTINUOUS
100
AcDbLine
 10
5.1398425196850397
 20
-4.1712598425196852
 30
0
 11
5.1395368503937009
 21
-4.1727966141732287
 31
0
  0
LINE
  5
131
330
1A
100
AcDbEntity
  8
BLACK
  6
CONTINUOUS
100
AcDbLine
 10
5.1395368503937009
 20
-4.1727966141732287
 30
0
 11
5.1386663385826772
 21
-4.1740994094488189
 31
0
  0
LINE
  5
132
330
1A
100
AcDbEntity
  8
BLACK
  6
CONTINUOUS
100
AcDbLine
 10
5.1386663385826772
 20
-4.1740994094488189
 30
0
 11
5.1373635433070861
 21
-4.1749699212598426
 31
0
  0
LINE
  5
133
330
1A
100
AcDbEntity
  8
BLACK
  6
CONTINUOUS
100
AcDbLine
 10
5.1373635433070861
 20
-4.1749699212598426
 30
0
 11
5.1358267716535435
 21
-4.1752755905511814
 31
0
  0
LINE
  5
134
330
1A
100
AcDbEntity
  8
BLACK
  6
CONTINUOUS
100
AcDbLine
 10
5.1358267716535435
 20
-4.1752755905511814
 30
0
 11
5.1122047244094491
 21
-4.1752755905511814
 31
0
  0
LINE
  5
135
330
1A
100
AcDbEntity
  8
BLACK
  6
CONTINUOUS
100
AcDbLine
 10
5.1122047244094491
 20
-4.1752755905511814
 30
0
 11
5.1106679527559056
 21
-4.1749699212598426
 31
0
  0
LINE
  5
136
330
1A
100
AcDbEntity
  8
BLACK
  6
CONTINUOUS
100
AcDbLine
 10
5.1106679527559056
 20
-4.1749699212598426
 30
0
 11
5.1093651574803145
 21
-4.1740994094488189
 31
0
  0
LINE
  5
137
330
1A
100
AcDbEntity
  8
BLACK
  6
CONTINUOUS
100
AcDbLine
 10
5.1093651574803145
 20
-4.1740994094488189
 30
0
 11
5.1084946456692908
 21
-4.1727966141732287
 31
0
  0
LINE
  5
138
330
1A
100
AcDbEntity
  8
BLACK
  6
CONTINUOUS
100
AcDbLine
 10
5.1084946456692908
 20
-4.1727966141732287
 30
0
 11
5.1081889763779529
 21
-4.1712598425196852
 31
0
  0
LINE
  5
139
330
1A
100
AcDbEntity
  8
BLACK
  6
CONTINUOUS
100
AcDbLine
 10
5.1081889763779529
 20
-4.1712598425196852
 30
0
 11
5.1081889763779529
 21
-4.1499999999999995
 31
0
  0
LINE
  5
13A
330
1A
100
AcDbEntity
  8
BLACK
  6
CONTINUOUS
100
AcDbLine
 10
5.1081889763779529
 20
-4.1499999999999995
 30
0
 11
5.1084946456692908
 21
-4.1484632283464569
 31
0
  0
LINE
  5
13B
330
1A
100
AcDbEntity
  8
BLACK
  6
CONTINUOUS
100
AcDbLine
 10
5.1084946456692908
 20
-4.1484632283464569
 30
0
 11
5.1093651574803145
 21
-4.1471604330708658
 31
0
  0
LINE
  5
13C
330
1A
100
AcDbEntity
  8
BLACK
  6
CONTINUOUS
100
AcDbLine
 10
5.1093651574803145
 20
-4.1471604330708658
 30
0
 11
5.1106679527559056
 21
-4.1462899212598421
 31
0
  0
LINE
  5
13D
330
1A
100
AcDbEntity
  8
BLACK
  6
CONTINUOUS
100
AcDbLine
 10
5.1106679527559056
 20
-4.1462899212598421
 30
0
 11
5.1122047244094491
 21
-4.1459842519685042
 31
0
  0
LINE
  5
13E
330
1A
100
AcDbEntity
  8
BLACK
  6
CONTINUOUS
100
AcDbLine
 10
5.1122047244094491
 20
-4.1459842519685042
 30
0
 11
5.1358267716535435
 21
-4.1459842519685042
 31
0
  0
LINE
  5
13F
330
1A
100
AcDbEntity
  8
BLACK
  6
CONTINUOUS
100
AcDbLine
 10
5.1358267716535435
 20
-4.1459842519685042
 30
0
 11
5.1373635433070861
 21
-4.1462899212598421
 31
0
  0
LINE
  5
140
330
1A
100
AcDbEntity
  8
BLACK
  6
CONTINUOUS
100
AcDbLine
 10
5.3224029133858268
 20
-4.1462899212598421
 30
0
 11
5.323705708661417
 21
-4.1471604330708658
 31
0
  0
LINE
  5
141
330
1A
100
AcDbEntity
  8
BLACK
  6
CONTINUOUS
100
AcDbLine
 10
5.323705708661417
 20
-4.1471604330708658
 30
0
 11
5.3245762204724407
 21
-4.1484632283464569
 31
0
  0
LINE
  5
142
330
1A
100
AcDbEntity
  8
BLACK
  6
CONTINUOUS
100
AcDbLine
 10
5.3245762204724407
 20
-4.1484632283464569
 30
0
 11
5.3248818897637795
 21
-4.1499999999999995
 31
0
  0
LINE
  5
143
330
1A
100
AcDbEntity
  8
BLACK
  6
CONTINUOUS
100
AcDbLine
 10
5.3248818897637795
 20
-4.1499999999999995
 30
0
 11
5.3248818897637795
 21
-4.1712598425196852
 31
0
  0
LINE
  5
144
330
1A
100
AcDbEntity
  8
BLACK
  6
CONTINUOUS
100
AcDbLine
 10
5.3248818897637795
 20
-4.1712598425196852
 30
0
 11
5.3245762204724407
 21
-4.1727966141732287
 31
0
  0
LINE
  5
145
330
1A
100
AcDbEntity
  8
BLACK
  6
CONTINUOUS
100
AcDbLine
 10
5.3245762204724407
 20
-4.1727966141732287
 30
0
 11
5.323705708661417
 21
-4.1740994094488189
 31
0
  0
LINE
  5
146
330
1A
100
AcDbEntity
  8
BLACK
  6
CONTINUOUS
100
AcDbLine
 10
5.323705708661417
 20
-4.1740994094488189
 30
0
 11
5.3224029133858268
 21
-4.1749699212598426
 31
0
  0
LINE
  5
147
330
1A
100
AcDbEntity
  8
BLACK
  6
CONTINUOUS
100
AcDbLine
 10
5.3224029133858268
 20
-4.1749699212598426
 30
0
 11
5.3208661417322833
 21
-4.1752755905511814
 31
0
  0
LINE
  5
148
330
1A
100
AcDbEntity
  8
BLACK
  6
CONTINUOUS
100
AcDbLine
 10
5.3208661417322833
 20
-4.1752755905511814
 30
0
 11
5.2972440944881889
 21
-4.1752755905511814
 31
0
  0
LINE
  5
149
330
1A
100
AcDbEntity
  8
BLACK
  6
CONTINUOUS
100
AcDbLine
 10
5.2972440944881889
 20
-4.1752755905511814
 30
0
 11
5.2957073228346454
 21
-4.1749699212598426
 31
0
  0
LINE
  5
14A
330
1A
100
AcDbEntity
  8
BLACK
  6
CONTINUOUS
100
AcDbLine
 10
5.2957073228346454
 20
-4.1749699212598426
 30
0
 11
5.2944045275590552
 21
-4.1740994094488189
 31
0
  0
LINE
  5
14B
330
1A
100
AcDbEntity
  8
BLACK
  6
CONTINUOUS
100
AcDbLine
 10
5.2944045275590552
 20
-4.1740994094488189
 30
0
 11
5.2935340157480315
 21
-4.1727966141732287
 31
0
  0
LINE
  5
14C
330
1A
100
AcDbEntity
  8
BLACK
  6
CONTINUOUS
100
AcDbLine
 10
5.2935340157480315
 20
-4.1727966141732287
 30
0
 11
5.2932283464566927
 21
-4.1712598425196852
 31
0
  0
LINE
  5
14D
330
1A
100
AcDbEntity
  8
BLACK
  6
CONTINUOUS
100
AcDbLine
 10
5.2932283464566927
 20
-4.1712598425196852
 30
0
 11
5.2932283464566927
 21
-4.1499999999999995
 31
0
  0
LINE
  5
14E
330
1A
100
AcDbEntity
  8
BLACK
  6
CONTINUOUS
100
AcDbLine
 10
5.2932283464566927
 20
-4.1499999999999995
 30
0
 11
5.2935340157480315
 21
-4.1484632283464569
 31
0
  0
LINE
  5
14F
330
1A
100
AcDbEntity
  8
BLACK
  6
CONTINUOUS
100
AcDbLine
 10
5.2935340157480315
 20
-4.1484632283464569
 30
0
 11
5.2944045275590552
 21
-4.1471604330708658
 31
0
  0
LINE
  5
150
330
1A
100
AcDbEntity
  8
BLACK
  6
CONTINUOUS
100
AcDbLine
 10
5.2944045275590552
 20
-4.1471604330708658
 30
0
 11
5.2957073228346454
 21
-4.1462899212598421
 31
0
  0
LINE
  5
151
330
1A
100
AcDbEntity
  8
BLACK
  6
CONTINUOUS
100
AcDbLine
 10
5.2957073228346454
 20
-4.1462899212598421
 30
0
 11
5.2972440944881889
 21
-4.1459842519685042
 31
0
  0
LINE
  5
152
330
1A
100
AcDbEntity
  8
BLACK
  6
CONTINUOUS
100
AcDbLine
 10
5.2972440944881889
 20
-4.1459842519685042
 30
0
 11
5.3208661417322833
 21
-4.1459842519685042
 31
0
  0
LINE
  5
153
330
1A
100
AcDbEntity
  8
BLACK
  6
CONTINUOUS
100
AcDbLine
 10
5.3208661417322833
 20
-4.1459842519685042
 30
0
 11
5.3224029133858268
 21
-4.1462899212598421
 31
0
  0
LINE
  5
154
330
1A
100
AcDbEntity
  8
BLACK
  6
CONTINUOUS
100
AcDbLine
 10
5.5074422834645667
 20
-4.1462899212598421
 30
0
 11
5.5087450787401577
 21
-4.1471604330708658
 31
0
  0
LINE
  5
155
330
1A
100
AcDbEntity
  8
BLACK
  6
CONTINUOUS
100
AcDbLine
 10
5.5087450787401577
 20
-4.1471604330708658
 30
0
 11
5.5096155905511806
 21
-4.1484632283464569
 31
0
  0
LINE
  5
156
330
1A
100
AcDbEntity
  8
BLACK
  6
CONTINUOUS
100
AcDbLine
 10
5.5096155905511806
 20
-4.1484632283464569
 30
0
 11
5.5099212598425193
 21
-4.1499999999999995
 31
0
  0
LINE
  5
157
330
1A
100
AcDbEntity
  8
BLACK
  6
CONTINUOUS
100
AcDbLine
 10
5.5099212598425193
 20
-4.1499999999999995
 30
0
 11
5.5099212598425193
 21
-4.1712598425196852
 31
0
  0
LINE
  5
158
330
1A
100
AcDbEntity
  8
BLACK
  6
CONTINUOUS
100
AcDbLine
 10
5.5099212598425193
 20
-4.1712598425196852
 30
0
 11
5.5096155905511806
 21
-4.1727966141732287
 31
0
  0
LINE
  5
159
330
1A
100
AcDbEntity
  8
BLACK
  6
CONTINUOUS
100
AcDbLine
 10
5.5096155905511806
 20
-4.1727966141732287
 30
0
 11
5.5087450787401577
 21
-4.1740994094488189
 31
0
  0
LINE
  5
15A
330
1A
100
AcDbEntity
  8
BLACK
  6
CONTINUOUS
100
AcDbLine
 10
5.5087450787401577
 20
-4.1740994094488189
 30
0
 11
5.5074422834645667
 21
-4.1749699212598426
 31
0
  0
LINE
  5
15B
330
1A
100
AcDbEntity
  8
BLACK
  6
CONTINUOUS
100
AcDbLine
 10
5.5074422834645667
 20
-4.1749699212598426
 30
0
 11
5.5059055118110232
 21
-4.1752755905511814
 31
0
  0
LINE
  5
15C
330
1A
100
AcDbEntity
  8
BLACK
  6
CONTINUOUS
100
AcDbLine
 10
5.5059055118110232
 20
-4.1752755905511814
 30
0
 11
5.4822834645669287
 21
-4.1752755905511814
 31
0
  0
LINE
  5
15D
330
1A
100
AcDbEntity
  8
BLACK
  6
CONTINUOUS
100
AcDbLine
 10
5.4822834645669287
 20
-4.1752755905511814
 30
0
 11
5.4807466929133861
 21
-4.1749699212598426
 31
0
  0
LINE
  5
15E
330
1A
100
AcDbEntity
  8
BLACK
  6
CONTINUOUS
100
AcDbLine
 10
5.4807466929133861
 20
-4.1749699212598426
 30
0
 11
5.479443897637795
 21
-4.1740994094488189
 31
0
  0
LINE
  5
15F
330
1A
100
AcDbEntity
  8
BLACK
  6
CONTINUOUS
100
AcDbLine
 10
5.479443897637795
 20
-4.1740994094488189
 30
0
 11
5.4785733858267713
 21
-4.1727966141732287
 31
0
  0
LINE
  5
160
330
1A
100
AcDbEntity
  8
BLACK
  6
CONTINUOUS
100
AcDbLine
 10
5.4785733858267713
 20
-4.1727966141732287
 30
0
 11
5.4782677165354325
 21
-4.1712598425196852
 31
0
  0
LINE
  5
161
330
1A
100
AcDbEntity
  8
BLACK
  6
CONTINUOUS
100
AcDbLine
 10
5.4782677165354325
 20
-4.1712598425196852
 30
0
 11
5.4782677165354325
 21
-4.1499999999999995
 31
0
  0
LINE
  5
162
330
1A
100
AcDbEntity
  8
BLACK
  6
CONTINUOUS
100
AcDbLine
 10
5.4782677165354325
 20
-4.1499999999999995
 30
0
 11
5.4785733858267713
 21
-4.1484632283464569
 31
0
  0
LINE
  5
163
330
1A
100
AcDbEntity
  8
BLACK
  6
CONTINUOUS
100
AcDbLine
 10
5.4785733858267713
 20
-4.1484632283464569
 30
0
 11
5.479443897637795
 21
-4.1471604330708658
 31
0
  0
LINE
  5
164
330
1A
100
AcDbEntity
  8
BLACK
  6
CONTINUOUS
100
AcDbLine
 10
5.479443897637795
 20
-4.1471604330708658
 30
0
 11
5.4807466929133861
 21
-4.1462899212598421
 31
0
  0
LINE
  5
165
330
1A
100
AcDbEntity
  8
BLACK
  6
CONTINUOUS
100
AcDbLine
 10
5.4807466929133861
 20
-4.1462899212598421
 30
0
 11
5.4822834645669287
 21
-4.1459842519685042
 31
0
  0
LINE
  5
166
330
1A
100
AcDbEntity
  8
BLACK
  6
CONTINUOUS
100
AcDbLine
 10
5.4822834645669287
 20
-4.1459842519685042
 30
0
 11
5.5059055118110232
 21
-4.1459842519685042
 31
0
  0
LINE
  5
167
330
1A
100
AcDbEntity
  8
BLACK
  6
CONTINUOUS
100
AcDbLine
 10
5.5059055118110232
 20
-4.1459842519685042
 30
0
 11
5.5074422834645667
 21
-4.1462899212598421
 31
0
  0
LINE
  5
168
330
1A
100
AcDbEntity
  8
BLACK
  6
CONTINUOUS
100
AcDbLine
 10
4.9523241732283463
 20
-3.9952662992125982
 30
0
 11
4.9536269685039365
 21
-3.9961368110236219
 31
0
  0
LINE
  5
169
330
1A
100
AcDbEntity
  8
BLACK
  6
CONTINUOUS
100
AcDbLine
 10
4.9536269685039365
 20
-3.9961368110236219
 30
0
 11
4.9544974803149602
 21
-3.9974396062992126
 31
0
  0
LINE
  5
16A
330
1A
100
AcDbEntity
  8
BLACK
  6
CONTINUOUS
100
AcDbLine
 10
4.9544974803149602
 20
-3.9974396062992126
 30
0
 11
4.954803149606299
 21
-3.9989763779527556
 31
0
  0
LINE
  5
16B
330
1A
100
AcDbEntity
  8
BLACK
  6
CONTINUOUS
100
AcDbLine
 10
4.954803149606299
 20
-3.9989763779527556
 30
0
 11
4.954803149606299
 21
-4.0202362204724409
 31
0
  0
LINE
  5
16C
330
1A
100
AcDbEntity
  8
BLACK
  6
CONTINUOUS
100
AcDbLine
 10
4.954803149606299
 20
-4.0202362204724409
 30
0
 11
4.9544974803149602
 21
-4.0217729921259844
 31
0
  0
LINE
  5
16D
330
1A
100
AcDbEntity
  8
BLACK
  6
CONTINUOUS
100
AcDbLine
 10
4.9544974803149602
 20
-4.0217729921259844
 30
0
 11
4.9536269685039365
 21
-4.0230757874015746
 31
0
  0
LINE
  5
16E
330
1A
100
AcDbEntity
  8
BLACK
  6
CONTINUOUS
100
AcDbLine
 10
4.9536269685039365
 20
-4.0230757874015746
 30
0
 11
4.9523241732283463
 21
-4.0239462992125983
 31
0
  0
LINE
  5
16F
330
1A
100
AcDbEntity
  8
BLACK
  6
CONTINUOUS
100
AcDbLine
 10
4.9523241732283463
 20
-4.0239462992125983
 30
0
 11
4.9507874015748028
 21
-4.0242519685039371
 31
0
  0
LINE
  5
170
330
1A
100
AcDbEntity
  8
BLACK
  6
CONTINUOUS
100
AcDbLine
 10
4.9507874015748028
 20
-4.0242519685039371
 30
0
 11
4.9271653543307083
 21
-4.0242519685039371
 31
0
  0
LINE
  5
171
330
1A
100
AcDbEntity
  8
BLACK
  6
CONTINUOUS
100
AcDbLine
 10
4.9271653543307083
 20
-4.0242519685039371
 30
0
 11
4.9256285826771649
 21
-4.0239462992125983
 31
0
  0
LINE
  5
172
330
1A
100
AcDbEntity
  8
BLACK
  6
CONTINUOUS
100
AcDbLine
 10
4.9256285826771649
 20
-4.0239462992125983
 30
0
 11
4.9243257874015747
 21
-4.0230757874015746
 31
0
  0
LINE
  5
173
330
1A
100
AcDbEntity
  8
BLACK
  6
CONTINUOUS
100
AcDbLine
 10
4.9243257874015747
 20
-4.0230757874015746
 30
0
 11
4.923455275590551
 21
-4.0217729921259844
 31
0
  0
LINE
  5
174
330
1A
100
AcDbEntity
  8
BLACK
  6
CONTINUOUS
100
AcDbLine
 10
4.923455275590551
 20
-4.0217729921259844
 30
0
 11
4.9231496062992122
 21
-4.0202362204724409
 31
0
  0
LINE
  5
175
330
1A
100
AcDbEntity
  8
BLACK
  6
CONTINUOUS
100
AcDbLine
 10
4.9231496062992122
 20
-4.0202362204724409
 30
0
 11
4.9231496062992122
 21
-3.9989763779527556
 31
0
  0
LINE
  5
176
330
1A
100
AcDbEntity
  8
BLACK
  6
CONTINUOUS
100
AcDbLine
 10
4.9231496062992122
 20
-3.9989763779527556
 30
0
 11
4.923455275590551
 21
-3.9974396062992126
 31
0
  0
LINE
  5
177
330
1A
100
AcDbEntity
  8
BLACK
  6
CONTINUOUS
100
AcDbLine
 10
4.923455275590551
 20
-3.9974396062992126
 30
0
 11
4.9243257874015747
 21
-3.9961368110236219
 31
0
  0
LINE
  5
178
330
1A
100
AcDbEntity
  8
BLACK
  6
CONTINUOUS
100
AcDbLine
 10
4.9243257874015747
 20
-3.9961368110236219
 30
0
 11
4.9256285826771649
 21
-3.9952662992125982
 31
0
  0
LINE
  5
179
330
1A
100
AcDbEntity
  8
BLACK
  6
CONTINUOUS
100
AcDbLine
 10
4.9256285826771649
 20
-3.9952662992125982
 30
0
 11
4.9271653543307083
 21
-3.9949606299212599
 31
0
  0
LINE
  5
17A
330
1A
100
AcDbEntity
  8
BLACK
  6
CONTINUOUS
100
AcDbLine
 10
4.9271653543307083
 20
-3.9949606299212599
 30
0
 11
4.9507874015748028
 21
-3.9949606299212599
 31
0
  0
LINE
  5
17B
330
1A
100
AcDbEntity
  8
BLACK
  6
CONTINUOUS
100
AcDbLine
 10
4.9507874015748028
 20
-3.9949606299212599
 30
0
 11
4.9523241732283463
 21
-3.9952662992125982
 31
0
  0
LINE
  5
17C
330
1A
100
AcDbEntity
  8
BLACK
  6
CONTINUOUS
100
AcDbLine
 10
5.1373635433070861
 20
-3.9952662992125982
 30
0
 11
5.1386663385826772
 21
-3.9961368110236219
 31
0
  0
LINE
  5
17D
330
1A
100
AcDbEntity
  8
BLACK
  6
CONTINUOUS
100
AcDbLine
 10
5.1386663385826772
 20
-3.9961368110236219
 30
0
 11
5.1395368503937009
 21
-3.9974396062992126
 31
0
  0
LINE
  5
17E
330
1A
100
AcDbEntity
  8
BLACK
  6
CONTINUOUS
100
AcDbLine
 10
5.1395368503937009
 20
-3.9974396062992126
 30
0
 11
5.1398425196850397
 21
-3.9989763779527556
 31
0
  0
LINE
  5
17F
330
1A
100
AcDbEntity
  8
BLACK
  6
CONTINUOUS
100
AcDbLine
 10
5.1398425196850397
 20
-3.9989763779527556
 30
0
 11
5.1398425196850397
 21
-4.0202362204724409
 31
0
  0
LINE
  5
180
330
1A
100
AcDbEntity
  8
BLACK
  6
CONTINUOUS
100
AcDbLine
 10
5.1398425196850397
 20
-4.0202362204724409
 30
0
 11
5.1395368503937009
 21
-4.0217729921259844
 31
0
  0
LINE
  5
181
330
1A
100
AcDbEntity
  8
BLACK
  6
CONTINUOUS
100
AcDbLine
 10
5.1395368503937009
 20
-4.0217729921259844
 30
0
 11
5.1386663385826772
 21
-4.0230757874015746
 31
0
  0
LINE
  5
182
330
1A
100
AcDbEntity
  8
BLACK
  6
CONTINUOUS
100
AcDbLine
 10
5.1386663385826772
 20
-4.0230757874015746
 30
0
 11
5.1373635433070861
 21
-4.0239462992125983
 31
0
  0
LINE
  5
183
330
1A
100
AcDbEntity
  8
BLACK
  6
CONTINUOUS
100
AcDbLine
 10
5.1373635433070861
 20
-4.0239462992125983
 30
0
 11
5.1358267716535435
 21
-4.0242519685039371
 31
0
  0
LINE
  5
184
330
1A
100
AcDbEntity
  8
BLACK
  6
CONTINUOUS
100
AcDbLine
 10
5.1358267716535435
 20
-4.0242519685039371
 30
0
 11
5.1122047244094491
 21
-4.0242519685039371
 31
0
  0
LINE
  5
185
330
1A
100
AcDbEntity
  8
BLACK
  6
CONTINUOUS
100
AcDbLine
 10
5.1122047244094491
 20
-4.0242519685039371
 30
0
 11
5.1106679527559056
 21
-4.0239462992125983
 31
0
  0
LINE
  5
186
330
1A
100
AcDbEntity
  8
BLACK
  6
CONTINUOUS
100
AcDbLine
 10
5.1106679527559056
 20
-4.0239462992125983
 30
0
 11
5.1093651574803145
 21
-4.0230757874015746
 31
0
  0
LINE
  5
187
330
1A
100
AcDbEntity
  8
BLACK
  6
CONTINUOUS
100
AcDbLine
 10
5.1093651574803145
 20
-4.0230757874015746
 30
0
 11
5.1084946456692908
 21
-4.0217729921259844
 31
0
  0
LINE
  5
188
330
1A
100
AcDbEntity
  8
BLACK
  6
CONTINUOUS
100
AcDbLine
 10
5.1084946456692908
 20
-4.0217729921259844
 30
0
 11
5.1081889763779529
 21
-4.0202362204724409
 31
0
  0
LINE
  5
189
330
1A
100
AcDbEntity
  8
BLACK
  6
CONTINUOUS
100
AcDbLine
 10
5.1081889763779529
 20
-4.0202362204724409
 30
0
 11
5.1081889763779529
 21
-3.9989763779527556
 31
0
  0
LINE
  5
18A
330
1A
100
AcDbEntity
  8
BLACK
  6
CONTINUOUS
100
AcDbLine
 10
5.1081889763779529
 20
-3.9989763779527556
 30
0
 11
5.1084946456692908
 21
-3.9974396062992126
 31
0
  0
LINE
  5
18B
330
1A
100
AcDbEntity
  8
BLACK
  6
CONTINUOUS
100
AcDbLine
 10
5.1084946456692908
 20
-3.9974396062992126
 30
0
 11
5.1093651574803145
 21
-3.9961368110236219
 31
0
  0
LINE
  5
18C
330
1A
100
AcDbEntity
  8
BLACK
  6
CONTINUOUS
100
AcDbLine
 10
5.1093651574803145
 20
-3.9961368110236219
 30
0
 11
5.1106679527559056
 21
-3.9952662992125982
 31
0
  0
LINE
  5
18D
330
1A
100
AcDbEntity
  8
BLACK
  6
CONTINUOUS
100
AcDbLine
 10
5.1106679527559056
 20
-3.9952662992125982
 30
0
 11
5.1122047244094491
 21
-3.9949606299212599
 31
0
  0
LINE
  5
18E
330
1A
100
AcDbEntity
  8
BLACK
  6
CONTINUOUS
100
AcDbLine
 10
5.1122047244094491
 20
-3.9949606299212599
 30
0
 11
5.1358267716535435
 21
-3.9949606299212599
 31
0
  0
LINE
  5
18F
330
1A
100
AcDbEntity
  8
BLACK
  6
CONTINUOUS
100
AcDbLine
 10
5.1358267716535435
 20
-3.9949606299212599
 30
0
 11
5.1373635433070861
 21
-3.9952662992125982
 31
0
  0
LINE
  5
190
330
1A
100
AcDbEntity
  8
BLACK
  6
CONTINUOUS
100
AcDbLine
 10
5.3224029133858268
 20
-3.9952662992125982
 30
0
 11
5.323705708661417
 21
-3.9961368110236219
 31
0
  0
LINE
  5
191
330
1A
100
AcDbEntity
  8
BLACK
  6
CONTINUOUS
100
AcDbLine
 10
5.323705708661417
 20
-3.9961368110236219
 30
0
 11
5.3245762204724407
 21
-3.9974396062992126
 31
0
  0
LINE
  5
192
330
1A
100
AcDbEntity
  8
BLACK
  6
CONTINUOUS
100
AcDbLine
 10
5.3245762204724407
 20
-3.9974396062992126
 30
0
 11
5.3248818897637795
 21
-3.9989763779527556
 31
0
  0
LINE
  5
193
330
1A
100
AcDbEntity
  8
BLACK
  6
CONTINUOUS
100
AcDbLine
 10
5.3248818897637795
 20
-3.9989763779527556
 30
0
 11
5.3248818897637795
 21
-4.0202362204724409
 31
0
  0
LINE
  5
194
330
1A
100
AcDbEntity
  8
BLACK
  6
CONTINUOUS
100
AcDbLine
 10
5.3248818897637795
 20
-4.0202362204724409
 30
0
 11
5.3245762204724407
 21
-4.0217729921259844
 31
0
  0
LINE
  5
195
330
1A
100
AcDbEntity
  8
BLACK
  6
CONTINUOUS
100
AcDbLine
 10
5.3245762204724407
 20
-4.0217729921259844
 30
0
 11
5.323705708661417
 21
-4.0230757874015746
 31
0
  0
LINE
  5
196
330
1A
100
AcDbEntity
  8
BLACK
  6
CONTINUOUS
100
AcDbLine
 10
5.323705708661417
 20
-4.0230757874015746
 30
0
 11
5.3224029133858268
 21
-4.0239462992125983
 31
0
  0
LINE
  5
197
330
1A
100
AcDbEntity
  8
BLACK
  6
CONTINUOUS
100
AcDbLine
 10
5.3224029133858268
 20
-4.0239462992125983
 30
0
 11
5.3208661417322833
 21
-4.0242519685039371
 31
0
  0
LINE
  5
198
330
1A
100
AcDbEntity
  8
BLACK
  6
CONTINUOUS
100
AcDbLine
 10
5.3208661417322833
 20
-4.0242519685039371
 30
0
 11
5.2972440944881889
 21
-4.0242519685039371
 31
0
  0
LINE
  5
199
330
1A
100
AcDbEntity
  8
BLACK
  6
CONTINUOUS
100
AcDbLine
 10
5.2972440944881889
 20
-4.0242519685039371
 30
0
 11
5.2957073228346454
 21
-4.0239462992125983
 31
0
  0
LINE
  5
19A
330
1A
100
AcDbEntity
  8
BLACK
  6
CONTINUOUS
100
AcDbLine
 10
5.2957073228346454
 20
-4.0239462992125983
 30
0
 11
5.2944045275590552
 21
-4.0230757874015746
 31
0
  0
LINE
  5
19B
330
1A
100
AcDbEntity
  8
BLACK
  6
CONTINUOUS
100
AcDbLine
 10
5.2944045275590552
 20
-4.0230757874015746
 30
0
 11
5.2935340157480315
 21
-4.0217729921259844
 31
0
  0
LINE
  5
19C
330
1A
100
AcDbEntity
  8
BLACK
  6
CONTINUOUS
100
AcDbLine
 10
5.2935340157480315
 20
-4.0217729921259844
 30
0
 11
5.2932283464566927
 21
-4.0202362204724409
 31
0
  0
LINE
  5
19D
330
1A
100
AcDbEntity
  8
BLACK
  6
CONTINUOUS
100
AcDbLine
 10
5.2932283464566927
 20
-4.0202362204724409
 30
0
 11
5.2932283464566927
 21
-3.9989763779527556
 31
0
  0
LINE
  5
19E
330
1A
100
AcDbEntity
  8
BLACK
  6
CONTINUOUS
100
AcDbLine
 10
5.2932283464566927
 20
-3.9989763779527556
 30
0
 11
5.2935340157480315
 21
-3.9974396062992126
 31
0
  0
LINE
  5
19F
330
1A
100
AcDbEntity
  8
BLACK
  6
CONTINUOUS
100
AcDbLine
 10
5.2935340157480315
 20
-3.9974396062992126
 30
0
 11
5.2944045275590552
 21
-3.9961368110236219
 31
0
  0
LINE
  5
1A0
330
1A
100
AcDbEntity
  8
BLACK
  6
CONTINUOUS
100
AcDbLine
 10
5.2944045275590552
 20
-3.9961368110236219
 30
0
 11
5.2957073228346454
 21
-3.9952662992125982
 31
0
  0
LINE
  5
1A1
330
1A
100
AcDbEntity
  8
BLACK
  6
CONTINUOUS
100
AcDbLine
 10
5.2957073228346454
 20
-3.9952662992125982
 30
0
 11
5.2972440944881889
 21
-3.9949606299212599
 31
0
  0
LINE
  5
1A2
330
1A
100
AcDbEntity
  8
BLACK
  6
CONTINUOUS
100
AcDbLine
 10
5.2972440944881889
 20
-3.9949606299212599
 30
0
 11
5.3208661417322833
 21
-3.9949606299212599
 31
0
  0
LINE
  5
1A3
330
1A
100
AcDbEntity
  8
BLACK
  6
CONTINUOUS
100
AcDbLine
 10
5.3208661417322833
 20
-3.9949606299212599
 30
0
 11
5.3224029133858268
 21
-3.9952662992125982
 31
0
  0
LINE
  5
1A4
330
1A
100
AcDbEntity
  8
BLACK
  6
CONTINUOUS
100
AcDbLine
 10
5.5074422834645667
 20
-3.9952662992125982
 30
0
 11
5.5087450787401577
 21
-3.9961368110236219
 31
0
  0
LINE
  5
1A5
330
1A
100
AcDbEntity
  8
BLACK
  6
CONTINUOUS
100
AcDbLine
 10
5.5087450787401577
 20
-3.9961368110236219
 30
0
 11
5.5096155905511806
 21
-3.9974396062992126
 31
0
  0
LINE
  5
1A6
330
1A
100
AcDbEntity
  8
BLACK
  6
CONTINUOUS
100
AcDbLine
 10
5.5096155905511806
 20
-3.9974396062992126
 30
0
 11
5.5099212598425193
 21
-3.9989763779527556
 31
0
  0
LINE
  5
1A7
330
1A
100
AcDbEntity
  8
BLACK
  6
CONTINUOUS
100
AcDbLine
 10
5.5099212598425193
 20
-3.9989763779527556
 30
0
 11
5.5099212598425193
 21
-4.0202362204724409
 31
0
  0
LINE
  5
1A8
330
1A
100
AcDbEntity
  8
BLACK
  6
CONTINUOUS
100
AcDbLine
 10
5.5099212598425193
 20
-4.0202362204724409
 30
0
 11
5.5096155905511806
 21
-4.0217729921259844
 31
0
  0
LINE
  5
1A9
330
1A
100
AcDbEntity
  8
BLACK
  6
CONTINUOUS
100
AcDbLine
 10
5.5096155905511806
 20
-4.0217729921259844
 30
0
 11
5.5087450787401577
 21
-4.0230757874015746
 31
0
  0
LINE
  5
1AA
330
1A
100
AcDbEntity
  8
BLACK
  6
CONTINUOUS
100
AcDbLine
 10
5.5087450787401577
 20
-4.0230757874015746
 30
0
 11
5.5074422834645667
 21
-4.0239462992125983
 31
0
  0
LINE
  5
1AB
330
1A
100
AcDbEntity
  8
BLACK
  6
CONTINUOUS
100
AcDbLine
 10
5.5074422834645667
 20
-4.0239462992125983
 30
0
 11
5.5059055118110232
 21
-4.0242519685039371
 31
0
  0
LINE
  5
1AC
330
1A
100
AcDbEntity
  8
BLACK
  6
CONTINUOUS
100
AcDbLine
 10
5.5059055118110232
 20
-4.0242519685039371
 30
0
 11
5.4822834645669287
 21
-4.0242519685039371
 31
0
  0
LINE
  5
1AD
330
1A
100
AcDbEntity
  8
BLACK
  6
CONTINUOUS
100
AcDbLine
 10
5.4822834645669287
 20
-4.0242519685039371
 30
0
 11
5.4807466929133861
 21
-4.0239462992125983
 31
0
  0
LINE
  5
1AE
330
1A
100
AcDbEntity
  8
BLACK
  6
CONTINUOUS
100
AcDbLine
 10
5.4807466929133861
 20
-4.0239462992125983
 30
0
 11
5.479443897637795
 21
-4.0230757874015746
 31
0
  0
LINE
  5
1AF
330
1A
100
AcDbEntity
  8
BLACK
  6
CONTINUOUS
100
AcDbLine
 10
5.479443897637795
 20
-4.0230757874015746
 30
0
 11
5.4785733858267713
 21
-4.0217729921259844
 31
0
  0
LINE
  5
1B0
330
1A
100
AcDbEntity
  8
BLACK
  6
CONTINUOUS
100
AcDbLine
 10
5.4785733858267713
 20
-4.0217729921259844
 30
0
 11
5.4782677165354325
 21
-4.0202362204724409
 31
0
  0
LINE
  5
1B1
330
1A
100
AcDbEntity
  8
BLACK
  6
CONTINUOUS
100
AcDbLine
 10
5.4782677165354325
 20
-4.0202362204724409
 30
0
 11
5.4782677165354325
 21
-3.9989763779527556
 31
0
  0
LINE
  5
1B2
330
1A
100
AcDbEntity
  8
BLACK
  6
CONTINUOUS
100
AcDbLine
 10
5.4782677165354325
 20
-3.9989763779527556
 30
0
 11
5.4785733858267713
 21
-3.9974396062992126
 31
0
  0
LINE
  5
1B3
330
1A
100
AcDbEntity
  8
BLACK
  6
CONTINUOUS
100
AcDbLine
 10
5.4785733858267713
 20
-3.9974396062992126
 30
0
 11
5.479443897637795
 21
-3.9961368110236219
 31
0
  0
LINE
  5
1B4
330
1A
100
AcDbEntity
  8
BLACK
  6
CONTINUOUS
100
AcDbLine
 10
5.479443897637795
 20
-3.9961368110236219
 30
0
 11
5.4807466929133861
 21
-3.9952662992125982
 31
0
  0
LINE
  5
1B5
330
1A
100
AcDbEntity
  8
BLACK
  6
CONTINUOUS
100
AcDbLine
 10
5.4807466929133861
 20
-3.9952662992125982
 30
0
 11
5.4822834645669287
 21
-3.9949606299212599
 31
0
  0
LINE
  5
1B6
330
1A
100
AcDbEntity
  8
BLACK
  6
CONTINUOUS
100
AcDbLine
 10
5.4822834645669287
 20
-3.9949606299212599
 30
0
 11
5.5059055118110232
 21
-3.9949606299212599
 31
0
  0
LINE
  5
1B7
330
1A
100
AcDbEntity
  8
BLACK
  6
CONTINUOUS
100
AcDbLine
 10
5.5059055118110232
 20
-3.9949606299212599
 30
0
 11
5.5074422834645667
 21
-3.9952662992125982
 31
0
  0
LINE
  5
1B8
330
1A
100
AcDbEntity
  8
BLACK
  6
CONTINUOUS
100
AcDbLine
 10
4.9523241732283463
 20
-3.9612505511811023
 30
0
 11
4.9536269685039365
 21
-3.962121062992126
 31
0
  0
LINE
  5
1B9
330
1A
100
AcDbEntity
  8
BLACK
  6
CONTINUOUS
100
AcDbLine
 10
4.9536269685039365
 20
-3.962121062992126
 30
0
 11
4.9544974803149602
 21
-3.9634238582677166
 31
0
  0
LINE
  5
1BA
330
1A
100
AcDbEntity
  8
BLACK
  6
CONTINUOUS
100
AcDbLine
 10
4.9544974803149602
 20
-3.9634238582677166
 30
0
 11
4.954803149606299
 21
-3.9649606299212596
 31
0
  0
LINE
  5
1BB
330
1A
100
AcDbEntity
  8
BLACK
  6
CONTINUOUS
100
AcDbLine
 10
4.954803149606299
 20
-3.9649606299212596
 30
0
 11
4.954803149606299
 21
-3.9862204724409449
 31
0
  0
LINE
  5
1BC
330
1A
100
AcDbEntity
  8
BLACK
  6
CONTINUOUS
100
AcDbLine
 10
4.954803149606299
 20
-3.9862204724409449
 30
0
 11
4.9544974803149602
 21
-3.987757244094488
 31
0
  0
LINE
  5
1BD
330
1A
100
AcDbEntity
  8
BLACK
  6
CONTINUOUS
100
AcDbLine
 10
4.9544974803149602
 20
-3.987757244094488
 30
0
 11
4.9536269685039365
 21
-3.9890600393700786
 31
0
  0
LINE
  5
1BE
330
1A
100
AcDbEntity
  8
BLACK
  6
CONTINUOUS
100
AcDbLine
 10
4.9536269685039365
 20
-3.9890600393700786
 30
0
 11
4.9523241732283463
 21
-3.9899305511811023
 31
0
  0
LINE
  5
1BF
330
1A
100
AcDbEntity
  8
BLACK
  6
CONTINUOUS
100
AcDbLine
 10
4.9523241732283463
 20
-3.9899305511811023
 30
0
 11
4.9507874015748028
 21
-3.9902362204724406
 31
0
  0
LINE
  5
1C0
330
1A
100
AcDbEntity
  8
BLACK
  6
CONTINUOUS
100
AcDbLine
 10
4.9507874015748028
 20
-3.9902362204724406
 30
0
 11
4.9271653543307083
 21
-3.9902362204724406
 31
0
  0
LINE
  5
1C1
330
1A
100
AcDbEntity
  8
BLACK
  6
CONTINUOUS
100
AcDbLine
 10
4.9271653543307083
 20
-3.9902362204724406
 30
0
 11
4.9256285826771649
 21
-3.9899305511811023
 31
0
  0
LINE
  5
1C2
330
1A
100
AcDbEntity
  8
BLACK
  6
CONTINUOUS
100
AcDbLine
 10
4.9256285826771649
 20
-3.9899305511811023
 30
0
 11
4.9243257874015747
 21
-3.9890600393700786
 31
0
  0
LINE
  5
1C3
330
1A
100
AcDbEntity
  8
BLACK
  6
CONTINUOUS
100
AcDbLine
 10
4.9243257874015747
 20
-3.9890600393700786
 30
0
 11
4.923455275590551
 21
-3.987757244094488
 31
0
  0
LINE
  5
1C4
330
1A
100
AcDbEntity
  8
BLACK
  6
CONTINUOUS
100
AcDbLine
 10
4.923455275590551
 20
-3.987757244094488
 30
0
 11
4.9231496062992122
 21
-3.9862204724409449
 31
0
  0
LINE
  5
1C5
330
1A
100
AcDbEntity
  8
BLACK
  6
CONTINUOUS
100
AcDbLine
 10
4.9231496062992122
 20
-3.9862204724409449
 30
0
 11
4.9231496062992122
 21
-3.9649606299212596
 31
0
  0
LINE
  5
1C6
330
1A
100
AcDbEntity
  8
BLACK
  6
CONTINUOUS
100
AcDbLine
 10
4.9231496062992122
 20
-3.9649606299212596
 30
0
 11
4.923455275590551
 21
-3.9634238582677166
 31
0
  0
LINE
  5
1C7
330
1A
100
AcDbEntity
  8
BLACK
  6
CONTINUOUS
100
AcDbLine
 10
4.923455275590551
 20
-3.9634238582677166
 30
0
 11
4.9243257874015747
 21
-3.962121062992126
 31
0
  0
LINE
  5
1C8
330
1A
100
AcDbEntity
  8
BLACK
  6
CONTINUOUS
100
AcDbLine
 10
4.9243257874015747
 20
-3.962121062992126
 30
0
 11
4.9256285826771649
 21
-3.9612505511811023
 31
0
  0
LINE
  5
1C9
330
1A
100
AcDbEntity
  8
BLACK
  6
CONTINUOUS
100
AcDbLine
 10
4.9256285826771649
 20
-3.9612505511811023
 30
0
 11
4.9271653543307083
 21
-3.9609448818897639
 31
0
  0
LINE
  5
1CA
330
1A
100
AcDbEntity
  8
BLACK
  6
CONTINUOUS
100
AcDbLine
 10
4.9271653543307083
 20
-3.9609448818897639
 30
0
 11
4.9507874015748028
 21
-3.9609448818897639
 31
0
  0
LINE
  5
1CB
330
1A
100
AcDbEntity
  8
BLACK
  6
CONTINUOUS
100
AcDbLine
 10
4.9507874015748028
 20
-3.9609448818897639
 30
0
 11
4.9523241732283463
 21
-3.9612505511811023
 31
0
  0
LINE
  5
1CC
330
1A
100
AcDbEntity
  8
BLACK
  6
CONTINUOUS
100
AcDbLine
 10
5.1373635433070861
 20
-3.9612505511811023
 30
0
 11
5.1386663385826772
 21
-3.962121062992126
 31
0
  0
LINE
  5
1CD
330
1A
100
AcDbEntity
  8
BLACK
  6
CONTINUOUS
100
AcDbLine
 10
5.1386663385826772
 20
-3.962121062992126
 30
0
 11
5.1395368503937009
 21
-3.9634238582677166
 31
0
  0
LINE
  5
1CE
330
1A
100
AcDbEntity
  8
BLACK
  6
CONTINUOUS
100
AcDbLine
 10
5.1395368503937009
 20
-3.9634238582677166
 30
0
 11
5.1398425196850397
 21
-3.9649606299212596
 31
0
  0
LINE
  5
1CF
330
1A
100
AcDbEntity
  8
BLACK
  6
CONTINUOUS
100
AcDbLine
 10
5.1398425196850397
 20
-3.9649606299212596
 30
0
 11
5.1398425196850397
 21
-3.9862204724409449
 31
0
  0
LINE
  5
1D0
330
1A
100
AcDbEntity
  8
BLACK
  6
CONTINUOUS
100
AcDbLine
 10
5.1398425196850397
 20
-3.9862204724409449
 30
0
 11
5.1395368503937009
 21
-3.987757244094488
 31
0
  0
LINE
  5
1D1
330
1A
100
AcDbEntity
  8
BLACK
  6
CONTINUOUS
100
AcDbLine
 10
5.1395368503937009
 20
-3.987757244094488
 30
0
 11
5.1386663385826772
 21
-3.9890600393700786
 31
0
  0
LINE
  5
1D2
330
1A
100
AcDbEntity
  8
BLACK
  6
CONTINUOUS
100
AcDbLine
 10
5.1386663385826772
 20
-3.9890600393700786
 30
0
 11
5.1373635433070861
 21
-3.9899305511811023
 31
0
  0
LINE
  5
1D3
330
1A
100
AcDbEntity
  8
BLACK
  6
CONTINUOUS
100
AcDbLine
 10
5.1373635433070861
 20
-3.9899305511811023
 30
0
 11
5.1358267716535435
 21
-3.9902362204724406
 31
0
  0
LINE
  5
1D4
330
1A
100
AcDbEntity
  8
BLACK
  6
CONTINUOUS
100
AcDbLine
 10
5.1358267716535435
 20
-3.9902362204724406
 30
0
 11
5.1122047244094491
 21
-3.9902362204724406
 31
0
  0
LINE
  5
1D5
330
1A
100
AcDbEntity
  8
BLACK
  6
CONTINUOUS
100
AcDbLine
 10
5.1122047244094491
 20
-3.9902362204724406
 30
0
 11
5.1106679527559056
 21
-3.9899305511811023
 31
0
  0
LINE
  5
1D6
330
1A
100
AcDbEntity
  8
BLACK
  6
CONTINUOUS
100
AcDbLine
 10
5.1106679527559056
 20
-3.9899305511811023
 30
0
 11
5.1093651574803145
 21
-3.9890600393700786
 31
0
  0
LINE
  5
1D7
330
1A
100
AcDbEntity
  8
BLACK
  6
CONTINUOUS
100
AcDbLine
 10
5.1093651574803145
 20
-3.9890600393700786
 30
0
 11
5.1084946456692908
 21
-3.987757244094488
 31
0
  0
LINE
  5
1D8
330
1A
100
AcDbEntity
  8
BLACK
  6
CONTINUOUS
100
AcDbLine
 10
5.1084946456692908
 20
-3.987757244094488
 30
0
 11
5.1081889763779529
 21
-3.9862204724409449
 31
0
  0
LINE
  5
1D9
330
1A
100
AcDbEntity
  8
BLACK
  6
CONTINUOUS
100
AcDbLine
 10
5.1081889763779529
 20
-3.9862204724409449
 30
0
 11
5.1081889763779529
 21
-3.9649606299212596
 31
0
  0
LINE
  5
1DA
330
1A
100
AcDbEntity
  8
BLACK
  6
CONTINUOUS
100
AcDbLine
 10
5.1081889763779529
 20
-3.9649606299212596
 30
0
 11
5.1084946456692908
 21
-3.9634238582677166
 31
0
  0
LINE
  5
1DB
330
1A
100
AcDbEntity
  8
BLACK
  6
CONTINUOUS
100
AcDbLine
 10
5.1084946456692908
 20
-3.9634238582677166
 30
0
 11
5.1093651574803145
 21
-3.962121062992126
 31
0
  0
LINE
  5
1DC
330
1A
100
AcDbEntity
  8
BLACK
  6
CONTINUOUS
100
AcDbLine
 10
5.1093651574803145
 20
-3.962121062992126
 30
0
 11
5.1106679527559056
 21
-3.9612505511811023
 31
0
  0
LINE
  5
1DD
330
1A
100
AcDbEntity
  8
BLACK
  6
CONTINUOUS
100
AcDbLine
 10
5.1106679527559056
 20
-3.9612505511811023
 30
0
 11
5.1122047244094491
 21
-3.9609448818897639
 31
0
  0
LINE
  5
1DE
330
1A
100
AcDbEntity
  8
BLACK
  6
CONTINUOUS
100
AcDbLine
 10
5.1122047244094491
 20
-3.9609448818897639
 30
0
 11
5.1358267716535435
 21
-3.9609448818897639
 31
0
  0
LINE
  5
1DF
330
1A
100
AcDbEntity
  8
BLACK
  6
CONTINUOUS
100
AcDbLine
 10
5.1358267716535435
 20
-3.9609448818897639
 30
0
 11
5.1373635433070861
 21
-3.9612505511811023
 31
0
  0
LINE
  5
1E0
330
1A
100
AcDbEntity
  8
BLACK
  6
CONTINUOUS
100
AcDbLine
 10
5.3224029133858268
 20
-3.9612505511811023
 30
0
 11
5.323705708661417
 21
-3.962121062992126
 31
0
  0
LINE
  5
1E1
330
1A
100
AcDbEntity
  8
BLACK
  6
CONTINUOUS
100
AcDbLine
 10
5.323705708661417
 20
-3.962121062992126
 30
0
 11
5.3245762204724407
 21
-3.9634238582677166
 31
0
  0
LINE
  5
1E2
330
1A
100
AcDbEntity
  8
BLACK
  6
CONTINUOUS
100
AcDbLine
 10
5.3245762204724407
 20
-3.9634238582677166
 30
0
 11
5.3248818897637795
 21
-3.9649606299212596
 31
0
  0
LINE
  5
1E3
330
1A
100
AcDbEntity
  8
BLACK
  6
CONTINUOUS
100
AcDbLine
 10
5.3248818897637795
 20
-3.9649606299212596
 30
0
 11
5.3248818897637795
 21
-3.9862204724409449
 31
0
  0
LINE
  5
1E4
330
1A
100
AcDbEntity
  8
BLACK
  6
CONTINUOUS
100
AcDbLine
 10
5.3248818897637795
 20
-3.9862204724409449
 30
0
 11
5.3245762204724407
 21
-3.987757244094488
 31
0
  0
LINE
  5
1E5
330
1A
100
AcDbEntity
  8
BLACK
  6
CONTINUOUS
100
AcDbLine
 10
5.3245762204724407
 20
-3.987757244094488
 30
0
 11
5.323705708661417
 21
-3.9890600393700786
 31
0
  0
LINE
  5
1E6
330
1A
100
AcDbEntity
  8
BLACK
  6
CONTINUOUS
100
AcDbLine
 10
5.323705708661417
 20
-3.9890600393700786
 30
0
 11
5.3224029133858268
 21
-3.9899305511811023
 31
0
  0
LINE
  5
1E7
330
1A
100
AcDbEntity
  8
BLACK
  6
CONTINUOUS
100
AcDbLine
 10
5.3224029133858268
 20
-3.9899305511811023
 30
0
 11
5.3208661417322833
 21
-3.9902362204724406
 31
0
  0
LINE
  5
1E8
330
1A
100
AcDbEntity
  8
BLACK
  6
CONTINUOUS
100
AcDbLine
 10
5.3208661417322833
 20
-3.9902362204724406
 30
0
 11
5.2972440944881889
 21
-3.9902362204724406
 31
0
  0
LINE
  5
1E9
330
1A
100
AcDbEntity
  8
BLACK
  6
CONTINUOUS
100
AcDbLine
 10
5.2972440944881889
 20
-3.9902362204724406
 30
0
 11
5.2957073228346454
 21
-3.9899305511811023
 31
0
  0
LINE
  5
1EA
330
1A
100
AcDbEntity
  8
BLACK
  6
CONTINUOUS
100
AcDbLine
 10
5.2957073228346454
 20
-3.9899305511811023
 30
0
 11
5.2944045275590552
 21
-3.9890600393700786
 31
0
  0
LINE
  5
1EB
330
1A
100
AcDbEntity
  8
BLACK
  6
CONTINUOUS
100
AcDbLine
 10
5.2944045275590552
 20
-3.9890600393700786
 30
0
 11
5.2935340157480315
 21
-3.987757244094488
 31
0
  0
LINE
  5
1EC
330
1A
100
AcDbEntity
  8
BLACK
  6
CONTINUOUS
100
AcDbLine
 10
5.2935340157480315
 20
-3.987757244094488
 30
0
 11
5.2932283464566927
 21
-3.9862204724409449
 31
0
  0
LINE
  5
1ED
330
1A
100
AcDbEntity
  8
BLACK
  6
CONTINUOUS
100
AcDbLine
 10
5.2932283464566927
 20
-3.9862204724409449
 30
0
 11
5.2932283464566927
 21
-3.9649606299212596
 31
0
  0
LINE
  5
1EE
330
1A
100
AcDbEntity
  8
BLACK
  6
CONTINUOUS
100
AcDbLine
 10
5.2932283464566927
 20
-3.9649606299212596
 30
0
 11
5.2935340157480315
 21
-3.9634238582677166
 31
0
  0
LINE
  5
1EF
330
1A
100
AcDbEntity
  8
BLACK
  6
CONTINUOUS
100
AcDbLine
 10
5.2935340157480315
 20
-3.9634238582677166
 30
0
 11
5.2944045275590552
 21
-3.962121062992126
 31
0
  0
LINE
  5
1F0
330
1A
100
AcDbEntity
  8
BLACK
  6
CONTINUOUS
100
AcDbLine
 10
5.2944045275590552
 20
-3.962121062992126
 30
0
 11
5.2957073228346454
 21
-3.9612505511811023
 31
0
  0
LINE
  5
1F1
330
1A
100
AcDbEntity
  8
BLACK
  6
CONTINUOUS
100
AcDbLine
 10
5.2957073228346454
 20
-3.9612505511811023
 30
0
 11
5.2972440944881889
 21
-3.9609448818897639
 31
0
  0
LINE
  5
1F2
330
1A
100
AcDbEntity
  8
BLACK
  6
CONTINUOUS
100
AcDbLine
 10
5.2972440944881889
 20
-3.9609448818897639
 30
0
 11
5.3208661417322833
 21
-3.9609448818897639
 31
0
  0
LINE
  5
1F3
330
1A
100
AcDbEntity
  8
BLACK
  6
CONTINUOUS
100
AcDbLine
 10
5.3208661417322833
 20
-3.9609448818897639
 30
0
 11
5.3224029133858268
 21
-3.9612505511811023
 31
0
  0
LINE
  5
1F4
330
1A
100
AcDbEntity
  8
BLACK
  6
CONTINUOUS
100
AcDbLine
 10
5.5074422834645667
 20
-3.9612505511811023
 30
0
 11
5.5087450787401577
 21
-3.962121062992126
 31
0
  0
LINE
  5
1F5
330
1A
100
AcDbEntity
  8
BLACK
  6
CONTINUOUS
100
AcDbLine
 10
5.5087450787401577
 20
-3.962121062992126
 30
0
 11
5.5096155905511806
 21
-3.9634238582677166
 31
0
  0
LINE
  5
1F6
330
1A
100
AcDbEntity
  8
BLACK
  6
CONTINUOUS
100
AcDbLine
 10
5.5096155905511806
 20
-3.9634238582677166
 30
0
 11
5.5099212598425193
 21
-3.9649606299212596
 31
0
  0
LINE
  5
1F7
330
1A
100
AcDbEntity
  8
BLACK
  6
CONTINUOUS
100
AcDbLine
 10
5.5099212598425193
 20
-3.9649606299212596
 30
0
 11
5.5099212598425193
 21
-3.9862204724409449
 31
0
  0
LINE
  5
1F8
330
1A
100
AcDbEntity
  8
BLACK
  6
CONTINUOUS
100
AcDbLine
 10
5.5099212598425193
 20
-3.9862204724409449
 30
0
 11
5.5096155905511806
 21
-3.987757244094488
 31
0
  0
LINE
  5
1F9
330
1A
100
AcDbEntity
  8
BLACK
  6
CONTINUOUS
100
AcDbLine
 10
5.5096155905511806
 20
-3.987757244094488
 30
0
 11
5.5087450787401577
 21
-3.9890600393700786
 31
0
  0
LINE
  5
1FA
330
1A
100
AcDbEntity
  8
BLACK
  6
CONTINUOUS
100
AcDbLine
 10
5.5087450787401577
 20
-3.9890600393700786
 30
0
 11
5.5074422834645667
 21
-3.9899305511811023
 31
0
  0
LINE
  5
1FB
330
1A
100
AcDbEntity
  8
BLACK
  6
CONTINUOUS
100
AcDbLine
 10
5.5074422834645667
 20
-3.9899305511811023
 30
0
 11
5.5059055118110232
 21
-3.9902362204724406
 31
0
  0
LINE
  5
1FC
330
1A
100
AcDbEntity
  8
BLACK
  6
CONTINUOUS
100
AcDbLine
 10
5.5059055118110232
 20
-3.9902362204724406
 30
0
 11
5.4822834645669287
 21
-3.9902362204724406
 31
0
  0
LINE
  5
1FD
330
1A
100
AcDbEntity
  8
BLACK
  6
CONTINUOUS
100
AcDbLine
 10
5.4822834645669287
 20
-3.9902362204724406
 30
0
 11
5.4807466929133861
 21
-3.9899305511811023
 31
0
  0
LINE
  5
1FE
330
1A
100
AcDbEntity
  8
BLACK
  6
CONTINUOUS
100
AcDbLine
 10
5.4807466929133861
 20
-3.9899305511811023
 30
0
 11
5.479443897637795
 21
-3.9890600393700786
 31
0
  0
LINE
  5
1FF
330
1A
100
AcDbEntity
  8
BLACK
  6
CONTINUOUS
100
AcDbLine
 10
5.479443897637795
 20
-3.9890600393700786
 30
0
 11
5.4785733858267713
 21
-3.987757244094488
 31
0
  0
LINE
  5
200
330
1A
100
AcDbEntity
  8
BLACK
  6
CONTINUOUS
100
AcDbLine
 10
5.4785733858267713
 20
-3.987757244094488
 30
0
 11
5.4782677165354325
 21
-3.9862204724409449
 31
0
  0
LINE
  5
201
330
1A
100
AcDbEntity
  8
BLACK
  6
CONTINUOUS
100
AcDbLine
 10
5.4782677165354325
 20
-3.9862204724409449
 30
0
 11
5.4782677165354325
 21
-3.9649606299212596
 31
0
  0
LINE
  5
202
330
1A
100
AcDbEntity
  8
BLACK
  6
CONTINUOUS
100
AcDbLine
 10
5.4782677165354325
 20
-3.9649606299212596
 30
0
 11
5.4785733858267713
 21
-3.9634238582677166
 31
0
  0
LINE
  5
203
330
1A
100
AcDbEntity
  8
BLACK
  6
CONTINUOUS
100
AcDbLine
 10
5.4785733858267713
 20
-3.9634238582677166
 30
0
 11
5.479443897637795
 21
-3.962121062992126
 31
0
  0
LINE
  5
204
330
1A
100
AcDbEntity
  8
BLACK
  6
CONTINUOUS
100
AcDbLine
 10
5.479443897637795
 20
-3.962121062992126
 30
0
 11
5.4807466929133861
 21
-3.9612505511811023
 31
0
  0
LINE
  5
205
330
1A
100
AcDbEntity
  8
BLACK
  6
CONTINUOUS
100
AcDbLine
 10
5.4807466929133861
 20
-3.9612505511811023
 30
0
 11
5.4822834645669287
 21
-3.9609448818897639
 31
0
  0
LINE
  5
206
330
1A
100
AcDbEntity
  8
BLACK
  6
CONTINUOUS
100
AcDbLine
 10
5.4822834645669287
 20
-3.9609448818897639
 30
0
 11
5.5059055118110232
 21
-3.9609448818897639
 31
0
  0
LINE
  5
207
330
1A
100
AcDbEntity
  8
BLACK
  6
CONTINUOUS
100
AcDbLine
 10
5.5059055118110232
 20
-3.9609448818897639
 30
0
 11
5.5074422834645667
 21
-3.9612505511811023
 31
0
  0
LINE
  5
208
330
1A
100
AcDbEntity
  8
BLACK
  6
CONTINUOUS
100
AcDbLine
 10
4.9523241732283463
 20
-3.810226929133858
 30
0
 11
4.9536269685039365
 21
-3.8110974409448817
 31
0
  0
LINE
  5
209
330
1A
100
AcDbEntity
  8
BLACK
  6
CONTINUOUS
100
AcDbLine
 10
4.9536269685039365
 20
-3.8110974409448817
 30
0
 11
4.9544974803149602
 21
-3.8124002362204723
 31
0
  0
LINE
  5
20A
330
1A
100
AcDbEntity
  8
BLACK
  6
CONTINUOUS
100
AcDbLine
 10
4.9544974803149602
 20
-3.8124002362204723
 30
0
 11
4.954803149606299
 21
-3.8139370078740158
 31
0
  0
LINE
  5
20B
330
1A
100
AcDbEntity
  8
BLACK
  6
CONTINUOUS
100
AcDbLine
 10
4.954803149606299
 20
-3.8139370078740158
 30
0
 11
4.954803149606299
 21
-3.8351968503937006
 31
0
  0
LINE
  5
20C
330
1A
100
AcDbEntity
  8
BLACK
  6
CONTINUOUS
100
AcDbLine
 10
4.954803149606299
 20
-3.8351968503937006
 30
0
 11
4.9544974803149602
 21
-3.8367336220472441
 31
0
  0
LINE
  5
20D
330
1A
100
AcDbEntity
  8
BLACK
  6
CONTINUOUS
100
AcDbLine
 10
4.9544974803149602
 20
-3.8367336220472441
 30
0
 11
4.9536269685039365
 21
-3.8380364173228347
 31
0
  0
LINE
  5
20E
330
1A
100
AcDbEntity
  8
BLACK
  6
CONTINUOUS
100
AcDbLine
 10
4.9536269685039365
 20
-3.8380364173228347
 30
0
 11
4.9523241732283463
 21
-3.838906929133858
 31
0
  0
LINE
  5
20F
330
1A
100
AcDbEntity
  8
BLACK
  6
CONTINUOUS
100
AcDbLine
 10
4.9523241732283463
 20
-3.838906929133858
 30
0
 11
4.9507874015748028
 21
-3.8392125984251968
 31
0
  0
LINE
  5
210
330
1A
100
AcDbEntity
  8
BLACK
  6
CONTINUOUS
100
AcDbLine
 10
4.9507874015748028
 20
-3.8392125984251968
 30
0
 11
4.9271653543307083
 21
-3.8392125984251968
 31
0
  0
LINE
  5
211
330
1A
100
AcDbEntity
  8
BLACK
  6
CONTINUOUS
100
AcDbLine
 10
4.9271653543307083
 20
-3.8392125984251968
 30
0
 11
4.9256285826771649
 21
-3.838906929133858
 31
0
  0
LINE
  5
212
330
1A
100
AcDbEntity
  8
BLACK
  6
CONTINUOUS
100
AcDbLine
 10
4.9256285826771649
 20
-3.838906929133858
 30
0
 11
4.9243257874015747
 21
-3.8380364173228347
 31
0
  0
LINE
  5
213
330
1A
100
AcDbEntity
  8
BLACK
  6
CONTINUOUS
100
AcDbLine
 10
4.9243257874015747
 20
-3.8380364173228347
 30
0
 11
4.923455275590551
 21
-3.8367336220472441
 31
0
  0
LINE
  5
214
330
1A
100
AcDbEntity
  8
BLACK
  6
CONTINUOUS
100
AcDbLine
 10
4.923455275590551
 20
-3.8367336220472441
 30
0
 11
4.9231496062992122
 21
-3.8351968503937006
 31
0
  0
LINE
  5
215
330
1A
100
AcDbEntity
  8
BLACK
  6
CONTINUOUS
100
AcDbLine
 10
4.9231496062992122
 20
-3.8351968503937006
 30
0
 11
4.9231496062992122
 21
-3.8139370078740158
 31
0
  0
LINE
  5
216
330
1A
100
AcDbEntity
  8
BLACK
  6
CONTINUOUS
100
AcDbLine
 10
4.9231496062992122
 20
-3.8139370078740158
 30
0
 11
4.923455275590551
 21
-3.8124002362204723
 31
0
  0
LINE
  5
217
330
1A
100
AcDbEntity
  8
BLACK
  6
CONTINUOUS
100
AcDbLine
 10
4.923455275590551
 20
-3.8124002362204723
 30
0
 11
4.9243257874015747
 21
-3.8110974409448817
 31
0
  0
LINE
  5
218
330
1A
100
AcDbEntity
  8
BLACK
  6
CONTINUOUS
100
AcDbLine
 10
4.9243257874015747
 20
-3.8110974409448817
 30
0
 11
4.9256285826771649
 21
-3.810226929133858
 31
0
  0
LINE
  5
219
330
1A
100
AcDbEntity
  8
BLACK
  6
CONTINUOUS
100
AcDbLine
 10
4.9256285826771649
 20
-3.810226929133858
 30
0
 11
4.9271653543307083
 21
-3.8099212598425196
 31
0
  0
LINE
  5
21A
330
1A
100
AcDbEntity
  8
BLACK
  6
CONTINUOUS
100
AcDbLine
 10
4.9271653543307083
 20
-3.8099212598425196
 30
0
 11
4.9507874015748028
 21
-3.8099212598425196
 31
0
  0
LINE
  5
21B
330
1A
100
AcDbEntity
  8
BLACK
  6
CONTINUOUS
100
AcDbLine
 10
4.9507874015748028
 20
-3.8099212598425196
 30
0
 11
4.9523241732283463
 21
-3.810226929133858
 31
0
  0
LINE
  5
21C
330
1A
100
AcDbEntity
  8
BLACK
  6
CONTINUOUS
100
AcDbLine
 10
5.1373635433070861
 20
-3.810226929133858
 30
0
 11
5.1386663385826772
 21
-3.8110974409448817
 31
0
  0
LINE
  5
21D
330
1A
100
AcDbEntity
  8
BLACK
  6
CONTINUOUS
100
AcDbLine
 10
5.1386663385826772
 20
-3.8110974409448817
 30
0
 11
5.1395368503937009
 21
-3.8124002362204723
 31
0
  0
LINE
  5
21E
330
1A
100
AcDbEntity
  8
BLACK
  6
CONTINUOUS
100
AcDbLine
 10
5.1395368503937009
 20
-3.8124002362204723
 30
0
 11
5.1398425196850397
 21
-3.8139370078740158
 31
0
  0
LINE
  5
21F
330
1A
100
AcDbEntity
  8
BLACK
  6
CONTINUOUS
100
AcDbLine
 10
5.1398425196850397
 20
-3.8139370078740158
 30
0
 11
5.1398425196850397
 21
-3.8351968503937006
 31
0
  0
LINE
  5
220
330
1A
100
AcDbEntity
  8
BLACK
  6
CONTINUOUS
100
AcDbLine
 10
5.1398425196850397
 20
-3.8351968503937006
 30
0
 11
5.1395368503937009
 21
-3.8367336220472441
 31
0
  0
LINE
  5
221
330
1A
100
AcDbEntity
  8
BLACK
  6
CONTINUOUS
100
AcDbLine
 10
5.1395368503937009
 20
-3.8367336220472441
 30
0
 11
5.1386663385826772
 21
-3.8380364173228347
 31
0
  0
LINE
  5
222
330
1A
100
AcDbEntity
  8
BLACK
  6
CONTINUOUS
100
AcDbLine
 10
5.1386663385826772
 20
-3.8380364173228347
 30
0
 11
5.1373635433070861
 21
-3.838906929133858
 31
0
  0
LINE
  5
223
330
1A
100
AcDbEntity
  8
BLACK
  6
CONTINUOUS
100
AcDbLine
 10
5.1373635433070861
 20
-3.838906929133858
 30
0
 11
5.1358267716535435
 21
-3.8392125984251968
 31
0
  0
LINE
  5
224
330
1A
100
AcDbEntity
  8
BLACK
  6
CONTINUOUS
100
AcDbLine
 10
5.1358267716535435
 20
-3.8392125984251968
 30
0
 11
5.1122047244094491
 21
-3.8392125984251968
 31
0
  0
LINE
  5
225
330
1A
100
AcDbEntity
  8
BLACK
  6
CONTINUOUS
100
AcDbLine
 10
5.1122047244094491
 20
-3.8392125984251968
 30
0
 11
5.1106679527559056
 21
-3.838906929133858
 31
0
  0
LINE
  5
226
330
1A
100
AcDbEntity
  8
BLACK
  6
CONTINUOUS
100
AcDbLine
 10
5.1106679527559056
 20
-3.838906929133858
 30
0
 11
5.1093651574803145
 21
-3.8380364173228347
 31
0
  0
LINE
  5
227
330
1A
100
AcDbEntity
  8
BLACK
  6
CONTINUOUS
100
AcDbLine
 10
5.1093651574803145
 20
-3.8380364173228347
 30
0
 11
5.1084946456692908
 21
-3.8367336220472441
 31
0
  0
LINE
  5
228
330
1A
100
AcDbEntity
  8
BLACK
  6
CONTINUOUS
100
AcDbLine
 10
5.1084946456692908
 20
-3.8367336220472441
 30
0
 11
5.1081889763779529
 21
-3.8351968503937006
 31
0
  0
LINE
  5
229
330
1A
100
AcDbEntity
  8
BLACK
  6
CONTINUOUS
100
AcDbLine
 10
5.1081889763779529
 20
-3.8351968503937006
 30
0
 11
5.1081889763779529
 21
-3.8139370078740158
 31
0
  0
LINE
  5
22A
330
1A
100
AcDbEntity
  8
BLACK
  6
CONTINUOUS
100
AcDbLine
 10
5.1081889763779529
 20
-3.8139370078740158
 30
0
 11
5.1084946456692908
 21
-3.8124002362204723
 31
0
  0
LINE
  5
22B
330
1A
100
AcDbEntity
  8
BLACK
  6
CONTINUOUS
100
AcDbLine
 10
5.1084946456692908
 20
-3.8124002362204723
 30
0
 11
5.1093651574803145
 21
-3.8110974409448817
 31
0
  0
LINE
  5
22C
330
1A
100
AcDbEntity
  8
BLACK
  6
CONTINUOUS
100
AcDbLine
 10
5.1093651574803145
 20
-3.8110974409448817
 30
0
 11
5.1106679527559056
 21
-3.810226929133858
 31
0
  0
LINE
  5
22D
330
1A
100
AcDbEntity
  8
BLACK
  6
CONTINUOUS
100
AcDbLine
 10
5.1106679527559056
 20
-3.810226929133858
 30
0
 11
5.1122047244094491
 21
-3.8099212598425196
 31
0
  0
LINE
  5
22E
330
1A
100
AcDbEntity
  8
BLACK
  6
CONTINUOUS
100
AcDbLine
 10
5.1122047244094491
 20
-3.8099212598425196
 30
0
 11
5.1358267716535435
 21
-3.8099212598425196
 31
0
  0
LINE
  5
22F
330
1A
100
AcDbEntity
  8
BLACK
  6
CONTINUOUS
100
AcDbLine
 10
5.1358267716535435
 20
-3.8099212598425196
 30
0
 11
5.1373635433070861
 21
-3.810226929133858
 31
0
  0
LINE
  5
230
330
1A
100
AcDbEntity
  8
BLACK
  6
CONTINUOUS
100
AcDbLine
 10
5.3224029133858268
 20
-3.810226929133858
 30
0
 11
5.323705708661417
 21
-3.8110974409448817
 31
0
  0
LINE
  5
231
330
1A
100
AcDbEntity
  8
BLACK
  6
CONTINUOUS
100
AcDbLine
 10
5.323705708661417
 20
-3.8110974409448817
 30
0
 11
5.3245762204724407
 21
-3.8124002362204723
 31
0
  0
LINE
  5
232
330
1A
100
AcDbEntity
  8
BLACK
  6
CONTINUOUS
100
AcDbLine
 10
5.3245762204724407
 20
-3.8124002362204723
 30
0
 11
5.3248818897637795
 21
-3.8139370078740158
 31
0
  0
LINE
  5
233
330
1A
100
AcDbEntity
  8
BLACK
  6
CONTINUOUS
100
AcDbLine
 10
5.3248818897637795
 20
-3.8139370078740158
 30
0
 11
5.3248818897637795
 21
-3.8351968503937006
 31
0
  0
LINE
  5
234
330
1A
100
AcDbEntity
  8
BLACK
  6
CONTINUOUS
100
AcDbLine
 10
5.3248818897637795
 20
-3.8351968503937006
 30
0
 11
5.3245762204724407
 21
-3.8367336220472441
 31
0
  0
LINE
  5
235
330
1A
100
AcDbEntity
  8
BLACK
  6
CONTINUOUS
100
AcDbLine
 10
5.3245762204724407
 20
-3.8367336220472441
 30
0
 11
5.323705708661417
 21
-3.8380364173228347
 31
0
  0
LINE
  5
236
330
1A
100
AcDbEntity
  8
BLACK
  6
CONTINUOUS
100
AcDbLine
 10
5.323705708661417
 20
-3.8380364173228347
 30
0
 11
5.3224029133858268
 21
-3.838906929133858
 31
0
  0
LINE
  5
237
330
1A
100
AcDbEntity
  8
BLACK
  6
CONTINUOUS
100
AcDbLine
 10
5.3224029133858268
 20
-3.838906929133858
 30
0
 11
5.3208661417322833
 21
-3.8392125984251968
 31
0
  0
LINE
  5
238
330
1A
100
AcDbEntity
  8
BLACK
  6
CONTINUOUS
100
AcDbLine
 10
5.3208661417322833
 20
-3.8392125984251968
 30
0
 11
5.2972440944881889
 21
-3.8392125984251968
 31
0
  0
LINE
  5
239
330
1A
100
AcDbEntity
  8
BLACK
  6
CONTINUOUS
100
AcDbLine
 10
5.2972440944881889
 20
-3.8392125984251968
 30
0
 11
5.2957073228346454
 21
-3.838906929133858
 31
0
  0
LINE
  5
23A
330
1A
100
AcDbEntity
  8
BLACK
  6
CONTINUOUS
100
AcDbLine
 10
5.2957073228346454
 20
-3.838906929133858
 30
0
 11
5.2944045275590552
 21
-3.8380364173228347
 31
0
  0
LINE
  5
23B
330
1A
100
AcDbEntity
  8
BLACK
  6
CONTINUOUS
100
AcDbLine
 10
5.2944045275590552
 20
-3.8380364173228347
 30
0
 11
5.2935340157480315
 21
-3.8367336220472441
 31
0
  0
LINE
  5
23C
330
1A
100
AcDbEntity
  8
BLACK
  6
CONTINUOUS
100
AcDbLine
 10
5.2935340157480315
 20
-3.8367336220472441
 30
0
 11
5.2932283464566927
 21
-3.8351968503937006
 31
0
  0
LINE
  5
23D
330
1A
100
AcDbEntity
  8
BLACK
  6
CONTINUOUS
100
AcDbLine
 10
5.2932283464566927
 20
-3.8351968503937006
 30
0
 11
5.2932283464566927
 21
-3.8139370078740158
 31
0
  0
LINE
  5
23E
330
1A
100
AcDbEntity
  8
BLACK
  6
CONTINUOUS
100
AcDbLine
 10
5.2932283464566927
 20
-3.8139370078740158
 30
0
 11
5.2935340157480315
 21
-3.8124002362204723
 31
0
  0
LINE
  5
23F
330
1A
100
AcDbEntity
  8
BLACK
  6
CONTINUOUS
100
AcDbLine
 10
5.2935340157480315
 20
-3.8124002362204723
 30
0
 11
5.2944045275590552
 21
-3.8110974409448817
 31
0
  0
LINE
  5
240
330
1A
100
AcDbEntity
  8
BLACK
  6
CONTINUOUS
100
AcDbLine
 10
5.2944045275590552
 20
-3.8110974409448817
 30
0
 11
5.2957073228346454
 21
-3.810226929133858
 31
0
  0
LINE
  5
241
330
1A
100
AcDbEntity
  8
BLACK
  6
CONTINUOUS
100
AcDbLine
 10
5.2957073228346454
 20
-3.810226929133858
 30
0
 11
5.2972440944881889
 21
-3.8099212598425196
 31
0
  0
LINE
  5
242
330
1A
100
AcDbEntity
  8
BLACK
  6
CONTINUOUS
100
AcDbLine
 10
5.2972440944881889
 20
-3.8099212598425196
 30
0
 11
5.3208661417322833
 21
-3.8099212598425196
 31
0
  0
LINE
  5
243
330
1A
100
AcDbEntity
  8
BLACK
  6
CONTINUOUS
100
AcDbLine
 10
5.3208661417322833
 20
-3.8099212598425196
 30
0
 11
5.3224029133858268
 21
-3.810226929133858
 31
0
  0
LINE
  5
244
330
1A
100
AcDbEntity
  8
BLACK
  6
CONTINUOUS
100
AcDbLine
 10
5.5074422834645667
 20
-3.810226929133858
 30
0
 11
5.5087450787401577
 21
-3.8110974409448817
 31
0
  0
LINE
  5
245
330
1A
100
AcDbEntity
  8
BLACK
  6
CONTINUOUS
100
AcDbLine
 10
5.5087450787401577
 20
-3.8110974409448817
 30
0
 11
5.5096155905511806
 21
-3.8124002362204723
 31
0
  0
LINE
  5
246
330
1A
100
AcDbEntity
  8
BLACK
  6
CONTINUOUS
100
AcDbLine
 10
5.5096155905511806
 20
-3.8124002362204723
 30
0
 11
5.5099212598425193
 21
-3.8139370078740158
 31
0
  0
LINE
  5
247
330
1A
100
AcDbEntity
  8
BLACK
  6
CONTINUOUS
100
AcDbLine
 10
5.5099212598425193
 20
-3.8139370078740158
 30
0
 11
5.5099212598425193
 21
-3.8351968503937006
 31
0
  0
LINE
  5
248
330
1A
100
AcDbEntity
  8
BLACK
  6
CONTINUOUS
100
AcDbLine
 10
5.5099212598425193
 20
-3.8351968503937006
 30
0
 11
5.5096155905511806
 21
-3.8367336220472441
 31
0
  0
LINE
  5
249
330
1A
100
AcDbEntity
  8
BLACK
  6
CONTINUOUS
100
AcDbLine
 10
5.5096155905511806
 20
-3.8367336220472441
 30
0
 11
5.5087450787401577
 21
-3.8380364173228347
 31
0
  0
LINE
  5
24A
330
1A
100
AcDbEntity
  8
BLACK
  6
CONTINUOUS
100
AcDbLine
 10
5.5087450787401577
 20
-3.8380364173228347
 30
0
 11
5.5074422834645667
 21
-3.838906929133858
 31
0
  0
LINE
  5
24B
330
1A
100
AcDbEntity
  8
BLACK
  6
CONTINUOUS
100
AcDbLine
 10
5.5074422834645667
 20
-3.838906929133858
 30
0
 11
5.5059055118110232
 21
-3.8392125984251968
 31
0
  0
LINE
  5
24C
330
1A
100
AcDbEntity
  8
BLACK
  6
CONTINUOUS
100
AcDbLine
 10
5.5059055118110232
 20
-3.8392125984251968
 30
0
 11
5.4822834645669287
 21
-3.8392125984251968
 31
0
  0
LINE
  5
24D
330
1A
100
AcDbEntity
  8
BLACK
  6
CONTINUOUS
100
AcDbLine
 10
5.4822834645669287
 20
-3.8392125984251968
 30
0
 11
5.4807466929133861
 21
-3.838906929133858
 31
0
  0
LINE
  5
24E
330
1A
100
AcDbEntity
  8
BLACK
  6
CONTINUOUS
100
AcDbLine
 10
5.4807466929133861
 20
-3.838906929133858
 30
0
 11
5.479443897637795
 21
-3.8380364173228347
 31
0
  0
LINE
  5
24F
330
1A
100
AcDbEntity
  8
BLACK
  6
CONTINUOUS
100
AcDbLine
 10
5.479443897637795
 20
-3.8380364173228347
 30
0
 11
5.4785733858267713
 21
-3.8367336220472441
 31
0
  0
LINE
  5
250
330
1A
100
AcDbEntity
  8
BLACK
  6
CONTINUOUS
100
AcDbLine
 10
5.4785733858267713
 20
-3.8367336220472441
 30
0
 11
5.4782677165354325
 21
-3.8351968503937006
 31
0
  0
LINE
  5
251
330
1A
100
AcDbEntity
  8
BLACK
  6
CONTINUOUS
100
AcDbLine
 10
5.4782677165354325
 20
-3.8351968503937006
 30
0
 11
5.4782677165354325
 21
-3.8139370078740158
 31
0
  0
LINE
  5
252
330
1A
100
AcDbEntity
  8
BLACK
  6
CONTINUOUS
100
AcDbLine
 10
5.4782677165354325
 20
-3.8139370078740158
 30
0
 11
5.4785733858267713
 21
-3.8124002362204723
 31
0
  0
LINE
  5
253
330
1A
100
AcDbEntity
  8
BLACK
  6
CONTINUOUS
100
AcDbLine
 10
5.4785733858267713
 20
-3.8124002362204723
 30
0
 11
5.479443897637795
 21
-3.8110974409448817
 31
0
  0
LINE
  5
254
330
1A
100
AcDbEntity
  8
BLACK
  6
CONTINUOUS
100
AcDbLine
 10
5.479443897637795
 20
-3.8110974409448817
 30
0
 11
5.4807466929133861
 21
-3.810226929133858
 31
0
  0
LINE
  5
255
330
1A
100
AcDbEntity
  8
BLACK
  6
CONTINUOUS
100
AcDbLine
 10
5.4807466929133861
 20
-3.810226929133858
 30
0
 11
5.4822834645669287
 21
-3.8099212598425196
 31
0
  0
LINE
  5
256
330
1A
100
AcDbEntity
  8
BLACK
  6
CONTINUOUS
100
AcDbLine
 10
5.4822834645669287
 20
-3.8099212598425196
 30
0
 11
5.5059055118110232
 21
-3.8099212598425196
 31
0
  0
LINE
  5
257
330
1A
100
AcDbEntity
  8
BLACK
  6
CONTINUOUS
100
AcDbLine
 10
5.5059055118110232
 20
-3.8099212598425196
 30
0
 11
5.5074422834645667
 21
-3.810226929133858
 31
0
  0
LINE
  5
258
330
1A
100
AcDbEntity
  8
BLACK
  6
CONTINUOUS
100
AcDbLine
 10
4.9523241732283463
 20
-3.776211181102362
 30
0
 11
4.9536269685039365
 21
-3.7770816929133857
 31
0
  0
LINE
  5
259
330
1A
100
AcDbEntity
  8
BLACK
  6
CONTINUOUS
100
AcDbLine
 10
4.9536269685039365
 20
-3.7770816929133857
 30
0
 11
4.9544974803149602
 21
-3.7783844881889763
 31
0
  0
LINE
  5
25A
330
1A
100
AcDbEntity
  8
BLACK
  6
CONTINUOUS
100
AcDbLine
 10
4.9544974803149602
 20
-3.7783844881889763
 30
0
 11
4.954803149606299
 21
-3.7799212598425198
 31
0
  0
LINE
  5
25B
330
1A
100
AcDbEntity
  8
BLACK
  6
CONTINUOUS
100
AcDbLine
 10
4.954803149606299
 20
-3.7799212598425198
 30
0
 11
4.954803149606299
 21
-3.8011811023622046
 31
0
  0
LINE
  5
25C
330
1A
100
AcDbEntity
  8
BLACK
  6
CONTINUOUS
100
AcDbLine
 10
4.954803149606299
 20
-3.8011811023622046
 30
0
 11
4.9544974803149602
 21
-3.8027178740157481
 31
0
  0
LINE
  5
25D
330
1A
100
AcDbEntity
  8
BLACK
  6
CONTINUOUS
100
AcDbLine
 10
4.9544974803149602
 20
-3.8027178740157481
 30
0
 11
4.9536269685039365
 21
-3.8040206692913383
 31
0
  0
LINE
  5
25E
330
1A
100
AcDbEntity
  8
BLACK
  6
CONTINUOUS
100
AcDbLine
 10
4.9536269685039365
 20
-3.8040206692913383
 30
0
 11
4.9523241732283463
 21
-3.804891181102362
 31
0
  0
LINE
  5
25F
330
1A
100
AcDbEntity
  8
BLACK
  6
CONTINUOUS
100
AcDbLine
 10
4.9523241732283463
 20
-3.804891181102362
 30
0
 11
4.9507874015748028
 21
-3.8051968503937008
 31
0
  0
LINE
  5
260
330
1A
100
AcDbEntity
  8
BLACK
  6
CONTINUOUS
100
AcDbLine
 10
4.9507874015748028
 20
-3.8051968503937008
 30
0
 11
4.9271653543307083
 21
-3.8051968503937008
 31
0
  0
LINE
  5
261
330
1A
100
AcDbEntity
  8
BLACK
  6
CONTINUOUS
100
AcDbLine
 10
4.9271653543307083
 20
-3.8051968503937008
 30
0
 11
4.9256285826771649
 21
-3.804891181102362
 31
0
  0
LINE
  5
262
330
1A
100
AcDbEntity
  8
BLACK
  6
CONTINUOUS
100
AcDbLine
 10
4.9256285826771649
 20
-3.804891181102362
 30
0
 11
4.9243257874015747
 21
-3.8040206692913383
 31
0
  0
LINE
  5
263
330
1A
100
AcDbEntity
  8
BLACK
  6
CONTINUOUS
100
AcDbLine
 10
4.9243257874015747
 20
-3.8040206692913383
 30
0
 11
4.923455275590551
 21
-3.8027178740157481
 31
0
  0
LINE
  5
264
330
1A
100
AcDbEntity
  8
BLACK
  6
CONTINUOUS
100
AcDbLine
 10
4.923455275590551
 20
-3.8027178740157481
 30
0
 11
4.9231496062992122
 21
-3.8011811023622046
 31
0
  0
LINE
  5
265
330
1A
100
AcDbEntity
  8
BLACK
  6
CONTINUOUS
100
AcDbLine
 10
4.9231496062992122
 20
-3.8011811023622046
 30
0
 11
4.9231496062992122
 21
-3.7799212598425198
 31
0
  0
LINE
  5
266
330
1A
100
AcDbEntity
  8
BLACK
  6
CONTINUOUS
100
AcDbLine
 10
4.9231496062992122
 20
-3.7799212598425198
 30
0
 11
4.923455275590551
 21
-3.7783844881889763
 31
0
  0
LINE
  5
267
330
1A
100
AcDbEntity
  8
BLACK
  6
CONTINUOUS
100
AcDbLine
 10
4.923455275590551
 20
-3.7783844881889763
 30
0
 11
4.9243257874015747
 21
-3.7770816929133857
 31
0
  0
LINE
  5
268
330
1A
100
AcDbEntity
  8
BLACK
  6
CONTINUOUS
100
AcDbLine
 10
4.9243257874015747
 20
-3.7770816929133857
 30
0
 11
4.9256285826771649
 21
-3.776211181102362
 31
0
  0
LINE
  5
269
330
1A
100
AcDbEntity
  8
BLACK
  6
CONTINUOUS
100
AcDbLine
 10
4.9256285826771649
 20
-3.776211181102362
 30
0
 11
4.9271653543307083
 21
-3.7759055118110236
 31
0
  0
LINE
  5
26A
330
1A
100
AcDbEntity
  8
BLACK
  6
CONTINUOUS
100
AcDbLine
 10
4.9271653543307083
 20
-3.7759055118110236
 30
0
 11
4.9507874015748028
 21
-3.7759055118110236
 31
0
  0
LINE
  5
26B
330
1A
100
AcDbEntity
  8
BLACK
  6
CONTINUOUS
100
AcDbLine
 10
4.9507874015748028
 20
-3.7759055118110236
 30
0
 11
4.9523241732283463
 21
-3.776211181102362
 31
0
  0
LINE
  5
26C
330
1A
100
AcDbEntity
  8
BLACK
  6
CONTINUOUS
100
AcDbLine
 10
5.1373635433070861
 20
-3.776211181102362
 30
0
 11
5.1386663385826772
 21
-3.7770816929133857
 31
0
  0
LINE
  5
26D
330
1A
100
AcDbEntity
  8
BLACK
  6
CONTINUOUS
100
AcDbLine
 10
5.1386663385826772
 20
-3.7770816929133857
 30
0
 11
5.1395368503937009
 21
-3.7783844881889763
 31
0
  0
LINE
  5
26E
330
1A
100
AcDbEntity
  8
BLACK
  6
CONTINUOUS
100
AcDbLine
 10
5.1395368503937009
 20
-3.7783844881889763
 30
0
 11
5.1398425196850397
 21
-3.7799212598425198
 31
0
  0
LINE
  5
26F
330
1A
100
AcDbEntity
  8
BLACK
  6
CONTINUOUS
100
AcDbLine
 10
5.1398425196850397
 20
-3.7799212598425198
 30
0
 11
5.1398425196850397
 21
-3.8011811023622046
 31
0
  0
LINE
  5
270
330
1A
100
AcDbEntity
  8
BLACK
  6
CONTINUOUS
100
AcDbLine
 10
5.1398425196850397
 20
-3.8011811023622046
 30
0
 11
5.1395368503937009
 21
-3.8027178740157481
 31
0
  0
LINE
  5
271
330
1A
100
AcDbEntity
  8
BLACK
  6
CONTINUOUS
100
AcDbLine
 10
5.1395368503937009
 20
-3.8027178740157481
 30
0
 11
5.1386663385826772
 21
-3.8040206692913383
 31
0
  0
LINE
  5
272
330
1A
100
AcDbEntity
  8
BLACK
  6
CONTINUOUS
100
AcDbLine
 10
5.1386663385826772
 20
-3.8040206692913383
 30
0
 11
5.1373635433070861
 21
-3.804891181102362
 31
0
  0
LINE
  5
273
330
1A
100
AcDbEntity
  8
BLACK
  6
CONTINUOUS
100
AcDbLine
 10
5.1373635433070861
 20
-3.804891181102362
 30
0
 11
5.1358267716535435
 21
-3.8051968503937008
 31
0
  0
LINE
  5
274
330
1A
100
AcDbEntity
  8
BLACK
  6
CONTINUOUS
100
AcDbLine
 10
5.1358267716535435
 20
-3.8051968503937008
 30
0
 11
5.1122047244094491
 21
-3.8051968503937008
 31
0
  0
LINE
  5
275
330
1A
100
AcDbEntity
  8
BLACK
  6
CONTINUOUS
100
AcDbLine
 10
5.1122047244094491
 20
-3.8051968503937008
 30
0
 11
5.1106679527559056
 21
-3.804891181102362
 31
0
  0
LINE
  5
276
330
1A
100
AcDbEntity
  8
BLACK
  6
CONTINUOUS
100
AcDbLine
 10
5.1106679527559056
 20
-3.804891181102362
 30
0
 11
5.1093651574803145
 21
-3.8040206692913383
 31
0
  0
LINE
  5
277
330
1A
100
AcDbEntity
  8
BLACK
  6
CONTINUOUS
100
AcDbLine
 10
5.1093651574803145
 20
-3.8040206692913383
 30
0
 11
5.1084946456692908
 21
-3.8027178740157481
 31
0
  0
LINE
  5
278
330
1A
100
AcDbEntity
  8
BLACK
  6
CONTINUOUS
100
AcDbLine
 10
5.1084946456692908
 20
-3.8027178740157481
 30
0
 11
5.1081889763779529
 21
-3.8011811023622046
 31
0
  0
LINE
  5
279
330
1A
100
AcDbEntity
  8
BLACK
  6
CONTINUOUS
100
AcDbLine
 10
5.1081889763779529
 20
-3.8011811023622046
 30
0
 11
5.1081889763779529
 21
-3.7799212598425198
 31
0
  0
LINE
  5
27A
330
1A
100
AcDbEntity
  8
BLACK
  6
CONTINUOUS
100
AcDbLine
 10
5.1081889763779529
 20
-3.7799212598425198
 30
0
 11
5.1084946456692908
 21
-3.7783844881889763
 31
0
  0
LINE
  5
27B
330
1A
100
AcDbEntity
  8
BLACK
  6
CONTINUOUS
100
AcDbLine
 10
5.1084946456692908
 20
-3.7783844881889763
 30
0
 11
5.1093651574803145
 21
-3.7770816929133857
 31
0
  0
LINE
  5
27C
330
1A
100
AcDbEntity
  8
BLACK
  6
CONTINUOUS
100
AcDbLine
 10
5.1093651574803145
 20
-3.7770816929133857
 30
0
 11
5.1106679527559056
 21
-3.776211181102362
 31
0
  0
LINE
  5
27D
330
1A
100
AcDbEntity
  8
BLACK
  6
CONTINUOUS
100
AcDbLine
 10
5.1106679527559056
 20
-3.776211181102362
 30
0
 11
5.1122047244094491
 21
-3.7759055118110236
 31
0
  0
LINE
  5
27E
330
1A
100
AcDbEntity
  8
BLACK
  6
CONTINUOUS
100
AcDbLine
 10
5.1122047244094491
 20
-3.7759055118110236
 30
0
 11
5.1358267716535435
 21
-3.7759055118110236
 31
0
  0
LINE
  5
27F
330
1A
100
AcDbEntity
  8
BLACK
  6
CONTINUOUS
100
AcDbLine
 10
5.1358267716535435
 20
-3.7759055118110236
 30
0
 11
5.1373635433070861
 21
-3.776211181102362
 31
0
  0
LINE
  5
280
330
1A
100
AcDbEntity
  8
BLACK
  6
CONTINUOUS
100
AcDbLine
 10
5.3224029133858268
 20
-3.776211181102362
 30
0
 11
5.323705708661417
 21
-3.7770816929133857
 31
0
  0
LINE
  5
281
330
1A
100
AcDbEntity
  8
BLACK
  6
CONTINUOUS
100
AcDbLine
 10
5.323705708661417
 20
-3.7770816929133857
 30
0
 11
5.3245762204724407
 21
-3.7783844881889763
 31
0
  0
LINE
  5
282
330
1A
100
AcDbEntity
  8
BLACK
  6
CONTINUOUS
100
AcDbLine
 10
5.3245762204724407
 20
-3.7783844881889763
 30
0
 11
5.3248818897637795
 21
-3.7799212598425198
 31
0
  0
LINE
  5
283
330
1A
100
AcDbEntity
  8
BLACK
  6
CONTINUOUS
100
AcDbLine
 10
5.3248818897637795
 20
-3.7799212598425198
 30
0
 11
5.3248818897637795
 21
-3.8011811023622046
 31
0
  0
LINE
  5
284
330
1A
100
AcDbEntity
  8
BLACK
  6
CONTINUOUS
100
AcDbLine
 10
5.3248818897637795
 20
-3.8011811023622046
 30
0
 11
5.3245762204724407
 21
-3.8027178740157481
 31
0
  0
LINE
  5
285
330
1A
100
AcDbEntity
  8
BLACK
  6
CONTINUOUS
100
AcDbLine
 10
5.3245762204724407
 20
-3.8027178740157481
 30
0
 11
5.323705708661417
 21
-3.8040206692913383
 31
0
  0
LINE
  5
286
330
1A
100
AcDbEntity
  8
BLACK
  6
CONTINUOUS
100
AcDbLine
 10
5.323705708661417
 20
-3.8040206692913383
 30
0
 11
5.3224029133858268
 21
-3.804891181102362
 31
0
  0
LINE
  5
287
330
1A
100
AcDbEntity
  8
BLACK
  6
CONTINUOUS
100
AcDbLine
 10
5.3224029133858268
 20
-3.804891181102362
 30
0
 11
5.3208661417322833
 21
-3.8051968503937008
 31
0
  0
LINE
  5
288
330
1A
100
AcDbEntity
  8
BLACK
  6
CONTINUOUS
100
AcDbLine
 10
5.3208661417322833
 20
-3.8051968503937008
 30
0
 11
5.2972440944881889
 21
-3.8051968503937008
 31
0
  0
LINE
  5
289
330
1A
100
AcDbEntity
  8
BLACK
  6
CONTINUOUS
100
AcDbLine
 10
5.2972440944881889
 20
-3.8051968503937008
 30
0
 11
5.2957073228346454
 21
-3.804891181102362
 31
0
  0
LINE
  5
28A
330
1A
100
AcDbEntity
  8
BLACK
  6
CONTINUOUS
100
AcDbLine
 10
5.2957073228346454
 20
-3.804891181102362
 30
0
 11
5.2944045275590552
 21
-3.8040206692913383
 31
0
  0
LINE
  5
28B
330
1A
100
AcDbEntity
  8
BLACK
  6
CONTINUOUS
100
AcDbLine
 10
5.2944045275590552
 20
-3.8040206692913383
 30
0
 11
5.2935340157480315
 21
-3.8027178740157481
 31
0
  0
LINE
  5
28C
330
1A
100
AcDbEntity
  8
BLACK
  6
CONTINUOUS
100
AcDbLine
 10
5.2935340157480315
 20
-3.8027178740157481
 30
0
 11
5.2932283464566927
 21
-3.8011811023622046
 31
0
  0
LINE
  5
28D
330
1A
100
AcDbEntity
  8
BLACK
  6
CONTINUOUS
100
AcDbLine
 10
5.2932283464566927
 20
-3.8011811023622046
 30
0
 11
5.2932283464566927
 21
-3.7799212598425198
 31
0
  0
LINE
  5
28E
330
1A
100
AcDbEntity
  8
BLACK
  6
CONTINUOUS
100
AcDbLine
 10
5.2932283464566927
 20
-3.7799212598425198
 30
0
 11
5.2935340157480315
 21
-3.7783844881889763
 31
0
  0
LINE
  5
28F
330
1A
100
AcDbEntity
  8
BLACK
  6
CONTINUOUS
100
AcDbLine
 10
5.2935340157480315
 20
-3.7783844881889763
 30
0
 11
5.2944045275590552
 21
-3.7770816929133857
 31
0
  0
LINE
  5
290
330
1A
100
AcDbEntity
  8
BLACK
  6
CONTINUOUS
100
AcDbLine
 10
5.2944045275590552
 20
-3.7770816929133857
 30
0
 11
5.2957073228346454
 21
-3.776211181102362
 31
0
  0
LINE
  5
291
330
1A
100
AcDbEntity
  8
BLACK
  6
CONTINUOUS
100
AcDbLine
 10
5.2957073228346454
 20
-3.776211181102362
 30
0
 11
5.2972440944881889
 21
-3.7759055118110236
 31
0
  0
LINE
  5
292
330
1A
100
AcDbEntity
  8
BLACK
  6
CONTINUOUS
100
AcDbLine
 10
5.2972440944881889
 20
-3.7759055118110236
 30
0
 11
5.3208661417322833
 21
-3.7759055118110236
 31
0
  0
LINE
  5
293
330
1A
100
AcDbEntity
  8
BLACK
  6
CONTINUOUS
100
AcDbLine
 10
5.3208661417322833
 20
-3.7759055118110236
 30
0
 11
5.3224029133858268
 21
-3.776211181102362
 31
0
  0
LINE
  5
294
330
1A
100
AcDbEntity
  8
BLACK
  6
CONTINUOUS
100
AcDbLine
 10
5.5074422834645667
 20
-3.776211181102362
 30
0
 11
5.5087450787401577
 21
-3.7770816929133857
 31
0
  0
LINE
  5
295
330
1A
100
AcDbEntity
  8
BLACK
  6
CONTINUOUS
100
AcDbLine
 10
5.5087450787401577
 20
-3.7770816929133857
 30
0
 11
5.5096155905511806
 21
-3.7783844881889763
 31
0
  0
LINE
  5
296
330
1A
100
AcDbEntity
  8
BLACK
  6
CONTINUOUS
100
AcDbLine
 10
5.5096155905511806
 20
-3.7783844881889763
 30
0
 11
5.5099212598425193
 21
-3.7799212598425198
 31
0
  0
LINE
  5
297
330
1A
100
AcDbEntity
  8
BLACK
  6
CONTINUOUS
100
AcDbLine
 10
5.5099212598425193
 20
-3.7799212598425198
 30
0
 11
5.5099212598425193
 21
-3.8011811023622046
 31
0
  0
LINE
  5
298
330
1A
100
AcDbEntity
  8
BLACK
  6
CONTINUOUS
100
AcDbLine
 10
5.5099212598425193
 20
-3.8011811023622046
 30
0
 11
5.5096155905511806
 21
-3.8027178740157481
 31
0
  0
LINE
  5
299
330
1A
100
AcDbEntity
  8
BLACK
  6
CONTINUOUS
100
AcDbLine
 10
5.5096155905511806
 20
-3.8027178740157481
 30
0
 11
5.5087450787401577
 21
-3.8040206692913383
 31
0
  0
LINE
  5
29A
330
1A
100
AcDbEntity
  8
BLACK
  6
CONTINUOUS
100
AcDbLine
 10
5.5087450787401577
 20
-3.8040206692913383
 30
0
 11
5.5074422834645667
 21
-3.804891181102362
 31
0
  0
LINE
  5
29B
330
1A
100
AcDbEntity
  8
BLACK
  6
CONTINUOUS
100
AcDbLine
 10
5.5074422834645667
 20
-3.804891181102362
 30
0
 11
5.5059055118110232
 21
-3.8051968503937008
 31
0
  0
LINE
  5
29C
330
1A
100
AcDbEntity
  8
BLACK
  6
CONTINUOUS
100
AcDbLine
 10
5.5059055118110232
 20
-3.8051968503937008
 30
0
 11
5.4822834645669287
 21
-3.8051968503937008
 31
0
  0
LINE
  5
29D
330
1A
100
AcDbEntity
  8
BLACK
  6
CONTINUOUS
100
AcDbLine
 10
5.4822834645669287
 20
-3.8051968503937008
 30
0
 11
5.4807466929133861
 21
-3.804891181102362
 31
0
  0
LINE
  5
29E
330
1A
100
AcDbEntity
  8
BLACK
  6
CONTINUOUS
100
AcDbLine
 10
5.4807466929133861
 20
-3.804891181102362
 30
0
 11
5.479443897637795
 21
-3.8040206692913383
 31
0
  0
LINE
  5
29F
330
1A
100
AcDbEntity
  8
BLACK
  6
CONTINUOUS
100
AcDbLine
 10
5.479443897637795
 20
-3.8040206692913383
 30
0
 11
5.4785733858267713
 21
-3.8027178740157481
 31
0
  0
LINE
  5
2A0
330
1A
100
AcDbEntity
  8
BLACK
  6
CONTINUOUS
100
AcDbLine
 10
5.4785733858267713
 20
-3.8027178740157481
 30
0
 11
5.4782677165354325
 21
-3.8011811023622046
 31
0
  0
LINE
  5
2A1
330
1A
100
AcDbEntity
  8
BLACK
  6
CONTINUOUS
100
AcDbLine
 10
5.4782677165354325
 20
-3.8011811023622046
 30
0
 11
5.4782677165354325
 21
-3.7799212598425198
 31
0
  0
LINE
  5
2A2
330
1A
100
AcDbEntity
  8
BLACK
  6
CONTINUOUS
100
AcDbLine
 10
5.4782677165354325
 20
-3.7799212598425198
 30
0
 11
5.4785733858267713
 21
-3.7783844881889763
 31
0
  0
LINE
  5
2A3
330
1A
100
AcDbEntity
  8
BLACK
  6
CONTINUOUS
100
AcDbLine
 10
5.4785733858267713
 20
-3.7783844881889763
 30
0
 11
5.479443897637795
 21
-3.7770816929133857
 31
0
  0
LINE
  5
2A4
330
1A
100
AcDbEntity
  8
BLACK
  6
CONTINUOUS
100
AcDbLine
 10
5.479443897637795
 20
-3.7770816929133857
 30
0
 11
5.4807466929133861
 21
-3.776211181102362
 31
0
  0
LINE
  5
2A5
330
1A
100
AcDbEntity
  8
BLACK
  6
CONTINUOUS
100
AcDbLine
 10
5.4807466929133861
 20
-3.776211181102362
 30
0
 11
5.4822834645669287
 21
-3.7759055118110236
 31
0
  0
LINE
  5
2A6
330
1A
100
AcDbEntity
  8
BLACK
  6
CONTINUOUS
100
AcDbLine
 10
5.4822834645669287
 20
-3.7759055118110236
 30
0
 11
5.5059055118110232
 21
-3.7759055118110236
 31
0
  0
LINE
  5
2A7
330
1A
100
AcDbEntity
  8
BLACK
  6
CONTINUOUS
100
AcDbLine
 10
5.5059055118110232
 20
-3.7759055118110236
 30
0
 11
5.5074422834645667
 21
-3.776211181102362
 31
0
  0
ENDSEC
  0
SECTION
  2
OBJECTS
  0
DICTIONARY
  5
20
330
0
100
AcDbDictionary
281
1
  3
ACAD_GROUP
350
2A8
  3
ACAD_LAYOUT
350
21
  3
ACAD_PLOTSTYLENAME
350
11
  0
DICTIONARY
  5
2A8
330
20
100
AcDbDictionary
281
1
  0
ACDBDICTIONARYWDFLT
  5
11
330
20
100
AcDbDictionary
281
1
  3
Normal
350
10
100
AcDbDictionaryWithDefault
340
10
  0
ACDBPLACEHOLDER
  5
10
330
11
  0
DICTIONARY
  5
21
330
20
100
AcDbDictionary
281
1
  3
Model
350
1D
  3
Layout1
350
1E
  3
Layout2
350
1F
  0
LAYOUT
  5
1D
330
21
100
AcDbPlotSettings
  1

  2
none_device
  4
A3
  6

 40
0.0
 41
0.0
 42
0.0
 43
0.0
 44
420.0
 45
297.0
 46
0.0
 47
0.0
 48
0.0
 49
0.0
140
0.0
141
0.0
142
1.0
143
1.0
 70
1024
 72
1
 73
0
 74
5
  7

 75
16
 76
0
 77
2
 78
300
147
1.0
148
0.0
149
0.0
100
AcDbLayout
  1
Model
 70
1
 71
0
 10
0.0
 20
0.0
 11
420.0
 21
297.0
 12
0.0
 22
0.0
 32
0.0
 14
1e+20
 24
1e+20
 34
1e+20
 15
-1e+20
 25
-1e+20
 35
-1e+20
146
0.0
 13
0.0
 23
0.0
 33
0.0
 16
1.0
 26
0.0
 36
0.0
 17
0.0
 27
1.0
 37
0.0
 76
0
330
1A
  0
LAYOUT
  5
1E
330
21
100
AcDbPlotSettings
  1

  2
none_device
  4
A3
  6

 40
0.0
 41
0.0
 42
0.0
 43
0.0
 44
420.0
 45
297.0
 46
0.0
 47
0.0
 48
0.0
 49
0.0
140
0.0
141
0.0
142
1.0
143
1.0
 70
0
 72
1
 73
0
 74
5
  7

 75
16
 76
0
 77
2
 78
300
147
1.0
148
0.0
149
0.0
100
AcDbLayout
  1
Layout1
 70
1
 71
1
 10
0.0
 20
0.0
 11
420.0
 21
297.0
 12
0.0
 22
0.0
 32
0.0
 14
1e+20
 24
1e+20
 34
1e+20
 15
-1e+20
 25
-1e+20
 35
-1e+20
146
0.0
 13
0.0
 23
0.0
 33
0.0
 16
1.0
 26
0.0
 36
0.0
 17
0.0
 27
1.0
 37
0.0
 76
0
330
1B
  0
LAYOUT
  5
1F
330
21
100
AcDbPlotSettings
  1

  2
none_device
  4
A3
  6

 40
0.0
 41
0.0
 42
0.0
 43
0.0
 44
420.0
 45
297.0
 46
0.0
 47
0.0
 48
0.0
 49
0.0
140
0.0
141
0.0
142
1.0
143
1.0
 70
0
 72
1
 73
0
 74
5
  7

 75
16
 76
0
 77
2
 78
300
147
1.0
148
0.0
149
0.0
100
AcDbLayout
  1
Layout2
 70
1
 71
2
 10
0.0
 20
0.0
 11
420.0
 21
297.0
 12
0.0
 22
0.0
 32
0.0
 14
1e+20
 24
1e+20
 34
1e+20
 15
-1e+20
 25
-1e+20
 35
-1e+20
146
0.0
 13
0.0
 23
0.0
 33
0.0
 16
1.0
 26
0.0
 36
0.0
 17
0.0
 27
1.0
 37
0.0
 76
0
330
1C
  0
ENDSEC
  0
EOF
