  0
SECTION
  2
HEADER
  9
$ACADVER
  1
AC1018
  9
$HANDSEED
  5
FFFFFFFF
  9
$ANGBASE
  50
0.0
  9
$ANGDIR
  70
1
  9
$MEASUREMENT
  70
0
  9
$INSUNITS
  70
1
  0
ENDSEC
  0
SECTION
  2
TABLES
  0
TABLE
  2
APPID
  5
1
330
0
100
AcDbSymbolTable
 70
1
  0
APPID
  5
2
330
1
100
AcDbSymbolTableRecord
100
AcDbRegAppTableRecord
  2
ACAD
 70
0
  0
ENDTAB
  0
TABLE
  2
LTYPE
  5
3
330
0
100
AcDbSymbolTable
 70
6
  0
LTYPE
  5
4
330
3
100
AcDbSymbolTableRecord
100
AcDbLinetypeTableRecord
  2
ByBlock
 70
0
  3

 72
65
 73
0
 40
0
  0
LTYPE
  5
5
330
3
100
AcDbSymbolTableRecord
100
AcDbLinetypeTableRecord
  2
ByLayer
 70
0
  3

 72
65
 73
0
 40
0
  0
LTYPE
  5
6
330
3
100
AcDbSymbolTableRecord
100
AcDbLinetypeTableRecord
  2
CONTINUOUS
 70
0
  3
Solid line
 72
65
 73
0
 40
0
  0
LTYPE
  5
7
330
3
100
AcDbSymbolTableRecord
100
AcDbLinetypeTableRecord
  2
DASHDOT
 70
0
  3
Dash Dot ____ _ ____ _
 72
65
 73
4
 40
2
 49
1.25
 74
0
 49
-0.25
 74
0
 49
0.25
 74
0
 49
-0.25
 74
0
  0
LTYPE
  5
8
330
3
100
AcDbSymbolTableRecord
100
AcDbLinetypeTableRecord
  2
DASHED
 70
0
  3
Dashed __ __ __ __ __
 72
65
 73
2
 40
0.75
 49
0.5
 74
0
 49
-0.25
 74
0
  0
LTYPE
  5
9
330
3
100
AcDbSymbolTableRecord
100
AcDbLinetypeTableRecord
  2
DOTTED
 70
0
  3
Dotted .  .  .  .
 72
65
 73
2
 40
0.2
 49
0.0
 74
0
 49
-0.2
 74
0
  0
ENDTAB
  0
TABLE
  2
STYLE
  5
A
330
0
100
AcDbSymbolTable
 70
4
  0
STYLE
  5
B
330
A
100
AcDbSymbolTableRecord
100
AcDbTextStyleTableRecord
  2
KICAD
 70
0
 40
0
 41
1
 42
1
 50
0
 71
0
  3
isocp.shx
  0
STYLE
  5
C
330
A
100
AcDbSymbolTableRecord
100
AcDbTextStyleTableRecord
  2
KICADB
 70
0
 40
0
 41
1
 42
1
 50
0
 71
0
  3
isocp.shx
  0
STYLE
  5
D
330
A
100
AcDbSymbolTableRecord
100
AcDbTextStyleTableRecord
  2
KICADI
 70
0
 40
0
 41
1
 42
1
 50
15
 71
0
  3
isocp.shx
  0
STYLE
  5
E
330
A
100
AcDbSymbolTableRecord
100
AcDbTextStyleTableRecord
  2
KICADBI
 70
0
 40
0
 41
1
 42
1
 50
15
 71
0
  3
isocp.shx
  0
ENDTAB
  0
TABLE
  2
LAYER
  5
F
330
0
100
AcDbSymbolTable
 70
2
  0
LAYER
  5
12
330
F
100
AcDbSymbolTableRecord
100
AcDbLayerTableRecord
  2
0
 70
0
 62
7
  6
CONTINUOUS
390
10
  0
LAYER
  5
13
330
F
100
AcDbSymbolTableRecord
100
AcDbLayerTableRecord
  2
BLACK
 70
0
 62
250
  6
CONTINUOUS
390
10
  0
ENDTAB
  0
TABLE
  2
VPORT
  5
14
330
0
100
AcDbSymbolTable
 70
0
  0
ENDTAB
  0
TABLE
  2
VIEW
  5
15
330
0
100
AcDbSymbolTable
 70
0
  0
ENDTAB
  0
TABLE
  2
UCS
  5
16
330
0
100
AcDbSymbolTable
 70
0
  0
ENDTAB
  0
TABLE
  2
DIMSTYLE
  5
17
330
0
100
AcDbSymbolTable
 70
1
100
AcDbDimStyleTable
 71
0
  0
DIMSTYLE
105
18
330
17
100
AcDbSymbolTableRecord
100
AcDbDimStyleTableRecord
  2
Standard
 70
0
  0
ENDTAB
  0
TABLE
  2
BLOCK_RECORD
  5
19
330
0
100
AcDbSymbolTable
 70
3
  0
BLOCK_RECORD
  5
1A
330
19
100
AcDbSymbolTableRecord
100
AcDbBlockTableRecord
  2
*Model_Space
340
1D
 70
0
280
1
281
0
  0
BLOCK_RECORD
  5
1B
330
19
100
AcDbSymbolTableRecord
100
AcDbBlockTableRecord
  2
*Paper_Space
340
1E
 70
0
280
1
281
0
  0
BLOCK_RECORD
  5
1C
330
19
100
AcDbSymbolTableRecord
100
AcDbBlockTableRecord
  2
*Paper_Space0
340
1F
 70
0
280
1
281
0
  0
ENDTAB
  0
ENDSEC
  0
SECTION
  2
BLOCKS
  0
BLOCK
  5
23
330
1A
100
AcDbEntity
  8
0
100
AcDbBlockBegin
  2
*Model_Space
 70
0
 10
0.0
 20
0.0
 30
0.0
  3
*Model_Space
  1

  0
ENDBLK
  5
22
330
1A
100
AcDbEntity
  8
0
100
AcDbBlockEnd
  0
BLOCK
  5
25
330
1B
100
AcDbEntity
 67
1
  8
0
100
AcDbBlockBegin
  2
*Paper_Space
 70
0
 10
0.0
 20
0.0
 30
0.0
  3
*Paper_Space
  1

  0
ENDBLK
  5
24
330
1B
100
AcDbEntity
 67
1
  8
0
100
AcDbBlockEnd
  0
BLOCK
  5
27
330
1C
100
AcDbEntity
 67
1
  8
0
100
AcDbBlockBegin
  2
*Paper_Space0
 70
0
 10
0.0
 20
0.0
 30
0.0
  3
*Paper_Space0
  1

  0
ENDBLK
  5
26
330
1C
100
AcDbEntity
 67
1
  8
0
100
AcDbBlockEnd
  0
ENDSEC
  0
SECTION
  2
ENTITIES
  0
LINE
  5
28
330
1A
100
AcDbEntity
  8
BLACK
  6
CONTINUOUS
100
AcDbLine
 10
5.0492879133858271
 20
-4.3246212992125983
 30
0
 11
5.0493944488188971
 21
-4.3247278346456692
 31
0
  0
LINE
  5
29
330
1A
100
AcDbEntity
  8
BLACK
  6
CONTINUOUS
100
AcDbLine
 10
5.0493944488188971
 20
-4.3247278346456692
 30
0
 11
5.0494094488188974
 21
-4.3248031496062991
 31
0
  0
LINE
  5
2A
330
1A
100
AcDbEntity
  8
BLACK
  6
CONTINUOUS
100
AcDbLine
 10
5.0494094488188974
 20
-4.3248031496062991
 30
0
 11
5.0494094488188974
 21
-4.3877952755905509
 31
0
  0
LINE
  5
2B
330
1A
100
AcDbEntity
  8
BLACK
  6
CONTINUOUS
100
AcDbLine
 10
5.0494094488188974
 20
-4.3877952755905509
 30
0
 11
5.0493944488188971
 21
-4.3878705905511808
 31
0
  0
LINE
  5
2C
330
1A
100
AcDbEntity
  8
BLACK
  6
CONTINUOUS
100
AcDbLine
 10
5.0493944488188971
 20
-4.3878705905511808
 30
0
 11
5.0492879133858271
 21
-4.3879771259842517
 31
0
  0
LINE
  5
2D
330
1A
100
AcDbEntity
  8
BLACK
  6
CONTINUOUS
100
AcDbLine
 10
5.0492879133858271
 20
-4.3879771259842517
 30
0
 11
5.0492125984251963
 21
-4.387992125984252
 31
0
  0
LINE
  5
2E
330
1A
100
AcDbEntity
  8
BLACK
  6
CONTINUOUS
100
AcDbLine
 10
5.0492125984251963
 20
-4.387992125984252
 30
0
 11
4.9862204724409445
 21
-4.387992125984252
 31
0
  0
LINE
  5
2F
330
1A
100
AcDbEntity
  8
BLACK
  6
CONTINUOUS
100
AcDbLine
 10
4.9862204724409445
 20
-4.387992125984252
 30
0
 11
4.9861451574803146
 21
-4.3879771259842517
 31
0
  0
LINE
  5
30
330
1A
100
AcDbEntity
  8
BLACK
  6
CONTINUOUS
100
AcDbLine
 10
4.9861451574803146
 20
-4.3879771259842517
 30
0
 11
4.9860386220472437
 21
-4.3878705905511808
 31
0
  0
LINE
  5
31
330
1A
100
AcDbEntity
  8
BLACK
  6
CONTINUOUS
100
AcDbLine
 10
4.9860386220472437
 20
-4.3878705905511808
 30
0
 11
4.9860236220472443
 21
-4.3877952755905509
 31
0
  0
LINE
  5
32
330
1A
100
AcDbEntity
  8
BLACK
  6
CONTINUOUS
100
AcDbLine
 10
4.9860236220472443
 20
-4.3877952755905509
 30
0
 11
4.9860236220472443
 21
-4.3248031496062991
 31
0
  0
LINE
  5
33
330
1A
100
AcDbEntity
  8
BLACK
  6
CONTINUOUS
100
AcDbLine
 10
4.9860236220472443
 20
-4.3248031496062991
 30
0
 11
4.9860386220472437
 21
-4.3247278346456692
 31
0
  0
LINE
  5
34
330
1A
100
AcDbEntity
  8
BLACK
  6
CONTINUOUS
100
AcDbLine
 10
4.9860386220472437
 20
-4.3247278346456692
 30
0
 11
4.9861451574803146
 21
-4.3246212992125983
 31
0
  0
LINE
  5
35
330
1A
100
AcDbEntity
  8
BLACK
  6
CONTINUOUS
100
AcDbLine
 10
4.9861451574803146
 20
-4.3246212992125983
 30
0
 11
4.9862204724409445
 21
-4.324606299212598
 31
0
  0
LINE
  5
36
330
1A
100
AcDbEntity
  8
BLACK
  6
CONTINUOUS
100
AcDbLine
 10
4.9862204724409445
 20
-4.324606299212598
 30
0
 11
5.0492125984251963
 21
-4.324606299212598
 31
0
  0
LINE
  5
37
330
1A
100
AcDbEntity
  8
BLACK
  6
CONTINUOUS
100
AcDbLine
 10
5.0492125984251963
 20
-4.324606299212598
 30
0
 11
5.0492879133858271
 21
-4.3246212992125983
 31
0
  0
LINE
  5
38
330
1A
100
AcDbEntity
  8
BLACK
  6
CONTINUOUS
100
AcDbLine
 10
4.9864173228346456
 20
-4.3250000000000002
 30
0
 11
4.9864173228346456
 21
-4.3875984251968507
 31
0
  0
LINE
  5
39
330
1A
100
AcDbEntity
  8
BLACK
  6
CONTINUOUS
100
AcDbLine
 10
4.9864173228346456
 20
-4.3875984251968507
 30
0
 11
5.0490157480314961
 21
-4.3875984251968507
 31
0
  0
LINE
  5
3A
330
1A
100
AcDbEntity
  8
BLACK
  6
CONTINUOUS
100
AcDbLine
 10
5.0490157480314961
 20
-4.3875984251968507
 30
0
 11
5.0490157480314961
 21
-4.3250000000000002
 31
0
  0
LINE
  5
3B
330
1A
100
AcDbEntity
  8
BLACK
  6
CONTINUOUS
100
AcDbLine
 10
5.0490157480314961
 20
-4.3250000000000002
 30
0
 11
4.9864173228346456
 21
-4.3250000000000002
 31
0
  0
LINE
  5
3C
330
1A
100
AcDbEntity
  8
BLACK
  6
CONTINUOUS
100
AcDbLine
 10
5.2343272834645669
 20
-4.3246212992125983
 30
0
 11
5.2344338188976378
 21
-4.3247278346456692
 31
0
  0
LINE
  5
3D
330
1A
100
AcDbEntity
  8
BLACK
  6
CONTINUOUS
100
AcDbLine
 10
5.2344338188976378
 20
-4.3247278346456692
 30
0
 11
5.2344488188976372
 21
-4.3248031496062991
 31
0
  0
LINE
  5
3E
330
1A
100
AcDbEntity
  8
BLACK
  6
CONTINUOUS
100
AcDbLine
 10
5.2344488188976372
 20
-4.3248031496062991
 30
0
 11
5.2344488188976372
 21
-4.3877952755905509
 31
0
  0
LINE
  5
3F
330
1A
100
AcDbEntity
  8
BLACK
  6
CONTINUOUS
100
AcDbLine
 10
5.2344488188976372
 20
-4.3877952755905509
 30
0
 11
5.2344338188976378
 21
-4.3878705905511808
 31
0
  0
LINE
  5
40
330
1A
100
AcDbEntity
  8
BLACK
  6
CONTINUOUS
100
AcDbLine
 10
5.2344338188976378
 20
-4.3878705905511808
 30
0
 11
5.2343272834645669
 21
-4.3879771259842517
 31
0
  0
LINE
  5
41
330
1A
100
AcDbEntity
  8
BLACK
  6
CONTINUOUS
100
AcDbLine
 10
5.2343272834645669
 20
-4.3879771259842517
 30
0
 11
5.234251968503937
 21
-4.387992125984252
 31
0
  0
LINE
  5
42
330
1A
100
AcDbEntity
  8
BLACK
  6
CONTINUOUS
100
AcDbLine
 10
5.234251968503937
 20
-4.387992125984252
 30
0
 11
5.1712598425196852
 21
-4.387992125984252
 31
0
  0
LINE
  5
43
330
1A
100
AcDbEntity
  8
BLACK
  6
CONTINUOUS
100
AcDbLine
 10
5.1712598425196852
 20
-4.387992125984252
 30
0
 11
5.1711845275590553
 21
-4.3879771259842517
 31
0
  0
LINE
  5
44
330
1A
100
AcDbEntity
  8
BLACK
  6
CONTINUOUS
100
AcDbLine
 10
5.1711845275590553
 20
-4.3879771259842517
 30
0
 11
5.1710779921259844
 21
-4.3878705905511808
 31
0
  0
LINE
  5
45
330
1A
100
AcDbEntity
  8
BLACK
  6
CONTINUOUS
100
AcDbLine
 10
5.1710779921259844
 20
-4.3878705905511808
 30
0
 11
5.1710629921259841
 21
-4.3877952755905509
 31
0
  0
LINE
  5
46
330
1A
100
AcDbEntity
  8
BLACK
  6
CONTINUOUS
100
AcDbLine
 10
5.1710629921259841
 20
-4.3877952755905509
 30
0
 11
5.1710629921259841
 21
-4.3248031496062991
 31
0
  0
LINE
  5
47
330
1A
100
AcDbEntity
  8
BLACK
  6
CONTINUOUS
100
AcDbLine
 10
5.1710629921259841
 20
-4.3248031496062991
 30
0
 11
5.1710779921259844
 21
-4.3247278346456692
 31
0
  0
LINE
  5
48
330
1A
100
AcDbEntity
  8
BLACK
  6
CONTINUOUS
100
AcDbLine
 10
5.1710779921259844
 20
-4.3247278346456692
 30
0
 11
5.1711845275590553
 21
-4.3246212992125983
 31
0
  0
LINE
  5
49
330
1A
100
AcDbEntity
  8
BLACK
  6
CONTINUOUS
100
AcDbLine
 10
5.1711845275590553
 20
-4.3246212992125983
 30
0
 11
5.1712598425196852
 21
-4.324606299212598
 31
0
  0
LINE
  5
4A
330
1A
100
AcDbEntity
  8
BLACK
  6
CONTINUOUS
100
AcDbLine
 10
5.1712598425196852
 20
-4.324606299212598
 30
0
 11
5.234251968503937
 21
-4.324606299212598
 31
0
  0
LINE
  5
4B
330
1A
100
AcDbEntity
  8
BLACK
  6
CONTINUOUS
100
AcDbLine
 10
5.234251968503937
 20
-4.324606299212598
 30
0
 11
5.2343272834645669
 21
-4.3246212992125983
 31
0
  0
LINE
  5
4C
330
1A
100
AcDbEntity
  8
BLACK
  6
CONTINUOUS
100
AcDbLine
 10
5.1714566929133854
 20
-4.3250000000000002
 30
0
 11
5.1714566929133854
 21
-4.3875984251968507
 31
0
  0
LINE
  5
4D
330
1A
100
AcDbEntity
  8
BLACK
  6
CONTINUOUS
100
AcDbLine
 10
5.1714566929133854
 20
-4.3875984251968507
 30
0
 11
5.2340551181102359
 21
-4.3875984251968507
 31
0
  0
LINE
  5
4E
330
1A
100
AcDbEntity
  8
BLACK
  6
CONTINUOUS
100
AcDbLine
 10
5.2340551181102359
 20
-4.3875984251968507
 30
0
 11
5.2340551181102359
 21
-4.3250000000000002
 31
0
  0
LINE
  5
4F
330
1A
100
AcDbEntity
  8
BLACK
  6
CONTINUOUS
100
AcDbLine
 10
5.2340551181102359
 20
-4.3250000000000002
 30
0
 11
5.1714566929133854
 21
-4.3250000000000002
 31
0
  0
LINE
  5
50
330
1A
100
AcDbEntity
  8
BLACK
  6
CONTINUOUS
100
AcDbLine
 10
5.4193666535433067
 20
-4.3246212992125983
 30
0
 11
5.4194731889763776
 21
-4.3247278346456692
 31
0
  0
LINE
  5
51
330
1A
100
AcDbEntity
  8
BLACK
  6
CONTINUOUS
100
AcDbLine
 10
5.4194731889763776
 20
-4.3247278346456692
 30
0
 11
5.419488188976378
 21
-4.3248031496062991
 31
0
  0
LINE
  5
52
330
1A
100
AcDbEntity
  8
BLACK
  6
CONTINUOUS
100
AcDbLine
 10
5.419488188976378
 20
-4.3248031496062991
 30
0
 11
5.419488188976378
 21
-4.3877952755905509
 31
0
  0
LINE
  5
53
330
1A
100
AcDbEntity
  8
BLACK
  6
CONTINUOUS
100
AcDbLine
 10
5.419488188976378
 20
-4.3877952755905509
 30
0
 11
5.4194731889763776
 21
-4.3878705905511808
 31
0
  0
LINE
  5
54
330
1A
100
AcDbEntity
  8
BLACK
  6
CONTINUOUS
100
AcDbLine
 10
5.4194731889763776
 20
-4.3878705905511808
 30
0
 11
5.4193666535433067
 21
-4.3879771259842517
 31
0
  0
LINE
  5
55
330
1A
100
AcDbEntity
  8
BLACK
  6
CONTINUOUS
100
AcDbLine
 10
5.4193666535433067
 20
-4.3879771259842517
 30
0
 11
5.4192913385826769
 21
-4.387992125984252
 31
0
  0
LINE
  5
56
330
1A
100
AcDbEntity
  8
BLACK
  6
CONTINUOUS
100
AcDbLine
 10
5.4192913385826769
 20
-4.387992125984252
 30
0
 11
5.356299212598425
 21
-4.387992125984252
 31
0
  0
LINE
  5
57
330
1A
100
AcDbEntity
  8
BLACK
  6
CONTINUOUS
100
AcDbLine
 10
5.356299212598425
 20
-4.387992125984252
 30
0
 11
5.3562238976377952
 21
-4.3879771259842517
 31
0
  0
LINE
  5
58
330
1A
100
AcDbEntity
  8
BLACK
  6
CONTINUOUS
100
AcDbLine
 10
5.3562238976377952
 20
-4.3879771259842517
 30
0
 11
5.3561173622047242
 21
-4.3878705905511808
 31
0
  0
LINE
  5
59
330
1A
100
AcDbEntity
  8
BLACK
  6
CONTINUOUS
100
AcDbLine
 10
5.3561173622047242
 20
-4.3878705905511808
 30
0
 11
5.3561023622047239
 21
-4.3877952755905509
 31
0
  0
LINE
  5
5A
330
1A
100
AcDbEntity
  8
BLACK
  6
CONTINUOUS
100
AcDbLine
 10
5.3561023622047239
 20
-4.3877952755905509
 30
0
 11
5.3561023622047239
 21
-4.3248031496062991
 31
0
  0
LINE
  5
5B
330
1A
100
AcDbEntity
  8
BLACK
  6
CONTINUOUS
100
AcDbLine
 10
5.3561023622047239
 20
-4.3248031496062991
 30
0
 11
5.3561173622047242
 21
-4.3247278346456692
 31
0
  0
LINE
  5
5C
330
1A
100
AcDbEntity
  8
BLACK
  6
CONTINUOUS
100
AcDbLine
 10
5.3561173622047242
 20
-4.3247278346456692
 30
0
 11
5.3562238976377952
 21
-4.3246212992125983
 31
0
  0
LINE
  5
5D
330
1A
100
AcDbEntity
  8
BLACK
  6
CONTINUOUS
100
AcDbLine
 10
5.3562238976377952
 20
-4.3246212992125983
 30
0
 11
5.356299212598425
 21
-4.324606299212598
 31
0
  0
LINE
  5
5E
330
1A
100
AcDbEntity
  8
BLACK
  6
CONTINUOUS
100
AcDbLine
 10
5.356299212598425
 20
-4.324606299212598
 30
0
 11
5.4192913385826769
 21
-4.324606299212598
 31
0
  0
LINE
  5
5F
330
1A
100
AcDbEntity
  8
BLACK
  6
CONTINUOUS
100
AcDbLine
 10
5.4192913385826769
 20
-4.324606299212598
 30
0
 11
5.4193666535433067
 21
-4.3246212992125983
 31
0
  0
LINE
  5
60
330
1A
100
AcDbEntity
  8
BLACK
  6
CONTINUOUS
100
AcDbLine
 10
5.3564960629921261
 20
-4.3250000000000002
 30
0
 11
5.3564960629921261
 21
-4.3875984251968507
 31
0
  0
LINE
  5
61
330
1A
100
AcDbEntity
  8
BLACK
  6
CONTINUOUS
100
AcDbLine
 10
5.3564960629921261
 20
-4.3875984251968507
 30
0
 11
5.4190944881889767
 21
-4.3875984251968507
 31
0
  0
LINE
  5
62
330
1A
100
AcDbEntity
  8
BLACK
  6
CONTINUOUS
100
AcDbLine
 10
5.4190944881889767
 20
-4.3875984251968507
 30
0
 11
5.4190944881889767
 21
-4.3250000000000002
 31
0
  0
LINE
  5
63
330
1A
100
AcDbEntity
  8
BLACK
  6
CONTINUOUS
100
AcDbLine
 10
5.4190944881889767
 20
-4.3250000000000002
 30
0
 11
5.3564960629921261
 21
-4.3250000000000002
 31
0
  0
LINE
  5
64
330
1A
100
AcDbEntity
  8
BLACK
  6
CONTINUOUS
100
AcDbLine
 10
5.6044060236220474
 20
-4.3246212992125983
 30
0
 11
5.6045125590551184
 21
-4.3247278346456692
 31
0
  0
LINE
  5
65
330
1A
100
AcDbEntity
  8
BLACK
  6
CONTINUOUS
100
AcDbLine
 10
5.6045125590551184
 20
-4.3247278346456692
 30
0
 11
5.6045275590551178
 21
-4.3248031496062991
 31
0
  0
LINE
  5
66
330
1A
100
AcDbEntity
  8
BLACK
  6
CONTINUOUS
100
AcDbLine
 10
5.6045275590551178
 20
-4.3248031496062991
 30
0
 11
5.6045275590551178
 21
-4.3877952755905509
 31
0
  0
LINE
  5
67
330
1A
100
AcDbEntity
  8
BLACK
  6
CONTINUOUS
100
AcDbLine
 10
5.6045275590551178
 20
-4.3877952755905509
 30
0
 11
5.6045125590551184
 21
-4.3878705905511808
 31
0
  0
LINE
  5
68
330
1A
100
AcDbEntity
  8
BLACK
  6
CONTINUOUS
100
AcDbLine
 10
5.6045125590551184
 20
-4.3878705905511808
 30
0
 11
5.6044060236220474
 21
-4.3879771259842517
 31
0
  0
LINE
  5
69
330
1A
100
AcDbEntity
  8
BLACK
  6
CONTINUOUS
100
AcDbLine
 10
5.6044060236220474
 20
-4.3879771259842517
 30
0
 11
5.6043307086614176
 21
-4.387992125984252
 31
0
  0
LINE
  5
6A
330
1A
100
AcDbEntity
  8
BLACK
  6
CONTINUOUS
100
AcDbLine
 10
5.6043307086614176
 20
-4.387992125984252
 30
0
 11
5.5413385826771648
 21
-4.387992125984252
 31
0
  0
LINE
  5
6B
330
1A
100
AcDbEntity
  8
BLACK
  6
CONTINUOUS
100
AcDbLine
 10
5.5413385826771648
 20
-4.387992125984252
 30
0
 11
5.541263267716535
 21
-4.3879771259842517
 31
0
  0
LINE
  5
6C
330
1A
100
AcDbEntity
  8
BLACK
  6
CONTINUOUS
100
AcDbLine
 10
5.541263267716535
 20
-4.3879771259842517
 30
0
 11
5.5411567322834641
 21
-4.3878705905511808
 31
0
  0
LINE
  5
6D
330
1A
100
AcDbEntity
  8
BLACK
  6
CONTINUOUS
100
AcDbLine
 10
5.5411567322834641
 20
-4.3878705905511808
 30
0
 11
5.5411417322834646
 21
-4.3877952755905509
 31
0
  0
LINE
  5
6E
330
1A
100
AcDbEntity
  8
BLACK
  6
CONTINUOUS
100
AcDbLine
 10
5.5411417322834646
 20
-4.3877952755905509
 30
0
 11
5.5411417322834646
 21
-4.3248031496062991
 31
0
  0
LINE
  5
6F
330
1A
100
AcDbEntity
  8
BLACK
  6
CONTINUOUS
100
AcDbLine
 10
5.5411417322834646
 20
-4.3248031496062991
 30
0
 11
5.5411567322834641
 21
-4.3247278346456692
 31
0
  0
LINE
  5
70
330
1A
100
AcDbEntity
  8
BLACK
  6
CONTINUOUS
100
AcDbLine
 10
5.5411567322834641
 20
-4.3247278346456692
 30
0
 11
5.541263267716535
 21
-4.3246212992125983
 31
0
  0
LINE
  5
71
330
1A
100
AcDbEntity
  8
BLACK
  6
CONTINUOUS
100
AcDbLine
 10
5.541263267716535
 20
-4.3246212992125983
 30
0
 11
5.5413385826771648
 21
-4.324606299212598
 31
0
  0
LINE
  5
72
330
1A
100
AcDbEntity
  8
BLACK
  6
CONTINUOUS
100
AcDbLine
 10
5.5413385826771648
 20
-4.324606299212598
 30
0
 11
5.6043307086614176
 21
-4.324606299212598
 31
0
  0
LINE
  5
73
330
1A
100
AcDbEntity
  8
BLACK
  6
CONTINUOUS
100
AcDbLine
 10
5.6043307086614176
 20
-4.324606299212598
 30
0
 11
5.6044060236220474
 21
-4.3246212992125983
 31
0
  0
LINE
  5
74
330
1A
100
AcDbEntity
  8
BLACK
  6
CONTINUOUS
100
AcDbLine
 10
5.5415354330708659
 20
-4.3250000000000002
 30
0
 11
5.5415354330708659
 21
-4.3875984251968507
 31
0
  0
LINE
  5
75
330
1A
100
AcDbEntity
  8
BLACK
  6
CONTINUOUS
100
AcDbLine
 10
5.5415354330708659
 20
-4.3875984251968507
 30
0
 11
5.6041338582677165
 21
-4.3875984251968507
 31
0
  0
LINE
  5
76
330
1A
100
AcDbEntity
  8
BLACK
  6
CONTINUOUS
100
AcDbLine
 10
5.6041338582677165
 20
-4.3875984251968507
 30
0
 11
5.6041338582677165
 21
-4.3250000000000002
 31
0
  0
LINE
  5
77
330
1A
100
AcDbEntity
  8
BLACK
  6
CONTINUOUS
100
AcDbLine
 10
5.6041338582677165
 20
-4.3250000000000002
 30
0
 11
5.5415354330708659
 21
-4.3250000000000002
 31
0
  0
LINE
  5
78
330
1A
100
AcDbEntity
  8
BLACK
  6
CONTINUOUS
100
AcDbLine
 10
5.0492879133858271
 20
-4.1395819291338585
 30
0
 11
5.0493944488188971
 21
-4.1396884645669294
 31
0
  0
LINE
  5
79
330
1A
100
AcDbEntity
  8
BLACK
  6
CONTINUOUS
100
AcDbLine
 10
5.0493944488188971
 20
-4.1396884645669294
 30
0
 11
5.0494094488188974
 21
-4.1397637795275593
 31
0
  0
LINE
  5
7A
330
1A
100
AcDbEntity
  8
BLACK
  6
CONTINUOUS
100
AcDbLine
 10
5.0494094488188974
 20
-4.1397637795275593
 30
0
 11
5.0494094488188974
 21
-4.2027559055118111
 31
0
  0
LINE
  5
7B
330
1A
100
AcDbEntity
  8
BLACK
  6
CONTINUOUS
100
AcDbLine
 10
5.0494094488188974
 20
-4.2027559055118111
 30
0
 11
5.0493944488188971
 21
-4.202831220472441
 31
0
  0
LINE
  5
7C
330
1A
100
AcDbEntity
  8
BLACK
  6
CONTINUOUS
100
AcDbLine
 10
5.0493944488188971
 20
-4.202831220472441
 30
0
 11
5.0492879133858271
 21
-4.2029377559055119
 31
0
  0
LINE
  5
7D
330
1A
100
AcDbEntity
  8
BLACK
  6
CONTINUOUS
100
AcDbLine
 10
5.0492879133858271
 20
-4.2029377559055119
 30
0
 11
5.0492125984251963
 21
-4.2029527559055113
 31
0
  0
LINE
  5
7E
330
1A
100
AcDbEntity
  8
BLACK
  6
CONTINUOUS
100
AcDbLine
 10
5.0492125984251963
 20
-4.2029527559055113
 30
0
 11
4.9862204724409445
 21
-4.2029527559055113
 31
0
  0
LINE
  5
7F
330
1A
100
AcDbEntity
  8
BLACK
  6
CONTINUOUS
100
AcDbLine
 10
4.9862204724409445
 20
-4.2029527559055113
 30
0
 11
4.9861451574803146
 21
-4.2029377559055119
 31
0
  0
LINE
  5
80
330
1A
100
AcDbEntity
  8
BLACK
  6
CONTINUOUS
100
AcDbLine
 10
4.9861451574803146
 20
-4.2029377559055119
 30
0
 11
4.9860386220472437
 21
-4.202831220472441
 31
0
  0
LINE
  5
81
330
1A
100
AcDbEntity
  8
BLACK
  6
CONTINUOUS
100
AcDbLine
 10
4.9860386220472437
 20
-4.202831220472441
 30
0
 11
4.9860236220472443
 21
-4.2027559055118111
 31
0
  0
LINE
  5
82
330
1A
100
AcDbEntity
  8
BLACK
  6
CONTINUOUS
100
AcDbLine
 10
4.9860236220472443
 20
-4.2027559055118111
 30
0
 11
4.9860236220472443
 21
-4.1397637795275593
 31
0
  0
LINE
  5
83
330
1A
100
AcDbEntity
  8
BLACK
  6
CONTINUOUS
100
AcDbLine
 10
4.9860236220472443
 20
-4.1397637795275593
 30
0
 11
4.9860386220472437
 21
-4.1396884645669294
 31
0
  0
LINE
  5
84
330
1A
100
AcDbEntity
  8
BLACK
  6
CONTINUOUS
100
AcDbLine
 10
4.9860386220472437
 20
-4.1396884645669294
 30
0
 11
4.9861451574803146
 21
-4.1395819291338585
 31
0
  0
LINE
  5
85
330
1A
100
AcDbEntity
  8
BLACK
  6
CONTINUOUS
100
AcDbLine
 10
4.9861451574803146
 20
-4.1395819291338585
 30
0
 11
4.9862204724409445
 21
-4.1395669291338582
 31
0
  0
LINE
  5
86
330
1A
100
AcDbEntity
  8
BLACK
  6
CONTINUOUS
100
AcDbLine
 10
4.9862204724409445
 20
-4.1395669291338582
 30
0
 11
5.0492125984251963
 21
-4.1395669291338582
 31
0
  0
LINE
  5
87
330
1A
100
AcDbEntity
  8
BLACK
  6
CONTINUOUS
100
AcDbLine
 10
5.0492125984251963
 20
-4.1395669291338582
 30
0
 11
5.0492879133858271
 21
-4.1395819291338585
 31
0
  0
LINE
  5
88
330
1A
100
AcDbEntity
  8
BLACK
  6
CONTINUOUS
100
AcDbLine
 10
4.9864173228346456
 20
-4.1399606299212595
 30
0
 11
4.9864173228346456
 21
-4.20255905511811
 31
0
  0
LINE
  5
89
330
1A
100
AcDbEntity
  8
BLACK
  6
CONTINUOUS
100
AcDbLine
 10
4.9864173228346456
 20
-4.20255905511811
 30
0
 11
5.0490157480314961
 21
-4.20255905511811
 31
0
  0
LINE
  5
8A
330
1A
100
AcDbEntity
  8
BLACK
  6
CONTINUOUS
100
AcDbLine
 10
5.0490157480314961
 20
-4.20255905511811
 30
0
 11
5.0490157480314961
 21
-4.1399606299212595
 31
0
  0
LINE
  5
8B
330
1A
100
AcDbEntity
  8
BLACK
  6
CONTINUOUS
100
AcDbLine
 10
5.0490157480314961
 20
-4.1399606299212595
 30
0
 11
4.9864173228346456
 21
-4.1399606299212595
 31
0
  0
LINE
  5
8C
330
1A
100
AcDbEntity
  8
BLACK
  6
CONTINUOUS
100
AcDbLine
 10
5.2343272834645669
 20
-4.1395819291338585
 30
0
 11
5.2344338188976378
 21
-4.1396884645669294
 31
0
  0
LINE
  5
8D
330
1A
100
AcDbEntity
  8
BLACK
  6
CONTINUOUS
100
AcDbLine
 10
5.2344338188976378
 20
-4.1396884645669294
 30
0
 11
5.2344488188976372
 21
-4.1397637795275593
 31
0
  0
LINE
  5
8E
330
1A
100
AcDbEntity
  8
BLACK
  6
CONTINUOUS
100
AcDbLine
 10
5.2344488188976372
 20
-4.1397637795275593
 30
0
 11
5.2344488188976372
 21
-4.2027559055118111
 31
0
  0
LINE
  5
8F
330
1A
100
AcDbEntity
  8
BLACK
  6
CONTINUOUS
100
AcDbLine
 10
5.2344488188976372
 20
-4.2027559055118111
 30
0
 11
5.2344338188976378
 21
-4.202831220472441
 31
0
  0
LINE
  5
90
330
1A
100
AcDbEntity
  8
BLACK
  6
CONTINUOUS
100
AcDbLine
 10
5.2344338188976378
 20
-4.202831220472441
 30
0
 11
5.2343272834645669
 21
-4.2029377559055119
 31
0
  0
LINE
  5
91
330
1A
100
AcDbEntity
  8
BLACK
  6
CONTINUOUS
100
AcDbLine
 10
5.2343272834645669
 20
-4.2029377559055119
 30
0
 11
5.234251968503937
 21
-4.2029527559055113
 31
0
  0
LINE
  5
92
330
1A
100
AcDbEntity
  8
BLACK
  6
CONTINUOUS
100
AcDbLine
 10
5.234251968503937
 20
-4.2029527559055113
 30
0
 11
5.1712598425196852
 21
-4.2029527559055113
 31
0
  0
LINE
  5
93
330
1A
100
AcDbEntity
  8
BLACK
  6
CONTINUOUS
100
AcDbLine
 10
5.1712598425196852
 20
-4.2029527559055113
 30
0
 11
5.1711845275590553
 21
-4.2029377559055119
 31
0
  0
LINE
  5
94
330
1A
100
AcDbEntity
  8
BLACK
  6
CONTINUOUS
100
AcDbLine
 10
5.1711845275590553
 20
-4.2029377559055119
 30
0
 11
5.1710779921259844
 21
-4.202831220472441
 31
0
  0
LINE
  5
95
330
1A
100
AcDbEntity
  8
BLACK
  6
CONTINUOUS
100
AcDbLine
 10
5.1710779921259844
 20
-4.202831220472441
 30
0
 11
5.1710629921259841
 21
-4.2027559055118111
 31
0
  0
LINE
  5
96
330
1A
100
AcDbEntity
  8
BLACK
  6
CONTINUOUS
100
AcDbLine
 10
5.1710629921259841
 20
-4.2027559055118111
 30
0
 11
5.1710629921259841
 21
-4.1397637795275593
 31
0
  0
LINE
  5
97
330
1A
100
AcDbEntity
  8
BLACK
  6
CONTINUOUS
100
AcDbLine
 10
5.1710629921259841
 20
-4.1397637795275593
 30
0
 11
5.1710779921259844
 21
-4.1396884645669294
 31
0
  0
LINE
  5
98
330
1A
100
AcDbEntity
  8
BLACK
  6
CONTINUOUS
100
AcDbLine
 10
5.1710779921259844
 20
-4.1396884645669294
 30
0
 11
5.1711845275590553
 21
-4.1395819291338585
 31
0
  0
LINE
  5
99
330
1A
100
AcDbEntity
  8
BLACK
  6
CONTINUOUS
100
AcDbLine
 10
5.1711845275590553
 20
-4.1395819291338585
 30
0
 11
5.1712598425196852
 21
-4.1395669291338582
 31
0
  0
LINE
  5
9A
330
1A
100
AcDbEntity
  8
BLACK
  6
CONTINUOUS
100
AcDbLine
 10
5.1712598425196852
 20
-4.1395669291338582
 30
0
 11
5.234251968503937
 21
-4.1395669291338582
 31
0
  0
LINE
  5
9B
330
1A
100
AcDbEntity
  8
BLACK
  6
CONTINUOUS
100
AcDbLine
 10
5.234251968503937
 20
-4.1395669291338582
 30
0
 11
5.2343272834645669
 21
-4.1395819291338585
 31
0
  0
LINE
  5
9C
330
1A
100
AcDbEntity
  8
BLACK
  6
CONTINUOUS
100
AcDbLine
 10
5.1714566929133854
 20
-4.1399606299212595
 30
0
 11
5.1714566929133854
 21
-4.20255905511811
 31
0
  0
LINE
  5
9D
330
1A
100
AcDbEntity
  8
BLACK
  6
CONTINUOUS
100
AcDbLine
 10
5.1714566929133854
 20
-4.20255905511811
 30
0
 11
5.2340551181102359
 21
-4.20255905511811
 31
0
  0
LINE
  5
9E
330
1A
100
AcDbEntity
  8
BLACK
  6
CONTINUOUS
100
AcDbLine
 10
5.2340551181102359
 20
-4.20255905511811
 30
0
 11
5.2340551181102359
 21
-4.1399606299212595
 31
0
  0
LINE
  5
9F
330
1A
100
AcDbEntity
  8
BLACK
  6
CONTINUOUS
100
AcDbLine
 10
5.2340551181102359
 20
-4.1399606299212595
 30
0
 11
5.1714566929133854
 21
-4.1399606299212595
 31
0
  0
LINE
  5
A0
330
1A
100
AcDbEntity
  8
BLACK
  6
CONTINUOUS
100
AcDbLine
 10
5.4193666535433067
 20
-4.1395819291338585
 30
0
 11
5.4194731889763776
 21
-4.1396884645669294
 31
0
  0
LINE
  5
A1
330
1A
100
AcDbEntity
  8
BLACK
  6
CONTINUOUS
100
AcDbLine
 10
5.4194731889763776
 20
-4.1396884645669294
 30
0
 11
5.419488188976378
 21
-4.1397637795275593
 31
0
  0
LINE
  5
A2
330
1A
100
AcDbEntity
  8
BLACK
  6
CONTINUOUS
100
AcDbLine
 10
5.419488188976378
 20
-4.1397637795275593
 30
0
 11
5.419488188976378
 21
-4.2027559055118111
 31
0
  0
LINE
  5
A3
330
1A
100
AcDbEntity
  8
BLACK
  6
CONTINUOUS
100
AcDbLine
 10
5.419488188976378
 20
-4.2027559055118111
 30
0
 11
5.4194731889763776
 21
-4.202831220472441
 31
0
  0
LINE
  5
A4
330
1A
100
AcDbEntity
  8
BLACK
  6
CONTINUOUS
100
AcDbLine
 10
5.4194731889763776
 20
-4.202831220472441
 30
0
 11
5.4193666535433067
 21
-4.2029377559055119
 31
0
  0
LINE
  5
A5
330
1A
100
AcDbEntity
  8
BLACK
  6
CONTINUOUS
100
AcDbLine
 10
5.4193666535433067
 20
-4.2029377559055119
 30
0
 11
5.4192913385826769
 21
-4.2029527559055113
 31
0
  0
LINE
  5
A6
330
1A
100
AcDbEntity
  8
BLACK
  6
CONTINUOUS
100
AcDbLine
 10
5.4192913385826769
 20
-4.2029527559055113
 30
0
 11
5.356299212598425
 21
-4.2029527559055113
 31
0
  0
LINE
  5
A7
330
1A
100
AcDbEntity
  8
BLACK
  6
CONTINUOUS
100
AcDbLine
 10
5.356299212598425
 20
-4.2029527559055113
 30
0
 11
5.3562238976377952
 21
-4.2029377559055119
 31
0
  0
LINE
  5
A8
330
1A
100
AcDbEntity
  8
BLACK
  6
CONTINUOUS
100
AcDbLine
 10
5.3562238976377952
 20
-4.2029377559055119
 30
0
 11
5.3561173622047242
 21
-4.202831220472441
 31
0
  0
LINE
  5
A9
330
1A
100
AcDbEntity
  8
BLACK
  6
CONTINUOUS
100
AcDbLine
 10
5.3561173622047242
 20
-4.202831220472441
 30
0
 11
5.3561023622047239
 21
-4.2027559055118111
 31
0
  0
LINE
  5
AA
330
1A
100
AcDbEntity
  8
BLACK
  6
CONTINUOUS
100
AcDbLine
 10
5.3561023622047239
 20
-4.2027559055118111
 30
0
 11
5.3561023622047239
 21
-4.1397637795275593
 31
0
  0
LINE
  5
AB
330
1A
100
AcDbEntity
  8
BLACK
  6
CONTINUOUS
100
AcDbLine
 10
5.3561023622047239
 20
-4.1397637795275593
 30
0
 11
5.3561173622047242
 21
-4.1396884645669294
 31
0
  0
LINE
  5
AC
330
1A
100
AcDbEntity
  8
BLACK
  6
CONTINUOUS
100
AcDbLine
 10
5.3561173622047242
 20
-4.1396884645669294
 30
0
 11
5.3562238976377952
 21
-4.1395819291338585
 31
0
  0
LINE
  5
AD
330
1A
100
AcDbEntity
  8
BLACK
  6
CONTINUOUS
100
AcDbLine
 10
5.3562238976377952
 20
-4.1395819291338585
 30
0
 11
5.356299212598425
 21
-4.1395669291338582
 31
0
  0
LINE
  5
AE
330
1A
100
AcDbEntity
  8
BLACK
  6
CONTINUOUS
100
AcDbLine
 10
5.356299212598425
 20
-4.1395669291338582
 30
0
 11
5.4192913385826769
 21
-4.1395669291338582
 31
0
  0
LINE
  5
AF
330
1A
100
AcDbEntity
  8
BLACK
  6
CONTINUOUS
100
AcDbLine
 10
5.4192913385826769
 20
-4.1395669291338582
 30
0
 11
5.4193666535433067
 21
-4.1395819291338585
 31
0
  0
LINE
  5
B0
330
1A
100
AcDbEntity
  8
BLACK
  6
CONTINUOUS
100
AcDbLine
 10
5.3564960629921261
 20
-4.1399606299212595
 30
0
 11
5.3564960629921261
 21
-4.20255905511811
 31
0
  0
LINE
  5
B1
330
1A
100
AcDbEntity
  8
BLACK
  6
CONTINUOUS
100
AcDbLine
 10
5.3564960629921261
 20
-4.20255905511811
 30
0
 11
5.4190944881889767
 21
-4.20255905511811
 31
0
  0
LINE
  5
B2
330
1A
100
AcDbEntity
  8
BLACK
  6
CONTINUOUS
100
AcDbLine
 10
5.4190944881889767
 20
-4.20255905511811
 30
0
 11
5.4190944881889767
 21
-4.1399606299212595
 31
0
  0
LINE
  5
B3
330
1A
100
AcDbEntity
  8
BLACK
  6
CONTINUOUS
100
AcDbLine
 10
5.4190944881889767
 20
-4.1399606299212595
 30
0
 11
5.3564960629921261
 21
-4.1399606299212595
 31
0
  0
LINE
  5
B4
330
1A
100
AcDbEntity
  8
BLACK
  6
CONTINUOUS
100
AcDbLine
 10
5.6044060236220474
 20
-4.1395819291338585
 30
0
 11
5.6045125590551184
 21
-4.1396884645669294
 31
0
  0
LINE
  5
B5
330
1A
100
AcDbEntity
  8
BLACK
  6
CONTINUOUS
100
AcDbLine
 10
5.6045125590551184
 20
-4.1396884645669294
 30
0
 11
5.6045275590551178
 21
-4.1397637795275593
 31
0
  0
LINE
  5
B6
330
1A
100
AcDbEntity
  8
BLACK
  6
CONTINUOUS
100
AcDbLine
 10
5.6045275590551178
 20
-4.1397637795275593
 30
0
 11
5.6045275590551178
 21
-4.2027559055118111
 31
0
  0
LINE
  5
B7
330
1A
100
AcDbEntity
  8
BLACK
  6
CONTINUOUS
100
AcDbLine
 10
5.6045275590551178
 20
-4.2027559055118111
 30
0
 11
5.6045125590551184
 21
-4.202831220472441
 31
0
  0
LINE
  5
B8
330
1A
100
AcDbEntity
  8
BLACK
  6
CONTINUOUS
100
AcDbLine
 10
5.6045125590551184
 20
-4.202831220472441
 30
0
 11
5.6044060236220474
 21
-4.2029377559055119
 31
0
  0
LINE
  5
B9
330
1A
100
AcDbEntity
  8
BLACK
  6
CONTINUOUS
100
AcDbLine
 10
5.6044060236220474
 20
-4.2029377559055119
 30
0
 11
5.6043307086614176
 21
-4.2029527559055113
 31
0
  0
LINE
  5
BA
330
1A
100
AcDbEntity
  8
BLACK
  6
CONTINUOUS
100
AcDbLine
 10
5.6043307086614176
 20
-4.2029527559055113
 30
0
 11
5.5413385826771648
 21
-4.2029527559055113
 31
0
  0
LINE
  5
BB
330
1A
100
AcDbEntity
  8
BLACK
  6
CONTINUOUS
100
AcDbLine
 10
5.5413385826771648
 20
-4.2029527559055113
 30
0
 11
5.541263267716535
 21
-4.2029377559055119
 31
0
  0
LINE
  5
BC
330
1A
100
AcDbEntity
  8
BLACK
  6
CONTINUOUS
100
AcDbLine
 10
5.541263267716535
 20
-4.2029377559055119
 30
0
 11
5.5411567322834641
 21
-4.202831220472441
 31
0
  0
LINE
  5
BD
330
1A
100
AcDbEntity
  8
BLACK
  6
CONTINUOUS
100
AcDbLine
 10
5.5411567322834641
 20
-4.202831220472441
 30
0
 11
5.5411417322834646
 21
-4.2027559055118111
 31
0
  0
LINE
  5
BE
330
1A
100
AcDbEntity
  8
BLACK
  6
CONTINUOUS
100
AcDbLine
 10
5.5411417322834646
 20
-4.2027559055118111
 30
0
 11
5.5411417322834646
 21
-4.1397637795275593
 31
0
  0
LINE
  5
BF
330
1A
100
AcDbEntity
  8
BLACK
  6
CONTINUOUS
100
AcDbLine
 10
5.5411417322834646
 20
-4.1397637795275593
 30
0
 11
5.5411567322834641
 21
-4.1396884645669294
 31
0
  0
LINE
  5
C0
330
1A
100
AcDbEntity
  8
BLACK
  6
CONTINUOUS
100
AcDbLine
 10
5.5411567322834641
 20
-4.1396884645669294
 30
0
 11
5.541263267716535
 21
-4.1395819291338585
 31
0
  0
LINE
  5
C1
330
1A
100
AcDbEntity
  8
BLACK
  6
CONTINUOUS
100
AcDbLine
 10
5.541263267716535
 20
-4.1395819291338585
 30
0
 11
5.5413385826771648
 21
-4.1395669291338582
 31
0
  0
LINE
  5
C2
330
1A
100
AcDbEntity
  8
BLACK
  6
CONTINUOUS
100
AcDbLine
 10
5.5413385826771648
 20
-4.1395669291338582
 30
0
 11
5.6043307086614176
 21
-4.1395669291338582
 31
0
  0
LINE
  5
C3
330
1A
100
AcDbEntity
  8
BLACK
  6
CONTINUOUS
100
AcDbLine
 10
5.6043307086614176
 20
-4.1395669291338582
 30
0
 11
5.6044060236220474
 21
-4.1395819291338585
 31
0
  0
LINE
  5
C4
330
1A
100
AcDbEntity
  8
BLACK
  6
CONTINUOUS
100
AcDbLine
 10
5.5415354330708659
 20
-4.1399606299212595
 30
0
 11
5.5415354330708659
 21
-4.20255905511811
 31
0
  0
LINE
  5
C5
330
1A
100
AcDbEntity
  8
BLACK
  6
CONTINUOUS
100
AcDbLine
 10
5.5415354330708659
 20
-4.20255905511811
 30
0
 11
5.6041338582677165
 21
-4.20255905511811
 31
0
  0
LINE
  5
C6
330
1A
100
AcDbEntity
  8
BLACK
  6
CONTINUOUS
100
AcDbLine
 10
5.6041338582677165
 20
-4.20255905511811
 30
0
 11
5.6041338582677165
 21
-4.1399606299212595
 31
0
  0
LINE
  5
C7
330
1A
100
AcDbEntity
  8
BLACK
  6
CONTINUOUS
100
AcDbLine
 10
5.6041338582677165
 20
-4.1399606299212595
 30
0
 11
5.5415354330708659
 21
-4.1399606299212595
 31
0
  0
LINE
  5
C8
330
1A
100
AcDbEntity
  8
BLACK
  6
CONTINUOUS
100
AcDbLine
 10
5.0492879133858271
 20
-3.9545425590551182
 30
0
 11
5.0493944488188971
 21
-3.9546490944881887
 31
0
  0
LINE
  5
C9
330
1A
100
AcDbEntity
  8
BLACK
  6
CONTINUOUS
100
AcDbLine
 10
5.0493944488188971
 20
-3.9546490944881887
 30
0
 11
5.0494094488188974
 21
-3.954724409448819
 31
0
  0
LINE
  5
CA
330
1A
100
AcDbEntity
  8
BLACK
  6
CONTINUOUS
100
AcDbLine
 10
5.0494094488188974
 20
-3.954724409448819
 30
0
 11
5.0494094488188974
 21
-4.0177165354330704
 31
0
  0
LINE
  5
CB
330
1A
100
AcDbEntity
  8
BLACK
  6
CONTINUOUS
100
AcDbLine
 10
5.0494094488188974
 20
-4.0177165354330704
 30
0
 11
5.0493944488188971
 21
-4.0177918503937011
 31
0
  0
LINE
  5
CC
330
1A
100
AcDbEntity
  8
BLACK
  6
CONTINUOUS
100
AcDbLine
 10
5.0493944488188971
 20
-4.0177918503937011
 30
0
 11
5.0492879133858271
 21
-4.0178983858267712
 31
0
  0
LINE
  5
CD
330
1A
100
AcDbEntity
  8
BLACK
  6
CONTINUOUS
100
AcDbLine
 10
5.0492879133858271
 20
-4.0178983858267712
 30
0
 11
5.0492125984251963
 21
-4.0179133858267715
 31
0
  0
LINE
  5
CE
330
1A
100
AcDbEntity
  8
BLACK
  6
CONTINUOUS
100
AcDbLine
 10
5.0492125984251963
 20
-4.0179133858267715
 30
0
 11
4.9862204724409445
 21
-4.0179133858267715
 31
0
  0
LINE
  5
CF
330
1A
100
AcDbEntity
  8
BLACK
  6
CONTINUOUS
100
AcDbLine
 10
4.9862204724409445
 20
-4.0179133858267715
 30
0
 11
4.9861451574803146
 21
-4.0178983858267712
 31
0
  0
LINE
  5
D0
330
1A
100
AcDbEntity
  8
BLACK
  6
CONTINUOUS
100
AcDbLine
 10
4.9861451574803146
 20
-4.0178983858267712
 30
0
 11
4.9860386220472437
 21
-4.0177918503937011
 31
0
  0
LINE
  5
D1
330
1A
100
AcDbEntity
  8
BLACK
  6
CONTINUOUS
100
AcDbLine
 10
4.9860386220472437
 20
-4.0177918503937011
 30
0
 11
4.9860236220472443
 21
-4.0177165354330704
 31
0
  0
LINE
  5
D2
330
1A
100
AcDbEntity
  8
BLACK
  6
CONTINUOUS
100
AcDbLine
 10
4.9860236220472443
 20
-4.0177165354330704
 30
0
 11
4.9860236220472443
 21
-3.954724409448819
 31
0
  0
LINE
  5
D3
330
1A
100
AcDbEntity
  8
BLACK
  6
CONTINUOUS
100
AcDbLine
 10
4.9860236220472443
 20
-3.954724409448819
 30
0
 11
4.9860386220472437
 21
-3.9546490944881887
 31
0
  0
LINE
  5
D4
330
1A
100
AcDbEntity
  8
BLACK
  6
CONTINUOUS
100
AcDbLine
 10
4.9860386220472437
 20
-3.9546490944881887
 30
0
 11
4.9861451574803146
 21
-3.9545425590551182
 31
0
  0
LINE
  5
D5
330
1A
100
AcDbEntity
  8
BLACK
  6
CONTINUOUS
100
AcDbLine
 10
4.9861451574803146
 20
-3.9545425590551182
 30
0
 11
4.9862204724409445
 21
-3.9545275590551179
 31
0
  0
LINE
  5
D6
330
1A
100
AcDbEntity
  8
BLACK
  6
CONTINUOUS
100
AcDbLine
 10
4.9862204724409445
 20
-3.9545275590551179
 30
0
 11
5.0492125984251963
 21
-3.9545275590551179
 31
0
  0
LINE
  5
D7
330
1A
100
AcDbEntity
  8
BLACK
  6
CONTINUOUS
100
AcDbLine
 10
5.0492125984251963
 20
-3.9545275590551179
 30
0
 11
5.0492879133858271
 21
-3.9545425590551182
 31
0
  0
LINE
  5
D8
330
1A
100
AcDbEntity
  8
BLACK
  6
CONTINUOUS
100
AcDbLine
 10
4.9864173228346456
 20
-3.9549212598425196
 30
0
 11
4.9864173228346456
 21
-4.0175196850393702
 31
0
  0
LINE
  5
D9
330
1A
100
AcDbEntity
  8
BLACK
  6
CONTINUOUS
100
AcDbLine
 10
4.9864173228346456
 20
-4.0175196850393702
 30
0
 11
5.0490157480314961
 21
-4.0175196850393702
 31
0
  0
LINE
  5
DA
330
1A
100
AcDbEntity
  8
BLACK
  6
CONTINUOUS
100
AcDbLine
 10
5.0490157480314961
 20
-4.0175196850393702
 30
0
 11
5.0490157480314961
 21
-3.9549212598425196
 31
0
  0
LINE
  5
DB
330
1A
100
AcDbEntity
  8
BLACK
  6
CONTINUOUS
100
AcDbLine
 10
5.0490157480314961
 20
-3.9549212598425196
 30
0
 11
4.9864173228346456
 21
-3.9549212598425196
 31
0
  0
LINE
  5
DC
330
1A
100
AcDbEntity
  8
BLACK
  6
CONTINUOUS
100
AcDbLine
 10
5.2343272834645669
 20
-3.9545425590551182
 30
0
 11
5.2344338188976378
 21
-3.9546490944881887
 31
0
  0
LINE
  5
DD
330
1A
100
AcDbEntity
  8
BLACK
  6
CONTINUOUS
100
AcDbLine
 10
5.2344338188976378
 20
-3.9546490944881887
 30
0
 11
5.2344488188976372
 21
-3.954724409448819
 31
0
  0
LINE
  5
DE
330
1A
100
AcDbEntity
  8
BLACK
  6
CONTINUOUS
100
AcDbLine
 10
5.2344488188976372
 20
-3.954724409448819
 30
0
 11
5.2344488188976372
 21
-4.0177165354330704
 31
0
  0
LINE
  5
DF
330
1A
100
AcDbEntity
  8
BLACK
  6
CONTINUOUS
100
AcDbLine
 10
5.2344488188976372
 20
-4.0177165354330704
 30
0
 11
5.2344338188976378
 21
-4.0177918503937011
 31
0
  0
LINE
  5
E0
330
1A
100
AcDbEntity
  8
BLACK
  6
CONTINUOUS
100
AcDbLine
 10
5.2344338188976378
 20
-4.0177918503937011
 30
0
 11
5.2343272834645669
 21
-4.0178983858267712
 31
0
  0
LINE
  5
E1
330
1A
100
AcDbEntity
  8
BLACK
  6
CONTINUOUS
100
AcDbLine
 10
5.2343272834645669
 20
-4.0178983858267712
 30
0
 11
5.234251968503937
 21
-4.0179133858267715
 31
0
  0
LINE
  5
E2
330
1A
100
AcDbEntity
  8
BLACK
  6
CONTINUOUS
100
AcDbLine
 10
5.234251968503937
 20
-4.0179133858267715
 30
0
 11
5.1712598425196852
 21
-4.0179133858267715
 31
0
  0
LINE
  5
E3
330
1A
100
AcDbEntity
  8
BLACK
  6
CONTINUOUS
100
AcDbLine
 10
5.1712598425196852
 20
-4.0179133858267715
 30
0
 11
5.1711845275590553
 21
-4.0178983858267712
 31
0
  0
LINE
  5
E4
330
1A
100
AcDbEntity
  8
BLACK
  6
CONTINUOUS
100
AcDbLine
 10
5.1711845275590553
 20
-4.0178983858267712
 30
0
 11
5.1710779921259844
 21
-4.0177918503937011
 31
0
  0
LINE
  5
E5
330
1A
100
AcDbEntity
  8
BLACK
  6
CONTINUOUS
100
AcDbLine
 10
5.1710779921259844
 20
-4.0177918503937011
 30
0
 11
5.1710629921259841
 21
-4.0177165354330704
 31
0
  0
LINE
  5
E6
330
1A
100
AcDbEntity
  8
BLACK
  6
CONTINUOUS
100
AcDbLine
 10
5.1710629921259841
 20
-4.0177165354330704
 30
0
 11
5.1710629921259841
 21
-3.954724409448819
 31
0
  0
LINE
  5
E7
330
1A
100
AcDbEntity
  8
BLACK
  6
CONTINUOUS
100
AcDbLine
 10
5.1710629921259841
 20
-3.954724409448819
 30
0
 11
5.1710779921259844
 21
-3.9546490944881887
 31
0
  0
LINE
  5
E8
330
1A
100
AcDbEntity
  8
BLACK
  6
CONTINUOUS
100
AcDbLine
 10
5.1710779921259844
 20
-3.9546490944881887
 30
0
 11
5.1711845275590553
 21
-3.9545425590551182
 31
0
  0
LINE
  5
E9
330
1A
100
AcDbEntity
  8
BLACK
  6
CONTINUOUS
100
AcDbLine
 10
5.1711845275590553
 20
-3.9545425590551182
 30
0
 11
5.1712598425196852
 21
-3.9545275590551179
 31
0
  0
LINE
  5
EA
330
1A
100
AcDbEntity
  8
BLACK
  6
CONTINUOUS
100
AcDbLine
 10
5.1712598425196852
 20
-3.9545275590551179
 30
0
 11
5.234251968503937
 21
-3.9545275590551179
 31
0
  0
LINE
  5
EB
330
1A
100
AcDbEntity
  8
BLACK
  6
CONTINUOUS
100
AcDbLine
 10
5.234251968503937
 20
-3.9545275590551179
 30
0
 11
5.2343272834645669
 21
-3.9545425590551182
 31
0
  0
LINE
  5
EC
330
1A
100
AcDbEntity
  8
BLACK
  6
CONTINUOUS
100
AcDbLine
 10
5.1714566929133854
 20
-3.9549212598425196
 30
0
 11
5.1714566929133854
 21
-4.0175196850393702
 31
0
  0
LINE
  5
ED
330
1A
100
AcDbEntity
  8
BLACK
  6
CONTINUOUS
100
AcDbLine
 10
5.1714566929133854
 20
-4.0175196850393702
 30
0
 11
5.2340551181102359
 21
-4.0175196850393702
 31
0
  0
LINE
  5
EE
330
1A
100
AcDbEntity
  8
BLACK
  6
CONTINUOUS
100
AcDbLine
 10
5.2340551181102359
 20
-4.0175196850393702
 30
0
 11
5.2340551181102359
 21
-3.9549212598425196
 31
0
  0
LINE
  5
EF
330
1A
100
AcDbEntity
  8
BLACK
  6
CONTINUOUS
100
AcDbLine
 10
5.2340551181102359
 20
-3.9549212598425196
 30
0
 11
5.1714566929133854
 21
-3.9549212598425196
 31
0
  0
LINE
  5
F0
330
1A
100
AcDbEntity
  8
BLACK
  6
CONTINUOUS
100
AcDbLine
 10
5.4193666535433067
 20
-3.9545425590551182
 30
0
 11
5.4194731889763776
 21
-3.9546490944881887
 31
0
  0
LINE
  5
F1
330
1A
100
AcDbEntity
  8
BLACK
  6
CONTINUOUS
100
AcDbLine
 10
5.4194731889763776
 20
-3.9546490944881887
 30
0
 11
5.419488188976378
 21
-3.954724409448819
 31
0
  0
LINE
  5
F2
330
1A
100
AcDbEntity
  8
BLACK
  6
CONTINUOUS
100
AcDbLine
 10
5.419488188976378
 20
-3.954724409448819
 30
0
 11
5.419488188976378
 21
-4.0177165354330704
 31
0
  0
LINE
  5
F3
330
1A
100
AcDbEntity
  8
BLACK
  6
CONTINUOUS
100
AcDbLine
 10
5.419488188976378
 20
-4.0177165354330704
 30
0
 11
5.4194731889763776
 21
-4.0177918503937011
 31
0
  0
LINE
  5
F4
330
1A
100
AcDbEntity
  8
BLACK
  6
CONTINUOUS
100
AcDbLine
 10
5.4194731889763776
 20
-4.0177918503937011
 30
0
 11
5.4193666535433067
 21
-4.0178983858267712
 31
0
  0
LINE
  5
F5
330
1A
100
AcDbEntity
  8
BLACK
  6
CONTINUOUS
100
AcDbLine
 10
5.4193666535433067
 20
-4.0178983858267712
 30
0
 11
5.4192913385826769
 21
-4.0179133858267715
 31
0
  0
LINE
  5
F6
330
1A
100
AcDbEntity
  8
BLACK
  6
CONTINUOUS
100
AcDbLine
 10
5.4192913385826769
 20
-4.0179133858267715
 30
0
 11
5.356299212598425
 21
-4.0179133858267715
 31
0
  0
LINE
  5
F7
330
1A
100
AcDbEntity
  8
BLACK
  6
CONTINUOUS
100
AcDbLine
 10
5.356299212598425
 20
-4.0179133858267715
 30
0
 11
5.3562238976377952
 21
-4.0178983858267712
 31
0
  0
LINE
  5
F8
330
1A
100
AcDbEntity
  8
BLACK
  6
CONTINUOUS
100
AcDbLine
 10
5.3562238976377952
 20
-4.0178983858267712
 30
0
 11
5.3561173622047242
 21
-4.0177918503937011
 31
0
  0
LINE
  5
F9
330
1A
100
AcDbEntity
  8
BLACK
  6
CONTINUOUS
100
AcDbLine
 10
5.3561173622047242
 20
-4.0177918503937011
 30
0
 11
5.3561023622047239
 21
-4.0177165354330704
 31
0
  0
LINE
  5
FA
330
1A
100
AcDbEntity
  8
BLACK
  6
CONTINUOUS
100
AcDbLine
 10
5.3561023622047239
 20
-4.0177165354330704
 30
0
 11
5.3561023622047239
 21
-3.954724409448819
 31
0
  0
LINE
  5
FB
330
1A
100
AcDbEntity
  8
BLACK
  6
CONTINUOUS
100
AcDbLine
 10
5.3561023622047239
 20
-3.954724409448819
 30
0
 11
5.3561173622047242
 21
-3.9546490944881887
 31
0
  0
LINE
  5
FC
330
1A
100
AcDbEntity
  8
BLACK
  6
CONTINUOUS
100
AcDbLine
 10
5.3561173622047242
 20
-3.9546490944881887
 30
0
 11
5.3562238976377952
 21
-3.9545425590551182
 31
0
  0
LINE
  5
FD
330
1A
100
AcDbEntity
  8
BLACK
  6
CONTINUOUS
100
AcDbLine
 10
5.3562238976377952
 20
-3.9545425590551182
 30
0
 11
5.356299212598425
 21
-3.9545275590551179
 31
0
  0
LINE
  5
FE
330
1A
100
AcDbEntity
  8
BLACK
  6
CONTINUOUS
100
AcDbLine
 10
5.356299212598425
 20
-3.9545275590551179
 30
0
 11
5.4192913385826769
 21
-3.9545275590551179
 31
0
  0
LINE
  5
FF
330
1A
100
AcDbEntity
  8
BLACK
  6
CONTINUOUS
100
AcDbLine
 10
5.4192913385826769
 20
-3.9545275590551179
 30
0
 11
5.4193666535433067
 21
-3.9545425590551182
 31
0
  0
LINE
  5
100
330
1A
100
AcDbEntity
  8
BLACK
  6
CONTINUOUS
100
AcDbLine
 10
5.3564960629921261
 20
-3.9549212598425196
 30
0
 11
5.3564960629921261
 21
-4.0175196850393702
 31
0
  0
LINE
  5
101
330
1A
100
AcDbEntity
  8
BLACK
  6
CONTINUOUS
100
AcDbLine
 10
5.3564960629921261
 20
-4.0175196850393702
 30
0
 11
5.4190944881889767
 21
-4.0175196850393702
 31
0
  0
LINE
  5
102
330
1A
100
AcDbEntity
  8
BLACK
  6
CONTINUOUS
100
AcDbLine
 10
5.4190944881889767
 20
-4.0175196850393702
 30
0
 11
5.4190944881889767
 21
-3.9549212598425196
 31
0
  0
LINE
  5
103
330
1A
100
AcDbEntity
  8
BLACK
  6
CONTINUOUS
100
AcDbLine
 10
5.4190944881889767
 20
-3.9549212598425196
 30
0
 11
5.3564960629921261
 21
-3.9549212598425196
 31
0
  0
LINE
  5
104
330
1A
100
AcDbEntity
  8
BLACK
  6
CONTINUOUS
100
AcDbLine
 10
5.6044060236220474
 20
-3.9545425590551182
 30
0
 11
5.6045125590551184
 21
-3.9546490944881887
 31
0
  0
LINE
  5
105
330
1A
100
AcDbEntity
  8
BLACK
  6
CONTINUOUS
100
AcDbLine
 10
5.6045125590551184
 20
-3.9546490944881887
 30
0
 11
5.6045275590551178
 21
-3.954724409448819
 31
0
  0
LINE
  5
106
330
1A
100
AcDbEntity
  8
BLACK
  6
CONTINUOUS
100
AcDbLine
 10
5.6045275590551178
 20
-3.954724409448819
 30
0
 11
5.6045275590551178
 21
-4.0177165354330704
 31
0
  0
LINE
  5
107
330
1A
100
AcDbEntity
  8
BLACK
  6
CONTINUOUS
100
AcDbLine
 10
5.6045275590551178
 20
-4.0177165354330704
 30
0
 11
5.6045125590551184
 21
-4.0177918503937011
 31
0
  0
LINE
  5
108
330
1A
100
AcDbEntity
  8
BLACK
  6
CONTINUOUS
100
AcDbLine
 10
5.6045125590551184
 20
-4.0177918503937011
 30
0
 11
5.6044060236220474
 21
-4.0178983858267712
 31
0
  0
LINE
  5
109
330
1A
100
AcDbEntity
  8
BLACK
  6
CONTINUOUS
100
AcDbLine
 10
5.6044060236220474
 20
-4.0178983858267712
 30
0
 11
5.6043307086614176
 21
-4.0179133858267715
 31
0
  0
LINE
  5
10A
330
1A
100
AcDbEntity
  8
BLACK
  6
CONTINUOUS
100
AcDbLine
 10
5.6043307086614176
 20
-4.0179133858267715
 30
0
 11
5.5413385826771648
 21
-4.0179133858267715
 31
0
  0
LINE
  5
10B
330
1A
100
AcDbEntity
  8
BLACK
  6
CONTINUOUS
100
AcDbLine
 10
5.5413385826771648
 20
-4.0179133858267715
 30
0
 11
5.541263267716535
 21
-4.0178983858267712
 31
0
  0
LINE
  5
10C
330
1A
100
AcDbEntity
  8
BLACK
  6
CONTINUOUS
100
AcDbLine
 10
5.541263267716535
 20
-4.0178983858267712
 30
0
 11
5.5411567322834641
 21
-4.0177918503937011
 31
0
  0
LINE
  5
10D
330
1A
100
AcDbEntity
  8
BLACK
  6
CONTINUOUS
100
AcDbLine
 10
5.5411567322834641
 20
-4.0177918503937011
 30
0
 11
5.5411417322834646
 21
-4.0177165354330704
 31
0
  0
LINE
  5
10E
330
1A
100
AcDbEntity
  8
BLACK
  6
CONTINUOUS
100
AcDbLine
 10
5.5411417322834646
 20
-4.0177165354330704
 30
0
 11
5.5411417322834646
 21
-3.954724409448819
 31
0
  0
LINE
  5
10F
330
1A
100
AcDbEntity
  8
BLACK
  6
CONTINUOUS
100
AcDbLine
 10
5.5411417322834646
 20
-3.954724409448819
 30
0
 11
5.5411567322834641
 21
-3.9546490944881887
 31
0
  0
LINE
  5
110
330
1A
100
AcDbEntity
  8
BLACK
  6
CONTINUOUS
100
AcDbLine
 10
5.5411567322834641
 20
-3.9546490944881887
 30
0
 11
5.541263267716535
 21
-3.9545425590551182
 31
0
  0
LINE
  5
111
330
1A
100
AcDbEntity
  8
BLACK
  6
CONTINUOUS
100
AcDbLine
 10
5.541263267716535
 20
-3.9545425590551182
 30
0
 11
5.5413385826771648
 21
-3.9545275590551179
 31
0
  0
LINE
  5
112
330
1A
100
AcDbEntity
  8
BLACK
  6
CONTINUOUS
100
AcDbLine
 10
5.5413385826771648
 20
-3.9545275590551179
 30
0
 11
5.6043307086614176
 21
-3.9545275590551179
 31
0
  0
LINE
  5
113
330
1A
100
AcDbEntity
  8
BLACK
  6
CONTINUOUS
100
AcDbLine
 10
5.6043307086614176
 20
-3.9545275590551179
 30
0
 11
5.6044060236220474
 21
-3.9545425590551182
 31
0
  0
LINE
  5
114
330
1A
100
AcDbEntity
  8
BLACK
  6
CONTINUOUS
100
AcDbLine
 10
5.5415354330708659
 20
-3.9549212598425196
 30
0
 11
5.5415354330708659
 21
-4.0175196850393702
 31
0
  0
LINE
  5
115
330
1A
100
AcDbEntity
  8
BLACK
  6
CONTINUOUS
100
AcDbLine
 10
5.5415354330708659
 20
-4.0175196850393702
 30
0
 11
5.6041338582677165
 21
-4.0175196850393702
 31
0
  0
LINE
  5
116
330
1A
100
AcDbEntity
  8
BLACK
  6
CONTINUOUS
100
AcDbLine
 10
5.6041338582677165
 20
-4.0175196850393702
 30
0
 11
5.6041338582677165
 21
-3.9549212598425196
 31
0
  0
LINE
  5
117
330
1A
100
AcDbEntity
  8
BLACK
  6
CONTINUOUS
100
AcDbLine
 10
5.6041338582677165
 20
-3.9549212598425196
 30
0
 11
5.5415354330708659
 21
-3.9549212598425196
 31
0
  0
LINE
  5
118
330
1A
100
AcDbEntity
  8
BLACK
  6
CONTINUOUS
100
AcDbLine
 10
5.0492879133858271
 20
-3.7695031889763779
 30
0
 11
5.0493944488188971
 21
-3.7696097244094489
 31
0
  0
LINE
  5
119
330
1A
100
AcDbEntity
  8
BLACK
  6
CONTINUOUS
100
AcDbLine
 10
5.0493944488188971
 20
-3.7696097244094489
 30
0
 11
5.0494094488188974
 21
-3.7696850393700787
 31
0
  0
LINE
  5
11A
330
1A
100
AcDbEntity
  8
BLACK
  6
CONTINUOUS
100
AcDbLine
 10
5.0494094488188974
 20
-3.7696850393700787
 30
0
 11
5.0494094488188974
 21
-3.8326771653543306
 31
0
  0
LINE
  5
11B
330
1A
100
AcDbEntity
  8
BLACK
  6
CONTINUOUS
100
AcDbLine
 10
5.0494094488188974
 20
-3.8326771653543306
 30
0
 11
5.0493944488188971
 21
-3.8327524803149604
 31
0
  0
LINE
  5
11C
330
1A
100
AcDbEntity
  8
BLACK
  6
CONTINUOUS
100
AcDbLine
 10
5.0493944488188971
 20
-3.8327524803149604
 30
0
 11
5.0492879133858271
 21
-3.8328590157480313
 31
0
  0
LINE
  5
11D
330
1A
100
AcDbEntity
  8
BLACK
  6
CONTINUOUS
100
AcDbLine
 10
5.0492879133858271
 20
-3.8328590157480313
 30
0
 11
5.0492125984251963
 21
-3.8328740157480312
 31
0
  0
LINE
  5
11E
330
1A
100
AcDbEntity
  8
BLACK
  6
CONTINUOUS
100
AcDbLine
 10
5.0492125984251963
 20
-3.8328740157480312
 30
0
 11
4.9862204724409445
 21
-3.8328740157480312
 31
0
  0
LINE
  5
11F
330
1A
100
AcDbEntity
  8
BLACK
  6
CONTINUOUS
100
AcDbLine
 10
4.9862204724409445
 20
-3.8328740157480312
 30
0
 11
4.9861451574803146
 21
-3.8328590157480313
 31
0
  0
LINE
  5
120
330
1A
100
AcDbEntity
  8
BLACK
  6
CONTINUOUS
100
AcDbLine
 10
4.9861451574803146
 20
-3.8328590157480313
 30
0
 11
4.9860386220472437
 21
-3.8327524803149604
 31
0
  0
LINE
  5
121
330
1A
100
AcDbEntity
  8
BLACK
  6
CONTINUOUS
100
AcDbLine
 10
4.9860386220472437
 20
-3.8327524803149604
 30
0
 11
4.9860236220472443
 21
-3.8326771653543306
 31
0
  0
LINE
  5
122
330
1A
100
AcDbEntity
  8
BLACK
  6
CONTINUOUS
100
AcDbLine
 10
4.9860236220472443
 20
-3.8326771653543306
 30
0
 11
4.9860236220472443
 21
-3.7696850393700787
 31
0
  0
LINE
  5
123
330
1A
100
AcDbEntity
  8
BLACK
  6
CONTINUOUS
100
AcDbLine
 10
4.9860236220472443
 20
-3.7696850393700787
 30
0
 11
4.9860386220472437
 21
-3.7696097244094489
 31
0
  0
LINE
  5
124
330
1A
100
AcDbEntity
  8
BLACK
  6
CONTINUOUS
100
AcDbLine
 10
4.9860386220472437
 20
-3.7696097244094489
 30
0
 11
4.9861451574803146
 21
-3.7695031889763779
 31
0
  0
LINE
  5
125
330
1A
100
AcDbEntity
  8
BLACK
  6
CONTINUOUS
100
AcDbLine
 10
4.9861451574803146
 20
-3.7695031889763779
 30
0
 11
4.9862204724409445
 21
-3.7694881889763781
 31
0
  0
LINE
  5
126
330
1A
100
AcDbEntity
  8
BLACK
  6
CONTINUOUS
100
AcDbLine
 10
4.9862204724409445
 20
-3.7694881889763781
 30
0
 11
5.0492125984251963
 21
-3.7694881889763781
 31
0
  0
LINE
  5
127
330
1A
100
AcDbEntity
  8
BLACK
  6
CONTINUOUS
100
AcDbLine
 10
5.0492125984251963
 20
-3.7694881889763781
 30
0
 11
5.0492879133858271
 21
-3.7695031889763779
 31
0
  0
LINE
  5
128
330
1A
100
AcDbEntity
  8
BLACK
  6
CONTINUOUS
100
AcDbLine
 10
4.9864173228346456
 20
-3.7698818897637794
 30
0
 11
4.9864173228346456
 21
-3.8324803149606299
 31
0
  0
LINE
  5
129
330
1A
100
AcDbEntity
  8
BLACK
  6
CONTINUOUS
100
AcDbLine
 10
4.9864173228346456
 20
-3.8324803149606299
 30
0
 11
5.0490157480314961
 21
-3.8324803149606299
 31
0
  0
LINE
  5
12A
330
1A
100
AcDbEntity
  8
BLACK
  6
CONTINUOUS
100
AcDbLine
 10
5.0490157480314961
 20
-3.8324803149606299
 30
0
 11
5.0490157480314961
 21
-3.7698818897637794
 31
0
  0
LINE
  5
12B
330
1A
100
AcDbEntity
  8
BLACK
  6
CONTINUOUS
100
AcDbLine
 10
5.0490157480314961
 20
-3.7698818897637794
 30
0
 11
4.9864173228346456
 21
-3.7698818897637794
 31
0
  0
LINE
  5
12C
330
1A
100
AcDbEntity
  8
BLACK
  6
CONTINUOUS
100
AcDbLine
 10
5.2343272834645669
 20
-3.7695031889763779
 30
0
 11
5.2344338188976378
 21
-3.7696097244094489
 31
0
  0
LINE
  5
12D
330
1A
100
AcDbEntity
  8
BLACK
  6
CONTINUOUS
100
AcDbLine
 10
5.2344338188976378
 20
-3.7696097244094489
 30
0
 11
5.2344488188976372
 21
-3.7696850393700787
 31
0
  0
LINE
  5
12E
330
1A
100
AcDbEntity
  8
BLACK
  6
CONTINUOUS
100
AcDbLine
 10
5.2344488188976372
 20
-3.7696850393700787
 30
0
 11
5.2344488188976372
 21
-3.8326771653543306
 31
0
  0
LINE
  5
12F
330
1A
100
AcDbEntity
  8
BLACK
  6
CONTINUOUS
100
AcDbLine
 10
5.2344488188976372
 20
-3.8326771653543306
 30
0
 11
5.2344338188976378
 21
-3.8327524803149604
 31
0
  0
LINE
  5
130
330
1A
100
AcDbEntity
  8
BLACK
  6
CONTINUOUS
100
AcDbLine
 10
5.2344338188976378
 20
-3.8327524803149604
 30
0
 11
5.2343272834645669
 21
-3.8328590157480313
 31
0
  0
LINE
  5
131
330
1A
100
AcDbEntity
  8
BLACK
  6
CONTINUOUS
100
AcDbLine
 10
5.2343272834645669
 20
-3.8328590157480313
 30
0
 11
5.234251968503937
 21
-3.8328740157480312
 31
0
  0
LINE
  5
132
330
1A
100
AcDbEntity
  8
BLACK
  6
CONTINUOUS
100
AcDbLine
 10
5.234251968503937
 20
-3.8328740157480312
 30
0
 11
5.1712598425196852
 21
-3.8328740157480312
 31
0
  0
LINE
  5
133
330
1A
100
AcDbEntity
  8
BLACK
  6
CONTINUOUS
100
AcDbLine
 10
5.1712598425196852
 20
-3.8328740157480312
 30
0
 11
5.1711845275590553
 21
-3.8328590157480313
 31
0
  0
LINE
  5
134
330
1A
100
AcDbEntity
  8
BLACK
  6
CONTINUOUS
100
AcDbLine
 10
5.1711845275590553
 20
-3.8328590157480313
 30
0
 11
5.1710779921259844
 21
-3.8327524803149604
 31
0
  0
LINE
  5
135
330
1A
100
AcDbEntity
  8
BLACK
  6
CONTINUOUS
100
AcDbLine
 10
5.1710779921259844
 20
-3.8327524803149604
 30
0
 11
5.1710629921259841
 21
-3.8326771653543306
 31
0
  0
LINE
  5
136
330
1A
100
AcDbEntity
  8
BLACK
  6
CONTINUOUS
100
AcDbLine
 10
5.1710629921259841
 20
-3.8326771653543306
 30
0
 11
5.1710629921259841
 21
-3.7696850393700787
 31
0
  0
LINE
  5
137
330
1A
100
AcDbEntity
  8
BLACK
  6
CONTINUOUS
100
AcDbLine
 10
5.1710629921259841
 20
-3.7696850393700787
 30
0
 11
5.1710779921259844
 21
-3.7696097244094489
 31
0
  0
LINE
  5
138
330
1A
100
AcDbEntity
  8
BLACK
  6
CONTINUOUS
100
AcDbLine
 10
5.1710779921259844
 20
-3.7696097244094489
 30
0
 11
5.1711845275590553
 21
-3.7695031889763779
 31
0
  0
LINE
  5
139
330
1A
100
AcDbEntity
  8
BLACK
  6
CONTINUOUS
100
AcDbLine
 10
5.1711845275590553
 20
-3.7695031889763779
 30
0
 11
5.1712598425196852
 21
-3.7694881889763781
 31
0
  0
LINE
  5
13A
330
1A
100
AcDbEntity
  8
BLACK
  6
CONTINUOUS
100
AcDbLine
 10
5.1712598425196852
 20
-3.7694881889763781
 30
0
 11
5.234251968503937
 21
-3.7694881889763781
 31
0
  0
LINE
  5
13B
330
1A
100
AcDbEntity
  8
BLACK
  6
CONTINUOUS
100
AcDbLine
 10
5.234251968503937
 20
-3.7694881889763781
 30
0
 11
5.2343272834645669
 21
-3.7695031889763779
 31
0
  0
LINE
  5
13C
330
1A
100
AcDbEntity
  8
BLACK
  6
CONTINUOUS
100
AcDbLine
 10
5.1714566929133854
 20
-3.7698818897637794
 30
0
 11
5.1714566929133854
 21
-3.8324803149606299
 31
0
  0
LINE
  5
13D
330
1A
100
AcDbEntity
  8
BLACK
  6
CONTINUOUS
100
AcDbLine
 10
5.1714566929133854
 20
-3.8324803149606299
 30
0
 11
5.2340551181102359
 21
-3.8324803149606299
 31
0
  0
LINE
  5
13E
330
1A
100
AcDbEntity
  8
BLACK
  6
CONTINUOUS
100
AcDbLine
 10
5.2340551181102359
 20
-3.8324803149606299
 30
0
 11
5.2340551181102359
 21
-3.7698818897637794
 31
0
  0
LINE
  5
13F
330
1A
100
AcDbEntity
  8
BLACK
  6
CONTINUOUS
100
AcDbLine
 10
5.2340551181102359
 20
-3.7698818897637794
 30
0
 11
5.1714566929133854
 21
-3.7698818897637794
 31
0
  0
LINE
  5
140
330
1A
100
AcDbEntity
  8
BLACK
  6
CONTINUOUS
100
AcDbLine
 10
5.4193666535433067
 20
-3.7695031889763779
 30
0
 11
5.4194731889763776
 21
-3.7696097244094489
 31
0
  0
LINE
  5
141
330
1A
100
AcDbEntity
  8
BLACK
  6
CONTINUOUS
100
AcDbLine
 10
5.4194731889763776
 20
-3.7696097244094489
 30
0
 11
5.419488188976378
 21
-3.7696850393700787
 31
0
  0
LINE
  5
142
330
1A
100
AcDbEntity
  8
BLACK
  6
CONTINUOUS
100
AcDbLine
 10
5.419488188976378
 20
-3.7696850393700787
 30
0
 11
5.419488188976378
 21
-3.8326771653543306
 31
0
  0
LINE
  5
143
330
1A
100
AcDbEntity
  8
BLACK
  6
CONTINUOUS
100
AcDbLine
 10
5.419488188976378
 20
-3.8326771653543306
 30
0
 11
5.4194731889763776
 21
-3.8327524803149604
 31
0
  0
LINE
  5
144
330
1A
100
AcDbEntity
  8
BLACK
  6
CONTINUOUS
100
AcDbLine
 10
5.4194731889763776
 20
-3.8327524803149604
 30
0
 11
5.4193666535433067
 21
-3.8328590157480313
 31
0
  0
LINE
  5
145
330
1A
100
AcDbEntity
  8
BLACK
  6
CONTINUOUS
100
AcDbLine
 10
5.4193666535433067
 20
-3.8328590157480313
 30
0
 11
5.4192913385826769
 21
-3.8328740157480312
 31
0
  0
LINE
  5
146
330
1A
100
AcDbEntity
  8
BLACK
  6
CONTINUOUS
100
AcDbLine
 10
5.4192913385826769
 20
-3.8328740157480312
 30
0
 11
5.356299212598425
 21
-3.8328740157480312
 31
0
  0
LINE
  5
147
330
1A
100
AcDbEntity
  8
BLACK
  6
CONTINUOUS
100
AcDbLine
 10
5.356299212598425
 20
-3.8328740157480312
 30
0
 11
5.3562238976377952
 21
-3.8328590157480313
 31
0
  0
LINE
  5
148
330
1A
100
AcDbEntity
  8
BLACK
  6
CONTINUOUS
100
AcDbLine
 10
5.3562238976377952
 20
-3.8328590157480313
 30
0
 11
5.3561173622047242
 21
-3.8327524803149604
 31
0
  0
LINE
  5
149
330
1A
100
AcDbEntity
  8
BLACK
  6
CONTINUOUS
100
AcDbLine
 10
5.3561173622047242
 20
-3.8327524803149604
 30
0
 11
5.3561023622047239
 21
-3.8326771653543306
 31
0
  0
LINE
  5
14A
330
1A
100
AcDbEntity
  8
BLACK
  6
CONTINUOUS
100
AcDbLine
 10
5.3561023622047239
 20
-3.8326771653543306
 30
0
 11
5.3561023622047239
 21
-3.7696850393700787
 31
0
  0
LINE
  5
14B
330
1A
100
AcDbEntity
  8
BLACK
  6
CONTINUOUS
100
AcDbLine
 10
5.3561023622047239
 20
-3.7696850393700787
 30
0
 11
5.3561173622047242
 21
-3.7696097244094489
 31
0
  0
LINE
  5
14C
330
1A
100
AcDbEntity
  8
BLACK
  6
CONTINUOUS
100
AcDbLine
 10
5.3561173622047242
 20
-3.7696097244094489
 30
0
 11
5.3562238976377952
 21
-3.7695031889763779
 31
0
  0
LINE
  5
14D
330
1A
100
AcDbEntity
  8
BLACK
  6
CONTINUOUS
100
AcDbLine
 10
5.3562238976377952
 20
-3.7695031889763779
 30
0
 11
5.356299212598425
 21
-3.7694881889763781
 31
0
  0
LINE
  5
14E
330
1A
100
AcDbEntity
  8
BLACK
  6
CONTINUOUS
100
AcDbLine
 10
5.356299212598425
 20
-3.7694881889763781
 30
0
 11
5.4192913385826769
 21
-3.7694881889763781
 31
0
  0
LINE
  5
14F
330
1A
100
AcDbEntity
  8
BLACK
  6
CONTINUOUS
100
AcDbLine
 10
5.4192913385826769
 20
-3.7694881889763781
 30
0
 11
5.4193666535433067
 21
-3.7695031889763779
 31
0
  0
LINE
  5
150
330
1A
100
AcDbEntity
  8
BLACK
  6
CONTINUOUS
100
AcDbLine
 10
5.3564960629921261
 20
-3.7698818897637794
 30
0
 11
5.3564960629921261
 21
-3.8324803149606299
 31
0
  0
LINE
  5
151
330
1A
100
AcDbEntity
  8
BLACK
  6
CONTINUOUS
100
AcDbLine
 10
5.3564960629921261
 20
-3.8324803149606299
 30
0
 11
5.4190944881889767
 21
-3.8324803149606299
 31
0
  0
LINE
  5
152
330
1A
100
AcDbEntity
  8
BLACK
  6
CONTINUOUS
100
AcDbLine
 10
5.4190944881889767
 20
-3.8324803149606299
 30
0
 11
5.4190944881889767
 21
-3.7698818897637794
 31
0
  0
LINE
  5
153
330
1A
100
AcDbEntity
  8
BLACK
  6
CONTINUOUS
100
AcDbLine
 10
5.4190944881889767
 20
-3.7698818897637794
 30
0
 11
5.3564960629921261
 21
-3.7698818897637794
 31
0
  0
LINE
  5
154
330
1A
100
AcDbEntity
  8
BLACK
  6
CONTINUOUS
100
AcDbLine
 10
5.6044060236220474
 20
-3.7695031889763779
 30
0
 11
5.6045125590551184
 21
-3.7696097244094489
 31
0
  0
LINE
  5
155
330
1A
100
AcDbEntity
  8
BLACK
  6
CONTINUOUS
100
AcDbLine
 10
5.6045125590551184
 20
-3.7696097244094489
 30
0
 11
5.6045275590551178
 21
-3.7696850393700787
 31
0
  0
LINE
  5
156
330
1A
100
AcDbEntity
  8
BLACK
  6
CONTINUOUS
100
AcDbLine
 10
5.6045275590551178
 20
-3.7696850393700787
 30
0
 11
5.6045275590551178
 21
-3.8326771653543306
 31
0
  0
LINE
  5
157
330
1A
100
AcDbEntity
  8
BLACK
  6
CONTINUOUS
100
AcDbLine
 10
5.6045275590551178
 20
-3.8326771653543306
 30
0
 11
5.6045125590551184
 21
-3.8327524803149604
 31
0
  0
LINE
  5
158
330
1A
100
AcDbEntity
  8
BLACK
  6
CONTINUOUS
100
AcDbLine
 10
5.6045125590551184
 20
-3.8327524803149604
 30
0
 11
5.6044060236220474
 21
-3.8328590157480313
 31
0
  0
LINE
  5
159
330
1A
100
AcDbEntity
  8
BLACK
  6
CONTINUOUS
100
AcDbLine
 10
5.6044060236220474
 20
-3.8328590157480313
 30
0
 11
5.6043307086614176
 21
-3.8328740157480312
 31
0
  0
LINE
  5
15A
330
1A
100
AcDbEntity
  8
BLACK
  6
CONTINUOUS
100
AcDbLine
 10
5.6043307086614176
 20
-3.8328740157480312
 30
0
 11
5.5413385826771648
 21
-3.8328740157480312
 31
0
  0
LINE
  5
15B
330
1A
100
AcDbEntity
  8
BLACK
  6
CONTINUOUS
100
AcDbLine
 10
5.5413385826771648
 20
-3.8328740157480312
 30
0
 11
5.541263267716535
 21
-3.8328590157480313
 31
0
  0
LINE
  5
15C
330
1A
100
AcDbEntity
  8
BLACK
  6
CONTINUOUS
100
AcDbLine
 10
5.541263267716535
 20
-3.8328590157480313
 30
0
 11
5.5411567322834641
 21
-3.8327524803149604
 31
0
  0
LINE
  5
15D
330
1A
100
AcDbEntity
  8
BLACK
  6
CONTINUOUS
100
AcDbLine
 10
5.5411567322834641
 20
-3.8327524803149604
 30
0
 11
5.5411417322834646
 21
-3.8326771653543306
 31
0
  0
LINE
  5
15E
330
1A
100
AcDbEntity
  8
BLACK
  6
CONTINUOUS
100
AcDbLine
 10
5.5411417322834646
 20
-3.8326771653543306
 30
0
 11
5.5411417322834646
 21
-3.7696850393700787
 31
0
  0
LINE
  5
15F
330
1A
100
AcDbEntity
  8
BLACK
  6
CONTINUOUS
100
AcDbLine
 10
5.5411417322834646
 20
-3.7696850393700787
 30
0
 11
5.5411567322834641
 21
-3.7696097244094489
 31
0
  0
LINE
  5
160
330
1A
100
AcDbEntity
  8
BLACK
  6
CONTINUOUS
100
AcDbLine
 10
5.5411567322834641
 20
-3.7696097244094489
 30
0
 11
5.541263267716535
 21
-3.7695031889763779
 31
0
  0
LINE
  5
161
330
1A
100
AcDbEntity
  8
BLACK
  6
CONTINUOUS
100
AcDbLine
 10
5.541263267716535
 20
-3.7695031889763779
 30
0
 11
5.5413385826771648
 21
-3.7694881889763781
 31
0
  0
LINE
  5
162
330
1A
100
AcDbEntity
  8
BLACK
  6
CONTINUOUS
100
AcDbLine
 10
5.5413385826771648
 20
-3.7694881889763781
 30
0
 11
5.6043307086614176
 21
-3.7694881889763781
 31
0
  0
LINE
  5
163
330
1A
100
AcDbEntity
  8
BLACK
  6
CONTINUOUS
100
AcDbLine
 10
5.6043307086614176
 20
-3.7694881889763781
 30
0
 11
5.6044060236220474
 21
-3.7695031889763779
 31
0
  0
LINE
  5
164
330
1A
100
AcDbEntity
  8
BLACK
  6
CONTINUOUS
100
AcDbLine
 10
5.5415354330708659
 20
-3.7698818897637794
 30
0
 11
5.5415354330708659
 21
-3.8324803149606299
 31
0
  0
LINE
  5
165
330
1A
100
AcDbEntity
  8
BLACK
  6
CONTINUOUS
100
AcDbLine
 10
5.5415354330708659
 20
-3.8324803149606299
 30
0
 11
5.6041338582677165
 21
-3.8324803149606299
 31
0
  0
LINE
  5
166
330
1A
100
AcDbEntity
  8
BLACK
  6
CONTINUOUS
100
AcDbLine
 10
5.6041338582677165
 20
-3.8324803149606299
 30
0
 11
5.6041338582677165
 21
-3.7698818897637794
 31
0
  0
LINE
  5
167
330
1A
100
AcDbEntity
  8
BLACK
  6
CONTINUOUS
100
AcDbLine
 10
5.6041338582677165
 20
-3.7698818897637794
 30
0
 11
5.5415354330708659
 21
-3.7698818897637794
 31
0
  0
LINE
  5
168
330
1A
100
AcDbEntity
  8
BLACK
  6
CONTINUOUS
100
AcDbLine
 10
5.5224238976377951
 20
-3.5880670472440945
 30
0
 11
5.5229565748031497
 21
-3.5885997244094487
 31
0
  0
LINE
  5
169
330
1A
100
AcDbEntity
  8
BLACK
  6
CONTINUOUS
100
AcDbLine
 10
5.5229565748031497
 20
-3.5885997244094487
 30
0
 11
5.523031496062992
 21
-3.5889763779527559
 31
0
  0
LINE
  5
16A
330
1A
100
AcDbEntity
  8
BLACK
  6
CONTINUOUS
100
AcDbLine
 10
5.523031496062992
 20
-3.5889763779527559
 30
0
 11
5.523031496062992
 21
-3.7346456692913383
 31
0
  0
LINE
  5
16B
330
1A
100
AcDbEntity
  8
BLACK
  6
CONTINUOUS
100
AcDbLine
 10
5.523031496062992
 20
-3.7346456692913383
 30
0
 11
5.5229565748031497
 21
-3.7350223228346455
 31
0
  0
LINE
  5
16C
330
1A
100
AcDbEntity
  8
BLACK
  6
CONTINUOUS
100
AcDbLine
 10
5.5229565748031497
 20
-3.7350223228346455
 30
0
 11
5.5224238976377951
 21
-3.7355549999999997
 31
0
  0
LINE
  5
16D
330
1A
100
AcDbEntity
  8
BLACK
  6
CONTINUOUS
100
AcDbLine
 10
5.5224238976377951
 20
-3.7355549999999997
 30
0
 11
5.5220472440944883
 21
-3.7356299212598425
 31
0
  0
LINE
  5
16E
330
1A
100
AcDbEntity
  8
BLACK
  6
CONTINUOUS
100
AcDbLine
 10
5.5220472440944883
 20
-3.7356299212598425
 30
0
 11
5.0692913385826772
 21
-3.7356299212598425
 31
0
  0
LINE
  5
16F
330
1A
100
AcDbEntity
  8
BLACK
  6
CONTINUOUS
100
AcDbLine
 10
5.0692913385826772
 20
-3.7356299212598425
 30
0
 11
5.0689146850393696
 21
-3.7355549999999997
 31
0
  0
LINE
  5
170
330
1A
100
AcDbEntity
  8
BLACK
  6
CONTINUOUS
100
AcDbLine
 10
5.0689146850393696
 20
-3.7355549999999997
 30
0
 11
5.0683820078740158
 21
-3.7350223228346455
 31
0
  0
LINE
  5
171
330
1A
100
AcDbEntity
  8
BLACK
  6
CONTINUOUS
100
AcDbLine
 10
5.0683820078740158
 20
-3.7350223228346455
 30
0
 11
5.0683070866141735
 21
-3.7346456692913383
 31
0
  0
LINE
  5
172
330
1A
100
AcDbEntity
  8
BLACK
  6
CONTINUOUS
100
AcDbLine
 10
5.0683070866141735
 20
-3.7346456692913383
 30
0
 11
5.0683070866141735
 21
-3.5889763779527559
 31
0
  0
LINE
  5
173
330
1A
100
AcDbEntity
  8
BLACK
  6
CONTINUOUS
100
AcDbLine
 10
5.0683070866141735
 20
-3.5889763779527559
 30
0
 11
5.0683820078740158
 21
-3.5885997244094487
 31
0
  0
LINE
  5
174
330
1A
100
AcDbEntity
  8
BLACK
  6
CONTINUOUS
100
AcDbLine
 10
5.0683820078740158
 20
-3.5885997244094487
 30
0
 11
5.0689146850393696
 21
-3.5880670472440945
 31
0
  0
LINE
  5
175
330
1A
100
AcDbEntity
  8
BLACK
  6
CONTINUOUS
100
AcDbLine
 10
5.0689146850393696
 20
-3.5880670472440945
 30
0
 11
5.0692913385826772
 21
-3.5879921259842518
 31
0
  0
LINE
  5
176
330
1A
100
AcDbEntity
  8
BLACK
  6
CONTINUOUS
100
AcDbLine
 10
5.0692913385826772
 20
-3.5879921259842518
 30
0
 11
5.5220472440944883
 21
-3.5879921259842518
 31
0
  0
LINE
  5
177
330
1A
100
AcDbEntity
  8
BLACK
  6
CONTINUOUS
100
AcDbLine
 10
5.5220472440944883
 20
-3.5879921259842518
 30
0
 11
5.5224238976377951
 21
-3.5880670472440945
 31
0
  0
LINE
  5
178
330
1A
100
AcDbEntity
  8
BLACK
  6
CONTINUOUS
100
AcDbLine
 10
5.0702755905511809
 20
-3.5899606299212596
 30
0
 11
5.0702755905511809
 21
-3.7336614173228346
 31
0
  0
LINE
  5
179
330
1A
100
AcDbEntity
  8
BLACK
  6
CONTINUOUS
100
AcDbLine
 10
5.0702755905511809
 20
-3.7336614173228346
 30
0
 11
5.5210629921259837
 21
-3.7336614173228346
 31
0
  0
LINE
  5
17A
330
1A
100
AcDbEntity
  8
BLACK
  6
CONTINUOUS
100
AcDbLine
 10
5.5210629921259837
 20
-3.7336614173228346
 30
0
 11
5.5210629921259837
 21
-3.5899606299212596
 31
0
  0
LINE
  5
17B
330
1A
100
AcDbEntity
  8
BLACK
  6
CONTINUOUS
100
AcDbLine
 10
5.5210629921259837
 20
-3.5899606299212596
 30
0
 11
5.0702755905511809
 21
-3.5899606299212596
 31
0
  0
ENDSEC
  0
SECTION
  2
OBJECTS
  0
DICTIONARY
  5
20
330
0
100
AcDbDictionary
281
1
  3
ACAD_GROUP
350
17C
  3
ACAD_LAYOUT
350
21
  3
ACAD_PLOTSTYLENAME
350
11
  0
DICTIONARY
  5
17C
330
20
100
AcDbDictionary
281
1
  0
ACDBDICTIONARYWDFLT
  5
11
330
20
100
AcDbDictionary
281
1
  3
Normal
350
10
100
AcDbDictionaryWithDefault
340
10
  0
ACDBPLACEHOLDER
  5
10
330
11
  0
DICTIONARY
  5
21
330
20
100
AcDbDictionary
281
1
  3
Model
350
1D
  3
Layout1
350
1E
  3
Layout2
350
1F
  0
LAYOUT
  5
1D
330
21
100
AcDbPlotSettings
  1

  2
none_device
  4
A3
  6

 40
0.0
 41
0.0
 42
0.0
 43
0.0
 44
420.0
 45
297.0
 46
0.0
 47
0.0
 48
0.0
 49
0.0
140
0.0
141
0.0
142
1.0
143
1.0
 70
1024
 72
1
 73
0
 74
5
  7

 75
16
 76
0
 77
2
 78
300
147
1.0
148
0.0
149
0.0
100
AcDbLayout
  1
Model
 70
1
 71
0
 10
0.0
 20
0.0
 11
420.0
 21
297.0
 12
0.0
 22
0.0
 32
0.0
 14
1e+20
 24
1e+20
 34
1e+20
 15
-1e+20
 25
-1e+20
 35
-1e+20
146
0.0
 13
0.0
 23
0.0
 33
0.0
 16
1.0
 26
0.0
 36
0.0
 17
0.0
 27
1.0
 37
0.0
 76
0
330
1A
  0
LAYOUT
  5
1E
330
21
100
AcDbPlotSettings
  1

  2
none_device
  4
A3
  6

 40
0.0
 41
0.0
 42
0.0
 43
0.0
 44
420.0
 45
297.0
 46
0.0
 47
0.0
 48
0.0
 49
0.0
140
0.0
141
0.0
142
1.0
143
1.0
 70
0
 72
1
 73
0
 74
5
  7

 75
16
 76
0
 77
2
 78
300
147
1.0
148
0.0
149
0.0
100
AcDbLayout
  1
Layout1
 70
1
 71
1
 10
0.0
 20
0.0
 11
420.0
 21
297.0
 12
0.0
 22
0.0
 32
0.0
 14
1e+20
 24
1e+20
 34
1e+20
 15
-1e+20
 25
-1e+20
 35
-1e+20
146
0.0
 13
0.0
 23
0.0
 33
0.0
 16
1.0
 26
0.0
 36
0.0
 17
0.0
 27
1.0
 37
0.0
 76
0
330
1B
  0
LAYOUT
  5
1F
330
21
100
AcDbPlotSettings
  1

  2
none_device
  4
A3
  6

 40
0.0
 41
0.0
 42
0.0
 43
0.0
 44
420.0
 45
297.0
 46
0.0
 47
0.0
 48
0.0
 49
0.0
140
0.0
141
0.0
142
1.0
143
1.0
 70
0
 72
1
 73
0
 74
5
  7

 75
16
 76
0
 77
2
 78
300
147
1.0
148
0.0
149
0.0
100
AcDbLayout
  1
Layout2
 70
1
 71
2
 10
0.0
 20
0.0
 11
420.0
 21
297.0
 12
0.0
 22
0.0
 32
0.0
 14
1e+20
 24
1e+20
 34
1e+20
 15
-1e+20
 25
-1e+20
 35
-1e+20
146
0.0
 13
0.0
 23
0.0
 33
0.0
 16
1.0
 26
0.0
 36
0.0
 17
0.0
 27
1.0
 37
0.0
 76
0
330
1C
  0
ENDSEC
  0
EOF
