<?xml version="1.0" standalone="no"?>
 <!DOCTYPE svg PUBLIC "-//W3C//DTD SVG 1.1//EN" 
 "http://www.w3.org/Graphics/SVG/1.1/DTD/svg11.dtd"> 
<svg
  xmlns:svg="http://www.w3.org/2000/svg"
  xmlns="http://www.w3.org/2000/svg"
  xmlns:xlink="http://www.w3.org/1999/xlink"
  xmlns:inkscape="http://www.inkscape.org/namespaces/inkscape"
  version="1.1"
  width="297.0022mm" height="210.0072mm" viewBox="0.0000 0.0000 297.0022 210.0072">
<title>SVG Image created as 4x4-F_Courtyard0.svg date 2026-06-30T15:29:08 </title>
  <desc>Image generated by PCBNEW </desc>
<g style="fill:#000000; fill-opacity:1.0000;stroke:#000000; stroke-opacity:1.0000;
stroke-linecap:round; stroke-linejoin:round;"
 transform="translate(0 0) scale(1 1)">
<path style="fill:none; 
stroke:#000000; stroke-width:0.0100; stroke-opacity:1; 
stroke-linecap:round; stroke-linejoin:round;fill:none"
d="M 131.3500,95.7500
132.9500,95.7500
132.9500,97.3500
131.3500,97.3500
Z" /> 
<path style="fill:none; 
stroke:#000000; stroke-width:0.0100; stroke-opacity:1; 
stroke-linecap:round; stroke-linejoin:round;fill:none"
d="M 126.6500,100.4500
128.2500,100.4500
128.2500,102.0500
126.6500,102.0500
Z" /> 
<path style="fill:none; 
stroke:#000000; stroke-width:0.0100; stroke-opacity:1; 
stroke-linecap:round; stroke-linejoin:round;fill:none"
d="M 140.7500,100.4500
142.3500,100.4500
142.3500,102.0500
140.7500,102.0500
Z" /> 
</g>
<g style="fill:none; 
stroke:#000000; stroke-width:0.0500; stroke-opacity:1; 
stroke-linecap:round; stroke-linejoin:round;">
<path d="M128.7600 91.1600
L128.7600 94.8600
" />
<path d="M128.7600 94.8600
L140.2600 94.8600
" />
<path d="M140.2600 91.1600
L128.7600 91.1600
" />
<path d="M140.2600 94.8600
L140.2600 91.1600
" />
<path style="fill:none; 
stroke:#000000; stroke-width:0.0100; stroke-opacity:1; 
stroke-linecap:round; stroke-linejoin:round;fill:none"
d="M 131.3500,100.4500
132.9500,100.4500
132.9500,102.0500
131.3500,102.0500
Z" /> 
<path style="fill:none; 
stroke:#000000; stroke-width:0.0100; stroke-opacity:1; 
stroke-linecap:round; stroke-linejoin:round;fill:none"
d="M 126.6500,95.7500
128.2500,95.7500
128.2500,97.3500
126.6500,97.3500
Z" /> 
<path style="fill:none; 
stroke:#000000; stroke-width:0.0100; stroke-opacity:1; 
stroke-linecap:round; stroke-linejoin:round;fill:none"
d="M 126.6500,105.1500
128.2500,105.1500
128.2500,106.7500
126.6500,106.7500
Z" /> 
<path style="fill:none; 
stroke:#000000; stroke-width:0.0100; stroke-opacity:1; 
stroke-linecap:round; stroke-linejoin:round;fill:none"
d="M 136.0500,105.1500
137.6500,105.1500
137.6500,106.7500
136.0500,106.7500
Z" /> 
<path style="fill:none; 
stroke:#000000; stroke-width:0.0100; stroke-opacity:1; 
stroke-linecap:round; stroke-linejoin:round;fill:none"
d="M 140.7500,105.1500
142.3500,105.1500
142.3500,106.7500
140.7500,106.7500
Z" /> 
<path style="fill:none; 
stroke:#000000; stroke-width:0.0100; stroke-opacity:1; 
stroke-linecap:round; stroke-linejoin:round;fill:none"
d="M 140.7500,109.8500
142.3500,109.8500
142.3500,111.4500
140.7500,111.4500
Z" /> 
<path style="fill:none; 
stroke:#000000; stroke-width:0.0100; stroke-opacity:1; 
stroke-linecap:round; stroke-linejoin:round;fill:none"
d="M 136.0500,100.4500
137.6500,100.4500
137.6500,102.0500
136.0500,102.0500
Z" /> 
<path style="fill:none; 
stroke:#000000; stroke-width:0.0100; stroke-opacity:1; 
stroke-linecap:round; stroke-linejoin:round;fill:none"
d="M 140.7500,95.7500
142.3500,95.7500
142.3500,97.3500
140.7500,97.3500
Z" /> 
<path style="fill:none; 
stroke:#000000; stroke-width:0.0100; stroke-opacity:1; 
stroke-linecap:round; stroke-linejoin:round;fill:none"
d="M 126.6500,109.8500
128.2500,109.8500
128.2500,111.4500
126.6500,111.4500
Z" /> 
<path style="fill:none; 
stroke:#000000; stroke-width:0.0100; stroke-opacity:1; 
stroke-linecap:round; stroke-linejoin:round;fill:none"
d="M 131.3500,109.8500
132.9500,109.8500
132.9500,111.4500
131.3500,111.4500
Z" /> 
<path style="fill:none; 
stroke:#000000; stroke-width:0.0100; stroke-opacity:1; 
stroke-linecap:round; stroke-linejoin:round;fill:none"
d="M 131.3500,105.1500
132.9500,105.1500
132.9500,106.7500
131.3500,106.7500
Z" /> 
<path style="fill:none; 
stroke:#000000; stroke-width:0.0100; stroke-opacity:1; 
stroke-linecap:round; stroke-linejoin:round;fill:none"
d="M 136.0500,109.8500
137.6500,109.8500
137.6500,111.4500
136.0500,111.4500
Z" /> 
<path style="fill:none; 
stroke:#000000; stroke-width:0.0100; stroke-opacity:1; 
stroke-linecap:round; stroke-linejoin:round;fill:none"
d="M 136.0500,95.7500
137.6500,95.7500
137.6500,97.3500
136.0500,97.3500
Z" /> 
</g> 
</svg>
