<?xml version="1.0" standalone="no"?>
 <!DOCTYPE svg PUBLIC "-//W3C//DTD SVG 1.1//EN" 
 "http://www.w3.org/Graphics/SVG/1.1/DTD/svg11.dtd"> 
<svg
  xmlns:svg="http://www.w3.org/2000/svg"
  xmlns="http://www.w3.org/2000/svg"
  xmlns:xlink="http://www.w3.org/1999/xlink"
  xmlns:inkscape="http://www.inkscape.org/namespaces/inkscape"
  version="1.1"
  width="297.0022mm" height="210.0072mm" viewBox="0.0000 0.0000 297.0022 210.0072">
<title>SVG Image created as 4x4-User_Drawings2.svg date 2026-06-30T15:28:59 </title>
  <desc>Image generated by PCBNEW </desc>
<g style="fill:#000000; fill-opacity:1.0000;stroke:#000000; stroke-opacity:1.0000;
stroke-linecap:round; stroke-linejoin:round;"
 transform="translate(0 0) scale(1 1)">
</g>
<g style="fill:none; 
stroke:#000000; stroke-width:0.1500; stroke-opacity:1; 
stroke-linecap:round; stroke-linejoin:round;">
<text x="141.6792" y="113.6240"
textLength="5.3452" font-size="1.3333" lengthAdjust="spacingAndGlyphs"
text-anchor="middle" opacity="0" stroke-opacity="0">R 0.75</text>
<g class="stroked-text"><desc>R 0.75</desc>
<path d="M139.9411 113.5788
L139.6078 113.1026
" />
<path d="M139.3697 113.5788
L139.3697 112.5788
" />
<path d="M139.3697 112.5788
L139.7506 112.5788
" />
<path d="M139.7506 112.5788
L139.8459 112.6264
" />
<path d="M139.8459 112.6264
L139.8935 112.6741
" />
<path d="M139.8935 112.6741
L139.9411 112.7693
" />
<path d="M139.9411 112.7693
L139.9411 112.9122
" />
<path d="M139.9411 112.9122
L139.8935 113.0074
" />
<path d="M139.8935 113.0074
L139.8459 113.0550
" />
<path d="M139.8459 113.0550
L139.7506 113.1026
" />
<path d="M139.7506 113.1026
L139.3697 113.1026
" />
<path d="M141.3221 112.5788
L141.4173 112.5788
" />
<path d="M141.4173 112.5788
L141.5125 112.6264
" />
<path d="M141.5125 112.6264
L141.5602 112.6741
" />
<path d="M141.5602 112.6741
L141.6078 112.7693
" />
<path d="M141.6078 112.7693
L141.6554 112.9598
" />
<path d="M141.6554 112.9598
L141.6554 113.1979
" />
<path d="M141.6554 113.1979
L141.6078 113.3883
" />
<path d="M141.6078 113.3883
L141.5602 113.4836
" />
<path d="M141.5602 113.4836
L141.5125 113.5312
" />
<path d="M141.5125 113.5312
L141.4173 113.5788
" />
<path d="M141.4173 113.5788
L141.3221 113.5788
" />
<path d="M141.3221 113.5788
L141.2268 113.5312
" />
<path d="M141.2268 113.5312
L141.1792 113.4836
" />
<path d="M141.1792 113.4836
L141.1316 113.3883
" />
<path d="M141.1316 113.3883
L141.0840 113.1979
" />
<path d="M141.0840 113.1979
L141.0840 112.9598
" />
<path d="M141.0840 112.9598
L141.1316 112.7693
" />
<path d="M141.1316 112.7693
L141.1792 112.6741
" />
<path d="M141.1792 112.6741
L141.2268 112.6264
" />
<path d="M141.2268 112.6264
L141.3221 112.5788
" />
<path d="M142.0840 113.4836
L142.1316 113.5312
" />
<path d="M142.1316 113.5312
L142.0840 113.5788
" />
<path d="M142.0840 113.5788
L142.0363 113.5312
" />
<path d="M142.0363 113.5312
L142.0840 113.4836
" />
<path d="M142.0840 113.4836
L142.0840 113.5788
" />
<path d="M142.4649 112.5788
L143.1316 112.5788
" />
<path d="M143.1316 112.5788
L142.7030 113.5788
" />
<path d="M143.9887 112.5788
L143.5125 112.5788
" />
<path d="M143.5125 112.5788
L143.4649 113.0550
" />
<path d="M143.4649 113.0550
L143.5125 113.0074
" />
<path d="M143.5125 113.0074
L143.6078 112.9598
" />
<path d="M143.6078 112.9598
L143.8459 112.9598
" />
<path d="M143.8459 112.9598
L143.9411 113.0074
" />
<path d="M143.9411 113.0074
L143.9887 113.0550
" />
<path d="M143.9887 113.0550
L144.0363 113.1502
" />
<path d="M144.0363 113.1502
L144.0363 113.3883
" />
<path d="M144.0363 113.3883
L143.9887 113.4836
" />
<path d="M143.9887 113.4836
L143.9411 113.5312
" />
<path d="M143.9411 113.5312
L143.8459 113.5788
" />
<path d="M143.8459 113.5788
L143.6078 113.5788
" />
<path d="M143.6078 113.5788
L143.5125 113.5312
" />
<path d="M143.5125 113.5312
L143.4649 113.4836
" />
</g></g>
<g style="fill:none; 
stroke:#000000; stroke-width:0.1000; stroke-opacity:1; 
stroke-linecap:round; stroke-linejoin:round;">
<path d="M154.0026 111.8540
L154.0026 114.3940
" />
<path d="M152.7327 113.1240
L155.2726 113.1240
" />
<path d="M153.2526 113.1240
L149.4426 113.1240
" />
<path d="M149.4426 113.1240
L144.8518 113.1240
" />
<path d="M153.2526 113.1240
L152.1261 112.5376
" />
<path d="M153.2526 113.1240
L152.1261 113.7104
" />
</g>
<g style="fill:none; 
stroke:#000000; stroke-width:0.1500; stroke-opacity:1; 
stroke-linecap:round; stroke-linejoin:round;">
<text x="143.7362" y="95.6100"
textLength="5.3452" font-size="1.3333" lengthAdjust="spacingAndGlyphs"
text-anchor="middle" opacity="0" stroke-opacity="0">R 0.75</text>
<g class="stroked-text"><desc>R 0.75</desc>
<path d="M141.9981 95.5648
L141.6648 95.0886
" />
<path d="M141.4267 95.5648
L141.4267 94.5648
" />
<path d="M141.4267 94.5648
L141.8076 94.5648
" />
<path d="M141.8076 94.5648
L141.9029 94.6124
" />
<path d="M141.9029 94.6124
L141.9505 94.6601
" />
<path d="M141.9505 94.6601
L141.9981 94.7553
" />
<path d="M141.9981 94.7553
L141.9981 94.8982
" />
<path d="M141.9981 94.8982
L141.9505 94.9934
" />
<path d="M141.9505 94.9934
L141.9029 95.0410
" />
<path d="M141.9029 95.0410
L141.8076 95.0886
" />
<path d="M141.8076 95.0886
L141.4267 95.0886
" />
<path d="M143.3791 94.5648
L143.4743 94.5648
" />
<path d="M143.4743 94.5648
L143.5695 94.6124
" />
<path d="M143.5695 94.6124
L143.6172 94.6601
" />
<path d="M143.6172 94.6601
L143.6648 94.7553
" />
<path d="M143.6648 94.7553
L143.7124 94.9458
" />
<path d="M143.7124 94.9458
L143.7124 95.1839
" />
<path d="M143.7124 95.1839
L143.6648 95.3743
" />
<path d="M143.6648 95.3743
L143.6172 95.4696
" />
<path d="M143.6172 95.4696
L143.5695 95.5172
" />
<path d="M143.5695 95.5172
L143.4743 95.5648
" />
<path d="M143.4743 95.5648
L143.3791 95.5648
" />
<path d="M143.3791 95.5648
L143.2838 95.5172
" />
<path d="M143.2838 95.5172
L143.2362 95.4696
" />
<path d="M143.2362 95.4696
L143.1886 95.3743
" />
<path d="M143.1886 95.3743
L143.1410 95.1839
" />
<path d="M143.1410 95.1839
L143.1410 94.9458
" />
<path d="M143.1410 94.9458
L143.1886 94.7553
" />
<path d="M143.1886 94.7553
L143.2362 94.6601
" />
<path d="M143.2362 94.6601
L143.2838 94.6124
" />
<path d="M143.2838 94.6124
L143.3791 94.5648
" />
<path d="M144.1410 95.4696
L144.1886 95.5172
" />
<path d="M144.1886 95.5172
L144.1410 95.5648
" />
<path d="M144.1410 95.5648
L144.0933 95.5172
" />
<path d="M144.0933 95.5172
L144.1410 95.4696
" />
<path d="M144.1410 95.4696
L144.1410 95.5648
" />
<path d="M144.5219 94.5648
L145.1886 94.5648
" />
<path d="M145.1886 94.5648
L144.7600 95.5648
" />
<path d="M146.0457 94.5648
L145.5695 94.5648
" />
<path d="M145.5695 94.5648
L145.5219 95.0410
" />
<path d="M145.5219 95.0410
L145.5695 94.9934
" />
<path d="M145.5695 94.9934
L145.6648 94.9458
" />
<path d="M145.6648 94.9458
L145.9029 94.9458
" />
<path d="M145.9029 94.9458
L145.9981 94.9934
" />
<path d="M145.9981 94.9934
L146.0457 95.0410
" />
<path d="M146.0457 95.0410
L146.0933 95.1362
" />
<path d="M146.0933 95.1362
L146.0933 95.3743
" />
<path d="M146.0933 95.3743
L146.0457 95.4696
" />
<path d="M146.0457 95.4696
L145.9981 95.5172
" />
<path d="M145.9981 95.5172
L145.9029 95.5648
" />
<path d="M145.9029 95.5648
L145.6648 95.5648
" />
<path d="M145.6648 95.5648
L145.5695 95.5172
" />
<path d="M145.5695 95.5172
L145.5219 95.4696
" />
</g></g>
<g style="fill:none; 
stroke:#000000; stroke-width:0.1000; stroke-opacity:1; 
stroke-linecap:round; stroke-linejoin:round;">
<path d="M153.5027 93.8400
L153.5027 96.3800
" />
<path d="M152.2327 95.1100
L154.7727 95.1100
" />
<path d="M152.7527 95.1100
L148.9427 95.1100
" />
<path d="M148.9427 95.1100
L146.9088 95.1100
" />
<path d="M152.7527 95.1100
L151.6262 94.5236
" />
<path d="M152.7527 95.1100
L151.6262 95.6964
" />
</g>
<g style="fill:none; 
stroke:#000000; stroke-width:0.1500; stroke-opacity:1; 
stroke-linecap:round; stroke-linejoin:round;">
<text x="152.9842" y="119.6810"
textLength="1.2024" font-size="1.3333" lengthAdjust="spacingAndGlyphs"
text-anchor="middle" opacity="0" stroke-opacity="0">2</text>
<g class="stroked-text"><desc>2</desc>
<path d="M152.6985 118.7311
L152.7461 118.6834
" />
<path d="M152.7461 118.6834
L152.8413 118.6358
" />
<path d="M152.8413 118.6358
L153.0794 118.6358
" />
<path d="M153.0794 118.6358
L153.1747 118.6834
" />
<path d="M153.1747 118.6834
L153.2223 118.7311
" />
<path d="M153.2223 118.7311
L153.2699 118.8263
" />
<path d="M153.2699 118.8263
L153.2699 118.9215
" />
<path d="M153.2699 118.9215
L153.2223 119.0644
" />
<path d="M153.2223 119.0644
L152.6509 119.6358
" />
<path d="M152.6509 119.6358
L153.2699 119.6358
" />
</g></g>
<g style="fill:none; 
stroke:#000000; stroke-width:0.1000; stroke-opacity:1; 
stroke-linecap:round; stroke-linejoin:round;">
<path d="M154.0026 113.6240
L154.0026 118.2354
" />
<path d="M152.0022 118.2354
L152.0022 113.6240
" />
<path d="M154.0026 117.6490
L152.0022 117.6490
" />
<path d="M154.0026 117.6490
L152.8761 117.0626
" />
<path d="M154.0026 117.6490
L152.8761 118.2354
" />
<path d="M152.0022 117.6490
L153.1287 118.2354
" />
<path d="M152.0022 117.6490
L153.1287 117.0626
" />
</g>
<g style="fill:none; 
stroke:#000000; stroke-width:0.1500; stroke-opacity:1; 
stroke-linecap:round; stroke-linejoin:round;">
<text x="152.7452" y="86.9910"
textLength="2.6310" font-size="1.3333" lengthAdjust="spacingAndGlyphs"
text-anchor="middle" opacity="0" stroke-opacity="0">1.5</text>
<g class="stroked-text"><desc>1.5</desc>
<path d="M152.3166 86.9458
L151.7452 86.9458
" />
<path d="M152.0309 86.9458
L152.0309 85.9458
" />
<path d="M152.0309 85.9458
L151.9357 86.0887
" />
<path d="M151.9357 86.0887
L151.8404 86.1839
" />
<path d="M151.8404 86.1839
L151.7452 86.2315
" />
<path d="M152.7452 86.8506
L152.7928 86.8982
" />
<path d="M152.7928 86.8982
L152.7452 86.9458
" />
<path d="M152.7452 86.9458
L152.6976 86.8982
" />
<path d="M152.6976 86.8982
L152.7452 86.8506
" />
<path d="M152.7452 86.8506
L152.7452 86.9458
" />
<path d="M153.6976 85.9458
L153.2214 85.9458
" />
<path d="M153.2214 85.9458
L153.1738 86.4220
" />
<path d="M153.1738 86.4220
L153.2214 86.3744
" />
<path d="M153.2214 86.3744
L153.3166 86.3268
" />
<path d="M153.3166 86.3268
L153.5547 86.3268
" />
<path d="M153.5547 86.3268
L153.6500 86.3744
" />
<path d="M153.6500 86.3744
L153.6976 86.4220
" />
<path d="M153.6976 86.4220
L153.7452 86.5172
" />
<path d="M153.7452 86.5172
L153.7452 86.7553
" />
<path d="M153.7452 86.7553
L153.6976 86.8506
" />
<path d="M153.6976 86.8506
L153.6500 86.8982
" />
<path d="M153.6500 86.8982
L153.5547 86.9458
" />
<path d="M153.5547 86.9458
L153.3166 86.9458
" />
<path d="M153.3166 86.9458
L153.2214 86.8982
" />
<path d="M153.2214 86.8982
L153.1738 86.8506
" />
</g></g>
<g style="fill:none; 
stroke:#000000; stroke-width:0.1000; stroke-opacity:1; 
stroke-linecap:round; stroke-linejoin:round;">
<path d="M153.4902 92.5860
L153.4902 87.1646
" />
<path d="M152.0022 87.1646
L152.0022 91.6100
" />
<path d="M153.4902 87.7510
L152.0022 87.7510
" />
<path d="M153.4902 87.7510
L152.3637 87.1646
" />
<path d="M153.4902 87.7510
L152.3637 88.3374
" />
<path d="M152.0022 87.7510
L153.1287 88.3374
" />
<path d="M152.0022 87.7510
L153.1287 87.1646
" />
</g>
<g style="fill:none; 
stroke:#000000; stroke-width:0.1500; stroke-opacity:1; 
stroke-linecap:round; stroke-linejoin:round;">
<g transform="rotate(90.000000 147.7622 92.5990)">
<text x="147.7622" y="93.0990"
textLength="1.2024" font-size="1.3333" lengthAdjust="spacingAndGlyphs"
text-anchor="middle" opacity="0" stroke-opacity="0">1</text>
</g>
<g class="stroked-text"><desc>1</desc>
<path d="M147.3074 92.8847
L147.3074 92.3133
" />
<path d="M147.3074 92.5990
L148.3074 92.5990
" />
<path d="M148.3074 92.5990
L148.1645 92.5038
" />
<path d="M148.1645 92.5038
L148.0693 92.4085
" />
<path d="M148.0693 92.4085
L148.0217 92.3133
" />
</g></g>
<g style="fill:none; 
stroke:#000000; stroke-width:0.1000; stroke-opacity:1; 
stroke-linecap:round; stroke-linejoin:round;">
<path d="M153.0027 93.1100
L148.7058 93.1100
" />
<path d="M148.7058 92.1100
L151.5022 92.1100
" />
<path d="M149.2922 93.1100
L149.2922 92.1100
" />
<path d="M149.2922 93.1100
L149.8786 91.9835
" />
<path d="M149.2922 93.1100
L148.7058 91.9835
" />
<path d="M149.2922 92.1100
L148.7058 93.2365
" />
<path d="M149.2922 92.1100
L149.8786 93.2365
" />
</g>
<g style="fill:none; 
stroke:#000000; stroke-width:0.1500; stroke-opacity:1; 
stroke-linecap:round; stroke-linejoin:round;">
<g transform="rotate(90.000000 146.4652 113.5970)">
<text x="146.4652" y="114.0970"
textLength="1.2024" font-size="1.3333" lengthAdjust="spacingAndGlyphs"
text-anchor="middle" opacity="0" stroke-opacity="0">1</text>
</g>
<g class="stroked-text"><desc>1</desc>
<path d="M146.0104 113.8827
L146.0104 113.3113
" />
<path d="M146.0104 113.5970
L147.0104 113.5970
" />
<path d="M147.0104 113.5970
L146.8675 113.5018
" />
<path d="M146.8675 113.5018
L146.7723 113.4065
" />
<path d="M146.7723 113.4065
L146.7247 113.3113
" />
</g></g>
<g style="fill:none; 
stroke:#000000; stroke-width:0.1000; stroke-opacity:1; 
stroke-linecap:round; stroke-linejoin:round;">
<path d="M153.5026 113.1240
L147.9158 113.1240
" />
<path d="M147.9158 114.1000
L152.5022 114.1000
" />
<path d="M148.5022 113.1240
L148.5022 114.1000
" />
<path d="M148.5022 113.1240
L147.9158 114.2505
" />
<path d="M148.5022 113.1240
L149.0886 114.2505
" />
<path d="M148.5022 114.1000
L149.0886 112.9735
" />
<path d="M148.5022 114.1000
L147.9158 112.9735
" />
</g>
<g style="fill:none; 
stroke:#000000; stroke-width:0.1500; stroke-opacity:1; 
stroke-linecap:round; stroke-linejoin:round;">
<text x="155.6702" y="119.6970"
textLength="2.6310" font-size="1.3333" lengthAdjust="spacingAndGlyphs"
text-anchor="middle" opacity="0" stroke-opacity="0">3.4</text>
<g class="stroked-text"><desc>3.4</desc>
<path d="M154.6226 118.6518
L155.2416 118.6518
" />
<path d="M155.2416 118.6518
L154.9083 119.0328
" />
<path d="M154.9083 119.0328
L155.0512 119.0328
" />
<path d="M155.0512 119.0328
L155.1464 119.0804
" />
<path d="M155.1464 119.0804
L155.1940 119.1280
" />
<path d="M155.1940 119.1280
L155.2416 119.2232
" />
<path d="M155.2416 119.2232
L155.2416 119.4613
" />
<path d="M155.2416 119.4613
L155.1940 119.5566
" />
<path d="M155.1940 119.5566
L155.1464 119.6042
" />
<path d="M155.1464 119.6042
L155.0512 119.6518
" />
<path d="M155.0512 119.6518
L154.7654 119.6518
" />
<path d="M154.7654 119.6518
L154.6702 119.6042
" />
<path d="M154.6702 119.6042
L154.6226 119.5566
" />
<path d="M155.6702 119.5566
L155.7178 119.6042
" />
<path d="M155.7178 119.6042
L155.6702 119.6518
" />
<path d="M155.6702 119.6518
L155.6226 119.6042
" />
<path d="M155.6226 119.6042
L155.6702 119.5566
" />
<path d="M155.6702 119.5566
L155.6702 119.6518
" />
<path d="M156.5750 118.9852
L156.5750 119.6518
" />
<path d="M156.3369 118.6042
L156.0988 119.3185
" />
<path d="M156.0988 119.3185
L156.7178 119.3185
" />
</g></g>
<g style="fill:none; 
stroke:#000000; stroke-width:0.1000; stroke-opacity:1; 
stroke-linecap:round; stroke-linejoin:round;">
<path d="M154.0026 113.6240
L154.0026 118.2584
" />
<path d="M157.4026 118.2584
L157.4026 113.6240
" />
<path d="M154.0026 117.6720
L157.4026 117.6720
" />
<path d="M154.0026 117.6720
L155.1292 118.2584
" />
<path d="M154.0026 117.6720
L155.1292 117.0856
" />
<path d="M157.4026 117.6720
L156.2761 117.0856
" />
<path d="M157.4026 117.6720
L156.2761 118.2584
" />
</g>
<g style="fill:none; 
stroke:#000000; stroke-width:0.1500; stroke-opacity:1; 
stroke-linecap:round; stroke-linejoin:round;">
<g transform="rotate(90.000000 147.7082 94.0750)">
<text x="147.7082" y="94.5750"
textLength="1.2024" font-size="1.3333" lengthAdjust="spacingAndGlyphs"
text-anchor="middle" opacity="0" stroke-opacity="0">2</text>
</g>
<g class="stroked-text"><desc>2</desc>
<path d="M148.1581 93.7893
L148.2058 93.8369
" />
<path d="M148.2058 93.8369
L148.2534 93.9321
" />
<path d="M148.2534 93.9321
L148.2534 94.1702
" />
<path d="M148.2534 94.1702
L148.2058 94.2655
" />
<path d="M148.2058 94.2655
L148.1581 94.3131
" />
<path d="M148.1581 94.3131
L148.0629 94.3607
" />
<path d="M148.0629 94.3607
L147.9677 94.3607
" />
<path d="M147.9677 94.3607
L147.8248 94.3131
" />
<path d="M147.8248 94.3131
L147.2534 93.7417
" />
<path d="M147.2534 93.7417
L147.2534 94.3607
" />
</g></g>
<g style="fill:none; 
stroke:#000000; stroke-width:0.1000; stroke-opacity:1; 
stroke-linecap:round; stroke-linejoin:round;">
<path d="M153.0027 93.1100
L148.7058 93.1100
" />
<path d="M148.7058 95.1100
L153.0027 95.1100
" />
<path d="M149.2922 93.1100
L149.2922 95.1100
" />
<path d="M149.2922 93.1100
L148.7058 94.2365
" />
<path d="M149.2922 93.1100
L149.8786 94.2365
" />
<path d="M149.2922 95.1100
L149.8786 93.9835
" />
<path d="M149.2922 95.1100
L148.7058 93.9835
" />
</g> 
</svg>
