<?xml version="1.0" standalone="no"?>
 <!DOCTYPE svg PUBLIC "-//W3C//DTD SVG 1.1//EN" 
 "http://www.w3.org/Graphics/SVG/1.1/DTD/svg11.dtd"> 
<svg
  xmlns:svg="http://www.w3.org/2000/svg"
  xmlns="http://www.w3.org/2000/svg"
  xmlns:xlink="http://www.w3.org/1999/xlink"
  xmlns:inkscape="http://www.inkscape.org/namespaces/inkscape"
  version="1.1"
  width="297.0022mm" height="210.0072mm" viewBox="0.0000 0.0000 297.0022 210.0072">
<title>SVG Image created as 4x4-B_Courtyard0.svg date 2026-06-30T15:28:59 </title>
  <desc>Image generated by PCBNEW </desc>
<g style="fill:#000000; fill-opacity:1.0000;stroke:#000000; stroke-opacity:1.0000;
stroke-linecap:round; stroke-linejoin:round;"
 transform="translate(0 0) scale(1 1)">
</g>
<g style="fill:none; 
stroke:#000000; stroke-width:0.0500; stroke-opacity:1; 
stroke-linecap:round; stroke-linejoin:round;">
<path d="M167.4022 95.7620
L167.4022 97.6620
" />
<path d="M166.3022 95.7620
L167.4022 95.7620
" />
<path d="M166.3022 95.7620
L166.3022 97.6620
" />
<path d="M166.3022 97.6620
L167.4022 97.6620
" />
<path d="M172.1022 109.8500
L172.1022 111.7500
" />
<path d="M171.0022 109.8500
L172.1022 109.8500
" />
<path d="M171.0022 109.8500
L171.0022 111.7500
" />
<path d="M171.0022 111.7500
L172.1022 111.7500
" />
<path d="M162.7022 100.4620
L162.7022 102.3620
" />
<path d="M161.6022 100.4620
L162.7022 100.4620
" />
<path d="M161.6022 100.4620
L161.6022 102.3620
" />
<path d="M161.6022 102.3620
L162.7022 102.3620
" />
<path d="M158.0022 100.4620
L158.0022 102.3620
" />
<path d="M156.9022 100.4620
L158.0022 100.4620
" />
<path d="M156.9022 100.4620
L156.9022 102.3620
" />
<path d="M156.9022 102.3620
L158.0022 102.3620
" />
<path d="M167.4022 100.4620
L167.4022 102.3620
" />
<path d="M166.3022 100.4620
L167.4022 100.4620
" />
<path d="M166.3022 100.4620
L166.3022 102.3620
" />
<path d="M166.3022 102.3620
L167.4022 102.3620
" />
<path d="M158.0022 109.8620
L158.0022 111.7620
" />
<path d="M156.9022 109.8620
L158.0022 109.8620
" />
<path d="M156.9022 109.8620
L156.9022 111.7620
" />
<path d="M156.9022 111.7620
L158.0022 111.7620
" />
<path d="M162.7022 95.7620
L162.7022 97.6620
" />
<path d="M161.6022 95.7620
L162.7022 95.7620
" />
<path d="M161.6022 95.7620
L161.6022 97.6620
" />
<path d="M161.6022 97.6620
L162.7022 97.6620
" />
<path d="M162.7022 105.1620
L162.7022 107.0620
" />
<path d="M161.6022 105.1620
L162.7022 105.1620
" />
<path d="M161.6022 105.1620
L161.6022 107.0620
" />
<path d="M161.6022 107.0620
L162.7022 107.0620
" />
<path d="M172.1022 95.7620
L172.1022 97.6620
" />
<path d="M171.0022 95.7620
L172.1022 95.7620
" />
<path d="M171.0022 95.7620
L171.0022 97.6620
" />
<path d="M171.0022 97.6620
L172.1022 97.6620
" />
<path d="M158.0022 105.1620
L158.0022 107.0620
" />
<path d="M156.9022 105.1620
L158.0022 105.1620
" />
<path d="M156.9022 105.1620
L156.9022 107.0620
" />
<path d="M156.9022 107.0620
L158.0022 107.0620
" />
<path d="M172.1022 100.4620
L172.1022 102.3620
" />
<path d="M171.0022 100.4620
L172.1022 100.4620
" />
<path d="M171.0022 100.4620
L171.0022 102.3620
" />
<path d="M171.0022 102.3620
L172.1022 102.3620
" />
<path d="M167.4022 109.8620
L167.4022 111.7620
" />
<path d="M166.3022 109.8620
L167.4022 109.8620
" />
<path d="M166.3022 109.8620
L166.3022 111.7620
" />
<path d="M166.3022 111.7620
L167.4022 111.7620
" />
<path d="M167.4022 105.1620
L167.4022 107.0620
" />
<path d="M166.3022 105.1620
L167.4022 105.1620
" />
<path d="M166.3022 105.1620
L166.3022 107.0620
" />
<path d="M166.3022 107.0620
L167.4022 107.0620
" />
<path d="M158.0022 95.7620
L158.0022 97.6620
" />
<path d="M156.9022 95.7620
L158.0022 95.7620
" />
<path d="M156.9022 95.7620
L156.9022 97.6620
" />
<path d="M156.9022 97.6620
L158.0022 97.6620
" />
<path d="M162.7022 109.8620
L162.7022 111.7620
" />
<path d="M161.6022 109.8620
L162.7022 109.8620
" />
<path d="M161.6022 109.8620
L161.6022 111.7620
" />
<path d="M161.6022 111.7620
L162.7022 111.7620
" />
<path d="M172.1022 105.1620
L172.1022 107.0620
" />
<path d="M171.0022 105.1620
L172.1022 105.1620
" />
<path d="M171.0022 105.1620
L171.0022 107.0620
" />
<path d="M171.0022 107.0620
L172.1022 107.0620
" />
</g> 
</svg>
