<?xml version="1.0" standalone="no"?>
 <!DOCTYPE svg PUBLIC "-//W3C//DTD SVG 1.1//EN" 
 "http://www.w3.org/Graphics/SVG/1.1/DTD/svg11.dtd"> 
<svg
  xmlns:svg="http://www.w3.org/2000/svg"
  xmlns="http://www.w3.org/2000/svg"
  xmlns:xlink="http://www.w3.org/1999/xlink"
  xmlns:inkscape="http://www.inkscape.org/namespaces/inkscape"
  version="1.1"
  width="297.0022mm" height="210.0072mm" viewBox="0.0000 0.0000 297.0022 210.0072">
<title>SVG Image created as 4x4-B_Cu.svg date 2026-06-30T15:29:50 </title>
  <desc>Image generated by PCBNEW </desc>
<g style="fill:#000000; fill-opacity:1.0000;stroke:#000000; stroke-opacity:1.0000;
stroke-linecap:round; stroke-linejoin:round;"
 transform="translate(0 0) scale(1 1)">
<path style="fill:#000000; fill-opacity:1.0000; stroke:none;fill-rule:evenodd;"
d="M 129.8500,96.0100
130.4500,96.0100
130.4500,96.5500
129.8500,96.5500
Z" /> 
<path style="fill:#000000; fill-opacity:1.0000; stroke:none;fill-rule:evenodd;"
d="M 129.8500,96.8740
130.4500,96.8740
130.4500,97.4140
129.8500,97.4140
Z" /> 
<path style="fill:#000000; fill-opacity:1.0000; stroke:none;fill-rule:evenodd;"
d="M 125.1500,110.0980
125.7500,110.0980
125.7500,110.6380
125.1500,110.6380
Z" /> 
<path style="fill:#000000; fill-opacity:1.0000; stroke:none;fill-rule:evenodd;"
d="M 125.1500,110.9620
125.7500,110.9620
125.7500,111.5020
125.1500,111.5020
Z" /> 
<path style="fill:#000000; fill-opacity:1.0000; stroke:none;fill-rule:evenodd;"
d="M 134.5500,100.7100
135.1500,100.7100
135.1500,101.2500
134.5500,101.2500
Z" /> 
<path style="fill:#000000; fill-opacity:1.0000; stroke:none;fill-rule:evenodd;"
d="M 134.5500,101.5740
135.1500,101.5740
135.1500,102.1140
134.5500,102.1140
Z" /> 
<path style="fill:#000000; fill-opacity:1.0000; stroke:none;fill-rule:evenodd;"
d="M 139.2500,100.7100
139.8500,100.7100
139.8500,101.2500
139.2500,101.2500
Z" /> 
<path style="fill:#000000; fill-opacity:1.0000; stroke:none;fill-rule:evenodd;"
d="M 139.2500,101.5740
139.8500,101.5740
139.8500,102.1140
139.2500,102.1140
Z" /> 
<path style="fill:#000000; fill-opacity:1.0000; stroke:none;fill-rule:evenodd;"
d="M 129.8500,100.7100
130.4500,100.7100
130.4500,101.2500
129.8500,101.2500
Z" /> 
<path style="fill:#000000; fill-opacity:1.0000; stroke:none;fill-rule:evenodd;"
d="M 129.8500,101.5740
130.4500,101.5740
130.4500,102.1140
129.8500,102.1140
Z" /> 
<path style="fill:#000000; fill-opacity:1.0000; stroke:none;fill-rule:evenodd;"
d="M 139.2500,110.1100
139.8500,110.1100
139.8500,110.6500
139.2500,110.6500
Z" /> 
<path style="fill:#000000; fill-opacity:1.0000; stroke:none;fill-rule:evenodd;"
d="M 139.2500,110.9740
139.8500,110.9740
139.8500,111.5140
139.2500,111.5140
Z" /> 
<path style="fill:#000000; fill-opacity:1.0000; stroke:none;fill-rule:evenodd;"
d="M 134.5500,96.0100
135.1500,96.0100
135.1500,96.5500
134.5500,96.5500
Z" /> 
<path style="fill:#000000; fill-opacity:1.0000; stroke:none;fill-rule:evenodd;"
d="M 134.5500,96.8740
135.1500,96.8740
135.1500,97.4140
134.5500,97.4140
Z" /> 
<path style="fill:#000000; fill-opacity:1.0000; stroke:none;fill-rule:evenodd;"
d="M 134.5500,105.4100
135.1500,105.4100
135.1500,105.9500
134.5500,105.9500
Z" /> 
<path style="fill:#000000; fill-opacity:1.0000; stroke:none;fill-rule:evenodd;"
d="M 134.5500,106.2740
135.1500,106.2740
135.1500,106.8140
134.5500,106.8140
Z" /> 
<path style="fill:#000000; fill-opacity:1.0000; stroke:none;fill-rule:evenodd;"
d="M 125.1500,96.0100
125.7500,96.0100
125.7500,96.5500
125.1500,96.5500
Z" /> 
<path style="fill:#000000; fill-opacity:1.0000; stroke:none;fill-rule:evenodd;"
d="M 125.1500,96.8740
125.7500,96.8740
125.7500,97.4140
125.1500,97.4140
Z" /> 
<path style="fill:#000000; fill-opacity:1.0000; stroke:none;fill-rule:evenodd;"
d="M 139.2500,105.4100
139.8500,105.4100
139.8500,105.9500
139.2500,105.9500
Z" /> 
<path style="fill:#000000; fill-opacity:1.0000; stroke:none;fill-rule:evenodd;"
d="M 139.2500,106.2740
139.8500,106.2740
139.8500,106.8140
139.2500,106.8140
Z" /> 
<path style="fill:#000000; fill-opacity:1.0000; stroke:none;fill-rule:evenodd;"
d="M 125.1500,100.7100
125.7500,100.7100
125.7500,101.2500
125.1500,101.2500
Z" /> 
<path style="fill:#000000; fill-opacity:1.0000; stroke:none;fill-rule:evenodd;"
d="M 125.1500,101.5740
125.7500,101.5740
125.7500,102.1140
125.1500,102.1140
Z" /> 
<path style="fill:#000000; fill-opacity:1.0000; stroke:none;fill-rule:evenodd;"
d="M 129.8500,110.1100
130.4500,110.1100
130.4500,110.6500
129.8500,110.6500
Z" /> 
<path style="fill:#000000; fill-opacity:1.0000; stroke:none;fill-rule:evenodd;"
d="M 129.8500,110.9740
130.4500,110.9740
130.4500,111.5140
129.8500,111.5140
Z" /> 
<path style="fill:#000000; fill-opacity:1.0000; stroke:none;fill-rule:evenodd;"
d="M 129.8500,105.4100
130.4500,105.4100
130.4500,105.9500
129.8500,105.9500
Z" /> 
<path style="fill:#000000; fill-opacity:1.0000; stroke:none;fill-rule:evenodd;"
d="M 129.8500,106.2740
130.4500,106.2740
130.4500,106.8140
129.8500,106.8140
Z" /> 
<path style="fill:#000000; fill-opacity:1.0000; stroke:none;fill-rule:evenodd;"
d="M 139.2500,96.0100
139.8500,96.0100
139.8500,96.5500
139.2500,96.5500
Z" /> 
<path style="fill:#000000; fill-opacity:1.0000; stroke:none;fill-rule:evenodd;"
d="M 139.2500,96.8740
139.8500,96.8740
139.8500,97.4140
139.2500,97.4140
Z" /> 
<path style="fill:#000000; fill-opacity:1.0000; stroke:none;fill-rule:evenodd;"
d="M 134.5500,110.1100
135.1500,110.1100
135.1500,110.6500
134.5500,110.6500
Z" /> 
<path style="fill:#000000; fill-opacity:1.0000; stroke:none;fill-rule:evenodd;"
d="M 134.5500,110.9740
135.1500,110.9740
135.1500,111.5140
134.5500,111.5140
Z" /> 
<path style="fill:#000000; fill-opacity:1.0000; stroke:none;fill-rule:evenodd;"
d="M 125.1500,105.4100
125.7500,105.4100
125.7500,105.9500
125.1500,105.9500
Z" /> 
<path style="fill:#000000; fill-opacity:1.0000; stroke:none;fill-rule:evenodd;"
d="M 125.1500,106.2740
125.7500,106.2740
125.7500,106.8140
125.1500,106.8140
Z" /> 
</g>
<g style="fill:#000000; fill-opacity:1.0000; stroke:none;">
<circle cx="137.8260" cy="96.9620" r="0.2286" /> 
<circle cx="128.5000" cy="110.6500" r="0.2286" /> 
<circle cx="128.5000" cy="96.5500" r="0.2286" /> 
<circle cx="134.8500" cy="102.4000" r="0.2286" /> 
<circle cx="142.6000" cy="96.5500" r="0.2286" /> 
<circle cx="126.3500" cy="111.3000" r="0.2286" /> 
<circle cx="128.7790" cy="92.2600" r="0.2286" /> 
<circle cx="131.0000" cy="111.2500" r="0.2286" /> 
<circle cx="137.9000" cy="101.2500" r="0.2286" /> 
<circle cx="140.4500" cy="101.8500" r="0.2286" /> 
<circle cx="128.5000" cy="101.2500" r="0.2286" /> 
<circle cx="131.0500" cy="101.8500" r="0.2286" /> 
<circle cx="131.0500" cy="106.5500" r="0.2286" /> 
<circle cx="134.8500" cy="97.7000" r="0.2286" /> 
<circle cx="140.4000" cy="106.5500" r="0.2286" /> 
<circle cx="142.6000" cy="110.6500" r="0.2286" /> 
<circle cx="140.2400" cy="92.2600" r="0.2286" /> 
<circle cx="133.2000" cy="96.5500" r="0.2286" /> 
<circle cx="137.9000" cy="105.9500" r="0.2286" /> 
<circle cx="142.6000" cy="105.9500" r="0.2286" /> 
<circle cx="133.2000" cy="101.2500" r="0.2286" /> 
<circle cx="142.6000" cy="101.2500" r="0.2286" /> 
<circle cx="135.7000" cy="111.2500" r="0.2286" /> 
<circle cx="140.4000" cy="111.2500" r="0.2286" /> 
<circle cx="133.2000" cy="110.6500" r="0.2286" /> 
<circle cx="140.4500" cy="97.1500" r="0.2286" /> 
<circle cx="134.8500" cy="107.1000" r="0.2286" /> 
<circle cx="126.3500" cy="101.8500" r="0.2286" /> 
<circle cx="128.5000" cy="105.9500" r="0.2286" /> 
<circle cx="133.2000" cy="105.9500" r="0.2286" /> 
<circle cx="126.3500" cy="106.5500" r="0.2286" /> 
<circle cx="126.3500" cy="97.1500" r="0.2286" /> 
<circle cx="131.0500" cy="97.1500" r="0.2286" /> 
<circle cx="137.9000" cy="110.6500" r="0.2286" /> 
<circle cx="140.5800" cy="113.1240" r="0.2286" /> 
<circle cx="130.4300" cy="94.0020" r="0.2286" /> 
<circle cx="140.4000" cy="105.1750" r="0.2286" /> 
<circle cx="130.9750" cy="109.8875" r="0.2286" /> 
<circle cx="130.9500" cy="95.7750" r="0.2286" /> 
<circle cx="135.6000" cy="95.7750" r="0.2286" /> 
<circle cx="140.1265" cy="96.0735" r="0.2286" /> 
<circle cx="139.5205" cy="94.5475" r="0.2286" /> 
<circle cx="130.9500" cy="105.1750" r="0.2286" /> 
<circle cx="126.1500" cy="109.8750" r="0.2286" /> 
<circle cx="126.2500" cy="100.4750" r="0.2286" /> 
<circle cx="126.3380" cy="96.2800" r="0.2286" /> 
<circle cx="135.6000" cy="105.2000" r="0.2286" /> 
<circle cx="126.2500" cy="105.1750" r="0.2286" /> 
<circle cx="129.2750" cy="111.3750" r="0.2286" /> 
<circle cx="130.8750" cy="100.4750" r="0.2286" /> 
<circle cx="140.3500" cy="100.4750" r="0.2286" /> 
<circle cx="135.6000" cy="109.9000" r="0.2286" /> 
<circle cx="140.3000" cy="109.8750" r="0.2286" /> 
<circle cx="135.6000" cy="100.4750" r="0.2286" /> 
<circle cx="135.0810" cy="93.2900" r="0.2286" /> 
<circle cx="137.8490" cy="96.0470" r="0.2286" /> 
<circle cx="137.8490" cy="96.0470" r="0.2286" /> 
</g>
<g style="fill:none; 
stroke:#000000; stroke-width:0.1524; stroke-opacity:1; 
stroke-linecap:round; stroke-linejoin:round;">
<path d="M130.1500 101.8440
L131.0440 101.8440
" />
<path d="M131.0440 106.5440
L131.0500 106.5500
" />
<path d="M131.0440 101.8440
L131.0500 101.8500
" />
<path d="M140.4440 97.1440
L140.4500 97.1500
" />
<path d="M134.8500 97.1440
L134.8500 97.7000
" />
<path d="M139.5500 106.5440
L140.3940 106.5440
" />
<path d="M130.1500 111.2440
L130.9940 111.2440
" />
<path d="M126.2820 111.2320
L126.3500 111.3000
" />
<path d="M135.6940 111.2440
L135.7000 111.2500
" />
<path d="M125.4500 101.8440
L126.3440 101.8440
" />
<path d="M130.9940 111.2440
L131.0000 111.2500
" />
<path d="M131.0440 97.1440
L131.0500 97.1500
" />
<path d="M130.1500 106.5440
L131.0440 106.5440
" />
<path d="M134.8500 101.8440
L134.8500 102.4000
" />
<path d="M140.3940 106.5440
L140.4000 106.5500
" />
<path d="M140.4440 101.8440
L140.4500 101.8500
" />
<path d="M130.1500 97.1440
L131.0440 97.1440
" />
<path d="M139.5500 97.1440
L140.4440 97.1440
" />
<path d="M139.5500 101.8440
L140.4440 101.8440
" />
<path d="M126.3440 97.1440
L126.3500 97.1500
" />
<path d="M134.8500 111.2440
L135.6940 111.2440
" />
<path d="M125.4500 111.2320
L126.2820 111.2320
" />
<path d="M126.3440 101.8440
L126.3500 101.8500
" />
<path d="M126.3440 106.5440
L126.3500 106.5500
" />
<path d="M140.3940 111.2440
L140.4000 111.2500
" />
<path d="M134.8500 106.5440
L134.8500 107.1000
" />
<path d="M139.5500 111.2440
L140.3940 111.2440
" />
<path d="M125.4500 97.1440
L126.3440 97.1440
" />
<path d="M125.4500 106.5440
L126.3440 106.5440
" />
<path d="M139.8450 100.9800
L140.3500 100.4750
" />
<path d="M139.5500 100.9800
L139.8450 100.9800
" />
<path d="M125.7450 105.6800
L126.2500 105.1750
" />
<path d="M136.3300 96.5050
L135.6000 95.7750
" />
<path d="M125.6570 110.3680
L126.1500 109.8750
" />
<path d="M139.6950 96.5050
L136.3300 96.5050
" />
<path d="M126.1625 109.8875
L126.1500 109.8750
" />
<path d="M125.4500 110.3680
L125.6570 110.3680
" />
<path d="M135.6000 105.2000
L135.6000 100.4750
" />
<path d="M135.6000 109.9000
L140.2750 109.9000
" />
<path d="M129.2750 110.2000
L129.2750 111.3750
" />
<path d="M130.8750 100.4750
L126.2500 100.4750
" />
<path d="M134.8500 105.6800
L135.1200 105.6800
" />
<path d="M140.3750 105.2000
L140.4000 105.1750
" />
<path d="M135.0950 100.9800
L135.6000 100.4750
" />
<path d="M130.1500 105.6800
L130.4450 105.6800
" />
<path d="M135.6000 100.4750
L135.6000 95.7750
" />
<path d="M135.6000 100.4750
L140.3500 100.4750
" />
<path d="M130.9500 95.7750
L126.8430 95.7750
" />
<path d="M130.4450 96.2800
L130.9500 95.7750
" />
<path d="M135.6000 95.7750
L130.9500 95.7750
" />
<path d="M135.6000 105.2000
L130.9750 105.2000
" />
<path d="M130.1500 100.9800
L130.3700 100.9800
" />
<path d="M135.6000 109.9000
L130.9875 109.9000
" />
<path d="M130.3700 100.9800
L130.8750 100.4750
" />
<path d="M125.4500 105.6800
L125.7450 105.6800
" />
<path d="M130.4450 105.6800
L130.9500 105.1750
" />
<path d="M130.4825 110.3800
L130.9750 109.8875
" />
<path d="M139.5205 94.5475
L140.4250 95.4520
" />
<path d="M130.9750 109.8875
L129.6000 109.8875
" />
<path d="M135.6000 109.9000
L135.6000 105.2000
" />
<path d="M139.5500 105.6800
L139.8950 105.6800
" />
<path d="M135.6000 105.2000
L140.3750 105.2000
" />
<path d="M126.8430 95.7750
L126.3380 96.2800
" />
<path d="M135.1200 110.3800
L135.6000 109.9000
" />
<path d="M139.9200 96.2800
L139.5500 96.2800
" />
<path d="M135.6000 100.4750
L130.8750 100.4750
" />
<path d="M125.4500 100.9800
L125.7450 100.9800
" />
<path d="M139.8950 105.6800
L140.4000 105.1750
" />
<path d="M140.1265 96.0735
L139.9200 96.2800
" />
<path d="M140.4250 95.7750
L140.1265 96.0735
" />
<path d="M130.1500 110.3800
L130.4825 110.3800
" />
<path d="M129.6000 109.8875
L126.1625 109.8875
" />
<path d="M139.5500 110.3800
L139.7950 110.3800
" />
<path d="M140.1265 96.0735
L139.6950 96.5050
" />
<path d="M130.1500 96.2800
L130.4450 96.2800
" />
<path d="M130.9875 109.9000
L130.9750 109.8875
" />
<path d="M140.4250 95.4520
L140.4250 95.7750
" />
<path d="M125.7450 100.9800
L126.2500 100.4750
" />
<path d="M129.6000 109.8875
L129.5875 109.8875
" />
<path d="M134.8500 100.9800
L135.0950 100.9800
" />
<path d="M134.8500 110.3800
L135.1200 110.3800
" />
<path d="M129.5875 109.8875
L129.2750 110.2000
" />
<path d="M135.1200 105.6800
L135.6000 105.2000
" />
<path d="M139.7950 110.3800
L140.3000 109.8750
" />
<path d="M130.9500 105.1750
L126.2500 105.1750
" />
<path d="M135.0950 96.2800
L135.6000 95.7750
" />
<path d="M134.8500 96.2800
L135.0950 96.2800
" />
<path d="M130.9750 105.2000
L130.9500 105.1750
" />
<path d="M140.2750 109.9000
L140.3000 109.8750
" />
<path d="M126.3380 96.2800
L125.4500 96.2800
" />
<path d="M135.0810 93.2900
L135.1790 93.3880
" />
<path d="M135.1900 93.3880
L137.8490 96.0470
" />
<path d="M135.1790 93.3880
L135.1900 93.3880
" />
<path style="fill:#000000; fill-opacity:1.0000; stroke:none;fill-rule:evenodd;"
d="M 124.9610,91.2087
124.9700,91.2105
124.9700,91.2105
143.9731,91.2105
143.9939,91.2105
144.0061,91.2111
144.1633,91.2266
144.1872,91.2313
144.3325,91.2754
144.3550,91.2847
144.4890,91.3563
144.5092,91.3698
144.6266,91.4662
144.6438,91.4834
144.7402,91.6008
144.7537,91.6210
144.8253,91.7550
144.8346,91.7775
144.8787,91.9228
144.8834,91.9467
144.8989,92.1039
144.8995,92.1161
144.8995,113.0939
144.8989,113.1061
144.8834,113.2633
144.8787,113.2872
144.8346,113.4325
144.8253,113.4550
144.7537,113.5890
144.7402,113.6092
144.6438,113.7266
144.6266,113.7438
144.5092,113.8402
144.4890,113.8537
144.3550,113.9253
144.3325,113.9346
144.1872,113.9787
144.1633,113.9834
144.0474,113.9948
144.0061,113.9989
143.9939,113.9995
125.0061,113.9995
124.9939,113.9989
124.8367,113.9834
124.8128,113.9787
124.6675,113.9346
124.6450,113.9253
124.5110,113.8537
124.4908,113.8402
124.3734,113.7438
124.3562,113.7266
124.2598,113.6092
124.2463,113.5890
124.2345,113.5669
124.1747,113.4550
124.1654,113.4325
124.1213,113.2872
124.1166,113.2633
124.1011,113.1061
124.1005,113.0939
124.1005,113.0566
124.1005,113.0564
124.0998,111.5498
124.6500,111.5498
124.6564,111.6094
124.6564,111.6094
124.7066,111.7441
124.7066,111.7441
124.7928,111.8592
124.7928,111.8592
124.9079,111.9453
124.9079,111.9454
125.0426,111.9956
125.0426,111.9956
125.1022,112.0020
125.1022,112.0020
125.2000,112.0020
125.7000,112.0020
125.7978,112.0020
125.7978,112.0020
125.8574,111.9956
125.8574,111.9956
125.9921,111.9454
125.9921,111.9453
126.1072,111.8592
126.1072,111.8592
126.1933,111.7441
126.1934,111.7441
126.2436,111.6094
126.2436,111.6094
126.2500,111.5498
126.2500,111.5498
126.2500,111.4820
125.7000,111.4820
125.7000,112.0020
125.2000,112.0020
125.2000,111.4820
124.6500,111.4820
124.6500,111.5498
124.0998,111.5498
124.0997,111.4307
124.0994,110.8391
124.0975,106.8618
124.6500,106.8618
124.6564,106.9214
124.6564,106.9214
124.7066,107.0561
124.7066,107.0561
124.7928,107.1712
124.7928,107.1712
124.9079,107.2573
124.9079,107.2574
125.0426,107.3076
125.0426,107.3076
125.1022,107.3140
125.1022,107.3140
125.2000,107.3140
125.7000,107.3140
125.7978,107.3140
125.7978,107.3140
125.8574,107.3076
125.8574,107.3076
125.9921,107.2574
125.9921,107.2573
126.1072,107.1712
126.1072,107.1712
126.1933,107.0561
126.1934,107.0561
126.2436,106.9214
126.2436,106.9214
126.2500,106.8618
129.3500,106.8618
129.3564,106.9214
129.3564,106.9214
129.4066,107.0561
129.4066,107.0561
129.4928,107.1712
129.4928,107.1712
129.6079,107.2573
129.6079,107.2574
129.7426,107.3076
129.7426,107.3076
129.8022,107.3140
129.8022,107.3140
129.9000,107.3140
130.4000,107.3140
130.4978,107.3140
130.4978,107.3140
130.5574,107.3076
130.5574,107.3076
130.6921,107.2574
130.6921,107.2573
130.8072,107.1712
130.8072,107.1712
130.8933,107.0561
130.8934,107.0561
130.9436,106.9214
130.9436,106.9214
130.9500,106.8618
134.0500,106.8618
134.0564,106.9214
134.0564,106.9214
134.1066,107.0561
134.1066,107.0561
134.1928,107.1712
134.1928,107.1712
134.3079,107.2573
134.3079,107.2574
134.4426,107.3076
134.4426,107.3076
134.5022,107.3140
134.5022,107.3140
134.6000,107.3140
134.6000,106.7940
134.0500,106.7940
134.0500,106.8618
130.9500,106.8618
130.9500,106.8618
130.9500,106.7940
130.4000,106.7940
130.4000,107.3140
129.9000,107.3140
129.9000,106.7940
129.3500,106.7940
129.3500,106.8618
126.2500,106.8618
126.2500,106.8618
126.2500,106.7940
125.7000,106.7940
125.7000,107.3140
125.2000,107.3140
125.2000,106.7940
124.6500,106.7940
124.6500,106.8618
124.0975,106.8618
124.0953,102.1618
124.6500,102.1618
124.6564,102.2214
124.6564,102.2214
124.7066,102.3561
124.7066,102.3561
124.7928,102.4712
124.7928,102.4712
124.9079,102.5573
124.9079,102.5574
125.0426,102.6076
125.0426,102.6076
125.1022,102.6140
125.1022,102.6140
125.2000,102.6140
125.7000,102.6140
125.7978,102.6140
125.7978,102.6140
125.8574,102.6076
125.8574,102.6076
125.9921,102.5574
125.9921,102.5573
126.1072,102.4712
126.1072,102.4712
126.1933,102.3561
126.1934,102.3561
126.2436,102.2214
126.2436,102.2214
126.2500,102.1618
129.3500,102.1618
129.3564,102.2214
129.3564,102.2214
129.4066,102.3561
129.4066,102.3561
129.4928,102.4712
129.4928,102.4712
129.6079,102.5573
129.6079,102.5574
129.7426,102.6076
129.7426,102.6076
129.8022,102.6140
129.8022,102.6140
129.9000,102.6140
130.4000,102.6140
130.4978,102.6140
130.4978,102.6140
130.5574,102.6076
130.5574,102.6076
130.6921,102.5574
130.6921,102.5573
130.8072,102.4712
130.8072,102.4712
130.8933,102.3561
130.8934,102.3561
130.9436,102.2214
130.9436,102.2214
130.9500,102.1618
134.0500,102.1618
134.0564,102.2214
134.0564,102.2214
134.1066,102.3561
134.1066,102.3561
134.1928,102.4712
134.1928,102.4712
134.3079,102.5573
134.3079,102.5574
134.4426,102.6076
134.4426,102.6076
134.5022,102.6140
134.5022,102.6140
134.6000,102.6140
134.6000,102.0940
134.0500,102.0940
134.0500,102.1618
130.9500,102.1618
130.9500,102.1618
130.9500,102.0940
130.4000,102.0940
130.4000,102.6140
129.9000,102.6140
129.9000,102.0940
129.3500,102.0940
129.3500,102.1618
126.2500,102.1618
126.2500,102.1618
126.2500,102.0940
125.7000,102.0940
125.7000,102.6140
125.2000,102.6140
125.2000,102.0940
124.6500,102.0940
124.6500,102.1618
124.0953,102.1618
124.0931,97.4618
124.6500,97.4618
124.6564,97.5214
124.6564,97.5214
124.7066,97.6561
124.7066,97.6561
124.7928,97.7712
124.7928,97.7712
124.9079,97.8573
124.9079,97.8574
125.0426,97.9076
125.0426,97.9076
125.1022,97.9140
125.1022,97.9140
125.2000,97.9140
125.7000,97.9140
125.7978,97.9140
125.7978,97.9140
125.8574,97.9076
125.8574,97.9076
125.9921,97.8574
125.9921,97.8573
126.1072,97.7712
126.1072,97.7712
126.1933,97.6561
126.1934,97.6561
126.2436,97.5214
126.2436,97.5214
126.2500,97.4618
129.3500,97.4618
129.3564,97.5214
129.3564,97.5214
129.4066,97.6561
129.4066,97.6561
129.4928,97.7712
129.4928,97.7712
129.6079,97.8573
129.6079,97.8574
129.7426,97.9076
129.7426,97.9076
129.8022,97.9140
129.8022,97.9140
129.9000,97.9140
130.4000,97.9140
130.4978,97.9140
130.4978,97.9140
130.5574,97.9076
130.5574,97.9076
130.6921,97.8574
130.6921,97.8573
130.8072,97.7712
130.8072,97.7712
130.8933,97.6561
130.8934,97.6561
130.9436,97.5214
130.9436,97.5214
130.9500,97.4618
134.0500,97.4618
134.0564,97.5214
134.0564,97.5214
134.1066,97.6561
134.1066,97.6561
134.1928,97.7712
134.1928,97.7712
134.3079,97.8573
134.3079,97.8574
134.4426,97.9076
134.4426,97.9076
134.5022,97.9140
134.5022,97.9140
134.6000,97.9140
134.6000,97.3940
134.0500,97.3940
134.0500,97.4618
130.9500,97.4618
130.9500,97.4618
130.9500,97.3940
130.4000,97.3940
130.4000,97.9140
129.9000,97.9140
129.9000,97.3940
129.3500,97.3940
129.3500,97.4618
126.2500,97.4618
126.2500,97.4618
126.2500,97.3940
125.7000,97.3940
125.7000,97.9140
125.2000,97.9140
125.2000,97.3940
124.6500,97.3940
124.6500,97.4618
124.0931,97.4618
124.0923,95.9621
124.6495,95.9621
124.6495,95.9621
124.6495,95.9621
124.6495,96.5979
124.6495,96.5979
124.6559,96.6575
124.6603,96.6694
124.6653,96.7391
124.6603,96.7560
124.6564,96.7666
124.6564,96.7666
124.6500,96.8262
124.6500,96.8940
124.7331,96.8940
124.8001,96.9137
124.8074,96.9187
124.9059,96.9925
124.9077,96.9938
124.9077,96.9938
124.9487,97.0091
125.0425,97.0441
125.1021,97.0505
125.7979,97.0505
125.8575,97.0441
125.9923,96.9938
125.9941,96.9925
125.9962,96.9917
126.0001,96.9895
126.0004,96.9901
126.0596,96.9680
126.1159,96.9772
126.1253,96.9811
126.2662,97.0091
126.2662,97.0091
126.2662,97.0091
126.4098,97.0091
126.4098,97.0091
126.5507,96.9811
126.6834,96.9261
126.8028,96.8463
126.9043,96.7448
126.9841,96.6254
127.0391,96.4927
127.0671,96.3518
127.0671,96.2082
127.0671,96.2082
127.0436,96.0899
127.0498,96.0203
127.0927,95.9651
127.1585,95.9419
127.1652,95.9417
129.2255,95.9417
129.2925,95.9614
129.3383,96.0142
129.3495,96.0657
129.3495,96.5979
129.3495,96.5979
129.3559,96.6575
129.3603,96.6694
129.3653,96.7391
129.3603,96.7560
129.3564,96.7666
129.3564,96.7666
129.3500,96.8262
129.3500,96.8940
129.4331,96.8940
129.5001,96.9137
129.5074,96.9187
129.6059,96.9925
129.6077,96.9938
129.6077,96.9938
129.6487,97.0091
129.7425,97.0441
129.8021,97.0505
130.4979,97.0505
130.5575,97.0441
130.6923,96.9938
130.7926,96.9187
130.8581,96.8943
130.8669,96.8940
130.9500,96.8940
130.9500,96.8262
130.9500,96.8262
130.9436,96.7666
130.9397,96.7561
130.9339,96.6903
130.9358,96.6796
130.9441,96.6575
130.9500,96.6025
130.9508,96.5980
130.9646,96.5708
130.9762,96.5426
130.9802,96.5399
130.9823,96.5356
131.0086,96.5201
131.0336,96.5027
131.0418,96.5006
131.0425,96.5001
131.0433,96.5002
131.0486,96.4988
131.0835,96.4918
131.1627,96.4761
131.2954,96.4211
131.4148,96.3413
131.5163,96.2398
131.5961,96.1204
131.6384,96.0182
131.6823,95.9638
131.7486,95.9418
131.7530,95.9417
133.9255,95.9417
133.9925,95.9614
134.0383,96.0142
134.0495,96.0657
134.0495,96.5979
134.0495,96.5979
134.0559,96.6575
134.0603,96.6694
134.0653,96.7391
134.0603,96.7560
134.0564,96.7666
134.0564,96.7666
134.0500,96.8262
134.0500,96.8940
134.1331,96.8940
134.2001,96.9137
134.2074,96.9187
134.3059,96.9925
134.3077,96.9938
134.3077,96.9938
134.3487,97.0091
134.4425,97.0441
134.5021,97.0505
135.1979,97.0505
135.2575,97.0441
135.2660,97.0409
135.2966,97.0387
135.3269,97.0344
135.3311,97.0363
135.3357,97.0359
135.3626,97.0506
135.3905,97.0634
135.3930,97.0672
135.3970,97.0694
135.4117,97.0964
135.4283,97.1222
135.4292,97.1284
135.4305,97.1307
135.4333,97.1571
135.4333,97.2700
135.4136,97.3370
135.3608,97.3828
135.3093,97.3940
135.1000,97.3940
135.1000,97.9140
135.1978,97.9140
135.1978,97.9140
135.2574,97.9076
135.2574,97.9076
135.2660,97.9044
135.3357,97.8994
135.3970,97.9329
135.4305,97.9942
135.4333,98.0206
135.4333,99.6720
135.4136,99.7391
135.3608,99.7848
135.3568,99.7866
135.2546,99.8289
135.2546,99.8289
135.1352,99.9087
135.1352,99.9087
135.0337,100.0102
135.0337,100.0102
134.9539,100.1296
134.9539,100.1296
134.9525,100.1330
134.9513,100.1344
134.9510,100.1350
134.9509,100.1350
134.9087,100.1874
134.8424,100.2094
134.8379,100.2095
134.5021,100.2095
134.5021,100.2095
134.4425,100.2159
134.3077,100.2662
134.3077,100.2662
134.2845,100.2836
134.2190,100.3080
134.2102,100.3083
131.6780,100.3083
131.6109,100.2886
131.5652,100.2358
131.5634,100.2318
131.5211,100.1296
131.5211,100.1296
131.4413,100.0102
131.4413,100.0102
131.3398,99.9087
131.3398,99.9087
131.2204,99.8289
131.2204,99.8289
131.0877,99.7739
131.0877,99.7739
130.9468,99.7459
130.9468,99.7459
130.8032,99.7459
130.8032,99.7459
130.6623,99.7739
130.6623,99.7739
130.5296,99.8289
130.5296,99.8289
130.4102,99.9087
130.4102,99.9087
130.3087,100.0102
130.3087,100.0102
130.2289,100.1296
130.2289,100.1296
130.2275,100.1330
130.2263,100.1344
130.2260,100.1350
130.2259,100.1350
130.1837,100.1874
130.1174,100.2094
130.1129,100.2095
129.8021,100.2095
129.8021,100.2095
129.7425,100.2159
129.6077,100.2662
129.6077,100.2662
129.5845,100.2836
129.5190,100.3080
129.5102,100.3083
127.0530,100.3083
126.9859,100.2886
126.9402,100.2358
126.9384,100.2318
126.8961,100.1296
126.8961,100.1296
126.8163,100.0102
126.8163,100.0102
126.7148,99.9087
126.7148,99.9087
126.5954,99.8289
126.5954,99.8289
126.4627,99.7739
126.4627,99.7739
126.3218,99.7459
126.3218,99.7459
126.1782,99.7459
126.1782,99.7459
126.0373,99.7739
126.0373,99.7739
125.9046,99.8289
125.9046,99.8289
125.7852,99.9087
125.7852,99.9087
125.6837,100.0102
125.6837,100.0102
125.6039,100.1296
125.6039,100.1296
125.6025,100.1330
125.6013,100.1344
125.6010,100.1350
125.6009,100.1350
125.5587,100.1874
125.4924,100.2094
125.4879,100.2095
125.1021,100.2095
125.1021,100.2095
125.0425,100.2159
124.9077,100.2662
124.9077,100.2662
124.7925,100.3525
124.7925,100.3525
124.7062,100.4677
124.7062,100.4677
124.6559,100.6025
124.6559,100.6025
124.6495,100.6621
124.6495,100.6621
124.6495,100.6621
124.6495,101.2979
124.6495,101.2979
124.6559,101.3575
124.6603,101.3694
124.6653,101.4391
124.6603,101.4560
124.6564,101.4666
124.6564,101.4666
124.6500,101.5262
124.6500,101.5940
124.7331,101.5940
124.8001,101.6137
124.8074,101.6187
124.9077,101.6938
124.9077,101.6938
124.9526,101.7106
125.0425,101.7441
125.1021,101.7505
125.7979,101.7505
125.8575,101.7441
125.9923,101.6938
126.0926,101.6187
126.1581,101.5943
126.1669,101.5940
126.2500,101.5940
126.2500,101.5262
126.2500,101.5262
126.2436,101.4666
126.2397,101.4561
126.2339,101.3903
126.2358,101.3796
126.2441,101.3575
126.2500,101.3025
126.2508,101.2980
126.2646,101.2708
126.2762,101.2426
126.2802,101.2399
126.2823,101.2356
126.3086,101.2201
126.3336,101.2027
126.3418,101.2006
126.3425,101.2001
126.3433,101.2002
126.3486,101.1988
126.3938,101.1898
126.4627,101.1761
126.5954,101.1211
126.7148,101.0413
126.8163,100.9398
126.8961,100.8204
126.9384,100.7182
126.9823,100.6638
127.0486,100.6418
127.0530,100.6417
129.2255,100.6417
129.2925,100.6614
129.3383,100.7142
129.3495,100.7657
129.3495,101.2979
129.3495,101.2979
129.3559,101.3575
129.3603,101.3694
129.3653,101.4391
129.3603,101.4560
129.3564,101.4666
129.3564,101.4666
129.3500,101.5262
129.3500,101.5940
129.4331,101.5940
129.5001,101.6137
129.5074,101.6187
129.6077,101.6938
129.6077,101.6938
129.6526,101.7106
129.7425,101.7441
129.8021,101.7505
130.4979,101.7505
130.5575,101.7441
130.6923,101.6938
130.7926,101.6187
130.8581,101.5943
130.8669,101.5940
130.9500,101.5940
130.9500,101.5262
130.9500,101.5262
130.9436,101.4666
130.9397,101.4561
130.9336,101.3917
130.9356,101.3803
130.9441,101.3575
130.9505,101.2979
130.9505,101.2934
130.9521,101.2842
130.9644,101.2591
130.9737,101.2327
130.9796,101.2281
130.9828,101.2215
131.0068,101.2070
131.0289,101.1898
131.0411,101.1862
131.0426,101.1853
131.0440,101.1853
131.0501,101.1836
131.0877,101.1761
131.2204,101.1211
131.3398,101.0413
131.4413,100.9398
131.5211,100.8204
131.5634,100.7182
131.6073,100.6638
131.6736,100.6418
131.6780,100.6417
133.9255,100.6417
133.9925,100.6614
134.0383,100.7142
134.0495,100.7657
134.0495,101.2979
134.0495,101.2979
134.0559,101.3575
134.0603,101.3694
134.0653,101.4391
134.0603,101.4560
134.0564,101.4666
134.0564,101.4666
134.0500,101.5262
134.0500,101.5940
134.1331,101.5940
134.2001,101.6137
134.2074,101.6187
134.3077,101.6938
134.3077,101.6938
134.3526,101.7106
134.4425,101.7441
134.5021,101.7505
135.1979,101.7505
135.2575,101.7441
135.2660,101.7409
135.2966,101.7387
135.3269,101.7344
135.3311,101.7363
135.3357,101.7359
135.3626,101.7506
135.3905,101.7634
135.3930,101.7672
135.3970,101.7694
135.4117,101.7964
135.4283,101.8222
135.4292,101.8284
135.4305,101.8307
135.4333,101.8571
135.4333,101.9700
135.4136,102.0370
135.3608,102.0828
135.3093,102.0940
135.1000,102.0940
135.1000,102.6140
135.1978,102.6140
135.1978,102.6140
135.2574,102.6076
135.2574,102.6076
135.2660,102.6044
135.3357,102.5994
135.3970,102.6329
135.4305,102.6942
135.4333,102.7206
135.4333,104.3970
135.4136,104.4641
135.3608,104.5098
135.3568,104.5116
135.2546,104.5539
135.2546,104.5539
135.1352,104.6337
135.1352,104.6337
135.0337,104.7352
135.0337,104.7352
134.9540,104.8544
134.9004,104.8992
134.8509,104.9095
134.5021,104.9095
134.5021,104.9095
134.4425,104.9159
134.3077,104.9662
134.3077,104.9662
134.2511,105.0086
134.1856,105.0330
134.1768,105.0333
131.7633,105.0333
131.6963,105.0136
131.6505,104.9608
131.6488,104.9568
131.5961,104.8296
131.5961,104.8296
131.5163,104.7102
131.5163,104.7102
131.4148,104.6087
131.4148,104.6087
131.2954,104.5289
131.2954,104.5289
131.1627,104.4739
131.1627,104.4739
131.0218,104.4459
131.0218,104.4459
130.8782,104.4459
130.8782,104.4459
130.7373,104.4739
130.7373,104.4739
130.6046,104.5289
130.6046,104.5289
130.4852,104.6087
130.4852,104.6087
130.3837,104.7102
130.3837,104.7102
130.3039,104.8296
130.3039,104.8296
130.3025,104.8330
130.3013,104.8344
130.3010,104.8350
130.3009,104.8350
130.2587,104.8874
130.1924,104.9094
130.1879,104.9095
129.8021,104.9095
129.8021,104.9095
129.7425,104.9159
129.6077,104.9662
129.6077,104.9662
129.5845,104.9836
129.5190,105.0080
129.5102,105.0083
127.0530,105.0083
126.9859,104.9886
126.9402,104.9358
126.9384,104.9318
126.8961,104.8296
126.8961,104.8296
126.8163,104.7102
126.8163,104.7102
126.7148,104.6087
126.7148,104.6087
126.5954,104.5289
126.5954,104.5289
126.4627,104.4739
126.4627,104.4739
126.3218,104.4459
126.3218,104.4459
126.1782,104.4459
126.1782,104.4459
126.0373,104.4739
126.0373,104.4739
125.9046,104.5289
125.9046,104.5289
125.7852,104.6087
125.7852,104.6087
125.6837,104.7102
125.6837,104.7102
125.6039,104.8296
125.6039,104.8296
125.6025,104.8330
125.6013,104.8344
125.6010,104.8350
125.6009,104.8350
125.5587,104.8874
125.4924,104.9094
125.4879,104.9095
125.1021,104.9095
125.1021,104.9095
125.0425,104.9159
124.9077,104.9662
124.9077,104.9662
124.7925,105.0525
124.7925,105.0525
124.7062,105.1677
124.7062,105.1677
124.6559,105.3025
124.6559,105.3025
124.6495,105.3621
124.6495,105.3621
124.6495,105.3621
124.6495,105.9979
124.6495,105.9979
124.6559,106.0575
124.6603,106.0694
124.6653,106.1391
124.6603,106.1560
124.6564,106.1666
124.6564,106.1666
124.6500,106.2262
124.6500,106.2940
124.7331,106.2940
124.8001,106.3137
124.8074,106.3187
124.9077,106.3938
124.9077,106.3938
124.9526,106.4106
125.0425,106.4441
125.1021,106.4505
125.7979,106.4505
125.8575,106.4441
125.9923,106.3938
126.0926,106.3187
126.1581,106.2943
126.1669,106.2940
126.2500,106.2940
126.2500,106.2262
126.2500,106.2262
126.2436,106.1666
126.2397,106.1561
126.2339,106.0903
126.2358,106.0796
126.2441,106.0575
126.2500,106.0025
126.2508,105.9980
126.2646,105.9708
126.2762,105.9426
126.2802,105.9399
126.2823,105.9356
126.3086,105.9201
126.3336,105.9027
126.3418,105.9006
126.3425,105.9001
126.3433,105.9002
126.3486,105.8988
126.3918,105.8902
126.4627,105.8761
126.5954,105.8211
126.7148,105.7413
126.8163,105.6398
126.8961,105.5204
126.9384,105.4182
126.9823,105.3638
127.0486,105.3418
127.0530,105.3417
129.2255,105.3417
129.2925,105.3614
129.3383,105.4142
129.3495,105.4657
129.3495,105.9979
129.3495,105.9979
129.3559,106.0575
129.3603,106.0694
129.3653,106.1391
129.3603,106.1560
129.3564,106.1666
129.3564,106.1666
129.3500,106.2262
129.3500,106.2940
129.4331,106.2940
129.5001,106.3137
129.5074,106.3187
129.6077,106.3938
129.6077,106.3938
129.6526,106.4106
129.7425,106.4441
129.8021,106.4505
130.4979,106.4505
130.5575,106.4441
130.6923,106.3938
130.7926,106.3187
130.8581,106.2943
130.8669,106.2940
130.9500,106.2940
130.9500,106.2262
130.9500,106.2262
130.9436,106.1666
130.9397,106.1561
130.9339,106.0903
130.9358,106.0796
130.9441,106.0575
130.9500,106.0025
130.9508,105.9980
130.9646,105.9708
130.9762,105.9426
130.9802,105.9399
130.9823,105.9356
131.0086,105.9201
131.0336,105.9027
131.0418,105.9006
131.0425,105.9001
131.0433,105.9002
131.0486,105.8988
131.0918,105.8902
131.1627,105.8761
131.2954,105.8211
131.4148,105.7413
131.5163,105.6398
131.5961,105.5204
131.6281,105.4432
131.6719,105.3888
131.7382,105.3668
131.7426,105.3667
133.9255,105.3667
133.9925,105.3864
134.0383,105.4392
134.0495,105.4907
134.0495,105.9979
134.0495,105.9979
134.0559,106.0575
134.0603,106.0694
134.0653,106.1391
134.0603,106.1560
134.0564,106.1666
134.0564,106.1666
134.0500,106.2262
134.0500,106.2940
134.1331,106.2940
134.2001,106.3137
134.2074,106.3187
134.3077,106.3938
134.3077,106.3938
134.3526,106.4106
134.4425,106.4441
134.5021,106.4505
135.1979,106.4505
135.2575,106.4441
135.2660,106.4409
135.2966,106.4387
135.3269,106.4344
135.3311,106.4363
135.3357,106.4359
135.3626,106.4506
135.3905,106.4634
135.3930,106.4672
135.3970,106.4694
135.4117,106.4964
135.4283,106.5222
135.4292,106.5284
135.4305,106.5307
135.4333,106.5571
135.4333,106.6700
135.4136,106.7370
135.3608,106.7828
135.3093,106.7940
135.1000,106.7940
135.1000,107.3140
135.1978,107.3140
135.1978,107.3140
135.2574,107.3076
135.2574,107.3076
135.2660,107.3044
135.3357,107.2994
135.3970,107.3329
135.4305,107.3942
135.4333,107.4206
135.4333,109.0970
135.4136,109.1641
135.3608,109.2098
135.3568,109.2116
135.2546,109.2539
135.2546,109.2539
135.1352,109.3337
135.1352,109.3337
135.0337,109.4352
135.0337,109.4352
134.9540,109.5544
134.9004,109.5992
134.8509,109.6095
134.5021,109.6095
134.5021,109.6095
134.4425,109.6159
134.3077,109.6662
134.3077,109.6662
134.2511,109.7086
134.1856,109.7330
134.1768,109.7333
131.7832,109.7333
131.7161,109.7136
131.6704,109.6608
131.6686,109.6568
131.6375,109.5818
131.6211,109.5421
131.6211,109.5421
131.6211,109.5421
131.5413,109.4227
131.5413,109.4227
131.4398,109.3212
131.4398,109.3212
131.3204,109.2414
131.3204,109.2414
131.1877,109.1864
131.1877,109.1864
131.0468,109.1584
131.0468,109.1584
130.9032,109.1584
130.9032,109.1584
130.7623,109.1864
130.7623,109.1864
130.6296,109.2414
130.6296,109.2414
130.5102,109.3212
130.5102,109.3212
130.4087,109.4227
130.4087,109.4227
130.3289,109.5421
130.3279,109.5440
130.3272,109.5447
130.3255,109.5472
130.3250,109.5469
130.2789,109.5938
130.2186,109.6095
129.8021,109.6095
129.8021,109.6095
129.7425,109.6159
129.6077,109.6662
129.6077,109.6662
129.5678,109.6961
129.5023,109.7205
129.4935,109.7208
126.9582,109.7208
126.8911,109.7011
126.8454,109.6483
126.8436,109.6443
126.8033,109.5469
126.7961,109.5296
126.7961,109.5296
126.7961,109.5296
126.7163,109.4102
126.7163,109.4102
126.6148,109.3087
126.6148,109.3087
126.4954,109.2289
126.4954,109.2289
126.3627,109.1739
126.3627,109.1739
126.2218,109.1459
126.2218,109.1459
126.0782,109.1459
126.0782,109.1459
125.9373,109.1739
125.9373,109.1739
125.8046,109.2289
125.8046,109.2289
125.6852,109.3087
125.6852,109.3087
125.5837,109.4102
125.5039,109.5297
125.5026,109.5320
125.5017,109.5329
125.5005,109.5347
125.5002,109.5345
125.4537,109.5818
125.3933,109.5975
125.1021,109.5975
125.1021,109.5975
125.0425,109.6039
124.9077,109.6542
124.9077,109.6542
124.7925,109.7405
124.7925,109.7405
124.7062,109.8557
124.7062,109.8557
124.6559,109.9905
124.6559,109.9905
124.6495,110.0501
124.6495,110.0501
124.6495,110.0501
124.6495,110.6859
124.6495,110.6859
124.6559,110.7455
124.6603,110.7574
124.6653,110.8271
124.6603,110.8440
124.6564,110.8546
124.6564,110.8546
124.6500,110.9142
124.6500,110.9820
124.7331,110.9820
124.8001,111.0017
124.8074,111.0067
124.9077,111.0818
124.9077,111.0818
124.9398,111.0938
125.0425,111.1321
125.1021,111.1385
125.7979,111.1385
125.8575,111.1321
125.9923,111.0818
126.0926,111.0067
126.1581,110.9823
126.1669,110.9820
126.2500,110.9820
126.2500,110.9142
126.2500,110.9142
126.2436,110.8546
126.2397,110.8441
126.2337,110.7790
126.2357,110.7679
126.2441,110.7455
126.2505,110.6859
126.2505,110.6847
126.2516,110.6786
126.2653,110.6510
126.2771,110.6225
126.2807,110.6200
126.2827,110.6161
126.3092,110.6003
126.3345,110.5827
126.3419,110.5807
126.3427,110.5803
126.3435,110.5803
126.3495,110.5787
126.3627,110.5761
126.4954,110.5211
126.6148,110.4413
126.7163,110.3398
126.7961,110.2204
126.8084,110.1907
126.8332,110.1307
126.8771,110.0763
126.9434,110.0543
126.9478,110.0542
128.9843,110.0542
129.0513,110.0739
129.0971,110.1267
129.1083,110.1782
129.1083,110.5720
129.0886,110.6391
129.0358,110.6848
129.0318,110.6866
128.9296,110.7289
128.9296,110.7289
128.8102,110.8087
128.8102,110.8087
128.7087,110.9102
128.7087,110.9102
128.6289,111.0296
128.6289,111.0296
128.5739,111.1623
128.5739,111.1623
128.5459,111.3032
128.5459,111.4468
128.5739,111.5877
128.5739,111.5877
128.6289,111.7204
128.6289,111.7204
128.7087,111.8398
128.7087,111.8398
128.8102,111.9413
128.8102,111.9413
128.9296,112.0211
128.9296,112.0211
128.9296,112.0211
129.0623,112.0761
129.2032,112.1041
129.2032,112.1041
129.2032,112.1041
129.3468,112.1041
129.3468,112.1041
129.4877,112.0761
129.6204,112.0211
129.6244,112.0184
129.6910,111.9976
129.7366,112.0054
129.7426,112.0076
129.7426,112.0076
129.8022,112.0140
129.8022,112.0140
129.9000,112.0140
130.4000,112.0140
130.4978,112.0140
130.4978,112.0140
130.5574,112.0076
130.5574,112.0076
130.6921,111.9574
130.6921,111.9573
130.8072,111.8712
130.8072,111.8712
130.8933,111.7561
130.8934,111.7561
130.9436,111.6214
130.9436,111.6214
130.9500,111.5618
134.0500,111.5618
134.0564,111.6214
134.0564,111.6214
134.1066,111.7561
134.1066,111.7561
134.1928,111.8712
134.1928,111.8712
134.3079,111.9573
134.3079,111.9574
134.4426,112.0076
134.4426,112.0076
134.5022,112.0140
134.5022,112.0140
134.6000,112.0140
135.1000,112.0140
135.1978,112.0140
135.1978,112.0140
135.2574,112.0076
135.2574,112.0076
135.3921,111.9574
135.3921,111.9573
135.5072,111.8712
135.5072,111.8712
135.5933,111.7561
135.5934,111.7561
135.6436,111.6214
135.6436,111.6214
135.6500,111.5618
138.7500,111.5618
138.7564,111.6214
138.7564,111.6214
138.8066,111.7561
138.8066,111.7561
138.8928,111.8712
138.8928,111.8712
139.0079,111.9573
139.0079,111.9574
139.1426,112.0076
139.1426,112.0076
139.2022,112.0140
139.2022,112.0140
139.3000,112.0140
139.8000,112.0140
139.8978,112.0140
139.8978,112.0140
139.9574,112.0076
139.9574,112.0076
140.0921,111.9574
140.0921,111.9573
140.2072,111.8712
140.2072,111.8712
140.2934,111.7561
140.2934,111.7561
140.3436,111.6214
140.3436,111.6214
140.3500,111.5618
140.3500,111.5618
140.3500,111.4940
139.8000,111.4940
139.8000,112.0140
139.3000,112.0140
139.3000,111.4940
138.7500,111.4940
138.7500,111.5618
135.6500,111.5618
135.6500,111.5618
135.6500,111.4940
135.1000,111.4940
135.1000,112.0140
134.6000,112.0140
134.6000,111.4940
134.0500,111.4940
134.0500,111.5618
130.9500,111.5618
130.9500,111.5618
130.9500,111.4940
130.4000,111.4940
130.4000,112.0140
129.9000,112.0140
129.9000,111.7896
129.9187,111.7260
129.9183,111.7257
129.9194,111.7237
129.9197,111.7225
129.9209,111.7207
129.9211,111.7204
129.9761,111.5877
130.0041,111.4468
130.0041,111.3680
130.0238,111.3010
130.0766,111.2552
130.1281,111.2440
130.1500,111.2440
130.1627,111.2313
130.1697,111.2075
130.2225,111.1617
130.2740,111.1505
130.4979,111.1505
130.4979,111.1505
130.5575,111.1441
130.6923,111.0938
130.7926,111.0187
130.8581,110.9943
130.8669,110.9940
130.9500,110.9940
130.9500,110.9262
130.9500,110.9262
130.9436,110.8666
130.9397,110.8561
130.9343,110.7882
130.9362,110.7786
130.9441,110.7575
130.9482,110.7193
130.9493,110.7137
130.9630,110.6876
130.9743,110.6604
130.9792,110.6571
130.9819,110.6519
131.0075,110.6374
131.0317,110.6206
131.0421,110.6178
131.0427,110.6175
131.0433,110.6175
131.0467,110.6166
131.0468,110.6166
131.0468,110.6166
131.1877,110.5886
131.3204,110.5336
131.4398,110.4538
131.5413,110.3523
131.6211,110.2329
131.6263,110.2204
131.6582,110.1432
131.7021,110.0888
131.7684,110.0668
131.7728,110.0667
133.9255,110.0667
133.9925,110.0864
134.0383,110.1392
134.0495,110.1907
134.0495,110.6979
134.0495,110.6979
134.0559,110.7575
134.0603,110.7694
134.0653,110.8391
134.0603,110.8560
134.0564,110.8666
134.0564,110.8666
134.0500,110.9262
134.0500,110.9940
134.1331,110.9940
134.2001,111.0137
134.2074,111.0187
134.3077,111.0938
134.3077,111.0938
134.3526,111.1106
134.4425,111.1441
134.5021,111.1505
135.1979,111.1505
135.2575,111.1441
135.3923,111.0938
135.4926,111.0187
135.5581,110.9943
135.5669,110.9940
135.6500,110.9940
135.6500,110.9262
135.6500,110.9262
135.6436,110.8666
135.6397,110.8561
135.6342,110.7885
135.6362,110.7787
135.6441,110.7575
135.6484,110.7170
135.6495,110.7116
135.6632,110.6853
135.6746,110.6580
135.6793,110.6547
135.6819,110.6497
135.7076,110.6350
135.7320,110.6181
135.7420,110.6155
135.7426,110.6151
135.7433,110.6151
135.7469,110.6142
135.8127,110.6011
135.9454,110.5461
136.0648,110.4663
136.1663,110.3648
136.2461,110.2454
136.2884,110.1432
136.3323,110.0888
136.3986,110.0668
136.4030,110.0667
138.6255,110.0667
138.6925,110.0864
138.7383,110.1392
138.7495,110.1907
138.7495,110.6979
138.7495,110.6979
138.7559,110.7575
138.7603,110.7694
138.7653,110.8391
138.7603,110.8560
138.7564,110.8666
138.7564,110.8666
138.7500,110.9262
138.7500,110.9940
138.8331,110.9940
138.9001,111.0137
138.9074,111.0187
139.0077,111.0938
139.0077,111.0938
139.0526,111.1106
139.1425,111.1441
139.2021,111.1505
139.8979,111.1505
139.9575,111.1441
140.0923,111.0938
140.1926,111.0187
140.2581,110.9943
140.2669,110.9940
140.3500,110.9940
140.3500,110.9262
140.3500,110.9262
140.3436,110.8666
140.3397,110.8561
140.3337,110.7912
140.3357,110.7800
140.3441,110.7575
140.3505,110.6979
140.3505,110.6959
140.3518,110.6887
140.3655,110.6610
140.3773,110.6324
140.3809,110.6300
140.3828,110.6261
140.4093,110.6102
140.4347,110.5926
140.4420,110.5907
140.4427,110.5902
140.4436,110.5902
140.4497,110.5886
140.4705,110.5845
140.5127,110.5761
140.6454,110.5211
140.7648,110.4413
140.8663,110.3398
140.9461,110.2204
141.0011,110.0877
141.0291,109.9468
141.0291,109.8032
141.0291,109.8032
141.0291,109.8032
141.0166,109.7405
141.0011,109.6623
140.9565,109.5546
140.9461,109.5296
140.9461,109.5296
140.8663,109.4102
140.8663,109.4102
140.7648,109.3087
140.7648,109.3087
140.6454,109.2289
140.6454,109.2289
140.5127,109.1739
140.5127,109.1739
140.3718,109.1459
140.3718,109.1459
140.2282,109.1459
140.2282,109.1459
140.0873,109.1739
140.0873,109.1739
139.9546,109.2289
139.9546,109.2289
139.8352,109.3087
139.8352,109.3087
139.7337,109.4102
139.7337,109.4102
139.6539,109.5296
139.6539,109.5296
139.6525,109.5330
139.6513,109.5344
139.6510,109.5350
139.6509,109.5350
139.6087,109.5874
139.5424,109.6094
139.5379,109.6095
139.2021,109.6095
139.2021,109.6095
139.1425,109.6159
139.0077,109.6662
139.0077,109.6662
138.9511,109.7086
138.8856,109.7330
138.8768,109.7333
136.4030,109.7333
136.3359,109.7136
136.2902,109.6608
136.2884,109.6568
136.2461,109.5546
136.2461,109.5546
136.1663,109.4352
136.1663,109.4352
136.0648,109.3337
136.0648,109.3337
135.9454,109.2539
135.9454,109.2539
135.8432,109.2116
135.7888,109.1677
135.7668,109.1014
135.7667,109.0970
135.7667,106.8618
138.7500,106.8618
138.7564,106.9214
138.7564,106.9214
138.8066,107.0561
138.8066,107.0561
138.8928,107.1712
138.8928,107.1712
139.0079,107.2573
139.0079,107.2574
139.1426,107.3076
139.1426,107.3076
139.2022,107.3140
139.2022,107.3140
139.3000,107.3140
139.8000,107.3140
139.8978,107.3140
139.8978,107.3140
139.9574,107.3076
139.9574,107.3076
140.0921,107.2574
140.0921,107.2573
140.2072,107.1712
140.2072,107.1712
140.2934,107.0561
140.2934,107.0561
140.3436,106.9214
140.3436,106.9214
140.3500,106.8618
140.3500,106.8618
140.3500,106.7940
139.8000,106.7940
139.8000,107.3140
139.3000,107.3140
139.3000,106.7940
138.7500,106.7940
138.7500,106.8618
135.7667,106.8618
135.7667,106.0030
135.7864,105.9359
135.8392,105.8902
135.8432,105.8884
135.9454,105.8461
136.0648,105.7663
136.1663,105.6648
136.2461,105.5454
136.2884,105.4432
136.3323,105.3888
136.3986,105.3668
136.4030,105.3667
138.6255,105.3667
138.6925,105.3864
138.7383,105.4392
138.7495,105.4907
138.7495,105.9979
138.7495,105.9979
138.7559,106.0575
138.7603,106.0694
138.7653,106.1391
138.7603,106.1560
138.7564,106.1666
138.7564,106.1666
138.7500,106.2262
138.7500,106.2940
138.8331,106.2940
138.9001,106.3137
138.9074,106.3187
139.0077,106.3938
139.0077,106.3938
139.0526,106.4106
139.1425,106.4441
139.2021,106.4505
139.8979,106.4505
139.9575,106.4441
140.0923,106.3938
140.1926,106.3187
140.2581,106.2943
140.2669,106.2940
140.3500,106.2940
140.3500,106.2262
140.3500,106.2262
140.3436,106.1666
140.3397,106.1561
140.3340,106.0895
140.3360,106.0792
140.3441,106.0575
140.3492,106.0098
140.3502,106.0049
140.3639,105.9781
140.3754,105.9503
140.3797,105.9473
140.3820,105.9427
140.4081,105.9276
140.4328,105.9104
140.4396,105.9093
140.4425,105.9077
140.4484,105.9079
140.4658,105.9051
140.4657,105.9047
140.4718,105.9041
140.4718,105.9041
140.6127,105.8761
140.7454,105.8211
140.8648,105.7413
140.9663,105.6398
141.0461,105.5204
141.1011,105.3877
141.1291,105.2468
141.1291,105.1032
141.1291,105.1032
141.1291,105.1032
141.1190,105.0525
141.1011,104.9623
141.0565,104.8546
141.0461,104.8296
141.0461,104.8296
140.9663,104.7102
140.9663,104.7102
140.8648,104.6087
140.8648,104.6087
140.7454,104.5289
140.7454,104.5289
140.6127,104.4739
140.6127,104.4739
140.4718,104.4459
140.4718,104.4459
140.3282,104.4459
140.3282,104.4459
140.1873,104.4739
140.1873,104.4739
140.0546,104.5289
140.0546,104.5289
139.9352,104.6087
139.9352,104.6087
139.8337,104.7102
139.8337,104.7102
139.7539,104.8296
139.7539,104.8296
139.7525,104.8330
139.7513,104.8344
139.7510,104.8350
139.7509,104.8350
139.7087,104.8874
139.6424,104.9094
139.6379,104.9095
139.2021,104.9095
139.2021,104.9095
139.1425,104.9159
139.0077,104.9662
139.0077,104.9662
138.9511,105.0086
138.8856,105.0330
138.8768,105.0333
136.4030,105.0333
136.3359,105.0136
136.2902,104.9608
136.2884,104.9568
136.2461,104.8546
136.2461,104.8546
136.1663,104.7352
136.1663,104.7352
136.0648,104.6337
136.0648,104.6337
135.9454,104.5539
135.9454,104.5539
135.8432,104.5116
135.7888,104.4677
135.7668,104.4014
135.7667,104.3970
135.7667,102.1618
138.7500,102.1618
138.7564,102.2214
138.7564,102.2214
138.8066,102.3561
138.8066,102.3561
138.8928,102.4712
138.8928,102.4712
139.0079,102.5573
139.0079,102.5574
139.1426,102.6076
139.1426,102.6076
139.2022,102.6140
139.2022,102.6140
139.3000,102.6140
139.8000,102.6140
139.8978,102.6140
139.8978,102.6140
139.9574,102.6076
139.9574,102.6076
140.0921,102.5574
140.0921,102.5573
140.2072,102.4712
140.2072,102.4712
140.2934,102.3561
140.2934,102.3561
140.3436,102.2214
140.3436,102.2214
140.3500,102.1618
140.3500,102.1618
140.3500,102.0940
139.8000,102.0940
139.8000,102.6140
139.3000,102.6140
139.3000,102.0940
138.7500,102.0940
138.7500,102.1618
135.7667,102.1618
135.7667,101.2780
135.7864,101.2109
135.8392,101.1652
135.8432,101.1634
135.9454,101.1211
136.0648,101.0413
136.1663,100.9398
136.2461,100.8204
136.2884,100.7182
136.3323,100.6638
136.3986,100.6418
136.4030,100.6417
138.6255,100.6417
138.6925,100.6614
138.7383,100.7142
138.7495,100.7657
138.7495,101.2979
138.7495,101.2979
138.7559,101.3575
138.7603,101.3694
138.7653,101.4391
138.7603,101.4560
138.7564,101.4666
138.7564,101.4666
138.7500,101.5262
138.7500,101.5940
138.8331,101.5940
138.9001,101.6137
138.9074,101.6187
139.0077,101.6938
139.0077,101.6938
139.0526,101.7106
139.1425,101.7441
139.2021,101.7505
139.8979,101.7505
139.9575,101.7441
140.0923,101.6938
140.1926,101.6187
140.2581,101.5943
140.2669,101.5940
140.3500,101.5940
140.3500,101.5262
140.3500,101.5262
140.3436,101.4666
140.3397,101.4561
140.3339,101.3903
140.3358,101.3796
140.3441,101.3575
140.3500,101.3025
140.3508,101.2980
140.3646,101.2708
140.3762,101.2426
140.3802,101.2399
140.3823,101.2356
140.4086,101.2201
140.4336,101.2027
140.4418,101.2006
140.4425,101.2001
140.4433,101.2002
140.4486,101.1988
140.4938,101.1898
140.5627,101.1761
140.6954,101.1211
140.8148,101.0413
140.9163,100.9398
140.9961,100.8204
141.0511,100.6877
141.0791,100.5468
141.0791,100.4032
141.0791,100.4032
141.0791,100.4032
141.0690,100.3525
141.0511,100.2623
140.9983,100.1350
140.9961,100.1296
140.9961,100.1296
140.9163,100.0102
140.9163,100.0102
140.8148,99.9087
140.8148,99.9087
140.6954,99.8289
140.6954,99.8289
140.5627,99.7739
140.5627,99.7739
140.4218,99.7459
140.4218,99.7459
140.2782,99.7459
140.2782,99.7459
140.1373,99.7739
140.1373,99.7739
140.0046,99.8289
140.0046,99.8289
139.8852,99.9087
139.8852,99.9087
139.7837,100.0102
139.7837,100.0102
139.7039,100.1296
139.7039,100.1296
139.7025,100.1330
139.7013,100.1344
139.7010,100.1350
139.7009,100.1350
139.6587,100.1874
139.5924,100.2094
139.5879,100.2095
139.2021,100.2095
139.2021,100.2095
139.1425,100.2159
139.0077,100.2662
139.0077,100.2662
138.9845,100.2836
138.9190,100.3080
138.9102,100.3083
136.4030,100.3083
136.3359,100.2886
136.2902,100.2358
136.2884,100.2318
136.2461,100.1296
136.2461,100.1296
136.1663,100.0102
136.1663,100.0102
136.0648,99.9087
136.0648,99.9087
135.9454,99.8289
135.9454,99.8289
135.8432,99.7866
135.7888,99.7427
135.7668,99.6764
135.7667,99.6720
135.7667,97.4618
138.7500,97.4618
138.7564,97.5214
138.7564,97.5214
138.8066,97.6561
138.8066,97.6561
138.8928,97.7712
138.8928,97.7712
139.0079,97.8573
139.0079,97.8574
139.1426,97.9076
139.1426,97.9076
139.2022,97.9140
139.2022,97.9140
139.3000,97.9140
139.8000,97.9140
139.8978,97.9140
139.8978,97.9140
139.9574,97.9076
139.9574,97.9076
140.0921,97.8574
140.0921,97.8573
140.2072,97.7712
140.2072,97.7712
140.2934,97.6561
140.2934,97.6561
140.3436,97.5214
140.3436,97.5214
140.3500,97.4618
140.3500,97.4618
140.3500,97.3940
139.8000,97.3940
139.8000,97.9140
139.3000,97.9140
139.3000,97.3940
138.7500,97.3940
138.7500,97.4618
135.7667,97.4618
135.7667,96.5780
135.7723,96.5588
135.7730,96.5388
135.7820,96.5260
135.7864,96.5109
135.8015,96.4978
135.8129,96.4814
135.8368,96.4672
135.8392,96.4652
135.8432,96.4634
135.9148,96.4338
135.9843,96.4263
136.0467,96.4576
136.0499,96.4607
136.1887,96.5994
136.2356,96.6463
136.2968,96.6717
137.4340,96.6717
137.4981,96.6905
137.4983,96.6903
137.4996,96.6910
137.5010,96.6914
137.5028,96.6926
137.5036,96.6931
137.6363,96.7481
137.7772,96.7761
137.7772,96.7761
137.7772,96.7761
137.9208,96.7761
137.9208,96.7761
138.0617,96.7481
138.1944,96.6931
138.1951,96.6926
138.1956,96.6924
138.1997,96.6903
138.2001,96.6910
138.2618,96.6717
138.2640,96.6717
138.6286,96.6717
138.6956,96.6914
138.7414,96.7442
138.7519,96.8090
138.7500,96.8262
138.7500,96.8940
138.8331,96.8940
138.9001,96.9137
138.9074,96.9187
139.0059,96.9925
139.0077,96.9938
139.0077,96.9938
139.0487,97.0091
139.1425,97.0441
139.2021,97.0505
139.8979,97.0505
139.9575,97.0441
140.0923,96.9938
140.1926,96.9187
140.2581,96.8943
140.2669,96.8940
140.3500,96.8940
140.3500,96.8529
140.3697,96.7859
140.4225,96.7402
140.4265,96.7384
140.4719,96.7196
140.5913,96.6398
140.6928,96.5383
140.7726,96.4189
140.8276,96.2862
140.8556,96.1453
140.8556,96.0017
140.8556,96.0017
140.8556,96.0017
140.8476,95.9614
140.8276,95.8608
140.7726,95.7281
140.7726,95.7281
140.7726,95.7281
140.6928,95.6087
140.6928,95.6087
140.6280,95.5439
140.5945,95.4826
140.5917,95.4562
140.5917,95.4188
140.5917,95.4188
140.5663,95.3576
140.5194,95.3107
140.2062,94.9974
140.1727,94.9361
140.1777,94.8664
140.1793,94.8623
140.2216,94.7602
140.2496,94.6193
140.2496,94.4757
140.2496,94.4757
140.2496,94.4757
140.2216,94.3348
140.2216,94.3348
140.1666,94.2021
140.1666,94.2021
140.1666,94.2021
140.0868,94.0827
140.0868,94.0827
139.9853,93.9812
139.9853,93.9812
139.8659,93.9014
139.8659,93.9014
139.7332,93.8464
139.7332,93.8464
139.5923,93.8184
139.5923,93.8184
139.4487,93.8184
139.4487,93.8184
139.3078,93.8464
139.3078,93.8464
139.1751,93.9014
139.1751,93.9014
139.0557,93.9812
139.0557,93.9812
138.9542,94.0827
138.9542,94.0827
138.8744,94.2021
138.8744,94.2021
138.8194,94.3348
138.8194,94.3348
138.7914,94.4757
138.7914,94.6193
138.8194,94.7602
138.8194,94.7602
138.8744,94.8929
138.8744,94.8929
138.9542,95.0123
138.9542,95.0123
139.0557,95.1138
139.0557,95.1138
139.1751,95.1936
139.1751,95.1936
139.1751,95.1936
139.3078,95.2486
139.3650,95.2600
139.3848,95.2639
139.4467,95.2963
139.4812,95.3570
139.4775,95.4268
139.4366,95.4834
139.3716,95.5090
139.3606,95.5095
139.2021,95.5095
139.2021,95.5095
139.1425,95.5159
139.0077,95.5662
139.0077,95.5662
138.8925,95.6525
138.8925,95.6525
138.8062,95.7677
138.8062,95.7677
138.7819,95.8328
138.7400,95.8888
138.6746,95.9132
138.6063,95.8983
138.5569,95.8489
138.5512,95.8369
138.5495,95.8328
138.5225,95.7677
138.4951,95.7016
138.4951,95.7016
138.4153,95.5822
138.4153,95.5822
138.3138,95.4807
138.3138,95.4807
138.1944,95.4009
138.1944,95.4009
138.0617,95.3459
138.0617,95.3459
137.9208,95.3179
137.9208,95.3179
137.7772,95.3179
137.7772,95.3179
137.6363,95.3459
137.6363,95.3459
137.5342,95.3882
137.4647,95.3957
137.4023,95.3644
137.3991,95.3613
135.7699,93.7321
135.7364,93.6708
135.7414,93.6011
135.7430,93.5971
135.7821,93.5027
135.8101,93.3618
135.8101,93.2182
135.8101,93.2182
135.8101,93.2182
135.7821,93.0773
135.7821,93.0773
135.7271,92.9446
135.7271,92.9446
135.7271,92.9446
135.6473,92.8252
135.6473,92.8252
135.5458,92.7237
135.5458,92.7237
135.4264,92.6439
135.4264,92.6439
135.2937,92.5889
135.2937,92.5889
135.1528,92.5609
135.1528,92.5609
135.0092,92.5609
135.0092,92.5609
134.8683,92.5889
134.8683,92.5889
134.7356,92.6439
134.7356,92.6439
134.6162,92.7237
134.6162,92.7237
134.5147,92.8252
134.5147,92.8252
134.4349,92.9446
134.4349,92.9446
134.3799,93.0773
134.3799,93.0773
134.3519,93.2182
134.3519,93.3618
134.3799,93.5027
134.3799,93.5027
134.4349,93.6354
134.4349,93.6354
134.5147,93.7548
134.5147,93.7548
134.6162,93.8563
134.6162,93.8563
134.7356,93.9361
134.7356,93.9361
134.7584,93.9456
134.8683,93.9911
135.0092,94.0191
135.0092,94.0191
135.0092,94.0191
135.1528,94.0191
135.1528,94.0191
135.2937,93.9911
135.4036,93.9456
135.4730,93.9381
135.5355,93.9694
135.5387,93.9724
137.1633,95.5971
137.1968,95.6584
137.1918,95.7281
137.1902,95.7322
137.1479,95.8343
137.1479,95.8343
137.1199,95.9752
137.1199,95.9752
137.1199,96.1188
137.1199,96.1188
137.1199,96.1188
137.1341,96.1901
137.1279,96.2597
137.0850,96.3149
137.0191,96.3381
137.0125,96.3383
136.4504,96.3383
136.4210,96.3297
136.3910,96.3231
136.3860,96.3194
136.3834,96.3186
136.3627,96.3020
136.2857,96.2249
136.2522,96.1636
136.2572,96.0939
136.2588,96.0898
136.2688,96.0657
136.3011,95.9877
136.3291,95.8468
136.3291,95.7032
136.3291,95.7032
136.3291,95.7032
136.3190,95.6525
136.3011,95.5623
136.2483,95.4350
136.2461,95.4296
136.2461,95.4296
136.1663,95.3102
136.1663,95.3102
136.0648,95.2087
136.0648,95.2087
135.9454,95.1289
135.9454,95.1289
135.8127,95.0739
135.8127,95.0739
135.6718,95.0459
135.6718,95.0459
135.5282,95.0459
135.5282,95.0459
135.3873,95.0739
135.3873,95.0739
135.2546,95.1289
135.2546,95.1289
135.1352,95.2087
135.1352,95.2087
135.0337,95.3102
135.0337,95.3102
134.9539,95.4296
134.9539,95.4296
134.9525,95.4330
134.9513,95.4344
134.9510,95.4350
134.9509,95.4350
134.9087,95.4874
134.8424,95.5094
134.8379,95.5095
134.5021,95.5095
134.5021,95.5095
134.4425,95.5159
134.3077,95.5662
134.3077,95.5662
134.2845,95.5836
134.2190,95.6080
134.2102,95.6083
131.7530,95.6083
131.6859,95.5886
131.6402,95.5358
131.6384,95.5318
131.5961,95.4296
131.5961,95.4296
131.5163,95.3102
131.5163,95.3102
131.4148,95.2087
131.4148,95.2087
131.2954,95.1289
131.2954,95.1289
131.1627,95.0739
131.1627,95.0739
131.0218,95.0459
131.0218,95.0459
130.8782,95.0459
130.8782,95.0459
130.7373,95.0739
130.7373,95.0739
130.6046,95.1289
130.6046,95.1289
130.4852,95.2087
130.4852,95.2087
130.3837,95.3102
130.3837,95.3102
130.3039,95.4296
130.3039,95.4296
130.3025,95.4330
130.3013,95.4344
130.3010,95.4350
130.3009,95.4350
130.2587,95.4874
130.1924,95.5094
130.1879,95.5095
129.8021,95.5095
129.8021,95.5095
129.7425,95.5159
129.6077,95.5662
129.6077,95.5662
129.5845,95.5836
129.5190,95.6080
129.5102,95.6083
126.8762,95.6083
126.8762,95.6083
126.8098,95.6083
126.7500,95.6331
126.7358,95.6354
126.7148,95.6328
126.6937,95.6351
126.6683,95.6276
126.5507,95.5789
126.5507,95.5789
126.4098,95.5509
126.4098,95.5509
126.2662,95.5509
126.2662,95.5509
126.1253,95.5789
126.1253,95.5789
126.1159,95.5828
126.0464,95.5903
126.0002,95.5702
126.0001,95.5705
125.9974,95.5690
125.9941,95.5675
125.9923,95.5662
125.9923,95.5662
125.8575,95.5159
125.8575,95.5159
125.8575,95.5159
125.7979,95.5095
125.7979,95.5095
125.1021,95.5095
125.1021,95.5095
125.0425,95.5159
124.9077,95.5662
124.9077,95.5662
124.7925,95.6525
124.7925,95.6525
124.7062,95.7677
124.7062,95.7677
124.6575,95.8983
124.6559,95.9025
124.6495,95.9621
124.0923,95.9621
124.0905,92.1061
124.0911,92.0939
124.1066,91.9367
124.1113,91.9128
124.1554,91.7675
124.1647,91.7450
124.2363,91.6110
124.2498,91.5908
124.3462,91.4734
124.3634,91.4562
124.4808,91.3598
124.5010,91.3463
124.6350,91.2747
124.6575,91.2654
124.8028,91.2213
124.8267,91.2166
124.9153,91.2079
124.9247,91.2069
Z" /> 
</g>
<g style="fill:#FFFFFF; fill-opacity:1.0000; stroke:none;">
<circle cx="137.8260" cy="96.9620" r="0.1270" /> 
<circle cx="128.5000" cy="110.6500" r="0.1270" /> 
<circle cx="128.5000" cy="96.5500" r="0.1270" /> 
<circle cx="134.8500" cy="102.4000" r="0.1270" /> 
<circle cx="142.6000" cy="96.5500" r="0.1270" /> 
<circle cx="126.3500" cy="111.3000" r="0.1270" /> 
<circle cx="128.7790" cy="92.2600" r="0.1270" /> 
<circle cx="131.0000" cy="111.2500" r="0.1270" /> 
<circle cx="137.9000" cy="101.2500" r="0.1270" /> 
<circle cx="140.4500" cy="101.8500" r="0.1270" /> 
<circle cx="128.5000" cy="101.2500" r="0.1270" /> 
<circle cx="131.0500" cy="101.8500" r="0.1270" /> 
<circle cx="131.0500" cy="106.5500" r="0.1270" /> 
<circle cx="134.8500" cy="97.7000" r="0.1270" /> 
<circle cx="140.4000" cy="106.5500" r="0.1270" /> 
<circle cx="142.6000" cy="110.6500" r="0.1270" /> 
<circle cx="140.2400" cy="92.2600" r="0.1270" /> 
<circle cx="133.2000" cy="96.5500" r="0.1270" /> 
<circle cx="137.9000" cy="105.9500" r="0.1270" /> 
<circle cx="142.6000" cy="105.9500" r="0.1270" /> 
<circle cx="133.2000" cy="101.2500" r="0.1270" /> 
<circle cx="142.6000" cy="101.2500" r="0.1270" /> 
<circle cx="135.7000" cy="111.2500" r="0.1270" /> 
<circle cx="140.4000" cy="111.2500" r="0.1270" /> 
<circle cx="133.2000" cy="110.6500" r="0.1270" /> 
<circle cx="140.4500" cy="97.1500" r="0.1270" /> 
<circle cx="134.8500" cy="107.1000" r="0.1270" /> 
<circle cx="126.3500" cy="101.8500" r="0.1270" /> 
<circle cx="128.5000" cy="105.9500" r="0.1270" /> 
<circle cx="133.2000" cy="105.9500" r="0.1270" /> 
<circle cx="126.3500" cy="106.5500" r="0.1270" /> 
<circle cx="126.3500" cy="97.1500" r="0.1270" /> 
<circle cx="131.0500" cy="97.1500" r="0.1270" /> 
<circle cx="137.9000" cy="110.6500" r="0.1270" /> 
<circle cx="140.5800" cy="113.1240" r="0.1270" /> 
<circle cx="130.4300" cy="94.0020" r="0.1270" /> 
<circle cx="140.4000" cy="105.1750" r="0.1270" /> 
<circle cx="130.9750" cy="109.8875" r="0.1270" /> 
<circle cx="130.9500" cy="95.7750" r="0.1270" /> 
<circle cx="135.6000" cy="95.7750" r="0.1270" /> 
<circle cx="140.1265" cy="96.0735" r="0.1270" /> 
<circle cx="139.5205" cy="94.5475" r="0.1270" /> 
<circle cx="130.9500" cy="105.1750" r="0.1270" /> 
<circle cx="126.1500" cy="109.8750" r="0.1270" /> 
<circle cx="126.2500" cy="100.4750" r="0.1270" /> 
<circle cx="126.3380" cy="96.2800" r="0.1270" /> 
<circle cx="135.6000" cy="105.2000" r="0.1270" /> 
<circle cx="126.2500" cy="105.1750" r="0.1270" /> 
<circle cx="129.2750" cy="111.3750" r="0.1270" /> 
<circle cx="130.8750" cy="100.4750" r="0.1270" /> 
<circle cx="140.3500" cy="100.4750" r="0.1270" /> 
<circle cx="135.6000" cy="109.9000" r="0.1270" /> 
<circle cx="140.3000" cy="109.8750" r="0.1270" /> 
<circle cx="135.6000" cy="100.4750" r="0.1270" /> 
<circle cx="135.0810" cy="93.2900" r="0.1270" /> 
<circle cx="137.8490" cy="96.0470" r="0.1270" /> 
<circle cx="137.8490" cy="96.0470" r="0.1270" /> 
</g> 
</svg>
