<?xml version="1.0" standalone="no"?>
 <!DOCTYPE svg PUBLIC "-//W3C//DTD SVG 1.1//EN" 
 "http://www.w3.org/Graphics/SVG/1.1/DTD/svg11.dtd"> 
<svg
  xmlns:svg="http://www.w3.org/2000/svg"
  xmlns="http://www.w3.org/2000/svg"
  xmlns:xlink="http://www.w3.org/1999/xlink"
  xmlns:inkscape="http://www.inkscape.org/namespaces/inkscape"
  version="1.1"
  width="297.0022mm" height="210.0072mm" viewBox="0.0000 0.0000 297.0022 210.0072">
<title>SVG Image created as 4x4-B_Silkscreen.svg date 2026-06-30T15:29:50 </title>
  <desc>Image generated by PCBNEW </desc>
<g style="fill:#000000; fill-opacity:1.0000;stroke:#000000; stroke-opacity:1.0000;
stroke-linecap:round; stroke-linejoin:round;"
 transform="translate(0 0) scale(1 1)">
</g>
<g style="fill:none; 
stroke:#000000; stroke-width:0.1000; stroke-opacity:1; 
stroke-linecap:round; stroke-linejoin:round;">
<g transform="rotate(-90.000000 130.0510 92.5210)">
<text x="130.0510" y="92.7710"
transform="scale(-1 1) translate(-260.102000 0)"
textLength="1.7238" font-size="0.6667" lengthAdjust="spacingAndGlyphs"
text-anchor="middle" opacity="0" stroke-opacity="0">GND</text>
</g>
<g class="stroked-text"><desc>GND</desc>
<path d="M129.8009 92.1400
L129.7771 92.0924
" />
<path d="M129.7771 92.0924
L129.7771 92.0210
" />
<path d="M129.7771 92.0210
L129.8009 91.9496
" />
<path d="M129.8009 91.9496
L129.8485 91.9020
" />
<path d="M129.8485 91.9020
L129.8962 91.8781
" />
<path d="M129.8962 91.8781
L129.9914 91.8543
" />
<path d="M129.9914 91.8543
L130.0628 91.8543
" />
<path d="M130.0628 91.8543
L130.1581 91.8781
" />
<path d="M130.1581 91.8781
L130.2057 91.9020
" />
<path d="M130.2057 91.9020
L130.2533 91.9496
" />
<path d="M130.2533 91.9496
L130.2771 92.0210
" />
<path d="M130.2771 92.0210
L130.2771 92.0686
" />
<path d="M130.2771 92.0686
L130.2533 92.1400
" />
<path d="M130.2533 92.1400
L130.2295 92.1639
" />
<path d="M130.2295 92.1639
L130.0628 92.1639
" />
<path d="M130.0628 92.1639
L130.0628 92.0686
" />
<path d="M130.2771 92.3781
L129.7771 92.3781
" />
<path d="M129.7771 92.3781
L130.2771 92.6639
" />
<path d="M130.2771 92.6639
L129.7771 92.6639
" />
<path d="M130.2771 92.9020
L129.7771 92.9020
" />
<path d="M129.7771 92.9020
L129.7771 93.0210
" />
<path d="M129.7771 93.0210
L129.8009 93.0924
" />
<path d="M129.8009 93.0924
L129.8485 93.1400
" />
<path d="M129.8485 93.1400
L129.8962 93.1639
" />
<path d="M129.8962 93.1639
L129.9914 93.1877
" />
<path d="M129.9914 93.1877
L130.0628 93.1877
" />
<path d="M130.0628 93.1877
L130.1581 93.1639
" />
<path d="M130.1581 93.1639
L130.2057 93.1400
" />
<path d="M130.2057 93.1400
L130.2533 93.0924
" />
<path d="M130.2533 93.0924
L130.2771 93.0210
" />
<path d="M130.2771 93.0210
L130.2771 92.9020
" />
</g><g transform="rotate(-90.000000 131.0100 92.5240)">
<text x="131.0100" y="92.7740"
transform="scale(-1 1) translate(-262.020000 0)"
textLength="1.6524" font-size="0.6667" lengthAdjust="spacingAndGlyphs"
text-anchor="middle" opacity="0" stroke-opacity="0">RX1</text>
</g>
<g class="stroked-text"><desc>RX1</desc>
<path d="M131.2361 92.2026
L130.9980 92.0359
" />
<path d="M131.2361 91.9169
L130.7361 91.9169
" />
<path d="M130.7361 91.9169
L130.7361 92.1073
" />
<path d="M130.7361 92.1073
L130.7599 92.1550
" />
<path d="M130.7599 92.1550
L130.7837 92.1788
" />
<path d="M130.7837 92.1788
L130.8313 92.2026
" />
<path d="M130.8313 92.2026
L130.9028 92.2026
" />
<path d="M130.9028 92.2026
L130.9504 92.1788
" />
<path d="M130.9504 92.1788
L130.9742 92.1550
" />
<path d="M130.9742 92.1550
L130.9980 92.1073
" />
<path d="M130.9980 92.1073
L130.9980 91.9169
" />
<path d="M130.7361 92.3692
L131.2361 92.7026
" />
<path d="M130.7361 92.7026
L131.2361 92.3692
" />
<path d="M131.2361 93.1550
L131.2361 92.8692
" />
<path d="M131.2361 93.0121
L130.7361 93.0121
" />
<path d="M130.7361 93.0121
L130.8075 92.9645
" />
<path d="M130.8075 92.9645
L130.8552 92.9169
" />
<path d="M130.8552 92.9169
L130.8790 92.8692
" />
</g><g transform="rotate(-90.000000 132.0340 92.5350)">
<text x="132.0340" y="92.7850"
transform="scale(-1 1) translate(-264.068000 0)"
textLength="1.5333" font-size="0.6667" lengthAdjust="spacingAndGlyphs"
text-anchor="middle" opacity="0" stroke-opacity="0">TX1</text>
</g>
<g class="stroked-text"><desc>TX1</desc>
<path d="M131.7601 91.9160
L131.7601 92.2017
" />
<path d="M132.2601 92.0588
L131.7601 92.0588
" />
<path d="M131.7601 92.3207
L132.2601 92.6540
" />
<path d="M131.7601 92.6540
L132.2601 92.3207
" />
<path d="M132.2601 93.1064
L132.2601 92.8207
" />
<path d="M132.2601 92.9636
L131.7601 92.9636
" />
<path d="M131.7601 92.9636
L131.8315 92.9160
" />
<path d="M131.8315 92.9160
L131.8792 92.8683
" />
<path d="M131.8792 92.8683
L131.9030 92.8207
" />
</g><g transform="rotate(-90.000000 133.0300 92.5410)">
<text x="133.0300" y="92.7910"
transform="scale(-1 1) translate(-266.060000 0)"
textLength="1.6524" font-size="0.6667" lengthAdjust="spacingAndGlyphs"
text-anchor="middle" opacity="0" stroke-opacity="0">RX2</text>
</g>
<g class="stroked-text"><desc>RX2</desc>
<path d="M133.2561 92.2196
L133.0180 92.0529
" />
<path d="M133.2561 91.9339
L132.7561 91.9339
" />
<path d="M132.7561 91.9339
L132.7561 92.1243
" />
<path d="M132.7561 92.1243
L132.7799 92.1720
" />
<path d="M132.7799 92.1720
L132.8037 92.1958
" />
<path d="M132.8037 92.1958
L132.8513 92.2196
" />
<path d="M132.8513 92.2196
L132.9228 92.2196
" />
<path d="M132.9228 92.2196
L132.9704 92.1958
" />
<path d="M132.9704 92.1958
L132.9942 92.1720
" />
<path d="M132.9942 92.1720
L133.0180 92.1243
" />
<path d="M133.0180 92.1243
L133.0180 91.9339
" />
<path d="M132.7561 92.3862
L133.2561 92.7196
" />
<path d="M132.7561 92.7196
L133.2561 92.3862
" />
<path d="M132.8037 92.8862
L132.7799 92.9100
" />
<path d="M132.7799 92.9100
L132.7561 92.9577
" />
<path d="M132.7561 92.9577
L132.7561 93.0767
" />
<path d="M132.7561 93.0767
L132.7799 93.1243
" />
<path d="M132.7799 93.1243
L132.8037 93.1481
" />
<path d="M132.8037 93.1481
L132.8513 93.1720
" />
<path d="M132.8513 93.1720
L132.8990 93.1720
" />
<path d="M132.8990 93.1720
L132.9704 93.1481
" />
<path d="M132.9704 93.1481
L133.2561 92.8624
" />
<path d="M133.2561 92.8624
L133.2561 93.1720
" />
</g><g transform="rotate(-90.000000 134.0290 92.5750)">
<text x="134.0290" y="92.8250"
transform="scale(-1 1) translate(-268.058000 0)"
textLength="1.5333" font-size="0.6667" lengthAdjust="spacingAndGlyphs"
text-anchor="middle" opacity="0" stroke-opacity="0">TX2</text>
</g>
<g class="stroked-text"><desc>TX2</desc>
<path d="M133.7551 91.9560
L133.7551 92.2417
" />
<path d="M134.2551 92.0988
L133.7551 92.0988
" />
<path d="M133.7551 92.3607
L134.2551 92.6940
" />
<path d="M133.7551 92.6940
L134.2551 92.3607
" />
<path d="M133.8027 92.8607
L133.7789 92.8845
" />
<path d="M133.7789 92.8845
L133.7551 92.9321
" />
<path d="M133.7551 92.9321
L133.7551 93.0512
" />
<path d="M133.7551 93.0512
L133.7789 93.0988
" />
<path d="M133.7789 93.0988
L133.8027 93.1226
" />
<path d="M133.8027 93.1226
L133.8503 93.1464
" />
<path d="M133.8503 93.1464
L133.8980 93.1464
" />
<path d="M133.8980 93.1464
L133.9694 93.1226
" />
<path d="M133.9694 93.1226
L134.2551 92.8369
" />
<path d="M134.2551 92.8369
L134.2551 93.1464
" />
</g><g transform="rotate(-90.000000 135.0510 92.1920)">
<text x="135.0510" y="92.4420"
transform="scale(-1 1) translate(-270.102000 0)"
textLength="1.6524" font-size="0.6667" lengthAdjust="spacingAndGlyphs"
text-anchor="middle" opacity="0" stroke-opacity="0">RX3</text>
</g>
<g class="stroked-text"><desc>RX3</desc>
<path d="M135.2771 91.8706
L135.0390 91.7039
" />
<path d="M135.2771 91.5849
L134.7771 91.5849
" />
<path d="M134.7771 91.5849
L134.7771 91.7753
" />
<path d="M134.7771 91.7753
L134.8009 91.8230
" />
<path d="M134.8009 91.8230
L134.8247 91.8468
" />
<path d="M134.8247 91.8468
L134.8723 91.8706
" />
<path d="M134.8723 91.8706
L134.9438 91.8706
" />
<path d="M134.9438 91.8706
L134.9914 91.8468
" />
<path d="M134.9914 91.8468
L135.0152 91.8230
" />
<path d="M135.0152 91.8230
L135.0390 91.7753
" />
<path d="M135.0390 91.7753
L135.0390 91.5849
" />
<path d="M134.7771 92.0372
L135.2771 92.3706
" />
<path d="M134.7771 92.3706
L135.2771 92.0372
" />
<path d="M134.7771 92.5134
L134.7771 92.8230
" />
<path d="M134.7771 92.8230
L134.9676 92.6563
" />
<path d="M134.9676 92.6563
L134.9676 92.7277
" />
<path d="M134.9676 92.7277
L134.9914 92.7753
" />
<path d="M134.9914 92.7753
L135.0152 92.7991
" />
<path d="M135.0152 92.7991
L135.0628 92.8230
" />
<path d="M135.0628 92.8230
L135.1819 92.8230
" />
<path d="M135.1819 92.8230
L135.2295 92.7991
" />
<path d="M135.2295 92.7991
L135.2533 92.7753
" />
<path d="M135.2533 92.7753
L135.2771 92.7277
" />
<path d="M135.2771 92.7277
L135.2771 92.5849
" />
<path d="M135.2771 92.5849
L135.2533 92.5372
" />
<path d="M135.2533 92.5372
L135.2295 92.5134
" />
</g><g transform="rotate(-90.000000 136.0440 92.3830)">
<text x="136.0440" y="92.6330"
transform="scale(-1 1) translate(-272.088000 0)"
textLength="1.5333" font-size="0.6667" lengthAdjust="spacingAndGlyphs"
text-anchor="middle" opacity="0" stroke-opacity="0">TX3</text>
</g>
<g class="stroked-text"><desc>TX3</desc>
<path d="M135.7701 91.7640
L135.7701 92.0497
" />
<path d="M136.2701 91.9068
L135.7701 91.9068
" />
<path d="M135.7701 92.1687
L136.2701 92.5020
" />
<path d="M135.7701 92.5020
L136.2701 92.1687
" />
<path d="M135.7701 92.6449
L135.7701 92.9544
" />
<path d="M135.7701 92.9544
L135.9606 92.7878
" />
<path d="M135.9606 92.7878
L135.9606 92.8592
" />
<path d="M135.9606 92.8592
L135.9844 92.9068
" />
<path d="M135.9844 92.9068
L136.0082 92.9306
" />
<path d="M136.0082 92.9306
L136.0558 92.9544
" />
<path d="M136.0558 92.9544
L136.1749 92.9544
" />
<path d="M136.1749 92.9544
L136.2225 92.9306
" />
<path d="M136.2225 92.9306
L136.2463 92.9068
" />
<path d="M136.2463 92.9068
L136.2701 92.8592
" />
<path d="M136.2701 92.8592
L136.2701 92.7163
" />
<path d="M136.2701 92.7163
L136.2463 92.6687
" />
<path d="M136.2463 92.6687
L136.2225 92.6449
" />
</g><g transform="rotate(-90.000000 137.0440 92.5410)">
<text x="137.0440" y="92.7910"
transform="scale(-1 1) translate(-274.088000 0)"
textLength="1.6524" font-size="0.6667" lengthAdjust="spacingAndGlyphs"
text-anchor="middle" opacity="0" stroke-opacity="0">RX4</text>
</g>
<g class="stroked-text"><desc>RX4</desc>
<path d="M137.2701 92.2196
L137.0320 92.0529
" />
<path d="M137.2701 91.9339
L136.7701 91.9339
" />
<path d="M136.7701 91.9339
L136.7701 92.1243
" />
<path d="M136.7701 92.1243
L136.7939 92.1720
" />
<path d="M136.7939 92.1720
L136.8177 92.1958
" />
<path d="M136.8177 92.1958
L136.8653 92.2196
" />
<path d="M136.8653 92.2196
L136.9368 92.2196
" />
<path d="M136.9368 92.2196
L136.9844 92.1958
" />
<path d="M136.9844 92.1958
L137.0082 92.1720
" />
<path d="M137.0082 92.1720
L137.0320 92.1243
" />
<path d="M137.0320 92.1243
L137.0320 91.9339
" />
<path d="M136.7701 92.3862
L137.2701 92.7196
" />
<path d="M136.7701 92.7196
L137.2701 92.3862
" />
<path d="M136.9368 93.1243
L137.2701 93.1243
" />
<path d="M136.7463 93.0053
L137.1034 92.8862
" />
<path d="M137.1034 92.8862
L137.1034 93.1958
" />
</g><g transform="rotate(-90.000000 138.0450 92.5400)">
<text x="138.0450" y="92.7900"
transform="scale(-1 1) translate(-276.090000 0)"
textLength="1.5333" font-size="0.6667" lengthAdjust="spacingAndGlyphs"
text-anchor="middle" opacity="0" stroke-opacity="0">TX4</text>
</g>
<g class="stroked-text"><desc>TX4</desc>
<path d="M137.7711 91.9210
L137.7711 92.2067
" />
<path d="M138.2711 92.0638
L137.7711 92.0638
" />
<path d="M137.7711 92.3257
L138.2711 92.6590
" />
<path d="M137.7711 92.6590
L138.2711 92.3257
" />
<path d="M137.9378 93.0638
L138.2711 93.0638
" />
<path d="M137.7473 92.9448
L138.1044 92.8257
" />
<path d="M138.1044 92.8257
L138.1044 93.1352
" />
</g><g transform="rotate(-90.000000 139.0320 92.4510)">
<text x="139.0320" y="92.7010"
transform="scale(-1 1) translate(-278.064000 0)"
textLength="1.6286" font-size="0.6667" lengthAdjust="spacingAndGlyphs"
text-anchor="middle" opacity="0" stroke-opacity="0">VDD</text>
</g>
<g class="stroked-text"><desc>VDD</desc>
<path d="M138.7581 91.7843
L139.2581 91.9510
" />
<path d="M139.2581 91.9510
L138.7581 92.1177
" />
<path d="M139.2581 92.2843
L138.7581 92.2843
" />
<path d="M138.7581 92.2843
L138.7581 92.4034
" />
<path d="M138.7581 92.4034
L138.7819 92.4748
" />
<path d="M138.7819 92.4748
L138.8295 92.5224
" />
<path d="M138.8295 92.5224
L138.8772 92.5462
" />
<path d="M138.8772 92.5462
L138.9724 92.5700
" />
<path d="M138.9724 92.5700
L139.0438 92.5700
" />
<path d="M139.0438 92.5700
L139.1391 92.5462
" />
<path d="M139.1391 92.5462
L139.1867 92.5224
" />
<path d="M139.1867 92.5224
L139.2343 92.4748
" />
<path d="M139.2343 92.4748
L139.2581 92.4034
" />
<path d="M139.2581 92.4034
L139.2581 92.2843
" />
<path d="M139.2581 92.7843
L138.7581 92.7843
" />
<path d="M138.7581 92.7843
L138.7581 92.9034
" />
<path d="M138.7581 92.9034
L138.7819 92.9748
" />
<path d="M138.7819 92.9748
L138.8295 93.0224
" />
<path d="M138.8295 93.0224
L138.8772 93.0462
" />
<path d="M138.8772 93.0462
L138.9724 93.0700
" />
<path d="M138.9724 93.0700
L139.0438 93.0700
" />
<path d="M139.0438 93.0700
L139.1391 93.0462
" />
<path d="M139.1391 93.0462
L139.1867 93.0224
" />
<path d="M139.1867 93.0224
L139.2343 92.9748
" />
<path d="M139.2343 92.9748
L139.2581 92.9034
" />
<path d="M139.2581 92.9034
L139.2581 92.7843
" />
</g></g> 
</svg>
