<?xml version="1.0" standalone="no"?>
 <!DOCTYPE svg PUBLIC "-//W3C//DTD SVG 1.1//EN" 
 "http://www.w3.org/Graphics/SVG/1.1/DTD/svg11.dtd"> 
<svg
  xmlns:svg="http://www.w3.org/2000/svg"
  xmlns="http://www.w3.org/2000/svg"
  xmlns:xlink="http://www.w3.org/1999/xlink"
  xmlns:inkscape="http://www.inkscape.org/namespaces/inkscape"
  version="1.1"
  width="297.0022mm" height="210.0072mm" viewBox="0.0000 0.0000 297.0022 210.0072">
<title>SVG Image created as 4x4-B_Fab.svg date 2026-06-30T15:29:50 </title>
  <desc>Image generated by PCBNEW </desc>
<g style="fill:#000000; fill-opacity:1.0000;stroke:#000000; stroke-opacity:1.0000;
stroke-linecap:round; stroke-linejoin:round;"
 transform="translate(0 0) scale(1 1)">
</g>
<g style="fill:none; 
stroke:#000000; stroke-width:0.0984; stroke-opacity:1; 
stroke-linecap:round; stroke-linejoin:round;">
<g transform="rotate(-90.000000 131.0300 98.7620)">
<text x="131.0300" y="98.9588"
transform="scale(-1 1) translate(-262.060000 0)"
textLength="0.4978" font-size="0.5249" lengthAdjust="spacingAndGlyphs"
text-anchor="middle" opacity="0" stroke-opacity="0">~</text>
</g>
<g class="stroked-text"><desc>~</desc>
<path d="M131.0570 98.6589
L131.0383 98.6776
" />
<path d="M131.0383 98.6776
L131.0195 98.7151
" />
<path d="M131.0195 98.7151
L131.0570 98.7901
" />
<path d="M131.0570 98.7901
L131.0383 98.8276
" />
<path d="M131.0383 98.8276
L131.0195 98.8464
" />
</g><g transform="rotate(-90.000000 126.3300 112.8500)">
<text x="126.3300" y="113.0468"
transform="scale(-1 1) translate(-252.660000 0)"
textLength="0.4978" font-size="0.5249" lengthAdjust="spacingAndGlyphs"
text-anchor="middle" opacity="0" stroke-opacity="0">~</text>
</g>
<g class="stroked-text"><desc>~</desc>
<path d="M126.3570 112.7469
L126.3383 112.7656
" />
<path d="M126.3383 112.7656
L126.3195 112.8031
" />
<path d="M126.3195 112.8031
L126.3570 112.8781
" />
<path d="M126.3570 112.8781
L126.3383 112.9156
" />
<path d="M126.3383 112.9156
L126.3195 112.9344
" />
</g><g transform="rotate(-90.000000 135.7300 103.4620)">
<text x="135.7300" y="103.6589"
transform="scale(-1 1) translate(-271.460000 0)"
textLength="0.4978" font-size="0.5249" lengthAdjust="spacingAndGlyphs"
text-anchor="middle" opacity="0" stroke-opacity="0">~</text>
</g>
<g class="stroked-text"><desc>~</desc>
<path d="M135.7570 103.3589
L135.7383 103.3776
" />
<path d="M135.7383 103.3776
L135.7195 103.4151
" />
<path d="M135.7195 103.4151
L135.7570 103.4901
" />
<path d="M135.7570 103.4901
L135.7383 103.5276
" />
<path d="M135.7383 103.5276
L135.7195 103.5464
" />
</g><g transform="rotate(-90.000000 140.4300 103.4620)">
<text x="140.4300" y="103.6589"
transform="scale(-1 1) translate(-280.860000 0)"
textLength="0.4978" font-size="0.5249" lengthAdjust="spacingAndGlyphs"
text-anchor="middle" opacity="0" stroke-opacity="0">~</text>
</g>
<g class="stroked-text"><desc>~</desc>
<path d="M140.4570 103.3589
L140.4383 103.3776
" />
<path d="M140.4383 103.3776
L140.4195 103.4151
" />
<path d="M140.4195 103.4151
L140.4570 103.4901
" />
<path d="M140.4570 103.4901
L140.4383 103.5276
" />
<path d="M140.4383 103.5276
L140.4195 103.5464
" />
</g><g transform="rotate(-90.000000 131.0300 103.4620)">
<text x="131.0300" y="103.6589"
transform="scale(-1 1) translate(-262.060000 0)"
textLength="0.4978" font-size="0.5249" lengthAdjust="spacingAndGlyphs"
text-anchor="middle" opacity="0" stroke-opacity="0">~</text>
</g>
<g class="stroked-text"><desc>~</desc>
<path d="M131.0570 103.3589
L131.0383 103.3776
" />
<path d="M131.0383 103.3776
L131.0195 103.4151
" />
<path d="M131.0195 103.4151
L131.0570 103.4901
" />
<path d="M131.0570 103.4901
L131.0383 103.5276
" />
<path d="M131.0383 103.5276
L131.0195 103.5464
" />
</g><g transform="rotate(-90.000000 140.4300 112.8620)">
<text x="140.4300" y="113.0588"
transform="scale(-1 1) translate(-280.860000 0)"
textLength="0.4978" font-size="0.5249" lengthAdjust="spacingAndGlyphs"
text-anchor="middle" opacity="0" stroke-opacity="0">~</text>
</g>
<g class="stroked-text"><desc>~</desc>
<path d="M140.4570 112.7589
L140.4383 112.7776
" />
<path d="M140.4383 112.7776
L140.4195 112.8151
" />
<path d="M140.4195 112.8151
L140.4570 112.8901
" />
<path d="M140.4570 112.8901
L140.4383 112.9276
" />
<path d="M140.4383 112.9276
L140.4195 112.9464
" />
</g><g transform="rotate(-90.000000 135.7300 98.7620)">
<text x="135.7300" y="98.9588"
transform="scale(-1 1) translate(-271.460000 0)"
textLength="0.4978" font-size="0.5249" lengthAdjust="spacingAndGlyphs"
text-anchor="middle" opacity="0" stroke-opacity="0">~</text>
</g>
<g class="stroked-text"><desc>~</desc>
<path d="M135.7570 98.6589
L135.7383 98.6776
" />
<path d="M135.7383 98.6776
L135.7195 98.7151
" />
<path d="M135.7195 98.7151
L135.7570 98.7901
" />
<path d="M135.7570 98.7901
L135.7383 98.8276
" />
<path d="M135.7383 98.8276
L135.7195 98.8464
" />
</g><g transform="rotate(-90.000000 135.7300 108.1620)">
<text x="135.7300" y="108.3588"
transform="scale(-1 1) translate(-271.460000 0)"
textLength="0.4978" font-size="0.5249" lengthAdjust="spacingAndGlyphs"
text-anchor="middle" opacity="0" stroke-opacity="0">~</text>
</g>
<g class="stroked-text"><desc>~</desc>
<path d="M135.7570 108.0589
L135.7383 108.0776
" />
<path d="M135.7383 108.0776
L135.7195 108.1151
" />
<path d="M135.7195 108.1151
L135.7570 108.1901
" />
<path d="M135.7570 108.1901
L135.7383 108.2276
" />
<path d="M135.7383 108.2276
L135.7195 108.2464
" />
</g><g transform="rotate(-90.000000 126.3300 98.7620)">
<text x="126.3300" y="98.9588"
transform="scale(-1 1) translate(-252.660000 0)"
textLength="0.4978" font-size="0.5249" lengthAdjust="spacingAndGlyphs"
text-anchor="middle" opacity="0" stroke-opacity="0">~</text>
</g>
<g class="stroked-text"><desc>~</desc>
<path d="M126.3570 98.6589
L126.3383 98.6776
" />
<path d="M126.3383 98.6776
L126.3195 98.7151
" />
<path d="M126.3195 98.7151
L126.3570 98.7901
" />
<path d="M126.3570 98.7901
L126.3383 98.8276
" />
<path d="M126.3383 98.8276
L126.3195 98.8464
" />
</g><g transform="rotate(-90.000000 140.4300 108.1620)">
<text x="140.4300" y="108.3588"
transform="scale(-1 1) translate(-280.860000 0)"
textLength="0.4978" font-size="0.5249" lengthAdjust="spacingAndGlyphs"
text-anchor="middle" opacity="0" stroke-opacity="0">~</text>
</g>
<g class="stroked-text"><desc>~</desc>
<path d="M140.4570 108.0589
L140.4383 108.0776
" />
<path d="M140.4383 108.0776
L140.4195 108.1151
" />
<path d="M140.4195 108.1151
L140.4570 108.1901
" />
<path d="M140.4570 108.1901
L140.4383 108.2276
" />
<path d="M140.4383 108.2276
L140.4195 108.2464
" />
</g><g transform="rotate(-90.000000 126.3300 103.4620)">
<text x="126.3300" y="103.6589"
transform="scale(-1 1) translate(-252.660000 0)"
textLength="0.4978" font-size="0.5249" lengthAdjust="spacingAndGlyphs"
text-anchor="middle" opacity="0" stroke-opacity="0">~</text>
</g>
<g class="stroked-text"><desc>~</desc>
<path d="M126.3570 103.3589
L126.3383 103.3776
" />
<path d="M126.3383 103.3776
L126.3195 103.4151
" />
<path d="M126.3195 103.4151
L126.3570 103.4901
" />
<path d="M126.3570 103.4901
L126.3383 103.5276
" />
<path d="M126.3383 103.5276
L126.3195 103.5464
" />
</g><g transform="rotate(-90.000000 131.0300 112.8620)">
<text x="131.0300" y="113.0588"
transform="scale(-1 1) translate(-262.060000 0)"
textLength="0.4978" font-size="0.5249" lengthAdjust="spacingAndGlyphs"
text-anchor="middle" opacity="0" stroke-opacity="0">~</text>
</g>
<g class="stroked-text"><desc>~</desc>
<path d="M131.0570 112.7589
L131.0383 112.7776
" />
<path d="M131.0383 112.7776
L131.0195 112.8151
" />
<path d="M131.0195 112.8151
L131.0570 112.8901
" />
<path d="M131.0570 112.8901
L131.0383 112.9276
" />
<path d="M131.0383 112.9276
L131.0195 112.9464
" />
</g><g transform="rotate(-90.000000 131.0300 108.1620)">
<text x="131.0300" y="108.3588"
transform="scale(-1 1) translate(-262.060000 0)"
textLength="0.4978" font-size="0.5249" lengthAdjust="spacingAndGlyphs"
text-anchor="middle" opacity="0" stroke-opacity="0">~</text>
</g>
<g class="stroked-text"><desc>~</desc>
<path d="M131.0570 108.0589
L131.0383 108.0776
" />
<path d="M131.0383 108.0776
L131.0195 108.1151
" />
<path d="M131.0195 108.1151
L131.0570 108.1901
" />
<path d="M131.0570 108.1901
L131.0383 108.2276
" />
<path d="M131.0383 108.2276
L131.0195 108.2464
" />
</g><g transform="rotate(-90.000000 140.4300 98.7620)">
<text x="140.4300" y="98.9588"
transform="scale(-1 1) translate(-280.860000 0)"
textLength="0.4978" font-size="0.5249" lengthAdjust="spacingAndGlyphs"
text-anchor="middle" opacity="0" stroke-opacity="0">~</text>
</g>
<g class="stroked-text"><desc>~</desc>
<path d="M140.4570 98.6589
L140.4383 98.6776
" />
<path d="M140.4383 98.6776
L140.4195 98.7151
" />
<path d="M140.4195 98.7151
L140.4570 98.7901
" />
<path d="M140.4570 98.7901
L140.4383 98.8276
" />
<path d="M140.4383 98.8276
L140.4195 98.8464
" />
</g><g transform="rotate(-90.000000 135.7300 112.8620)">
<text x="135.7300" y="113.0588"
transform="scale(-1 1) translate(-271.460000 0)"
textLength="0.4978" font-size="0.5249" lengthAdjust="spacingAndGlyphs"
text-anchor="middle" opacity="0" stroke-opacity="0">~</text>
</g>
<g class="stroked-text"><desc>~</desc>
<path d="M135.7570 112.7589
L135.7383 112.7776
" />
<path d="M135.7383 112.7776
L135.7195 112.8151
" />
<path d="M135.7195 112.8151
L135.7570 112.8901
" />
<path d="M135.7570 112.8901
L135.7383 112.9276
" />
<path d="M135.7383 112.9276
L135.7195 112.9464
" />
</g><g transform="rotate(-90.000000 126.3300 108.1620)">
<text x="126.3300" y="108.3588"
transform="scale(-1 1) translate(-252.660000 0)"
textLength="0.4978" font-size="0.5249" lengthAdjust="spacingAndGlyphs"
text-anchor="middle" opacity="0" stroke-opacity="0">~</text>
</g>
<g class="stroked-text"><desc>~</desc>
<path d="M126.3570 108.0589
L126.3383 108.0776
" />
<path d="M126.3383 108.0776
L126.3195 108.1151
" />
<path d="M126.3195 108.1151
L126.3570 108.1901
" />
<path d="M126.3570 108.1901
L126.3383 108.2276
" />
<path d="M126.3383 108.2276
L126.3195 108.2464
" />
</g></g>
<g style="fill:none; 
stroke:#000000; stroke-width:0.1270; stroke-opacity:1; 
stroke-linecap:round; stroke-linejoin:round;">
<path d="M129.8700 97.2420
L129.8700 96.1820
" />
<path d="M130.4300 96.1820
L129.8700 96.1820
" />
<path d="M130.4300 97.2420
L129.8700 97.2420
" />
<path d="M130.4300 97.2420
L130.4300 96.1820
" />
<path d="M125.1700 111.3300
L125.1700 110.2700
" />
<path d="M125.7300 110.2700
L125.1700 110.2700
" />
<path d="M125.7300 111.3300
L125.1700 111.3300
" />
<path d="M125.7300 111.3300
L125.7300 110.2700
" />
<path d="M134.5700 101.9420
L134.5700 100.8820
" />
<path d="M135.1300 100.8820
L134.5700 100.8820
" />
<path d="M135.1300 101.9420
L134.5700 101.9420
" />
<path d="M135.1300 101.9420
L135.1300 100.8820
" />
<path d="M139.2700 101.9420
L139.2700 100.8820
" />
<path d="M139.8300 100.8820
L139.2700 100.8820
" />
<path d="M139.8300 101.9420
L139.2700 101.9420
" />
<path d="M139.8300 101.9420
L139.8300 100.8820
" />
<path d="M129.8700 101.9420
L129.8700 100.8820
" />
<path d="M130.4300 100.8820
L129.8700 100.8820
" />
<path d="M130.4300 101.9420
L129.8700 101.9420
" />
<path d="M130.4300 101.9420
L130.4300 100.8820
" />
<path d="M139.2700 111.3420
L139.2700 110.2820
" />
<path d="M139.8300 110.2820
L139.2700 110.2820
" />
<path d="M139.8300 111.3420
L139.2700 111.3420
" />
<path d="M139.8300 111.3420
L139.8300 110.2820
" />
<path d="M134.5700 97.2420
L134.5700 96.1820
" />
<path d="M135.1300 96.1820
L134.5700 96.1820
" />
<path d="M135.1300 97.2420
L134.5700 97.2420
" />
<path d="M135.1300 97.2420
L135.1300 96.1820
" />
<path d="M134.5700 106.6420
L134.5700 105.5820
" />
<path d="M135.1300 105.5820
L134.5700 105.5820
" />
<path d="M135.1300 106.6420
L134.5700 106.6420
" />
<path d="M135.1300 106.6420
L135.1300 105.5820
" />
<path d="M125.1700 97.2420
L125.1700 96.1820
" />
<path d="M125.7300 96.1820
L125.1700 96.1820
" />
<path d="M125.7300 97.2420
L125.1700 97.2420
" />
<path d="M125.7300 97.2420
L125.7300 96.1820
" />
<path d="M139.2700 106.6420
L139.2700 105.5820
" />
<path d="M139.8300 105.5820
L139.2700 105.5820
" />
<path d="M139.8300 106.6420
L139.2700 106.6420
" />
<path d="M139.8300 106.6420
L139.8300 105.5820
" />
<path d="M125.1700 101.9420
L125.1700 100.8820
" />
<path d="M125.7300 100.8820
L125.1700 100.8820
" />
<path d="M125.7300 101.9420
L125.1700 101.9420
" />
<path d="M125.7300 101.9420
L125.7300 100.8820
" />
<path d="M129.8700 111.3420
L129.8700 110.2820
" />
<path d="M130.4300 110.2820
L129.8700 110.2820
" />
<path d="M130.4300 111.3420
L129.8700 111.3420
" />
<path d="M130.4300 111.3420
L130.4300 110.2820
" />
<path d="M129.8700 106.6420
L129.8700 105.5820
" />
<path d="M130.4300 105.5820
L129.8700 105.5820
" />
<path d="M130.4300 106.6420
L129.8700 106.6420
" />
<path d="M130.4300 106.6420
L130.4300 105.5820
" />
<path d="M139.2700 97.2420
L139.2700 96.1820
" />
<path d="M139.8300 96.1820
L139.2700 96.1820
" />
<path d="M139.8300 97.2420
L139.2700 97.2420
" />
<path d="M139.8300 97.2420
L139.8300 96.1820
" />
<path d="M134.5700 111.3420
L134.5700 110.2820
" />
<path d="M135.1300 110.2820
L134.5700 110.2820
" />
<path d="M135.1300 111.3420
L134.5700 111.3420
" />
<path d="M135.1300 111.3420
L135.1300 110.2820
" />
<path d="M125.1700 106.6420
L125.1700 105.5820
" />
<path d="M125.7300 105.5820
L125.1700 105.5820
" />
<path d="M125.7300 106.6420
L125.1700 106.6420
" />
<path d="M125.7300 106.6420
L125.7300 105.5820
" />
</g> 
</svg>
