<?xml version="1.0" standalone="no"?>
 <!DOCTYPE svg PUBLIC "-//W3C//DTD SVG 1.1//EN" 
 "http://www.w3.org/Graphics/SVG/1.1/DTD/svg11.dtd"> 
<svg
  xmlns:svg="http://www.w3.org/2000/svg"
  xmlns="http://www.w3.org/2000/svg"
  xmlns:xlink="http://www.w3.org/1999/xlink"
  xmlns:inkscape="http://www.inkscape.org/namespaces/inkscape"
  version="1.1"
  width="297.0022mm" height="210.0072mm" viewBox="0.0000 0.0000 297.0022 210.0072">
<title>SVG Image created as 4x4-B_Paste.svg date 2026-06-30T15:29:50 </title>
  <desc>Image generated by PCBNEW </desc>
<g style="fill:#000000; fill-opacity:1.0000;stroke:#000000; stroke-opacity:1.0000;
stroke-linecap:round; stroke-linejoin:round;"
 transform="translate(0 0) scale(1 1)">
<path style="fill:#000000; fill-opacity:1.0000; stroke:none;fill-rule:evenodd;"
d="M 129.8500,96.0100
130.4500,96.0100
130.4500,96.5500
129.8500,96.5500
Z" /> 
<path style="fill:#000000; fill-opacity:1.0000; stroke:none;fill-rule:evenodd;"
d="M 129.8500,96.8740
130.4500,96.8740
130.4500,97.4140
129.8500,97.4140
Z" /> 
<path style="fill:#000000; fill-opacity:1.0000; stroke:none;fill-rule:evenodd;"
d="M 125.1500,110.0980
125.7500,110.0980
125.7500,110.6380
125.1500,110.6380
Z" /> 
<path style="fill:#000000; fill-opacity:1.0000; stroke:none;fill-rule:evenodd;"
d="M 125.1500,110.9620
125.7500,110.9620
125.7500,111.5020
125.1500,111.5020
Z" /> 
<path style="fill:#000000; fill-opacity:1.0000; stroke:none;fill-rule:evenodd;"
d="M 134.5500,100.7100
135.1500,100.7100
135.1500,101.2500
134.5500,101.2500
Z" /> 
<path style="fill:#000000; fill-opacity:1.0000; stroke:none;fill-rule:evenodd;"
d="M 134.5500,101.5740
135.1500,101.5740
135.1500,102.1140
134.5500,102.1140
Z" /> 
<path style="fill:#000000; fill-opacity:1.0000; stroke:none;fill-rule:evenodd;"
d="M 139.2500,100.7100
139.8500,100.7100
139.8500,101.2500
139.2500,101.2500
Z" /> 
<path style="fill:#000000; fill-opacity:1.0000; stroke:none;fill-rule:evenodd;"
d="M 139.2500,101.5740
139.8500,101.5740
139.8500,102.1140
139.2500,102.1140
Z" /> 
<path style="fill:#000000; fill-opacity:1.0000; stroke:none;fill-rule:evenodd;"
d="M 129.8500,100.7100
130.4500,100.7100
130.4500,101.2500
129.8500,101.2500
Z" /> 
<path style="fill:#000000; fill-opacity:1.0000; stroke:none;fill-rule:evenodd;"
d="M 129.8500,101.5740
130.4500,101.5740
130.4500,102.1140
129.8500,102.1140
Z" /> 
<path style="fill:#000000; fill-opacity:1.0000; stroke:none;fill-rule:evenodd;"
d="M 139.2500,110.1100
139.8500,110.1100
139.8500,110.6500
139.2500,110.6500
Z" /> 
<path style="fill:#000000; fill-opacity:1.0000; stroke:none;fill-rule:evenodd;"
d="M 139.2500,110.9740
139.8500,110.9740
139.8500,111.5140
139.2500,111.5140
Z" /> 
<path style="fill:#000000; fill-opacity:1.0000; stroke:none;fill-rule:evenodd;"
d="M 134.5500,96.0100
135.1500,96.0100
135.1500,96.5500
134.5500,96.5500
Z" /> 
<path style="fill:#000000; fill-opacity:1.0000; stroke:none;fill-rule:evenodd;"
d="M 134.5500,96.8740
135.1500,96.8740
135.1500,97.4140
134.5500,97.4140
Z" /> 
<path style="fill:#000000; fill-opacity:1.0000; stroke:none;fill-rule:evenodd;"
d="M 134.5500,105.4100
135.1500,105.4100
135.1500,105.9500
134.5500,105.9500
Z" /> 
<path style="fill:#000000; fill-opacity:1.0000; stroke:none;fill-rule:evenodd;"
d="M 134.5500,106.2740
135.1500,106.2740
135.1500,106.8140
134.5500,106.8140
Z" /> 
<path style="fill:#000000; fill-opacity:1.0000; stroke:none;fill-rule:evenodd;"
d="M 125.1500,96.0100
125.7500,96.0100
125.7500,96.5500
125.1500,96.5500
Z" /> 
<path style="fill:#000000; fill-opacity:1.0000; stroke:none;fill-rule:evenodd;"
d="M 125.1500,96.8740
125.7500,96.8740
125.7500,97.4140
125.1500,97.4140
Z" /> 
<path style="fill:#000000; fill-opacity:1.0000; stroke:none;fill-rule:evenodd;"
d="M 139.2500,105.4100
139.8500,105.4100
139.8500,105.9500
139.2500,105.9500
Z" /> 
<path style="fill:#000000; fill-opacity:1.0000; stroke:none;fill-rule:evenodd;"
d="M 139.2500,106.2740
139.8500,106.2740
139.8500,106.8140
139.2500,106.8140
Z" /> 
<path style="fill:#000000; fill-opacity:1.0000; stroke:none;fill-rule:evenodd;"
d="M 125.1500,100.7100
125.7500,100.7100
125.7500,101.2500
125.1500,101.2500
Z" /> 
<path style="fill:#000000; fill-opacity:1.0000; stroke:none;fill-rule:evenodd;"
d="M 125.1500,101.5740
125.7500,101.5740
125.7500,102.1140
125.1500,102.1140
Z" /> 
<path style="fill:#000000; fill-opacity:1.0000; stroke:none;fill-rule:evenodd;"
d="M 129.8500,110.1100
130.4500,110.1100
130.4500,110.6500
129.8500,110.6500
Z" /> 
<path style="fill:#000000; fill-opacity:1.0000; stroke:none;fill-rule:evenodd;"
d="M 129.8500,110.9740
130.4500,110.9740
130.4500,111.5140
129.8500,111.5140
Z" /> 
<path style="fill:#000000; fill-opacity:1.0000; stroke:none;fill-rule:evenodd;"
d="M 129.8500,105.4100
130.4500,105.4100
130.4500,105.9500
129.8500,105.9500
Z" /> 
<path style="fill:#000000; fill-opacity:1.0000; stroke:none;fill-rule:evenodd;"
d="M 129.8500,106.2740
130.4500,106.2740
130.4500,106.8140
129.8500,106.8140
Z" /> 
<path style="fill:#000000; fill-opacity:1.0000; stroke:none;fill-rule:evenodd;"
d="M 139.2500,96.0100
139.8500,96.0100
139.8500,96.5500
139.2500,96.5500
Z" /> 
<path style="fill:#000000; fill-opacity:1.0000; stroke:none;fill-rule:evenodd;"
d="M 139.2500,96.8740
139.8500,96.8740
139.8500,97.4140
139.2500,97.4140
Z" /> 
<path style="fill:#000000; fill-opacity:1.0000; stroke:none;fill-rule:evenodd;"
d="M 134.5500,110.1100
135.1500,110.1100
135.1500,110.6500
134.5500,110.6500
Z" /> 
<path style="fill:#000000; fill-opacity:1.0000; stroke:none;fill-rule:evenodd;"
d="M 134.5500,110.9740
135.1500,110.9740
135.1500,111.5140
134.5500,111.5140
Z" /> 
<path style="fill:#000000; fill-opacity:1.0000; stroke:none;fill-rule:evenodd;"
d="M 125.1500,105.4100
125.7500,105.4100
125.7500,105.9500
125.1500,105.9500
Z" /> 
<path style="fill:#000000; fill-opacity:1.0000; stroke:none;fill-rule:evenodd;"
d="M 125.1500,106.2740
125.7500,106.2740
125.7500,106.8140
125.1500,106.8140
Z" /> 
</g> 
</svg>
