<?xml version="1.0" standalone="no"?>
 <!DOCTYPE svg PUBLIC "-//W3C//DTD SVG 1.1//EN" 
 "http://www.w3.org/Graphics/SVG/1.1/DTD/svg11.dtd"> 
<svg
  xmlns:svg="http://www.w3.org/2000/svg"
  xmlns="http://www.w3.org/2000/svg"
  xmlns:xlink="http://www.w3.org/1999/xlink"
  xmlns:inkscape="http://www.inkscape.org/namespaces/inkscape"
  version="1.1"
  width="297.0022mm" height="210.0072mm" viewBox="0.0000 0.0000 297.0022 210.0072">
<title>SVG Image created as 4x4-B_Courtyard.svg date 2026-06-30T15:29:50 </title>
  <desc>Image generated by PCBNEW </desc>
<g style="fill:#000000; fill-opacity:1.0000;stroke:#000000; stroke-opacity:1.0000;
stroke-linecap:round; stroke-linejoin:round;"
 transform="translate(0 0) scale(1 1)">
</g>
<g style="fill:none; 
stroke:#000000; stroke-width:0.0500; stroke-opacity:1; 
stroke-linecap:round; stroke-linejoin:round;">
<path d="M129.6000 95.7620
L129.6000 97.6620
" />
<path d="M130.7000 95.7620
L129.6000 95.7620
" />
<path d="M130.7000 95.7620
L130.7000 97.6620
" />
<path d="M130.7000 97.6620
L129.6000 97.6620
" />
<path d="M124.9000 109.8500
L124.9000 111.7500
" />
<path d="M126.0000 109.8500
L124.9000 109.8500
" />
<path d="M126.0000 109.8500
L126.0000 111.7500
" />
<path d="M126.0000 111.7500
L124.9000 111.7500
" />
<path d="M134.3000 100.4620
L134.3000 102.3620
" />
<path d="M135.4000 100.4620
L134.3000 100.4620
" />
<path d="M135.4000 100.4620
L135.4000 102.3620
" />
<path d="M135.4000 102.3620
L134.3000 102.3620
" />
<path d="M139.0000 100.4620
L139.0000 102.3620
" />
<path d="M140.1000 100.4620
L139.0000 100.4620
" />
<path d="M140.1000 100.4620
L140.1000 102.3620
" />
<path d="M140.1000 102.3620
L139.0000 102.3620
" />
<path d="M129.6000 100.4620
L129.6000 102.3620
" />
<path d="M130.7000 100.4620
L129.6000 100.4620
" />
<path d="M130.7000 100.4620
L130.7000 102.3620
" />
<path d="M130.7000 102.3620
L129.6000 102.3620
" />
<path d="M139.0000 109.8620
L139.0000 111.7620
" />
<path d="M140.1000 109.8620
L139.0000 109.8620
" />
<path d="M140.1000 109.8620
L140.1000 111.7620
" />
<path d="M140.1000 111.7620
L139.0000 111.7620
" />
<path d="M134.3000 95.7620
L134.3000 97.6620
" />
<path d="M135.4000 95.7620
L134.3000 95.7620
" />
<path d="M135.4000 95.7620
L135.4000 97.6620
" />
<path d="M135.4000 97.6620
L134.3000 97.6620
" />
<path d="M134.3000 105.1620
L134.3000 107.0620
" />
<path d="M135.4000 105.1620
L134.3000 105.1620
" />
<path d="M135.4000 105.1620
L135.4000 107.0620
" />
<path d="M135.4000 107.0620
L134.3000 107.0620
" />
<path d="M124.9000 95.7620
L124.9000 97.6620
" />
<path d="M126.0000 95.7620
L124.9000 95.7620
" />
<path d="M126.0000 95.7620
L126.0000 97.6620
" />
<path d="M126.0000 97.6620
L124.9000 97.6620
" />
<path d="M139.0000 105.1620
L139.0000 107.0620
" />
<path d="M140.1000 105.1620
L139.0000 105.1620
" />
<path d="M140.1000 105.1620
L140.1000 107.0620
" />
<path d="M140.1000 107.0620
L139.0000 107.0620
" />
<path d="M124.9000 100.4620
L124.9000 102.3620
" />
<path d="M126.0000 100.4620
L124.9000 100.4620
" />
<path d="M126.0000 100.4620
L126.0000 102.3620
" />
<path d="M126.0000 102.3620
L124.9000 102.3620
" />
<path d="M129.6000 109.8620
L129.6000 111.7620
" />
<path d="M130.7000 109.8620
L129.6000 109.8620
" />
<path d="M130.7000 109.8620
L130.7000 111.7620
" />
<path d="M130.7000 111.7620
L129.6000 111.7620
" />
<path d="M129.6000 105.1620
L129.6000 107.0620
" />
<path d="M130.7000 105.1620
L129.6000 105.1620
" />
<path d="M130.7000 105.1620
L130.7000 107.0620
" />
<path d="M130.7000 107.0620
L129.6000 107.0620
" />
<path d="M139.0000 95.7620
L139.0000 97.6620
" />
<path d="M140.1000 95.7620
L139.0000 95.7620
" />
<path d="M140.1000 95.7620
L140.1000 97.6620
" />
<path d="M140.1000 97.6620
L139.0000 97.6620
" />
<path d="M134.3000 109.8620
L134.3000 111.7620
" />
<path d="M135.4000 109.8620
L134.3000 109.8620
" />
<path d="M135.4000 109.8620
L135.4000 111.7620
" />
<path d="M135.4000 111.7620
L134.3000 111.7620
" />
<path d="M124.9000 105.1620
L124.9000 107.0620
" />
<path d="M126.0000 105.1620
L124.9000 105.1620
" />
<path d="M126.0000 105.1620
L126.0000 107.0620
" />
<path d="M126.0000 107.0620
L124.9000 107.0620
" />
</g> 
</svg>
