<?xml version="1.0" standalone="no"?>
 <!DOCTYPE svg PUBLIC "-//W3C//DTD SVG 1.1//EN" 
 "http://www.w3.org/Graphics/SVG/1.1/DTD/svg11.dtd"> 
<svg
  xmlns:svg="http://www.w3.org/2000/svg"
  xmlns="http://www.w3.org/2000/svg"
  xmlns:xlink="http://www.w3.org/1999/xlink"
  xmlns:inkscape="http://www.inkscape.org/namespaces/inkscape"
  version="1.1"
  width="297.0022mm" height="210.0072mm" viewBox="0.0000 0.0000 297.0022 210.0072">
<title>SVG Image created as 4x4-F_Silkscreen.svg date 2026-06-30T15:29:50 </title>
  <desc>Image generated by PCBNEW </desc>
<g style="fill:#000000; fill-opacity:1.0000;stroke:#000000; stroke-opacity:1.0000;
stroke-linecap:round; stroke-linejoin:round;"
 transform="translate(0 0) scale(1 1)">
</g>
<g style="fill:none; 
stroke:#000000; stroke-width:0.1000; stroke-opacity:1; 
stroke-linecap:round; stroke-linejoin:round;">
<text x="127.3260" y="104.7900"
textLength="1.1524" font-size="0.6667" lengthAdjust="spacingAndGlyphs"
text-anchor="middle" opacity="0" stroke-opacity="0">X3</text>
<g class="stroked-text"><desc>X3</desc>
<path d="M126.9212 104.2661
L127.2546 104.7661
" />
<path d="M127.2546 104.2661
L126.9212 104.7661
" />
<path d="M127.3974 104.2661
L127.7070 104.2661
" />
<path d="M127.7070 104.2661
L127.5403 104.4566
" />
<path d="M127.5403 104.4566
L127.6117 104.4566
" />
<path d="M127.6117 104.4566
L127.6593 104.4804
" />
<path d="M127.6593 104.4804
L127.6831 104.5042
" />
<path d="M127.6831 104.5042
L127.7070 104.5518
" />
<path d="M127.7070 104.5518
L127.7070 104.6709
" />
<path d="M127.7070 104.6709
L127.6831 104.7185
" />
<path d="M127.6831 104.7185
L127.6593 104.7423
" />
<path d="M127.6593 104.7423
L127.6117 104.7661
" />
<path d="M127.6117 104.7661
L127.4689 104.7661
" />
<path d="M127.4689 104.7661
L127.4212 104.7423
" />
<path d="M127.4212 104.7423
L127.3974 104.7185
" />
</g><text x="127.3260" y="109.4900"
textLength="1.1524" font-size="0.6667" lengthAdjust="spacingAndGlyphs"
text-anchor="middle" opacity="0" stroke-opacity="0">X4</text>
<g class="stroked-text"><desc>X4</desc>
<path d="M126.9212 108.9661
L127.2546 109.4661
" />
<path d="M127.2546 108.9661
L126.9212 109.4661
" />
<path d="M127.6593 109.1328
L127.6593 109.4661
" />
<path d="M127.5403 108.9423
L127.4212 109.2994
" />
<path d="M127.4212 109.2994
L127.7308 109.2994
" />
</g><text x="127.3910" y="98.3180"
textLength="1.1524" font-size="0.6667" lengthAdjust="spacingAndGlyphs"
text-anchor="middle" opacity="0" stroke-opacity="0">X1</text>
<g class="stroked-text"><desc>X1</desc>
<path d="M126.9862 97.7941
L127.3196 98.2941
" />
<path d="M127.3196 97.7941
L126.9862 98.2941
" />
<path d="M127.7720 98.2941
L127.4862 98.2941
" />
<path d="M127.6291 98.2941
L127.6291 97.7941
" />
<path d="M127.6291 97.7941
L127.5815 97.8655
" />
<path d="M127.5815 97.8655
L127.5339 97.9132
" />
<path d="M127.5339 97.9132
L127.4862 97.9370
" />
</g><text x="127.4510" y="100.0680"
textLength="1.1524" font-size="0.6667" lengthAdjust="spacingAndGlyphs"
text-anchor="middle" opacity="0" stroke-opacity="0">X2</text>
<g class="stroked-text"><desc>X2</desc>
<path d="M127.0462 99.5441
L127.3796 100.0441
" />
<path d="M127.3796 99.5441
L127.0462 100.0441
" />
<path d="M127.5462 99.5917
L127.5700 99.5679
" />
<path d="M127.5700 99.5679
L127.6177 99.5441
" />
<path d="M127.6177 99.5441
L127.7367 99.5441
" />
<path d="M127.7367 99.5441
L127.7843 99.5679
" />
<path d="M127.7843 99.5679
L127.8081 99.5917
" />
<path d="M127.8081 99.5917
L127.8320 99.6393
" />
<path d="M127.8320 99.6393
L127.8320 99.6870
" />
<path d="M127.8320 99.6870
L127.8081 99.7584
" />
<path d="M127.8081 99.7584
L127.5224 100.0441
" />
<path d="M127.5224 100.0441
L127.8320 100.0441
" />
</g></g>
<g style="fill:none; 
stroke:#000000; stroke-width:0.1250; stroke-opacity:1; 
stroke-linecap:round; stroke-linejoin:round;">
<text x="124.3450" y="96.5570"
textLength="1.7274" font-size="0.6667" lengthAdjust="spacingAndGlyphs"
text-anchor="start" opacity="0" stroke-opacity="0">RX1</text>
<g class="stroked-text"><desc>RX1</desc>
<path d="M124.8320 96.4893
L124.6653 96.2512
" />
<path d="M124.5463 96.4893
L124.5463 95.9893
" />
<path d="M124.5463 95.9893
L124.7368 95.9893
" />
<path d="M124.7368 95.9893
L124.7844 96.0131
" />
<path d="M124.7844 96.0131
L124.8082 96.0369
" />
<path d="M124.8082 96.0369
L124.8320 96.0845
" />
<path d="M124.8320 96.0845
L124.8320 96.1560
" />
<path d="M124.8320 96.1560
L124.8082 96.2036
" />
<path d="M124.8082 96.2036
L124.7844 96.2274
" />
<path d="M124.7844 96.2274
L124.7368 96.2512
" />
<path d="M124.7368 96.2512
L124.5463 96.2512
" />
<path d="M124.9987 95.9893
L125.3320 96.4893
" />
<path d="M125.3320 95.9893
L124.9987 96.4893
" />
<path d="M125.7844 96.4893
L125.4987 96.4893
" />
<path d="M125.6415 96.4893
L125.6415 95.9893
" />
<path d="M125.6415 95.9893
L125.5939 96.0607
" />
<path d="M125.5939 96.0607
L125.5463 96.1084
" />
<path d="M125.5463 96.1084
L125.4987 96.1322
" />
</g><text x="124.7030" y="92.3060"
textLength="1.7274" font-size="0.6667" lengthAdjust="spacingAndGlyphs"
text-anchor="start" opacity="0" stroke-opacity="0">RX2</text>
<g class="stroked-text"><desc>RX2</desc>
<path d="M125.1900 92.2383
L125.0233 92.0002
" />
<path d="M124.9043 92.2383
L124.9043 91.7383
" />
<path d="M124.9043 91.7383
L125.0948 91.7383
" />
<path d="M125.0948 91.7383
L125.1424 91.7621
" />
<path d="M125.1424 91.7621
L125.1662 91.7859
" />
<path d="M125.1662 91.7859
L125.1900 91.8335
" />
<path d="M125.1900 91.8335
L125.1900 91.9050
" />
<path d="M125.1900 91.9050
L125.1662 91.9526
" />
<path d="M125.1662 91.9526
L125.1424 91.9764
" />
<path d="M125.1424 91.9764
L125.0948 92.0002
" />
<path d="M125.0948 92.0002
L124.9043 92.0002
" />
<path d="M125.3567 91.7383
L125.6900 92.2383
" />
<path d="M125.6900 91.7383
L125.3567 92.2383
" />
<path d="M125.8567 91.7859
L125.8805 91.7621
" />
<path d="M125.8805 91.7621
L125.9281 91.7383
" />
<path d="M125.9281 91.7383
L126.0471 91.7383
" />
<path d="M126.0471 91.7383
L126.0948 91.7621
" />
<path d="M126.0948 91.7621
L126.1186 91.7859
" />
<path d="M126.1186 91.7859
L126.1424 91.8335
" />
<path d="M126.1424 91.8335
L126.1424 91.8812
" />
<path d="M126.1424 91.8812
L126.1186 91.9526
" />
<path d="M126.1186 91.9526
L125.8329 92.2383
" />
<path d="M125.8329 92.2383
L126.1424 92.2383
" />
</g><text x="142.7080" y="92.3370"
textLength="1.7274" font-size="0.6667" lengthAdjust="spacingAndGlyphs"
text-anchor="start" opacity="0" stroke-opacity="0">RX3</text>
<g class="stroked-text"><desc>RX3</desc>
<path d="M143.1950 92.2693
L143.0283 92.0312
" />
<path d="M142.9093 92.2693
L142.9093 91.7693
" />
<path d="M142.9093 91.7693
L143.0998 91.7693
" />
<path d="M143.0998 91.7693
L143.1474 91.7931
" />
<path d="M143.1474 91.7931
L143.1712 91.8169
" />
<path d="M143.1712 91.8169
L143.1950 91.8645
" />
<path d="M143.1950 91.8645
L143.1950 91.9360
" />
<path d="M143.1950 91.9360
L143.1712 91.9836
" />
<path d="M143.1712 91.9836
L143.1474 92.0074
" />
<path d="M143.1474 92.0074
L143.0998 92.0312
" />
<path d="M143.0998 92.0312
L142.9093 92.0312
" />
<path d="M143.3617 91.7693
L143.6950 92.2693
" />
<path d="M143.6950 91.7693
L143.3617 92.2693
" />
<path d="M143.8379 91.7693
L144.1474 91.7693
" />
<path d="M144.1474 91.7693
L143.9807 91.9598
" />
<path d="M143.9807 91.9598
L144.0521 91.9598
" />
<path d="M144.0521 91.9598
L144.0998 91.9836
" />
<path d="M144.0998 91.9836
L144.1236 92.0074
" />
<path d="M144.1236 92.0074
L144.1474 92.0550
" />
<path d="M144.1474 92.0550
L144.1474 92.1741
" />
<path d="M144.1474 92.1741
L144.1236 92.2217
" />
<path d="M144.1236 92.2217
L144.0998 92.2455
" />
<path d="M144.0998 92.2455
L144.0521 92.2693
" />
<path d="M144.0521 92.2693
L143.9093 92.2693
" />
<path d="M143.9093 92.2693
L143.8617 92.2455
" />
<path d="M143.8617 92.2455
L143.8379 92.2217
" />
</g><text x="143.1450" y="96.5780"
textLength="1.7274" font-size="0.6667" lengthAdjust="spacingAndGlyphs"
text-anchor="start" opacity="0" stroke-opacity="0">RX4</text>
<g class="stroked-text"><desc>RX4</desc>
<path d="M143.6320 96.5103
L143.4653 96.2722
" />
<path d="M143.3463 96.5103
L143.3463 96.0103
" />
<path d="M143.3463 96.0103
L143.5368 96.0103
" />
<path d="M143.5368 96.0103
L143.5844 96.0341
" />
<path d="M143.5844 96.0341
L143.6082 96.0579
" />
<path d="M143.6082 96.0579
L143.6320 96.1055
" />
<path d="M143.6320 96.1055
L143.6320 96.1770
" />
<path d="M143.6320 96.1770
L143.6082 96.2246
" />
<path d="M143.6082 96.2246
L143.5844 96.2484
" />
<path d="M143.5844 96.2484
L143.5368 96.2722
" />
<path d="M143.5368 96.2722
L143.3463 96.2722
" />
<path d="M143.7987 96.0103
L144.1320 96.5103
" />
<path d="M144.1320 96.0103
L143.7987 96.5103
" />
<path d="M144.5368 96.1770
L144.5368 96.5103
" />
<path d="M144.4177 95.9865
L144.2987 96.3436
" />
<path d="M144.2987 96.3436
L144.6082 96.3436
" />
</g><g transform="rotate(-90.000000 125.1540 113.6270)">
<text x="125.1540" y="113.6270"
textLength="1.6083" font-size="0.6667" lengthAdjust="spacingAndGlyphs"
text-anchor="start" opacity="0" stroke-opacity="0">TX1</text>
</g>
<g class="stroked-text"><desc>TX1</desc>
<path d="M124.5863 113.4971
L124.5863 113.2114
" />
<path d="M125.0863 113.3543
L124.5863 113.3543
" />
<path d="M124.5863 113.0924
L125.0863 112.7591
" />
<path d="M124.5863 112.7591
L125.0863 113.0924
" />
<path d="M125.0863 112.3067
L125.0863 112.5924
" />
<path d="M125.0863 112.4495
L124.5863 112.4495
" />
<path d="M124.5863 112.4495
L124.6577 112.4971
" />
<path d="M124.6577 112.4971
L124.7054 112.5448
" />
<path d="M124.7054 112.5448
L124.7292 112.5924
" />
</g><g transform="rotate(-90.000000 131.9497 113.8700)">
<text x="131.9497" y="113.8700"
textLength="1.6083" font-size="0.6667" lengthAdjust="spacingAndGlyphs"
text-anchor="start" opacity="0" stroke-opacity="0">TX2</text>
</g>
<g class="stroked-text"><desc>TX2</desc>
<path d="M131.3821 113.7401
L131.3821 113.4544
" />
<path d="M131.8821 113.5973
L131.3821 113.5973
" />
<path d="M131.3821 113.3354
L131.8821 113.0020
" />
<path d="M131.3821 113.0020
L131.8821 113.3354
" />
<path d="M131.4297 112.8354
L131.4059 112.8116
" />
<path d="M131.4059 112.8116
L131.3821 112.7640
" />
<path d="M131.3821 112.7640
L131.3821 112.6449
" />
<path d="M131.3821 112.6449
L131.4059 112.5973
" />
<path d="M131.4059 112.5973
L131.4297 112.5735
" />
<path d="M131.4297 112.5735
L131.4773 112.5497
" />
<path d="M131.4773 112.5497
L131.5249 112.5497
" />
<path d="M131.5249 112.5497
L131.5963 112.5735
" />
<path d="M131.5963 112.5735
L131.8821 112.8592
" />
<path d="M131.8821 112.8592
L131.8821 112.5497
" />
</g><g transform="rotate(-90.000000 135.3695 113.8700)">
<text x="135.3695" y="113.8700"
textLength="1.6083" font-size="0.6667" lengthAdjust="spacingAndGlyphs"
text-anchor="start" opacity="0" stroke-opacity="0">TX3</text>
</g>
<g class="stroked-text"><desc>TX3</desc>
<path d="M134.8018 113.7401
L134.8018 113.4544
" />
<path d="M135.3018 113.5973
L134.8018 113.5973
" />
<path d="M134.8018 113.3354
L135.3018 113.0020
" />
<path d="M134.8018 113.0020
L135.3018 113.3354
" />
<path d="M134.8018 112.8592
L134.8018 112.5497
" />
<path d="M134.8018 112.5497
L134.9923 112.7163
" />
<path d="M134.9923 112.7163
L134.9923 112.6449
" />
<path d="M134.9923 112.6449
L135.0161 112.5973
" />
<path d="M135.0161 112.5973
L135.0399 112.5735
" />
<path d="M135.0399 112.5735
L135.0875 112.5497
" />
<path d="M135.0875 112.5497
L135.2066 112.5497
" />
<path d="M135.2066 112.5497
L135.2542 112.5735
" />
<path d="M135.2542 112.5735
L135.2780 112.5973
" />
<path d="M135.2780 112.5973
L135.3018 112.6449
" />
<path d="M135.3018 112.6449
L135.3018 112.7878
" />
<path d="M135.3018 112.7878
L135.2780 112.8354
" />
<path d="M135.2780 112.8354
L135.2542 112.8592
" />
</g><g transform="rotate(-90.000000 142.2090 113.8700)">
<text x="142.2090" y="113.8700"
textLength="1.6083" font-size="0.6667" lengthAdjust="spacingAndGlyphs"
text-anchor="start" opacity="0" stroke-opacity="0">TX4</text>
</g>
<g class="stroked-text"><desc>TX4</desc>
<path d="M141.6413 113.7401
L141.6413 113.4544
" />
<path d="M142.1413 113.5973
L141.6413 113.5973
" />
<path d="M141.6413 113.3354
L142.1413 113.0020
" />
<path d="M141.6413 113.0020
L142.1413 113.3354
" />
<path d="M141.8080 112.5973
L142.1413 112.5973
" />
<path d="M141.6175 112.7163
L141.9746 112.8354
" />
<path d="M141.9746 112.8354
L141.9746 112.5259
" />
</g><g transform="rotate(-90.000000 128.5300 113.9176)">
<text x="128.5300" y="113.9176"
textLength="1.7036" font-size="0.6667" lengthAdjust="spacingAndGlyphs"
text-anchor="start" opacity="0" stroke-opacity="0">VDD</text>
</g>
<g class="stroked-text"><desc>VDD</desc>
<path d="M127.9623 113.7878
L128.4623 113.6211
" />
<path d="M128.4623 113.6211
L127.9623 113.4544
" />
<path d="M128.4623 113.2878
L127.9623 113.2878
" />
<path d="M127.9623 113.2878
L127.9623 113.1687
" />
<path d="M127.9623 113.1687
L127.9861 113.0973
" />
<path d="M127.9861 113.0973
L128.0337 113.0497
" />
<path d="M128.0337 113.0497
L128.0814 113.0259
" />
<path d="M128.0814 113.0259
L128.1766 113.0021
" />
<path d="M128.1766 113.0021
L128.2480 113.0021
" />
<path d="M128.2480 113.0021
L128.3433 113.0259
" />
<path d="M128.3433 113.0259
L128.3909 113.0497
" />
<path d="M128.3909 113.0497
L128.4385 113.0973
" />
<path d="M128.4385 113.0973
L128.4623 113.1687
" />
<path d="M128.4623 113.1687
L128.4623 113.2878
" />
<path d="M128.4623 112.7878
L127.9623 112.7878
" />
<path d="M127.9623 112.7878
L127.9623 112.6687
" />
<path d="M127.9623 112.6687
L127.9861 112.5973
" />
<path d="M127.9861 112.5973
L128.0337 112.5497
" />
<path d="M128.0337 112.5497
L128.0814 112.5259
" />
<path d="M128.0814 112.5259
L128.1766 112.5021
" />
<path d="M128.1766 112.5021
L128.2480 112.5021
" />
<path d="M128.2480 112.5021
L128.3433 112.5259
" />
<path d="M128.3433 112.5259
L128.3909 112.5497
" />
<path d="M128.3909 112.5497
L128.4385 112.5973
" />
<path d="M128.4385 112.5973
L128.4623 112.6687
" />
<path d="M128.4623 112.6687
L128.4623 112.7878
" />
</g><g transform="rotate(-90.000000 138.7892 113.9652)">
<text x="138.7892" y="113.9652"
textLength="1.7988" font-size="0.6667" lengthAdjust="spacingAndGlyphs"
text-anchor="start" opacity="0" stroke-opacity="0">GND</text>
</g>
<g class="stroked-text"><desc>GND</desc>
<path d="M138.2454 113.5020
L138.2216 113.5497
" />
<path d="M138.2216 113.5497
L138.2216 113.6211
" />
<path d="M138.2216 113.6211
L138.2454 113.6925
" />
<path d="M138.2454 113.6925
L138.2930 113.7401
" />
<path d="M138.2930 113.7401
L138.3406 113.7640
" />
<path d="M138.3406 113.7640
L138.4358 113.7878
" />
<path d="M138.4358 113.7878
L138.5073 113.7878
" />
<path d="M138.5073 113.7878
L138.6025 113.7640
" />
<path d="M138.6025 113.7640
L138.6501 113.7401
" />
<path d="M138.6501 113.7401
L138.6977 113.6925
" />
<path d="M138.6977 113.6925
L138.7216 113.6211
" />
<path d="M138.7216 113.6211
L138.7216 113.5735
" />
<path d="M138.7216 113.5735
L138.6977 113.5020
" />
<path d="M138.6977 113.5020
L138.6739 113.4782
" />
<path d="M138.6739 113.4782
L138.5073 113.4782
" />
<path d="M138.5073 113.4782
L138.5073 113.5735
" />
<path d="M138.7216 113.2640
L138.2216 113.2640
" />
<path d="M138.2216 113.2640
L138.7216 112.9782
" />
<path d="M138.7216 112.9782
L138.2216 112.9782
" />
<path d="M138.7216 112.7401
L138.2216 112.7401
" />
<path d="M138.2216 112.7401
L138.2216 112.6211
" />
<path d="M138.2216 112.6211
L138.2454 112.5497
" />
<path d="M138.2454 112.5497
L138.2930 112.5020
" />
<path d="M138.2930 112.5020
L138.3406 112.4782
" />
<path d="M138.3406 112.4782
L138.4358 112.4544
" />
<path d="M138.4358 112.4544
L138.5073 112.4544
" />
<path d="M138.5073 112.4544
L138.6025 112.4782
" />
<path d="M138.6025 112.4782
L138.6501 112.5020
" />
<path d="M138.6501 112.5020
L138.6977 112.5497
" />
<path d="M138.6977 112.5497
L138.7216 112.6211
" />
<path d="M138.7216 112.6211
L138.7216 112.7401
" />
</g></g>
<g style="fill:none; 
stroke:#000000; stroke-width:0.1000; stroke-opacity:1; 
stroke-linecap:round; stroke-linejoin:round;">
<text x="131.9100" y="98.3200"
textLength="1.1524" font-size="0.6667" lengthAdjust="spacingAndGlyphs"
text-anchor="middle" opacity="0" stroke-opacity="0">X5</text>
<g class="stroked-text"><desc>X5</desc>
<path d="M131.5052 97.7961
L131.8386 98.2961
" />
<path d="M131.8386 97.7961
L131.5052 98.2961
" />
<path d="M132.2671 97.7961
L132.0290 97.7961
" />
<path d="M132.0290 97.7961
L132.0052 98.0342
" />
<path d="M132.0052 98.0342
L132.0290 98.0104
" />
<path d="M132.0290 98.0104
L132.0767 97.9866
" />
<path d="M132.0767 97.9866
L132.1957 97.9866
" />
<path d="M132.1957 97.9866
L132.2433 98.0104
" />
<path d="M132.2433 98.0104
L132.2671 98.0342
" />
<path d="M132.2671 98.0342
L132.2910 98.0818
" />
<path d="M132.2910 98.0818
L132.2910 98.2009
" />
<path d="M132.2910 98.2009
L132.2671 98.2485
" />
<path d="M132.2671 98.2485
L132.2433 98.2723
" />
<path d="M132.2433 98.2723
L132.1957 98.2961
" />
<path d="M132.1957 98.2961
L132.0767 98.2961
" />
<path d="M132.0767 98.2961
L132.0290 98.2723
" />
<path d="M132.0290 98.2723
L132.0052 98.2485
" />
</g><text x="141.3090" y="100.0880"
textLength="1.6286" font-size="0.6667" lengthAdjust="spacingAndGlyphs"
text-anchor="middle" opacity="0" stroke-opacity="0">X14</text>
<g class="stroked-text"><desc>X14</desc>
<path d="M140.6661 99.5641
L140.9995 100.0641
" />
<path d="M140.9995 99.5641
L140.6661 100.0641
" />
<path d="M141.4519 100.0641
L141.1661 100.0641
" />
<path d="M141.3090 100.0641
L141.3090 99.5641
" />
<path d="M141.3090 99.5641
L141.2614 99.6355
" />
<path d="M141.2614 99.6355
L141.2138 99.6832
" />
<path d="M141.2138 99.6832
L141.1661 99.7070
" />
<path d="M141.8804 99.7308
L141.8804 100.0641
" />
<path d="M141.7614 99.5403
L141.6423 99.8974
" />
<path d="M141.6423 99.8974
L141.9519 99.8974
" />
</g></g>
<g style="fill:none; 
stroke:#000000; stroke-width:0.1500; stroke-opacity:1; 
stroke-linecap:round; stroke-linejoin:round;">
<text x="140.7120" y="93.2250"
textLength="1.4343" font-size="0.8667" lengthAdjust="spacingAndGlyphs"
text-anchor="middle" opacity="0" stroke-opacity="0">J2</text>
<g class="stroked-text"><desc>J2</desc>
<path d="M140.4953 92.5429
L140.4953 93.0072
" />
<path d="M140.4953 93.0072
L140.4644 93.1000
" />
<path d="M140.4644 93.1000
L140.4025 93.1619
" />
<path d="M140.4025 93.1619
L140.3096 93.1929
" />
<path d="M140.3096 93.1929
L140.2477 93.1929
" />
<path d="M140.7739 92.6048
L140.8049 92.5739
" />
<path d="M140.8049 92.5739
L140.8668 92.5429
" />
<path d="M140.8668 92.5429
L141.0215 92.5429
" />
<path d="M141.0215 92.5429
L141.0834 92.5739
" />
<path d="M141.0834 92.5739
L141.1144 92.6048
" />
<path d="M141.1144 92.6048
L141.1453 92.6667
" />
<path d="M141.1453 92.6667
L141.1453 92.7286
" />
<path d="M141.1453 92.7286
L141.1144 92.8215
" />
<path d="M141.1144 92.8215
L140.7430 93.1929
" />
<path d="M140.7430 93.1929
L141.1453 93.1929
" />
</g></g>
<g style="fill:none; 
stroke:#000000; stroke-width:0.1000; stroke-opacity:1; 
stroke-linecap:round; stroke-linejoin:round;">
<text x="132.1030" y="100.0600"
textLength="1.1524" font-size="0.6667" lengthAdjust="spacingAndGlyphs"
text-anchor="middle" opacity="0" stroke-opacity="0">X6</text>
<g class="stroked-text"><desc>X6</desc>
<path d="M131.6982 99.5361
L132.0316 100.0361
" />
<path d="M132.0316 99.5361
L131.6982 100.0361
" />
<path d="M132.4363 99.5361
L132.3411 99.5361
" />
<path d="M132.3411 99.5361
L132.2935 99.5599
" />
<path d="M132.2935 99.5599
L132.2697 99.5837
" />
<path d="M132.2697 99.5837
L132.2220 99.6552
" />
<path d="M132.2220 99.6552
L132.1982 99.7504
" />
<path d="M132.1982 99.7504
L132.1982 99.9409
" />
<path d="M132.1982 99.9409
L132.2220 99.9885
" />
<path d="M132.2220 99.9885
L132.2459 100.0123
" />
<path d="M132.2459 100.0123
L132.2935 100.0361
" />
<path d="M132.2935 100.0361
L132.3887 100.0361
" />
<path d="M132.3887 100.0361
L132.4363 100.0123
" />
<path d="M132.4363 100.0123
L132.4601 99.9885
" />
<path d="M132.4601 99.9885
L132.4840 99.9409
" />
<path d="M132.4840 99.9409
L132.4840 99.8218
" />
<path d="M132.4840 99.8218
L132.4601 99.7742
" />
<path d="M132.4601 99.7742
L132.4363 99.7504
" />
<path d="M132.4363 99.7504
L132.3887 99.7266
" />
<path d="M132.3887 99.7266
L132.2935 99.7266
" />
<path d="M132.2935 99.7266
L132.2459 99.7504
" />
<path d="M132.2459 99.7504
L132.2220 99.7742
" />
<path d="M132.2220 99.7742
L132.1982 99.8218
" />
</g><text x="136.7260" y="104.7900"
textLength="1.6286" font-size="0.6667" lengthAdjust="spacingAndGlyphs"
text-anchor="middle" opacity="0" stroke-opacity="0">X11</text>
<g class="stroked-text"><desc>X11</desc>
<path d="M136.0831 104.2661
L136.4165 104.7661
" />
<path d="M136.4165 104.2661
L136.0831 104.7661
" />
<path d="M136.8689 104.7661
L136.5831 104.7661
" />
<path d="M136.7260 104.7661
L136.7260 104.2661
" />
<path d="M136.7260 104.2661
L136.6784 104.3375
" />
<path d="M136.6784 104.3375
L136.6308 104.3852
" />
<path d="M136.6308 104.3852
L136.5831 104.4090
" />
<path d="M137.3450 104.7661
L137.0593 104.7661
" />
<path d="M137.2022 104.7661
L137.2022 104.2661
" />
<path d="M137.2022 104.2661
L137.1546 104.3375
" />
<path d="M137.1546 104.3375
L137.1070 104.3852
" />
<path d="M137.1070 104.3852
L137.0593 104.4090
" />
</g><text x="141.2260" y="104.7900"
textLength="1.6286" font-size="0.6667" lengthAdjust="spacingAndGlyphs"
text-anchor="middle" opacity="0" stroke-opacity="0">X15</text>
<g class="stroked-text"><desc>X15</desc>
<path d="M140.5831 104.2661
L140.9165 104.7661
" />
<path d="M140.9165 104.2661
L140.5831 104.7661
" />
<path d="M141.3689 104.7661
L141.0831 104.7661
" />
<path d="M141.2260 104.7661
L141.2260 104.2661
" />
<path d="M141.2260 104.2661
L141.1784 104.3375
" />
<path d="M141.1784 104.3375
L141.1308 104.3852
" />
<path d="M141.1308 104.3852
L141.0831 104.4090
" />
<path d="M141.8212 104.2661
L141.5831 104.2661
" />
<path d="M141.5831 104.2661
L141.5593 104.5042
" />
<path d="M141.5593 104.5042
L141.5831 104.4804
" />
<path d="M141.5831 104.4804
L141.6308 104.4566
" />
<path d="M141.6308 104.4566
L141.7498 104.4566
" />
<path d="M141.7498 104.4566
L141.7974 104.4804
" />
<path d="M141.7974 104.4804
L141.8212 104.5042
" />
<path d="M141.8212 104.5042
L141.8450 104.5518
" />
<path d="M141.8450 104.5518
L141.8450 104.6709
" />
<path d="M141.8450 104.6709
L141.8212 104.7185
" />
<path d="M141.8212 104.7185
L141.7974 104.7423
" />
<path d="M141.7974 104.7423
L141.7498 104.7661
" />
<path d="M141.7498 104.7661
L141.6308 104.7661
" />
<path d="M141.6308 104.7661
L141.5831 104.7423
" />
<path d="M141.5831 104.7423
L141.5593 104.7185
" />
</g><text x="141.2260" y="109.4900"
textLength="1.6286" font-size="0.6667" lengthAdjust="spacingAndGlyphs"
text-anchor="middle" opacity="0" stroke-opacity="0">X16</text>
<g class="stroked-text"><desc>X16</desc>
<path d="M140.5831 108.9661
L140.9165 109.4661
" />
<path d="M140.9165 108.9661
L140.5831 109.4661
" />
<path d="M141.3689 109.4661
L141.0831 109.4661
" />
<path d="M141.2260 109.4661
L141.2260 108.9661
" />
<path d="M141.2260 108.9661
L141.1784 109.0375
" />
<path d="M141.1784 109.0375
L141.1308 109.0852
" />
<path d="M141.1308 109.0852
L141.0831 109.1090
" />
<path d="M141.7974 108.9661
L141.7022 108.9661
" />
<path d="M141.7022 108.9661
L141.6546 108.9899
" />
<path d="M141.6546 108.9899
L141.6308 109.0137
" />
<path d="M141.6308 109.0137
L141.5831 109.0852
" />
<path d="M141.5831 109.0852
L141.5593 109.1804
" />
<path d="M141.5593 109.1804
L141.5593 109.3709
" />
<path d="M141.5593 109.3709
L141.5831 109.4185
" />
<path d="M141.5831 109.4185
L141.6070 109.4423
" />
<path d="M141.6070 109.4423
L141.6546 109.4661
" />
<path d="M141.6546 109.4661
L141.7498 109.4661
" />
<path d="M141.7498 109.4661
L141.7974 109.4423
" />
<path d="M141.7974 109.4423
L141.8212 109.4185
" />
<path d="M141.8212 109.4185
L141.8450 109.3709
" />
<path d="M141.8450 109.3709
L141.8450 109.2518
" />
<path d="M141.8450 109.2518
L141.8212 109.2042
" />
<path d="M141.8212 109.2042
L141.7974 109.1804
" />
<path d="M141.7974 109.1804
L141.7498 109.1566
" />
<path d="M141.7498 109.1566
L141.6546 109.1566
" />
<path d="M141.6546 109.1566
L141.6070 109.1804
" />
<path d="M141.6070 109.1804
L141.5831 109.2042
" />
<path d="M141.5831 109.2042
L141.5593 109.2518
" />
</g><text x="136.5210" y="99.9810"
textLength="1.6286" font-size="0.6667" lengthAdjust="spacingAndGlyphs"
text-anchor="middle" opacity="0" stroke-opacity="0">X10</text>
<g class="stroked-text"><desc>X10</desc>
<path d="M135.8781 99.4571
L136.2115 99.9571
" />
<path d="M136.2115 99.4571
L135.8781 99.9571
" />
<path d="M136.6639 99.9571
L136.3781 99.9571
" />
<path d="M136.5210 99.9571
L136.5210 99.4571
" />
<path d="M136.5210 99.4571
L136.4734 99.5285
" />
<path d="M136.4734 99.5285
L136.4258 99.5762
" />
<path d="M136.4258 99.5762
L136.3781 99.6000
" />
<path d="M136.9734 99.4571
L137.0210 99.4571
" />
<path d="M137.0210 99.4571
L137.0686 99.4809
" />
<path d="M137.0686 99.4809
L137.0924 99.5047
" />
<path d="M137.0924 99.5047
L137.1162 99.5523
" />
<path d="M137.1162 99.5523
L137.1400 99.6476
" />
<path d="M137.1400 99.6476
L137.1400 99.7666
" />
<path d="M137.1400 99.7666
L137.1162 99.8619
" />
<path d="M137.1162 99.8619
L137.0924 99.9095
" />
<path d="M137.0924 99.9095
L137.0686 99.9333
" />
<path d="M137.0686 99.9333
L137.0210 99.9571
" />
<path d="M137.0210 99.9571
L136.9734 99.9571
" />
<path d="M136.9734 99.9571
L136.9258 99.9333
" />
<path d="M136.9258 99.9333
L136.9020 99.9095
" />
<path d="M136.9020 99.9095
L136.8781 99.8619
" />
<path d="M136.8781 99.8619
L136.8543 99.7666
" />
<path d="M136.8543 99.7666
L136.8543 99.6476
" />
<path d="M136.8543 99.6476
L136.8781 99.5523
" />
<path d="M136.8781 99.5523
L136.9020 99.5047
" />
<path d="M136.9020 99.5047
L136.9258 99.4809
" />
<path d="M136.9258 99.4809
L136.9734 99.4571
" />
</g><text x="141.2380" y="98.3480"
textLength="1.6286" font-size="0.6667" lengthAdjust="spacingAndGlyphs"
text-anchor="middle" opacity="0" stroke-opacity="0">X13</text>
<g class="stroked-text"><desc>X13</desc>
<path d="M140.5951 97.8241
L140.9285 98.3241
" />
<path d="M140.9285 97.8241
L140.5951 98.3241
" />
<path d="M141.3809 98.3241
L141.0951 98.3241
" />
<path d="M141.2380 98.3241
L141.2380 97.8241
" />
<path d="M141.2380 97.8241
L141.1904 97.8955
" />
<path d="M141.1904 97.8955
L141.1428 97.9432
" />
<path d="M141.1428 97.9432
L141.0951 97.9670
" />
<path d="M141.5475 97.8241
L141.8570 97.8241
" />
<path d="M141.8570 97.8241
L141.6904 98.0146
" />
<path d="M141.6904 98.0146
L141.7618 98.0146
" />
<path d="M141.7618 98.0146
L141.8094 98.0384
" />
<path d="M141.8094 98.0384
L141.8332 98.0622
" />
<path d="M141.8332 98.0622
L141.8570 98.1098
" />
<path d="M141.8570 98.1098
L141.8570 98.2289
" />
<path d="M141.8570 98.2289
L141.8332 98.2765
" />
<path d="M141.8332 98.2765
L141.8094 98.3003
" />
<path d="M141.8094 98.3003
L141.7618 98.3241
" />
<path d="M141.7618 98.3241
L141.6190 98.3241
" />
<path d="M141.6190 98.3241
L141.5713 98.3003
" />
<path d="M141.5713 98.3003
L141.5475 98.2765
" />
</g><text x="132.0260" y="109.4900"
textLength="1.1524" font-size="0.6667" lengthAdjust="spacingAndGlyphs"
text-anchor="middle" opacity="0" stroke-opacity="0">X8</text>
<g class="stroked-text"><desc>X8</desc>
<path d="M131.6212 108.9661
L131.9546 109.4661
" />
<path d="M131.9546 108.9661
L131.6212 109.4661
" />
<path d="M132.2165 109.1804
L132.1689 109.1566
" />
<path d="M132.1689 109.1566
L132.1450 109.1328
" />
<path d="M132.1450 109.1328
L132.1212 109.0852
" />
<path d="M132.1212 109.0852
L132.1212 109.0613
" />
<path d="M132.1212 109.0613
L132.1450 109.0137
" />
<path d="M132.1450 109.0137
L132.1689 108.9899
" />
<path d="M132.1689 108.9899
L132.2165 108.9661
" />
<path d="M132.2165 108.9661
L132.3117 108.9661
" />
<path d="M132.3117 108.9661
L132.3593 108.9899
" />
<path d="M132.3593 108.9899
L132.3831 109.0137
" />
<path d="M132.3831 109.0137
L132.4070 109.0613
" />
<path d="M132.4070 109.0613
L132.4070 109.0852
" />
<path d="M132.4070 109.0852
L132.3831 109.1328
" />
<path d="M132.3831 109.1328
L132.3593 109.1566
" />
<path d="M132.3593 109.1566
L132.3117 109.1804
" />
<path d="M132.3117 109.1804
L132.2165 109.1804
" />
<path d="M132.2165 109.1804
L132.1689 109.2042
" />
<path d="M132.1689 109.2042
L132.1450 109.2280
" />
<path d="M132.1450 109.2280
L132.1212 109.2756
" />
<path d="M132.1212 109.2756
L132.1212 109.3709
" />
<path d="M132.1212 109.3709
L132.1450 109.4185
" />
<path d="M132.1450 109.4185
L132.1689 109.4423
" />
<path d="M132.1689 109.4423
L132.2165 109.4661
" />
<path d="M132.2165 109.4661
L132.3117 109.4661
" />
<path d="M132.3117 109.4661
L132.3593 109.4423
" />
<path d="M132.3593 109.4423
L132.3831 109.4185
" />
<path d="M132.3831 109.4185
L132.4070 109.3709
" />
<path d="M132.4070 109.3709
L132.4070 109.2756
" />
<path d="M132.4070 109.2756
L132.3831 109.2280
" />
<path d="M132.3831 109.2280
L132.3593 109.2042
" />
<path d="M132.3593 109.2042
L132.3117 109.1804
" />
</g><text x="132.0260" y="104.7900"
textLength="1.1524" font-size="0.6667" lengthAdjust="spacingAndGlyphs"
text-anchor="middle" opacity="0" stroke-opacity="0">X7</text>
<g class="stroked-text"><desc>X7</desc>
<path d="M131.6212 104.2661
L131.9546 104.7661
" />
<path d="M131.9546 104.2661
L131.6212 104.7661
" />
<path d="M132.0974 104.2661
L132.4308 104.2661
" />
<path d="M132.4308 104.2661
L132.2165 104.7661
" />
</g><text x="136.7260" y="109.4900"
textLength="1.6286" font-size="0.6667" lengthAdjust="spacingAndGlyphs"
text-anchor="middle" opacity="0" stroke-opacity="0">X12</text>
<g class="stroked-text"><desc>X12</desc>
<path d="M136.0831 108.9661
L136.4165 109.4661
" />
<path d="M136.4165 108.9661
L136.0831 109.4661
" />
<path d="M136.8689 109.4661
L136.5831 109.4661
" />
<path d="M136.7260 109.4661
L136.7260 108.9661
" />
<path d="M136.7260 108.9661
L136.6784 109.0375
" />
<path d="M136.6784 109.0375
L136.6308 109.0852
" />
<path d="M136.6308 109.0852
L136.5831 109.1090
" />
<path d="M137.0593 109.0137
L137.0831 108.9899
" />
<path d="M137.0831 108.9899
L137.1308 108.9661
" />
<path d="M137.1308 108.9661
L137.2498 108.9661
" />
<path d="M137.2498 108.9661
L137.2974 108.9899
" />
<path d="M137.2974 108.9899
L137.3212 109.0137
" />
<path d="M137.3212 109.0137
L137.3450 109.0613
" />
<path d="M137.3450 109.0613
L137.3450 109.1090
" />
<path d="M137.3450 109.1090
L137.3212 109.1804
" />
<path d="M137.3212 109.1804
L137.0355 109.4661
" />
<path d="M137.0355 109.4661
L137.3450 109.4661
" />
</g><text x="136.5200" y="98.4000"
textLength="1.1524" font-size="0.6667" lengthAdjust="spacingAndGlyphs"
text-anchor="middle" opacity="0" stroke-opacity="0">X9</text>
<g class="stroked-text"><desc>X9</desc>
<path d="M136.1152 97.8761
L136.4486 98.3761
" />
<path d="M136.4486 97.8761
L136.1152 98.3761
" />
<path d="M136.6629 98.3761
L136.7581 98.3761
" />
<path d="M136.7581 98.3761
L136.8057 98.3523
" />
<path d="M136.8057 98.3523
L136.8295 98.3285
" />
<path d="M136.8295 98.3285
L136.8771 98.2571
" />
<path d="M136.8771 98.2571
L136.9010 98.1618
" />
<path d="M136.9010 98.1618
L136.9010 97.9713
" />
<path d="M136.9010 97.9713
L136.8771 97.9237
" />
<path d="M136.8771 97.9237
L136.8533 97.8999
" />
<path d="M136.8533 97.8999
L136.8057 97.8761
" />
<path d="M136.8057 97.8761
L136.7105 97.8761
" />
<path d="M136.7105 97.8761
L136.6629 97.8999
" />
<path d="M136.6629 97.8999
L136.6390 97.9237
" />
<path d="M136.6390 97.9237
L136.6152 97.9713
" />
<path d="M136.6152 97.9713
L136.6152 98.0904
" />
<path d="M136.6152 98.0904
L136.6390 98.1380
" />
<path d="M136.6390 98.1380
L136.6629 98.1618
" />
<path d="M136.6629 98.1618
L136.7105 98.1856
" />
<path d="M136.7105 98.1856
L136.8057 98.1856
" />
<path d="M136.8057 98.1856
L136.8533 98.1618
" />
<path d="M136.8533 98.1618
L136.8771 98.1380
" />
<path d="M136.8771 98.1380
L136.9010 98.0904
" />
</g><path style="fill:none; 
stroke:#000000; stroke-width:0.1000; stroke-opacity:1; 
stroke-linecap:round; stroke-linejoin:round;fill:none"
d="M 131.4000,95.8000
132.9000,95.8000
132.9000,97.3000
131.4000,97.3000
Z" /> 
</g>
<g style="fill:#000000; fill-opacity:1.0000; stroke:none;">
<circle cx="131.2500" cy="97.4500" r="0.1100" /> 
<path style="fill:none; 
stroke:#000000; stroke-width:0.1000; stroke-opacity:1; 
stroke-linecap:round; stroke-linejoin:round;fill:none"
d="M 126.7000,100.5000
128.2000,100.5000
128.2000,102.0000
126.7000,102.0000
Z" /> 
</g>
<g style="fill:#000000; fill-opacity:1.0000; stroke:none;">
<circle cx="126.5500" cy="102.1500" r="0.1100" /> 
<path style="fill:none; 
stroke:#000000; stroke-width:0.1000; stroke-opacity:1; 
stroke-linecap:round; stroke-linejoin:round;fill:none"
d="M 140.8000,100.5000
142.3000,100.5000
142.3000,102.0000
140.8000,102.0000
Z" /> 
</g>
<g style="fill:#000000; fill-opacity:1.0000; stroke:none;">
<circle cx="140.6500" cy="102.1500" r="0.1100" /> 
</g>
<g style="fill:none; 
stroke:#000000; stroke-width:0.1270; stroke-opacity:1; 
stroke-linecap:round; stroke-linejoin:round;">
<path d="M129.4100 94.3600
L129.4100 93.4300
" />
<path d="M130.3400 94.3600
L129.4100 94.3600
" />
<path d="M138.4900 91.6600
L130.5300 91.6600
" />
<path d="M139.6100 93.4300
L139.6100 94.3600
" />
<path d="M139.6100 94.3600
L138.6800 94.3600
" />
</g>
<g style="fill:none; 
stroke:#000000; stroke-width:0.2000; stroke-opacity:1; 
stroke-linecap:round; stroke-linejoin:round;">
<circle cx="138.2600" cy="95.2100" r="0.1000" /> 
<path style="fill:none; 
stroke:#000000; stroke-width:0.1000; stroke-opacity:1; 
stroke-linecap:round; stroke-linejoin:round;fill:none"
d="M 131.4000,100.5000
132.9000,100.5000
132.9000,102.0000
131.4000,102.0000
Z" /> 
</g>
<g style="fill:#000000; fill-opacity:1.0000; stroke:none;">
<circle cx="131.2500" cy="102.1500" r="0.1100" /> 
<path style="fill:none; 
stroke:#000000; stroke-width:0.1000; stroke-opacity:1; 
stroke-linecap:round; stroke-linejoin:round;fill:none"
d="M 126.7000,95.8000
128.2000,95.8000
128.2000,97.3000
126.7000,97.3000
Z" /> 
</g>
<g style="fill:#000000; fill-opacity:1.0000; stroke:none;">
<circle cx="126.5500" cy="97.4500" r="0.1100" /> 
<path style="fill:none; 
stroke:#000000; stroke-width:0.1000; stroke-opacity:1; 
stroke-linecap:round; stroke-linejoin:round;fill:none"
d="M 126.7000,105.2000
128.2000,105.2000
128.2000,106.7000
126.7000,106.7000
Z" /> 
</g>
<g style="fill:#000000; fill-opacity:1.0000; stroke:none;">
<circle cx="126.5500" cy="106.8500" r="0.1100" /> 
<path style="fill:none; 
stroke:#000000; stroke-width:0.1000; stroke-opacity:1; 
stroke-linecap:round; stroke-linejoin:round;fill:none"
d="M 136.1000,105.2000
137.6000,105.2000
137.6000,106.7000
136.1000,106.7000
Z" /> 
</g>
<g style="fill:#000000; fill-opacity:1.0000; stroke:none;">
<circle cx="135.9500" cy="106.8500" r="0.1100" /> 
<path style="fill:none; 
stroke:#000000; stroke-width:0.1000; stroke-opacity:1; 
stroke-linecap:round; stroke-linejoin:round;fill:none"
d="M 140.8000,105.2000
142.3000,105.2000
142.3000,106.7000
140.8000,106.7000
Z" /> 
</g>
<g style="fill:#000000; fill-opacity:1.0000; stroke:none;">
<circle cx="140.6500" cy="106.8500" r="0.1100" /> 
<path style="fill:none; 
stroke:#000000; stroke-width:0.1000; stroke-opacity:1; 
stroke-linecap:round; stroke-linejoin:round;fill:none"
d="M 140.8000,109.9000
142.3000,109.9000
142.3000,111.4000
140.8000,111.4000
Z" /> 
</g>
<g style="fill:#000000; fill-opacity:1.0000; stroke:none;">
<circle cx="140.6500" cy="111.5500" r="0.1100" /> 
<path style="fill:none; 
stroke:#000000; stroke-width:0.1000; stroke-opacity:1; 
stroke-linecap:round; stroke-linejoin:round;fill:none"
d="M 136.1000,100.5000
137.6000,100.5000
137.6000,102.0000
136.1000,102.0000
Z" /> 
</g>
<g style="fill:#000000; fill-opacity:1.0000; stroke:none;">
<circle cx="135.9500" cy="102.1500" r="0.1100" /> 
<path style="fill:none; 
stroke:#000000; stroke-width:0.1000; stroke-opacity:1; 
stroke-linecap:round; stroke-linejoin:round;fill:none"
d="M 140.8000,95.8000
142.3000,95.8000
142.3000,97.3000
140.8000,97.3000
Z" /> 
</g>
<g style="fill:#000000; fill-opacity:1.0000; stroke:none;">
<circle cx="140.6500" cy="97.4500" r="0.1100" /> 
<path style="fill:none; 
stroke:#000000; stroke-width:0.1000; stroke-opacity:1; 
stroke-linecap:round; stroke-linejoin:round;fill:none"
d="M 126.7000,109.9000
128.2000,109.9000
128.2000,111.4000
126.7000,111.4000
Z" /> 
</g>
<g style="fill:#000000; fill-opacity:1.0000; stroke:none;">
<circle cx="126.5500" cy="111.5500" r="0.1100" /> 
<path style="fill:none; 
stroke:#000000; stroke-width:0.1000; stroke-opacity:1; 
stroke-linecap:round; stroke-linejoin:round;fill:none"
d="M 131.4000,109.9000
132.9000,109.9000
132.9000,111.4000
131.4000,111.4000
Z" /> 
</g>
<g style="fill:#000000; fill-opacity:1.0000; stroke:none;">
<circle cx="131.2500" cy="111.5500" r="0.1100" /> 
<path style="fill:none; 
stroke:#000000; stroke-width:0.1000; stroke-opacity:1; 
stroke-linecap:round; stroke-linejoin:round;fill:none"
d="M 131.4000,105.2000
132.9000,105.2000
132.9000,106.7000
131.4000,106.7000
Z" /> 
</g>
<g style="fill:#000000; fill-opacity:1.0000; stroke:none;">
<circle cx="131.2500" cy="106.8500" r="0.1100" /> 
<path style="fill:none; 
stroke:#000000; stroke-width:0.1000; stroke-opacity:1; 
stroke-linecap:round; stroke-linejoin:round;fill:none"
d="M 136.1000,109.9000
137.6000,109.9000
137.6000,111.4000
136.1000,111.4000
Z" /> 
</g>
<g style="fill:#000000; fill-opacity:1.0000; stroke:none;">
<circle cx="135.9500" cy="111.5500" r="0.1100" /> 
<path style="fill:none; 
stroke:#000000; stroke-width:0.1000; stroke-opacity:1; 
stroke-linecap:round; stroke-linejoin:round;fill:none"
d="M 136.1000,95.8000
137.6000,95.8000
137.6000,97.3000
136.1000,97.3000
Z" /> 
</g>
<g style="fill:#000000; fill-opacity:1.0000; stroke:none;">
<circle cx="135.9500" cy="97.4500" r="0.1100" /> 
</g> 
</svg>
