<?xml version="1.0" standalone="no"?>
 <!DOCTYPE svg PUBLIC "-//W3C//DTD SVG 1.1//EN" 
 "http://www.w3.org/Graphics/SVG/1.1/DTD/svg11.dtd"> 
<svg
  xmlns:svg="http://www.w3.org/2000/svg"
  xmlns="http://www.w3.org/2000/svg"
  xmlns:xlink="http://www.w3.org/1999/xlink"
  xmlns:inkscape="http://www.inkscape.org/namespaces/inkscape"
  version="1.1"
  width="297.0022mm" height="210.0072mm" viewBox="0.0000 0.0000 297.0022 210.0072">
<title>SVG Image created as 4x4-B_Silkscreen3.svg date 2026-06-30T15:29:13 </title>
  <desc>Image generated by PCBNEW </desc>
<g style="fill:#000000; fill-opacity:1.0000;stroke:#000000; stroke-opacity:1.0000;
stroke-linecap:round; stroke-linejoin:round;"
 transform="translate(0 0) scale(1 1)">
</g>
<g style="fill:none; 
stroke:#000000; stroke-width:0.1000; stroke-opacity:1; 
stroke-linecap:round; stroke-linejoin:round;">
<g transform="rotate(90.000000 166.9512 92.5210)">
<text x="166.9512" y="92.7710"
textLength="1.7238" font-size="0.6667" lengthAdjust="spacingAndGlyphs"
text-anchor="middle" opacity="0" stroke-opacity="0">GND</text>
</g>
<g class="stroked-text"><desc>GND</desc>
<path d="M167.2013 92.1400
L167.2251 92.0924
" />
<path d="M167.2251 92.0924
L167.2251 92.0210
" />
<path d="M167.2251 92.0210
L167.2013 91.9496
" />
<path d="M167.2013 91.9496
L167.1537 91.9020
" />
<path d="M167.1537 91.9020
L167.1060 91.8781
" />
<path d="M167.1060 91.8781
L167.0108 91.8543
" />
<path d="M167.0108 91.8543
L166.9394 91.8543
" />
<path d="M166.9394 91.8543
L166.8441 91.8781
" />
<path d="M166.8441 91.8781
L166.7965 91.9020
" />
<path d="M166.7965 91.9020
L166.7489 91.9496
" />
<path d="M166.7489 91.9496
L166.7251 92.0210
" />
<path d="M166.7251 92.0210
L166.7251 92.0686
" />
<path d="M166.7251 92.0686
L166.7489 92.1400
" />
<path d="M166.7489 92.1400
L166.7727 92.1639
" />
<path d="M166.7727 92.1639
L166.9394 92.1639
" />
<path d="M166.9394 92.1639
L166.9394 92.0686
" />
<path d="M166.7251 92.3781
L167.2251 92.3781
" />
<path d="M167.2251 92.3781
L166.7251 92.6639
" />
<path d="M166.7251 92.6639
L167.2251 92.6639
" />
<path d="M166.7251 92.9020
L167.2251 92.9020
" />
<path d="M167.2251 92.9020
L167.2251 93.0210
" />
<path d="M167.2251 93.0210
L167.2013 93.0924
" />
<path d="M167.2013 93.0924
L167.1537 93.1400
" />
<path d="M167.1537 93.1400
L167.1060 93.1639
" />
<path d="M167.1060 93.1639
L167.0108 93.1877
" />
<path d="M167.0108 93.1877
L166.9394 93.1877
" />
<path d="M166.9394 93.1877
L166.8441 93.1639
" />
<path d="M166.8441 93.1639
L166.7965 93.1400
" />
<path d="M166.7965 93.1400
L166.7489 93.0924
" />
<path d="M166.7489 93.0924
L166.7251 93.0210
" />
<path d="M166.7251 93.0210
L166.7251 92.9020
" />
</g><g transform="rotate(90.000000 165.9922 92.5240)">
<text x="165.9922" y="92.7740"
textLength="1.6524" font-size="0.6667" lengthAdjust="spacingAndGlyphs"
text-anchor="middle" opacity="0" stroke-opacity="0">RX1</text>
</g>
<g class="stroked-text"><desc>RX1</desc>
<path d="M165.7661 92.2026
L166.0042 92.0359
" />
<path d="M165.7661 91.9169
L166.2661 91.9169
" />
<path d="M166.2661 91.9169
L166.2661 92.1073
" />
<path d="M166.2661 92.1073
L166.2423 92.1550
" />
<path d="M166.2423 92.1550
L166.2185 92.1788
" />
<path d="M166.2185 92.1788
L166.1709 92.2026
" />
<path d="M166.1709 92.2026
L166.0994 92.2026
" />
<path d="M166.0994 92.2026
L166.0518 92.1788
" />
<path d="M166.0518 92.1788
L166.0280 92.1550
" />
<path d="M166.0280 92.1550
L166.0042 92.1073
" />
<path d="M166.0042 92.1073
L166.0042 91.9169
" />
<path d="M166.2661 92.3692
L165.7661 92.7026
" />
<path d="M166.2661 92.7026
L165.7661 92.3692
" />
<path d="M165.7661 93.1550
L165.7661 92.8692
" />
<path d="M165.7661 93.0121
L166.2661 93.0121
" />
<path d="M166.2661 93.0121
L166.1947 92.9645
" />
<path d="M166.1947 92.9645
L166.1470 92.9169
" />
<path d="M166.1470 92.9169
L166.1232 92.8692
" />
</g><g transform="rotate(90.000000 164.9682 92.5350)">
<text x="164.9682" y="92.7850"
textLength="1.5333" font-size="0.6667" lengthAdjust="spacingAndGlyphs"
text-anchor="middle" opacity="0" stroke-opacity="0">TX1</text>
</g>
<g class="stroked-text"><desc>TX1</desc>
<path d="M165.2421 91.9160
L165.2421 92.2017
" />
<path d="M164.7421 92.0588
L165.2421 92.0588
" />
<path d="M165.2421 92.3207
L164.7421 92.6540
" />
<path d="M165.2421 92.6540
L164.7421 92.3207
" />
<path d="M164.7421 93.1064
L164.7421 92.8207
" />
<path d="M164.7421 92.9636
L165.2421 92.9636
" />
<path d="M165.2421 92.9636
L165.1707 92.9160
" />
<path d="M165.1707 92.9160
L165.1230 92.8683
" />
<path d="M165.1230 92.8683
L165.0992 92.8207
" />
</g><g transform="rotate(90.000000 163.9722 92.5410)">
<text x="163.9722" y="92.7910"
textLength="1.6524" font-size="0.6667" lengthAdjust="spacingAndGlyphs"
text-anchor="middle" opacity="0" stroke-opacity="0">RX2</text>
</g>
<g class="stroked-text"><desc>RX2</desc>
<path d="M163.7461 92.2196
L163.9842 92.0529
" />
<path d="M163.7461 91.9339
L164.2461 91.9339
" />
<path d="M164.2461 91.9339
L164.2461 92.1243
" />
<path d="M164.2461 92.1243
L164.2223 92.1720
" />
<path d="M164.2223 92.1720
L164.1985 92.1958
" />
<path d="M164.1985 92.1958
L164.1509 92.2196
" />
<path d="M164.1509 92.2196
L164.0794 92.2196
" />
<path d="M164.0794 92.2196
L164.0318 92.1958
" />
<path d="M164.0318 92.1958
L164.0080 92.1720
" />
<path d="M164.0080 92.1720
L163.9842 92.1243
" />
<path d="M163.9842 92.1243
L163.9842 91.9339
" />
<path d="M164.2461 92.3862
L163.7461 92.7196
" />
<path d="M164.2461 92.7196
L163.7461 92.3862
" />
<path d="M164.1985 92.8862
L164.2223 92.9100
" />
<path d="M164.2223 92.9100
L164.2461 92.9577
" />
<path d="M164.2461 92.9577
L164.2461 93.0767
" />
<path d="M164.2461 93.0767
L164.2223 93.1243
" />
<path d="M164.2223 93.1243
L164.1985 93.1481
" />
<path d="M164.1985 93.1481
L164.1509 93.1720
" />
<path d="M164.1509 93.1720
L164.1032 93.1720
" />
<path d="M164.1032 93.1720
L164.0318 93.1481
" />
<path d="M164.0318 93.1481
L163.7461 92.8624
" />
<path d="M163.7461 92.8624
L163.7461 93.1720
" />
</g><g transform="rotate(90.000000 162.9732 92.5750)">
<text x="162.9732" y="92.8250"
textLength="1.5333" font-size="0.6667" lengthAdjust="spacingAndGlyphs"
text-anchor="middle" opacity="0" stroke-opacity="0">TX2</text>
</g>
<g class="stroked-text"><desc>TX2</desc>
<path d="M163.2471 91.9560
L163.2471 92.2417
" />
<path d="M162.7471 92.0988
L163.2471 92.0988
" />
<path d="M163.2471 92.3607
L162.7471 92.6940
" />
<path d="M163.2471 92.6940
L162.7471 92.3607
" />
<path d="M163.1995 92.8607
L163.2233 92.8845
" />
<path d="M163.2233 92.8845
L163.2471 92.9321
" />
<path d="M163.2471 92.9321
L163.2471 93.0512
" />
<path d="M163.2471 93.0512
L163.2233 93.0988
" />
<path d="M163.2233 93.0988
L163.1995 93.1226
" />
<path d="M163.1995 93.1226
L163.1519 93.1464
" />
<path d="M163.1519 93.1464
L163.1042 93.1464
" />
<path d="M163.1042 93.1464
L163.0328 93.1226
" />
<path d="M163.0328 93.1226
L162.7471 92.8369
" />
<path d="M162.7471 92.8369
L162.7471 93.1464
" />
</g><g transform="rotate(90.000000 161.9512 92.1920)">
<text x="161.9512" y="92.4420"
textLength="1.6524" font-size="0.6667" lengthAdjust="spacingAndGlyphs"
text-anchor="middle" opacity="0" stroke-opacity="0">RX3</text>
</g>
<g class="stroked-text"><desc>RX3</desc>
<path d="M161.7251 91.8706
L161.9632 91.7039
" />
<path d="M161.7251 91.5849
L162.2251 91.5849
" />
<path d="M162.2251 91.5849
L162.2251 91.7753
" />
<path d="M162.2251 91.7753
L162.2013 91.8230
" />
<path d="M162.2013 91.8230
L162.1775 91.8468
" />
<path d="M162.1775 91.8468
L162.1299 91.8706
" />
<path d="M162.1299 91.8706
L162.0584 91.8706
" />
<path d="M162.0584 91.8706
L162.0108 91.8468
" />
<path d="M162.0108 91.8468
L161.9870 91.8230
" />
<path d="M161.9870 91.8230
L161.9632 91.7753
" />
<path d="M161.9632 91.7753
L161.9632 91.5849
" />
<path d="M162.2251 92.0372
L161.7251 92.3706
" />
<path d="M162.2251 92.3706
L161.7251 92.0372
" />
<path d="M162.2251 92.5134
L162.2251 92.8230
" />
<path d="M162.2251 92.8230
L162.0346 92.6563
" />
<path d="M162.0346 92.6563
L162.0346 92.7277
" />
<path d="M162.0346 92.7277
L162.0108 92.7753
" />
<path d="M162.0108 92.7753
L161.9870 92.7991
" />
<path d="M161.9870 92.7991
L161.9394 92.8230
" />
<path d="M161.9394 92.8230
L161.8203 92.8230
" />
<path d="M161.8203 92.8230
L161.7727 92.7991
" />
<path d="M161.7727 92.7991
L161.7489 92.7753
" />
<path d="M161.7489 92.7753
L161.7251 92.7277
" />
<path d="M161.7251 92.7277
L161.7251 92.5849
" />
<path d="M161.7251 92.5849
L161.7489 92.5372
" />
<path d="M161.7489 92.5372
L161.7727 92.5134
" />
</g><g transform="rotate(90.000000 160.9582 92.3830)">
<text x="160.9582" y="92.6330"
textLength="1.5333" font-size="0.6667" lengthAdjust="spacingAndGlyphs"
text-anchor="middle" opacity="0" stroke-opacity="0">TX3</text>
</g>
<g class="stroked-text"><desc>TX3</desc>
<path d="M161.2321 91.7640
L161.2321 92.0497
" />
<path d="M160.7321 91.9068
L161.2321 91.9068
" />
<path d="M161.2321 92.1687
L160.7321 92.5020
" />
<path d="M161.2321 92.5020
L160.7321 92.1687
" />
<path d="M161.2321 92.6449
L161.2321 92.9544
" />
<path d="M161.2321 92.9544
L161.0416 92.7878
" />
<path d="M161.0416 92.7878
L161.0416 92.8592
" />
<path d="M161.0416 92.8592
L161.0178 92.9068
" />
<path d="M161.0178 92.9068
L160.9940 92.9306
" />
<path d="M160.9940 92.9306
L160.9464 92.9544
" />
<path d="M160.9464 92.9544
L160.8273 92.9544
" />
<path d="M160.8273 92.9544
L160.7797 92.9306
" />
<path d="M160.7797 92.9306
L160.7559 92.9068
" />
<path d="M160.7559 92.9068
L160.7321 92.8592
" />
<path d="M160.7321 92.8592
L160.7321 92.7163
" />
<path d="M160.7321 92.7163
L160.7559 92.6687
" />
<path d="M160.7559 92.6687
L160.7797 92.6449
" />
</g><g transform="rotate(90.000000 159.9582 92.5410)">
<text x="159.9582" y="92.7910"
textLength="1.6524" font-size="0.6667" lengthAdjust="spacingAndGlyphs"
text-anchor="middle" opacity="0" stroke-opacity="0">RX4</text>
</g>
<g class="stroked-text"><desc>RX4</desc>
<path d="M159.7321 92.2196
L159.9702 92.0529
" />
<path d="M159.7321 91.9339
L160.2321 91.9339
" />
<path d="M160.2321 91.9339
L160.2321 92.1243
" />
<path d="M160.2321 92.1243
L160.2083 92.1720
" />
<path d="M160.2083 92.1720
L160.1845 92.1958
" />
<path d="M160.1845 92.1958
L160.1369 92.2196
" />
<path d="M160.1369 92.2196
L160.0654 92.2196
" />
<path d="M160.0654 92.2196
L160.0178 92.1958
" />
<path d="M160.0178 92.1958
L159.9940 92.1720
" />
<path d="M159.9940 92.1720
L159.9702 92.1243
" />
<path d="M159.9702 92.1243
L159.9702 91.9339
" />
<path d="M160.2321 92.3862
L159.7321 92.7196
" />
<path d="M160.2321 92.7196
L159.7321 92.3862
" />
<path d="M160.0654 93.1243
L159.7321 93.1243
" />
<path d="M160.2559 93.0053
L159.8988 92.8862
" />
<path d="M159.8988 92.8862
L159.8988 93.1958
" />
</g><g transform="rotate(90.000000 158.9572 92.5400)">
<text x="158.9572" y="92.7900"
textLength="1.5333" font-size="0.6667" lengthAdjust="spacingAndGlyphs"
text-anchor="middle" opacity="0" stroke-opacity="0">TX4</text>
</g>
<g class="stroked-text"><desc>TX4</desc>
<path d="M159.2311 91.9210
L159.2311 92.2067
" />
<path d="M158.7311 92.0638
L159.2311 92.0638
" />
<path d="M159.2311 92.3257
L158.7311 92.6590
" />
<path d="M159.2311 92.6590
L158.7311 92.3257
" />
<path d="M159.0644 93.0638
L158.7311 93.0638
" />
<path d="M159.2549 92.9448
L158.8978 92.8257
" />
<path d="M158.8978 92.8257
L158.8978 93.1352
" />
</g><g transform="rotate(90.000000 157.9702 92.4510)">
<text x="157.9702" y="92.7010"
textLength="1.6286" font-size="0.6667" lengthAdjust="spacingAndGlyphs"
text-anchor="middle" opacity="0" stroke-opacity="0">VDD</text>
</g>
<g class="stroked-text"><desc>VDD</desc>
<path d="M158.2441 91.7843
L157.7441 91.9510
" />
<path d="M157.7441 91.9510
L158.2441 92.1177
" />
<path d="M157.7441 92.2843
L158.2441 92.2843
" />
<path d="M158.2441 92.2843
L158.2441 92.4034
" />
<path d="M158.2441 92.4034
L158.2203 92.4748
" />
<path d="M158.2203 92.4748
L158.1727 92.5224
" />
<path d="M158.1727 92.5224
L158.1250 92.5462
" />
<path d="M158.1250 92.5462
L158.0298 92.5700
" />
<path d="M158.0298 92.5700
L157.9584 92.5700
" />
<path d="M157.9584 92.5700
L157.8631 92.5462
" />
<path d="M157.8631 92.5462
L157.8155 92.5224
" />
<path d="M157.8155 92.5224
L157.7679 92.4748
" />
<path d="M157.7679 92.4748
L157.7441 92.4034
" />
<path d="M157.7441 92.4034
L157.7441 92.2843
" />
<path d="M157.7441 92.7843
L158.2441 92.7843
" />
<path d="M158.2441 92.7843
L158.2441 92.9034
" />
<path d="M158.2441 92.9034
L158.2203 92.9748
" />
<path d="M158.2203 92.9748
L158.1727 93.0224
" />
<path d="M158.1727 93.0224
L158.1250 93.0462
" />
<path d="M158.1250 93.0462
L158.0298 93.0700
" />
<path d="M158.0298 93.0700
L157.9584 93.0700
" />
<path d="M157.9584 93.0700
L157.8631 93.0462
" />
<path d="M157.8631 93.0462
L157.8155 93.0224
" />
<path d="M157.8155 93.0224
L157.7679 92.9748
" />
<path d="M157.7679 92.9748
L157.7441 92.9034
" />
<path d="M157.7441 92.9034
L157.7441 92.7843
" />
</g></g> 
</svg>
