<?xml version="1.0" standalone="no"?>
 <!DOCTYPE svg PUBLIC "-//W3C//DTD SVG 1.1//EN" 
 "http://www.w3.org/Graphics/SVG/1.1/DTD/svg11.dtd"> 
<svg
  xmlns:svg="http://www.w3.org/2000/svg"
  xmlns="http://www.w3.org/2000/svg"
  xmlns:xlink="http://www.w3.org/1999/xlink"
  xmlns:inkscape="http://www.inkscape.org/namespaces/inkscape"
  version="1.1"
  width="297.0022mm" height="210.0072mm" viewBox="0.0000 0.0000 297.0022 210.0072">
<title>SVG Image created as 4x4-B_Cu_vias_1.svg date 2026-06-30T15:28:57 </title>
  <desc>Image generated by PCBNEW </desc>
<g style="fill:#000000; fill-opacity:1.0000;stroke:#000000; stroke-opacity:1.0000;
stroke-linecap:round; stroke-linejoin:round;"
 transform="translate(0 0) scale(1 1)">
</g>
<g style="fill:#000000; fill-opacity:1.0000; stroke:none;">
<circle cx="139.0066" cy="120.0453" r="0.0000" /> 
<circle cx="173.0372" cy="85.6427" r="0.0000" /> 
</g>
<g style="fill:#FFFFFF; fill-opacity:1.0000; stroke:none;">
<circle cx="159.1762" cy="96.9620" r="-0.0000" /> 
<circle cx="168.5022" cy="110.6500" r="-0.0000" /> 
<circle cx="168.5022" cy="96.5500" r="-0.0000" /> 
<circle cx="162.1522" cy="102.4000" r="-0.0000" /> 
<circle cx="154.4022" cy="96.5500" r="-0.0000" /> 
<circle cx="170.6522" cy="111.3000" r="-0.0000" /> 
<circle cx="168.2232" cy="92.2600" r="-0.0000" /> 
<circle cx="166.0022" cy="111.2500" r="-0.0000" /> 
<circle cx="159.1022" cy="101.2500" r="-0.0000" /> 
<circle cx="156.5522" cy="101.8500" r="-0.0000" /> 
<circle cx="168.5022" cy="101.2500" r="-0.0000" /> 
<circle cx="165.9522" cy="101.8500" r="-0.0000" /> 
<circle cx="165.9522" cy="106.5500" r="-0.0000" /> 
<circle cx="162.1522" cy="97.7000" r="-0.0000" /> 
<circle cx="156.6022" cy="106.5500" r="-0.0000" /> 
<circle cx="154.4022" cy="110.6500" r="-0.0000" /> 
<circle cx="156.7622" cy="92.2600" r="-0.0000" /> 
<circle cx="163.8022" cy="96.5500" r="-0.0000" /> 
<circle cx="159.1022" cy="105.9500" r="-0.0000" /> 
<circle cx="154.4022" cy="105.9500" r="-0.0000" /> 
<circle cx="163.8022" cy="101.2500" r="-0.0000" /> 
<circle cx="154.4022" cy="101.2500" r="-0.0000" /> 
<circle cx="161.3022" cy="111.2500" r="-0.0000" /> 
<circle cx="156.6022" cy="111.2500" r="-0.0000" /> 
<circle cx="163.8022" cy="110.6500" r="-0.0000" /> 
<circle cx="156.5522" cy="97.1500" r="-0.0000" /> 
<circle cx="162.1522" cy="107.1000" r="-0.0000" /> 
<circle cx="170.6522" cy="101.8500" r="-0.0000" /> 
<circle cx="168.5022" cy="105.9500" r="-0.0000" /> 
<circle cx="163.8022" cy="105.9500" r="-0.0000" /> 
<circle cx="170.6522" cy="106.5500" r="-0.0000" /> 
<circle cx="170.6522" cy="97.1500" r="-0.0000" /> 
<circle cx="165.9522" cy="97.1500" r="-0.0000" /> 
<circle cx="159.1022" cy="110.6500" r="-0.0000" /> 
<circle cx="156.4222" cy="113.1240" r="-0.0000" /> 
<circle cx="166.5722" cy="94.0020" r="-0.0000" /> 
<circle cx="156.6022" cy="105.1750" r="-0.0000" /> 
<circle cx="166.0272" cy="109.8875" r="-0.0000" /> 
<circle cx="166.0522" cy="95.7750" r="-0.0000" /> 
<circle cx="161.4022" cy="95.7750" r="-0.0000" /> 
<circle cx="156.8757" cy="96.0735" r="-0.0000" /> 
<circle cx="157.4817" cy="94.5475" r="-0.0000" /> 
<circle cx="166.0522" cy="105.1750" r="-0.0000" /> 
<circle cx="170.8522" cy="109.8750" r="-0.0000" /> 
<circle cx="170.7522" cy="100.4750" r="-0.0000" /> 
<circle cx="170.6642" cy="96.2800" r="-0.0000" /> 
<circle cx="161.4022" cy="105.2000" r="-0.0000" /> 
<circle cx="170.7522" cy="105.1750" r="-0.0000" /> 
<circle cx="167.7272" cy="111.3750" r="-0.0000" /> 
<circle cx="166.1272" cy="100.4750" r="-0.0000" /> 
<circle cx="156.6522" cy="100.4750" r="-0.0000" /> 
<circle cx="161.4022" cy="109.9000" r="-0.0000" /> 
<circle cx="156.7022" cy="109.8750" r="-0.0000" /> 
<circle cx="161.4022" cy="100.4750" r="-0.0000" /> 
<circle cx="161.9212" cy="93.2900" r="-0.0000" /> 
<circle cx="159.1532" cy="96.0470" r="-0.0000" /> 
<circle cx="159.1532" cy="96.0470" r="-0.0000" /> 
</g> 
</svg>
