<?xml version="1.0" standalone="no"?>
 <!DOCTYPE svg PUBLIC "-//W3C//DTD SVG 1.1//EN" 
 "http://www.w3.org/Graphics/SVG/1.1/DTD/svg11.dtd"> 
<svg
  xmlns:svg="http://www.w3.org/2000/svg"
  xmlns="http://www.w3.org/2000/svg"
  xmlns:xlink="http://www.w3.org/1999/xlink"
  xmlns:inkscape="http://www.inkscape.org/namespaces/inkscape"
  version="1.1"
  width="297.0022mm" height="210.0072mm" viewBox="0.0000 0.0000 297.0022 210.0072">
<title>SVG Image created as 4x4-B_Paste2.svg date 2026-06-30T15:28:57 </title>
  <desc>Image generated by PCBNEW </desc>
<g style="fill:#000000; fill-opacity:1.0000;stroke:#000000; stroke-opacity:1.0000;
stroke-linecap:round; stroke-linejoin:round;"
 transform="translate(0 0) scale(1 1)">
<path style="fill:#000000; fill-opacity:1.0000; stroke:none;fill-rule:evenodd;"
d="M 167.1522,96.0100
166.5522,96.0100
166.5522,96.5500
167.1522,96.5500
Z" /> 
<path style="fill:#000000; fill-opacity:1.0000; stroke:none;fill-rule:evenodd;"
d="M 167.1522,96.8740
166.5522,96.8740
166.5522,97.4140
167.1522,97.4140
Z" /> 
<path style="fill:#000000; fill-opacity:1.0000; stroke:none;fill-rule:evenodd;"
d="M 171.8522,110.0980
171.2522,110.0980
171.2522,110.6380
171.8522,110.6380
Z" /> 
<path style="fill:#000000; fill-opacity:1.0000; stroke:none;fill-rule:evenodd;"
d="M 171.8522,110.9620
171.2522,110.9620
171.2522,111.5020
171.8522,111.5020
Z" /> 
<path style="fill:#000000; fill-opacity:1.0000; stroke:none;fill-rule:evenodd;"
d="M 162.4522,100.7100
161.8522,100.7100
161.8522,101.2500
162.4522,101.2500
Z" /> 
<path style="fill:#000000; fill-opacity:1.0000; stroke:none;fill-rule:evenodd;"
d="M 162.4522,101.5740
161.8522,101.5740
161.8522,102.1140
162.4522,102.1140
Z" /> 
<path style="fill:#000000; fill-opacity:1.0000; stroke:none;fill-rule:evenodd;"
d="M 157.7522,100.7100
157.1522,100.7100
157.1522,101.2500
157.7522,101.2500
Z" /> 
<path style="fill:#000000; fill-opacity:1.0000; stroke:none;fill-rule:evenodd;"
d="M 157.7522,101.5740
157.1522,101.5740
157.1522,102.1140
157.7522,102.1140
Z" /> 
<path style="fill:#000000; fill-opacity:1.0000; stroke:none;fill-rule:evenodd;"
d="M 167.1522,100.7100
166.5522,100.7100
166.5522,101.2500
167.1522,101.2500
Z" /> 
<path style="fill:#000000; fill-opacity:1.0000; stroke:none;fill-rule:evenodd;"
d="M 167.1522,101.5740
166.5522,101.5740
166.5522,102.1140
167.1522,102.1140
Z" /> 
<path style="fill:#000000; fill-opacity:1.0000; stroke:none;fill-rule:evenodd;"
d="M 157.7522,110.1100
157.1522,110.1100
157.1522,110.6500
157.7522,110.6500
Z" /> 
<path style="fill:#000000; fill-opacity:1.0000; stroke:none;fill-rule:evenodd;"
d="M 157.7522,110.9740
157.1522,110.9740
157.1522,111.5140
157.7522,111.5140
Z" /> 
<path style="fill:#000000; fill-opacity:1.0000; stroke:none;fill-rule:evenodd;"
d="M 162.4522,96.0100
161.8522,96.0100
161.8522,96.5500
162.4522,96.5500
Z" /> 
<path style="fill:#000000; fill-opacity:1.0000; stroke:none;fill-rule:evenodd;"
d="M 162.4522,96.8740
161.8522,96.8740
161.8522,97.4140
162.4522,97.4140
Z" /> 
<path style="fill:#000000; fill-opacity:1.0000; stroke:none;fill-rule:evenodd;"
d="M 162.4522,105.4100
161.8522,105.4100
161.8522,105.9500
162.4522,105.9500
Z" /> 
<path style="fill:#000000; fill-opacity:1.0000; stroke:none;fill-rule:evenodd;"
d="M 162.4522,106.2740
161.8522,106.2740
161.8522,106.8140
162.4522,106.8140
Z" /> 
<path style="fill:#000000; fill-opacity:1.0000; stroke:none;fill-rule:evenodd;"
d="M 171.8522,96.0100
171.2522,96.0100
171.2522,96.5500
171.8522,96.5500
Z" /> 
<path style="fill:#000000; fill-opacity:1.0000; stroke:none;fill-rule:evenodd;"
d="M 171.8522,96.8740
171.2522,96.8740
171.2522,97.4140
171.8522,97.4140
Z" /> 
<path style="fill:#000000; fill-opacity:1.0000; stroke:none;fill-rule:evenodd;"
d="M 157.7522,105.4100
157.1522,105.4100
157.1522,105.9500
157.7522,105.9500
Z" /> 
<path style="fill:#000000; fill-opacity:1.0000; stroke:none;fill-rule:evenodd;"
d="M 157.7522,106.2740
157.1522,106.2740
157.1522,106.8140
157.7522,106.8140
Z" /> 
<path style="fill:#000000; fill-opacity:1.0000; stroke:none;fill-rule:evenodd;"
d="M 171.8522,100.7100
171.2522,100.7100
171.2522,101.2500
171.8522,101.2500
Z" /> 
<path style="fill:#000000; fill-opacity:1.0000; stroke:none;fill-rule:evenodd;"
d="M 171.8522,101.5740
171.2522,101.5740
171.2522,102.1140
171.8522,102.1140
Z" /> 
<path style="fill:#000000; fill-opacity:1.0000; stroke:none;fill-rule:evenodd;"
d="M 167.1522,110.1100
166.5522,110.1100
166.5522,110.6500
167.1522,110.6500
Z" /> 
<path style="fill:#000000; fill-opacity:1.0000; stroke:none;fill-rule:evenodd;"
d="M 167.1522,110.9740
166.5522,110.9740
166.5522,111.5140
167.1522,111.5140
Z" /> 
<path style="fill:#000000; fill-opacity:1.0000; stroke:none;fill-rule:evenodd;"
d="M 167.1522,105.4100
166.5522,105.4100
166.5522,105.9500
167.1522,105.9500
Z" /> 
<path style="fill:#000000; fill-opacity:1.0000; stroke:none;fill-rule:evenodd;"
d="M 167.1522,106.2740
166.5522,106.2740
166.5522,106.8140
167.1522,106.8140
Z" /> 
<path style="fill:#000000; fill-opacity:1.0000; stroke:none;fill-rule:evenodd;"
d="M 157.7522,96.0100
157.1522,96.0100
157.1522,96.5500
157.7522,96.5500
Z" /> 
<path style="fill:#000000; fill-opacity:1.0000; stroke:none;fill-rule:evenodd;"
d="M 157.7522,96.8740
157.1522,96.8740
157.1522,97.4140
157.7522,97.4140
Z" /> 
<path style="fill:#000000; fill-opacity:1.0000; stroke:none;fill-rule:evenodd;"
d="M 162.4522,110.1100
161.8522,110.1100
161.8522,110.6500
162.4522,110.6500
Z" /> 
<path style="fill:#000000; fill-opacity:1.0000; stroke:none;fill-rule:evenodd;"
d="M 162.4522,110.9740
161.8522,110.9740
161.8522,111.5140
162.4522,111.5140
Z" /> 
<path style="fill:#000000; fill-opacity:1.0000; stroke:none;fill-rule:evenodd;"
d="M 171.8522,105.4100
171.2522,105.4100
171.2522,105.9500
171.8522,105.9500
Z" /> 
<path style="fill:#000000; fill-opacity:1.0000; stroke:none;fill-rule:evenodd;"
d="M 171.8522,106.2740
171.2522,106.2740
171.2522,106.8140
171.8522,106.8140
Z" /> 
</g> 
</svg>
