<?xml version='1.0' encoding='ASCII' standalone='yes'?>
<svg xmlns="http://www.w3.org/2000/svg" version="1.1" width="297.0022mm" height="210.0072mm" viewBox="0.0000 0.0000 297.0022 210.0072">
            <title>Picture generated by PcbDraw </title>
            <desc>Picture generated by PcbDraw</desc>
        <defs><clipPath id="cut-off"><path d=" M 123.99 92.1 L 124.0 113.1 A 1 1 0 0 0 123.99 92.1  M 125.0 114.1 L 144.0 114.1 A 1 1 0 0 0 125.0 114.1  M 144.0 114.1 A 1 1 0 0 0 145.0 113.1 L 145.0 92.11 A 1 1 0 0 0 144.0 91.11 L 124.99 91.11 " style="fill-rule: evenodd;"/></clipPath><mask id="pads-mask-silkscreen"><rect x="123.965" y="85.64275" width="34.03062" height="34.402501" fill="white"/><g style="fill:#000000; fill-opacity:1.0000;stroke:#000000; stroke-opacity:1.0000; stroke-linecap:round; stroke-linejoin:round;" transform="translate(0 0) scale(1 1)">
<path style="fill:#000000; fill-opacity:1.0000; stroke:none;fill-rule:evenodd;" d="M 130.4890,110.8798 130.5221,110.9019 130.5442,110.9350 130.5520,110.9740 130.5520,111.5140 130.5442,111.5530 130.5221,111.5861 130.4890,111.6082 130.4500,111.6160 129.8500,111.6160 129.8110,111.6082 129.7779,111.5861 129.7558,111.5530 129.7480,111.5140 129.7480,110.9740 129.7558,110.9350 129.7779,110.9019 129.8110,110.8798 129.8500,110.8720 130.4500,110.8720 Z"/> 
<path style="fill:#000000; fill-opacity:1.0000; stroke:none;fill-rule:evenodd;" d="M 135.1890,110.8798 135.2221,110.9019 135.2442,110.9350 135.2520,110.9740 135.2520,111.5140 135.2442,111.5530 135.2221,111.5861 135.1890,111.6082 135.1500,111.6160 134.5500,111.6160 134.5110,111.6082 134.4779,111.5861 134.4558,111.5530 134.4480,111.5140 134.4480,110.9740 134.4558,110.9350 134.4779,110.9019 134.5110,110.8798 134.5500,110.8720 135.1500,110.8720 Z"/> 
<path style="fill:#000000; fill-opacity:1.0000; stroke:none;fill-rule:evenodd;" d="M 139.8890,110.8798 139.9221,110.9019 139.9442,110.9350 139.9520,110.9740 139.9520,111.5140 139.9442,111.5530 139.9221,111.5861 139.8890,111.6082 139.8500,111.6160 139.2500,111.6160 139.2110,111.6082 139.1779,111.5861 139.1558,111.5530 139.1480,111.5140 139.1480,110.9740 139.1558,110.9350 139.1779,110.9019 139.2110,110.8798 139.2500,110.8720 139.8500,110.8720 Z"/> 
<path style="fill:#000000; fill-opacity:1.0000; stroke:none;fill-rule:evenodd;" d="M 125.7890,110.8678 125.8221,110.8899 125.8442,110.9230 125.8520,110.9620 125.8520,111.5020 125.8442,111.5410 125.8221,111.5741 125.7890,111.5962 125.7500,111.6040 125.1500,111.6040 125.1110,111.5962 125.0779,111.5741 125.0558,111.5410 125.0480,111.5020 125.0480,110.9620 125.0558,110.9230 125.0779,110.8899 125.1110,110.8678 125.1500,110.8600 125.7500,110.8600 Z"/> 
<path style="fill:#000000; fill-opacity:1.0000; stroke:none;fill-rule:evenodd;" d="M 130.4890,110.0158 130.5221,110.0379 130.5442,110.0710 130.5520,110.1100 130.5520,110.6500 130.5442,110.6890 130.5221,110.7221 130.4890,110.7442 130.4500,110.7520 129.8500,110.7520 129.8110,110.7442 129.7779,110.7221 129.7558,110.6890 129.7480,110.6500 129.7480,110.1100 129.7558,110.0710 129.7779,110.0379 129.8110,110.0158 129.8500,110.0080 130.4500,110.0080 Z"/> 
<path style="fill:#000000; fill-opacity:1.0000; stroke:none;fill-rule:evenodd;" d="M 135.1890,110.0158 135.2221,110.0379 135.2442,110.0710 135.2520,110.1100 135.2520,110.6500 135.2442,110.6890 135.2221,110.7221 135.1890,110.7442 135.1500,110.7520 134.5500,110.7520 134.5110,110.7442 134.4779,110.7221 134.4558,110.6890 134.4480,110.6500 134.4480,110.1100 134.4558,110.0710 134.4779,110.0379 134.5110,110.0158 134.5500,110.0080 135.1500,110.0080 Z"/> 
<path style="fill:#000000; fill-opacity:1.0000; stroke:none;fill-rule:evenodd;" d="M 139.8890,110.0158 139.9221,110.0379 139.9442,110.0710 139.9520,110.1100 139.9520,110.6500 139.9442,110.6890 139.9221,110.7221 139.8890,110.7442 139.8500,110.7520 139.2500,110.7520 139.2110,110.7442 139.1779,110.7221 139.1558,110.6890 139.1480,110.6500 139.1480,110.1100 139.1558,110.0710 139.1779,110.0379 139.2110,110.0158 139.2500,110.0080 139.8500,110.0080 Z"/> 
<path style="fill:#000000; fill-opacity:1.0000; stroke:none;fill-rule:evenodd;" d="M 125.7890,110.0038 125.8221,110.0259 125.8442,110.0590 125.8520,110.0980 125.8520,110.6380 125.8442,110.6770 125.8221,110.7101 125.7890,110.7322 125.7500,110.7400 125.1500,110.7400 125.1110,110.7322 125.0779,110.7101 125.0558,110.6770 125.0480,110.6380 125.0480,110.0980 125.0558,110.0590 125.0779,110.0259 125.1110,110.0038 125.1500,109.9960 125.7500,109.9960 Z"/> 
<path style="fill:#000000; fill-opacity:1.0000; stroke:none;fill-rule:evenodd;" d="M 125.7890,106.1798 125.8221,106.2019 125.8442,106.2350 125.8520,106.2740 125.8520,106.8140 125.8442,106.8530 125.8221,106.8861 125.7890,106.9082 125.7500,106.9160 125.1500,106.9160 125.1110,106.9082 125.0779,106.8861 125.0558,106.8530 125.0480,106.8140 125.0480,106.2740 125.0558,106.2350 125.0779,106.2019 125.1110,106.1798 125.1500,106.1720 125.7500,106.1720 Z"/> 
<path style="fill:#000000; fill-opacity:1.0000; stroke:none;fill-rule:evenodd;" d="M 130.4890,106.1798 130.5221,106.2019 130.5442,106.2350 130.5520,106.2740 130.5520,106.8140 130.5442,106.8530 130.5221,106.8861 130.4890,106.9082 130.4500,106.9160 129.8500,106.9160 129.8110,106.9082 129.7779,106.8861 129.7558,106.8530 129.7480,106.8140 129.7480,106.2740 129.7558,106.2350 129.7779,106.2019 129.8110,106.1798 129.8500,106.1720 130.4500,106.1720 Z"/> 
<path style="fill:#000000; fill-opacity:1.0000; stroke:none;fill-rule:evenodd;" d="M 135.1890,106.1798 135.2221,106.2019 135.2442,106.2350 135.2520,106.2740 135.2520,106.8140 135.2442,106.8530 135.2221,106.8861 135.1890,106.9082 135.1500,106.9160 134.5500,106.9160 134.5110,106.9082 134.4779,106.8861 134.4558,106.8530 134.4480,106.8140 134.4480,106.2740 134.4558,106.2350 134.4779,106.2019 134.5110,106.1798 134.5500,106.1720 135.1500,106.1720 Z"/> 
<path style="fill:#000000; fill-opacity:1.0000; stroke:none;fill-rule:evenodd;" d="M 139.8890,106.1798 139.9221,106.2019 139.9442,106.2350 139.9520,106.2740 139.9520,106.8140 139.9442,106.8530 139.9221,106.8861 139.8890,106.9082 139.8500,106.9160 139.2500,106.9160 139.2110,106.9082 139.1779,106.8861 139.1558,106.8530 139.1480,106.8140 139.1480,106.2740 139.1558,106.2350 139.1779,106.2019 139.2110,106.1798 139.2500,106.1720 139.8500,106.1720 Z"/> 
<path style="fill:#000000; fill-opacity:1.0000; stroke:none;fill-rule:evenodd;" d="M 125.7890,105.3158 125.8221,105.3379 125.8442,105.3710 125.8520,105.4100 125.8520,105.9500 125.8442,105.9890 125.8221,106.0221 125.7890,106.0442 125.7500,106.0520 125.1500,106.0520 125.1110,106.0442 125.0779,106.0221 125.0558,105.9890 125.0480,105.9500 125.0480,105.4100 125.0558,105.3710 125.0779,105.3379 125.1110,105.3158 125.1500,105.3080 125.7500,105.3080 Z"/> 
<path style="fill:#000000; fill-opacity:1.0000; stroke:none;fill-rule:evenodd;" d="M 130.4890,105.3158 130.5221,105.3379 130.5442,105.3710 130.5520,105.4100 130.5520,105.9500 130.5442,105.9890 130.5221,106.0221 130.4890,106.0442 130.4500,106.0520 129.8500,106.0520 129.8110,106.0442 129.7779,106.0221 129.7558,105.9890 129.7480,105.9500 129.7480,105.4100 129.7558,105.3710 129.7779,105.3379 129.8110,105.3158 129.8500,105.3080 130.4500,105.3080 Z"/> 
<path style="fill:#000000; fill-opacity:1.0000; stroke:none;fill-rule:evenodd;" d="M 135.1890,105.3158 135.2221,105.3379 135.2442,105.3710 135.2520,105.4100 135.2520,105.9500 135.2442,105.9890 135.2221,106.0221 135.1890,106.0442 135.1500,106.0520 134.5500,106.0520 134.5110,106.0442 134.4779,106.0221 134.4558,105.9890 134.4480,105.9500 134.4480,105.4100 134.4558,105.3710 134.4779,105.3379 134.5110,105.3158 134.5500,105.3080 135.1500,105.3080 Z"/> 
<path style="fill:#000000; fill-opacity:1.0000; stroke:none;fill-rule:evenodd;" d="M 139.8890,105.3158 139.9221,105.3379 139.9442,105.3710 139.9520,105.4100 139.9520,105.9500 139.9442,105.9890 139.9221,106.0221 139.8890,106.0442 139.8500,106.0520 139.2500,106.0520 139.2110,106.0442 139.1779,106.0221 139.1558,105.9890 139.1480,105.9500 139.1480,105.4100 139.1558,105.3710 139.1779,105.3379 139.2110,105.3158 139.2500,105.3080 139.8500,105.3080 Z"/> 
<path style="fill:#000000; fill-opacity:1.0000; stroke:none;fill-rule:evenodd;" d="M 125.7890,101.4798 125.8221,101.5019 125.8442,101.5350 125.8520,101.5740 125.8520,102.1140 125.8442,102.1530 125.8221,102.1861 125.7890,102.2082 125.7500,102.2160 125.1500,102.2160 125.1110,102.2082 125.0779,102.1861 125.0558,102.1530 125.0480,102.1140 125.0480,101.5740 125.0558,101.5350 125.0779,101.5019 125.1110,101.4798 125.1500,101.4720 125.7500,101.4720 Z"/> 
<path style="fill:#000000; fill-opacity:1.0000; stroke:none;fill-rule:evenodd;" d="M 130.4890,101.4798 130.5221,101.5019 130.5442,101.5350 130.5520,101.5740 130.5520,102.1140 130.5442,102.1530 130.5221,102.1861 130.4890,102.2082 130.4500,102.2160 129.8500,102.2160 129.8110,102.2082 129.7779,102.1861 129.7558,102.1530 129.7480,102.1140 129.7480,101.5740 129.7558,101.5350 129.7779,101.5019 129.8110,101.4798 129.8500,101.4720 130.4500,101.4720 Z"/> 
<path style="fill:#000000; fill-opacity:1.0000; stroke:none;fill-rule:evenodd;" d="M 135.1890,101.4798 135.2221,101.5019 135.2442,101.5350 135.2520,101.5740 135.2520,102.1140 135.2442,102.1530 135.2221,102.1861 135.1890,102.2082 135.1500,102.2160 134.5500,102.2160 134.5110,102.2082 134.4779,102.1861 134.4558,102.1530 134.4480,102.1140 134.4480,101.5740 134.4558,101.5350 134.4779,101.5019 134.5110,101.4798 134.5500,101.4720 135.1500,101.4720 Z"/> 
<path style="fill:#000000; fill-opacity:1.0000; stroke:none;fill-rule:evenodd;" d="M 139.8890,101.4798 139.9221,101.5019 139.9442,101.5350 139.9520,101.5740 139.9520,102.1140 139.9442,102.1530 139.9221,102.1861 139.8890,102.2082 139.8500,102.2160 139.2500,102.2160 139.2110,102.2082 139.1779,102.1861 139.1558,102.1530 139.1480,102.1140 139.1480,101.5740 139.1558,101.5350 139.1779,101.5019 139.2110,101.4798 139.2500,101.4720 139.8500,101.4720 Z"/> 
<path style="fill:#000000; fill-opacity:1.0000; stroke:none;fill-rule:evenodd;" d="M 125.7890,100.6158 125.8221,100.6379 125.8442,100.6710 125.8520,100.7100 125.8520,101.2500 125.8442,101.2890 125.8221,101.3221 125.7890,101.3442 125.7500,101.3520 125.1500,101.3520 125.1110,101.3442 125.0779,101.3221 125.0558,101.2890 125.0480,101.2500 125.0480,100.7100 125.0558,100.6710 125.0779,100.6379 125.1110,100.6158 125.1500,100.6080 125.7500,100.6080 Z"/> 
<path style="fill:#000000; fill-opacity:1.0000; stroke:none;fill-rule:evenodd;" d="M 130.4890,100.6158 130.5221,100.6379 130.5442,100.6710 130.5520,100.7100 130.5520,101.2500 130.5442,101.2890 130.5221,101.3221 130.4890,101.3442 130.4500,101.3520 129.8500,101.3520 129.8110,101.3442 129.7779,101.3221 129.7558,101.2890 129.7480,101.2500 129.7480,100.7100 129.7558,100.6710 129.7779,100.6379 129.8110,100.6158 129.8500,100.6080 130.4500,100.6080 Z"/> 
<path style="fill:#000000; fill-opacity:1.0000; stroke:none;fill-rule:evenodd;" d="M 135.1890,100.6158 135.2221,100.6379 135.2442,100.6710 135.2520,100.7100 135.2520,101.2500 135.2442,101.2890 135.2221,101.3221 135.1890,101.3442 135.1500,101.3520 134.5500,101.3520 134.5110,101.3442 134.4779,101.3221 134.4558,101.2890 134.4480,101.2500 134.4480,100.7100 134.4558,100.6710 134.4779,100.6379 134.5110,100.6158 134.5500,100.6080 135.1500,100.6080 Z"/> 
<path style="fill:#000000; fill-opacity:1.0000; stroke:none;fill-rule:evenodd;" d="M 139.8890,100.6158 139.9221,100.6379 139.9442,100.6710 139.9520,100.7100 139.9520,101.2500 139.9442,101.2890 139.9221,101.3221 139.8890,101.3442 139.8500,101.3520 139.2500,101.3520 139.2110,101.3442 139.1779,101.3221 139.1558,101.2890 139.1480,101.2500 139.1480,100.7100 139.1558,100.6710 139.1779,100.6379 139.2110,100.6158 139.2500,100.6080 139.8500,100.6080 Z"/> 
<path style="fill:#000000; fill-opacity:1.0000; stroke:none;fill-rule:evenodd;" d="M 125.7890,96.7798 125.8221,96.8019 125.8442,96.8350 125.8520,96.8740 125.8520,97.4140 125.8442,97.4530 125.8221,97.4861 125.7890,97.5082 125.7500,97.5160 125.1500,97.5160 125.1110,97.5082 125.0779,97.4861 125.0558,97.4530 125.0480,97.4140 125.0480,96.8740 125.0558,96.8350 125.0779,96.8019 125.1110,96.7798 125.1500,96.7720 125.7500,96.7720 Z"/> 
<path style="fill:#000000; fill-opacity:1.0000; stroke:none;fill-rule:evenodd;" d="M 130.4890,96.7798 130.5221,96.8019 130.5442,96.8350 130.5520,96.8740 130.5520,97.4140 130.5442,97.4530 130.5221,97.4861 130.4890,97.5082 130.4500,97.5160 129.8500,97.5160 129.8110,97.5082 129.7779,97.4861 129.7558,97.4530 129.7480,97.4140 129.7480,96.8740 129.7558,96.8350 129.7779,96.8019 129.8110,96.7798 129.8500,96.7720 130.4500,96.7720 Z"/> 
<path style="fill:#000000; fill-opacity:1.0000; stroke:none;fill-rule:evenodd;" d="M 135.1890,96.7798 135.2221,96.8019 135.2442,96.8350 135.2520,96.8740 135.2520,97.4140 135.2442,97.4530 135.2221,97.4861 135.1890,97.5082 135.1500,97.5160 134.5500,97.5160 134.5110,97.5082 134.4779,97.4861 134.4558,97.4530 134.4480,97.4140 134.4480,96.8740 134.4558,96.8350 134.4779,96.8019 134.5110,96.7798 134.5500,96.7720 135.1500,96.7720 Z"/> 
<path style="fill:#000000; fill-opacity:1.0000; stroke:none;fill-rule:evenodd;" d="M 139.8890,96.7798 139.9221,96.8019 139.9442,96.8350 139.9520,96.8740 139.9520,97.4140 139.9442,97.4530 139.9221,97.4861 139.8890,97.5082 139.8500,97.5160 139.2500,97.5160 139.2110,97.5082 139.1779,97.4861 139.1558,97.4530 139.1480,97.4140 139.1480,96.8740 139.1558,96.8350 139.1779,96.8019 139.2110,96.7798 139.2500,96.7720 139.8500,96.7720 Z"/> 
<path style="fill:#000000; fill-opacity:1.0000; stroke:none;fill-rule:evenodd;" d="M 125.7890,95.9158 125.8221,95.9379 125.8442,95.9710 125.8520,96.0100 125.8520,96.5500 125.8442,96.5890 125.8221,96.6221 125.7890,96.6442 125.7500,96.6520 125.1500,96.6520 125.1110,96.6442 125.0779,96.6221 125.0558,96.5890 125.0480,96.5500 125.0480,96.0100 125.0558,95.9710 125.0779,95.9379 125.1110,95.9158 125.1500,95.9080 125.7500,95.9080 Z"/> 
<path style="fill:#000000; fill-opacity:1.0000; stroke:none;fill-rule:evenodd;" d="M 130.4890,95.9158 130.5221,95.9379 130.5442,95.9710 130.5520,96.0100 130.5520,96.5500 130.5442,96.5890 130.5221,96.6221 130.4890,96.6442 130.4500,96.6520 129.8500,96.6520 129.8110,96.6442 129.7779,96.6221 129.7558,96.5890 129.7480,96.5500 129.7480,96.0100 129.7558,95.9710 129.7779,95.9379 129.8110,95.9158 129.8500,95.9080 130.4500,95.9080 Z"/> 
<path style="fill:#000000; fill-opacity:1.0000; stroke:none;fill-rule:evenodd;" d="M 135.1890,95.9158 135.2221,95.9379 135.2442,95.9710 135.2520,96.0100 135.2520,96.5500 135.2442,96.5890 135.2221,96.6221 135.1890,96.6442 135.1500,96.6520 134.5500,96.6520 134.5110,96.6442 134.4779,96.6221 134.4558,96.5890 134.4480,96.5500 134.4480,96.0100 134.4558,95.9710 134.4779,95.9379 134.5110,95.9158 134.5500,95.9080 135.1500,95.9080 Z"/> 
<path style="fill:#000000; fill-opacity:1.0000; stroke:none;fill-rule:evenodd;" d="M 139.8890,95.9158 139.9221,95.9379 139.9442,95.9710 139.9520,96.0100 139.9520,96.5500 139.9442,96.5890 139.9221,96.6221 139.8890,96.6442 139.8500,96.6520 139.2500,96.6520 139.2110,96.6442 139.1779,96.6221 139.1558,96.5890 139.1480,96.5500 139.1480,96.0100 139.1558,95.9710 139.1779,95.9379 139.2110,95.9158 139.2500,95.9080 139.8500,95.9080 Z"/> 
</g> 
</mask></defs><g transform="scale(-1,1) translate(-297.0022,0)" id="boardContainer"><g id="substrate" clip-path="url(#cut-off)" mask="url(#pads-mask-silkscreen)"><g id="substrate-board" style="fill:#143324; fill-opacity:0.25098039215686274; stroke:#143324; stroke-width:0;"><path d=" M 123.99 92.1 L 124.0 113.1 A 1 1 0 0 0 123.99 92.1  M 125.0 114.1 L 144.0 114.1 A 1 1 0 0 0 125.0 114.1  M 144.0 114.1 A 1 1 0 0 0 145.0 113.1 L 145.0 92.11 A 1 1 0 0 0 144.0 91.11 L 124.99 91.11 " style="fill-rule: evenodd;"/><g style="fill: none;stroke: #4ca06c;stroke-width: 0.0500;stroke-opacity: 1;stroke-linecap: round;stroke-linejoin: round">
<path d="M124.9900 91.1000 A1.0000 1.0000 0.0 0 0 123.9900 92.1000"/>
<path d="M124.0000 113.1000 L123.9900 92.1000 "/>
<path d="M124.0000 113.1000 A1.0000 1.0000 0.0 0 0 125.0000 114.1000"/>
<path d="M125.0000 114.1000 L144.0000 114.1000 "/>
<path d="M144.0000 91.1100 L124.9900 91.1100 "/>
<path d="M145.0000 92.1100 A1.0000 1.0000 0.0 0 0 144.0000 91.1100"/>
<path d="M144.0000 114.1000 A1.0000 1.0000 0.0 0 0 145.0000 113.1000"/>
<path d="M145.0000 113.1000 L145.0000 92.1100 "/>
</g> 
</g></g></g></svg>
