%TF.GenerationSoftware,KiCad,Pcbnew,10.0.4-10.0.4~ubuntu24.04.1*%
%TF.CreationDate,2026-06-30T15:28:47+09:00*%
%TF.ProjectId,4x4,3478342e-6b69-4636-9164-5f7063625858,rev?*%
%TF.SameCoordinates,Original*%
%TF.FileFunction,Legend,Top*%
%TF.FilePolarity,Positive*%
%FSLAX46Y46*%
G04 Gerber Fmt 4.6, Leading zero omitted, Abs format (unit mm)*
G04 Created by KiCad (PCBNEW 10.0.4-10.0.4~ubuntu24.04.1) date 2026-06-30 15:28:47*
%MOMM*%
%LPD*%
G01*
G04 APERTURE LIST*
%ADD10C,0.100000*%
%ADD11C,0.125000*%
%ADD12C,0.150000*%
%ADD13C,0.110000*%
%ADD14C,0.127000*%
%ADD15C,0.200000*%
G04 APERTURE END LIST*
D10*
X126921238Y-104266109D02*
X127254571Y-104766109D01*
X127254571Y-104266109D02*
X126921238Y-104766109D01*
X127397428Y-104266109D02*
X127706952Y-104266109D01*
X127706952Y-104266109D02*
X127540285Y-104456585D01*
X127540285Y-104456585D02*
X127611714Y-104456585D01*
X127611714Y-104456585D02*
X127659333Y-104480395D01*
X127659333Y-104480395D02*
X127683142Y-104504204D01*
X127683142Y-104504204D02*
X127706952Y-104551823D01*
X127706952Y-104551823D02*
X127706952Y-104670871D01*
X127706952Y-104670871D02*
X127683142Y-104718490D01*
X127683142Y-104718490D02*
X127659333Y-104742300D01*
X127659333Y-104742300D02*
X127611714Y-104766109D01*
X127611714Y-104766109D02*
X127468857Y-104766109D01*
X127468857Y-104766109D02*
X127421238Y-104742300D01*
X127421238Y-104742300D02*
X127397428Y-104718490D01*
X126921238Y-108966109D02*
X127254571Y-109466109D01*
X127254571Y-108966109D02*
X126921238Y-109466109D01*
X127659333Y-109132776D02*
X127659333Y-109466109D01*
X127540285Y-108942300D02*
X127421238Y-109299442D01*
X127421238Y-109299442D02*
X127730761Y-109299442D01*
X126986238Y-97794109D02*
X127319571Y-98294109D01*
X127319571Y-97794109D02*
X126986238Y-98294109D01*
X127771952Y-98294109D02*
X127486238Y-98294109D01*
X127629095Y-98294109D02*
X127629095Y-97794109D01*
X127629095Y-97794109D02*
X127581476Y-97865538D01*
X127581476Y-97865538D02*
X127533857Y-97913157D01*
X127533857Y-97913157D02*
X127486238Y-97936966D01*
X127046238Y-99544109D02*
X127379571Y-100044109D01*
X127379571Y-99544109D02*
X127046238Y-100044109D01*
X127546238Y-99591728D02*
X127570047Y-99567919D01*
X127570047Y-99567919D02*
X127617666Y-99544109D01*
X127617666Y-99544109D02*
X127736714Y-99544109D01*
X127736714Y-99544109D02*
X127784333Y-99567919D01*
X127784333Y-99567919D02*
X127808142Y-99591728D01*
X127808142Y-99591728D02*
X127831952Y-99639347D01*
X127831952Y-99639347D02*
X127831952Y-99686966D01*
X127831952Y-99686966D02*
X127808142Y-99758395D01*
X127808142Y-99758395D02*
X127522428Y-100044109D01*
X127522428Y-100044109D02*
X127831952Y-100044109D01*
D11*
X124831997Y-96489309D02*
X124665331Y-96251214D01*
X124546283Y-96489309D02*
X124546283Y-95989309D01*
X124546283Y-95989309D02*
X124736759Y-95989309D01*
X124736759Y-95989309D02*
X124784378Y-96013119D01*
X124784378Y-96013119D02*
X124808188Y-96036928D01*
X124808188Y-96036928D02*
X124831997Y-96084547D01*
X124831997Y-96084547D02*
X124831997Y-96155976D01*
X124831997Y-96155976D02*
X124808188Y-96203595D01*
X124808188Y-96203595D02*
X124784378Y-96227404D01*
X124784378Y-96227404D02*
X124736759Y-96251214D01*
X124736759Y-96251214D02*
X124546283Y-96251214D01*
X124998664Y-95989309D02*
X125331997Y-96489309D01*
X125331997Y-95989309D02*
X124998664Y-96489309D01*
X125784378Y-96489309D02*
X125498664Y-96489309D01*
X125641521Y-96489309D02*
X125641521Y-95989309D01*
X125641521Y-95989309D02*
X125593902Y-96060738D01*
X125593902Y-96060738D02*
X125546283Y-96108357D01*
X125546283Y-96108357D02*
X125498664Y-96132166D01*
X125189997Y-92238309D02*
X125023331Y-92000214D01*
X124904283Y-92238309D02*
X124904283Y-91738309D01*
X124904283Y-91738309D02*
X125094759Y-91738309D01*
X125094759Y-91738309D02*
X125142378Y-91762119D01*
X125142378Y-91762119D02*
X125166188Y-91785928D01*
X125166188Y-91785928D02*
X125189997Y-91833547D01*
X125189997Y-91833547D02*
X125189997Y-91904976D01*
X125189997Y-91904976D02*
X125166188Y-91952595D01*
X125166188Y-91952595D02*
X125142378Y-91976404D01*
X125142378Y-91976404D02*
X125094759Y-92000214D01*
X125094759Y-92000214D02*
X124904283Y-92000214D01*
X125356664Y-91738309D02*
X125689997Y-92238309D01*
X125689997Y-91738309D02*
X125356664Y-92238309D01*
X125856664Y-91785928D02*
X125880473Y-91762119D01*
X125880473Y-91762119D02*
X125928092Y-91738309D01*
X125928092Y-91738309D02*
X126047140Y-91738309D01*
X126047140Y-91738309D02*
X126094759Y-91762119D01*
X126094759Y-91762119D02*
X126118568Y-91785928D01*
X126118568Y-91785928D02*
X126142378Y-91833547D01*
X126142378Y-91833547D02*
X126142378Y-91881166D01*
X126142378Y-91881166D02*
X126118568Y-91952595D01*
X126118568Y-91952595D02*
X125832854Y-92238309D01*
X125832854Y-92238309D02*
X126142378Y-92238309D01*
X143194997Y-92269309D02*
X143028331Y-92031214D01*
X142909283Y-92269309D02*
X142909283Y-91769309D01*
X142909283Y-91769309D02*
X143099759Y-91769309D01*
X143099759Y-91769309D02*
X143147378Y-91793119D01*
X143147378Y-91793119D02*
X143171188Y-91816928D01*
X143171188Y-91816928D02*
X143194997Y-91864547D01*
X143194997Y-91864547D02*
X143194997Y-91935976D01*
X143194997Y-91935976D02*
X143171188Y-91983595D01*
X143171188Y-91983595D02*
X143147378Y-92007404D01*
X143147378Y-92007404D02*
X143099759Y-92031214D01*
X143099759Y-92031214D02*
X142909283Y-92031214D01*
X143361664Y-91769309D02*
X143694997Y-92269309D01*
X143694997Y-91769309D02*
X143361664Y-92269309D01*
X143837854Y-91769309D02*
X144147378Y-91769309D01*
X144147378Y-91769309D02*
X143980711Y-91959785D01*
X143980711Y-91959785D02*
X144052140Y-91959785D01*
X144052140Y-91959785D02*
X144099759Y-91983595D01*
X144099759Y-91983595D02*
X144123568Y-92007404D01*
X144123568Y-92007404D02*
X144147378Y-92055023D01*
X144147378Y-92055023D02*
X144147378Y-92174071D01*
X144147378Y-92174071D02*
X144123568Y-92221690D01*
X144123568Y-92221690D02*
X144099759Y-92245500D01*
X144099759Y-92245500D02*
X144052140Y-92269309D01*
X144052140Y-92269309D02*
X143909283Y-92269309D01*
X143909283Y-92269309D02*
X143861664Y-92245500D01*
X143861664Y-92245500D02*
X143837854Y-92221690D01*
X143631997Y-96510309D02*
X143465331Y-96272214D01*
X143346283Y-96510309D02*
X143346283Y-96010309D01*
X143346283Y-96010309D02*
X143536759Y-96010309D01*
X143536759Y-96010309D02*
X143584378Y-96034119D01*
X143584378Y-96034119D02*
X143608188Y-96057928D01*
X143608188Y-96057928D02*
X143631997Y-96105547D01*
X143631997Y-96105547D02*
X143631997Y-96176976D01*
X143631997Y-96176976D02*
X143608188Y-96224595D01*
X143608188Y-96224595D02*
X143584378Y-96248404D01*
X143584378Y-96248404D02*
X143536759Y-96272214D01*
X143536759Y-96272214D02*
X143346283Y-96272214D01*
X143798664Y-96010309D02*
X144131997Y-96510309D01*
X144131997Y-96010309D02*
X143798664Y-96510309D01*
X144536759Y-96176976D02*
X144536759Y-96510309D01*
X144417711Y-95986500D02*
X144298664Y-96343642D01*
X144298664Y-96343642D02*
X144608187Y-96343642D01*
X124586309Y-113497144D02*
X124586309Y-113211430D01*
X125086309Y-113354287D02*
X124586309Y-113354287D01*
X124586309Y-113092383D02*
X125086309Y-112759050D01*
X124586309Y-112759050D02*
X125086309Y-113092383D01*
X125086309Y-112306669D02*
X125086309Y-112592383D01*
X125086309Y-112449526D02*
X124586309Y-112449526D01*
X124586309Y-112449526D02*
X124657738Y-112497145D01*
X124657738Y-112497145D02*
X124705357Y-112544764D01*
X124705357Y-112544764D02*
X124729166Y-112592383D01*
X131382059Y-113740144D02*
X131382059Y-113454430D01*
X131882059Y-113597287D02*
X131382059Y-113597287D01*
X131382059Y-113335383D02*
X131882059Y-113002050D01*
X131382059Y-113002050D02*
X131882059Y-113335383D01*
X131429678Y-112835383D02*
X131405869Y-112811574D01*
X131405869Y-112811574D02*
X131382059Y-112763955D01*
X131382059Y-112763955D02*
X131382059Y-112644907D01*
X131382059Y-112644907D02*
X131405869Y-112597288D01*
X131405869Y-112597288D02*
X131429678Y-112573479D01*
X131429678Y-112573479D02*
X131477297Y-112549669D01*
X131477297Y-112549669D02*
X131524916Y-112549669D01*
X131524916Y-112549669D02*
X131596345Y-112573479D01*
X131596345Y-112573479D02*
X131882059Y-112859193D01*
X131882059Y-112859193D02*
X131882059Y-112549669D01*
X134801809Y-113740144D02*
X134801809Y-113454430D01*
X135301809Y-113597287D02*
X134801809Y-113597287D01*
X134801809Y-113335383D02*
X135301809Y-113002050D01*
X134801809Y-113002050D02*
X135301809Y-113335383D01*
X134801809Y-112859193D02*
X134801809Y-112549669D01*
X134801809Y-112549669D02*
X134992285Y-112716336D01*
X134992285Y-112716336D02*
X134992285Y-112644907D01*
X134992285Y-112644907D02*
X135016095Y-112597288D01*
X135016095Y-112597288D02*
X135039904Y-112573479D01*
X135039904Y-112573479D02*
X135087523Y-112549669D01*
X135087523Y-112549669D02*
X135206571Y-112549669D01*
X135206571Y-112549669D02*
X135254190Y-112573479D01*
X135254190Y-112573479D02*
X135278000Y-112597288D01*
X135278000Y-112597288D02*
X135301809Y-112644907D01*
X135301809Y-112644907D02*
X135301809Y-112787764D01*
X135301809Y-112787764D02*
X135278000Y-112835383D01*
X135278000Y-112835383D02*
X135254190Y-112859193D01*
X141641309Y-113740144D02*
X141641309Y-113454430D01*
X142141309Y-113597287D02*
X141641309Y-113597287D01*
X141641309Y-113335383D02*
X142141309Y-113002050D01*
X141641309Y-113002050D02*
X142141309Y-113335383D01*
X141807976Y-112597288D02*
X142141309Y-112597288D01*
X141617500Y-112716336D02*
X141974642Y-112835383D01*
X141974642Y-112835383D02*
X141974642Y-112525860D01*
X127962309Y-113787764D02*
X128462309Y-113621098D01*
X128462309Y-113621098D02*
X127962309Y-113454431D01*
X128462309Y-113287765D02*
X127962309Y-113287765D01*
X127962309Y-113287765D02*
X127962309Y-113168717D01*
X127962309Y-113168717D02*
X127986119Y-113097289D01*
X127986119Y-113097289D02*
X128033738Y-113049670D01*
X128033738Y-113049670D02*
X128081357Y-113025860D01*
X128081357Y-113025860D02*
X128176595Y-113002051D01*
X128176595Y-113002051D02*
X128248023Y-113002051D01*
X128248023Y-113002051D02*
X128343261Y-113025860D01*
X128343261Y-113025860D02*
X128390880Y-113049670D01*
X128390880Y-113049670D02*
X128438500Y-113097289D01*
X128438500Y-113097289D02*
X128462309Y-113168717D01*
X128462309Y-113168717D02*
X128462309Y-113287765D01*
X128462309Y-112787765D02*
X127962309Y-112787765D01*
X127962309Y-112787765D02*
X127962309Y-112668717D01*
X127962309Y-112668717D02*
X127986119Y-112597289D01*
X127986119Y-112597289D02*
X128033738Y-112549670D01*
X128033738Y-112549670D02*
X128081357Y-112525860D01*
X128081357Y-112525860D02*
X128176595Y-112502051D01*
X128176595Y-112502051D02*
X128248023Y-112502051D01*
X128248023Y-112502051D02*
X128343261Y-112525860D01*
X128343261Y-112525860D02*
X128390880Y-112549670D01*
X128390880Y-112549670D02*
X128438500Y-112597289D01*
X128438500Y-112597289D02*
X128462309Y-112668717D01*
X128462309Y-112668717D02*
X128462309Y-112787765D01*
X138245369Y-113502050D02*
X138221559Y-113549669D01*
X138221559Y-113549669D02*
X138221559Y-113621098D01*
X138221559Y-113621098D02*
X138245369Y-113692526D01*
X138245369Y-113692526D02*
X138292988Y-113740145D01*
X138292988Y-113740145D02*
X138340607Y-113763955D01*
X138340607Y-113763955D02*
X138435845Y-113787764D01*
X138435845Y-113787764D02*
X138507273Y-113787764D01*
X138507273Y-113787764D02*
X138602511Y-113763955D01*
X138602511Y-113763955D02*
X138650130Y-113740145D01*
X138650130Y-113740145D02*
X138697750Y-113692526D01*
X138697750Y-113692526D02*
X138721559Y-113621098D01*
X138721559Y-113621098D02*
X138721559Y-113573479D01*
X138721559Y-113573479D02*
X138697750Y-113502050D01*
X138697750Y-113502050D02*
X138673940Y-113478241D01*
X138673940Y-113478241D02*
X138507273Y-113478241D01*
X138507273Y-113478241D02*
X138507273Y-113573479D01*
X138721559Y-113263955D02*
X138221559Y-113263955D01*
X138221559Y-113263955D02*
X138721559Y-112978241D01*
X138721559Y-112978241D02*
X138221559Y-112978241D01*
X138721559Y-112740145D02*
X138221559Y-112740145D01*
X138221559Y-112740145D02*
X138221559Y-112621097D01*
X138221559Y-112621097D02*
X138245369Y-112549669D01*
X138245369Y-112549669D02*
X138292988Y-112502050D01*
X138292988Y-112502050D02*
X138340607Y-112478240D01*
X138340607Y-112478240D02*
X138435845Y-112454431D01*
X138435845Y-112454431D02*
X138507273Y-112454431D01*
X138507273Y-112454431D02*
X138602511Y-112478240D01*
X138602511Y-112478240D02*
X138650130Y-112502050D01*
X138650130Y-112502050D02*
X138697750Y-112549669D01*
X138697750Y-112549669D02*
X138721559Y-112621097D01*
X138721559Y-112621097D02*
X138721559Y-112740145D01*
D10*
X131505238Y-97796109D02*
X131838571Y-98296109D01*
X131838571Y-97796109D02*
X131505238Y-98296109D01*
X132267142Y-97796109D02*
X132029047Y-97796109D01*
X132029047Y-97796109D02*
X132005238Y-98034204D01*
X132005238Y-98034204D02*
X132029047Y-98010395D01*
X132029047Y-98010395D02*
X132076666Y-97986585D01*
X132076666Y-97986585D02*
X132195714Y-97986585D01*
X132195714Y-97986585D02*
X132243333Y-98010395D01*
X132243333Y-98010395D02*
X132267142Y-98034204D01*
X132267142Y-98034204D02*
X132290952Y-98081823D01*
X132290952Y-98081823D02*
X132290952Y-98200871D01*
X132290952Y-98200871D02*
X132267142Y-98248490D01*
X132267142Y-98248490D02*
X132243333Y-98272300D01*
X132243333Y-98272300D02*
X132195714Y-98296109D01*
X132195714Y-98296109D02*
X132076666Y-98296109D01*
X132076666Y-98296109D02*
X132029047Y-98272300D01*
X132029047Y-98272300D02*
X132005238Y-98248490D01*
X140666143Y-99564109D02*
X140999476Y-100064109D01*
X140999476Y-99564109D02*
X140666143Y-100064109D01*
X141451857Y-100064109D02*
X141166143Y-100064109D01*
X141309000Y-100064109D02*
X141309000Y-99564109D01*
X141309000Y-99564109D02*
X141261381Y-99635538D01*
X141261381Y-99635538D02*
X141213762Y-99683157D01*
X141213762Y-99683157D02*
X141166143Y-99706966D01*
X141880428Y-99730776D02*
X141880428Y-100064109D01*
X141761380Y-99540300D02*
X141642333Y-99897442D01*
X141642333Y-99897442D02*
X141951856Y-99897442D01*
D12*
X140495333Y-92542902D02*
X140495333Y-93007188D01*
X140495333Y-93007188D02*
X140464380Y-93100045D01*
X140464380Y-93100045D02*
X140402476Y-93161950D01*
X140402476Y-93161950D02*
X140309618Y-93192902D01*
X140309618Y-93192902D02*
X140247714Y-93192902D01*
X140773904Y-92604807D02*
X140804856Y-92573854D01*
X140804856Y-92573854D02*
X140866761Y-92542902D01*
X140866761Y-92542902D02*
X141021523Y-92542902D01*
X141021523Y-92542902D02*
X141083428Y-92573854D01*
X141083428Y-92573854D02*
X141114380Y-92604807D01*
X141114380Y-92604807D02*
X141145333Y-92666711D01*
X141145333Y-92666711D02*
X141145333Y-92728616D01*
X141145333Y-92728616D02*
X141114380Y-92821473D01*
X141114380Y-92821473D02*
X140742952Y-93192902D01*
X140742952Y-93192902D02*
X141145333Y-93192902D01*
D10*
X131698238Y-99536109D02*
X132031571Y-100036109D01*
X132031571Y-99536109D02*
X131698238Y-100036109D01*
X132436333Y-99536109D02*
X132341095Y-99536109D01*
X132341095Y-99536109D02*
X132293476Y-99559919D01*
X132293476Y-99559919D02*
X132269666Y-99583728D01*
X132269666Y-99583728D02*
X132222047Y-99655157D01*
X132222047Y-99655157D02*
X132198238Y-99750395D01*
X132198238Y-99750395D02*
X132198238Y-99940871D01*
X132198238Y-99940871D02*
X132222047Y-99988490D01*
X132222047Y-99988490D02*
X132245857Y-100012300D01*
X132245857Y-100012300D02*
X132293476Y-100036109D01*
X132293476Y-100036109D02*
X132388714Y-100036109D01*
X132388714Y-100036109D02*
X132436333Y-100012300D01*
X132436333Y-100012300D02*
X132460142Y-99988490D01*
X132460142Y-99988490D02*
X132483952Y-99940871D01*
X132483952Y-99940871D02*
X132483952Y-99821823D01*
X132483952Y-99821823D02*
X132460142Y-99774204D01*
X132460142Y-99774204D02*
X132436333Y-99750395D01*
X132436333Y-99750395D02*
X132388714Y-99726585D01*
X132388714Y-99726585D02*
X132293476Y-99726585D01*
X132293476Y-99726585D02*
X132245857Y-99750395D01*
X132245857Y-99750395D02*
X132222047Y-99774204D01*
X132222047Y-99774204D02*
X132198238Y-99821823D01*
X136083143Y-104266109D02*
X136416476Y-104766109D01*
X136416476Y-104266109D02*
X136083143Y-104766109D01*
X136868857Y-104766109D02*
X136583143Y-104766109D01*
X136726000Y-104766109D02*
X136726000Y-104266109D01*
X136726000Y-104266109D02*
X136678381Y-104337538D01*
X136678381Y-104337538D02*
X136630762Y-104385157D01*
X136630762Y-104385157D02*
X136583143Y-104408966D01*
X137345047Y-104766109D02*
X137059333Y-104766109D01*
X137202190Y-104766109D02*
X137202190Y-104266109D01*
X137202190Y-104266109D02*
X137154571Y-104337538D01*
X137154571Y-104337538D02*
X137106952Y-104385157D01*
X137106952Y-104385157D02*
X137059333Y-104408966D01*
X140583143Y-104266109D02*
X140916476Y-104766109D01*
X140916476Y-104266109D02*
X140583143Y-104766109D01*
X141368857Y-104766109D02*
X141083143Y-104766109D01*
X141226000Y-104766109D02*
X141226000Y-104266109D01*
X141226000Y-104266109D02*
X141178381Y-104337538D01*
X141178381Y-104337538D02*
X141130762Y-104385157D01*
X141130762Y-104385157D02*
X141083143Y-104408966D01*
X141821237Y-104266109D02*
X141583142Y-104266109D01*
X141583142Y-104266109D02*
X141559333Y-104504204D01*
X141559333Y-104504204D02*
X141583142Y-104480395D01*
X141583142Y-104480395D02*
X141630761Y-104456585D01*
X141630761Y-104456585D02*
X141749809Y-104456585D01*
X141749809Y-104456585D02*
X141797428Y-104480395D01*
X141797428Y-104480395D02*
X141821237Y-104504204D01*
X141821237Y-104504204D02*
X141845047Y-104551823D01*
X141845047Y-104551823D02*
X141845047Y-104670871D01*
X141845047Y-104670871D02*
X141821237Y-104718490D01*
X141821237Y-104718490D02*
X141797428Y-104742300D01*
X141797428Y-104742300D02*
X141749809Y-104766109D01*
X141749809Y-104766109D02*
X141630761Y-104766109D01*
X141630761Y-104766109D02*
X141583142Y-104742300D01*
X141583142Y-104742300D02*
X141559333Y-104718490D01*
X140583143Y-108966109D02*
X140916476Y-109466109D01*
X140916476Y-108966109D02*
X140583143Y-109466109D01*
X141368857Y-109466109D02*
X141083143Y-109466109D01*
X141226000Y-109466109D02*
X141226000Y-108966109D01*
X141226000Y-108966109D02*
X141178381Y-109037538D01*
X141178381Y-109037538D02*
X141130762Y-109085157D01*
X141130762Y-109085157D02*
X141083143Y-109108966D01*
X141797428Y-108966109D02*
X141702190Y-108966109D01*
X141702190Y-108966109D02*
X141654571Y-108989919D01*
X141654571Y-108989919D02*
X141630761Y-109013728D01*
X141630761Y-109013728D02*
X141583142Y-109085157D01*
X141583142Y-109085157D02*
X141559333Y-109180395D01*
X141559333Y-109180395D02*
X141559333Y-109370871D01*
X141559333Y-109370871D02*
X141583142Y-109418490D01*
X141583142Y-109418490D02*
X141606952Y-109442300D01*
X141606952Y-109442300D02*
X141654571Y-109466109D01*
X141654571Y-109466109D02*
X141749809Y-109466109D01*
X141749809Y-109466109D02*
X141797428Y-109442300D01*
X141797428Y-109442300D02*
X141821237Y-109418490D01*
X141821237Y-109418490D02*
X141845047Y-109370871D01*
X141845047Y-109370871D02*
X141845047Y-109251823D01*
X141845047Y-109251823D02*
X141821237Y-109204204D01*
X141821237Y-109204204D02*
X141797428Y-109180395D01*
X141797428Y-109180395D02*
X141749809Y-109156585D01*
X141749809Y-109156585D02*
X141654571Y-109156585D01*
X141654571Y-109156585D02*
X141606952Y-109180395D01*
X141606952Y-109180395D02*
X141583142Y-109204204D01*
X141583142Y-109204204D02*
X141559333Y-109251823D01*
X135878143Y-99457109D02*
X136211476Y-99957109D01*
X136211476Y-99457109D02*
X135878143Y-99957109D01*
X136663857Y-99957109D02*
X136378143Y-99957109D01*
X136521000Y-99957109D02*
X136521000Y-99457109D01*
X136521000Y-99457109D02*
X136473381Y-99528538D01*
X136473381Y-99528538D02*
X136425762Y-99576157D01*
X136425762Y-99576157D02*
X136378143Y-99599966D01*
X136973380Y-99457109D02*
X137020999Y-99457109D01*
X137020999Y-99457109D02*
X137068618Y-99480919D01*
X137068618Y-99480919D02*
X137092428Y-99504728D01*
X137092428Y-99504728D02*
X137116237Y-99552347D01*
X137116237Y-99552347D02*
X137140047Y-99647585D01*
X137140047Y-99647585D02*
X137140047Y-99766633D01*
X137140047Y-99766633D02*
X137116237Y-99861871D01*
X137116237Y-99861871D02*
X137092428Y-99909490D01*
X137092428Y-99909490D02*
X137068618Y-99933300D01*
X137068618Y-99933300D02*
X137020999Y-99957109D01*
X137020999Y-99957109D02*
X136973380Y-99957109D01*
X136973380Y-99957109D02*
X136925761Y-99933300D01*
X136925761Y-99933300D02*
X136901952Y-99909490D01*
X136901952Y-99909490D02*
X136878142Y-99861871D01*
X136878142Y-99861871D02*
X136854333Y-99766633D01*
X136854333Y-99766633D02*
X136854333Y-99647585D01*
X136854333Y-99647585D02*
X136878142Y-99552347D01*
X136878142Y-99552347D02*
X136901952Y-99504728D01*
X136901952Y-99504728D02*
X136925761Y-99480919D01*
X136925761Y-99480919D02*
X136973380Y-99457109D01*
X140595143Y-97824109D02*
X140928476Y-98324109D01*
X140928476Y-97824109D02*
X140595143Y-98324109D01*
X141380857Y-98324109D02*
X141095143Y-98324109D01*
X141238000Y-98324109D02*
X141238000Y-97824109D01*
X141238000Y-97824109D02*
X141190381Y-97895538D01*
X141190381Y-97895538D02*
X141142762Y-97943157D01*
X141142762Y-97943157D02*
X141095143Y-97966966D01*
X141547523Y-97824109D02*
X141857047Y-97824109D01*
X141857047Y-97824109D02*
X141690380Y-98014585D01*
X141690380Y-98014585D02*
X141761809Y-98014585D01*
X141761809Y-98014585D02*
X141809428Y-98038395D01*
X141809428Y-98038395D02*
X141833237Y-98062204D01*
X141833237Y-98062204D02*
X141857047Y-98109823D01*
X141857047Y-98109823D02*
X141857047Y-98228871D01*
X141857047Y-98228871D02*
X141833237Y-98276490D01*
X141833237Y-98276490D02*
X141809428Y-98300300D01*
X141809428Y-98300300D02*
X141761809Y-98324109D01*
X141761809Y-98324109D02*
X141618952Y-98324109D01*
X141618952Y-98324109D02*
X141571333Y-98300300D01*
X141571333Y-98300300D02*
X141547523Y-98276490D01*
X131621238Y-108966109D02*
X131954571Y-109466109D01*
X131954571Y-108966109D02*
X131621238Y-109466109D01*
X132216476Y-109180395D02*
X132168857Y-109156585D01*
X132168857Y-109156585D02*
X132145047Y-109132776D01*
X132145047Y-109132776D02*
X132121238Y-109085157D01*
X132121238Y-109085157D02*
X132121238Y-109061347D01*
X132121238Y-109061347D02*
X132145047Y-109013728D01*
X132145047Y-109013728D02*
X132168857Y-108989919D01*
X132168857Y-108989919D02*
X132216476Y-108966109D01*
X132216476Y-108966109D02*
X132311714Y-108966109D01*
X132311714Y-108966109D02*
X132359333Y-108989919D01*
X132359333Y-108989919D02*
X132383142Y-109013728D01*
X132383142Y-109013728D02*
X132406952Y-109061347D01*
X132406952Y-109061347D02*
X132406952Y-109085157D01*
X132406952Y-109085157D02*
X132383142Y-109132776D01*
X132383142Y-109132776D02*
X132359333Y-109156585D01*
X132359333Y-109156585D02*
X132311714Y-109180395D01*
X132311714Y-109180395D02*
X132216476Y-109180395D01*
X132216476Y-109180395D02*
X132168857Y-109204204D01*
X132168857Y-109204204D02*
X132145047Y-109228014D01*
X132145047Y-109228014D02*
X132121238Y-109275633D01*
X132121238Y-109275633D02*
X132121238Y-109370871D01*
X132121238Y-109370871D02*
X132145047Y-109418490D01*
X132145047Y-109418490D02*
X132168857Y-109442300D01*
X132168857Y-109442300D02*
X132216476Y-109466109D01*
X132216476Y-109466109D02*
X132311714Y-109466109D01*
X132311714Y-109466109D02*
X132359333Y-109442300D01*
X132359333Y-109442300D02*
X132383142Y-109418490D01*
X132383142Y-109418490D02*
X132406952Y-109370871D01*
X132406952Y-109370871D02*
X132406952Y-109275633D01*
X132406952Y-109275633D02*
X132383142Y-109228014D01*
X132383142Y-109228014D02*
X132359333Y-109204204D01*
X132359333Y-109204204D02*
X132311714Y-109180395D01*
X131621238Y-104266109D02*
X131954571Y-104766109D01*
X131954571Y-104266109D02*
X131621238Y-104766109D01*
X132097428Y-104266109D02*
X132430761Y-104266109D01*
X132430761Y-104266109D02*
X132216476Y-104766109D01*
X136083143Y-108966109D02*
X136416476Y-109466109D01*
X136416476Y-108966109D02*
X136083143Y-109466109D01*
X136868857Y-109466109D02*
X136583143Y-109466109D01*
X136726000Y-109466109D02*
X136726000Y-108966109D01*
X136726000Y-108966109D02*
X136678381Y-109037538D01*
X136678381Y-109037538D02*
X136630762Y-109085157D01*
X136630762Y-109085157D02*
X136583143Y-109108966D01*
X137059333Y-109013728D02*
X137083142Y-108989919D01*
X137083142Y-108989919D02*
X137130761Y-108966109D01*
X137130761Y-108966109D02*
X137249809Y-108966109D01*
X137249809Y-108966109D02*
X137297428Y-108989919D01*
X137297428Y-108989919D02*
X137321237Y-109013728D01*
X137321237Y-109013728D02*
X137345047Y-109061347D01*
X137345047Y-109061347D02*
X137345047Y-109108966D01*
X137345047Y-109108966D02*
X137321237Y-109180395D01*
X137321237Y-109180395D02*
X137035523Y-109466109D01*
X137035523Y-109466109D02*
X137345047Y-109466109D01*
X136115238Y-97876109D02*
X136448571Y-98376109D01*
X136448571Y-97876109D02*
X136115238Y-98376109D01*
X136662857Y-98376109D02*
X136758095Y-98376109D01*
X136758095Y-98376109D02*
X136805714Y-98352300D01*
X136805714Y-98352300D02*
X136829523Y-98328490D01*
X136829523Y-98328490D02*
X136877142Y-98257061D01*
X136877142Y-98257061D02*
X136900952Y-98161823D01*
X136900952Y-98161823D02*
X136900952Y-97971347D01*
X136900952Y-97971347D02*
X136877142Y-97923728D01*
X136877142Y-97923728D02*
X136853333Y-97899919D01*
X136853333Y-97899919D02*
X136805714Y-97876109D01*
X136805714Y-97876109D02*
X136710476Y-97876109D01*
X136710476Y-97876109D02*
X136662857Y-97899919D01*
X136662857Y-97899919D02*
X136639047Y-97923728D01*
X136639047Y-97923728D02*
X136615238Y-97971347D01*
X136615238Y-97971347D02*
X136615238Y-98090395D01*
X136615238Y-98090395D02*
X136639047Y-98138014D01*
X136639047Y-98138014D02*
X136662857Y-98161823D01*
X136662857Y-98161823D02*
X136710476Y-98185633D01*
X136710476Y-98185633D02*
X136805714Y-98185633D01*
X136805714Y-98185633D02*
X136853333Y-98161823D01*
X136853333Y-98161823D02*
X136877142Y-98138014D01*
X136877142Y-98138014D02*
X136900952Y-98090395D01*
%TO.C,X5*%
X131400000Y-95800000D02*
X132900000Y-95800000D01*
X132900000Y-97300000D01*
X131400000Y-97300000D01*
X131400000Y-95800000D01*
D13*
X131305000Y-97450000D02*
G75*
G02*
X131195000Y-97450000I-55000J0D01*
G01*
X131195000Y-97450000D02*
G75*
G02*
X131305000Y-97450000I55000J0D01*
G01*
%TO.C,X2*%
D10*
X126700000Y-100500000D02*
X128200000Y-100500000D01*
X128200000Y-102000000D01*
X126700000Y-102000000D01*
X126700000Y-100500000D01*
D13*
X126605000Y-102150000D02*
G75*
G02*
X126495000Y-102150000I-55000J0D01*
G01*
X126495000Y-102150000D02*
G75*
G02*
X126605000Y-102150000I55000J0D01*
G01*
%TO.C,X14*%
D10*
X140800000Y-100500000D02*
X142300000Y-100500000D01*
X142300000Y-102000000D01*
X140800000Y-102000000D01*
X140800000Y-100500000D01*
D13*
X140705000Y-102150000D02*
G75*
G02*
X140595000Y-102150000I-55000J0D01*
G01*
X140595000Y-102150000D02*
G75*
G02*
X140705000Y-102150000I55000J0D01*
G01*
%TO.C,J2*%
D14*
X129410000Y-94360000D02*
X129410000Y-93430000D01*
X130340000Y-94360000D02*
X129410000Y-94360000D01*
X138490000Y-91660000D02*
X130530000Y-91660000D01*
X139610000Y-93430000D02*
X139610000Y-94360000D01*
X139610000Y-94360000D02*
X138680000Y-94360000D01*
D15*
X138360000Y-95210000D02*
G75*
G02*
X138160000Y-95210000I-100000J0D01*
G01*
X138160000Y-95210000D02*
G75*
G02*
X138360000Y-95210000I100000J0D01*
G01*
%TO.C,X6*%
D10*
X131400000Y-100500000D02*
X132900000Y-100500000D01*
X132900000Y-102000000D01*
X131400000Y-102000000D01*
X131400000Y-100500000D01*
D13*
X131305000Y-102150000D02*
G75*
G02*
X131195000Y-102150000I-55000J0D01*
G01*
X131195000Y-102150000D02*
G75*
G02*
X131305000Y-102150000I55000J0D01*
G01*
%TO.C,X1*%
D10*
X126700000Y-95800000D02*
X128200000Y-95800000D01*
X128200000Y-97300000D01*
X126700000Y-97300000D01*
X126700000Y-95800000D01*
D13*
X126605000Y-97450000D02*
G75*
G02*
X126495000Y-97450000I-55000J0D01*
G01*
X126495000Y-97450000D02*
G75*
G02*
X126605000Y-97450000I55000J0D01*
G01*
%TO.C,X3*%
D10*
X126700000Y-105200000D02*
X128200000Y-105200000D01*
X128200000Y-106700000D01*
X126700000Y-106700000D01*
X126700000Y-105200000D01*
D13*
X126605000Y-106850000D02*
G75*
G02*
X126495000Y-106850000I-55000J0D01*
G01*
X126495000Y-106850000D02*
G75*
G02*
X126605000Y-106850000I55000J0D01*
G01*
%TO.C,X11*%
D10*
X136100000Y-105200000D02*
X137600000Y-105200000D01*
X137600000Y-106700000D01*
X136100000Y-106700000D01*
X136100000Y-105200000D01*
D13*
X136005000Y-106850000D02*
G75*
G02*
X135895000Y-106850000I-55000J0D01*
G01*
X135895000Y-106850000D02*
G75*
G02*
X136005000Y-106850000I55000J0D01*
G01*
%TO.C,X15*%
D10*
X140800000Y-105200000D02*
X142300000Y-105200000D01*
X142300000Y-106700000D01*
X140800000Y-106700000D01*
X140800000Y-105200000D01*
D13*
X140705000Y-106850000D02*
G75*
G02*
X140595000Y-106850000I-55000J0D01*
G01*
X140595000Y-106850000D02*
G75*
G02*
X140705000Y-106850000I55000J0D01*
G01*
%TO.C,X16*%
D10*
X140800000Y-109900000D02*
X142300000Y-109900000D01*
X142300000Y-111400000D01*
X140800000Y-111400000D01*
X140800000Y-109900000D01*
D13*
X140705000Y-111550000D02*
G75*
G02*
X140595000Y-111550000I-55000J0D01*
G01*
X140595000Y-111550000D02*
G75*
G02*
X140705000Y-111550000I55000J0D01*
G01*
%TO.C,X10*%
D10*
X136100000Y-100500000D02*
X137600000Y-100500000D01*
X137600000Y-102000000D01*
X136100000Y-102000000D01*
X136100000Y-100500000D01*
D13*
X136005000Y-102150000D02*
G75*
G02*
X135895000Y-102150000I-55000J0D01*
G01*
X135895000Y-102150000D02*
G75*
G02*
X136005000Y-102150000I55000J0D01*
G01*
%TO.C,X13*%
D10*
X140800000Y-95800000D02*
X142300000Y-95800000D01*
X142300000Y-97300000D01*
X140800000Y-97300000D01*
X140800000Y-95800000D01*
D13*
X140705000Y-97450000D02*
G75*
G02*
X140595000Y-97450000I-55000J0D01*
G01*
X140595000Y-97450000D02*
G75*
G02*
X140705000Y-97450000I55000J0D01*
G01*
%TO.C,X4*%
D10*
X126700000Y-109900000D02*
X128200000Y-109900000D01*
X128200000Y-111400000D01*
X126700000Y-111400000D01*
X126700000Y-109900000D01*
D13*
X126605000Y-111550000D02*
G75*
G02*
X126495000Y-111550000I-55000J0D01*
G01*
X126495000Y-111550000D02*
G75*
G02*
X126605000Y-111550000I55000J0D01*
G01*
%TO.C,X8*%
D10*
X131400000Y-109900000D02*
X132900000Y-109900000D01*
X132900000Y-111400000D01*
X131400000Y-111400000D01*
X131400000Y-109900000D01*
D13*
X131305000Y-111550000D02*
G75*
G02*
X131195000Y-111550000I-55000J0D01*
G01*
X131195000Y-111550000D02*
G75*
G02*
X131305000Y-111550000I55000J0D01*
G01*
%TO.C,X7*%
D10*
X131400000Y-105200000D02*
X132900000Y-105200000D01*
X132900000Y-106700000D01*
X131400000Y-106700000D01*
X131400000Y-105200000D01*
D13*
X131305000Y-106850000D02*
G75*
G02*
X131195000Y-106850000I-55000J0D01*
G01*
X131195000Y-106850000D02*
G75*
G02*
X131305000Y-106850000I55000J0D01*
G01*
%TO.C,X12*%
D10*
X136100000Y-109900000D02*
X137600000Y-109900000D01*
X137600000Y-111400000D01*
X136100000Y-111400000D01*
X136100000Y-109900000D01*
D13*
X136005000Y-111550000D02*
G75*
G02*
X135895000Y-111550000I-55000J0D01*
G01*
X135895000Y-111550000D02*
G75*
G02*
X136005000Y-111550000I55000J0D01*
G01*
%TO.C,X9*%
D10*
X136100000Y-95800000D02*
X137600000Y-95800000D01*
X137600000Y-97300000D01*
X136100000Y-97300000D01*
X136100000Y-95800000D01*
D13*
X136005000Y-97450000D02*
G75*
G02*
X135895000Y-97450000I-55000J0D01*
G01*
X135895000Y-97450000D02*
G75*
G02*
X136005000Y-97450000I55000J0D01*
G01*
%TD*%
M02*
