%TF.GenerationSoftware,KiCad,Pcbnew,10.0.4-10.0.4~ubuntu24.04.1*%
%TF.CreationDate,2026-06-30T15:28:47+09:00*%
%TF.ProjectId,4x4,3478342e-6b69-4636-9164-5f7063625858,rev?*%
%TF.SameCoordinates,Original*%
%TF.FileFunction,Soldermask,Top*%
%TF.FilePolarity,Negative*%
%FSLAX46Y46*%
G04 Gerber Fmt 4.6, Leading zero omitted, Abs format (unit mm)*
G04 Created by KiCad (PCBNEW 10.0.4-10.0.4~ubuntu24.04.1) date 2026-06-30 15:28:47*
%MOMM*%
%LPD*%
G01*
G04 APERTURE LIST*
G04 APERTURE END LIST*
G36*
X126217264Y-112406295D02*
G01*
X126353098Y-112462559D01*
X126475345Y-112544242D01*
X126579308Y-112648205D01*
X126660991Y-112770452D01*
X126717255Y-112906286D01*
X126745939Y-113050487D01*
X126745939Y-113197513D01*
X126717255Y-113341714D01*
X126660991Y-113477548D01*
X126579308Y-113599795D01*
X126475345Y-113703758D01*
X126353098Y-113785441D01*
X126217264Y-113841705D01*
X126073063Y-113870389D01*
X125926037Y-113870389D01*
X125781836Y-113841705D01*
X125646002Y-113785441D01*
X125523755Y-113703758D01*
X125419792Y-113599795D01*
X125338109Y-113477548D01*
X125281845Y-113341714D01*
X125253161Y-113197513D01*
X125253161Y-113050487D01*
X125281845Y-112906286D01*
X125338109Y-112770452D01*
X125419792Y-112648205D01*
X125523755Y-112544242D01*
X125646002Y-112462559D01*
X125781836Y-112406295D01*
X125926037Y-112377611D01*
X126073063Y-112377611D01*
X126217264Y-112406295D01*
G37*
G36*
X129617264Y-112406295D02*
G01*
X129753098Y-112462559D01*
X129875345Y-112544242D01*
X129979308Y-112648205D01*
X130060991Y-112770452D01*
X130117255Y-112906286D01*
X130145939Y-113050487D01*
X130145939Y-113197513D01*
X130117255Y-113341714D01*
X130060991Y-113477548D01*
X129979308Y-113599795D01*
X129875345Y-113703758D01*
X129753098Y-113785441D01*
X129617264Y-113841705D01*
X129473063Y-113870389D01*
X129326037Y-113870389D01*
X129181836Y-113841705D01*
X129046002Y-113785441D01*
X128923755Y-113703758D01*
X128819792Y-113599795D01*
X128738109Y-113477548D01*
X128681845Y-113341714D01*
X128653161Y-113197513D01*
X128653161Y-113050487D01*
X128681845Y-112906286D01*
X128738109Y-112770452D01*
X128819792Y-112648205D01*
X128923755Y-112544242D01*
X129046002Y-112462559D01*
X129181836Y-112406295D01*
X129326037Y-112377611D01*
X129473063Y-112377611D01*
X129617264Y-112406295D01*
G37*
G36*
X133017264Y-112406295D02*
G01*
X133153098Y-112462559D01*
X133275345Y-112544242D01*
X133379308Y-112648205D01*
X133460991Y-112770452D01*
X133517255Y-112906286D01*
X133545939Y-113050487D01*
X133545939Y-113197513D01*
X133517255Y-113341714D01*
X133460991Y-113477548D01*
X133379308Y-113599795D01*
X133275345Y-113703758D01*
X133153098Y-113785441D01*
X133017264Y-113841705D01*
X132873063Y-113870389D01*
X132726037Y-113870389D01*
X132581836Y-113841705D01*
X132446002Y-113785441D01*
X132323755Y-113703758D01*
X132219792Y-113599795D01*
X132138109Y-113477548D01*
X132081845Y-113341714D01*
X132053161Y-113197513D01*
X132053161Y-113050487D01*
X132081845Y-112906286D01*
X132138109Y-112770452D01*
X132219792Y-112648205D01*
X132323755Y-112544242D01*
X132446002Y-112462559D01*
X132581836Y-112406295D01*
X132726037Y-112377611D01*
X132873063Y-112377611D01*
X133017264Y-112406295D01*
G37*
G36*
X136417264Y-112406295D02*
G01*
X136553098Y-112462559D01*
X136675345Y-112544242D01*
X136779308Y-112648205D01*
X136860991Y-112770452D01*
X136917255Y-112906286D01*
X136945939Y-113050487D01*
X136945939Y-113197513D01*
X136917255Y-113341714D01*
X136860991Y-113477548D01*
X136779308Y-113599795D01*
X136675345Y-113703758D01*
X136553098Y-113785441D01*
X136417264Y-113841705D01*
X136273063Y-113870389D01*
X136126037Y-113870389D01*
X135981836Y-113841705D01*
X135846002Y-113785441D01*
X135723755Y-113703758D01*
X135619792Y-113599795D01*
X135538109Y-113477548D01*
X135481845Y-113341714D01*
X135453161Y-113197513D01*
X135453161Y-113050487D01*
X135481845Y-112906286D01*
X135538109Y-112770452D01*
X135619792Y-112648205D01*
X135723755Y-112544242D01*
X135846002Y-112462559D01*
X135981836Y-112406295D01*
X136126037Y-112377611D01*
X136273063Y-112377611D01*
X136417264Y-112406295D01*
G37*
G36*
X139817264Y-112406295D02*
G01*
X139953098Y-112462559D01*
X140075345Y-112544242D01*
X140179308Y-112648205D01*
X140260991Y-112770452D01*
X140317255Y-112906286D01*
X140345939Y-113050487D01*
X140345939Y-113197513D01*
X140317255Y-113341714D01*
X140260991Y-113477548D01*
X140179308Y-113599795D01*
X140075345Y-113703758D01*
X139953098Y-113785441D01*
X139817264Y-113841705D01*
X139673063Y-113870389D01*
X139526037Y-113870389D01*
X139381836Y-113841705D01*
X139246002Y-113785441D01*
X139123755Y-113703758D01*
X139019792Y-113599795D01*
X138938109Y-113477548D01*
X138881845Y-113341714D01*
X138853161Y-113197513D01*
X138853161Y-113050487D01*
X138881845Y-112906286D01*
X138938109Y-112770452D01*
X139019792Y-112648205D01*
X139123755Y-112544242D01*
X139246002Y-112462559D01*
X139381836Y-112406295D01*
X139526037Y-112377611D01*
X139673063Y-112377611D01*
X139817264Y-112406295D01*
G37*
G36*
X143217264Y-112406295D02*
G01*
X143353098Y-112462559D01*
X143475345Y-112544242D01*
X143579308Y-112648205D01*
X143660991Y-112770452D01*
X143717255Y-112906286D01*
X143745939Y-113050487D01*
X143745939Y-113197513D01*
X143717255Y-113341714D01*
X143660991Y-113477548D01*
X143579308Y-113599795D01*
X143475345Y-113703758D01*
X143353098Y-113785441D01*
X143217264Y-113841705D01*
X143073063Y-113870389D01*
X142926037Y-113870389D01*
X142781836Y-113841705D01*
X142646002Y-113785441D01*
X142523755Y-113703758D01*
X142419792Y-113599795D01*
X142338109Y-113477548D01*
X142281845Y-113341714D01*
X142253161Y-113197513D01*
X142253161Y-113050487D01*
X142281845Y-112906286D01*
X142338109Y-112770452D01*
X142419792Y-112648205D01*
X142523755Y-112544242D01*
X142646002Y-112462559D01*
X142781836Y-112406295D01*
X142926037Y-112377611D01*
X143073063Y-112377611D01*
X143217264Y-112406295D01*
G37*
G36*
X127067654Y-111171522D02*
G01*
X127074142Y-111175858D01*
X127078478Y-111182346D01*
X127080000Y-111190000D01*
X127080000Y-111650000D01*
X127078478Y-111657654D01*
X127074142Y-111664142D01*
X127067654Y-111668478D01*
X127060000Y-111670000D01*
X126840000Y-111670000D01*
X126832346Y-111668478D01*
X126825858Y-111664142D01*
X126821522Y-111657654D01*
X126820000Y-111650000D01*
X126820000Y-111190000D01*
X126821522Y-111182346D01*
X126825858Y-111175858D01*
X126832346Y-111171522D01*
X126840000Y-111170000D01*
X127060000Y-111170000D01*
X127067654Y-111171522D01*
G37*
G36*
X127567654Y-111171522D02*
G01*
X127574142Y-111175858D01*
X127578478Y-111182346D01*
X127580000Y-111190000D01*
X127580000Y-111650000D01*
X127578478Y-111657654D01*
X127574142Y-111664142D01*
X127567654Y-111668478D01*
X127560000Y-111670000D01*
X127340000Y-111670000D01*
X127332346Y-111668478D01*
X127325858Y-111664142D01*
X127321522Y-111657654D01*
X127320000Y-111650000D01*
X127320000Y-111190000D01*
X127321522Y-111182346D01*
X127325858Y-111175858D01*
X127332346Y-111171522D01*
X127340000Y-111170000D01*
X127560000Y-111170000D01*
X127567654Y-111171522D01*
G37*
G36*
X128067654Y-111171522D02*
G01*
X128074142Y-111175858D01*
X128078478Y-111182346D01*
X128080000Y-111190000D01*
X128080000Y-111650000D01*
X128078478Y-111657654D01*
X128074142Y-111664142D01*
X128067654Y-111668478D01*
X128060000Y-111670000D01*
X127840000Y-111670000D01*
X127832346Y-111668478D01*
X127825858Y-111664142D01*
X127821522Y-111657654D01*
X127820000Y-111650000D01*
X127820000Y-111190000D01*
X127821522Y-111182346D01*
X127825858Y-111175858D01*
X127832346Y-111171522D01*
X127840000Y-111170000D01*
X128060000Y-111170000D01*
X128067654Y-111171522D01*
G37*
G36*
X131767654Y-111171522D02*
G01*
X131774142Y-111175858D01*
X131778478Y-111182346D01*
X131780000Y-111190000D01*
X131780000Y-111650000D01*
X131778478Y-111657654D01*
X131774142Y-111664142D01*
X131767654Y-111668478D01*
X131760000Y-111670000D01*
X131540000Y-111670000D01*
X131532346Y-111668478D01*
X131525858Y-111664142D01*
X131521522Y-111657654D01*
X131520000Y-111650000D01*
X131520000Y-111190000D01*
X131521522Y-111182346D01*
X131525858Y-111175858D01*
X131532346Y-111171522D01*
X131540000Y-111170000D01*
X131760000Y-111170000D01*
X131767654Y-111171522D01*
G37*
G36*
X132267654Y-111171522D02*
G01*
X132274142Y-111175858D01*
X132278478Y-111182346D01*
X132280000Y-111190000D01*
X132280000Y-111650000D01*
X132278478Y-111657654D01*
X132274142Y-111664142D01*
X132267654Y-111668478D01*
X132260000Y-111670000D01*
X132040000Y-111670000D01*
X132032346Y-111668478D01*
X132025858Y-111664142D01*
X132021522Y-111657654D01*
X132020000Y-111650000D01*
X132020000Y-111190000D01*
X132021522Y-111182346D01*
X132025858Y-111175858D01*
X132032346Y-111171522D01*
X132040000Y-111170000D01*
X132260000Y-111170000D01*
X132267654Y-111171522D01*
G37*
G36*
X132767654Y-111171522D02*
G01*
X132774142Y-111175858D01*
X132778478Y-111182346D01*
X132780000Y-111190000D01*
X132780000Y-111650000D01*
X132778478Y-111657654D01*
X132774142Y-111664142D01*
X132767654Y-111668478D01*
X132760000Y-111670000D01*
X132540000Y-111670000D01*
X132532346Y-111668478D01*
X132525858Y-111664142D01*
X132521522Y-111657654D01*
X132520000Y-111650000D01*
X132520000Y-111190000D01*
X132521522Y-111182346D01*
X132525858Y-111175858D01*
X132532346Y-111171522D01*
X132540000Y-111170000D01*
X132760000Y-111170000D01*
X132767654Y-111171522D01*
G37*
G36*
X136467654Y-111171522D02*
G01*
X136474142Y-111175858D01*
X136478478Y-111182346D01*
X136480000Y-111190000D01*
X136480000Y-111650000D01*
X136478478Y-111657654D01*
X136474142Y-111664142D01*
X136467654Y-111668478D01*
X136460000Y-111670000D01*
X136240000Y-111670000D01*
X136232346Y-111668478D01*
X136225858Y-111664142D01*
X136221522Y-111657654D01*
X136220000Y-111650000D01*
X136220000Y-111190000D01*
X136221522Y-111182346D01*
X136225858Y-111175858D01*
X136232346Y-111171522D01*
X136240000Y-111170000D01*
X136460000Y-111170000D01*
X136467654Y-111171522D01*
G37*
G36*
X136967654Y-111171522D02*
G01*
X136974142Y-111175858D01*
X136978478Y-111182346D01*
X136980000Y-111190000D01*
X136980000Y-111650000D01*
X136978478Y-111657654D01*
X136974142Y-111664142D01*
X136967654Y-111668478D01*
X136960000Y-111670000D01*
X136740000Y-111670000D01*
X136732346Y-111668478D01*
X136725858Y-111664142D01*
X136721522Y-111657654D01*
X136720000Y-111650000D01*
X136720000Y-111190000D01*
X136721522Y-111182346D01*
X136725858Y-111175858D01*
X136732346Y-111171522D01*
X136740000Y-111170000D01*
X136960000Y-111170000D01*
X136967654Y-111171522D01*
G37*
G36*
X137467654Y-111171522D02*
G01*
X137474142Y-111175858D01*
X137478478Y-111182346D01*
X137480000Y-111190000D01*
X137480000Y-111650000D01*
X137478478Y-111657654D01*
X137474142Y-111664142D01*
X137467654Y-111668478D01*
X137460000Y-111670000D01*
X137240000Y-111670000D01*
X137232346Y-111668478D01*
X137225858Y-111664142D01*
X137221522Y-111657654D01*
X137220000Y-111650000D01*
X137220000Y-111190000D01*
X137221522Y-111182346D01*
X137225858Y-111175858D01*
X137232346Y-111171522D01*
X137240000Y-111170000D01*
X137460000Y-111170000D01*
X137467654Y-111171522D01*
G37*
G36*
X141167654Y-111171522D02*
G01*
X141174142Y-111175858D01*
X141178478Y-111182346D01*
X141180000Y-111190000D01*
X141180000Y-111650000D01*
X141178478Y-111657654D01*
X141174142Y-111664142D01*
X141167654Y-111668478D01*
X141160000Y-111670000D01*
X140940000Y-111670000D01*
X140932346Y-111668478D01*
X140925858Y-111664142D01*
X140921522Y-111657654D01*
X140920000Y-111650000D01*
X140920000Y-111190000D01*
X140921522Y-111182346D01*
X140925858Y-111175858D01*
X140932346Y-111171522D01*
X140940000Y-111170000D01*
X141160000Y-111170000D01*
X141167654Y-111171522D01*
G37*
G36*
X141667654Y-111171522D02*
G01*
X141674142Y-111175858D01*
X141678478Y-111182346D01*
X141680000Y-111190000D01*
X141680000Y-111650000D01*
X141678478Y-111657654D01*
X141674142Y-111664142D01*
X141667654Y-111668478D01*
X141660000Y-111670000D01*
X141440000Y-111670000D01*
X141432346Y-111668478D01*
X141425858Y-111664142D01*
X141421522Y-111657654D01*
X141420000Y-111650000D01*
X141420000Y-111190000D01*
X141421522Y-111182346D01*
X141425858Y-111175858D01*
X141432346Y-111171522D01*
X141440000Y-111170000D01*
X141660000Y-111170000D01*
X141667654Y-111171522D01*
G37*
G36*
X142167654Y-111171522D02*
G01*
X142174142Y-111175858D01*
X142178478Y-111182346D01*
X142180000Y-111190000D01*
X142180000Y-111650000D01*
X142178478Y-111657654D01*
X142174142Y-111664142D01*
X142167654Y-111668478D01*
X142160000Y-111670000D01*
X141940000Y-111670000D01*
X141932346Y-111668478D01*
X141925858Y-111664142D01*
X141921522Y-111657654D01*
X141920000Y-111650000D01*
X141920000Y-111190000D01*
X141921522Y-111182346D01*
X141925858Y-111175858D01*
X141932346Y-111171522D01*
X141940000Y-111170000D01*
X142160000Y-111170000D01*
X142167654Y-111171522D01*
G37*
G36*
X127957654Y-110281522D02*
G01*
X127964142Y-110285858D01*
X127968478Y-110292346D01*
X127970000Y-110300000D01*
X127970000Y-111000000D01*
X127968478Y-111007654D01*
X127964142Y-111014142D01*
X127957654Y-111018478D01*
X127950000Y-111020000D01*
X126950000Y-111020000D01*
X126942346Y-111018478D01*
X126935858Y-111014142D01*
X126931522Y-111007654D01*
X126930000Y-111000000D01*
X126930000Y-110300000D01*
X126931522Y-110292346D01*
X126935858Y-110285858D01*
X126942346Y-110281522D01*
X126950000Y-110280000D01*
X127950000Y-110280000D01*
X127957654Y-110281522D01*
G37*
G36*
X132657654Y-110281522D02*
G01*
X132664142Y-110285858D01*
X132668478Y-110292346D01*
X132670000Y-110300000D01*
X132670000Y-111000000D01*
X132668478Y-111007654D01*
X132664142Y-111014142D01*
X132657654Y-111018478D01*
X132650000Y-111020000D01*
X131650000Y-111020000D01*
X131642346Y-111018478D01*
X131635858Y-111014142D01*
X131631522Y-111007654D01*
X131630000Y-111000000D01*
X131630000Y-110300000D01*
X131631522Y-110292346D01*
X131635858Y-110285858D01*
X131642346Y-110281522D01*
X131650000Y-110280000D01*
X132650000Y-110280000D01*
X132657654Y-110281522D01*
G37*
G36*
X137357654Y-110281522D02*
G01*
X137364142Y-110285858D01*
X137368478Y-110292346D01*
X137370000Y-110300000D01*
X137370000Y-111000000D01*
X137368478Y-111007654D01*
X137364142Y-111014142D01*
X137357654Y-111018478D01*
X137350000Y-111020000D01*
X136350000Y-111020000D01*
X136342346Y-111018478D01*
X136335858Y-111014142D01*
X136331522Y-111007654D01*
X136330000Y-111000000D01*
X136330000Y-110300000D01*
X136331522Y-110292346D01*
X136335858Y-110285858D01*
X136342346Y-110281522D01*
X136350000Y-110280000D01*
X137350000Y-110280000D01*
X137357654Y-110281522D01*
G37*
G36*
X142057654Y-110281522D02*
G01*
X142064142Y-110285858D01*
X142068478Y-110292346D01*
X142070000Y-110300000D01*
X142070000Y-111000000D01*
X142068478Y-111007654D01*
X142064142Y-111014142D01*
X142057654Y-111018478D01*
X142050000Y-111020000D01*
X141050000Y-111020000D01*
X141042346Y-111018478D01*
X141035858Y-111014142D01*
X141031522Y-111007654D01*
X141030000Y-111000000D01*
X141030000Y-110300000D01*
X141031522Y-110292346D01*
X141035858Y-110285858D01*
X141042346Y-110281522D01*
X141050000Y-110280000D01*
X142050000Y-110280000D01*
X142057654Y-110281522D01*
G37*
G36*
X127067654Y-109631522D02*
G01*
X127074142Y-109635858D01*
X127078478Y-109642346D01*
X127080000Y-109650000D01*
X127080000Y-110110000D01*
X127078478Y-110117654D01*
X127074142Y-110124142D01*
X127067654Y-110128478D01*
X127060000Y-110130000D01*
X126840000Y-110130000D01*
X126832346Y-110128478D01*
X126825858Y-110124142D01*
X126821522Y-110117654D01*
X126820000Y-110110000D01*
X126820000Y-109650000D01*
X126821522Y-109642346D01*
X126825858Y-109635858D01*
X126832346Y-109631522D01*
X126840000Y-109630000D01*
X127060000Y-109630000D01*
X127067654Y-109631522D01*
G37*
G36*
X127567654Y-109631522D02*
G01*
X127574142Y-109635858D01*
X127578478Y-109642346D01*
X127580000Y-109650000D01*
X127580000Y-110110000D01*
X127578478Y-110117654D01*
X127574142Y-110124142D01*
X127567654Y-110128478D01*
X127560000Y-110130000D01*
X127340000Y-110130000D01*
X127332346Y-110128478D01*
X127325858Y-110124142D01*
X127321522Y-110117654D01*
X127320000Y-110110000D01*
X127320000Y-109650000D01*
X127321522Y-109642346D01*
X127325858Y-109635858D01*
X127332346Y-109631522D01*
X127340000Y-109630000D01*
X127560000Y-109630000D01*
X127567654Y-109631522D01*
G37*
G36*
X128067654Y-109631522D02*
G01*
X128074142Y-109635858D01*
X128078478Y-109642346D01*
X128080000Y-109650000D01*
X128080000Y-110110000D01*
X128078478Y-110117654D01*
X128074142Y-110124142D01*
X128067654Y-110128478D01*
X128060000Y-110130000D01*
X127840000Y-110130000D01*
X127832346Y-110128478D01*
X127825858Y-110124142D01*
X127821522Y-110117654D01*
X127820000Y-110110000D01*
X127820000Y-109650000D01*
X127821522Y-109642346D01*
X127825858Y-109635858D01*
X127832346Y-109631522D01*
X127840000Y-109630000D01*
X128060000Y-109630000D01*
X128067654Y-109631522D01*
G37*
G36*
X131767654Y-109631522D02*
G01*
X131774142Y-109635858D01*
X131778478Y-109642346D01*
X131780000Y-109650000D01*
X131780000Y-110110000D01*
X131778478Y-110117654D01*
X131774142Y-110124142D01*
X131767654Y-110128478D01*
X131760000Y-110130000D01*
X131540000Y-110130000D01*
X131532346Y-110128478D01*
X131525858Y-110124142D01*
X131521522Y-110117654D01*
X131520000Y-110110000D01*
X131520000Y-109650000D01*
X131521522Y-109642346D01*
X131525858Y-109635858D01*
X131532346Y-109631522D01*
X131540000Y-109630000D01*
X131760000Y-109630000D01*
X131767654Y-109631522D01*
G37*
G36*
X132267654Y-109631522D02*
G01*
X132274142Y-109635858D01*
X132278478Y-109642346D01*
X132280000Y-109650000D01*
X132280000Y-110110000D01*
X132278478Y-110117654D01*
X132274142Y-110124142D01*
X132267654Y-110128478D01*
X132260000Y-110130000D01*
X132040000Y-110130000D01*
X132032346Y-110128478D01*
X132025858Y-110124142D01*
X132021522Y-110117654D01*
X132020000Y-110110000D01*
X132020000Y-109650000D01*
X132021522Y-109642346D01*
X132025858Y-109635858D01*
X132032346Y-109631522D01*
X132040000Y-109630000D01*
X132260000Y-109630000D01*
X132267654Y-109631522D01*
G37*
G36*
X132767654Y-109631522D02*
G01*
X132774142Y-109635858D01*
X132778478Y-109642346D01*
X132780000Y-109650000D01*
X132780000Y-110110000D01*
X132778478Y-110117654D01*
X132774142Y-110124142D01*
X132767654Y-110128478D01*
X132760000Y-110130000D01*
X132540000Y-110130000D01*
X132532346Y-110128478D01*
X132525858Y-110124142D01*
X132521522Y-110117654D01*
X132520000Y-110110000D01*
X132520000Y-109650000D01*
X132521522Y-109642346D01*
X132525858Y-109635858D01*
X132532346Y-109631522D01*
X132540000Y-109630000D01*
X132760000Y-109630000D01*
X132767654Y-109631522D01*
G37*
G36*
X136467654Y-109631522D02*
G01*
X136474142Y-109635858D01*
X136478478Y-109642346D01*
X136480000Y-109650000D01*
X136480000Y-110110000D01*
X136478478Y-110117654D01*
X136474142Y-110124142D01*
X136467654Y-110128478D01*
X136460000Y-110130000D01*
X136240000Y-110130000D01*
X136232346Y-110128478D01*
X136225858Y-110124142D01*
X136221522Y-110117654D01*
X136220000Y-110110000D01*
X136220000Y-109650000D01*
X136221522Y-109642346D01*
X136225858Y-109635858D01*
X136232346Y-109631522D01*
X136240000Y-109630000D01*
X136460000Y-109630000D01*
X136467654Y-109631522D01*
G37*
G36*
X136967654Y-109631522D02*
G01*
X136974142Y-109635858D01*
X136978478Y-109642346D01*
X136980000Y-109650000D01*
X136980000Y-110110000D01*
X136978478Y-110117654D01*
X136974142Y-110124142D01*
X136967654Y-110128478D01*
X136960000Y-110130000D01*
X136740000Y-110130000D01*
X136732346Y-110128478D01*
X136725858Y-110124142D01*
X136721522Y-110117654D01*
X136720000Y-110110000D01*
X136720000Y-109650000D01*
X136721522Y-109642346D01*
X136725858Y-109635858D01*
X136732346Y-109631522D01*
X136740000Y-109630000D01*
X136960000Y-109630000D01*
X136967654Y-109631522D01*
G37*
G36*
X137467654Y-109631522D02*
G01*
X137474142Y-109635858D01*
X137478478Y-109642346D01*
X137480000Y-109650000D01*
X137480000Y-110110000D01*
X137478478Y-110117654D01*
X137474142Y-110124142D01*
X137467654Y-110128478D01*
X137460000Y-110130000D01*
X137240000Y-110130000D01*
X137232346Y-110128478D01*
X137225858Y-110124142D01*
X137221522Y-110117654D01*
X137220000Y-110110000D01*
X137220000Y-109650000D01*
X137221522Y-109642346D01*
X137225858Y-109635858D01*
X137232346Y-109631522D01*
X137240000Y-109630000D01*
X137460000Y-109630000D01*
X137467654Y-109631522D01*
G37*
G36*
X141167654Y-109631522D02*
G01*
X141174142Y-109635858D01*
X141178478Y-109642346D01*
X141180000Y-109650000D01*
X141180000Y-110110000D01*
X141178478Y-110117654D01*
X141174142Y-110124142D01*
X141167654Y-110128478D01*
X141160000Y-110130000D01*
X140940000Y-110130000D01*
X140932346Y-110128478D01*
X140925858Y-110124142D01*
X140921522Y-110117654D01*
X140920000Y-110110000D01*
X140920000Y-109650000D01*
X140921522Y-109642346D01*
X140925858Y-109635858D01*
X140932346Y-109631522D01*
X140940000Y-109630000D01*
X141160000Y-109630000D01*
X141167654Y-109631522D01*
G37*
G36*
X141667654Y-109631522D02*
G01*
X141674142Y-109635858D01*
X141678478Y-109642346D01*
X141680000Y-109650000D01*
X141680000Y-110110000D01*
X141678478Y-110117654D01*
X141674142Y-110124142D01*
X141667654Y-110128478D01*
X141660000Y-110130000D01*
X141440000Y-110130000D01*
X141432346Y-110128478D01*
X141425858Y-110124142D01*
X141421522Y-110117654D01*
X141420000Y-110110000D01*
X141420000Y-109650000D01*
X141421522Y-109642346D01*
X141425858Y-109635858D01*
X141432346Y-109631522D01*
X141440000Y-109630000D01*
X141660000Y-109630000D01*
X141667654Y-109631522D01*
G37*
G36*
X142167654Y-109631522D02*
G01*
X142174142Y-109635858D01*
X142178478Y-109642346D01*
X142180000Y-109650000D01*
X142180000Y-110110000D01*
X142178478Y-110117654D01*
X142174142Y-110124142D01*
X142167654Y-110128478D01*
X142160000Y-110130000D01*
X141940000Y-110130000D01*
X141932346Y-110128478D01*
X141925858Y-110124142D01*
X141921522Y-110117654D01*
X141920000Y-110110000D01*
X141920000Y-109650000D01*
X141921522Y-109642346D01*
X141925858Y-109635858D01*
X141932346Y-109631522D01*
X141940000Y-109630000D01*
X142160000Y-109630000D01*
X142167654Y-109631522D01*
G37*
G36*
X127067654Y-106471522D02*
G01*
X127074142Y-106475858D01*
X127078478Y-106482346D01*
X127080000Y-106490000D01*
X127080000Y-106950000D01*
X127078478Y-106957654D01*
X127074142Y-106964142D01*
X127067654Y-106968478D01*
X127060000Y-106970000D01*
X126840000Y-106970000D01*
X126832346Y-106968478D01*
X126825858Y-106964142D01*
X126821522Y-106957654D01*
X126820000Y-106950000D01*
X126820000Y-106490000D01*
X126821522Y-106482346D01*
X126825858Y-106475858D01*
X126832346Y-106471522D01*
X126840000Y-106470000D01*
X127060000Y-106470000D01*
X127067654Y-106471522D01*
G37*
G36*
X127567654Y-106471522D02*
G01*
X127574142Y-106475858D01*
X127578478Y-106482346D01*
X127580000Y-106490000D01*
X127580000Y-106950000D01*
X127578478Y-106957654D01*
X127574142Y-106964142D01*
X127567654Y-106968478D01*
X127560000Y-106970000D01*
X127340000Y-106970000D01*
X127332346Y-106968478D01*
X127325858Y-106964142D01*
X127321522Y-106957654D01*
X127320000Y-106950000D01*
X127320000Y-106490000D01*
X127321522Y-106482346D01*
X127325858Y-106475858D01*
X127332346Y-106471522D01*
X127340000Y-106470000D01*
X127560000Y-106470000D01*
X127567654Y-106471522D01*
G37*
G36*
X128067654Y-106471522D02*
G01*
X128074142Y-106475858D01*
X128078478Y-106482346D01*
X128080000Y-106490000D01*
X128080000Y-106950000D01*
X128078478Y-106957654D01*
X128074142Y-106964142D01*
X128067654Y-106968478D01*
X128060000Y-106970000D01*
X127840000Y-106970000D01*
X127832346Y-106968478D01*
X127825858Y-106964142D01*
X127821522Y-106957654D01*
X127820000Y-106950000D01*
X127820000Y-106490000D01*
X127821522Y-106482346D01*
X127825858Y-106475858D01*
X127832346Y-106471522D01*
X127840000Y-106470000D01*
X128060000Y-106470000D01*
X128067654Y-106471522D01*
G37*
G36*
X131767654Y-106471522D02*
G01*
X131774142Y-106475858D01*
X131778478Y-106482346D01*
X131780000Y-106490000D01*
X131780000Y-106950000D01*
X131778478Y-106957654D01*
X131774142Y-106964142D01*
X131767654Y-106968478D01*
X131760000Y-106970000D01*
X131540000Y-106970000D01*
X131532346Y-106968478D01*
X131525858Y-106964142D01*
X131521522Y-106957654D01*
X131520000Y-106950000D01*
X131520000Y-106490000D01*
X131521522Y-106482346D01*
X131525858Y-106475858D01*
X131532346Y-106471522D01*
X131540000Y-106470000D01*
X131760000Y-106470000D01*
X131767654Y-106471522D01*
G37*
G36*
X132267654Y-106471522D02*
G01*
X132274142Y-106475858D01*
X132278478Y-106482346D01*
X132280000Y-106490000D01*
X132280000Y-106950000D01*
X132278478Y-106957654D01*
X132274142Y-106964142D01*
X132267654Y-106968478D01*
X132260000Y-106970000D01*
X132040000Y-106970000D01*
X132032346Y-106968478D01*
X132025858Y-106964142D01*
X132021522Y-106957654D01*
X132020000Y-106950000D01*
X132020000Y-106490000D01*
X132021522Y-106482346D01*
X132025858Y-106475858D01*
X132032346Y-106471522D01*
X132040000Y-106470000D01*
X132260000Y-106470000D01*
X132267654Y-106471522D01*
G37*
G36*
X132767654Y-106471522D02*
G01*
X132774142Y-106475858D01*
X132778478Y-106482346D01*
X132780000Y-106490000D01*
X132780000Y-106950000D01*
X132778478Y-106957654D01*
X132774142Y-106964142D01*
X132767654Y-106968478D01*
X132760000Y-106970000D01*
X132540000Y-106970000D01*
X132532346Y-106968478D01*
X132525858Y-106964142D01*
X132521522Y-106957654D01*
X132520000Y-106950000D01*
X132520000Y-106490000D01*
X132521522Y-106482346D01*
X132525858Y-106475858D01*
X132532346Y-106471522D01*
X132540000Y-106470000D01*
X132760000Y-106470000D01*
X132767654Y-106471522D01*
G37*
G36*
X136467654Y-106471522D02*
G01*
X136474142Y-106475858D01*
X136478478Y-106482346D01*
X136480000Y-106490000D01*
X136480000Y-106950000D01*
X136478478Y-106957654D01*
X136474142Y-106964142D01*
X136467654Y-106968478D01*
X136460000Y-106970000D01*
X136240000Y-106970000D01*
X136232346Y-106968478D01*
X136225858Y-106964142D01*
X136221522Y-106957654D01*
X136220000Y-106950000D01*
X136220000Y-106490000D01*
X136221522Y-106482346D01*
X136225858Y-106475858D01*
X136232346Y-106471522D01*
X136240000Y-106470000D01*
X136460000Y-106470000D01*
X136467654Y-106471522D01*
G37*
G36*
X136967654Y-106471522D02*
G01*
X136974142Y-106475858D01*
X136978478Y-106482346D01*
X136980000Y-106490000D01*
X136980000Y-106950000D01*
X136978478Y-106957654D01*
X136974142Y-106964142D01*
X136967654Y-106968478D01*
X136960000Y-106970000D01*
X136740000Y-106970000D01*
X136732346Y-106968478D01*
X136725858Y-106964142D01*
X136721522Y-106957654D01*
X136720000Y-106950000D01*
X136720000Y-106490000D01*
X136721522Y-106482346D01*
X136725858Y-106475858D01*
X136732346Y-106471522D01*
X136740000Y-106470000D01*
X136960000Y-106470000D01*
X136967654Y-106471522D01*
G37*
G36*
X137467654Y-106471522D02*
G01*
X137474142Y-106475858D01*
X137478478Y-106482346D01*
X137480000Y-106490000D01*
X137480000Y-106950000D01*
X137478478Y-106957654D01*
X137474142Y-106964142D01*
X137467654Y-106968478D01*
X137460000Y-106970000D01*
X137240000Y-106970000D01*
X137232346Y-106968478D01*
X137225858Y-106964142D01*
X137221522Y-106957654D01*
X137220000Y-106950000D01*
X137220000Y-106490000D01*
X137221522Y-106482346D01*
X137225858Y-106475858D01*
X137232346Y-106471522D01*
X137240000Y-106470000D01*
X137460000Y-106470000D01*
X137467654Y-106471522D01*
G37*
G36*
X141167654Y-106471522D02*
G01*
X141174142Y-106475858D01*
X141178478Y-106482346D01*
X141180000Y-106490000D01*
X141180000Y-106950000D01*
X141178478Y-106957654D01*
X141174142Y-106964142D01*
X141167654Y-106968478D01*
X141160000Y-106970000D01*
X140940000Y-106970000D01*
X140932346Y-106968478D01*
X140925858Y-106964142D01*
X140921522Y-106957654D01*
X140920000Y-106950000D01*
X140920000Y-106490000D01*
X140921522Y-106482346D01*
X140925858Y-106475858D01*
X140932346Y-106471522D01*
X140940000Y-106470000D01*
X141160000Y-106470000D01*
X141167654Y-106471522D01*
G37*
G36*
X141667654Y-106471522D02*
G01*
X141674142Y-106475858D01*
X141678478Y-106482346D01*
X141680000Y-106490000D01*
X141680000Y-106950000D01*
X141678478Y-106957654D01*
X141674142Y-106964142D01*
X141667654Y-106968478D01*
X141660000Y-106970000D01*
X141440000Y-106970000D01*
X141432346Y-106968478D01*
X141425858Y-106964142D01*
X141421522Y-106957654D01*
X141420000Y-106950000D01*
X141420000Y-106490000D01*
X141421522Y-106482346D01*
X141425858Y-106475858D01*
X141432346Y-106471522D01*
X141440000Y-106470000D01*
X141660000Y-106470000D01*
X141667654Y-106471522D01*
G37*
G36*
X142167654Y-106471522D02*
G01*
X142174142Y-106475858D01*
X142178478Y-106482346D01*
X142180000Y-106490000D01*
X142180000Y-106950000D01*
X142178478Y-106957654D01*
X142174142Y-106964142D01*
X142167654Y-106968478D01*
X142160000Y-106970000D01*
X141940000Y-106970000D01*
X141932346Y-106968478D01*
X141925858Y-106964142D01*
X141921522Y-106957654D01*
X141920000Y-106950000D01*
X141920000Y-106490000D01*
X141921522Y-106482346D01*
X141925858Y-106475858D01*
X141932346Y-106471522D01*
X141940000Y-106470000D01*
X142160000Y-106470000D01*
X142167654Y-106471522D01*
G37*
G36*
X127957654Y-105581522D02*
G01*
X127964142Y-105585858D01*
X127968478Y-105592346D01*
X127970000Y-105600000D01*
X127970000Y-106300000D01*
X127968478Y-106307654D01*
X127964142Y-106314142D01*
X127957654Y-106318478D01*
X127950000Y-106320000D01*
X126950000Y-106320000D01*
X126942346Y-106318478D01*
X126935858Y-106314142D01*
X126931522Y-106307654D01*
X126930000Y-106300000D01*
X126930000Y-105600000D01*
X126931522Y-105592346D01*
X126935858Y-105585858D01*
X126942346Y-105581522D01*
X126950000Y-105580000D01*
X127950000Y-105580000D01*
X127957654Y-105581522D01*
G37*
G36*
X132657654Y-105581522D02*
G01*
X132664142Y-105585858D01*
X132668478Y-105592346D01*
X132670000Y-105600000D01*
X132670000Y-106300000D01*
X132668478Y-106307654D01*
X132664142Y-106314142D01*
X132657654Y-106318478D01*
X132650000Y-106320000D01*
X131650000Y-106320000D01*
X131642346Y-106318478D01*
X131635858Y-106314142D01*
X131631522Y-106307654D01*
X131630000Y-106300000D01*
X131630000Y-105600000D01*
X131631522Y-105592346D01*
X131635858Y-105585858D01*
X131642346Y-105581522D01*
X131650000Y-105580000D01*
X132650000Y-105580000D01*
X132657654Y-105581522D01*
G37*
G36*
X137357654Y-105581522D02*
G01*
X137364142Y-105585858D01*
X137368478Y-105592346D01*
X137370000Y-105600000D01*
X137370000Y-106300000D01*
X137368478Y-106307654D01*
X137364142Y-106314142D01*
X137357654Y-106318478D01*
X137350000Y-106320000D01*
X136350000Y-106320000D01*
X136342346Y-106318478D01*
X136335858Y-106314142D01*
X136331522Y-106307654D01*
X136330000Y-106300000D01*
X136330000Y-105600000D01*
X136331522Y-105592346D01*
X136335858Y-105585858D01*
X136342346Y-105581522D01*
X136350000Y-105580000D01*
X137350000Y-105580000D01*
X137357654Y-105581522D01*
G37*
G36*
X142057654Y-105581522D02*
G01*
X142064142Y-105585858D01*
X142068478Y-105592346D01*
X142070000Y-105600000D01*
X142070000Y-106300000D01*
X142068478Y-106307654D01*
X142064142Y-106314142D01*
X142057654Y-106318478D01*
X142050000Y-106320000D01*
X141050000Y-106320000D01*
X141042346Y-106318478D01*
X141035858Y-106314142D01*
X141031522Y-106307654D01*
X141030000Y-106300000D01*
X141030000Y-105600000D01*
X141031522Y-105592346D01*
X141035858Y-105585858D01*
X141042346Y-105581522D01*
X141050000Y-105580000D01*
X142050000Y-105580000D01*
X142057654Y-105581522D01*
G37*
G36*
X127067654Y-104931522D02*
G01*
X127074142Y-104935858D01*
X127078478Y-104942346D01*
X127080000Y-104950000D01*
X127080000Y-105410000D01*
X127078478Y-105417654D01*
X127074142Y-105424142D01*
X127067654Y-105428478D01*
X127060000Y-105430000D01*
X126840000Y-105430000D01*
X126832346Y-105428478D01*
X126825858Y-105424142D01*
X126821522Y-105417654D01*
X126820000Y-105410000D01*
X126820000Y-104950000D01*
X126821522Y-104942346D01*
X126825858Y-104935858D01*
X126832346Y-104931522D01*
X126840000Y-104930000D01*
X127060000Y-104930000D01*
X127067654Y-104931522D01*
G37*
G36*
X127567654Y-104931522D02*
G01*
X127574142Y-104935858D01*
X127578478Y-104942346D01*
X127580000Y-104950000D01*
X127580000Y-105410000D01*
X127578478Y-105417654D01*
X127574142Y-105424142D01*
X127567654Y-105428478D01*
X127560000Y-105430000D01*
X127340000Y-105430000D01*
X127332346Y-105428478D01*
X127325858Y-105424142D01*
X127321522Y-105417654D01*
X127320000Y-105410000D01*
X127320000Y-104950000D01*
X127321522Y-104942346D01*
X127325858Y-104935858D01*
X127332346Y-104931522D01*
X127340000Y-104930000D01*
X127560000Y-104930000D01*
X127567654Y-104931522D01*
G37*
G36*
X128067654Y-104931522D02*
G01*
X128074142Y-104935858D01*
X128078478Y-104942346D01*
X128080000Y-104950000D01*
X128080000Y-105410000D01*
X128078478Y-105417654D01*
X128074142Y-105424142D01*
X128067654Y-105428478D01*
X128060000Y-105430000D01*
X127840000Y-105430000D01*
X127832346Y-105428478D01*
X127825858Y-105424142D01*
X127821522Y-105417654D01*
X127820000Y-105410000D01*
X127820000Y-104950000D01*
X127821522Y-104942346D01*
X127825858Y-104935858D01*
X127832346Y-104931522D01*
X127840000Y-104930000D01*
X128060000Y-104930000D01*
X128067654Y-104931522D01*
G37*
G36*
X131767654Y-104931522D02*
G01*
X131774142Y-104935858D01*
X131778478Y-104942346D01*
X131780000Y-104950000D01*
X131780000Y-105410000D01*
X131778478Y-105417654D01*
X131774142Y-105424142D01*
X131767654Y-105428478D01*
X131760000Y-105430000D01*
X131540000Y-105430000D01*
X131532346Y-105428478D01*
X131525858Y-105424142D01*
X131521522Y-105417654D01*
X131520000Y-105410000D01*
X131520000Y-104950000D01*
X131521522Y-104942346D01*
X131525858Y-104935858D01*
X131532346Y-104931522D01*
X131540000Y-104930000D01*
X131760000Y-104930000D01*
X131767654Y-104931522D01*
G37*
G36*
X132267654Y-104931522D02*
G01*
X132274142Y-104935858D01*
X132278478Y-104942346D01*
X132280000Y-104950000D01*
X132280000Y-105410000D01*
X132278478Y-105417654D01*
X132274142Y-105424142D01*
X132267654Y-105428478D01*
X132260000Y-105430000D01*
X132040000Y-105430000D01*
X132032346Y-105428478D01*
X132025858Y-105424142D01*
X132021522Y-105417654D01*
X132020000Y-105410000D01*
X132020000Y-104950000D01*
X132021522Y-104942346D01*
X132025858Y-104935858D01*
X132032346Y-104931522D01*
X132040000Y-104930000D01*
X132260000Y-104930000D01*
X132267654Y-104931522D01*
G37*
G36*
X132767654Y-104931522D02*
G01*
X132774142Y-104935858D01*
X132778478Y-104942346D01*
X132780000Y-104950000D01*
X132780000Y-105410000D01*
X132778478Y-105417654D01*
X132774142Y-105424142D01*
X132767654Y-105428478D01*
X132760000Y-105430000D01*
X132540000Y-105430000D01*
X132532346Y-105428478D01*
X132525858Y-105424142D01*
X132521522Y-105417654D01*
X132520000Y-105410000D01*
X132520000Y-104950000D01*
X132521522Y-104942346D01*
X132525858Y-104935858D01*
X132532346Y-104931522D01*
X132540000Y-104930000D01*
X132760000Y-104930000D01*
X132767654Y-104931522D01*
G37*
G36*
X136467654Y-104931522D02*
G01*
X136474142Y-104935858D01*
X136478478Y-104942346D01*
X136480000Y-104950000D01*
X136480000Y-105410000D01*
X136478478Y-105417654D01*
X136474142Y-105424142D01*
X136467654Y-105428478D01*
X136460000Y-105430000D01*
X136240000Y-105430000D01*
X136232346Y-105428478D01*
X136225858Y-105424142D01*
X136221522Y-105417654D01*
X136220000Y-105410000D01*
X136220000Y-104950000D01*
X136221522Y-104942346D01*
X136225858Y-104935858D01*
X136232346Y-104931522D01*
X136240000Y-104930000D01*
X136460000Y-104930000D01*
X136467654Y-104931522D01*
G37*
G36*
X136967654Y-104931522D02*
G01*
X136974142Y-104935858D01*
X136978478Y-104942346D01*
X136980000Y-104950000D01*
X136980000Y-105410000D01*
X136978478Y-105417654D01*
X136974142Y-105424142D01*
X136967654Y-105428478D01*
X136960000Y-105430000D01*
X136740000Y-105430000D01*
X136732346Y-105428478D01*
X136725858Y-105424142D01*
X136721522Y-105417654D01*
X136720000Y-105410000D01*
X136720000Y-104950000D01*
X136721522Y-104942346D01*
X136725858Y-104935858D01*
X136732346Y-104931522D01*
X136740000Y-104930000D01*
X136960000Y-104930000D01*
X136967654Y-104931522D01*
G37*
G36*
X137467654Y-104931522D02*
G01*
X137474142Y-104935858D01*
X137478478Y-104942346D01*
X137480000Y-104950000D01*
X137480000Y-105410000D01*
X137478478Y-105417654D01*
X137474142Y-105424142D01*
X137467654Y-105428478D01*
X137460000Y-105430000D01*
X137240000Y-105430000D01*
X137232346Y-105428478D01*
X137225858Y-105424142D01*
X137221522Y-105417654D01*
X137220000Y-105410000D01*
X137220000Y-104950000D01*
X137221522Y-104942346D01*
X137225858Y-104935858D01*
X137232346Y-104931522D01*
X137240000Y-104930000D01*
X137460000Y-104930000D01*
X137467654Y-104931522D01*
G37*
G36*
X141167654Y-104931522D02*
G01*
X141174142Y-104935858D01*
X141178478Y-104942346D01*
X141180000Y-104950000D01*
X141180000Y-105410000D01*
X141178478Y-105417654D01*
X141174142Y-105424142D01*
X141167654Y-105428478D01*
X141160000Y-105430000D01*
X140940000Y-105430000D01*
X140932346Y-105428478D01*
X140925858Y-105424142D01*
X140921522Y-105417654D01*
X140920000Y-105410000D01*
X140920000Y-104950000D01*
X140921522Y-104942346D01*
X140925858Y-104935858D01*
X140932346Y-104931522D01*
X140940000Y-104930000D01*
X141160000Y-104930000D01*
X141167654Y-104931522D01*
G37*
G36*
X141667654Y-104931522D02*
G01*
X141674142Y-104935858D01*
X141678478Y-104942346D01*
X141680000Y-104950000D01*
X141680000Y-105410000D01*
X141678478Y-105417654D01*
X141674142Y-105424142D01*
X141667654Y-105428478D01*
X141660000Y-105430000D01*
X141440000Y-105430000D01*
X141432346Y-105428478D01*
X141425858Y-105424142D01*
X141421522Y-105417654D01*
X141420000Y-105410000D01*
X141420000Y-104950000D01*
X141421522Y-104942346D01*
X141425858Y-104935858D01*
X141432346Y-104931522D01*
X141440000Y-104930000D01*
X141660000Y-104930000D01*
X141667654Y-104931522D01*
G37*
G36*
X142167654Y-104931522D02*
G01*
X142174142Y-104935858D01*
X142178478Y-104942346D01*
X142180000Y-104950000D01*
X142180000Y-105410000D01*
X142178478Y-105417654D01*
X142174142Y-105424142D01*
X142167654Y-105428478D01*
X142160000Y-105430000D01*
X141940000Y-105430000D01*
X141932346Y-105428478D01*
X141925858Y-105424142D01*
X141921522Y-105417654D01*
X141920000Y-105410000D01*
X141920000Y-104950000D01*
X141921522Y-104942346D01*
X141925858Y-104935858D01*
X141932346Y-104931522D01*
X141940000Y-104930000D01*
X142160000Y-104930000D01*
X142167654Y-104931522D01*
G37*
G36*
X127067654Y-101771522D02*
G01*
X127074142Y-101775858D01*
X127078478Y-101782346D01*
X127080000Y-101790000D01*
X127080000Y-102250000D01*
X127078478Y-102257654D01*
X127074142Y-102264142D01*
X127067654Y-102268478D01*
X127060000Y-102270000D01*
X126840000Y-102270000D01*
X126832346Y-102268478D01*
X126825858Y-102264142D01*
X126821522Y-102257654D01*
X126820000Y-102250000D01*
X126820000Y-101790000D01*
X126821522Y-101782346D01*
X126825858Y-101775858D01*
X126832346Y-101771522D01*
X126840000Y-101770000D01*
X127060000Y-101770000D01*
X127067654Y-101771522D01*
G37*
G36*
X127567654Y-101771522D02*
G01*
X127574142Y-101775858D01*
X127578478Y-101782346D01*
X127580000Y-101790000D01*
X127580000Y-102250000D01*
X127578478Y-102257654D01*
X127574142Y-102264142D01*
X127567654Y-102268478D01*
X127560000Y-102270000D01*
X127340000Y-102270000D01*
X127332346Y-102268478D01*
X127325858Y-102264142D01*
X127321522Y-102257654D01*
X127320000Y-102250000D01*
X127320000Y-101790000D01*
X127321522Y-101782346D01*
X127325858Y-101775858D01*
X127332346Y-101771522D01*
X127340000Y-101770000D01*
X127560000Y-101770000D01*
X127567654Y-101771522D01*
G37*
G36*
X128067654Y-101771522D02*
G01*
X128074142Y-101775858D01*
X128078478Y-101782346D01*
X128080000Y-101790000D01*
X128080000Y-102250000D01*
X128078478Y-102257654D01*
X128074142Y-102264142D01*
X128067654Y-102268478D01*
X128060000Y-102270000D01*
X127840000Y-102270000D01*
X127832346Y-102268478D01*
X127825858Y-102264142D01*
X127821522Y-102257654D01*
X127820000Y-102250000D01*
X127820000Y-101790000D01*
X127821522Y-101782346D01*
X127825858Y-101775858D01*
X127832346Y-101771522D01*
X127840000Y-101770000D01*
X128060000Y-101770000D01*
X128067654Y-101771522D01*
G37*
G36*
X131767654Y-101771522D02*
G01*
X131774142Y-101775858D01*
X131778478Y-101782346D01*
X131780000Y-101790000D01*
X131780000Y-102250000D01*
X131778478Y-102257654D01*
X131774142Y-102264142D01*
X131767654Y-102268478D01*
X131760000Y-102270000D01*
X131540000Y-102270000D01*
X131532346Y-102268478D01*
X131525858Y-102264142D01*
X131521522Y-102257654D01*
X131520000Y-102250000D01*
X131520000Y-101790000D01*
X131521522Y-101782346D01*
X131525858Y-101775858D01*
X131532346Y-101771522D01*
X131540000Y-101770000D01*
X131760000Y-101770000D01*
X131767654Y-101771522D01*
G37*
G36*
X132267654Y-101771522D02*
G01*
X132274142Y-101775858D01*
X132278478Y-101782346D01*
X132280000Y-101790000D01*
X132280000Y-102250000D01*
X132278478Y-102257654D01*
X132274142Y-102264142D01*
X132267654Y-102268478D01*
X132260000Y-102270000D01*
X132040000Y-102270000D01*
X132032346Y-102268478D01*
X132025858Y-102264142D01*
X132021522Y-102257654D01*
X132020000Y-102250000D01*
X132020000Y-101790000D01*
X132021522Y-101782346D01*
X132025858Y-101775858D01*
X132032346Y-101771522D01*
X132040000Y-101770000D01*
X132260000Y-101770000D01*
X132267654Y-101771522D01*
G37*
G36*
X132767654Y-101771522D02*
G01*
X132774142Y-101775858D01*
X132778478Y-101782346D01*
X132780000Y-101790000D01*
X132780000Y-102250000D01*
X132778478Y-102257654D01*
X132774142Y-102264142D01*
X132767654Y-102268478D01*
X132760000Y-102270000D01*
X132540000Y-102270000D01*
X132532346Y-102268478D01*
X132525858Y-102264142D01*
X132521522Y-102257654D01*
X132520000Y-102250000D01*
X132520000Y-101790000D01*
X132521522Y-101782346D01*
X132525858Y-101775858D01*
X132532346Y-101771522D01*
X132540000Y-101770000D01*
X132760000Y-101770000D01*
X132767654Y-101771522D01*
G37*
G36*
X136467654Y-101771522D02*
G01*
X136474142Y-101775858D01*
X136478478Y-101782346D01*
X136480000Y-101790000D01*
X136480000Y-102250000D01*
X136478478Y-102257654D01*
X136474142Y-102264142D01*
X136467654Y-102268478D01*
X136460000Y-102270000D01*
X136240000Y-102270000D01*
X136232346Y-102268478D01*
X136225858Y-102264142D01*
X136221522Y-102257654D01*
X136220000Y-102250000D01*
X136220000Y-101790000D01*
X136221522Y-101782346D01*
X136225858Y-101775858D01*
X136232346Y-101771522D01*
X136240000Y-101770000D01*
X136460000Y-101770000D01*
X136467654Y-101771522D01*
G37*
G36*
X136967654Y-101771522D02*
G01*
X136974142Y-101775858D01*
X136978478Y-101782346D01*
X136980000Y-101790000D01*
X136980000Y-102250000D01*
X136978478Y-102257654D01*
X136974142Y-102264142D01*
X136967654Y-102268478D01*
X136960000Y-102270000D01*
X136740000Y-102270000D01*
X136732346Y-102268478D01*
X136725858Y-102264142D01*
X136721522Y-102257654D01*
X136720000Y-102250000D01*
X136720000Y-101790000D01*
X136721522Y-101782346D01*
X136725858Y-101775858D01*
X136732346Y-101771522D01*
X136740000Y-101770000D01*
X136960000Y-101770000D01*
X136967654Y-101771522D01*
G37*
G36*
X137467654Y-101771522D02*
G01*
X137474142Y-101775858D01*
X137478478Y-101782346D01*
X137480000Y-101790000D01*
X137480000Y-102250000D01*
X137478478Y-102257654D01*
X137474142Y-102264142D01*
X137467654Y-102268478D01*
X137460000Y-102270000D01*
X137240000Y-102270000D01*
X137232346Y-102268478D01*
X137225858Y-102264142D01*
X137221522Y-102257654D01*
X137220000Y-102250000D01*
X137220000Y-101790000D01*
X137221522Y-101782346D01*
X137225858Y-101775858D01*
X137232346Y-101771522D01*
X137240000Y-101770000D01*
X137460000Y-101770000D01*
X137467654Y-101771522D01*
G37*
G36*
X141167654Y-101771522D02*
G01*
X141174142Y-101775858D01*
X141178478Y-101782346D01*
X141180000Y-101790000D01*
X141180000Y-102250000D01*
X141178478Y-102257654D01*
X141174142Y-102264142D01*
X141167654Y-102268478D01*
X141160000Y-102270000D01*
X140940000Y-102270000D01*
X140932346Y-102268478D01*
X140925858Y-102264142D01*
X140921522Y-102257654D01*
X140920000Y-102250000D01*
X140920000Y-101790000D01*
X140921522Y-101782346D01*
X140925858Y-101775858D01*
X140932346Y-101771522D01*
X140940000Y-101770000D01*
X141160000Y-101770000D01*
X141167654Y-101771522D01*
G37*
G36*
X141667654Y-101771522D02*
G01*
X141674142Y-101775858D01*
X141678478Y-101782346D01*
X141680000Y-101790000D01*
X141680000Y-102250000D01*
X141678478Y-102257654D01*
X141674142Y-102264142D01*
X141667654Y-102268478D01*
X141660000Y-102270000D01*
X141440000Y-102270000D01*
X141432346Y-102268478D01*
X141425858Y-102264142D01*
X141421522Y-102257654D01*
X141420000Y-102250000D01*
X141420000Y-101790000D01*
X141421522Y-101782346D01*
X141425858Y-101775858D01*
X141432346Y-101771522D01*
X141440000Y-101770000D01*
X141660000Y-101770000D01*
X141667654Y-101771522D01*
G37*
G36*
X142167654Y-101771522D02*
G01*
X142174142Y-101775858D01*
X142178478Y-101782346D01*
X142180000Y-101790000D01*
X142180000Y-102250000D01*
X142178478Y-102257654D01*
X142174142Y-102264142D01*
X142167654Y-102268478D01*
X142160000Y-102270000D01*
X141940000Y-102270000D01*
X141932346Y-102268478D01*
X141925858Y-102264142D01*
X141921522Y-102257654D01*
X141920000Y-102250000D01*
X141920000Y-101790000D01*
X141921522Y-101782346D01*
X141925858Y-101775858D01*
X141932346Y-101771522D01*
X141940000Y-101770000D01*
X142160000Y-101770000D01*
X142167654Y-101771522D01*
G37*
G36*
X127957654Y-100881522D02*
G01*
X127964142Y-100885858D01*
X127968478Y-100892346D01*
X127970000Y-100900000D01*
X127970000Y-101600000D01*
X127968478Y-101607654D01*
X127964142Y-101614142D01*
X127957654Y-101618478D01*
X127950000Y-101620000D01*
X126950000Y-101620000D01*
X126942346Y-101618478D01*
X126935858Y-101614142D01*
X126931522Y-101607654D01*
X126930000Y-101600000D01*
X126930000Y-100900000D01*
X126931522Y-100892346D01*
X126935858Y-100885858D01*
X126942346Y-100881522D01*
X126950000Y-100880000D01*
X127950000Y-100880000D01*
X127957654Y-100881522D01*
G37*
G36*
X132657654Y-100881522D02*
G01*
X132664142Y-100885858D01*
X132668478Y-100892346D01*
X132670000Y-100900000D01*
X132670000Y-101600000D01*
X132668478Y-101607654D01*
X132664142Y-101614142D01*
X132657654Y-101618478D01*
X132650000Y-101620000D01*
X131650000Y-101620000D01*
X131642346Y-101618478D01*
X131635858Y-101614142D01*
X131631522Y-101607654D01*
X131630000Y-101600000D01*
X131630000Y-100900000D01*
X131631522Y-100892346D01*
X131635858Y-100885858D01*
X131642346Y-100881522D01*
X131650000Y-100880000D01*
X132650000Y-100880000D01*
X132657654Y-100881522D01*
G37*
G36*
X137357654Y-100881522D02*
G01*
X137364142Y-100885858D01*
X137368478Y-100892346D01*
X137370000Y-100900000D01*
X137370000Y-101600000D01*
X137368478Y-101607654D01*
X137364142Y-101614142D01*
X137357654Y-101618478D01*
X137350000Y-101620000D01*
X136350000Y-101620000D01*
X136342346Y-101618478D01*
X136335858Y-101614142D01*
X136331522Y-101607654D01*
X136330000Y-101600000D01*
X136330000Y-100900000D01*
X136331522Y-100892346D01*
X136335858Y-100885858D01*
X136342346Y-100881522D01*
X136350000Y-100880000D01*
X137350000Y-100880000D01*
X137357654Y-100881522D01*
G37*
G36*
X142057654Y-100881522D02*
G01*
X142064142Y-100885858D01*
X142068478Y-100892346D01*
X142070000Y-100900000D01*
X142070000Y-101600000D01*
X142068478Y-101607654D01*
X142064142Y-101614142D01*
X142057654Y-101618478D01*
X142050000Y-101620000D01*
X141050000Y-101620000D01*
X141042346Y-101618478D01*
X141035858Y-101614142D01*
X141031522Y-101607654D01*
X141030000Y-101600000D01*
X141030000Y-100900000D01*
X141031522Y-100892346D01*
X141035858Y-100885858D01*
X141042346Y-100881522D01*
X141050000Y-100880000D01*
X142050000Y-100880000D01*
X142057654Y-100881522D01*
G37*
G36*
X127067654Y-100231522D02*
G01*
X127074142Y-100235858D01*
X127078478Y-100242346D01*
X127080000Y-100250000D01*
X127080000Y-100710000D01*
X127078478Y-100717654D01*
X127074142Y-100724142D01*
X127067654Y-100728478D01*
X127060000Y-100730000D01*
X126840000Y-100730000D01*
X126832346Y-100728478D01*
X126825858Y-100724142D01*
X126821522Y-100717654D01*
X126820000Y-100710000D01*
X126820000Y-100250000D01*
X126821522Y-100242346D01*
X126825858Y-100235858D01*
X126832346Y-100231522D01*
X126840000Y-100230000D01*
X127060000Y-100230000D01*
X127067654Y-100231522D01*
G37*
G36*
X127567654Y-100231522D02*
G01*
X127574142Y-100235858D01*
X127578478Y-100242346D01*
X127580000Y-100250000D01*
X127580000Y-100710000D01*
X127578478Y-100717654D01*
X127574142Y-100724142D01*
X127567654Y-100728478D01*
X127560000Y-100730000D01*
X127340000Y-100730000D01*
X127332346Y-100728478D01*
X127325858Y-100724142D01*
X127321522Y-100717654D01*
X127320000Y-100710000D01*
X127320000Y-100250000D01*
X127321522Y-100242346D01*
X127325858Y-100235858D01*
X127332346Y-100231522D01*
X127340000Y-100230000D01*
X127560000Y-100230000D01*
X127567654Y-100231522D01*
G37*
G36*
X128067654Y-100231522D02*
G01*
X128074142Y-100235858D01*
X128078478Y-100242346D01*
X128080000Y-100250000D01*
X128080000Y-100710000D01*
X128078478Y-100717654D01*
X128074142Y-100724142D01*
X128067654Y-100728478D01*
X128060000Y-100730000D01*
X127840000Y-100730000D01*
X127832346Y-100728478D01*
X127825858Y-100724142D01*
X127821522Y-100717654D01*
X127820000Y-100710000D01*
X127820000Y-100250000D01*
X127821522Y-100242346D01*
X127825858Y-100235858D01*
X127832346Y-100231522D01*
X127840000Y-100230000D01*
X128060000Y-100230000D01*
X128067654Y-100231522D01*
G37*
G36*
X131767654Y-100231522D02*
G01*
X131774142Y-100235858D01*
X131778478Y-100242346D01*
X131780000Y-100250000D01*
X131780000Y-100710000D01*
X131778478Y-100717654D01*
X131774142Y-100724142D01*
X131767654Y-100728478D01*
X131760000Y-100730000D01*
X131540000Y-100730000D01*
X131532346Y-100728478D01*
X131525858Y-100724142D01*
X131521522Y-100717654D01*
X131520000Y-100710000D01*
X131520000Y-100250000D01*
X131521522Y-100242346D01*
X131525858Y-100235858D01*
X131532346Y-100231522D01*
X131540000Y-100230000D01*
X131760000Y-100230000D01*
X131767654Y-100231522D01*
G37*
G36*
X132267654Y-100231522D02*
G01*
X132274142Y-100235858D01*
X132278478Y-100242346D01*
X132280000Y-100250000D01*
X132280000Y-100710000D01*
X132278478Y-100717654D01*
X132274142Y-100724142D01*
X132267654Y-100728478D01*
X132260000Y-100730000D01*
X132040000Y-100730000D01*
X132032346Y-100728478D01*
X132025858Y-100724142D01*
X132021522Y-100717654D01*
X132020000Y-100710000D01*
X132020000Y-100250000D01*
X132021522Y-100242346D01*
X132025858Y-100235858D01*
X132032346Y-100231522D01*
X132040000Y-100230000D01*
X132260000Y-100230000D01*
X132267654Y-100231522D01*
G37*
G36*
X132767654Y-100231522D02*
G01*
X132774142Y-100235858D01*
X132778478Y-100242346D01*
X132780000Y-100250000D01*
X132780000Y-100710000D01*
X132778478Y-100717654D01*
X132774142Y-100724142D01*
X132767654Y-100728478D01*
X132760000Y-100730000D01*
X132540000Y-100730000D01*
X132532346Y-100728478D01*
X132525858Y-100724142D01*
X132521522Y-100717654D01*
X132520000Y-100710000D01*
X132520000Y-100250000D01*
X132521522Y-100242346D01*
X132525858Y-100235858D01*
X132532346Y-100231522D01*
X132540000Y-100230000D01*
X132760000Y-100230000D01*
X132767654Y-100231522D01*
G37*
G36*
X136467654Y-100231522D02*
G01*
X136474142Y-100235858D01*
X136478478Y-100242346D01*
X136480000Y-100250000D01*
X136480000Y-100710000D01*
X136478478Y-100717654D01*
X136474142Y-100724142D01*
X136467654Y-100728478D01*
X136460000Y-100730000D01*
X136240000Y-100730000D01*
X136232346Y-100728478D01*
X136225858Y-100724142D01*
X136221522Y-100717654D01*
X136220000Y-100710000D01*
X136220000Y-100250000D01*
X136221522Y-100242346D01*
X136225858Y-100235858D01*
X136232346Y-100231522D01*
X136240000Y-100230000D01*
X136460000Y-100230000D01*
X136467654Y-100231522D01*
G37*
G36*
X136967654Y-100231522D02*
G01*
X136974142Y-100235858D01*
X136978478Y-100242346D01*
X136980000Y-100250000D01*
X136980000Y-100710000D01*
X136978478Y-100717654D01*
X136974142Y-100724142D01*
X136967654Y-100728478D01*
X136960000Y-100730000D01*
X136740000Y-100730000D01*
X136732346Y-100728478D01*
X136725858Y-100724142D01*
X136721522Y-100717654D01*
X136720000Y-100710000D01*
X136720000Y-100250000D01*
X136721522Y-100242346D01*
X136725858Y-100235858D01*
X136732346Y-100231522D01*
X136740000Y-100230000D01*
X136960000Y-100230000D01*
X136967654Y-100231522D01*
G37*
G36*
X137467654Y-100231522D02*
G01*
X137474142Y-100235858D01*
X137478478Y-100242346D01*
X137480000Y-100250000D01*
X137480000Y-100710000D01*
X137478478Y-100717654D01*
X137474142Y-100724142D01*
X137467654Y-100728478D01*
X137460000Y-100730000D01*
X137240000Y-100730000D01*
X137232346Y-100728478D01*
X137225858Y-100724142D01*
X137221522Y-100717654D01*
X137220000Y-100710000D01*
X137220000Y-100250000D01*
X137221522Y-100242346D01*
X137225858Y-100235858D01*
X137232346Y-100231522D01*
X137240000Y-100230000D01*
X137460000Y-100230000D01*
X137467654Y-100231522D01*
G37*
G36*
X141167654Y-100231522D02*
G01*
X141174142Y-100235858D01*
X141178478Y-100242346D01*
X141180000Y-100250000D01*
X141180000Y-100710000D01*
X141178478Y-100717654D01*
X141174142Y-100724142D01*
X141167654Y-100728478D01*
X141160000Y-100730000D01*
X140940000Y-100730000D01*
X140932346Y-100728478D01*
X140925858Y-100724142D01*
X140921522Y-100717654D01*
X140920000Y-100710000D01*
X140920000Y-100250000D01*
X140921522Y-100242346D01*
X140925858Y-100235858D01*
X140932346Y-100231522D01*
X140940000Y-100230000D01*
X141160000Y-100230000D01*
X141167654Y-100231522D01*
G37*
G36*
X141667654Y-100231522D02*
G01*
X141674142Y-100235858D01*
X141678478Y-100242346D01*
X141680000Y-100250000D01*
X141680000Y-100710000D01*
X141678478Y-100717654D01*
X141674142Y-100724142D01*
X141667654Y-100728478D01*
X141660000Y-100730000D01*
X141440000Y-100730000D01*
X141432346Y-100728478D01*
X141425858Y-100724142D01*
X141421522Y-100717654D01*
X141420000Y-100710000D01*
X141420000Y-100250000D01*
X141421522Y-100242346D01*
X141425858Y-100235858D01*
X141432346Y-100231522D01*
X141440000Y-100230000D01*
X141660000Y-100230000D01*
X141667654Y-100231522D01*
G37*
G36*
X142167654Y-100231522D02*
G01*
X142174142Y-100235858D01*
X142178478Y-100242346D01*
X142180000Y-100250000D01*
X142180000Y-100710000D01*
X142178478Y-100717654D01*
X142174142Y-100724142D01*
X142167654Y-100728478D01*
X142160000Y-100730000D01*
X141940000Y-100730000D01*
X141932346Y-100728478D01*
X141925858Y-100724142D01*
X141921522Y-100717654D01*
X141920000Y-100710000D01*
X141920000Y-100250000D01*
X141921522Y-100242346D01*
X141925858Y-100235858D01*
X141932346Y-100231522D01*
X141940000Y-100230000D01*
X142160000Y-100230000D01*
X142167654Y-100231522D01*
G37*
G36*
X127067654Y-97071522D02*
G01*
X127074142Y-97075858D01*
X127078478Y-97082346D01*
X127080000Y-97090000D01*
X127080000Y-97550000D01*
X127078478Y-97557654D01*
X127074142Y-97564142D01*
X127067654Y-97568478D01*
X127060000Y-97570000D01*
X126840000Y-97570000D01*
X126832346Y-97568478D01*
X126825858Y-97564142D01*
X126821522Y-97557654D01*
X126820000Y-97550000D01*
X126820000Y-97090000D01*
X126821522Y-97082346D01*
X126825858Y-97075858D01*
X126832346Y-97071522D01*
X126840000Y-97070000D01*
X127060000Y-97070000D01*
X127067654Y-97071522D01*
G37*
G36*
X127567654Y-97071522D02*
G01*
X127574142Y-97075858D01*
X127578478Y-97082346D01*
X127580000Y-97090000D01*
X127580000Y-97550000D01*
X127578478Y-97557654D01*
X127574142Y-97564142D01*
X127567654Y-97568478D01*
X127560000Y-97570000D01*
X127340000Y-97570000D01*
X127332346Y-97568478D01*
X127325858Y-97564142D01*
X127321522Y-97557654D01*
X127320000Y-97550000D01*
X127320000Y-97090000D01*
X127321522Y-97082346D01*
X127325858Y-97075858D01*
X127332346Y-97071522D01*
X127340000Y-97070000D01*
X127560000Y-97070000D01*
X127567654Y-97071522D01*
G37*
G36*
X128067654Y-97071522D02*
G01*
X128074142Y-97075858D01*
X128078478Y-97082346D01*
X128080000Y-97090000D01*
X128080000Y-97550000D01*
X128078478Y-97557654D01*
X128074142Y-97564142D01*
X128067654Y-97568478D01*
X128060000Y-97570000D01*
X127840000Y-97570000D01*
X127832346Y-97568478D01*
X127825858Y-97564142D01*
X127821522Y-97557654D01*
X127820000Y-97550000D01*
X127820000Y-97090000D01*
X127821522Y-97082346D01*
X127825858Y-97075858D01*
X127832346Y-97071522D01*
X127840000Y-97070000D01*
X128060000Y-97070000D01*
X128067654Y-97071522D01*
G37*
G36*
X131767654Y-97071522D02*
G01*
X131774142Y-97075858D01*
X131778478Y-97082346D01*
X131780000Y-97090000D01*
X131780000Y-97550000D01*
X131778478Y-97557654D01*
X131774142Y-97564142D01*
X131767654Y-97568478D01*
X131760000Y-97570000D01*
X131540000Y-97570000D01*
X131532346Y-97568478D01*
X131525858Y-97564142D01*
X131521522Y-97557654D01*
X131520000Y-97550000D01*
X131520000Y-97090000D01*
X131521522Y-97082346D01*
X131525858Y-97075858D01*
X131532346Y-97071522D01*
X131540000Y-97070000D01*
X131760000Y-97070000D01*
X131767654Y-97071522D01*
G37*
G36*
X132267654Y-97071522D02*
G01*
X132274142Y-97075858D01*
X132278478Y-97082346D01*
X132280000Y-97090000D01*
X132280000Y-97550000D01*
X132278478Y-97557654D01*
X132274142Y-97564142D01*
X132267654Y-97568478D01*
X132260000Y-97570000D01*
X132040000Y-97570000D01*
X132032346Y-97568478D01*
X132025858Y-97564142D01*
X132021522Y-97557654D01*
X132020000Y-97550000D01*
X132020000Y-97090000D01*
X132021522Y-97082346D01*
X132025858Y-97075858D01*
X132032346Y-97071522D01*
X132040000Y-97070000D01*
X132260000Y-97070000D01*
X132267654Y-97071522D01*
G37*
G36*
X132767654Y-97071522D02*
G01*
X132774142Y-97075858D01*
X132778478Y-97082346D01*
X132780000Y-97090000D01*
X132780000Y-97550000D01*
X132778478Y-97557654D01*
X132774142Y-97564142D01*
X132767654Y-97568478D01*
X132760000Y-97570000D01*
X132540000Y-97570000D01*
X132532346Y-97568478D01*
X132525858Y-97564142D01*
X132521522Y-97557654D01*
X132520000Y-97550000D01*
X132520000Y-97090000D01*
X132521522Y-97082346D01*
X132525858Y-97075858D01*
X132532346Y-97071522D01*
X132540000Y-97070000D01*
X132760000Y-97070000D01*
X132767654Y-97071522D01*
G37*
G36*
X136467654Y-97071522D02*
G01*
X136474142Y-97075858D01*
X136478478Y-97082346D01*
X136480000Y-97090000D01*
X136480000Y-97550000D01*
X136478478Y-97557654D01*
X136474142Y-97564142D01*
X136467654Y-97568478D01*
X136460000Y-97570000D01*
X136240000Y-97570000D01*
X136232346Y-97568478D01*
X136225858Y-97564142D01*
X136221522Y-97557654D01*
X136220000Y-97550000D01*
X136220000Y-97090000D01*
X136221522Y-97082346D01*
X136225858Y-97075858D01*
X136232346Y-97071522D01*
X136240000Y-97070000D01*
X136460000Y-97070000D01*
X136467654Y-97071522D01*
G37*
G36*
X136967654Y-97071522D02*
G01*
X136974142Y-97075858D01*
X136978478Y-97082346D01*
X136980000Y-97090000D01*
X136980000Y-97550000D01*
X136978478Y-97557654D01*
X136974142Y-97564142D01*
X136967654Y-97568478D01*
X136960000Y-97570000D01*
X136740000Y-97570000D01*
X136732346Y-97568478D01*
X136725858Y-97564142D01*
X136721522Y-97557654D01*
X136720000Y-97550000D01*
X136720000Y-97090000D01*
X136721522Y-97082346D01*
X136725858Y-97075858D01*
X136732346Y-97071522D01*
X136740000Y-97070000D01*
X136960000Y-97070000D01*
X136967654Y-97071522D01*
G37*
G36*
X137467654Y-97071522D02*
G01*
X137474142Y-97075858D01*
X137478478Y-97082346D01*
X137480000Y-97090000D01*
X137480000Y-97550000D01*
X137478478Y-97557654D01*
X137474142Y-97564142D01*
X137467654Y-97568478D01*
X137460000Y-97570000D01*
X137240000Y-97570000D01*
X137232346Y-97568478D01*
X137225858Y-97564142D01*
X137221522Y-97557654D01*
X137220000Y-97550000D01*
X137220000Y-97090000D01*
X137221522Y-97082346D01*
X137225858Y-97075858D01*
X137232346Y-97071522D01*
X137240000Y-97070000D01*
X137460000Y-97070000D01*
X137467654Y-97071522D01*
G37*
G36*
X141167654Y-97071522D02*
G01*
X141174142Y-97075858D01*
X141178478Y-97082346D01*
X141180000Y-97090000D01*
X141180000Y-97550000D01*
X141178478Y-97557654D01*
X141174142Y-97564142D01*
X141167654Y-97568478D01*
X141160000Y-97570000D01*
X140940000Y-97570000D01*
X140932346Y-97568478D01*
X140925858Y-97564142D01*
X140921522Y-97557654D01*
X140920000Y-97550000D01*
X140920000Y-97090000D01*
X140921522Y-97082346D01*
X140925858Y-97075858D01*
X140932346Y-97071522D01*
X140940000Y-97070000D01*
X141160000Y-97070000D01*
X141167654Y-97071522D01*
G37*
G36*
X141667654Y-97071522D02*
G01*
X141674142Y-97075858D01*
X141678478Y-97082346D01*
X141680000Y-97090000D01*
X141680000Y-97550000D01*
X141678478Y-97557654D01*
X141674142Y-97564142D01*
X141667654Y-97568478D01*
X141660000Y-97570000D01*
X141440000Y-97570000D01*
X141432346Y-97568478D01*
X141425858Y-97564142D01*
X141421522Y-97557654D01*
X141420000Y-97550000D01*
X141420000Y-97090000D01*
X141421522Y-97082346D01*
X141425858Y-97075858D01*
X141432346Y-97071522D01*
X141440000Y-97070000D01*
X141660000Y-97070000D01*
X141667654Y-97071522D01*
G37*
G36*
X142167654Y-97071522D02*
G01*
X142174142Y-97075858D01*
X142178478Y-97082346D01*
X142180000Y-97090000D01*
X142180000Y-97550000D01*
X142178478Y-97557654D01*
X142174142Y-97564142D01*
X142167654Y-97568478D01*
X142160000Y-97570000D01*
X141940000Y-97570000D01*
X141932346Y-97568478D01*
X141925858Y-97564142D01*
X141921522Y-97557654D01*
X141920000Y-97550000D01*
X141920000Y-97090000D01*
X141921522Y-97082346D01*
X141925858Y-97075858D01*
X141932346Y-97071522D01*
X141940000Y-97070000D01*
X142160000Y-97070000D01*
X142167654Y-97071522D01*
G37*
G36*
X127957654Y-96181522D02*
G01*
X127964142Y-96185858D01*
X127968478Y-96192346D01*
X127970000Y-96200000D01*
X127970000Y-96900000D01*
X127968478Y-96907654D01*
X127964142Y-96914142D01*
X127957654Y-96918478D01*
X127950000Y-96920000D01*
X126950000Y-96920000D01*
X126942346Y-96918478D01*
X126935858Y-96914142D01*
X126931522Y-96907654D01*
X126930000Y-96900000D01*
X126930000Y-96200000D01*
X126931522Y-96192346D01*
X126935858Y-96185858D01*
X126942346Y-96181522D01*
X126950000Y-96180000D01*
X127950000Y-96180000D01*
X127957654Y-96181522D01*
G37*
G36*
X132657654Y-96181522D02*
G01*
X132664142Y-96185858D01*
X132668478Y-96192346D01*
X132670000Y-96200000D01*
X132670000Y-96900000D01*
X132668478Y-96907654D01*
X132664142Y-96914142D01*
X132657654Y-96918478D01*
X132650000Y-96920000D01*
X131650000Y-96920000D01*
X131642346Y-96918478D01*
X131635858Y-96914142D01*
X131631522Y-96907654D01*
X131630000Y-96900000D01*
X131630000Y-96200000D01*
X131631522Y-96192346D01*
X131635858Y-96185858D01*
X131642346Y-96181522D01*
X131650000Y-96180000D01*
X132650000Y-96180000D01*
X132657654Y-96181522D01*
G37*
G36*
X137357654Y-96181522D02*
G01*
X137364142Y-96185858D01*
X137368478Y-96192346D01*
X137370000Y-96200000D01*
X137370000Y-96900000D01*
X137368478Y-96907654D01*
X137364142Y-96914142D01*
X137357654Y-96918478D01*
X137350000Y-96920000D01*
X136350000Y-96920000D01*
X136342346Y-96918478D01*
X136335858Y-96914142D01*
X136331522Y-96907654D01*
X136330000Y-96900000D01*
X136330000Y-96200000D01*
X136331522Y-96192346D01*
X136335858Y-96185858D01*
X136342346Y-96181522D01*
X136350000Y-96180000D01*
X137350000Y-96180000D01*
X137357654Y-96181522D01*
G37*
G36*
X142057654Y-96181522D02*
G01*
X142064142Y-96185858D01*
X142068478Y-96192346D01*
X142070000Y-96200000D01*
X142070000Y-96900000D01*
X142068478Y-96907654D01*
X142064142Y-96914142D01*
X142057654Y-96918478D01*
X142050000Y-96920000D01*
X141050000Y-96920000D01*
X141042346Y-96918478D01*
X141035858Y-96914142D01*
X141031522Y-96907654D01*
X141030000Y-96900000D01*
X141030000Y-96200000D01*
X141031522Y-96192346D01*
X141035858Y-96185858D01*
X141042346Y-96181522D01*
X141050000Y-96180000D01*
X142050000Y-96180000D01*
X142057654Y-96181522D01*
G37*
G36*
X127067654Y-95531522D02*
G01*
X127074142Y-95535858D01*
X127078478Y-95542346D01*
X127080000Y-95550000D01*
X127080000Y-96010000D01*
X127078478Y-96017654D01*
X127074142Y-96024142D01*
X127067654Y-96028478D01*
X127060000Y-96030000D01*
X126840000Y-96030000D01*
X126832346Y-96028478D01*
X126825858Y-96024142D01*
X126821522Y-96017654D01*
X126820000Y-96010000D01*
X126820000Y-95550000D01*
X126821522Y-95542346D01*
X126825858Y-95535858D01*
X126832346Y-95531522D01*
X126840000Y-95530000D01*
X127060000Y-95530000D01*
X127067654Y-95531522D01*
G37*
G36*
X127567654Y-95531522D02*
G01*
X127574142Y-95535858D01*
X127578478Y-95542346D01*
X127580000Y-95550000D01*
X127580000Y-96010000D01*
X127578478Y-96017654D01*
X127574142Y-96024142D01*
X127567654Y-96028478D01*
X127560000Y-96030000D01*
X127340000Y-96030000D01*
X127332346Y-96028478D01*
X127325858Y-96024142D01*
X127321522Y-96017654D01*
X127320000Y-96010000D01*
X127320000Y-95550000D01*
X127321522Y-95542346D01*
X127325858Y-95535858D01*
X127332346Y-95531522D01*
X127340000Y-95530000D01*
X127560000Y-95530000D01*
X127567654Y-95531522D01*
G37*
G36*
X128067654Y-95531522D02*
G01*
X128074142Y-95535858D01*
X128078478Y-95542346D01*
X128080000Y-95550000D01*
X128080000Y-96010000D01*
X128078478Y-96017654D01*
X128074142Y-96024142D01*
X128067654Y-96028478D01*
X128060000Y-96030000D01*
X127840000Y-96030000D01*
X127832346Y-96028478D01*
X127825858Y-96024142D01*
X127821522Y-96017654D01*
X127820000Y-96010000D01*
X127820000Y-95550000D01*
X127821522Y-95542346D01*
X127825858Y-95535858D01*
X127832346Y-95531522D01*
X127840000Y-95530000D01*
X128060000Y-95530000D01*
X128067654Y-95531522D01*
G37*
G36*
X131767654Y-95531522D02*
G01*
X131774142Y-95535858D01*
X131778478Y-95542346D01*
X131780000Y-95550000D01*
X131780000Y-96010000D01*
X131778478Y-96017654D01*
X131774142Y-96024142D01*
X131767654Y-96028478D01*
X131760000Y-96030000D01*
X131540000Y-96030000D01*
X131532346Y-96028478D01*
X131525858Y-96024142D01*
X131521522Y-96017654D01*
X131520000Y-96010000D01*
X131520000Y-95550000D01*
X131521522Y-95542346D01*
X131525858Y-95535858D01*
X131532346Y-95531522D01*
X131540000Y-95530000D01*
X131760000Y-95530000D01*
X131767654Y-95531522D01*
G37*
G36*
X132267654Y-95531522D02*
G01*
X132274142Y-95535858D01*
X132278478Y-95542346D01*
X132280000Y-95550000D01*
X132280000Y-96010000D01*
X132278478Y-96017654D01*
X132274142Y-96024142D01*
X132267654Y-96028478D01*
X132260000Y-96030000D01*
X132040000Y-96030000D01*
X132032346Y-96028478D01*
X132025858Y-96024142D01*
X132021522Y-96017654D01*
X132020000Y-96010000D01*
X132020000Y-95550000D01*
X132021522Y-95542346D01*
X132025858Y-95535858D01*
X132032346Y-95531522D01*
X132040000Y-95530000D01*
X132260000Y-95530000D01*
X132267654Y-95531522D01*
G37*
G36*
X132767654Y-95531522D02*
G01*
X132774142Y-95535858D01*
X132778478Y-95542346D01*
X132780000Y-95550000D01*
X132780000Y-96010000D01*
X132778478Y-96017654D01*
X132774142Y-96024142D01*
X132767654Y-96028478D01*
X132760000Y-96030000D01*
X132540000Y-96030000D01*
X132532346Y-96028478D01*
X132525858Y-96024142D01*
X132521522Y-96017654D01*
X132520000Y-96010000D01*
X132520000Y-95550000D01*
X132521522Y-95542346D01*
X132525858Y-95535858D01*
X132532346Y-95531522D01*
X132540000Y-95530000D01*
X132760000Y-95530000D01*
X132767654Y-95531522D01*
G37*
G36*
X136467654Y-95531522D02*
G01*
X136474142Y-95535858D01*
X136478478Y-95542346D01*
X136480000Y-95550000D01*
X136480000Y-96010000D01*
X136478478Y-96017654D01*
X136474142Y-96024142D01*
X136467654Y-96028478D01*
X136460000Y-96030000D01*
X136240000Y-96030000D01*
X136232346Y-96028478D01*
X136225858Y-96024142D01*
X136221522Y-96017654D01*
X136220000Y-96010000D01*
X136220000Y-95550000D01*
X136221522Y-95542346D01*
X136225858Y-95535858D01*
X136232346Y-95531522D01*
X136240000Y-95530000D01*
X136460000Y-95530000D01*
X136467654Y-95531522D01*
G37*
G36*
X136967654Y-95531522D02*
G01*
X136974142Y-95535858D01*
X136978478Y-95542346D01*
X136980000Y-95550000D01*
X136980000Y-96010000D01*
X136978478Y-96017654D01*
X136974142Y-96024142D01*
X136967654Y-96028478D01*
X136960000Y-96030000D01*
X136740000Y-96030000D01*
X136732346Y-96028478D01*
X136725858Y-96024142D01*
X136721522Y-96017654D01*
X136720000Y-96010000D01*
X136720000Y-95550000D01*
X136721522Y-95542346D01*
X136725858Y-95535858D01*
X136732346Y-95531522D01*
X136740000Y-95530000D01*
X136960000Y-95530000D01*
X136967654Y-95531522D01*
G37*
G36*
X137467654Y-95531522D02*
G01*
X137474142Y-95535858D01*
X137478478Y-95542346D01*
X137480000Y-95550000D01*
X137480000Y-96010000D01*
X137478478Y-96017654D01*
X137474142Y-96024142D01*
X137467654Y-96028478D01*
X137460000Y-96030000D01*
X137240000Y-96030000D01*
X137232346Y-96028478D01*
X137225858Y-96024142D01*
X137221522Y-96017654D01*
X137220000Y-96010000D01*
X137220000Y-95550000D01*
X137221522Y-95542346D01*
X137225858Y-95535858D01*
X137232346Y-95531522D01*
X137240000Y-95530000D01*
X137460000Y-95530000D01*
X137467654Y-95531522D01*
G37*
G36*
X141167654Y-95531522D02*
G01*
X141174142Y-95535858D01*
X141178478Y-95542346D01*
X141180000Y-95550000D01*
X141180000Y-96010000D01*
X141178478Y-96017654D01*
X141174142Y-96024142D01*
X141167654Y-96028478D01*
X141160000Y-96030000D01*
X140940000Y-96030000D01*
X140932346Y-96028478D01*
X140925858Y-96024142D01*
X140921522Y-96017654D01*
X140920000Y-96010000D01*
X140920000Y-95550000D01*
X140921522Y-95542346D01*
X140925858Y-95535858D01*
X140932346Y-95531522D01*
X140940000Y-95530000D01*
X141160000Y-95530000D01*
X141167654Y-95531522D01*
G37*
G36*
X141667654Y-95531522D02*
G01*
X141674142Y-95535858D01*
X141678478Y-95542346D01*
X141680000Y-95550000D01*
X141680000Y-96010000D01*
X141678478Y-96017654D01*
X141674142Y-96024142D01*
X141667654Y-96028478D01*
X141660000Y-96030000D01*
X141440000Y-96030000D01*
X141432346Y-96028478D01*
X141425858Y-96024142D01*
X141421522Y-96017654D01*
X141420000Y-96010000D01*
X141420000Y-95550000D01*
X141421522Y-95542346D01*
X141425858Y-95535858D01*
X141432346Y-95531522D01*
X141440000Y-95530000D01*
X141660000Y-95530000D01*
X141667654Y-95531522D01*
G37*
G36*
X142167654Y-95531522D02*
G01*
X142174142Y-95535858D01*
X142178478Y-95542346D01*
X142180000Y-95550000D01*
X142180000Y-96010000D01*
X142178478Y-96017654D01*
X142174142Y-96024142D01*
X142167654Y-96028478D01*
X142160000Y-96030000D01*
X141940000Y-96030000D01*
X141932346Y-96028478D01*
X141925858Y-96024142D01*
X141921522Y-96017654D01*
X141920000Y-96010000D01*
X141920000Y-95550000D01*
X141921522Y-95542346D01*
X141925858Y-95535858D01*
X141932346Y-95531522D01*
X141940000Y-95530000D01*
X142160000Y-95530000D01*
X142167654Y-95531522D01*
G37*
G36*
X143717214Y-94392295D02*
G01*
X143853048Y-94448559D01*
X143975295Y-94530242D01*
X144079258Y-94634205D01*
X144160941Y-94756452D01*
X144217205Y-94892286D01*
X144245889Y-95036487D01*
X144245889Y-95183513D01*
X144217205Y-95327714D01*
X144160941Y-95463548D01*
X144079258Y-95585795D01*
X143975295Y-95689758D01*
X143853048Y-95771441D01*
X143717214Y-95827705D01*
X143573013Y-95856389D01*
X143425987Y-95856389D01*
X143281786Y-95827705D01*
X143145952Y-95771441D01*
X143023705Y-95689758D01*
X142919742Y-95585795D01*
X142838059Y-95463548D01*
X142781795Y-95327714D01*
X142753111Y-95183513D01*
X142753111Y-95036487D01*
X142781795Y-94892286D01*
X142838059Y-94756452D01*
X142919742Y-94634205D01*
X143023705Y-94530242D01*
X143145952Y-94448559D01*
X143281786Y-94392295D01*
X143425987Y-94363611D01*
X143573013Y-94363611D01*
X143717214Y-94392295D01*
G37*
G36*
X125707214Y-94382295D02*
G01*
X125843048Y-94438559D01*
X125965295Y-94520242D01*
X126069258Y-94624205D01*
X126150941Y-94746452D01*
X126207205Y-94882286D01*
X126235889Y-95026487D01*
X126235889Y-95173513D01*
X126207205Y-95317714D01*
X126150941Y-95453548D01*
X126069258Y-95575795D01*
X125965295Y-95679758D01*
X125843048Y-95761441D01*
X125707214Y-95817705D01*
X125563013Y-95846389D01*
X125415987Y-95846389D01*
X125271786Y-95817705D01*
X125135952Y-95761441D01*
X125013705Y-95679758D01*
X124909742Y-95575795D01*
X124828059Y-95453548D01*
X124771795Y-95317714D01*
X124743111Y-95173513D01*
X124743111Y-95026487D01*
X124771795Y-94882286D01*
X124828059Y-94746452D01*
X124909742Y-94624205D01*
X125013705Y-94520242D01*
X125135952Y-94438559D01*
X125271786Y-94382295D01*
X125415987Y-94353611D01*
X125563013Y-94353611D01*
X125707214Y-94382295D01*
G37*
G36*
X131199034Y-93515764D02*
G01*
X131232125Y-93537875D01*
X131254236Y-93570966D01*
X131262000Y-93610000D01*
X131262000Y-93615010D01*
X131268308Y-93646728D01*
X131351688Y-93646730D01*
X131358000Y-93614998D01*
X131358000Y-93610000D01*
X131365764Y-93570966D01*
X131387875Y-93537875D01*
X131420966Y-93515764D01*
X131460000Y-93508000D01*
X131960000Y-93508000D01*
X131999034Y-93515764D01*
X132032125Y-93537875D01*
X132054236Y-93570966D01*
X132062000Y-93610000D01*
X132062000Y-93615010D01*
X132068308Y-93646728D01*
X132151688Y-93646730D01*
X132158000Y-93614998D01*
X132158000Y-93610000D01*
X132165764Y-93570966D01*
X132187875Y-93537875D01*
X132220966Y-93515764D01*
X132260000Y-93508000D01*
X132760000Y-93508000D01*
X132799034Y-93515764D01*
X132832125Y-93537875D01*
X132854236Y-93570966D01*
X132862000Y-93610000D01*
X132862000Y-93615010D01*
X132868308Y-93646728D01*
X132951688Y-93646730D01*
X132958000Y-93614998D01*
X132958000Y-93610000D01*
X132965764Y-93570966D01*
X132987875Y-93537875D01*
X133020966Y-93515764D01*
X133060000Y-93508000D01*
X133560000Y-93508000D01*
X133599034Y-93515764D01*
X133632125Y-93537875D01*
X133654236Y-93570966D01*
X133662000Y-93610000D01*
X133662000Y-93615010D01*
X133668308Y-93646728D01*
X133751688Y-93646730D01*
X133758000Y-93614998D01*
X133758000Y-93610000D01*
X133765764Y-93570966D01*
X133787875Y-93537875D01*
X133820966Y-93515764D01*
X133860000Y-93508000D01*
X134360000Y-93508000D01*
X134399034Y-93515764D01*
X134432125Y-93537875D01*
X134454236Y-93570966D01*
X134462000Y-93610000D01*
X134462000Y-93615010D01*
X134468308Y-93646728D01*
X134551688Y-93646730D01*
X134558000Y-93614998D01*
X134558000Y-93610000D01*
X134565764Y-93570966D01*
X134587875Y-93537875D01*
X134620966Y-93515764D01*
X134660000Y-93508000D01*
X135160000Y-93508000D01*
X135199034Y-93515764D01*
X135232125Y-93537875D01*
X135254236Y-93570966D01*
X135262000Y-93610000D01*
X135262000Y-93615010D01*
X135268308Y-93646728D01*
X135351688Y-93646730D01*
X135358000Y-93614998D01*
X135358000Y-93610000D01*
X135365764Y-93570966D01*
X135387875Y-93537875D01*
X135420966Y-93515764D01*
X135460000Y-93508000D01*
X135960000Y-93508000D01*
X135999034Y-93515764D01*
X136032125Y-93537875D01*
X136054236Y-93570966D01*
X136062000Y-93610000D01*
X136062000Y-93615010D01*
X136068308Y-93646728D01*
X136151688Y-93646730D01*
X136158000Y-93614998D01*
X136158000Y-93610000D01*
X136165764Y-93570966D01*
X136187875Y-93537875D01*
X136220966Y-93515764D01*
X136260000Y-93508000D01*
X136760000Y-93508000D01*
X136799034Y-93515764D01*
X136832125Y-93537875D01*
X136854236Y-93570966D01*
X136862000Y-93610000D01*
X136862000Y-93615010D01*
X136868308Y-93646728D01*
X136951688Y-93646730D01*
X136958000Y-93614998D01*
X136958000Y-93610000D01*
X136965764Y-93570966D01*
X136987875Y-93537875D01*
X137020966Y-93515764D01*
X137060000Y-93508000D01*
X137560000Y-93508000D01*
X137599034Y-93515764D01*
X137632125Y-93537875D01*
X137654236Y-93570966D01*
X137662000Y-93610000D01*
X137662000Y-93615010D01*
X137668308Y-93646728D01*
X137751688Y-93646730D01*
X137758000Y-93614998D01*
X137758000Y-93610000D01*
X137765764Y-93570966D01*
X137787875Y-93537875D01*
X137820966Y-93515764D01*
X137860000Y-93508000D01*
X138360000Y-93508000D01*
X138399034Y-93515764D01*
X138432125Y-93537875D01*
X138454236Y-93570966D01*
X138462000Y-93610000D01*
X138462000Y-94610000D01*
X138454236Y-94649034D01*
X138432125Y-94682125D01*
X138399034Y-94704236D01*
X138360000Y-94712000D01*
X137860000Y-94712000D01*
X137820966Y-94704236D01*
X137787875Y-94682125D01*
X137765764Y-94649034D01*
X137758000Y-94610000D01*
X137758000Y-94604995D01*
X137751690Y-94573270D01*
X137668310Y-94573270D01*
X137662000Y-94604993D01*
X137662000Y-94610000D01*
X137654236Y-94649034D01*
X137632125Y-94682125D01*
X137599034Y-94704236D01*
X137560000Y-94712000D01*
X137060000Y-94712000D01*
X137020966Y-94704236D01*
X136987875Y-94682125D01*
X136965764Y-94649034D01*
X136958000Y-94610000D01*
X136958000Y-94604995D01*
X136951690Y-94573270D01*
X136868310Y-94573270D01*
X136862000Y-94604993D01*
X136862000Y-94610000D01*
X136854236Y-94649034D01*
X136832125Y-94682125D01*
X136799034Y-94704236D01*
X136760000Y-94712000D01*
X136260000Y-94712000D01*
X136220966Y-94704236D01*
X136187875Y-94682125D01*
X136165764Y-94649034D01*
X136158000Y-94610000D01*
X136158000Y-94604995D01*
X136151690Y-94573270D01*
X136068310Y-94573270D01*
X136062000Y-94604993D01*
X136062000Y-94610000D01*
X136054236Y-94649034D01*
X136032125Y-94682125D01*
X135999034Y-94704236D01*
X135960000Y-94712000D01*
X135460000Y-94712000D01*
X135420966Y-94704236D01*
X135387875Y-94682125D01*
X135365764Y-94649034D01*
X135358000Y-94610000D01*
X135358000Y-94604995D01*
X135351690Y-94573270D01*
X135268310Y-94573270D01*
X135262000Y-94604993D01*
X135262000Y-94610000D01*
X135254236Y-94649034D01*
X135232125Y-94682125D01*
X135199034Y-94704236D01*
X135160000Y-94712000D01*
X134660000Y-94712000D01*
X134620966Y-94704236D01*
X134587875Y-94682125D01*
X134565764Y-94649034D01*
X134558000Y-94610000D01*
X134558000Y-94604995D01*
X134551690Y-94573270D01*
X134468310Y-94573270D01*
X134462000Y-94604993D01*
X134462000Y-94610000D01*
X134454236Y-94649034D01*
X134432125Y-94682125D01*
X134399034Y-94704236D01*
X134360000Y-94712000D01*
X133860000Y-94712000D01*
X133820966Y-94704236D01*
X133787875Y-94682125D01*
X133765764Y-94649034D01*
X133758000Y-94610000D01*
X133758000Y-94604995D01*
X133751690Y-94573270D01*
X133668310Y-94573270D01*
X133662000Y-94604993D01*
X133662000Y-94610000D01*
X133654236Y-94649034D01*
X133632125Y-94682125D01*
X133599034Y-94704236D01*
X133560000Y-94712000D01*
X133060000Y-94712000D01*
X133020966Y-94704236D01*
X132987875Y-94682125D01*
X132965764Y-94649034D01*
X132958000Y-94610000D01*
X132958000Y-94604995D01*
X132951690Y-94573270D01*
X132868310Y-94573270D01*
X132862000Y-94604993D01*
X132862000Y-94610000D01*
X132854236Y-94649034D01*
X132832125Y-94682125D01*
X132799034Y-94704236D01*
X132760000Y-94712000D01*
X132260000Y-94712000D01*
X132220966Y-94704236D01*
X132187875Y-94682125D01*
X132165764Y-94649034D01*
X132158000Y-94610000D01*
X132158000Y-94604995D01*
X132151690Y-94573270D01*
X132068310Y-94573270D01*
X132062000Y-94604993D01*
X132062000Y-94610000D01*
X132054236Y-94649034D01*
X132032125Y-94682125D01*
X131999034Y-94704236D01*
X131960000Y-94712000D01*
X131460000Y-94712000D01*
X131420966Y-94704236D01*
X131387875Y-94682125D01*
X131365764Y-94649034D01*
X131358000Y-94610000D01*
X131358000Y-94604995D01*
X131351690Y-94573270D01*
X131268310Y-94573270D01*
X131262000Y-94604993D01*
X131262000Y-94610000D01*
X131254236Y-94649034D01*
X131232125Y-94682125D01*
X131199034Y-94704236D01*
X131160000Y-94712000D01*
X130660000Y-94712000D01*
X130620966Y-94704236D01*
X130587875Y-94682125D01*
X130565764Y-94649034D01*
X130558000Y-94610000D01*
X130558000Y-93610000D01*
X130565764Y-93570966D01*
X130587875Y-93537875D01*
X130620966Y-93515764D01*
X130660000Y-93508000D01*
X131160000Y-93508000D01*
X131199034Y-93515764D01*
G37*
G36*
X143717214Y-92392295D02*
G01*
X143853048Y-92448559D01*
X143975295Y-92530242D01*
X144079258Y-92634205D01*
X144160941Y-92756452D01*
X144217205Y-92892286D01*
X144245889Y-93036487D01*
X144245889Y-93183513D01*
X144217205Y-93327714D01*
X144160941Y-93463548D01*
X144079258Y-93585795D01*
X143975295Y-93689758D01*
X143853048Y-93771441D01*
X143717214Y-93827705D01*
X143573013Y-93856389D01*
X143425987Y-93856389D01*
X143281786Y-93827705D01*
X143145952Y-93771441D01*
X143023705Y-93689758D01*
X142919742Y-93585795D01*
X142838059Y-93463548D01*
X142781795Y-93327714D01*
X142753111Y-93183513D01*
X142753111Y-93036487D01*
X142781795Y-92892286D01*
X142838059Y-92756452D01*
X142919742Y-92634205D01*
X143023705Y-92530242D01*
X143145952Y-92448559D01*
X143281786Y-92392295D01*
X143425987Y-92363611D01*
X143573013Y-92363611D01*
X143717214Y-92392295D01*
G37*
G36*
X125707214Y-92382295D02*
G01*
X125843048Y-92438559D01*
X125965295Y-92520242D01*
X126069258Y-92624205D01*
X126150941Y-92746452D01*
X126207205Y-92882286D01*
X126235889Y-93026487D01*
X126235889Y-93173513D01*
X126207205Y-93317714D01*
X126150941Y-93453548D01*
X126069258Y-93575795D01*
X125965295Y-93679758D01*
X125843048Y-93761441D01*
X125707214Y-93817705D01*
X125563013Y-93846389D01*
X125415987Y-93846389D01*
X125271786Y-93817705D01*
X125135952Y-93761441D01*
X125013705Y-93679758D01*
X124909742Y-93575795D01*
X124828059Y-93453548D01*
X124771795Y-93317714D01*
X124743111Y-93173513D01*
X124743111Y-93026487D01*
X124771795Y-92882286D01*
X124828059Y-92746452D01*
X124909742Y-92624205D01*
X125013705Y-92520242D01*
X125135952Y-92438559D01*
X125271786Y-92382295D01*
X125415987Y-92353611D01*
X125563013Y-92353611D01*
X125707214Y-92382295D01*
G37*
G36*
X130249034Y-91315764D02*
G01*
X130282125Y-91337875D01*
X130304236Y-91370966D01*
X130312000Y-91410000D01*
X130312000Y-93110000D01*
X130304236Y-93149034D01*
X130282125Y-93182125D01*
X130249034Y-93204236D01*
X130210000Y-93212000D01*
X129010000Y-93212000D01*
X128970966Y-93204236D01*
X128937875Y-93182125D01*
X128915764Y-93149034D01*
X128908000Y-93110000D01*
X128908000Y-91410000D01*
X128915764Y-91370966D01*
X128937875Y-91337875D01*
X128970966Y-91315764D01*
X129010000Y-91308000D01*
X130210000Y-91308000D01*
X130249034Y-91315764D01*
G37*
G36*
X140049034Y-91315764D02*
G01*
X140082125Y-91337875D01*
X140104236Y-91370966D01*
X140112000Y-91410000D01*
X140112000Y-93110000D01*
X140104236Y-93149034D01*
X140082125Y-93182125D01*
X140049034Y-93204236D01*
X140010000Y-93212000D01*
X138810000Y-93212000D01*
X138770966Y-93204236D01*
X138737875Y-93182125D01*
X138715764Y-93149034D01*
X138708000Y-93110000D01*
X138708000Y-91410000D01*
X138715764Y-91370966D01*
X138737875Y-91337875D01*
X138770966Y-91315764D01*
X138810000Y-91308000D01*
X140010000Y-91308000D01*
X140049034Y-91315764D01*
G37*
M02*
