%TF.GenerationSoftware,KiCad,Pcbnew,10.0.4-10.0.4~ubuntu24.04.1*%
%TF.CreationDate,2026-06-30T15:28:47+09:00*%
%TF.ProjectId,4x4,3478342e-6b69-4636-9164-5f7063625858,rev?*%
%TF.SameCoordinates,Original*%
%TF.FileFunction,Paste,Top*%
%TF.FilePolarity,Positive*%
%FSLAX46Y46*%
G04 Gerber Fmt 4.6, Leading zero omitted, Abs format (unit mm)*
G04 Created by KiCad (PCBNEW 10.0.4-10.0.4~ubuntu24.04.1) date 2026-06-30 15:28:47*
%MOMM*%
%LPD*%
G01*
G04 APERTURE LIST*
%ADD10C,0.010000*%
%ADD11R,0.220000X0.460000*%
%ADD12R,0.500000X1.000000*%
%ADD13R,1.200000X1.700000*%
G04 APERTURE END LIST*
%TO.C,X5*%
D10*
X131690000Y-96240000D02*
X132050000Y-96240000D01*
X132050000Y-96860000D01*
X131690000Y-96860000D01*
X131690000Y-96240000D01*
G36*
X131690000Y-96240000D02*
G01*
X132050000Y-96240000D01*
X132050000Y-96860000D01*
X131690000Y-96860000D01*
X131690000Y-96240000D01*
G37*
X132250000Y-96240000D02*
X132610000Y-96240000D01*
X132610000Y-96860000D01*
X132250000Y-96860000D01*
X132250000Y-96240000D01*
G36*
X132250000Y-96240000D02*
G01*
X132610000Y-96240000D01*
X132610000Y-96860000D01*
X132250000Y-96860000D01*
X132250000Y-96240000D01*
G37*
%TO.C,X2*%
X126990000Y-100940000D02*
X127350000Y-100940000D01*
X127350000Y-101560000D01*
X126990000Y-101560000D01*
X126990000Y-100940000D01*
G36*
X126990000Y-100940000D02*
G01*
X127350000Y-100940000D01*
X127350000Y-101560000D01*
X126990000Y-101560000D01*
X126990000Y-100940000D01*
G37*
X127550000Y-100940000D02*
X127910000Y-100940000D01*
X127910000Y-101560000D01*
X127550000Y-101560000D01*
X127550000Y-100940000D01*
G36*
X127550000Y-100940000D02*
G01*
X127910000Y-100940000D01*
X127910000Y-101560000D01*
X127550000Y-101560000D01*
X127550000Y-100940000D01*
G37*
%TO.C,X14*%
X141090000Y-100940000D02*
X141450000Y-100940000D01*
X141450000Y-101560000D01*
X141090000Y-101560000D01*
X141090000Y-100940000D01*
G36*
X141090000Y-100940000D02*
G01*
X141450000Y-100940000D01*
X141450000Y-101560000D01*
X141090000Y-101560000D01*
X141090000Y-100940000D01*
G37*
X141650000Y-100940000D02*
X142010000Y-100940000D01*
X142010000Y-101560000D01*
X141650000Y-101560000D01*
X141650000Y-100940000D01*
G36*
X141650000Y-100940000D02*
G01*
X142010000Y-100940000D01*
X142010000Y-101560000D01*
X141650000Y-101560000D01*
X141650000Y-100940000D01*
G37*
%TO.C,X6*%
X131690000Y-100940000D02*
X132050000Y-100940000D01*
X132050000Y-101560000D01*
X131690000Y-101560000D01*
X131690000Y-100940000D01*
G36*
X131690000Y-100940000D02*
G01*
X132050000Y-100940000D01*
X132050000Y-101560000D01*
X131690000Y-101560000D01*
X131690000Y-100940000D01*
G37*
X132250000Y-100940000D02*
X132610000Y-100940000D01*
X132610000Y-101560000D01*
X132250000Y-101560000D01*
X132250000Y-100940000D01*
G36*
X132250000Y-100940000D02*
G01*
X132610000Y-100940000D01*
X132610000Y-101560000D01*
X132250000Y-101560000D01*
X132250000Y-100940000D01*
G37*
%TO.C,X1*%
X126990000Y-96240000D02*
X127350000Y-96240000D01*
X127350000Y-96860000D01*
X126990000Y-96860000D01*
X126990000Y-96240000D01*
G36*
X126990000Y-96240000D02*
G01*
X127350000Y-96240000D01*
X127350000Y-96860000D01*
X126990000Y-96860000D01*
X126990000Y-96240000D01*
G37*
X127550000Y-96240000D02*
X127910000Y-96240000D01*
X127910000Y-96860000D01*
X127550000Y-96860000D01*
X127550000Y-96240000D01*
G36*
X127550000Y-96240000D02*
G01*
X127910000Y-96240000D01*
X127910000Y-96860000D01*
X127550000Y-96860000D01*
X127550000Y-96240000D01*
G37*
%TO.C,X3*%
X126990000Y-105640000D02*
X127350000Y-105640000D01*
X127350000Y-106260000D01*
X126990000Y-106260000D01*
X126990000Y-105640000D01*
G36*
X126990000Y-105640000D02*
G01*
X127350000Y-105640000D01*
X127350000Y-106260000D01*
X126990000Y-106260000D01*
X126990000Y-105640000D01*
G37*
X127550000Y-105640000D02*
X127910000Y-105640000D01*
X127910000Y-106260000D01*
X127550000Y-106260000D01*
X127550000Y-105640000D01*
G36*
X127550000Y-105640000D02*
G01*
X127910000Y-105640000D01*
X127910000Y-106260000D01*
X127550000Y-106260000D01*
X127550000Y-105640000D01*
G37*
%TO.C,X11*%
X136390000Y-105640000D02*
X136750000Y-105640000D01*
X136750000Y-106260000D01*
X136390000Y-106260000D01*
X136390000Y-105640000D01*
G36*
X136390000Y-105640000D02*
G01*
X136750000Y-105640000D01*
X136750000Y-106260000D01*
X136390000Y-106260000D01*
X136390000Y-105640000D01*
G37*
X136950000Y-105640000D02*
X137310000Y-105640000D01*
X137310000Y-106260000D01*
X136950000Y-106260000D01*
X136950000Y-105640000D01*
G36*
X136950000Y-105640000D02*
G01*
X137310000Y-105640000D01*
X137310000Y-106260000D01*
X136950000Y-106260000D01*
X136950000Y-105640000D01*
G37*
%TO.C,X15*%
X141090000Y-105640000D02*
X141450000Y-105640000D01*
X141450000Y-106260000D01*
X141090000Y-106260000D01*
X141090000Y-105640000D01*
G36*
X141090000Y-105640000D02*
G01*
X141450000Y-105640000D01*
X141450000Y-106260000D01*
X141090000Y-106260000D01*
X141090000Y-105640000D01*
G37*
X141650000Y-105640000D02*
X142010000Y-105640000D01*
X142010000Y-106260000D01*
X141650000Y-106260000D01*
X141650000Y-105640000D01*
G36*
X141650000Y-105640000D02*
G01*
X142010000Y-105640000D01*
X142010000Y-106260000D01*
X141650000Y-106260000D01*
X141650000Y-105640000D01*
G37*
%TO.C,X16*%
X141090000Y-110340000D02*
X141450000Y-110340000D01*
X141450000Y-110960000D01*
X141090000Y-110960000D01*
X141090000Y-110340000D01*
G36*
X141090000Y-110340000D02*
G01*
X141450000Y-110340000D01*
X141450000Y-110960000D01*
X141090000Y-110960000D01*
X141090000Y-110340000D01*
G37*
X141650000Y-110340000D02*
X142010000Y-110340000D01*
X142010000Y-110960000D01*
X141650000Y-110960000D01*
X141650000Y-110340000D01*
G36*
X141650000Y-110340000D02*
G01*
X142010000Y-110340000D01*
X142010000Y-110960000D01*
X141650000Y-110960000D01*
X141650000Y-110340000D01*
G37*
%TO.C,X10*%
X136390000Y-100940000D02*
X136750000Y-100940000D01*
X136750000Y-101560000D01*
X136390000Y-101560000D01*
X136390000Y-100940000D01*
G36*
X136390000Y-100940000D02*
G01*
X136750000Y-100940000D01*
X136750000Y-101560000D01*
X136390000Y-101560000D01*
X136390000Y-100940000D01*
G37*
X136950000Y-100940000D02*
X137310000Y-100940000D01*
X137310000Y-101560000D01*
X136950000Y-101560000D01*
X136950000Y-100940000D01*
G36*
X136950000Y-100940000D02*
G01*
X137310000Y-100940000D01*
X137310000Y-101560000D01*
X136950000Y-101560000D01*
X136950000Y-100940000D01*
G37*
%TO.C,X13*%
X141090000Y-96240000D02*
X141450000Y-96240000D01*
X141450000Y-96860000D01*
X141090000Y-96860000D01*
X141090000Y-96240000D01*
G36*
X141090000Y-96240000D02*
G01*
X141450000Y-96240000D01*
X141450000Y-96860000D01*
X141090000Y-96860000D01*
X141090000Y-96240000D01*
G37*
X141650000Y-96240000D02*
X142010000Y-96240000D01*
X142010000Y-96860000D01*
X141650000Y-96860000D01*
X141650000Y-96240000D01*
G36*
X141650000Y-96240000D02*
G01*
X142010000Y-96240000D01*
X142010000Y-96860000D01*
X141650000Y-96860000D01*
X141650000Y-96240000D01*
G37*
%TO.C,X4*%
X126990000Y-110340000D02*
X127350000Y-110340000D01*
X127350000Y-110960000D01*
X126990000Y-110960000D01*
X126990000Y-110340000D01*
G36*
X126990000Y-110340000D02*
G01*
X127350000Y-110340000D01*
X127350000Y-110960000D01*
X126990000Y-110960000D01*
X126990000Y-110340000D01*
G37*
X127550000Y-110340000D02*
X127910000Y-110340000D01*
X127910000Y-110960000D01*
X127550000Y-110960000D01*
X127550000Y-110340000D01*
G36*
X127550000Y-110340000D02*
G01*
X127910000Y-110340000D01*
X127910000Y-110960000D01*
X127550000Y-110960000D01*
X127550000Y-110340000D01*
G37*
%TO.C,X8*%
X131690000Y-110340000D02*
X132050000Y-110340000D01*
X132050000Y-110960000D01*
X131690000Y-110960000D01*
X131690000Y-110340000D01*
G36*
X131690000Y-110340000D02*
G01*
X132050000Y-110340000D01*
X132050000Y-110960000D01*
X131690000Y-110960000D01*
X131690000Y-110340000D01*
G37*
X132250000Y-110340000D02*
X132610000Y-110340000D01*
X132610000Y-110960000D01*
X132250000Y-110960000D01*
X132250000Y-110340000D01*
G36*
X132250000Y-110340000D02*
G01*
X132610000Y-110340000D01*
X132610000Y-110960000D01*
X132250000Y-110960000D01*
X132250000Y-110340000D01*
G37*
%TO.C,X7*%
X131690000Y-105640000D02*
X132050000Y-105640000D01*
X132050000Y-106260000D01*
X131690000Y-106260000D01*
X131690000Y-105640000D01*
G36*
X131690000Y-105640000D02*
G01*
X132050000Y-105640000D01*
X132050000Y-106260000D01*
X131690000Y-106260000D01*
X131690000Y-105640000D01*
G37*
X132250000Y-105640000D02*
X132610000Y-105640000D01*
X132610000Y-106260000D01*
X132250000Y-106260000D01*
X132250000Y-105640000D01*
G36*
X132250000Y-105640000D02*
G01*
X132610000Y-105640000D01*
X132610000Y-106260000D01*
X132250000Y-106260000D01*
X132250000Y-105640000D01*
G37*
%TO.C,X12*%
X136390000Y-110340000D02*
X136750000Y-110340000D01*
X136750000Y-110960000D01*
X136390000Y-110960000D01*
X136390000Y-110340000D01*
G36*
X136390000Y-110340000D02*
G01*
X136750000Y-110340000D01*
X136750000Y-110960000D01*
X136390000Y-110960000D01*
X136390000Y-110340000D01*
G37*
X136950000Y-110340000D02*
X137310000Y-110340000D01*
X137310000Y-110960000D01*
X136950000Y-110960000D01*
X136950000Y-110340000D01*
G36*
X136950000Y-110340000D02*
G01*
X137310000Y-110340000D01*
X137310000Y-110960000D01*
X136950000Y-110960000D01*
X136950000Y-110340000D01*
G37*
%TO.C,X9*%
X136390000Y-96240000D02*
X136750000Y-96240000D01*
X136750000Y-96860000D01*
X136390000Y-96860000D01*
X136390000Y-96240000D01*
G36*
X136390000Y-96240000D02*
G01*
X136750000Y-96240000D01*
X136750000Y-96860000D01*
X136390000Y-96860000D01*
X136390000Y-96240000D01*
G37*
X136950000Y-96240000D02*
X137310000Y-96240000D01*
X137310000Y-96860000D01*
X136950000Y-96860000D01*
X136950000Y-96240000D01*
G36*
X136950000Y-96240000D02*
G01*
X137310000Y-96240000D01*
X137310000Y-96860000D01*
X136950000Y-96860000D01*
X136950000Y-96240000D01*
G37*
%TD*%
D11*
%TO.C,X5*%
X131650000Y-97320000D03*
X132150000Y-97320000D03*
X132650000Y-97320000D03*
X132650000Y-95780000D03*
X132150000Y-95780000D03*
X131650000Y-95780000D03*
%TD*%
%TO.C,X2*%
X126950000Y-102020000D03*
X127450000Y-102020000D03*
X127950000Y-102020000D03*
X127950000Y-100480000D03*
X127450000Y-100480000D03*
X126950000Y-100480000D03*
%TD*%
%TO.C,X14*%
X141050000Y-102020000D03*
X141550000Y-102020000D03*
X142050000Y-102020000D03*
X142050000Y-100480000D03*
X141550000Y-100480000D03*
X141050000Y-100480000D03*
%TD*%
D12*
%TO.C,J2*%
X138110000Y-94110000D03*
X137310000Y-94110000D03*
X136510000Y-94110000D03*
X135710000Y-94110000D03*
X134910000Y-94110000D03*
X134110000Y-94110000D03*
X133310000Y-94110000D03*
X132510000Y-94110000D03*
X131710000Y-94110000D03*
X130910000Y-94110000D03*
D13*
X139410000Y-92260000D03*
X129610000Y-92260000D03*
%TD*%
D11*
%TO.C,X6*%
X131650000Y-102020000D03*
X132150000Y-102020000D03*
X132650000Y-102020000D03*
X132650000Y-100480000D03*
X132150000Y-100480000D03*
X131650000Y-100480000D03*
%TD*%
%TO.C,X1*%
X126950000Y-97320000D03*
X127450000Y-97320000D03*
X127950000Y-97320000D03*
X127950000Y-95780000D03*
X127450000Y-95780000D03*
X126950000Y-95780000D03*
%TD*%
%TO.C,X3*%
X126950000Y-106720000D03*
X127450000Y-106720000D03*
X127950000Y-106720000D03*
X127950000Y-105180000D03*
X127450000Y-105180000D03*
X126950000Y-105180000D03*
%TD*%
%TO.C,X11*%
X136350000Y-106720000D03*
X136850000Y-106720000D03*
X137350000Y-106720000D03*
X137350000Y-105180000D03*
X136850000Y-105180000D03*
X136350000Y-105180000D03*
%TD*%
%TO.C,X15*%
X141050000Y-106720000D03*
X141550000Y-106720000D03*
X142050000Y-106720000D03*
X142050000Y-105180000D03*
X141550000Y-105180000D03*
X141050000Y-105180000D03*
%TD*%
%TO.C,X16*%
X141050000Y-111420000D03*
X141550000Y-111420000D03*
X142050000Y-111420000D03*
X142050000Y-109880000D03*
X141550000Y-109880000D03*
X141050000Y-109880000D03*
%TD*%
%TO.C,X10*%
X136350000Y-102020000D03*
X136850000Y-102020000D03*
X137350000Y-102020000D03*
X137350000Y-100480000D03*
X136850000Y-100480000D03*
X136350000Y-100480000D03*
%TD*%
%TO.C,X13*%
X141050000Y-97320000D03*
X141550000Y-97320000D03*
X142050000Y-97320000D03*
X142050000Y-95780000D03*
X141550000Y-95780000D03*
X141050000Y-95780000D03*
%TD*%
%TO.C,X4*%
X126950000Y-111420000D03*
X127450000Y-111420000D03*
X127950000Y-111420000D03*
X127950000Y-109880000D03*
X127450000Y-109880000D03*
X126950000Y-109880000D03*
%TD*%
%TO.C,X8*%
X131650000Y-111420000D03*
X132150000Y-111420000D03*
X132650000Y-111420000D03*
X132650000Y-109880000D03*
X132150000Y-109880000D03*
X131650000Y-109880000D03*
%TD*%
%TO.C,X7*%
X131650000Y-106720000D03*
X132150000Y-106720000D03*
X132650000Y-106720000D03*
X132650000Y-105180000D03*
X132150000Y-105180000D03*
X131650000Y-105180000D03*
%TD*%
%TO.C,X12*%
X136350000Y-111420000D03*
X136850000Y-111420000D03*
X137350000Y-111420000D03*
X137350000Y-109880000D03*
X136850000Y-109880000D03*
X136350000Y-109880000D03*
%TD*%
%TO.C,X9*%
X136350000Y-97320000D03*
X136850000Y-97320000D03*
X137350000Y-97320000D03*
X137350000Y-95780000D03*
X136850000Y-95780000D03*
X136350000Y-95780000D03*
%TD*%
M02*
