%TF.GenerationSoftware,KiCad,Pcbnew,10.0.4-10.0.4~ubuntu24.04.1*%
%TF.CreationDate,2026-06-30T15:28:47+09:00*%
%TF.ProjectId,4x4,3478342e-6b69-4636-9164-5f7063625858,rev?*%
%TF.SameCoordinates,Original*%
%TF.FileFunction,Soldermask,Bot*%
%TF.FilePolarity,Negative*%
%FSLAX46Y46*%
G04 Gerber Fmt 4.6, Leading zero omitted, Abs format (unit mm)*
G04 Created by KiCad (PCBNEW 10.0.4-10.0.4~ubuntu24.04.1) date 2026-06-30 15:28:47*
%MOMM*%
%LPD*%
G01*
G04 APERTURE LIST*
G04 APERTURE END LIST*
G36*
X130489034Y-110879764D02*
G01*
X130522125Y-110901875D01*
X130544236Y-110934966D01*
X130552000Y-110974000D01*
X130552000Y-111514000D01*
X130544236Y-111553034D01*
X130522125Y-111586125D01*
X130489034Y-111608236D01*
X130450000Y-111616000D01*
X129850000Y-111616000D01*
X129810966Y-111608236D01*
X129777875Y-111586125D01*
X129755764Y-111553034D01*
X129748000Y-111514000D01*
X129748000Y-110974000D01*
X129755764Y-110934966D01*
X129777875Y-110901875D01*
X129810966Y-110879764D01*
X129850000Y-110872000D01*
X130450000Y-110872000D01*
X130489034Y-110879764D01*
G37*
G36*
X135189034Y-110879764D02*
G01*
X135222125Y-110901875D01*
X135244236Y-110934966D01*
X135252000Y-110974000D01*
X135252000Y-111514000D01*
X135244236Y-111553034D01*
X135222125Y-111586125D01*
X135189034Y-111608236D01*
X135150000Y-111616000D01*
X134550000Y-111616000D01*
X134510966Y-111608236D01*
X134477875Y-111586125D01*
X134455764Y-111553034D01*
X134448000Y-111514000D01*
X134448000Y-110974000D01*
X134455764Y-110934966D01*
X134477875Y-110901875D01*
X134510966Y-110879764D01*
X134550000Y-110872000D01*
X135150000Y-110872000D01*
X135189034Y-110879764D01*
G37*
G36*
X139889034Y-110879764D02*
G01*
X139922125Y-110901875D01*
X139944236Y-110934966D01*
X139952000Y-110974000D01*
X139952000Y-111514000D01*
X139944236Y-111553034D01*
X139922125Y-111586125D01*
X139889034Y-111608236D01*
X139850000Y-111616000D01*
X139250000Y-111616000D01*
X139210966Y-111608236D01*
X139177875Y-111586125D01*
X139155764Y-111553034D01*
X139148000Y-111514000D01*
X139148000Y-110974000D01*
X139155764Y-110934966D01*
X139177875Y-110901875D01*
X139210966Y-110879764D01*
X139250000Y-110872000D01*
X139850000Y-110872000D01*
X139889034Y-110879764D01*
G37*
G36*
X125789034Y-110867764D02*
G01*
X125822125Y-110889875D01*
X125844236Y-110922966D01*
X125852000Y-110962000D01*
X125852000Y-111502000D01*
X125844236Y-111541034D01*
X125822125Y-111574125D01*
X125789034Y-111596236D01*
X125750000Y-111604000D01*
X125150000Y-111604000D01*
X125110966Y-111596236D01*
X125077875Y-111574125D01*
X125055764Y-111541034D01*
X125048000Y-111502000D01*
X125048000Y-110962000D01*
X125055764Y-110922966D01*
X125077875Y-110889875D01*
X125110966Y-110867764D01*
X125150000Y-110860000D01*
X125750000Y-110860000D01*
X125789034Y-110867764D01*
G37*
G36*
X130489034Y-110015764D02*
G01*
X130522125Y-110037875D01*
X130544236Y-110070966D01*
X130552000Y-110110000D01*
X130552000Y-110650000D01*
X130544236Y-110689034D01*
X130522125Y-110722125D01*
X130489034Y-110744236D01*
X130450000Y-110752000D01*
X129850000Y-110752000D01*
X129810966Y-110744236D01*
X129777875Y-110722125D01*
X129755764Y-110689034D01*
X129748000Y-110650000D01*
X129748000Y-110110000D01*
X129755764Y-110070966D01*
X129777875Y-110037875D01*
X129810966Y-110015764D01*
X129850000Y-110008000D01*
X130450000Y-110008000D01*
X130489034Y-110015764D01*
G37*
G36*
X135189034Y-110015764D02*
G01*
X135222125Y-110037875D01*
X135244236Y-110070966D01*
X135252000Y-110110000D01*
X135252000Y-110650000D01*
X135244236Y-110689034D01*
X135222125Y-110722125D01*
X135189034Y-110744236D01*
X135150000Y-110752000D01*
X134550000Y-110752000D01*
X134510966Y-110744236D01*
X134477875Y-110722125D01*
X134455764Y-110689034D01*
X134448000Y-110650000D01*
X134448000Y-110110000D01*
X134455764Y-110070966D01*
X134477875Y-110037875D01*
X134510966Y-110015764D01*
X134550000Y-110008000D01*
X135150000Y-110008000D01*
X135189034Y-110015764D01*
G37*
G36*
X139889034Y-110015764D02*
G01*
X139922125Y-110037875D01*
X139944236Y-110070966D01*
X139952000Y-110110000D01*
X139952000Y-110650000D01*
X139944236Y-110689034D01*
X139922125Y-110722125D01*
X139889034Y-110744236D01*
X139850000Y-110752000D01*
X139250000Y-110752000D01*
X139210966Y-110744236D01*
X139177875Y-110722125D01*
X139155764Y-110689034D01*
X139148000Y-110650000D01*
X139148000Y-110110000D01*
X139155764Y-110070966D01*
X139177875Y-110037875D01*
X139210966Y-110015764D01*
X139250000Y-110008000D01*
X139850000Y-110008000D01*
X139889034Y-110015764D01*
G37*
G36*
X125789034Y-110003764D02*
G01*
X125822125Y-110025875D01*
X125844236Y-110058966D01*
X125852000Y-110098000D01*
X125852000Y-110638000D01*
X125844236Y-110677034D01*
X125822125Y-110710125D01*
X125789034Y-110732236D01*
X125750000Y-110740000D01*
X125150000Y-110740000D01*
X125110966Y-110732236D01*
X125077875Y-110710125D01*
X125055764Y-110677034D01*
X125048000Y-110638000D01*
X125048000Y-110098000D01*
X125055764Y-110058966D01*
X125077875Y-110025875D01*
X125110966Y-110003764D01*
X125150000Y-109996000D01*
X125750000Y-109996000D01*
X125789034Y-110003764D01*
G37*
G36*
X125789034Y-106179764D02*
G01*
X125822125Y-106201875D01*
X125844236Y-106234966D01*
X125852000Y-106274000D01*
X125852000Y-106814000D01*
X125844236Y-106853034D01*
X125822125Y-106886125D01*
X125789034Y-106908236D01*
X125750000Y-106916000D01*
X125150000Y-106916000D01*
X125110966Y-106908236D01*
X125077875Y-106886125D01*
X125055764Y-106853034D01*
X125048000Y-106814000D01*
X125048000Y-106274000D01*
X125055764Y-106234966D01*
X125077875Y-106201875D01*
X125110966Y-106179764D01*
X125150000Y-106172000D01*
X125750000Y-106172000D01*
X125789034Y-106179764D01*
G37*
G36*
X130489034Y-106179764D02*
G01*
X130522125Y-106201875D01*
X130544236Y-106234966D01*
X130552000Y-106274000D01*
X130552000Y-106814000D01*
X130544236Y-106853034D01*
X130522125Y-106886125D01*
X130489034Y-106908236D01*
X130450000Y-106916000D01*
X129850000Y-106916000D01*
X129810966Y-106908236D01*
X129777875Y-106886125D01*
X129755764Y-106853034D01*
X129748000Y-106814000D01*
X129748000Y-106274000D01*
X129755764Y-106234966D01*
X129777875Y-106201875D01*
X129810966Y-106179764D01*
X129850000Y-106172000D01*
X130450000Y-106172000D01*
X130489034Y-106179764D01*
G37*
G36*
X135189034Y-106179764D02*
G01*
X135222125Y-106201875D01*
X135244236Y-106234966D01*
X135252000Y-106274000D01*
X135252000Y-106814000D01*
X135244236Y-106853034D01*
X135222125Y-106886125D01*
X135189034Y-106908236D01*
X135150000Y-106916000D01*
X134550000Y-106916000D01*
X134510966Y-106908236D01*
X134477875Y-106886125D01*
X134455764Y-106853034D01*
X134448000Y-106814000D01*
X134448000Y-106274000D01*
X134455764Y-106234966D01*
X134477875Y-106201875D01*
X134510966Y-106179764D01*
X134550000Y-106172000D01*
X135150000Y-106172000D01*
X135189034Y-106179764D01*
G37*
G36*
X139889034Y-106179764D02*
G01*
X139922125Y-106201875D01*
X139944236Y-106234966D01*
X139952000Y-106274000D01*
X139952000Y-106814000D01*
X139944236Y-106853034D01*
X139922125Y-106886125D01*
X139889034Y-106908236D01*
X139850000Y-106916000D01*
X139250000Y-106916000D01*
X139210966Y-106908236D01*
X139177875Y-106886125D01*
X139155764Y-106853034D01*
X139148000Y-106814000D01*
X139148000Y-106274000D01*
X139155764Y-106234966D01*
X139177875Y-106201875D01*
X139210966Y-106179764D01*
X139250000Y-106172000D01*
X139850000Y-106172000D01*
X139889034Y-106179764D01*
G37*
G36*
X125789034Y-105315764D02*
G01*
X125822125Y-105337875D01*
X125844236Y-105370966D01*
X125852000Y-105410000D01*
X125852000Y-105950000D01*
X125844236Y-105989034D01*
X125822125Y-106022125D01*
X125789034Y-106044236D01*
X125750000Y-106052000D01*
X125150000Y-106052000D01*
X125110966Y-106044236D01*
X125077875Y-106022125D01*
X125055764Y-105989034D01*
X125048000Y-105950000D01*
X125048000Y-105410000D01*
X125055764Y-105370966D01*
X125077875Y-105337875D01*
X125110966Y-105315764D01*
X125150000Y-105308000D01*
X125750000Y-105308000D01*
X125789034Y-105315764D01*
G37*
G36*
X130489034Y-105315764D02*
G01*
X130522125Y-105337875D01*
X130544236Y-105370966D01*
X130552000Y-105410000D01*
X130552000Y-105950000D01*
X130544236Y-105989034D01*
X130522125Y-106022125D01*
X130489034Y-106044236D01*
X130450000Y-106052000D01*
X129850000Y-106052000D01*
X129810966Y-106044236D01*
X129777875Y-106022125D01*
X129755764Y-105989034D01*
X129748000Y-105950000D01*
X129748000Y-105410000D01*
X129755764Y-105370966D01*
X129777875Y-105337875D01*
X129810966Y-105315764D01*
X129850000Y-105308000D01*
X130450000Y-105308000D01*
X130489034Y-105315764D01*
G37*
G36*
X135189034Y-105315764D02*
G01*
X135222125Y-105337875D01*
X135244236Y-105370966D01*
X135252000Y-105410000D01*
X135252000Y-105950000D01*
X135244236Y-105989034D01*
X135222125Y-106022125D01*
X135189034Y-106044236D01*
X135150000Y-106052000D01*
X134550000Y-106052000D01*
X134510966Y-106044236D01*
X134477875Y-106022125D01*
X134455764Y-105989034D01*
X134448000Y-105950000D01*
X134448000Y-105410000D01*
X134455764Y-105370966D01*
X134477875Y-105337875D01*
X134510966Y-105315764D01*
X134550000Y-105308000D01*
X135150000Y-105308000D01*
X135189034Y-105315764D01*
G37*
G36*
X139889034Y-105315764D02*
G01*
X139922125Y-105337875D01*
X139944236Y-105370966D01*
X139952000Y-105410000D01*
X139952000Y-105950000D01*
X139944236Y-105989034D01*
X139922125Y-106022125D01*
X139889034Y-106044236D01*
X139850000Y-106052000D01*
X139250000Y-106052000D01*
X139210966Y-106044236D01*
X139177875Y-106022125D01*
X139155764Y-105989034D01*
X139148000Y-105950000D01*
X139148000Y-105410000D01*
X139155764Y-105370966D01*
X139177875Y-105337875D01*
X139210966Y-105315764D01*
X139250000Y-105308000D01*
X139850000Y-105308000D01*
X139889034Y-105315764D01*
G37*
G36*
X125789034Y-101479764D02*
G01*
X125822125Y-101501875D01*
X125844236Y-101534966D01*
X125852000Y-101574000D01*
X125852000Y-102114000D01*
X125844236Y-102153034D01*
X125822125Y-102186125D01*
X125789034Y-102208236D01*
X125750000Y-102216000D01*
X125150000Y-102216000D01*
X125110966Y-102208236D01*
X125077875Y-102186125D01*
X125055764Y-102153034D01*
X125048000Y-102114000D01*
X125048000Y-101574000D01*
X125055764Y-101534966D01*
X125077875Y-101501875D01*
X125110966Y-101479764D01*
X125150000Y-101472000D01*
X125750000Y-101472000D01*
X125789034Y-101479764D01*
G37*
G36*
X130489034Y-101479764D02*
G01*
X130522125Y-101501875D01*
X130544236Y-101534966D01*
X130552000Y-101574000D01*
X130552000Y-102114000D01*
X130544236Y-102153034D01*
X130522125Y-102186125D01*
X130489034Y-102208236D01*
X130450000Y-102216000D01*
X129850000Y-102216000D01*
X129810966Y-102208236D01*
X129777875Y-102186125D01*
X129755764Y-102153034D01*
X129748000Y-102114000D01*
X129748000Y-101574000D01*
X129755764Y-101534966D01*
X129777875Y-101501875D01*
X129810966Y-101479764D01*
X129850000Y-101472000D01*
X130450000Y-101472000D01*
X130489034Y-101479764D01*
G37*
G36*
X135189034Y-101479764D02*
G01*
X135222125Y-101501875D01*
X135244236Y-101534966D01*
X135252000Y-101574000D01*
X135252000Y-102114000D01*
X135244236Y-102153034D01*
X135222125Y-102186125D01*
X135189034Y-102208236D01*
X135150000Y-102216000D01*
X134550000Y-102216000D01*
X134510966Y-102208236D01*
X134477875Y-102186125D01*
X134455764Y-102153034D01*
X134448000Y-102114000D01*
X134448000Y-101574000D01*
X134455764Y-101534966D01*
X134477875Y-101501875D01*
X134510966Y-101479764D01*
X134550000Y-101472000D01*
X135150000Y-101472000D01*
X135189034Y-101479764D01*
G37*
G36*
X139889034Y-101479764D02*
G01*
X139922125Y-101501875D01*
X139944236Y-101534966D01*
X139952000Y-101574000D01*
X139952000Y-102114000D01*
X139944236Y-102153034D01*
X139922125Y-102186125D01*
X139889034Y-102208236D01*
X139850000Y-102216000D01*
X139250000Y-102216000D01*
X139210966Y-102208236D01*
X139177875Y-102186125D01*
X139155764Y-102153034D01*
X139148000Y-102114000D01*
X139148000Y-101574000D01*
X139155764Y-101534966D01*
X139177875Y-101501875D01*
X139210966Y-101479764D01*
X139250000Y-101472000D01*
X139850000Y-101472000D01*
X139889034Y-101479764D01*
G37*
G36*
X125789034Y-100615764D02*
G01*
X125822125Y-100637875D01*
X125844236Y-100670966D01*
X125852000Y-100710000D01*
X125852000Y-101250000D01*
X125844236Y-101289034D01*
X125822125Y-101322125D01*
X125789034Y-101344236D01*
X125750000Y-101352000D01*
X125150000Y-101352000D01*
X125110966Y-101344236D01*
X125077875Y-101322125D01*
X125055764Y-101289034D01*
X125048000Y-101250000D01*
X125048000Y-100710000D01*
X125055764Y-100670966D01*
X125077875Y-100637875D01*
X125110966Y-100615764D01*
X125150000Y-100608000D01*
X125750000Y-100608000D01*
X125789034Y-100615764D01*
G37*
G36*
X130489034Y-100615764D02*
G01*
X130522125Y-100637875D01*
X130544236Y-100670966D01*
X130552000Y-100710000D01*
X130552000Y-101250000D01*
X130544236Y-101289034D01*
X130522125Y-101322125D01*
X130489034Y-101344236D01*
X130450000Y-101352000D01*
X129850000Y-101352000D01*
X129810966Y-101344236D01*
X129777875Y-101322125D01*
X129755764Y-101289034D01*
X129748000Y-101250000D01*
X129748000Y-100710000D01*
X129755764Y-100670966D01*
X129777875Y-100637875D01*
X129810966Y-100615764D01*
X129850000Y-100608000D01*
X130450000Y-100608000D01*
X130489034Y-100615764D01*
G37*
G36*
X135189034Y-100615764D02*
G01*
X135222125Y-100637875D01*
X135244236Y-100670966D01*
X135252000Y-100710000D01*
X135252000Y-101250000D01*
X135244236Y-101289034D01*
X135222125Y-101322125D01*
X135189034Y-101344236D01*
X135150000Y-101352000D01*
X134550000Y-101352000D01*
X134510966Y-101344236D01*
X134477875Y-101322125D01*
X134455764Y-101289034D01*
X134448000Y-101250000D01*
X134448000Y-100710000D01*
X134455764Y-100670966D01*
X134477875Y-100637875D01*
X134510966Y-100615764D01*
X134550000Y-100608000D01*
X135150000Y-100608000D01*
X135189034Y-100615764D01*
G37*
G36*
X139889034Y-100615764D02*
G01*
X139922125Y-100637875D01*
X139944236Y-100670966D01*
X139952000Y-100710000D01*
X139952000Y-101250000D01*
X139944236Y-101289034D01*
X139922125Y-101322125D01*
X139889034Y-101344236D01*
X139850000Y-101352000D01*
X139250000Y-101352000D01*
X139210966Y-101344236D01*
X139177875Y-101322125D01*
X139155764Y-101289034D01*
X139148000Y-101250000D01*
X139148000Y-100710000D01*
X139155764Y-100670966D01*
X139177875Y-100637875D01*
X139210966Y-100615764D01*
X139250000Y-100608000D01*
X139850000Y-100608000D01*
X139889034Y-100615764D01*
G37*
G36*
X125789034Y-96779764D02*
G01*
X125822125Y-96801875D01*
X125844236Y-96834966D01*
X125852000Y-96874000D01*
X125852000Y-97414000D01*
X125844236Y-97453034D01*
X125822125Y-97486125D01*
X125789034Y-97508236D01*
X125750000Y-97516000D01*
X125150000Y-97516000D01*
X125110966Y-97508236D01*
X125077875Y-97486125D01*
X125055764Y-97453034D01*
X125048000Y-97414000D01*
X125048000Y-96874000D01*
X125055764Y-96834966D01*
X125077875Y-96801875D01*
X125110966Y-96779764D01*
X125150000Y-96772000D01*
X125750000Y-96772000D01*
X125789034Y-96779764D01*
G37*
G36*
X130489034Y-96779764D02*
G01*
X130522125Y-96801875D01*
X130544236Y-96834966D01*
X130552000Y-96874000D01*
X130552000Y-97414000D01*
X130544236Y-97453034D01*
X130522125Y-97486125D01*
X130489034Y-97508236D01*
X130450000Y-97516000D01*
X129850000Y-97516000D01*
X129810966Y-97508236D01*
X129777875Y-97486125D01*
X129755764Y-97453034D01*
X129748000Y-97414000D01*
X129748000Y-96874000D01*
X129755764Y-96834966D01*
X129777875Y-96801875D01*
X129810966Y-96779764D01*
X129850000Y-96772000D01*
X130450000Y-96772000D01*
X130489034Y-96779764D01*
G37*
G36*
X135189034Y-96779764D02*
G01*
X135222125Y-96801875D01*
X135244236Y-96834966D01*
X135252000Y-96874000D01*
X135252000Y-97414000D01*
X135244236Y-97453034D01*
X135222125Y-97486125D01*
X135189034Y-97508236D01*
X135150000Y-97516000D01*
X134550000Y-97516000D01*
X134510966Y-97508236D01*
X134477875Y-97486125D01*
X134455764Y-97453034D01*
X134448000Y-97414000D01*
X134448000Y-96874000D01*
X134455764Y-96834966D01*
X134477875Y-96801875D01*
X134510966Y-96779764D01*
X134550000Y-96772000D01*
X135150000Y-96772000D01*
X135189034Y-96779764D01*
G37*
G36*
X139889034Y-96779764D02*
G01*
X139922125Y-96801875D01*
X139944236Y-96834966D01*
X139952000Y-96874000D01*
X139952000Y-97414000D01*
X139944236Y-97453034D01*
X139922125Y-97486125D01*
X139889034Y-97508236D01*
X139850000Y-97516000D01*
X139250000Y-97516000D01*
X139210966Y-97508236D01*
X139177875Y-97486125D01*
X139155764Y-97453034D01*
X139148000Y-97414000D01*
X139148000Y-96874000D01*
X139155764Y-96834966D01*
X139177875Y-96801875D01*
X139210966Y-96779764D01*
X139250000Y-96772000D01*
X139850000Y-96772000D01*
X139889034Y-96779764D01*
G37*
G36*
X125789034Y-95915764D02*
G01*
X125822125Y-95937875D01*
X125844236Y-95970966D01*
X125852000Y-96010000D01*
X125852000Y-96550000D01*
X125844236Y-96589034D01*
X125822125Y-96622125D01*
X125789034Y-96644236D01*
X125750000Y-96652000D01*
X125150000Y-96652000D01*
X125110966Y-96644236D01*
X125077875Y-96622125D01*
X125055764Y-96589034D01*
X125048000Y-96550000D01*
X125048000Y-96010000D01*
X125055764Y-95970966D01*
X125077875Y-95937875D01*
X125110966Y-95915764D01*
X125150000Y-95908000D01*
X125750000Y-95908000D01*
X125789034Y-95915764D01*
G37*
G36*
X130489034Y-95915764D02*
G01*
X130522125Y-95937875D01*
X130544236Y-95970966D01*
X130552000Y-96010000D01*
X130552000Y-96550000D01*
X130544236Y-96589034D01*
X130522125Y-96622125D01*
X130489034Y-96644236D01*
X130450000Y-96652000D01*
X129850000Y-96652000D01*
X129810966Y-96644236D01*
X129777875Y-96622125D01*
X129755764Y-96589034D01*
X129748000Y-96550000D01*
X129748000Y-96010000D01*
X129755764Y-95970966D01*
X129777875Y-95937875D01*
X129810966Y-95915764D01*
X129850000Y-95908000D01*
X130450000Y-95908000D01*
X130489034Y-95915764D01*
G37*
G36*
X135189034Y-95915764D02*
G01*
X135222125Y-95937875D01*
X135244236Y-95970966D01*
X135252000Y-96010000D01*
X135252000Y-96550000D01*
X135244236Y-96589034D01*
X135222125Y-96622125D01*
X135189034Y-96644236D01*
X135150000Y-96652000D01*
X134550000Y-96652000D01*
X134510966Y-96644236D01*
X134477875Y-96622125D01*
X134455764Y-96589034D01*
X134448000Y-96550000D01*
X134448000Y-96010000D01*
X134455764Y-95970966D01*
X134477875Y-95937875D01*
X134510966Y-95915764D01*
X134550000Y-95908000D01*
X135150000Y-95908000D01*
X135189034Y-95915764D01*
G37*
G36*
X139889034Y-95915764D02*
G01*
X139922125Y-95937875D01*
X139944236Y-95970966D01*
X139952000Y-96010000D01*
X139952000Y-96550000D01*
X139944236Y-96589034D01*
X139922125Y-96622125D01*
X139889034Y-96644236D01*
X139850000Y-96652000D01*
X139250000Y-96652000D01*
X139210966Y-96644236D01*
X139177875Y-96622125D01*
X139155764Y-96589034D01*
X139148000Y-96550000D01*
X139148000Y-96010000D01*
X139155764Y-95970966D01*
X139177875Y-95937875D01*
X139210966Y-95915764D01*
X139250000Y-95908000D01*
X139850000Y-95908000D01*
X139889034Y-95915764D01*
G37*
M02*
