%TF.GenerationSoftware,KiCad,Pcbnew,10.0.4-10.0.4~ubuntu24.04.1*%
%TF.CreationDate,2026-06-30T15:28:47+09:00*%
%TF.ProjectId,4x4,3478342e-6b69-4636-9164-5f7063625858,rev?*%
%TF.SameCoordinates,Original*%
%TF.FileFunction,Other,User*%
%FSLAX46Y46*%
G04 Gerber Fmt 4.6, Leading zero omitted, Abs format (unit mm)*
G04 Created by KiCad (PCBNEW 10.0.4-10.0.4~ubuntu24.04.1) date 2026-06-30 15:28:47*
%MOMM*%
%LPD*%
G01*
G04 APERTURE LIST*
%ADD10C,0.010000*%
%ADD11C,0.050000*%
G04 APERTURE END LIST*
%TO.C,X5*%
D10*
X131350000Y-95750000D02*
X132950000Y-95750000D01*
X132950000Y-97350000D01*
X131350000Y-97350000D01*
X131350000Y-95750000D01*
%TO.C,X2*%
X126650000Y-100450000D02*
X128250000Y-100450000D01*
X128250000Y-102050000D01*
X126650000Y-102050000D01*
X126650000Y-100450000D01*
%TO.C,X14*%
X140750000Y-100450000D02*
X142350000Y-100450000D01*
X142350000Y-102050000D01*
X140750000Y-102050000D01*
X140750000Y-100450000D01*
%TO.C,J2*%
D11*
X128760000Y-91160000D02*
X128760000Y-94860000D01*
X128760000Y-94860000D02*
X140260000Y-94860000D01*
X140260000Y-91160000D02*
X128760000Y-91160000D01*
X140260000Y-94860000D02*
X140260000Y-91160000D01*
%TO.C,X6*%
D10*
X131350000Y-100450000D02*
X132950000Y-100450000D01*
X132950000Y-102050000D01*
X131350000Y-102050000D01*
X131350000Y-100450000D01*
%TO.C,X1*%
X126650000Y-95750000D02*
X128250000Y-95750000D01*
X128250000Y-97350000D01*
X126650000Y-97350000D01*
X126650000Y-95750000D01*
%TO.C,X3*%
X126650000Y-105150000D02*
X128250000Y-105150000D01*
X128250000Y-106750000D01*
X126650000Y-106750000D01*
X126650000Y-105150000D01*
%TO.C,X11*%
X136050000Y-105150000D02*
X137650000Y-105150000D01*
X137650000Y-106750000D01*
X136050000Y-106750000D01*
X136050000Y-105150000D01*
%TO.C,X15*%
X140750000Y-105150000D02*
X142350000Y-105150000D01*
X142350000Y-106750000D01*
X140750000Y-106750000D01*
X140750000Y-105150000D01*
%TO.C,X16*%
X140750000Y-109850000D02*
X142350000Y-109850000D01*
X142350000Y-111450000D01*
X140750000Y-111450000D01*
X140750000Y-109850000D01*
%TO.C,X10*%
X136050000Y-100450000D02*
X137650000Y-100450000D01*
X137650000Y-102050000D01*
X136050000Y-102050000D01*
X136050000Y-100450000D01*
%TO.C,X13*%
X140750000Y-95750000D02*
X142350000Y-95750000D01*
X142350000Y-97350000D01*
X140750000Y-97350000D01*
X140750000Y-95750000D01*
%TO.C,X4*%
X126650000Y-109850000D02*
X128250000Y-109850000D01*
X128250000Y-111450000D01*
X126650000Y-111450000D01*
X126650000Y-109850000D01*
%TO.C,X8*%
X131350000Y-109850000D02*
X132950000Y-109850000D01*
X132950000Y-111450000D01*
X131350000Y-111450000D01*
X131350000Y-109850000D01*
%TO.C,X7*%
X131350000Y-105150000D02*
X132950000Y-105150000D01*
X132950000Y-106750000D01*
X131350000Y-106750000D01*
X131350000Y-105150000D01*
%TO.C,X12*%
X136050000Y-109850000D02*
X137650000Y-109850000D01*
X137650000Y-111450000D01*
X136050000Y-111450000D01*
X136050000Y-109850000D01*
%TO.C,X9*%
X136050000Y-95750000D02*
X137650000Y-95750000D01*
X137650000Y-97350000D01*
X136050000Y-97350000D01*
X136050000Y-95750000D01*
%TD*%
M02*
