%TF.GenerationSoftware,KiCad,Pcbnew,10.0.4-10.0.4~ubuntu24.04.1*%
%TF.CreationDate,2026-06-30T15:28:47+09:00*%
%TF.ProjectId,4x4,3478342e-6b69-4636-9164-5f7063625858,rev?*%
%TF.SameCoordinates,Original*%
%TF.FileFunction,Legend,Bot*%
%TF.FilePolarity,Positive*%
%FSLAX46Y46*%
G04 Gerber Fmt 4.6, Leading zero omitted, Abs format (unit mm)*
G04 Created by KiCad (PCBNEW 10.0.4-10.0.4~ubuntu24.04.1) date 2026-06-30 15:28:47*
%MOMM*%
%LPD*%
G01*
G04 APERTURE LIST*
%ADD10C,0.100000*%
G04 APERTURE END LIST*
D10*
X129800919Y-92140047D02*
X129777109Y-92092428D01*
X129777109Y-92092428D02*
X129777109Y-92020999D01*
X129777109Y-92020999D02*
X129800919Y-91949571D01*
X129800919Y-91949571D02*
X129848538Y-91901952D01*
X129848538Y-91901952D02*
X129896157Y-91878142D01*
X129896157Y-91878142D02*
X129991395Y-91854333D01*
X129991395Y-91854333D02*
X130062823Y-91854333D01*
X130062823Y-91854333D02*
X130158061Y-91878142D01*
X130158061Y-91878142D02*
X130205680Y-91901952D01*
X130205680Y-91901952D02*
X130253300Y-91949571D01*
X130253300Y-91949571D02*
X130277109Y-92020999D01*
X130277109Y-92020999D02*
X130277109Y-92068618D01*
X130277109Y-92068618D02*
X130253300Y-92140047D01*
X130253300Y-92140047D02*
X130229490Y-92163856D01*
X130229490Y-92163856D02*
X130062823Y-92163856D01*
X130062823Y-92163856D02*
X130062823Y-92068618D01*
X130277109Y-92378142D02*
X129777109Y-92378142D01*
X129777109Y-92378142D02*
X130277109Y-92663856D01*
X130277109Y-92663856D02*
X129777109Y-92663856D01*
X130277109Y-92901952D02*
X129777109Y-92901952D01*
X129777109Y-92901952D02*
X129777109Y-93021000D01*
X129777109Y-93021000D02*
X129800919Y-93092428D01*
X129800919Y-93092428D02*
X129848538Y-93140047D01*
X129848538Y-93140047D02*
X129896157Y-93163857D01*
X129896157Y-93163857D02*
X129991395Y-93187666D01*
X129991395Y-93187666D02*
X130062823Y-93187666D01*
X130062823Y-93187666D02*
X130158061Y-93163857D01*
X130158061Y-93163857D02*
X130205680Y-93140047D01*
X130205680Y-93140047D02*
X130253300Y-93092428D01*
X130253300Y-93092428D02*
X130277109Y-93021000D01*
X130277109Y-93021000D02*
X130277109Y-92901952D01*
X131236109Y-92202571D02*
X130998014Y-92035905D01*
X131236109Y-91916857D02*
X130736109Y-91916857D01*
X130736109Y-91916857D02*
X130736109Y-92107333D01*
X130736109Y-92107333D02*
X130759919Y-92154952D01*
X130759919Y-92154952D02*
X130783728Y-92178762D01*
X130783728Y-92178762D02*
X130831347Y-92202571D01*
X130831347Y-92202571D02*
X130902776Y-92202571D01*
X130902776Y-92202571D02*
X130950395Y-92178762D01*
X130950395Y-92178762D02*
X130974204Y-92154952D01*
X130974204Y-92154952D02*
X130998014Y-92107333D01*
X130998014Y-92107333D02*
X130998014Y-91916857D01*
X130736109Y-92369238D02*
X131236109Y-92702571D01*
X130736109Y-92702571D02*
X131236109Y-92369238D01*
X131236109Y-93154952D02*
X131236109Y-92869238D01*
X131236109Y-93012095D02*
X130736109Y-93012095D01*
X130736109Y-93012095D02*
X130807538Y-92964476D01*
X130807538Y-92964476D02*
X130855157Y-92916857D01*
X130855157Y-92916857D02*
X130878966Y-92869238D01*
X131760109Y-91915953D02*
X131760109Y-92201667D01*
X132260109Y-92058810D02*
X131760109Y-92058810D01*
X131760109Y-92320714D02*
X132260109Y-92654047D01*
X131760109Y-92654047D02*
X132260109Y-92320714D01*
X132260109Y-93106428D02*
X132260109Y-92820714D01*
X132260109Y-92963571D02*
X131760109Y-92963571D01*
X131760109Y-92963571D02*
X131831538Y-92915952D01*
X131831538Y-92915952D02*
X131879157Y-92868333D01*
X131879157Y-92868333D02*
X131902966Y-92820714D01*
X133256109Y-92219571D02*
X133018014Y-92052905D01*
X133256109Y-91933857D02*
X132756109Y-91933857D01*
X132756109Y-91933857D02*
X132756109Y-92124333D01*
X132756109Y-92124333D02*
X132779919Y-92171952D01*
X132779919Y-92171952D02*
X132803728Y-92195762D01*
X132803728Y-92195762D02*
X132851347Y-92219571D01*
X132851347Y-92219571D02*
X132922776Y-92219571D01*
X132922776Y-92219571D02*
X132970395Y-92195762D01*
X132970395Y-92195762D02*
X132994204Y-92171952D01*
X132994204Y-92171952D02*
X133018014Y-92124333D01*
X133018014Y-92124333D02*
X133018014Y-91933857D01*
X132756109Y-92386238D02*
X133256109Y-92719571D01*
X132756109Y-92719571D02*
X133256109Y-92386238D01*
X132803728Y-92886238D02*
X132779919Y-92910047D01*
X132779919Y-92910047D02*
X132756109Y-92957666D01*
X132756109Y-92957666D02*
X132756109Y-93076714D01*
X132756109Y-93076714D02*
X132779919Y-93124333D01*
X132779919Y-93124333D02*
X132803728Y-93148142D01*
X132803728Y-93148142D02*
X132851347Y-93171952D01*
X132851347Y-93171952D02*
X132898966Y-93171952D01*
X132898966Y-93171952D02*
X132970395Y-93148142D01*
X132970395Y-93148142D02*
X133256109Y-92862428D01*
X133256109Y-92862428D02*
X133256109Y-93171952D01*
X133755109Y-91955953D02*
X133755109Y-92241667D01*
X134255109Y-92098810D02*
X133755109Y-92098810D01*
X133755109Y-92360714D02*
X134255109Y-92694047D01*
X133755109Y-92694047D02*
X134255109Y-92360714D01*
X133802728Y-92860714D02*
X133778919Y-92884523D01*
X133778919Y-92884523D02*
X133755109Y-92932142D01*
X133755109Y-92932142D02*
X133755109Y-93051190D01*
X133755109Y-93051190D02*
X133778919Y-93098809D01*
X133778919Y-93098809D02*
X133802728Y-93122618D01*
X133802728Y-93122618D02*
X133850347Y-93146428D01*
X133850347Y-93146428D02*
X133897966Y-93146428D01*
X133897966Y-93146428D02*
X133969395Y-93122618D01*
X133969395Y-93122618D02*
X134255109Y-92836904D01*
X134255109Y-92836904D02*
X134255109Y-93146428D01*
X135277109Y-91870571D02*
X135039014Y-91703905D01*
X135277109Y-91584857D02*
X134777109Y-91584857D01*
X134777109Y-91584857D02*
X134777109Y-91775333D01*
X134777109Y-91775333D02*
X134800919Y-91822952D01*
X134800919Y-91822952D02*
X134824728Y-91846762D01*
X134824728Y-91846762D02*
X134872347Y-91870571D01*
X134872347Y-91870571D02*
X134943776Y-91870571D01*
X134943776Y-91870571D02*
X134991395Y-91846762D01*
X134991395Y-91846762D02*
X135015204Y-91822952D01*
X135015204Y-91822952D02*
X135039014Y-91775333D01*
X135039014Y-91775333D02*
X135039014Y-91584857D01*
X134777109Y-92037238D02*
X135277109Y-92370571D01*
X134777109Y-92370571D02*
X135277109Y-92037238D01*
X134777109Y-92513428D02*
X134777109Y-92822952D01*
X134777109Y-92822952D02*
X134967585Y-92656285D01*
X134967585Y-92656285D02*
X134967585Y-92727714D01*
X134967585Y-92727714D02*
X134991395Y-92775333D01*
X134991395Y-92775333D02*
X135015204Y-92799142D01*
X135015204Y-92799142D02*
X135062823Y-92822952D01*
X135062823Y-92822952D02*
X135181871Y-92822952D01*
X135181871Y-92822952D02*
X135229490Y-92799142D01*
X135229490Y-92799142D02*
X135253300Y-92775333D01*
X135253300Y-92775333D02*
X135277109Y-92727714D01*
X135277109Y-92727714D02*
X135277109Y-92584857D01*
X135277109Y-92584857D02*
X135253300Y-92537238D01*
X135253300Y-92537238D02*
X135229490Y-92513428D01*
X135770109Y-91763953D02*
X135770109Y-92049667D01*
X136270109Y-91906810D02*
X135770109Y-91906810D01*
X135770109Y-92168714D02*
X136270109Y-92502047D01*
X135770109Y-92502047D02*
X136270109Y-92168714D01*
X135770109Y-92644904D02*
X135770109Y-92954428D01*
X135770109Y-92954428D02*
X135960585Y-92787761D01*
X135960585Y-92787761D02*
X135960585Y-92859190D01*
X135960585Y-92859190D02*
X135984395Y-92906809D01*
X135984395Y-92906809D02*
X136008204Y-92930618D01*
X136008204Y-92930618D02*
X136055823Y-92954428D01*
X136055823Y-92954428D02*
X136174871Y-92954428D01*
X136174871Y-92954428D02*
X136222490Y-92930618D01*
X136222490Y-92930618D02*
X136246300Y-92906809D01*
X136246300Y-92906809D02*
X136270109Y-92859190D01*
X136270109Y-92859190D02*
X136270109Y-92716333D01*
X136270109Y-92716333D02*
X136246300Y-92668714D01*
X136246300Y-92668714D02*
X136222490Y-92644904D01*
X137270109Y-92219571D02*
X137032014Y-92052905D01*
X137270109Y-91933857D02*
X136770109Y-91933857D01*
X136770109Y-91933857D02*
X136770109Y-92124333D01*
X136770109Y-92124333D02*
X136793919Y-92171952D01*
X136793919Y-92171952D02*
X136817728Y-92195762D01*
X136817728Y-92195762D02*
X136865347Y-92219571D01*
X136865347Y-92219571D02*
X136936776Y-92219571D01*
X136936776Y-92219571D02*
X136984395Y-92195762D01*
X136984395Y-92195762D02*
X137008204Y-92171952D01*
X137008204Y-92171952D02*
X137032014Y-92124333D01*
X137032014Y-92124333D02*
X137032014Y-91933857D01*
X136770109Y-92386238D02*
X137270109Y-92719571D01*
X136770109Y-92719571D02*
X137270109Y-92386238D01*
X136936776Y-93124333D02*
X137270109Y-93124333D01*
X136746300Y-93005285D02*
X137103442Y-92886238D01*
X137103442Y-92886238D02*
X137103442Y-93195761D01*
X137771109Y-91920953D02*
X137771109Y-92206667D01*
X138271109Y-92063810D02*
X137771109Y-92063810D01*
X137771109Y-92325714D02*
X138271109Y-92659047D01*
X137771109Y-92659047D02*
X138271109Y-92325714D01*
X137937776Y-93063809D02*
X138271109Y-93063809D01*
X137747300Y-92944761D02*
X138104442Y-92825714D01*
X138104442Y-92825714D02*
X138104442Y-93135237D01*
X138758109Y-91784334D02*
X139258109Y-91951000D01*
X139258109Y-91951000D02*
X138758109Y-92117667D01*
X139258109Y-92284333D02*
X138758109Y-92284333D01*
X138758109Y-92284333D02*
X138758109Y-92403381D01*
X138758109Y-92403381D02*
X138781919Y-92474809D01*
X138781919Y-92474809D02*
X138829538Y-92522428D01*
X138829538Y-92522428D02*
X138877157Y-92546238D01*
X138877157Y-92546238D02*
X138972395Y-92570047D01*
X138972395Y-92570047D02*
X139043823Y-92570047D01*
X139043823Y-92570047D02*
X139139061Y-92546238D01*
X139139061Y-92546238D02*
X139186680Y-92522428D01*
X139186680Y-92522428D02*
X139234300Y-92474809D01*
X139234300Y-92474809D02*
X139258109Y-92403381D01*
X139258109Y-92403381D02*
X139258109Y-92284333D01*
X139258109Y-92784333D02*
X138758109Y-92784333D01*
X138758109Y-92784333D02*
X138758109Y-92903381D01*
X138758109Y-92903381D02*
X138781919Y-92974809D01*
X138781919Y-92974809D02*
X138829538Y-93022428D01*
X138829538Y-93022428D02*
X138877157Y-93046238D01*
X138877157Y-93046238D02*
X138972395Y-93070047D01*
X138972395Y-93070047D02*
X139043823Y-93070047D01*
X139043823Y-93070047D02*
X139139061Y-93046238D01*
X139139061Y-93046238D02*
X139186680Y-93022428D01*
X139186680Y-93022428D02*
X139234300Y-92974809D01*
X139234300Y-92974809D02*
X139258109Y-92903381D01*
X139258109Y-92903381D02*
X139258109Y-92784333D01*
M02*
