%TF.GenerationSoftware,KiCad,Pcbnew,10.0.4-10.0.4~ubuntu24.04.1*%
%TF.CreationDate,2026-06-30T15:28:47+09:00*%
%TF.ProjectId,4x4,3478342e-6b69-4636-9164-5f7063625858,rev?*%
%TF.SameCoordinates,Original*%
%TF.FileFunction,Copper,L1,Top*%
%TF.FilePolarity,Positive*%
%FSLAX46Y46*%
G04 Gerber Fmt 4.6, Leading zero omitted, Abs format (unit mm)*
G04 Created by KiCad (PCBNEW 10.0.4-10.0.4~ubuntu24.04.1) date 2026-06-30 15:28:47*
%MOMM*%
%LPD*%
G01*
G04 APERTURE LIST*
%TA.AperFunction,Conductor*%
%ADD10C,0.750000*%
%TD*%
%TA.AperFunction,SMDPad,CuDef*%
%ADD11R,0.220000X0.460000*%
%TD*%
%TA.AperFunction,SMDPad,CuDef*%
%ADD12R,1.000000X0.700000*%
%TD*%
%TA.AperFunction,SMDPad,CuDef*%
%ADD13R,0.500000X1.000000*%
%TD*%
%TA.AperFunction,SMDPad,CuDef*%
%ADD14R,1.200000X1.700000*%
%TD*%
%TA.AperFunction,ViaPad*%
%ADD15C,0.457200*%
%TD*%
%TA.AperFunction,Conductor*%
%ADD16C,0.203200*%
%TD*%
%TA.AperFunction,Conductor*%
%ADD17C,0.152400*%
%TD*%
G04 APERTURE END LIST*
%TO.N,/Sensor Group/RX2*%
D10*
X125864500Y-93100000D02*
G75*
G02*
X125114500Y-93100000I-375000J0D01*
G01*
X125114500Y-93100000D02*
G75*
G02*
X125864500Y-93100000I375000J0D01*
G01*
%TO.N,/Sensor Group/RX1*%
X125864500Y-95100000D02*
G75*
G02*
X125114500Y-95100000I-375000J0D01*
G01*
X125114500Y-95100000D02*
G75*
G02*
X125864500Y-95100000I375000J0D01*
G01*
%TO.N,/Sensor Group/TX1*%
X126374550Y-113124000D02*
G75*
G02*
X125624550Y-113124000I-375000J0D01*
G01*
X125624550Y-113124000D02*
G75*
G02*
X126374550Y-113124000I375000J0D01*
G01*
%TO.N,VDD*%
X129774550Y-113124000D02*
G75*
G02*
X129024550Y-113124000I-375000J0D01*
G01*
X129024550Y-113124000D02*
G75*
G02*
X129774550Y-113124000I375000J0D01*
G01*
%TO.N,/Sensor Group/TX2*%
X133174550Y-113124000D02*
G75*
G02*
X132424550Y-113124000I-375000J0D01*
G01*
X132424550Y-113124000D02*
G75*
G02*
X133174550Y-113124000I375000J0D01*
G01*
%TO.N,/Sensor Group/TX3*%
X136574550Y-113124000D02*
G75*
G02*
X135824550Y-113124000I-375000J0D01*
G01*
X135824550Y-113124000D02*
G75*
G02*
X136574550Y-113124000I375000J0D01*
G01*
%TO.N,GND*%
X139974550Y-113124000D02*
G75*
G02*
X139224550Y-113124000I-375000J0D01*
G01*
X139224550Y-113124000D02*
G75*
G02*
X139974550Y-113124000I375000J0D01*
G01*
%TO.N,/Sensor Group/TX4*%
X143374550Y-113124000D02*
G75*
G02*
X142624550Y-113124000I-375000J0D01*
G01*
X142624550Y-113124000D02*
G75*
G02*
X143374550Y-113124000I375000J0D01*
G01*
%TO.N,/Sensor Group/RX3*%
X143874500Y-93110000D02*
G75*
G02*
X143124500Y-93110000I-375000J0D01*
G01*
X143124500Y-93110000D02*
G75*
G02*
X143874500Y-93110000I375000J0D01*
G01*
%TO.N,/Sensor Group/RX4*%
X143874500Y-95110000D02*
G75*
G02*
X143124500Y-95110000I-375000J0D01*
G01*
X143124500Y-95110000D02*
G75*
G02*
X143874500Y-95110000I375000J0D01*
G01*
%TD*%
D11*
%TO.P,X5,1,GND*%
%TO.N,GND*%
X131650000Y-97320000D03*
%TO.P,X5,2,NC*%
X132150000Y-97320000D03*
%TO.P,X5,3,RX*%
%TO.N,Net-(X5-RX)*%
X132650000Y-97320000D03*
%TO.P,X5,4,TX*%
%TO.N,/Sensor Group/RX2*%
X132650000Y-95780000D03*
%TO.P,X5,5,NC*%
%TO.N,GND*%
X132150000Y-95780000D03*
%TO.P,X5,6,VDD*%
%TO.N,VDD*%
X131650000Y-95780000D03*
D12*
%TO.P,X5,EP,NC*%
%TO.N,GND*%
X132150000Y-96550000D03*
%TD*%
D11*
%TO.P,X2,1,GND*%
%TO.N,GND*%
X126950000Y-102020000D03*
%TO.P,X2,2,NC*%
X127450000Y-102020000D03*
%TO.P,X2,3,RX*%
%TO.N,Net-(X2-RX)*%
X127950000Y-102020000D03*
%TO.P,X2,4,TX*%
%TO.N,Net-(X1-RX)*%
X127950000Y-100480000D03*
%TO.P,X2,5,NC*%
%TO.N,GND*%
X127450000Y-100480000D03*
%TO.P,X2,6,VDD*%
%TO.N,VDD*%
X126950000Y-100480000D03*
D12*
%TO.P,X2,EP,NC*%
%TO.N,GND*%
X127450000Y-101250000D03*
%TD*%
D11*
%TO.P,X14,1,GND*%
%TO.N,GND*%
X141050000Y-102020000D03*
%TO.P,X14,2,NC*%
X141550000Y-102020000D03*
%TO.P,X14,3,RX*%
%TO.N,Net-(X14-RX)*%
X142050000Y-102020000D03*
%TO.P,X14,4,TX*%
%TO.N,Net-(X13-RX)*%
X142050000Y-100480000D03*
%TO.P,X14,5,NC*%
%TO.N,GND*%
X141550000Y-100480000D03*
%TO.P,X14,6,VDD*%
%TO.N,VDD*%
X141050000Y-100480000D03*
D12*
%TO.P,X14,EP,NC*%
%TO.N,GND*%
X141550000Y-101250000D03*
%TD*%
D13*
%TO.P,J2,1,1*%
%TO.N,VDD*%
X138110000Y-94110000D03*
%TO.P,J2,2,2*%
%TO.N,/Sensor Group/TX4*%
X137310000Y-94110000D03*
%TO.P,J2,3,3*%
%TO.N,/Sensor Group/RX4*%
X136510000Y-94110000D03*
%TO.P,J2,4,4*%
%TO.N,/Sensor Group/TX3*%
X135710000Y-94110000D03*
%TO.P,J2,5,5*%
%TO.N,/Sensor Group/RX3*%
X134910000Y-94110000D03*
%TO.P,J2,6,6*%
%TO.N,/Sensor Group/TX2*%
X134110000Y-94110000D03*
%TO.P,J2,7,7*%
%TO.N,/Sensor Group/RX2*%
X133310000Y-94110000D03*
%TO.P,J2,8,8*%
%TO.N,/Sensor Group/TX1*%
X132510000Y-94110000D03*
%TO.P,J2,9,9*%
%TO.N,/Sensor Group/RX1*%
X131710000Y-94110000D03*
%TO.P,J2,10,10*%
%TO.N,GND*%
X130910000Y-94110000D03*
D14*
%TO.P,J2,S1,SHIELD*%
X139410000Y-92260000D03*
%TO.P,J2,S2,SHIELD__1*%
X129610000Y-92260000D03*
%TD*%
D11*
%TO.P,X6,1,GND*%
%TO.N,GND*%
X131650000Y-102020000D03*
%TO.P,X6,2,NC*%
X132150000Y-102020000D03*
%TO.P,X6,3,RX*%
%TO.N,Net-(X6-RX)*%
X132650000Y-102020000D03*
%TO.P,X6,4,TX*%
%TO.N,Net-(X5-RX)*%
X132650000Y-100480000D03*
%TO.P,X6,5,NC*%
%TO.N,GND*%
X132150000Y-100480000D03*
%TO.P,X6,6,VDD*%
%TO.N,VDD*%
X131650000Y-100480000D03*
D12*
%TO.P,X6,EP,NC*%
%TO.N,GND*%
X132150000Y-101250000D03*
%TD*%
D11*
%TO.P,X1,1,GND*%
%TO.N,GND*%
X126950000Y-97320000D03*
%TO.P,X1,2,NC*%
X127450000Y-97320000D03*
%TO.P,X1,3,RX*%
%TO.N,Net-(X1-RX)*%
X127950000Y-97320000D03*
%TO.P,X1,4,TX*%
%TO.N,/Sensor Group/RX1*%
X127950000Y-95780000D03*
%TO.P,X1,5,NC*%
%TO.N,GND*%
X127450000Y-95780000D03*
%TO.P,X1,6,VDD*%
%TO.N,VDD*%
X126950000Y-95780000D03*
D12*
%TO.P,X1,EP,NC*%
%TO.N,GND*%
X127450000Y-96550000D03*
%TD*%
D11*
%TO.P,X3,1,GND*%
%TO.N,GND*%
X126950000Y-106720000D03*
%TO.P,X3,2,NC*%
X127450000Y-106720000D03*
%TO.P,X3,3,RX*%
%TO.N,Net-(X3-RX)*%
X127950000Y-106720000D03*
%TO.P,X3,4,TX*%
%TO.N,Net-(X2-RX)*%
X127950000Y-105180000D03*
%TO.P,X3,5,NC*%
%TO.N,GND*%
X127450000Y-105180000D03*
%TO.P,X3,6,VDD*%
%TO.N,VDD*%
X126950000Y-105180000D03*
D12*
%TO.P,X3,EP,NC*%
%TO.N,GND*%
X127450000Y-105950000D03*
%TD*%
D11*
%TO.P,X11,1,GND*%
%TO.N,GND*%
X136350000Y-106720000D03*
%TO.P,X11,2,NC*%
X136850000Y-106720000D03*
%TO.P,X11,3,RX*%
%TO.N,Net-(X11-RX)*%
X137350000Y-106720000D03*
%TO.P,X11,4,TX*%
%TO.N,Net-(X10-RX)*%
X137350000Y-105180000D03*
%TO.P,X11,5,NC*%
%TO.N,GND*%
X136850000Y-105180000D03*
%TO.P,X11,6,VDD*%
%TO.N,VDD*%
X136350000Y-105180000D03*
D12*
%TO.P,X11,EP,NC*%
%TO.N,GND*%
X136850000Y-105950000D03*
%TD*%
D11*
%TO.P,X15,1,GND*%
%TO.N,GND*%
X141050000Y-106720000D03*
%TO.P,X15,2,NC*%
X141550000Y-106720000D03*
%TO.P,X15,3,RX*%
%TO.N,Net-(X15-RX)*%
X142050000Y-106720000D03*
%TO.P,X15,4,TX*%
%TO.N,Net-(X14-RX)*%
X142050000Y-105180000D03*
%TO.P,X15,5,NC*%
%TO.N,GND*%
X141550000Y-105180000D03*
%TO.P,X15,6,VDD*%
%TO.N,VDD*%
X141050000Y-105180000D03*
D12*
%TO.P,X15,EP,NC*%
%TO.N,GND*%
X141550000Y-105950000D03*
%TD*%
D11*
%TO.P,X16,1,GND*%
%TO.N,GND*%
X141050000Y-111420000D03*
%TO.P,X16,2,NC*%
X141550000Y-111420000D03*
%TO.P,X16,3,RX*%
%TO.N,/Sensor Group/TX4*%
X142050000Y-111420000D03*
%TO.P,X16,4,TX*%
%TO.N,Net-(X15-RX)*%
X142050000Y-109880000D03*
%TO.P,X16,5,NC*%
%TO.N,GND*%
X141550000Y-109880000D03*
%TO.P,X16,6,VDD*%
%TO.N,VDD*%
X141050000Y-109880000D03*
D12*
%TO.P,X16,EP,NC*%
%TO.N,GND*%
X141550000Y-110650000D03*
%TD*%
D11*
%TO.P,X10,1,GND*%
%TO.N,GND*%
X136350000Y-102020000D03*
%TO.P,X10,2,NC*%
X136850000Y-102020000D03*
%TO.P,X10,3,RX*%
%TO.N,Net-(X10-RX)*%
X137350000Y-102020000D03*
%TO.P,X10,4,TX*%
%TO.N,Net-(X10-TX)*%
X137350000Y-100480000D03*
%TO.P,X10,5,NC*%
%TO.N,GND*%
X136850000Y-100480000D03*
%TO.P,X10,6,VDD*%
%TO.N,VDD*%
X136350000Y-100480000D03*
D12*
%TO.P,X10,EP,NC*%
%TO.N,GND*%
X136850000Y-101250000D03*
%TD*%
D11*
%TO.P,X13,1,GND*%
%TO.N,GND*%
X141050000Y-97320000D03*
%TO.P,X13,2,NC*%
X141550000Y-97320000D03*
%TO.P,X13,3,RX*%
%TO.N,Net-(X13-RX)*%
X142050000Y-97320000D03*
%TO.P,X13,4,TX*%
%TO.N,/Sensor Group/RX4*%
X142050000Y-95780000D03*
%TO.P,X13,5,NC*%
%TO.N,GND*%
X141550000Y-95780000D03*
%TO.P,X13,6,VDD*%
%TO.N,VDD*%
X141050000Y-95780000D03*
D12*
%TO.P,X13,EP,NC*%
%TO.N,GND*%
X141550000Y-96550000D03*
%TD*%
D11*
%TO.P,X4,1,GND*%
%TO.N,GND*%
X126950000Y-111420000D03*
%TO.P,X4,2,NC*%
X127450000Y-111420000D03*
%TO.P,X4,3,RX*%
%TO.N,/Sensor Group/TX1*%
X127950000Y-111420000D03*
%TO.P,X4,4,TX*%
%TO.N,Net-(X3-RX)*%
X127950000Y-109880000D03*
%TO.P,X4,5,NC*%
%TO.N,GND*%
X127450000Y-109880000D03*
%TO.P,X4,6,VDD*%
%TO.N,VDD*%
X126950000Y-109880000D03*
D12*
%TO.P,X4,EP,NC*%
%TO.N,GND*%
X127450000Y-110650000D03*
%TD*%
D11*
%TO.P,X8,1,GND*%
%TO.N,GND*%
X131650000Y-111420000D03*
%TO.P,X8,2,NC*%
X132150000Y-111420000D03*
%TO.P,X8,3,RX*%
%TO.N,/Sensor Group/TX2*%
X132650000Y-111420000D03*
%TO.P,X8,4,TX*%
%TO.N,Net-(X7-RX)*%
X132650000Y-109880000D03*
%TO.P,X8,5,NC*%
%TO.N,GND*%
X132150000Y-109880000D03*
%TO.P,X8,6,VDD*%
%TO.N,VDD*%
X131650000Y-109880000D03*
D12*
%TO.P,X8,EP,NC*%
%TO.N,GND*%
X132150000Y-110650000D03*
%TD*%
D11*
%TO.P,X7,1,GND*%
%TO.N,GND*%
X131650000Y-106720000D03*
%TO.P,X7,2,NC*%
X132150000Y-106720000D03*
%TO.P,X7,3,RX*%
%TO.N,Net-(X7-RX)*%
X132650000Y-106720000D03*
%TO.P,X7,4,TX*%
%TO.N,Net-(X6-RX)*%
X132650000Y-105180000D03*
%TO.P,X7,5,NC*%
%TO.N,GND*%
X132150000Y-105180000D03*
%TO.P,X7,6,VDD*%
%TO.N,VDD*%
X131650000Y-105180000D03*
D12*
%TO.P,X7,EP,NC*%
%TO.N,GND*%
X132150000Y-105950000D03*
%TD*%
D11*
%TO.P,X12,1,GND*%
%TO.N,GND*%
X136350000Y-111420000D03*
%TO.P,X12,2,NC*%
X136850000Y-111420000D03*
%TO.P,X12,3,RX*%
%TO.N,/Sensor Group/TX3*%
X137350000Y-111420000D03*
%TO.P,X12,4,TX*%
%TO.N,Net-(X11-RX)*%
X137350000Y-109880000D03*
%TO.P,X12,5,NC*%
%TO.N,GND*%
X136850000Y-109880000D03*
%TO.P,X12,6,VDD*%
%TO.N,VDD*%
X136350000Y-109880000D03*
D12*
%TO.P,X12,EP,NC*%
%TO.N,GND*%
X136850000Y-110650000D03*
%TD*%
D11*
%TO.P,X9,1,GND*%
%TO.N,GND*%
X136350000Y-97320000D03*
%TO.P,X9,2,NC*%
X136850000Y-97320000D03*
%TO.P,X9,3,RX*%
%TO.N,Net-(X10-TX)*%
X137350000Y-97320000D03*
%TO.P,X9,4,TX*%
%TO.N,/Sensor Group/RX3*%
X137350000Y-95780000D03*
%TO.P,X9,5,NC*%
%TO.N,GND*%
X136850000Y-95780000D03*
%TO.P,X9,6,VDD*%
%TO.N,VDD*%
X136350000Y-95780000D03*
D12*
%TO.P,X9,EP,NC*%
%TO.N,GND*%
X136850000Y-96550000D03*
%TD*%
D15*
%TO.N,GND*%
X137826000Y-96962000D03*
X128500000Y-110650000D03*
X128500000Y-96550000D03*
X134850000Y-102400000D03*
X142600000Y-96550000D03*
X126350000Y-111300000D03*
X128779000Y-92260000D03*
X131000000Y-111250000D03*
X137900000Y-101250000D03*
X140450000Y-101850000D03*
X128500000Y-101250000D03*
X131050000Y-101850000D03*
X131050000Y-106550000D03*
X134850000Y-97700000D03*
X140400000Y-106550000D03*
X142600000Y-110650000D03*
X140240000Y-92260000D03*
X133200000Y-96550000D03*
X137900000Y-105950000D03*
X142600000Y-105950000D03*
X133200000Y-101250000D03*
X142600000Y-101250000D03*
X135700000Y-111250000D03*
X140400000Y-111250000D03*
X133200000Y-110650000D03*
X140450000Y-97150000D03*
X134850000Y-107100000D03*
X126350000Y-101850000D03*
X128500000Y-105950000D03*
X133200000Y-105950000D03*
X126350000Y-106550000D03*
X126350000Y-97150000D03*
X131050000Y-97150000D03*
X137900000Y-110650000D03*
X140580000Y-113124000D03*
X130430000Y-94002000D03*
%TO.N,VDD*%
X140400000Y-105175000D03*
X130975000Y-109887500D03*
X130950000Y-95775000D03*
X135600000Y-95775000D03*
X140126500Y-96073500D03*
X139520500Y-94547500D03*
X130950000Y-105175000D03*
X126150000Y-109875000D03*
X126250000Y-100475000D03*
X126338000Y-96280000D03*
X135600000Y-105200000D03*
X126250000Y-105175000D03*
X129275000Y-111375000D03*
X130875000Y-100475000D03*
X140350000Y-100475000D03*
X135600000Y-109900000D03*
X140300000Y-109875000D03*
X135600000Y-100475000D03*
%TO.N,/Sensor Group/RX3*%
X135081000Y-93290000D03*
X137849000Y-96047000D03*
X137849000Y-96047000D03*
%TD*%
%TO.N,GND*%
D16*
X126950000Y-97320000D02*
X126520000Y-97320000D01*
X141550000Y-101250000D02*
X141550000Y-102020000D01*
X127450000Y-105950000D02*
X127450000Y-106720000D01*
X141550000Y-110650000D02*
X141550000Y-109880000D01*
X132150000Y-105950000D02*
X132150000Y-106720000D01*
D17*
X129610000Y-92260000D02*
X128779000Y-92260000D01*
X139599550Y-113124000D02*
X140580000Y-113124000D01*
D16*
X132150000Y-96550000D02*
X132150000Y-95780000D01*
X132150000Y-96550000D02*
X133200000Y-96550000D01*
X136850000Y-97320000D02*
X136850000Y-96550000D01*
X126520000Y-97320000D02*
X126350000Y-97150000D01*
X132150000Y-110650000D02*
X133200000Y-110650000D01*
X126950000Y-111420000D02*
X127450000Y-111420000D01*
X131650000Y-102020000D02*
X132150000Y-102020000D01*
X131170000Y-111420000D02*
X131000000Y-111250000D01*
X136350000Y-111420000D02*
X136850000Y-111420000D01*
X141050000Y-102020000D02*
X141550000Y-102020000D01*
X131220000Y-106720000D02*
X131050000Y-106550000D01*
D17*
X136350000Y-102050000D02*
X136350000Y-102020000D01*
D16*
X140620000Y-102020000D02*
X140450000Y-101850000D01*
X132150000Y-100480000D02*
X132150000Y-101250000D01*
X141050000Y-106720000D02*
X140570000Y-106720000D01*
X136850000Y-105950000D02*
X136850000Y-105180000D01*
X127450000Y-101250000D02*
X128500000Y-101250000D01*
D17*
X134850000Y-107100000D02*
X135950000Y-107100000D01*
D16*
X136350000Y-102020000D02*
X136850000Y-102020000D01*
X131650000Y-97320000D02*
X132150000Y-97320000D01*
X141550000Y-96550000D02*
X142600000Y-96550000D01*
X132150000Y-110650000D02*
X132150000Y-111420000D01*
X126470000Y-111420000D02*
X126350000Y-111300000D01*
X127450000Y-100480000D02*
X127450000Y-101250000D01*
X136350000Y-106720000D02*
X136850000Y-106720000D01*
X136850000Y-96550000D02*
X136850000Y-95780000D01*
X141550000Y-110650000D02*
X141550000Y-111420000D01*
X126520000Y-106720000D02*
X126350000Y-106550000D01*
X131650000Y-102020000D02*
X131220000Y-102020000D01*
X136850000Y-101250000D02*
X136850000Y-100480000D01*
X137471000Y-96550000D02*
X136850000Y-96550000D01*
D17*
X136000000Y-97700000D02*
X136350000Y-97350000D01*
D16*
X131650000Y-111420000D02*
X132150000Y-111420000D01*
X136350000Y-97320000D02*
X136850000Y-97320000D01*
X141050000Y-102020000D02*
X140620000Y-102020000D01*
X127450000Y-110650000D02*
X127450000Y-109880000D01*
X126950000Y-97320000D02*
X127450000Y-97320000D01*
X141050000Y-111420000D02*
X140570000Y-111420000D01*
X136850000Y-110650000D02*
X136850000Y-111420000D01*
X132150000Y-101250000D02*
X132150000Y-102020000D01*
X127450000Y-102020000D02*
X127450000Y-101250000D01*
X141050000Y-106720000D02*
X141550000Y-106720000D01*
X136850000Y-101250000D02*
X136850000Y-102020000D01*
X126950000Y-102020000D02*
X126520000Y-102020000D01*
X136850000Y-105950000D02*
X136850000Y-106720000D01*
X126950000Y-106720000D02*
X126520000Y-106720000D01*
X131650000Y-97320000D02*
X131220000Y-97320000D01*
X140570000Y-106720000D02*
X140400000Y-106550000D01*
D17*
X139410000Y-92260000D02*
X140240000Y-92260000D01*
D16*
X127450000Y-95780000D02*
X127450000Y-96550000D01*
X132150000Y-101250000D02*
X133200000Y-101250000D01*
X135870000Y-111420000D02*
X135700000Y-111250000D01*
X126950000Y-102020000D02*
X127450000Y-102020000D01*
X131650000Y-106720000D02*
X131220000Y-106720000D01*
X127450000Y-97320000D02*
X127450000Y-96550000D01*
X140570000Y-111420000D02*
X140400000Y-111250000D01*
D17*
X136000000Y-102400000D02*
X136350000Y-102050000D01*
D16*
X132150000Y-105950000D02*
X133200000Y-105950000D01*
D17*
X134850000Y-102400000D02*
X136000000Y-102400000D01*
D16*
X141550000Y-101250000D02*
X141550000Y-100480000D01*
X127450000Y-96550000D02*
X128500000Y-96550000D01*
X136850000Y-101250000D02*
X137900000Y-101250000D01*
X132150000Y-105950000D02*
X132150000Y-105180000D01*
X141550000Y-97320000D02*
X141550000Y-96550000D01*
X141050000Y-111420000D02*
X141550000Y-111420000D01*
X141550000Y-110650000D02*
X142600000Y-110650000D01*
X136350000Y-111420000D02*
X135870000Y-111420000D01*
X137826000Y-96962000D02*
X137826000Y-96905000D01*
X127450000Y-110650000D02*
X127450000Y-111420000D01*
X137826000Y-96905000D02*
X137471000Y-96550000D01*
D17*
X134850000Y-97700000D02*
X136000000Y-97700000D01*
D16*
X127450000Y-105950000D02*
X128500000Y-105950000D01*
X136850000Y-110650000D02*
X136850000Y-109880000D01*
D17*
X136350000Y-97350000D02*
X136350000Y-97320000D01*
X130910000Y-94110000D02*
X130802000Y-94002000D01*
D16*
X126950000Y-111420000D02*
X126470000Y-111420000D01*
X141550000Y-101250000D02*
X142600000Y-101250000D01*
X131650000Y-111420000D02*
X131170000Y-111420000D01*
X132150000Y-96550000D02*
X132150000Y-97320000D01*
D17*
X136330000Y-106720000D02*
X136350000Y-106720000D01*
D16*
X131220000Y-102020000D02*
X131050000Y-101850000D01*
X132150000Y-110650000D02*
X132150000Y-109880000D01*
X140620000Y-97320000D02*
X140450000Y-97150000D01*
X127450000Y-110650000D02*
X128500000Y-110650000D01*
X141550000Y-105950000D02*
X141550000Y-105180000D01*
D17*
X130802000Y-94002000D02*
X130430000Y-94002000D01*
D16*
X127450000Y-105950000D02*
X127450000Y-105180000D01*
X136850000Y-110650000D02*
X137900000Y-110650000D01*
X141550000Y-105950000D02*
X141550000Y-106720000D01*
X141050000Y-97320000D02*
X141550000Y-97320000D01*
X126950000Y-106720000D02*
X127450000Y-106720000D01*
X136850000Y-105950000D02*
X137900000Y-105950000D01*
X131220000Y-97320000D02*
X131050000Y-97150000D01*
X141550000Y-105950000D02*
X142600000Y-105950000D01*
X126520000Y-102020000D02*
X126350000Y-101850000D01*
X141550000Y-96550000D02*
X141550000Y-95780000D01*
X131650000Y-106720000D02*
X132150000Y-106720000D01*
X141050000Y-97320000D02*
X140620000Y-97320000D01*
D17*
X135950000Y-107100000D02*
X136330000Y-106720000D01*
%TO.N,Net-(X5-RX)*%
X132650000Y-97320000D02*
X132650000Y-100480000D01*
%TO.N,/Sensor Group/RX2*%
X133310000Y-95120000D02*
X132650000Y-95780000D01*
X132844400Y-93362000D02*
X125751500Y-93362000D01*
X125751500Y-93362000D02*
X125635500Y-93246000D01*
X133310000Y-94110000D02*
X133310000Y-93827600D01*
X133310000Y-94110000D02*
X133310000Y-95120000D01*
X133310000Y-93827600D02*
X132844400Y-93362000D01*
%TO.N,VDD*%
X138975000Y-94002000D02*
X138218000Y-94002000D01*
X136350000Y-100480000D02*
X135605000Y-100480000D01*
X141045000Y-109875000D02*
X141050000Y-109880000D01*
X130880000Y-100480000D02*
X130875000Y-100475000D01*
X130955000Y-105180000D02*
X130950000Y-105175000D01*
X136345000Y-95775000D02*
X136350000Y-95780000D01*
X135600000Y-109900000D02*
X135750000Y-109900000D01*
X140126500Y-96073500D02*
X140425000Y-95775000D01*
X135600000Y-95775000D02*
X136345000Y-95775000D01*
X131650000Y-109880000D02*
X130982500Y-109880000D01*
X131650000Y-105180000D02*
X130955000Y-105180000D01*
X139520500Y-94547500D02*
X138975000Y-94002000D01*
X131650000Y-100480000D02*
X130880000Y-100480000D01*
X126150000Y-109875000D02*
X126945000Y-109875000D01*
X126950000Y-100480000D02*
X126255000Y-100480000D01*
X140350000Y-100475000D02*
X141045000Y-100475000D01*
X136345000Y-100475000D02*
X136350000Y-100480000D01*
X140425000Y-95775000D02*
X141045000Y-95775000D01*
X126338000Y-96280000D02*
X126838000Y-95780000D01*
X135620000Y-105180000D02*
X135600000Y-105200000D01*
X135750000Y-109900000D02*
X135770000Y-109880000D01*
X126945000Y-109875000D02*
X126950000Y-109880000D01*
X141045000Y-100475000D02*
X141050000Y-100480000D01*
X126255000Y-105180000D02*
X126250000Y-105175000D01*
X135605000Y-100480000D02*
X135600000Y-100475000D01*
X141050000Y-105180000D02*
X140405000Y-105180000D01*
X138218000Y-94002000D02*
X138110000Y-94110000D01*
X129275000Y-111375000D02*
X129275000Y-112999450D01*
X141045000Y-95775000D02*
X141050000Y-95780000D01*
X131650000Y-95780000D02*
X130955000Y-95780000D01*
X126838000Y-95780000D02*
X126950000Y-95780000D01*
X130955000Y-95780000D02*
X130950000Y-95775000D01*
X126255000Y-100480000D02*
X126250000Y-100475000D01*
X129275000Y-112999450D02*
X129399550Y-113124000D01*
X140300000Y-109875000D02*
X141045000Y-109875000D01*
X136350000Y-105180000D02*
X135620000Y-105180000D01*
X140405000Y-105180000D02*
X140400000Y-105175000D01*
X130982500Y-109880000D02*
X130975000Y-109887500D01*
X135770000Y-109880000D02*
X136350000Y-109880000D01*
X126950000Y-105180000D02*
X126255000Y-105180000D01*
%TO.N,Net-(X2-RX)*%
X127950000Y-102020000D02*
X127950000Y-105180000D01*
%TO.N,Net-(X1-RX)*%
X127950000Y-97320000D02*
X127950000Y-100480000D01*
%TO.N,Net-(X14-RX)*%
X142050000Y-102020000D02*
X142050000Y-105180000D01*
%TO.N,Net-(X13-RX)*%
X142050000Y-97320000D02*
X142050000Y-100480000D01*
%TO.N,/Sensor Group/TX4*%
X137310000Y-94110000D02*
X137310000Y-94360000D01*
X143058200Y-110839793D02*
X143058200Y-96113800D01*
X138091400Y-95141400D02*
X142085800Y-95141400D01*
X142477993Y-111420000D02*
X142050000Y-111420000D01*
X142999550Y-111941557D02*
X142477993Y-111420000D01*
X142477993Y-111420000D02*
X143058200Y-110839793D01*
X137310000Y-94360000D02*
X138091400Y-95141400D01*
X142085800Y-95141400D02*
X143058200Y-96113800D01*
X142999550Y-113124000D02*
X142999550Y-111941557D01*
%TO.N,/Sensor Group/RX4*%
X137533800Y-95383800D02*
X141826200Y-95383800D01*
X136510000Y-94110000D02*
X136510000Y-94360000D01*
X141826200Y-95383800D02*
X142050000Y-95607600D01*
X136893800Y-93443800D02*
X136510000Y-93827600D01*
X142145500Y-93756000D02*
X138870994Y-93756000D01*
X143499500Y-95110000D02*
X142145500Y-93756000D01*
X136510000Y-93827600D02*
X136510000Y-94110000D01*
X136510000Y-94360000D02*
X137533800Y-95383800D01*
X142050000Y-95607600D02*
X142050000Y-95780000D01*
X138870994Y-93756000D02*
X138558794Y-93443800D01*
X138558794Y-93443800D02*
X136893800Y-93443800D01*
%TO.N,/Sensor Group/TX3*%
X137350000Y-111594400D02*
X137127200Y-111817200D01*
X134391800Y-110589793D02*
X134391800Y-96335207D01*
X137350000Y-111420000D02*
X137350000Y-111594400D01*
X136199550Y-112397543D02*
X135619207Y-111817200D01*
X134391800Y-96335207D02*
X135710000Y-95017007D01*
X136199550Y-113124000D02*
X136199550Y-112397543D01*
X137127200Y-111817200D02*
X135619207Y-111817200D01*
X135710000Y-95017007D02*
X135710000Y-94110000D01*
X135619207Y-111817200D02*
X134391800Y-110589793D01*
%TO.N,/Sensor Group/RX3*%
X135169600Y-93201400D02*
X135081000Y-93290000D01*
X143152900Y-93456600D02*
X143499500Y-93110000D01*
X138659200Y-93201400D02*
X135169600Y-93201400D01*
X137356000Y-95774000D02*
X137350000Y-95780000D01*
X134910000Y-93461000D02*
X135081000Y-93290000D01*
X135129000Y-93290000D02*
X135217600Y-93201400D01*
X138914400Y-93456600D02*
X143152900Y-93456600D01*
X137576000Y-95774000D02*
X137356000Y-95774000D01*
X138659200Y-93201400D02*
X138914400Y-93456600D01*
X134910000Y-94110000D02*
X134910000Y-93461000D01*
X137849000Y-96047000D02*
X137576000Y-95774000D01*
X135081000Y-93290000D02*
X135129000Y-93290000D01*
%TO.N,/Sensor Group/TX2*%
X132650000Y-112544000D02*
X132650000Y-111420000D01*
X134110000Y-94110000D02*
X134110000Y-110387993D01*
X132650000Y-111420000D02*
X133077993Y-111420000D01*
X132799550Y-113124000D02*
X132799550Y-112693550D01*
X132799550Y-112693550D02*
X132650000Y-112544000D01*
X133077993Y-111420000D02*
X134110000Y-110387993D01*
%TO.N,/Sensor Group/TX1*%
X127950000Y-111594400D02*
X127950000Y-111420000D01*
X128958200Y-97118807D02*
X130759207Y-95317800D01*
X128377993Y-111420000D02*
X127950000Y-111420000D01*
X126420400Y-113124000D02*
X127950000Y-111594400D01*
X131552200Y-95317800D02*
X132510000Y-94360000D01*
X128958200Y-97118807D02*
X128958200Y-110839793D01*
X132510000Y-94360000D02*
X132510000Y-94110000D01*
X125999550Y-113124000D02*
X126420400Y-113124000D01*
X130759207Y-95317800D02*
X131552200Y-95317800D01*
X128958200Y-110839793D02*
X128377993Y-111420000D01*
%TO.N,/Sensor Group/RX1*%
X131299400Y-94803000D02*
X128927000Y-94803000D01*
X131710000Y-94110000D02*
X131710000Y-94392400D01*
X131710000Y-94392400D02*
X131299400Y-94803000D01*
X125489500Y-95100000D02*
X125786500Y-94803000D01*
X128927000Y-94803000D02*
X127950000Y-95780000D01*
X125786500Y-94803000D02*
X128927000Y-94803000D01*
%TO.N,Net-(X6-RX)*%
X132650000Y-102020000D02*
X132650000Y-105180000D01*
%TO.N,Net-(X3-RX)*%
X127950000Y-106720000D02*
X127950000Y-109880000D01*
%TO.N,Net-(X11-RX)*%
X137350000Y-106720000D02*
X137350000Y-109880000D01*
%TO.N,Net-(X10-RX)*%
X137350000Y-102020000D02*
X137350000Y-105180000D01*
%TO.N,Net-(X15-RX)*%
X142050000Y-106720000D02*
X142050000Y-109880000D01*
%TO.N,Net-(X10-TX)*%
X137350000Y-97320000D02*
X137350000Y-100480000D01*
%TO.N,Net-(X7-RX)*%
X132650000Y-106720000D02*
X132650000Y-109880000D01*
%TD*%
M02*
