%TF.GenerationSoftware,KiCad,Pcbnew,10.0.4-10.0.4~ubuntu24.04.1*%
%TF.CreationDate,2026-06-30T15:28:47+09:00*%
%TF.ProjectId,4x4,3478342e-6b69-4636-9164-5f7063625858,rev?*%
%TF.SameCoordinates,Original*%
%TF.FileFunction,Drillmap*%
%TF.FilePolarity,Positive*%
%FSLAX45Y45*%
G04 Gerber Fmt 4.5, Leading zero omitted, Abs format (unit mm)*
G04 Created by KiCad (PCBNEW 10.0.4-10.0.4~ubuntu24.04.1) date 2026-06-30 15:28:47*
%MOMM*%
%LPD*%
G01*
G04 APERTURE LIST*
%ADD10C,0.050000*%
%ADD11C,0.200000*%
%ADD12C,0.100000*%
G04 APERTURE END LIST*
D10*
X12399000Y-9210000D02*
G75*
G02*
X12499000Y-9110000I100000J0D01*
G01*
X12400000Y-11310000D02*
X12399000Y-9210000D01*
X12500000Y-11410000D02*
G75*
G02*
X12400000Y-11310000I0J100000D01*
G01*
X12500000Y-11410000D02*
X14400000Y-11410000D01*
X14400000Y-9111000D02*
X12499000Y-9111000D01*
X14400000Y-9111000D02*
G75*
G02*
X14500000Y-9211000I0J-100000D01*
G01*
X14500000Y-11310000D02*
G75*
G02*
X14400000Y-11410000I-100000J0D01*
G01*
X14500000Y-11310000D02*
X14500000Y-9211000D01*
D11*
D12*
X12602300Y-10974800D02*
X12627700Y-11000200D01*
X12627700Y-10974800D02*
X12602300Y-11000200D01*
X12612300Y-10034800D02*
X12637700Y-10060200D01*
X12637700Y-10034800D02*
X12612300Y-10060200D01*
X12612300Y-10504800D02*
X12637700Y-10530200D01*
X12637700Y-10504800D02*
X12612300Y-10530200D01*
X12621100Y-9615300D02*
X12646500Y-9640700D01*
X12646500Y-9615300D02*
X12621100Y-9640700D01*
X12622300Y-9702300D02*
X12647700Y-9727700D01*
X12647700Y-9702300D02*
X12622300Y-9727700D01*
X12622300Y-10172300D02*
X12647700Y-10197700D01*
X12647700Y-10172300D02*
X12622300Y-10197700D01*
X12622300Y-10642300D02*
X12647700Y-10667700D01*
X12647700Y-10642300D02*
X12622300Y-10667700D01*
X12622300Y-11117300D02*
X12647700Y-11142700D01*
X12647700Y-11117300D02*
X12622300Y-11142700D01*
X12837300Y-9642300D02*
X12862700Y-9667700D01*
X12862700Y-9642300D02*
X12837300Y-9667700D01*
X12837300Y-10112300D02*
X12862700Y-10137700D01*
X12862700Y-10112300D02*
X12837300Y-10137700D01*
X12837300Y-10582300D02*
X12862700Y-10607700D01*
X12862700Y-10582300D02*
X12837300Y-10607700D01*
X12837300Y-11052300D02*
X12862700Y-11077700D01*
X12862700Y-11052300D02*
X12837300Y-11077700D01*
X12865200Y-9213300D02*
X12890600Y-9238700D01*
X12890600Y-9213300D02*
X12865200Y-9238700D01*
X12914800Y-11124800D02*
X12940200Y-11150200D01*
X12940200Y-11124800D02*
X12914800Y-11150200D01*
X13030300Y-9387500D02*
X13055700Y-9412900D01*
X13055700Y-9387500D02*
X13030300Y-9412900D01*
X13074800Y-10034800D02*
X13100200Y-10060200D01*
X13100200Y-10034800D02*
X13074800Y-10060200D01*
X13082300Y-9564800D02*
X13107700Y-9590200D01*
X13107700Y-9564800D02*
X13082300Y-9590200D01*
X13082300Y-10504800D02*
X13107700Y-10530200D01*
X13107700Y-10504800D02*
X13082300Y-10530200D01*
X13084800Y-10976050D02*
X13110200Y-11001450D01*
X13110200Y-10976050D02*
X13084800Y-11001450D01*
X13087300Y-11112300D02*
X13112700Y-11137700D01*
X13112700Y-11112300D02*
X13087300Y-11137700D01*
X13092300Y-9702300D02*
X13117700Y-9727700D01*
X13117700Y-9702300D02*
X13092300Y-9727700D01*
X13092300Y-10172300D02*
X13117700Y-10197700D01*
X13117700Y-10172300D02*
X13092300Y-10197700D01*
X13092300Y-10642300D02*
X13117700Y-10667700D01*
X13117700Y-10642300D02*
X13092300Y-10667700D01*
X13307300Y-9642300D02*
X13332700Y-9667700D01*
X13332700Y-9642300D02*
X13307300Y-9667700D01*
X13307300Y-10112300D02*
X13332700Y-10137700D01*
X13332700Y-10112300D02*
X13307300Y-10137700D01*
X13307300Y-10582300D02*
X13332700Y-10607700D01*
X13332700Y-10582300D02*
X13307300Y-10607700D01*
X13307300Y-11052300D02*
X13332700Y-11077700D01*
X13332700Y-11052300D02*
X13307300Y-11077700D01*
X13472300Y-9757300D02*
X13497700Y-9782700D01*
X13497700Y-9757300D02*
X13472300Y-9782700D01*
X13472300Y-10227300D02*
X13497700Y-10252700D01*
X13497700Y-10227300D02*
X13472300Y-10252700D01*
X13472300Y-10697300D02*
X13497700Y-10722700D01*
X13497700Y-10697300D02*
X13472300Y-10722700D01*
X13495400Y-9316300D02*
X13520800Y-9341700D01*
X13520800Y-9316300D02*
X13495400Y-9341700D01*
X13547300Y-9564800D02*
X13572700Y-9590200D01*
X13572700Y-9564800D02*
X13547300Y-9590200D01*
X13547300Y-10034800D02*
X13572700Y-10060200D01*
X13572700Y-10034800D02*
X13547300Y-10060200D01*
X13547300Y-10507300D02*
X13572700Y-10532700D01*
X13572700Y-10507300D02*
X13547300Y-10532700D01*
X13547300Y-10977300D02*
X13572700Y-11002700D01*
X13572700Y-10977300D02*
X13547300Y-11002700D01*
X13557300Y-11112300D02*
X13582700Y-11137700D01*
X13582700Y-11112300D02*
X13557300Y-11137700D01*
X13769900Y-9683500D02*
X13795300Y-9708900D01*
X13795300Y-9683500D02*
X13769900Y-9708900D01*
X13772200Y-9592000D02*
X13797600Y-9617400D01*
X13797600Y-9592000D02*
X13772200Y-9617400D01*
X13772200Y-9592000D02*
X13797600Y-9617400D01*
X13797600Y-9592000D02*
X13772200Y-9617400D01*
X13777300Y-10112300D02*
X13802700Y-10137700D01*
X13802700Y-10112300D02*
X13777300Y-10137700D01*
X13777300Y-10582300D02*
X13802700Y-10607700D01*
X13802700Y-10582300D02*
X13777300Y-10607700D01*
X13777300Y-11052300D02*
X13802700Y-11077700D01*
X13802700Y-11052300D02*
X13777300Y-11077700D01*
X13939350Y-9442050D02*
X13964750Y-9467450D01*
X13964750Y-9442050D02*
X13939350Y-9467450D01*
X13999950Y-9594650D02*
X14025350Y-9620050D01*
X14025350Y-9594650D02*
X13999950Y-9620050D01*
X14011300Y-9213300D02*
X14036700Y-9238700D01*
X14036700Y-9213300D02*
X14011300Y-9238700D01*
X14017300Y-10974800D02*
X14042700Y-11000200D01*
X14042700Y-10974800D02*
X14017300Y-11000200D01*
X14022300Y-10034800D02*
X14047700Y-10060200D01*
X14047700Y-10034800D02*
X14022300Y-10060200D01*
X14027300Y-10504800D02*
X14052700Y-10530200D01*
X14052700Y-10504800D02*
X14027300Y-10530200D01*
X14027300Y-10642300D02*
X14052700Y-10667700D01*
X14052700Y-10642300D02*
X14027300Y-10667700D01*
X14027300Y-11112300D02*
X14052700Y-11137700D01*
X14052700Y-11112300D02*
X14027300Y-11137700D01*
X14032300Y-9702300D02*
X14057700Y-9727700D01*
X14057700Y-9702300D02*
X14032300Y-9727700D01*
X14032300Y-10172300D02*
X14057700Y-10197700D01*
X14057700Y-10172300D02*
X14032300Y-10197700D01*
X14045300Y-11299700D02*
X14070700Y-11325100D01*
X14070700Y-11299700D02*
X14045300Y-11325100D01*
X14247300Y-9642300D02*
X14272700Y-9667700D01*
X14272700Y-9642300D02*
X14247300Y-9667700D01*
X14247300Y-10112300D02*
X14272700Y-10137700D01*
X14272700Y-10112300D02*
X14247300Y-10137700D01*
X14247300Y-10582300D02*
X14272700Y-10607700D01*
X14272700Y-10582300D02*
X14247300Y-10607700D01*
X14247300Y-11052300D02*
X14272700Y-11077700D01*
X14272700Y-11052300D02*
X14247300Y-11077700D01*
D11*
X12657277Y-11723984D02*
X12657277Y-11523984D01*
X12657277Y-11523984D02*
X12704896Y-11523984D01*
X12704896Y-11523984D02*
X12733467Y-11533508D01*
X12733467Y-11533508D02*
X12752515Y-11552555D01*
X12752515Y-11552555D02*
X12762039Y-11571603D01*
X12762039Y-11571603D02*
X12771562Y-11609698D01*
X12771562Y-11609698D02*
X12771562Y-11638269D01*
X12771562Y-11638269D02*
X12762039Y-11676365D01*
X12762039Y-11676365D02*
X12752515Y-11695412D01*
X12752515Y-11695412D02*
X12733467Y-11714460D01*
X12733467Y-11714460D02*
X12704896Y-11723984D01*
X12704896Y-11723984D02*
X12657277Y-11723984D01*
X12857277Y-11723984D02*
X12857277Y-11590650D01*
X12857277Y-11628746D02*
X12866801Y-11609698D01*
X12866801Y-11609698D02*
X12876324Y-11600174D01*
X12876324Y-11600174D02*
X12895372Y-11590650D01*
X12895372Y-11590650D02*
X12914420Y-11590650D01*
X12981086Y-11723984D02*
X12981086Y-11590650D01*
X12981086Y-11523984D02*
X12971562Y-11533508D01*
X12971562Y-11533508D02*
X12981086Y-11543031D01*
X12981086Y-11543031D02*
X12990610Y-11533508D01*
X12990610Y-11533508D02*
X12981086Y-11523984D01*
X12981086Y-11523984D02*
X12981086Y-11543031D01*
X13104896Y-11723984D02*
X13085848Y-11714460D01*
X13085848Y-11714460D02*
X13076324Y-11695412D01*
X13076324Y-11695412D02*
X13076324Y-11523984D01*
X13209658Y-11723984D02*
X13190610Y-11714460D01*
X13190610Y-11714460D02*
X13181086Y-11695412D01*
X13181086Y-11695412D02*
X13181086Y-11523984D01*
X13438229Y-11723984D02*
X13438229Y-11523984D01*
X13438229Y-11523984D02*
X13504896Y-11666841D01*
X13504896Y-11666841D02*
X13571562Y-11523984D01*
X13571562Y-11523984D02*
X13571562Y-11723984D01*
X13752515Y-11723984D02*
X13752515Y-11619222D01*
X13752515Y-11619222D02*
X13742991Y-11600174D01*
X13742991Y-11600174D02*
X13723943Y-11590650D01*
X13723943Y-11590650D02*
X13685848Y-11590650D01*
X13685848Y-11590650D02*
X13666801Y-11600174D01*
X13752515Y-11714460D02*
X13733467Y-11723984D01*
X13733467Y-11723984D02*
X13685848Y-11723984D01*
X13685848Y-11723984D02*
X13666801Y-11714460D01*
X13666801Y-11714460D02*
X13657277Y-11695412D01*
X13657277Y-11695412D02*
X13657277Y-11676365D01*
X13657277Y-11676365D02*
X13666801Y-11657317D01*
X13666801Y-11657317D02*
X13685848Y-11647793D01*
X13685848Y-11647793D02*
X13733467Y-11647793D01*
X13733467Y-11647793D02*
X13752515Y-11638269D01*
X13847753Y-11590650D02*
X13847753Y-11790650D01*
X13847753Y-11600174D02*
X13866801Y-11590650D01*
X13866801Y-11590650D02*
X13904896Y-11590650D01*
X13904896Y-11590650D02*
X13923943Y-11600174D01*
X13923943Y-11600174D02*
X13933467Y-11609698D01*
X13933467Y-11609698D02*
X13942991Y-11628746D01*
X13942991Y-11628746D02*
X13942991Y-11685888D01*
X13942991Y-11685888D02*
X13933467Y-11704936D01*
X13933467Y-11704936D02*
X13923943Y-11714460D01*
X13923943Y-11714460D02*
X13904896Y-11723984D01*
X13904896Y-11723984D02*
X13866801Y-11723984D01*
X13866801Y-11723984D02*
X13847753Y-11714460D01*
X14028705Y-11704936D02*
X14038229Y-11714460D01*
X14038229Y-11714460D02*
X14028705Y-11723984D01*
X14028705Y-11723984D02*
X14019182Y-11714460D01*
X14019182Y-11714460D02*
X14028705Y-11704936D01*
X14028705Y-11704936D02*
X14028705Y-11723984D01*
X14028705Y-11600174D02*
X14038229Y-11609698D01*
X14038229Y-11609698D02*
X14028705Y-11619222D01*
X14028705Y-11619222D02*
X14019182Y-11609698D01*
X14019182Y-11609698D02*
X14028705Y-11600174D01*
X14028705Y-11600174D02*
X14028705Y-11619222D01*
D12*
X12371100Y-12039800D02*
X12396500Y-12065200D01*
X12396500Y-12039800D02*
X12371100Y-12065200D01*
D11*
X12695372Y-11943984D02*
X12714420Y-11943984D01*
X12714420Y-11943984D02*
X12733467Y-11953508D01*
X12733467Y-11953508D02*
X12742991Y-11963031D01*
X12742991Y-11963031D02*
X12752515Y-11982079D01*
X12752515Y-11982079D02*
X12762039Y-12020174D01*
X12762039Y-12020174D02*
X12762039Y-12067793D01*
X12762039Y-12067793D02*
X12752515Y-12105888D01*
X12752515Y-12105888D02*
X12742991Y-12124936D01*
X12742991Y-12124936D02*
X12733467Y-12134460D01*
X12733467Y-12134460D02*
X12714420Y-12143984D01*
X12714420Y-12143984D02*
X12695372Y-12143984D01*
X12695372Y-12143984D02*
X12676324Y-12134460D01*
X12676324Y-12134460D02*
X12666801Y-12124936D01*
X12666801Y-12124936D02*
X12657277Y-12105888D01*
X12657277Y-12105888D02*
X12647753Y-12067793D01*
X12647753Y-12067793D02*
X12647753Y-12020174D01*
X12647753Y-12020174D02*
X12657277Y-11982079D01*
X12657277Y-11982079D02*
X12666801Y-11963031D01*
X12666801Y-11963031D02*
X12676324Y-11953508D01*
X12676324Y-11953508D02*
X12695372Y-11943984D01*
X12847753Y-12124936D02*
X12857277Y-12134460D01*
X12857277Y-12134460D02*
X12847753Y-12143984D01*
X12847753Y-12143984D02*
X12838229Y-12134460D01*
X12838229Y-12134460D02*
X12847753Y-12124936D01*
X12847753Y-12124936D02*
X12847753Y-12143984D01*
X12933467Y-11963031D02*
X12942991Y-11953508D01*
X12942991Y-11953508D02*
X12962039Y-11943984D01*
X12962039Y-11943984D02*
X13009658Y-11943984D01*
X13009658Y-11943984D02*
X13028705Y-11953508D01*
X13028705Y-11953508D02*
X13038229Y-11963031D01*
X13038229Y-11963031D02*
X13047753Y-11982079D01*
X13047753Y-11982079D02*
X13047753Y-12001127D01*
X13047753Y-12001127D02*
X13038229Y-12029698D01*
X13038229Y-12029698D02*
X12923943Y-12143984D01*
X12923943Y-12143984D02*
X13047753Y-12143984D01*
X13228705Y-11943984D02*
X13133467Y-11943984D01*
X13133467Y-11943984D02*
X13123943Y-12039222D01*
X13123943Y-12039222D02*
X13133467Y-12029698D01*
X13133467Y-12029698D02*
X13152515Y-12020174D01*
X13152515Y-12020174D02*
X13200134Y-12020174D01*
X13200134Y-12020174D02*
X13219182Y-12029698D01*
X13219182Y-12029698D02*
X13228705Y-12039222D01*
X13228705Y-12039222D02*
X13238229Y-12058269D01*
X13238229Y-12058269D02*
X13238229Y-12105888D01*
X13238229Y-12105888D02*
X13228705Y-12124936D01*
X13228705Y-12124936D02*
X13219182Y-12134460D01*
X13219182Y-12134460D02*
X13200134Y-12143984D01*
X13200134Y-12143984D02*
X13152515Y-12143984D01*
X13152515Y-12143984D02*
X13133467Y-12134460D01*
X13133467Y-12134460D02*
X13123943Y-12124936D01*
X13409658Y-12010650D02*
X13409658Y-12143984D01*
X13362039Y-11934460D02*
X13314420Y-12077317D01*
X13314420Y-12077317D02*
X13438229Y-12077317D01*
X13514420Y-12143984D02*
X13514420Y-12010650D01*
X13514420Y-12029698D02*
X13523943Y-12020174D01*
X13523943Y-12020174D02*
X13542991Y-12010650D01*
X13542991Y-12010650D02*
X13571563Y-12010650D01*
X13571563Y-12010650D02*
X13590610Y-12020174D01*
X13590610Y-12020174D02*
X13600134Y-12039222D01*
X13600134Y-12039222D02*
X13600134Y-12143984D01*
X13600134Y-12039222D02*
X13609658Y-12020174D01*
X13609658Y-12020174D02*
X13628705Y-12010650D01*
X13628705Y-12010650D02*
X13657277Y-12010650D01*
X13657277Y-12010650D02*
X13676324Y-12020174D01*
X13676324Y-12020174D02*
X13685848Y-12039222D01*
X13685848Y-12039222D02*
X13685848Y-12143984D01*
X13781086Y-12143984D02*
X13781086Y-12010650D01*
X13781086Y-12029698D02*
X13790610Y-12020174D01*
X13790610Y-12020174D02*
X13809658Y-12010650D01*
X13809658Y-12010650D02*
X13838229Y-12010650D01*
X13838229Y-12010650D02*
X13857277Y-12020174D01*
X13857277Y-12020174D02*
X13866801Y-12039222D01*
X13866801Y-12039222D02*
X13866801Y-12143984D01*
X13866801Y-12039222D02*
X13876324Y-12020174D01*
X13876324Y-12020174D02*
X13895372Y-12010650D01*
X13895372Y-12010650D02*
X13923943Y-12010650D01*
X13923943Y-12010650D02*
X13942991Y-12020174D01*
X13942991Y-12020174D02*
X13952515Y-12039222D01*
X13952515Y-12039222D02*
X13952515Y-12143984D01*
X14342991Y-11934460D02*
X14171563Y-12191603D01*
X14600134Y-11943984D02*
X14619182Y-11943984D01*
X14619182Y-11943984D02*
X14638229Y-11953508D01*
X14638229Y-11953508D02*
X14647753Y-11963031D01*
X14647753Y-11963031D02*
X14657277Y-11982079D01*
X14657277Y-11982079D02*
X14666801Y-12020174D01*
X14666801Y-12020174D02*
X14666801Y-12067793D01*
X14666801Y-12067793D02*
X14657277Y-12105888D01*
X14657277Y-12105888D02*
X14647753Y-12124936D01*
X14647753Y-12124936D02*
X14638229Y-12134460D01*
X14638229Y-12134460D02*
X14619182Y-12143984D01*
X14619182Y-12143984D02*
X14600134Y-12143984D01*
X14600134Y-12143984D02*
X14581086Y-12134460D01*
X14581086Y-12134460D02*
X14571563Y-12124936D01*
X14571563Y-12124936D02*
X14562039Y-12105888D01*
X14562039Y-12105888D02*
X14552515Y-12067793D01*
X14552515Y-12067793D02*
X14552515Y-12020174D01*
X14552515Y-12020174D02*
X14562039Y-11982079D01*
X14562039Y-11982079D02*
X14571563Y-11963031D01*
X14571563Y-11963031D02*
X14581086Y-11953508D01*
X14581086Y-11953508D02*
X14600134Y-11943984D01*
X14752515Y-12124936D02*
X14762039Y-12134460D01*
X14762039Y-12134460D02*
X14752515Y-12143984D01*
X14752515Y-12143984D02*
X14742991Y-12134460D01*
X14742991Y-12134460D02*
X14752515Y-12124936D01*
X14752515Y-12124936D02*
X14752515Y-12143984D01*
X14885848Y-11943984D02*
X14904896Y-11943984D01*
X14904896Y-11943984D02*
X14923944Y-11953508D01*
X14923944Y-11953508D02*
X14933467Y-11963031D01*
X14933467Y-11963031D02*
X14942991Y-11982079D01*
X14942991Y-11982079D02*
X14952515Y-12020174D01*
X14952515Y-12020174D02*
X14952515Y-12067793D01*
X14952515Y-12067793D02*
X14942991Y-12105888D01*
X14942991Y-12105888D02*
X14933467Y-12124936D01*
X14933467Y-12124936D02*
X14923944Y-12134460D01*
X14923944Y-12134460D02*
X14904896Y-12143984D01*
X14904896Y-12143984D02*
X14885848Y-12143984D01*
X14885848Y-12143984D02*
X14866801Y-12134460D01*
X14866801Y-12134460D02*
X14857277Y-12124936D01*
X14857277Y-12124936D02*
X14847753Y-12105888D01*
X14847753Y-12105888D02*
X14838229Y-12067793D01*
X14838229Y-12067793D02*
X14838229Y-12020174D01*
X14838229Y-12020174D02*
X14847753Y-11982079D01*
X14847753Y-11982079D02*
X14857277Y-11963031D01*
X14857277Y-11963031D02*
X14866801Y-11953508D01*
X14866801Y-11953508D02*
X14885848Y-11943984D01*
X15142991Y-12143984D02*
X15028706Y-12143984D01*
X15085848Y-12143984D02*
X15085848Y-11943984D01*
X15085848Y-11943984D02*
X15066801Y-11972555D01*
X15066801Y-11972555D02*
X15047753Y-11991603D01*
X15047753Y-11991603D02*
X15028706Y-12001127D01*
X15266801Y-11943984D02*
X15285848Y-11943984D01*
X15285848Y-11943984D02*
X15304896Y-11953508D01*
X15304896Y-11953508D02*
X15314420Y-11963031D01*
X15314420Y-11963031D02*
X15323944Y-11982079D01*
X15323944Y-11982079D02*
X15333467Y-12020174D01*
X15333467Y-12020174D02*
X15333467Y-12067793D01*
X15333467Y-12067793D02*
X15323944Y-12105888D01*
X15323944Y-12105888D02*
X15314420Y-12124936D01*
X15314420Y-12124936D02*
X15304896Y-12134460D01*
X15304896Y-12134460D02*
X15285848Y-12143984D01*
X15285848Y-12143984D02*
X15266801Y-12143984D01*
X15266801Y-12143984D02*
X15247753Y-12134460D01*
X15247753Y-12134460D02*
X15238229Y-12124936D01*
X15238229Y-12124936D02*
X15228706Y-12105888D01*
X15228706Y-12105888D02*
X15219182Y-12067793D01*
X15219182Y-12067793D02*
X15219182Y-12020174D01*
X15219182Y-12020174D02*
X15228706Y-11982079D01*
X15228706Y-11982079D02*
X15238229Y-11963031D01*
X15238229Y-11963031D02*
X15247753Y-11953508D01*
X15247753Y-11953508D02*
X15266801Y-11943984D01*
X15457277Y-11943984D02*
X15476325Y-11943984D01*
X15476325Y-11943984D02*
X15495372Y-11953508D01*
X15495372Y-11953508D02*
X15504896Y-11963031D01*
X15504896Y-11963031D02*
X15514420Y-11982079D01*
X15514420Y-11982079D02*
X15523944Y-12020174D01*
X15523944Y-12020174D02*
X15523944Y-12067793D01*
X15523944Y-12067793D02*
X15514420Y-12105888D01*
X15514420Y-12105888D02*
X15504896Y-12124936D01*
X15504896Y-12124936D02*
X15495372Y-12134460D01*
X15495372Y-12134460D02*
X15476325Y-12143984D01*
X15476325Y-12143984D02*
X15457277Y-12143984D01*
X15457277Y-12143984D02*
X15438229Y-12134460D01*
X15438229Y-12134460D02*
X15428706Y-12124936D01*
X15428706Y-12124936D02*
X15419182Y-12105888D01*
X15419182Y-12105888D02*
X15409658Y-12067793D01*
X15409658Y-12067793D02*
X15409658Y-12020174D01*
X15409658Y-12020174D02*
X15419182Y-11982079D01*
X15419182Y-11982079D02*
X15428706Y-11963031D01*
X15428706Y-11963031D02*
X15438229Y-11953508D01*
X15438229Y-11953508D02*
X15457277Y-11943984D01*
X15600134Y-11943984D02*
X15600134Y-11982079D01*
X15676325Y-11943984D02*
X15676325Y-11982079D01*
X15971563Y-12220174D02*
X15962039Y-12210650D01*
X15962039Y-12210650D02*
X15942991Y-12182079D01*
X15942991Y-12182079D02*
X15933468Y-12163031D01*
X15933468Y-12163031D02*
X15923944Y-12134460D01*
X15923944Y-12134460D02*
X15914420Y-12086841D01*
X15914420Y-12086841D02*
X15914420Y-12048746D01*
X15914420Y-12048746D02*
X15923944Y-12001127D01*
X15923944Y-12001127D02*
X15933468Y-11972555D01*
X15933468Y-11972555D02*
X15942991Y-11953508D01*
X15942991Y-11953508D02*
X15962039Y-11924936D01*
X15962039Y-11924936D02*
X15971563Y-11915412D01*
X16142991Y-11943984D02*
X16047753Y-11943984D01*
X16047753Y-11943984D02*
X16038229Y-12039222D01*
X16038229Y-12039222D02*
X16047753Y-12029698D01*
X16047753Y-12029698D02*
X16066801Y-12020174D01*
X16066801Y-12020174D02*
X16114420Y-12020174D01*
X16114420Y-12020174D02*
X16133468Y-12029698D01*
X16133468Y-12029698D02*
X16142991Y-12039222D01*
X16142991Y-12039222D02*
X16152515Y-12058269D01*
X16152515Y-12058269D02*
X16152515Y-12105888D01*
X16152515Y-12105888D02*
X16142991Y-12124936D01*
X16142991Y-12124936D02*
X16133468Y-12134460D01*
X16133468Y-12134460D02*
X16114420Y-12143984D01*
X16114420Y-12143984D02*
X16066801Y-12143984D01*
X16066801Y-12143984D02*
X16047753Y-12134460D01*
X16047753Y-12134460D02*
X16038229Y-12124936D01*
X16219182Y-11943984D02*
X16352515Y-11943984D01*
X16352515Y-11943984D02*
X16266801Y-12143984D01*
X16581087Y-12143984D02*
X16581087Y-11943984D01*
X16666801Y-12143984D02*
X16666801Y-12039222D01*
X16666801Y-12039222D02*
X16657277Y-12020174D01*
X16657277Y-12020174D02*
X16638230Y-12010650D01*
X16638230Y-12010650D02*
X16609658Y-12010650D01*
X16609658Y-12010650D02*
X16590610Y-12020174D01*
X16590610Y-12020174D02*
X16581087Y-12029698D01*
X16790611Y-12143984D02*
X16771563Y-12134460D01*
X16771563Y-12134460D02*
X16762039Y-12124936D01*
X16762039Y-12124936D02*
X16752515Y-12105888D01*
X16752515Y-12105888D02*
X16752515Y-12048746D01*
X16752515Y-12048746D02*
X16762039Y-12029698D01*
X16762039Y-12029698D02*
X16771563Y-12020174D01*
X16771563Y-12020174D02*
X16790611Y-12010650D01*
X16790611Y-12010650D02*
X16819182Y-12010650D01*
X16819182Y-12010650D02*
X16838230Y-12020174D01*
X16838230Y-12020174D02*
X16847753Y-12029698D01*
X16847753Y-12029698D02*
X16857277Y-12048746D01*
X16857277Y-12048746D02*
X16857277Y-12105888D01*
X16857277Y-12105888D02*
X16847753Y-12124936D01*
X16847753Y-12124936D02*
X16838230Y-12134460D01*
X16838230Y-12134460D02*
X16819182Y-12143984D01*
X16819182Y-12143984D02*
X16790611Y-12143984D01*
X16971563Y-12143984D02*
X16952515Y-12134460D01*
X16952515Y-12134460D02*
X16942992Y-12115412D01*
X16942992Y-12115412D02*
X16942992Y-11943984D01*
X17123944Y-12134460D02*
X17104896Y-12143984D01*
X17104896Y-12143984D02*
X17066801Y-12143984D01*
X17066801Y-12143984D02*
X17047753Y-12134460D01*
X17047753Y-12134460D02*
X17038230Y-12115412D01*
X17038230Y-12115412D02*
X17038230Y-12039222D01*
X17038230Y-12039222D02*
X17047753Y-12020174D01*
X17047753Y-12020174D02*
X17066801Y-12010650D01*
X17066801Y-12010650D02*
X17104896Y-12010650D01*
X17104896Y-12010650D02*
X17123944Y-12020174D01*
X17123944Y-12020174D02*
X17133468Y-12039222D01*
X17133468Y-12039222D02*
X17133468Y-12058269D01*
X17133468Y-12058269D02*
X17038230Y-12077317D01*
X17209658Y-12134460D02*
X17228706Y-12143984D01*
X17228706Y-12143984D02*
X17266801Y-12143984D01*
X17266801Y-12143984D02*
X17285849Y-12134460D01*
X17285849Y-12134460D02*
X17295373Y-12115412D01*
X17295373Y-12115412D02*
X17295373Y-12105888D01*
X17295373Y-12105888D02*
X17285849Y-12086841D01*
X17285849Y-12086841D02*
X17266801Y-12077317D01*
X17266801Y-12077317D02*
X17238230Y-12077317D01*
X17238230Y-12077317D02*
X17219182Y-12067793D01*
X17219182Y-12067793D02*
X17209658Y-12048746D01*
X17209658Y-12048746D02*
X17209658Y-12039222D01*
X17209658Y-12039222D02*
X17219182Y-12020174D01*
X17219182Y-12020174D02*
X17238230Y-12010650D01*
X17238230Y-12010650D02*
X17266801Y-12010650D01*
X17266801Y-12010650D02*
X17285849Y-12020174D01*
X17362039Y-12220174D02*
X17371563Y-12210650D01*
X17371563Y-12210650D02*
X17390611Y-12182079D01*
X17390611Y-12182079D02*
X17400134Y-12163031D01*
X17400134Y-12163031D02*
X17409658Y-12134460D01*
X17409658Y-12134460D02*
X17419182Y-12086841D01*
X17419182Y-12086841D02*
X17419182Y-12048746D01*
X17419182Y-12048746D02*
X17409658Y-12001127D01*
X17409658Y-12001127D02*
X17400134Y-11972555D01*
X17400134Y-11972555D02*
X17390611Y-11953508D01*
X17390611Y-11953508D02*
X17371563Y-11924936D01*
X17371563Y-11924936D02*
X17362039Y-11915412D01*
M02*
