M48
; DRILL file KiCad 10.0.4-10.0.4~ubuntu24.04.1 date 2026-06-30T15:28:43
; FORMAT={-:-/ absolute / metric / decimal}
; #@! TF.CreationDate,2026-06-30T15:28:43+09:00
; #@! TF.GenerationSoftware,Kicad,Pcbnew,10.0.4-10.0.4~ubuntu24.04.1
; #@! TF.FileFunction,MixedPlating,1,2
FMAT,2
METRIC
; #@! TA.AperFunction,Plated,PTH,ViaDrill
T1C0.254
%
G90
G05
T1
X126.15Y-109.875
X126.25Y-100.475
X126.25Y-105.175
X126.338Y-96.28
X126.35Y-97.15
X126.35Y-101.85
X126.35Y-106.55
X126.35Y-111.3
X128.5Y-96.55
X128.5Y-101.25
X128.5Y-105.95
X128.5Y-110.65
X128.779Y-92.26
X129.275Y-111.375
X130.43Y-94.002
X130.875Y-100.475
X130.95Y-95.775
X130.95Y-105.175
X130.975Y-109.887
X131.0Y-111.25
X131.05Y-97.15
X131.05Y-101.85
X131.05Y-106.55
X133.2Y-96.55
X133.2Y-101.25
X133.2Y-105.95
X133.2Y-110.65
X134.85Y-97.7
X134.85Y-102.4
X134.85Y-107.1
X135.081Y-93.29
X135.6Y-95.775
X135.6Y-100.475
X135.6Y-105.2
X135.6Y-109.9
X135.7Y-111.25
X137.826Y-96.962
X137.849Y-96.047
X137.849Y-96.047
X137.9Y-101.25
X137.9Y-105.95
X137.9Y-110.65
X139.52Y-94.547
X140.126Y-96.073
X140.24Y-92.26
X140.3Y-109.875
X140.35Y-100.475
X140.4Y-105.175
X140.4Y-106.55
X140.4Y-111.25
X140.45Y-97.15
X140.45Y-101.85
X140.58Y-113.124
X142.6Y-96.55
X142.6Y-101.25
X142.6Y-105.95
X142.6Y-110.65
M30
