%TF.GenerationSoftware,KiCad,Pcbnew,10.0.4-10.0.4~ubuntu24.04.1*%
%TF.CreationDate,2026-06-30T15:28:47+09:00*%
%TF.ProjectId,4x4,3478342e-6b69-4636-9164-5f7063625858,rev?*%
%TF.SameCoordinates,Original*%
%TF.FileFunction,AssemblyDrawing,Bot*%
%FSLAX46Y46*%
G04 Gerber Fmt 4.6, Leading zero omitted, Abs format (unit mm)*
G04 Created by KiCad (PCBNEW 10.0.4-10.0.4~ubuntu24.04.1) date 2026-06-30 15:28:47*
%MOMM*%
%LPD*%
G01*
G04 APERTURE LIST*
%ADD10C,0.098425*%
%ADD11C,0.127000*%
G04 APERTURE END LIST*
D10*
X131057033Y-98658888D02*
X131038285Y-98677636D01*
X131038285Y-98677636D02*
X131019538Y-98715131D01*
X131019538Y-98715131D02*
X131057033Y-98790122D01*
X131057033Y-98790122D02*
X131038285Y-98827617D01*
X131038285Y-98827617D02*
X131019538Y-98846365D01*
X126357033Y-112746888D02*
X126338285Y-112765636D01*
X126338285Y-112765636D02*
X126319538Y-112803131D01*
X126319538Y-112803131D02*
X126357033Y-112878122D01*
X126357033Y-112878122D02*
X126338285Y-112915617D01*
X126338285Y-112915617D02*
X126319538Y-112934365D01*
X135757033Y-103358888D02*
X135738285Y-103377636D01*
X135738285Y-103377636D02*
X135719538Y-103415131D01*
X135719538Y-103415131D02*
X135757033Y-103490122D01*
X135757033Y-103490122D02*
X135738285Y-103527617D01*
X135738285Y-103527617D02*
X135719538Y-103546365D01*
X140457033Y-103358888D02*
X140438285Y-103377636D01*
X140438285Y-103377636D02*
X140419538Y-103415131D01*
X140419538Y-103415131D02*
X140457033Y-103490122D01*
X140457033Y-103490122D02*
X140438285Y-103527617D01*
X140438285Y-103527617D02*
X140419538Y-103546365D01*
X131057033Y-103358888D02*
X131038285Y-103377636D01*
X131038285Y-103377636D02*
X131019538Y-103415131D01*
X131019538Y-103415131D02*
X131057033Y-103490122D01*
X131057033Y-103490122D02*
X131038285Y-103527617D01*
X131038285Y-103527617D02*
X131019538Y-103546365D01*
X140457033Y-112758888D02*
X140438285Y-112777636D01*
X140438285Y-112777636D02*
X140419538Y-112815131D01*
X140419538Y-112815131D02*
X140457033Y-112890122D01*
X140457033Y-112890122D02*
X140438285Y-112927617D01*
X140438285Y-112927617D02*
X140419538Y-112946365D01*
X135757033Y-98658888D02*
X135738285Y-98677636D01*
X135738285Y-98677636D02*
X135719538Y-98715131D01*
X135719538Y-98715131D02*
X135757033Y-98790122D01*
X135757033Y-98790122D02*
X135738285Y-98827617D01*
X135738285Y-98827617D02*
X135719538Y-98846365D01*
X135757033Y-108058888D02*
X135738285Y-108077636D01*
X135738285Y-108077636D02*
X135719538Y-108115131D01*
X135719538Y-108115131D02*
X135757033Y-108190122D01*
X135757033Y-108190122D02*
X135738285Y-108227617D01*
X135738285Y-108227617D02*
X135719538Y-108246365D01*
X126357033Y-98658888D02*
X126338285Y-98677636D01*
X126338285Y-98677636D02*
X126319538Y-98715131D01*
X126319538Y-98715131D02*
X126357033Y-98790122D01*
X126357033Y-98790122D02*
X126338285Y-98827617D01*
X126338285Y-98827617D02*
X126319538Y-98846365D01*
X140457033Y-108058888D02*
X140438285Y-108077636D01*
X140438285Y-108077636D02*
X140419538Y-108115131D01*
X140419538Y-108115131D02*
X140457033Y-108190122D01*
X140457033Y-108190122D02*
X140438285Y-108227617D01*
X140438285Y-108227617D02*
X140419538Y-108246365D01*
X126357033Y-103358888D02*
X126338285Y-103377636D01*
X126338285Y-103377636D02*
X126319538Y-103415131D01*
X126319538Y-103415131D02*
X126357033Y-103490122D01*
X126357033Y-103490122D02*
X126338285Y-103527617D01*
X126338285Y-103527617D02*
X126319538Y-103546365D01*
X131057033Y-112758888D02*
X131038285Y-112777636D01*
X131038285Y-112777636D02*
X131019538Y-112815131D01*
X131019538Y-112815131D02*
X131057033Y-112890122D01*
X131057033Y-112890122D02*
X131038285Y-112927617D01*
X131038285Y-112927617D02*
X131019538Y-112946365D01*
X131057033Y-108058888D02*
X131038285Y-108077636D01*
X131038285Y-108077636D02*
X131019538Y-108115131D01*
X131019538Y-108115131D02*
X131057033Y-108190122D01*
X131057033Y-108190122D02*
X131038285Y-108227617D01*
X131038285Y-108227617D02*
X131019538Y-108246365D01*
X140457033Y-98658888D02*
X140438285Y-98677636D01*
X140438285Y-98677636D02*
X140419538Y-98715131D01*
X140419538Y-98715131D02*
X140457033Y-98790122D01*
X140457033Y-98790122D02*
X140438285Y-98827617D01*
X140438285Y-98827617D02*
X140419538Y-98846365D01*
X135757033Y-112758888D02*
X135738285Y-112777636D01*
X135738285Y-112777636D02*
X135719538Y-112815131D01*
X135719538Y-112815131D02*
X135757033Y-112890122D01*
X135757033Y-112890122D02*
X135738285Y-112927617D01*
X135738285Y-112927617D02*
X135719538Y-112946365D01*
X126357033Y-108058888D02*
X126338285Y-108077636D01*
X126338285Y-108077636D02*
X126319538Y-108115131D01*
X126319538Y-108115131D02*
X126357033Y-108190122D01*
X126357033Y-108190122D02*
X126338285Y-108227617D01*
X126338285Y-108227617D02*
X126319538Y-108246365D01*
%TO.C,CC_2*%
D11*
X129870000Y-97242000D02*
X129870000Y-96182000D01*
X130430000Y-96182000D02*
X129870000Y-96182000D01*
X130430000Y-97242000D02*
X129870000Y-97242000D01*
X130430000Y-97242000D02*
X130430000Y-96182000D01*
%TO.C,CC_13*%
X125170000Y-111330000D02*
X125170000Y-110270000D01*
X125730000Y-110270000D02*
X125170000Y-110270000D01*
X125730000Y-111330000D02*
X125170000Y-111330000D01*
X125730000Y-111330000D02*
X125730000Y-110270000D01*
%TO.C,CC_7*%
X134570000Y-101942000D02*
X134570000Y-100882000D01*
X135130000Y-100882000D02*
X134570000Y-100882000D01*
X135130000Y-101942000D02*
X134570000Y-101942000D01*
X135130000Y-101942000D02*
X135130000Y-100882000D01*
%TO.C,CC_8*%
X139270000Y-101942000D02*
X139270000Y-100882000D01*
X139830000Y-100882000D02*
X139270000Y-100882000D01*
X139830000Y-101942000D02*
X139270000Y-101942000D01*
X139830000Y-101942000D02*
X139830000Y-100882000D01*
%TO.C,CC_6*%
X129870000Y-101942000D02*
X129870000Y-100882000D01*
X130430000Y-100882000D02*
X129870000Y-100882000D01*
X130430000Y-101942000D02*
X129870000Y-101942000D01*
X130430000Y-101942000D02*
X130430000Y-100882000D01*
%TO.C,CC_16*%
X139270000Y-111342000D02*
X139270000Y-110282000D01*
X139830000Y-110282000D02*
X139270000Y-110282000D01*
X139830000Y-111342000D02*
X139270000Y-111342000D01*
X139830000Y-111342000D02*
X139830000Y-110282000D01*
%TO.C,CC_3*%
X134570000Y-97242000D02*
X134570000Y-96182000D01*
X135130000Y-96182000D02*
X134570000Y-96182000D01*
X135130000Y-97242000D02*
X134570000Y-97242000D01*
X135130000Y-97242000D02*
X135130000Y-96182000D01*
%TO.C,CC_11*%
X134570000Y-106642000D02*
X134570000Y-105582000D01*
X135130000Y-105582000D02*
X134570000Y-105582000D01*
X135130000Y-106642000D02*
X134570000Y-106642000D01*
X135130000Y-106642000D02*
X135130000Y-105582000D01*
%TO.C,CC_1*%
X125170000Y-97242000D02*
X125170000Y-96182000D01*
X125730000Y-96182000D02*
X125170000Y-96182000D01*
X125730000Y-97242000D02*
X125170000Y-97242000D01*
X125730000Y-97242000D02*
X125730000Y-96182000D01*
%TO.C,CC_12*%
X139270000Y-106642000D02*
X139270000Y-105582000D01*
X139830000Y-105582000D02*
X139270000Y-105582000D01*
X139830000Y-106642000D02*
X139270000Y-106642000D01*
X139830000Y-106642000D02*
X139830000Y-105582000D01*
%TO.C,CC_5*%
X125170000Y-101942000D02*
X125170000Y-100882000D01*
X125730000Y-100882000D02*
X125170000Y-100882000D01*
X125730000Y-101942000D02*
X125170000Y-101942000D01*
X125730000Y-101942000D02*
X125730000Y-100882000D01*
%TO.C,CC_14*%
X129870000Y-111342000D02*
X129870000Y-110282000D01*
X130430000Y-110282000D02*
X129870000Y-110282000D01*
X130430000Y-111342000D02*
X129870000Y-111342000D01*
X130430000Y-111342000D02*
X130430000Y-110282000D01*
%TO.C,CC_10*%
X129870000Y-106642000D02*
X129870000Y-105582000D01*
X130430000Y-105582000D02*
X129870000Y-105582000D01*
X130430000Y-106642000D02*
X129870000Y-106642000D01*
X130430000Y-106642000D02*
X130430000Y-105582000D01*
%TO.C,CC_4*%
X139270000Y-97242000D02*
X139270000Y-96182000D01*
X139830000Y-96182000D02*
X139270000Y-96182000D01*
X139830000Y-97242000D02*
X139270000Y-97242000D01*
X139830000Y-97242000D02*
X139830000Y-96182000D01*
%TO.C,CC_15*%
X134570000Y-111342000D02*
X134570000Y-110282000D01*
X135130000Y-110282000D02*
X134570000Y-110282000D01*
X135130000Y-111342000D02*
X134570000Y-111342000D01*
X135130000Y-111342000D02*
X135130000Y-110282000D01*
%TO.C,CC_9*%
X125170000Y-106642000D02*
X125170000Y-105582000D01*
X125730000Y-105582000D02*
X125170000Y-105582000D01*
X125730000Y-106642000D02*
X125170000Y-106642000D01*
X125730000Y-106642000D02*
X125730000Y-105582000D01*
%TD*%
M02*
