%TF.GenerationSoftware,KiCad,Pcbnew,10.0.4-10.0.4~ubuntu24.04.1*%
%TF.CreationDate,2026-06-30T15:28:47+09:00*%
%TF.ProjectId,4x4,3478342e-6b69-4636-9164-5f7063625858,rev?*%
%TF.SameCoordinates,Original*%
%TF.FileFunction,Copper,L2,Bot*%
%TF.FilePolarity,Positive*%
%FSLAX46Y46*%
G04 Gerber Fmt 4.6, Leading zero omitted, Abs format (unit mm)*
G04 Created by KiCad (PCBNEW 10.0.4-10.0.4~ubuntu24.04.1) date 2026-06-30 15:28:47*
%MOMM*%
%LPD*%
G01*
G04 APERTURE LIST*
%TA.AperFunction,SMDPad,CuDef*%
%ADD10R,0.600000X0.540000*%
%TD*%
%TA.AperFunction,ViaPad*%
%ADD11C,0.457200*%
%TD*%
%TA.AperFunction,Conductor*%
%ADD12C,0.152400*%
%TD*%
G04 APERTURE END LIST*
D10*
%TO.P,CC_2,1*%
%TO.N,VDD*%
X130150000Y-96280000D03*
%TO.P,CC_2,2*%
%TO.N,GND*%
X130150000Y-97144000D03*
%TD*%
%TO.P,CC_13,1*%
%TO.N,VDD*%
X125450000Y-110368000D03*
%TO.P,CC_13,2*%
%TO.N,GND*%
X125450000Y-111232000D03*
%TD*%
%TO.P,CC_7,1*%
%TO.N,VDD*%
X134850000Y-100980000D03*
%TO.P,CC_7,2*%
%TO.N,GND*%
X134850000Y-101844000D03*
%TD*%
%TO.P,CC_8,1*%
%TO.N,VDD*%
X139550000Y-100980000D03*
%TO.P,CC_8,2*%
%TO.N,GND*%
X139550000Y-101844000D03*
%TD*%
%TO.P,CC_6,1*%
%TO.N,VDD*%
X130150000Y-100980000D03*
%TO.P,CC_6,2*%
%TO.N,GND*%
X130150000Y-101844000D03*
%TD*%
%TO.P,CC_16,1*%
%TO.N,VDD*%
X139550000Y-110380000D03*
%TO.P,CC_16,2*%
%TO.N,GND*%
X139550000Y-111244000D03*
%TD*%
%TO.P,CC_3,1*%
%TO.N,VDD*%
X134850000Y-96280000D03*
%TO.P,CC_3,2*%
%TO.N,GND*%
X134850000Y-97144000D03*
%TD*%
%TO.P,CC_11,1*%
%TO.N,VDD*%
X134850000Y-105680000D03*
%TO.P,CC_11,2*%
%TO.N,GND*%
X134850000Y-106544000D03*
%TD*%
%TO.P,CC_1,1*%
%TO.N,VDD*%
X125450000Y-96280000D03*
%TO.P,CC_1,2*%
%TO.N,GND*%
X125450000Y-97144000D03*
%TD*%
%TO.P,CC_12,1*%
%TO.N,VDD*%
X139550000Y-105680000D03*
%TO.P,CC_12,2*%
%TO.N,GND*%
X139550000Y-106544000D03*
%TD*%
%TO.P,CC_5,1*%
%TO.N,VDD*%
X125450000Y-100980000D03*
%TO.P,CC_5,2*%
%TO.N,GND*%
X125450000Y-101844000D03*
%TD*%
%TO.P,CC_14,1*%
%TO.N,VDD*%
X130150000Y-110380000D03*
%TO.P,CC_14,2*%
%TO.N,GND*%
X130150000Y-111244000D03*
%TD*%
%TO.P,CC_10,1*%
%TO.N,VDD*%
X130150000Y-105680000D03*
%TO.P,CC_10,2*%
%TO.N,GND*%
X130150000Y-106544000D03*
%TD*%
%TO.P,CC_4,1*%
%TO.N,VDD*%
X139550000Y-96280000D03*
%TO.P,CC_4,2*%
%TO.N,GND*%
X139550000Y-97144000D03*
%TD*%
%TO.P,CC_15,1*%
%TO.N,VDD*%
X134850000Y-110380000D03*
%TO.P,CC_15,2*%
%TO.N,GND*%
X134850000Y-111244000D03*
%TD*%
%TO.P,CC_9,1*%
%TO.N,VDD*%
X125450000Y-105680000D03*
%TO.P,CC_9,2*%
%TO.N,GND*%
X125450000Y-106544000D03*
%TD*%
D11*
%TO.N,GND*%
X137826000Y-96962000D03*
X128500000Y-110650000D03*
X128500000Y-96550000D03*
X134850000Y-102400000D03*
X142600000Y-96550000D03*
X126350000Y-111300000D03*
X128779000Y-92260000D03*
X131000000Y-111250000D03*
X137900000Y-101250000D03*
X140450000Y-101850000D03*
X128500000Y-101250000D03*
X131050000Y-101850000D03*
X131050000Y-106550000D03*
X134850000Y-97700000D03*
X140400000Y-106550000D03*
X142600000Y-110650000D03*
X140240000Y-92260000D03*
X133200000Y-96550000D03*
X137900000Y-105950000D03*
X142600000Y-105950000D03*
X133200000Y-101250000D03*
X142600000Y-101250000D03*
X135700000Y-111250000D03*
X140400000Y-111250000D03*
X133200000Y-110650000D03*
X140450000Y-97150000D03*
X134850000Y-107100000D03*
X126350000Y-101850000D03*
X128500000Y-105950000D03*
X133200000Y-105950000D03*
X126350000Y-106550000D03*
X126350000Y-97150000D03*
X131050000Y-97150000D03*
X137900000Y-110650000D03*
X140580000Y-113124000D03*
X130430000Y-94002000D03*
%TO.N,VDD*%
X140400000Y-105175000D03*
X130975000Y-109887500D03*
X130950000Y-95775000D03*
X135600000Y-95775000D03*
X140126500Y-96073500D03*
X139520500Y-94547500D03*
X130950000Y-105175000D03*
X126150000Y-109875000D03*
X126250000Y-100475000D03*
X126338000Y-96280000D03*
X135600000Y-105200000D03*
X126250000Y-105175000D03*
X129275000Y-111375000D03*
X130875000Y-100475000D03*
X140350000Y-100475000D03*
X135600000Y-109900000D03*
X140300000Y-109875000D03*
X135600000Y-100475000D03*
%TO.N,/Sensor Group/RX3*%
X135081000Y-93290000D03*
X137849000Y-96047000D03*
X137849000Y-96047000D03*
%TD*%
%TO.N,GND*%
D12*
X130150000Y-101844000D02*
X131044000Y-101844000D01*
X131044000Y-106544000D02*
X131050000Y-106550000D01*
X131044000Y-101844000D02*
X131050000Y-101850000D01*
X140444000Y-97144000D02*
X140450000Y-97150000D01*
X134850000Y-97144000D02*
X134850000Y-97700000D01*
X139550000Y-106544000D02*
X140394000Y-106544000D01*
X130150000Y-111244000D02*
X130994000Y-111244000D01*
X126282000Y-111232000D02*
X126350000Y-111300000D01*
X135694000Y-111244000D02*
X135700000Y-111250000D01*
X125450000Y-101844000D02*
X126344000Y-101844000D01*
X130994000Y-111244000D02*
X131000000Y-111250000D01*
X131044000Y-97144000D02*
X131050000Y-97150000D01*
X130150000Y-106544000D02*
X131044000Y-106544000D01*
X134850000Y-101844000D02*
X134850000Y-102400000D01*
X140394000Y-106544000D02*
X140400000Y-106550000D01*
X140444000Y-101844000D02*
X140450000Y-101850000D01*
X130150000Y-97144000D02*
X131044000Y-97144000D01*
X139550000Y-97144000D02*
X140444000Y-97144000D01*
X139550000Y-101844000D02*
X140444000Y-101844000D01*
X126344000Y-97144000D02*
X126350000Y-97150000D01*
X134850000Y-111244000D02*
X135694000Y-111244000D01*
X125450000Y-111232000D02*
X126282000Y-111232000D01*
X126344000Y-101844000D02*
X126350000Y-101850000D01*
X126344000Y-106544000D02*
X126350000Y-106550000D01*
X140394000Y-111244000D02*
X140400000Y-111250000D01*
X134850000Y-106544000D02*
X134850000Y-107100000D01*
X139550000Y-111244000D02*
X140394000Y-111244000D01*
X125450000Y-97144000D02*
X126344000Y-97144000D01*
X125450000Y-106544000D02*
X126344000Y-106544000D01*
%TO.N,VDD*%
X139845000Y-100980000D02*
X140350000Y-100475000D01*
X139550000Y-100980000D02*
X139845000Y-100980000D01*
X125745000Y-105680000D02*
X126250000Y-105175000D01*
X136330000Y-96505000D02*
X135600000Y-95775000D01*
X125657000Y-110368000D02*
X126150000Y-109875000D01*
X139695000Y-96505000D02*
X136330000Y-96505000D01*
X126162500Y-109887500D02*
X126150000Y-109875000D01*
X125450000Y-110368000D02*
X125657000Y-110368000D01*
X135600000Y-105200000D02*
X135600000Y-100475000D01*
X135600000Y-109900000D02*
X140275000Y-109900000D01*
X129275000Y-110200000D02*
X129275000Y-111375000D01*
X130875000Y-100475000D02*
X126250000Y-100475000D01*
X134850000Y-105680000D02*
X135120000Y-105680000D01*
X140375000Y-105200000D02*
X140400000Y-105175000D01*
X135095000Y-100980000D02*
X135600000Y-100475000D01*
X130150000Y-105680000D02*
X130445000Y-105680000D01*
X135600000Y-100475000D02*
X135600000Y-95775000D01*
X135600000Y-100475000D02*
X140350000Y-100475000D01*
X130950000Y-95775000D02*
X126843000Y-95775000D01*
X130445000Y-96280000D02*
X130950000Y-95775000D01*
X135600000Y-95775000D02*
X130950000Y-95775000D01*
X135600000Y-105200000D02*
X130975000Y-105200000D01*
X130150000Y-100980000D02*
X130370000Y-100980000D01*
X135600000Y-109900000D02*
X130987500Y-109900000D01*
X130370000Y-100980000D02*
X130875000Y-100475000D01*
X125450000Y-105680000D02*
X125745000Y-105680000D01*
X130445000Y-105680000D02*
X130950000Y-105175000D01*
X130482500Y-110380000D02*
X130975000Y-109887500D01*
X139520500Y-94547500D02*
X140425000Y-95452000D01*
X130975000Y-109887500D02*
X129600000Y-109887500D01*
X135600000Y-109900000D02*
X135600000Y-105200000D01*
X139550000Y-105680000D02*
X139895000Y-105680000D01*
X135600000Y-105200000D02*
X140375000Y-105200000D01*
X126843000Y-95775000D02*
X126338000Y-96280000D01*
X135120000Y-110380000D02*
X135600000Y-109900000D01*
X139920000Y-96280000D02*
X139550000Y-96280000D01*
X135600000Y-100475000D02*
X130875000Y-100475000D01*
X125450000Y-100980000D02*
X125745000Y-100980000D01*
X139895000Y-105680000D02*
X140400000Y-105175000D01*
X140126500Y-96073500D02*
X139920000Y-96280000D01*
X140425000Y-95775000D02*
X140126500Y-96073500D01*
X130150000Y-110380000D02*
X130482500Y-110380000D01*
X129600000Y-109887500D02*
X126162500Y-109887500D01*
X139550000Y-110380000D02*
X139795000Y-110380000D01*
X140126500Y-96073500D02*
X139695000Y-96505000D01*
X130150000Y-96280000D02*
X130445000Y-96280000D01*
X130987500Y-109900000D02*
X130975000Y-109887500D01*
X140425000Y-95452000D02*
X140425000Y-95775000D01*
X125745000Y-100980000D02*
X126250000Y-100475000D01*
X129600000Y-109887500D02*
X129587500Y-109887500D01*
X134850000Y-100980000D02*
X135095000Y-100980000D01*
X134850000Y-110380000D02*
X135120000Y-110380000D01*
X129587500Y-109887500D02*
X129275000Y-110200000D01*
X135120000Y-105680000D02*
X135600000Y-105200000D01*
X139795000Y-110380000D02*
X140300000Y-109875000D01*
X130950000Y-105175000D02*
X126250000Y-105175000D01*
X135095000Y-96280000D02*
X135600000Y-95775000D01*
X134850000Y-96280000D02*
X135095000Y-96280000D01*
X130975000Y-105200000D02*
X130950000Y-105175000D01*
X140275000Y-109900000D02*
X140300000Y-109875000D01*
X126338000Y-96280000D02*
X125450000Y-96280000D01*
%TO.N,/Sensor Group/RX3*%
X135081000Y-93290000D02*
X135179000Y-93388000D01*
X135190000Y-93388000D02*
X137849000Y-96047000D01*
X135179000Y-93388000D02*
X135190000Y-93388000D01*
%TD*%
%TA.AperFunction,Conductor*%
%TO.N,GND*%
G36*
X124961048Y-91208717D02*
G01*
X124970007Y-91210499D01*
X124970009Y-91210500D01*
X143973071Y-91210500D01*
X143993907Y-91210500D01*
X144006061Y-91211097D01*
X144163335Y-91226587D01*
X144187163Y-91231326D01*
X144332544Y-91275427D01*
X144354989Y-91284724D01*
X144488967Y-91356337D01*
X144509175Y-91369840D01*
X144626601Y-91466208D01*
X144643791Y-91483398D01*
X144740159Y-91600824D01*
X144753663Y-91621034D01*
X144825272Y-91755003D01*
X144834575Y-91777462D01*
X144878671Y-91922830D01*
X144883413Y-91946670D01*
X144898903Y-92103937D01*
X144899500Y-92116092D01*
X144899500Y-113093907D01*
X144898903Y-113106062D01*
X144883413Y-113263329D01*
X144878671Y-113287169D01*
X144834575Y-113432537D01*
X144825272Y-113454996D01*
X144753663Y-113588965D01*
X144740159Y-113609175D01*
X144643791Y-113726601D01*
X144626601Y-113743791D01*
X144509175Y-113840159D01*
X144488965Y-113853663D01*
X144354996Y-113925272D01*
X144332537Y-113934575D01*
X144187169Y-113978671D01*
X144163329Y-113983413D01*
X144047425Y-113994828D01*
X144006060Y-113998903D01*
X143993907Y-113999500D01*
X125006093Y-113999500D01*
X124993939Y-113998903D01*
X124836671Y-113983413D01*
X124812830Y-113978671D01*
X124667462Y-113934575D01*
X124645005Y-113925273D01*
X124511034Y-113853663D01*
X124490824Y-113840159D01*
X124373398Y-113743791D01*
X124356208Y-113726601D01*
X124259840Y-113609175D01*
X124246336Y-113588965D01*
X124234525Y-113566868D01*
X124174724Y-113454989D01*
X124165427Y-113432544D01*
X124121326Y-113287161D01*
X124116587Y-113263336D01*
X124101097Y-113106062D01*
X124100500Y-113093911D01*
X124100500Y-113056565D01*
X124100479Y-113056409D01*
X124099762Y-111549844D01*
X124650000Y-111549844D01*
X124656401Y-111609372D01*
X124656403Y-111609379D01*
X124706645Y-111744086D01*
X124706649Y-111744093D01*
X124792809Y-111859187D01*
X124792812Y-111859190D01*
X124907906Y-111945350D01*
X124907913Y-111945354D01*
X125042620Y-111995596D01*
X125042627Y-111995598D01*
X125102155Y-112001999D01*
X125102172Y-112002000D01*
X125200000Y-112002000D01*
X125700000Y-112002000D01*
X125797828Y-112002000D01*
X125797844Y-112001999D01*
X125857372Y-111995598D01*
X125857379Y-111995596D01*
X125992086Y-111945354D01*
X125992093Y-111945350D01*
X126107187Y-111859190D01*
X126107190Y-111859187D01*
X126193350Y-111744093D01*
X126193354Y-111744086D01*
X126243596Y-111609379D01*
X126243598Y-111609372D01*
X126249999Y-111549844D01*
X126250000Y-111549827D01*
X126250000Y-111482000D01*
X125700000Y-111482000D01*
X125700000Y-112002000D01*
X125200000Y-112002000D01*
X125200000Y-111482000D01*
X124650000Y-111482000D01*
X124650000Y-111549844D01*
X124099762Y-111549844D01*
X124099705Y-111430697D01*
X124099423Y-110839075D01*
X124097529Y-106861844D01*
X124650000Y-106861844D01*
X124656401Y-106921372D01*
X124656403Y-106921379D01*
X124706645Y-107056086D01*
X124706649Y-107056093D01*
X124792809Y-107171187D01*
X124792812Y-107171190D01*
X124907906Y-107257350D01*
X124907913Y-107257354D01*
X125042620Y-107307596D01*
X125042627Y-107307598D01*
X125102155Y-107313999D01*
X125102172Y-107314000D01*
X125200000Y-107314000D01*
X125700000Y-107314000D01*
X125797828Y-107314000D01*
X125797844Y-107313999D01*
X125857372Y-107307598D01*
X125857379Y-107307596D01*
X125992086Y-107257354D01*
X125992093Y-107257350D01*
X126107187Y-107171190D01*
X126107190Y-107171187D01*
X126193350Y-107056093D01*
X126193354Y-107056086D01*
X126243596Y-106921379D01*
X126243598Y-106921372D01*
X126249999Y-106861844D01*
X129350000Y-106861844D01*
X129356401Y-106921372D01*
X129356403Y-106921379D01*
X129406645Y-107056086D01*
X129406649Y-107056093D01*
X129492809Y-107171187D01*
X129492812Y-107171190D01*
X129607906Y-107257350D01*
X129607913Y-107257354D01*
X129742620Y-107307596D01*
X129742627Y-107307598D01*
X129802155Y-107313999D01*
X129802172Y-107314000D01*
X129900000Y-107314000D01*
X130400000Y-107314000D01*
X130497828Y-107314000D01*
X130497844Y-107313999D01*
X130557372Y-107307598D01*
X130557379Y-107307596D01*
X130692086Y-107257354D01*
X130692093Y-107257350D01*
X130807187Y-107171190D01*
X130807190Y-107171187D01*
X130893350Y-107056093D01*
X130893354Y-107056086D01*
X130943596Y-106921379D01*
X130943598Y-106921372D01*
X130949999Y-106861844D01*
X134050000Y-106861844D01*
X134056401Y-106921372D01*
X134056403Y-106921379D01*
X134106645Y-107056086D01*
X134106649Y-107056093D01*
X134192809Y-107171187D01*
X134192812Y-107171190D01*
X134307906Y-107257350D01*
X134307913Y-107257354D01*
X134442620Y-107307596D01*
X134442627Y-107307598D01*
X134502155Y-107313999D01*
X134502172Y-107314000D01*
X134600000Y-107314000D01*
X134600000Y-106794000D01*
X134050000Y-106794000D01*
X134050000Y-106861844D01*
X130949999Y-106861844D01*
X130950000Y-106861827D01*
X130950000Y-106794000D01*
X130400000Y-106794000D01*
X130400000Y-107314000D01*
X129900000Y-107314000D01*
X129900000Y-106794000D01*
X129350000Y-106794000D01*
X129350000Y-106861844D01*
X126249999Y-106861844D01*
X126250000Y-106861827D01*
X126250000Y-106794000D01*
X125700000Y-106794000D01*
X125700000Y-107314000D01*
X125200000Y-107314000D01*
X125200000Y-106794000D01*
X124650000Y-106794000D01*
X124650000Y-106861844D01*
X124097529Y-106861844D01*
X124095290Y-102161844D01*
X124650000Y-102161844D01*
X124656401Y-102221372D01*
X124656403Y-102221379D01*
X124706645Y-102356086D01*
X124706649Y-102356093D01*
X124792809Y-102471187D01*
X124792812Y-102471190D01*
X124907906Y-102557350D01*
X124907913Y-102557354D01*
X125042620Y-102607596D01*
X125042627Y-102607598D01*
X125102155Y-102613999D01*
X125102172Y-102614000D01*
X125200000Y-102614000D01*
X125700000Y-102614000D01*
X125797828Y-102614000D01*
X125797844Y-102613999D01*
X125857372Y-102607598D01*
X125857379Y-102607596D01*
X125992086Y-102557354D01*
X125992093Y-102557350D01*
X126107187Y-102471190D01*
X126107190Y-102471187D01*
X126193350Y-102356093D01*
X126193354Y-102356086D01*
X126243596Y-102221379D01*
X126243598Y-102221372D01*
X126249999Y-102161844D01*
X129350000Y-102161844D01*
X129356401Y-102221372D01*
X129356403Y-102221379D01*
X129406645Y-102356086D01*
X129406649Y-102356093D01*
X129492809Y-102471187D01*
X129492812Y-102471190D01*
X129607906Y-102557350D01*
X129607913Y-102557354D01*
X129742620Y-102607596D01*
X129742627Y-102607598D01*
X129802155Y-102613999D01*
X129802172Y-102614000D01*
X129900000Y-102614000D01*
X130400000Y-102614000D01*
X130497828Y-102614000D01*
X130497844Y-102613999D01*
X130557372Y-102607598D01*
X130557379Y-102607596D01*
X130692086Y-102557354D01*
X130692093Y-102557350D01*
X130807187Y-102471190D01*
X130807190Y-102471187D01*
X130893350Y-102356093D01*
X130893354Y-102356086D01*
X130943596Y-102221379D01*
X130943598Y-102221372D01*
X130949999Y-102161844D01*
X134050000Y-102161844D01*
X134056401Y-102221372D01*
X134056403Y-102221379D01*
X134106645Y-102356086D01*
X134106649Y-102356093D01*
X134192809Y-102471187D01*
X134192812Y-102471190D01*
X134307906Y-102557350D01*
X134307913Y-102557354D01*
X134442620Y-102607596D01*
X134442627Y-102607598D01*
X134502155Y-102613999D01*
X134502172Y-102614000D01*
X134600000Y-102614000D01*
X134600000Y-102094000D01*
X134050000Y-102094000D01*
X134050000Y-102161844D01*
X130949999Y-102161844D01*
X130950000Y-102161827D01*
X130950000Y-102094000D01*
X130400000Y-102094000D01*
X130400000Y-102614000D01*
X129900000Y-102614000D01*
X129900000Y-102094000D01*
X129350000Y-102094000D01*
X129350000Y-102161844D01*
X126249999Y-102161844D01*
X126250000Y-102161827D01*
X126250000Y-102094000D01*
X125700000Y-102094000D01*
X125700000Y-102614000D01*
X125200000Y-102614000D01*
X125200000Y-102094000D01*
X124650000Y-102094000D01*
X124650000Y-102161844D01*
X124095290Y-102161844D01*
X124093052Y-97461844D01*
X124650000Y-97461844D01*
X124656401Y-97521372D01*
X124656403Y-97521379D01*
X124706645Y-97656086D01*
X124706649Y-97656093D01*
X124792809Y-97771187D01*
X124792812Y-97771190D01*
X124907906Y-97857350D01*
X124907913Y-97857354D01*
X125042620Y-97907596D01*
X125042627Y-97907598D01*
X125102155Y-97913999D01*
X125102172Y-97914000D01*
X125200000Y-97914000D01*
X125700000Y-97914000D01*
X125797828Y-97914000D01*
X125797844Y-97913999D01*
X125857372Y-97907598D01*
X125857379Y-97907596D01*
X125992086Y-97857354D01*
X125992093Y-97857350D01*
X126107187Y-97771190D01*
X126107190Y-97771187D01*
X126193350Y-97656093D01*
X126193354Y-97656086D01*
X126243596Y-97521379D01*
X126243598Y-97521372D01*
X126249999Y-97461844D01*
X129350000Y-97461844D01*
X129356401Y-97521372D01*
X129356403Y-97521379D01*
X129406645Y-97656086D01*
X129406649Y-97656093D01*
X129492809Y-97771187D01*
X129492812Y-97771190D01*
X129607906Y-97857350D01*
X129607913Y-97857354D01*
X129742620Y-97907596D01*
X129742627Y-97907598D01*
X129802155Y-97913999D01*
X129802172Y-97914000D01*
X129900000Y-97914000D01*
X130400000Y-97914000D01*
X130497828Y-97914000D01*
X130497844Y-97913999D01*
X130557372Y-97907598D01*
X130557379Y-97907596D01*
X130692086Y-97857354D01*
X130692093Y-97857350D01*
X130807187Y-97771190D01*
X130807190Y-97771187D01*
X130893350Y-97656093D01*
X130893354Y-97656086D01*
X130943596Y-97521379D01*
X130943598Y-97521372D01*
X130949999Y-97461844D01*
X134050000Y-97461844D01*
X134056401Y-97521372D01*
X134056403Y-97521379D01*
X134106645Y-97656086D01*
X134106649Y-97656093D01*
X134192809Y-97771187D01*
X134192812Y-97771190D01*
X134307906Y-97857350D01*
X134307913Y-97857354D01*
X134442620Y-97907596D01*
X134442627Y-97907598D01*
X134502155Y-97913999D01*
X134502172Y-97914000D01*
X134600000Y-97914000D01*
X134600000Y-97394000D01*
X134050000Y-97394000D01*
X134050000Y-97461844D01*
X130949999Y-97461844D01*
X130950000Y-97461827D01*
X130950000Y-97394000D01*
X130400000Y-97394000D01*
X130400000Y-97914000D01*
X129900000Y-97914000D01*
X129900000Y-97394000D01*
X129350000Y-97394000D01*
X129350000Y-97461844D01*
X126249999Y-97461844D01*
X126250000Y-97461827D01*
X126250000Y-97394000D01*
X125700000Y-97394000D01*
X125700000Y-97914000D01*
X125200000Y-97914000D01*
X125200000Y-97394000D01*
X124650000Y-97394000D01*
X124650000Y-97461844D01*
X124093052Y-97461844D01*
X124092338Y-95962127D01*
X124649500Y-95962127D01*
X124649500Y-95962134D01*
X124649500Y-95962135D01*
X124649500Y-96597870D01*
X124649501Y-96597876D01*
X124655908Y-96657483D01*
X124660347Y-96669383D01*
X124665330Y-96739075D01*
X124660348Y-96756043D01*
X124656402Y-96766621D01*
X124656401Y-96766627D01*
X124650000Y-96826155D01*
X124650000Y-96894000D01*
X124733088Y-96894000D01*
X124800127Y-96913685D01*
X124807389Y-96918726D01*
X124905891Y-96992465D01*
X124907668Y-96993795D01*
X124907671Y-96993797D01*
X124948701Y-97009100D01*
X125042517Y-97044091D01*
X125102127Y-97050500D01*
X125797872Y-97050499D01*
X125857483Y-97044091D01*
X125992331Y-96993796D01*
X125994110Y-96992463D01*
X125996194Y-96991686D01*
X126000118Y-96989544D01*
X126000425Y-96990107D01*
X126059570Y-96968044D01*
X126115877Y-96977165D01*
X126125329Y-96981081D01*
X126266185Y-97009099D01*
X126266188Y-97009100D01*
X126266190Y-97009100D01*
X126409812Y-97009100D01*
X126409813Y-97009099D01*
X126550671Y-96981081D01*
X126683358Y-96926120D01*
X126802774Y-96846329D01*
X126904329Y-96744774D01*
X126984120Y-96625358D01*
X127039081Y-96492671D01*
X127067100Y-96351810D01*
X127067100Y-96208190D01*
X127067100Y-96208187D01*
X127043569Y-96089892D01*
X127049796Y-96020300D01*
X127092659Y-95965123D01*
X127158548Y-95941878D01*
X127165186Y-95941700D01*
X129225500Y-95941700D01*
X129292539Y-95961385D01*
X129338294Y-96014189D01*
X129349500Y-96065700D01*
X129349500Y-96597870D01*
X129349501Y-96597876D01*
X129355908Y-96657483D01*
X129360347Y-96669383D01*
X129365330Y-96739075D01*
X129360348Y-96756043D01*
X129356402Y-96766621D01*
X129356401Y-96766627D01*
X129350000Y-96826155D01*
X129350000Y-96894000D01*
X129433088Y-96894000D01*
X129500127Y-96913685D01*
X129507389Y-96918726D01*
X129605891Y-96992465D01*
X129607668Y-96993795D01*
X129607671Y-96993797D01*
X129648701Y-97009100D01*
X129742517Y-97044091D01*
X129802127Y-97050500D01*
X130497872Y-97050499D01*
X130557483Y-97044091D01*
X130692331Y-96993796D01*
X130792601Y-96918733D01*
X130858065Y-96894316D01*
X130866912Y-96894000D01*
X130950000Y-96894000D01*
X130950000Y-96826172D01*
X130949999Y-96826155D01*
X130943598Y-96766627D01*
X130939654Y-96756053D01*
X130933874Y-96690312D01*
X130935841Y-96679601D01*
X130944091Y-96657483D01*
X130950000Y-96602517D01*
X130950833Y-96597986D01*
X130964570Y-96570758D01*
X130976241Y-96542583D01*
X130980158Y-96539863D01*
X130982306Y-96535606D01*
X131008584Y-96520126D01*
X131033633Y-96502734D01*
X131041761Y-96500581D01*
X131042507Y-96500143D01*
X131043302Y-96500173D01*
X131048602Y-96498771D01*
X131083540Y-96491821D01*
X131162671Y-96476081D01*
X131295358Y-96421120D01*
X131414774Y-96341329D01*
X131516329Y-96239774D01*
X131596120Y-96120358D01*
X131638416Y-96018247D01*
X131682257Y-95963844D01*
X131748551Y-95941779D01*
X131752977Y-95941700D01*
X133925500Y-95941700D01*
X133992539Y-95961385D01*
X134038294Y-96014189D01*
X134049500Y-96065700D01*
X134049500Y-96597870D01*
X134049501Y-96597876D01*
X134055908Y-96657483D01*
X134060347Y-96669383D01*
X134065330Y-96739075D01*
X134060348Y-96756043D01*
X134056402Y-96766621D01*
X134056401Y-96766627D01*
X134050000Y-96826155D01*
X134050000Y-96894000D01*
X134133088Y-96894000D01*
X134200127Y-96913685D01*
X134207389Y-96918726D01*
X134305891Y-96992465D01*
X134307668Y-96993795D01*
X134307671Y-96993797D01*
X134348701Y-97009100D01*
X134442517Y-97044091D01*
X134502127Y-97050500D01*
X135197872Y-97050499D01*
X135257483Y-97044091D01*
X135265964Y-97040927D01*
X135296571Y-97038737D01*
X135326947Y-97034370D01*
X135331100Y-97036266D01*
X135335653Y-97035941D01*
X135362583Y-97050644D01*
X135390503Y-97063395D01*
X135392971Y-97067236D01*
X135396977Y-97069423D01*
X135411684Y-97096354D01*
X135428277Y-97122173D01*
X135429167Y-97128368D01*
X135430465Y-97130744D01*
X135433300Y-97157108D01*
X135433300Y-97270000D01*
X135413615Y-97337039D01*
X135360811Y-97382794D01*
X135309300Y-97394000D01*
X135100000Y-97394000D01*
X135100000Y-97914000D01*
X135197828Y-97914000D01*
X135197844Y-97913999D01*
X135257372Y-97907598D01*
X135257374Y-97907597D01*
X135265961Y-97904395D01*
X135335652Y-97899407D01*
X135396977Y-97932889D01*
X135430465Y-97994211D01*
X135433300Y-98020575D01*
X135433300Y-99672023D01*
X135413615Y-99739062D01*
X135360811Y-99784817D01*
X135356753Y-99786584D01*
X135254644Y-99828878D01*
X135254635Y-99828883D01*
X135135226Y-99908670D01*
X135135222Y-99908673D01*
X135033673Y-100010222D01*
X135033670Y-100010226D01*
X134953883Y-100129635D01*
X134953876Y-100129649D01*
X134952506Y-100132957D01*
X134951325Y-100134422D01*
X134951010Y-100135012D01*
X134950898Y-100134952D01*
X134908664Y-100187359D01*
X134842369Y-100209421D01*
X134837947Y-100209500D01*
X134502130Y-100209500D01*
X134502123Y-100209501D01*
X134442516Y-100215908D01*
X134307671Y-100266202D01*
X134307668Y-100266204D01*
X134284475Y-100283567D01*
X134219011Y-100307984D01*
X134210164Y-100308300D01*
X131677977Y-100308300D01*
X131610938Y-100288615D01*
X131565183Y-100235811D01*
X131563416Y-100231753D01*
X131521121Y-100129644D01*
X131521116Y-100129635D01*
X131441329Y-100010226D01*
X131441326Y-100010222D01*
X131339777Y-99908673D01*
X131339773Y-99908670D01*
X131220364Y-99828883D01*
X131220355Y-99828878D01*
X131087671Y-99773919D01*
X131087663Y-99773917D01*
X130946813Y-99745900D01*
X130946810Y-99745900D01*
X130803190Y-99745900D01*
X130803187Y-99745900D01*
X130662336Y-99773917D01*
X130662328Y-99773919D01*
X130529644Y-99828878D01*
X130529635Y-99828883D01*
X130410226Y-99908670D01*
X130410222Y-99908673D01*
X130308673Y-100010222D01*
X130308670Y-100010226D01*
X130228883Y-100129635D01*
X130228876Y-100129649D01*
X130227506Y-100132957D01*
X130226325Y-100134422D01*
X130226010Y-100135012D01*
X130225898Y-100134952D01*
X130183664Y-100187359D01*
X130117369Y-100209421D01*
X130112947Y-100209500D01*
X129802130Y-100209500D01*
X129802123Y-100209501D01*
X129742516Y-100215908D01*
X129607671Y-100266202D01*
X129607668Y-100266204D01*
X129584475Y-100283567D01*
X129519011Y-100307984D01*
X129510164Y-100308300D01*
X127052977Y-100308300D01*
X126985938Y-100288615D01*
X126940183Y-100235811D01*
X126938416Y-100231753D01*
X126896121Y-100129644D01*
X126896116Y-100129635D01*
X126816329Y-100010226D01*
X126816326Y-100010222D01*
X126714777Y-99908673D01*
X126714773Y-99908670D01*
X126595364Y-99828883D01*
X126595355Y-99828878D01*
X126462671Y-99773919D01*
X126462663Y-99773917D01*
X126321813Y-99745900D01*
X126321810Y-99745900D01*
X126178190Y-99745900D01*
X126178187Y-99745900D01*
X126037336Y-99773917D01*
X126037328Y-99773919D01*
X125904644Y-99828878D01*
X125904635Y-99828883D01*
X125785226Y-99908670D01*
X125785222Y-99908673D01*
X125683673Y-100010222D01*
X125683670Y-100010226D01*
X125603883Y-100129635D01*
X125603876Y-100129649D01*
X125602506Y-100132957D01*
X125601325Y-100134422D01*
X125601010Y-100135012D01*
X125600898Y-100134952D01*
X125558664Y-100187359D01*
X125492369Y-100209421D01*
X125487947Y-100209500D01*
X125102129Y-100209500D01*
X125102123Y-100209501D01*
X125042516Y-100215908D01*
X124907671Y-100266202D01*
X124907664Y-100266206D01*
X124792455Y-100352452D01*
X124792452Y-100352455D01*
X124706206Y-100467664D01*
X124706202Y-100467671D01*
X124655910Y-100602513D01*
X124655909Y-100602517D01*
X124649500Y-100662127D01*
X124649500Y-100662134D01*
X124649500Y-100662135D01*
X124649500Y-101297870D01*
X124649501Y-101297876D01*
X124655908Y-101357483D01*
X124660347Y-101369383D01*
X124665330Y-101439075D01*
X124660348Y-101456043D01*
X124656402Y-101466621D01*
X124656401Y-101466627D01*
X124650000Y-101526155D01*
X124650000Y-101594000D01*
X124733088Y-101594000D01*
X124800127Y-101613685D01*
X124807389Y-101618726D01*
X124907668Y-101693795D01*
X124907671Y-101693797D01*
X124952618Y-101710561D01*
X125042517Y-101744091D01*
X125102127Y-101750500D01*
X125797872Y-101750499D01*
X125857483Y-101744091D01*
X125992331Y-101693796D01*
X126092601Y-101618733D01*
X126158065Y-101594316D01*
X126166912Y-101594000D01*
X126250000Y-101594000D01*
X126250000Y-101526172D01*
X126249999Y-101526155D01*
X126243598Y-101466627D01*
X126239654Y-101456053D01*
X126233874Y-101390312D01*
X126235841Y-101379601D01*
X126244091Y-101357483D01*
X126250000Y-101302517D01*
X126250833Y-101297986D01*
X126264570Y-101270758D01*
X126276241Y-101242583D01*
X126280158Y-101239863D01*
X126282306Y-101235606D01*
X126308584Y-101220126D01*
X126333633Y-101202734D01*
X126341761Y-101200581D01*
X126342507Y-101200143D01*
X126343302Y-101200173D01*
X126348602Y-101198771D01*
X126393766Y-101189787D01*
X126462671Y-101176081D01*
X126595358Y-101121120D01*
X126714774Y-101041329D01*
X126816329Y-100939774D01*
X126896120Y-100820358D01*
X126938416Y-100718247D01*
X126982257Y-100663844D01*
X127048551Y-100641779D01*
X127052977Y-100641700D01*
X129225500Y-100641700D01*
X129292539Y-100661385D01*
X129338294Y-100714189D01*
X129349500Y-100765700D01*
X129349500Y-101297870D01*
X129349501Y-101297876D01*
X129355908Y-101357483D01*
X129360347Y-101369383D01*
X129365330Y-101439075D01*
X129360348Y-101456043D01*
X129356402Y-101466621D01*
X129356401Y-101466627D01*
X129350000Y-101526155D01*
X129350000Y-101594000D01*
X129433088Y-101594000D01*
X129500127Y-101613685D01*
X129507389Y-101618726D01*
X129607668Y-101693795D01*
X129607671Y-101693797D01*
X129652618Y-101710561D01*
X129742517Y-101744091D01*
X129802127Y-101750500D01*
X130497872Y-101750499D01*
X130557483Y-101744091D01*
X130692331Y-101693796D01*
X130792601Y-101618733D01*
X130858065Y-101594316D01*
X130866912Y-101594000D01*
X130950000Y-101594000D01*
X130950000Y-101526172D01*
X130949999Y-101526155D01*
X130943598Y-101466627D01*
X130939654Y-101456053D01*
X130933620Y-101391743D01*
X130935585Y-101380286D01*
X130944091Y-101357483D01*
X130950500Y-101297873D01*
X130950499Y-101293368D01*
X130952073Y-101284201D01*
X130964389Y-101259060D01*
X130973702Y-101232655D01*
X130979553Y-101228108D01*
X130982812Y-101221457D01*
X131006764Y-101206966D01*
X131028875Y-101189787D01*
X131041092Y-101186198D01*
X131042593Y-101185291D01*
X131044049Y-101185330D01*
X131050090Y-101183556D01*
X131087671Y-101176081D01*
X131220358Y-101121120D01*
X131339774Y-101041329D01*
X131441329Y-100939774D01*
X131521120Y-100820358D01*
X131563416Y-100718247D01*
X131607257Y-100663844D01*
X131673551Y-100641779D01*
X131677977Y-100641700D01*
X133925500Y-100641700D01*
X133992539Y-100661385D01*
X134038294Y-100714189D01*
X134049500Y-100765700D01*
X134049500Y-101297870D01*
X134049501Y-101297876D01*
X134055908Y-101357483D01*
X134060347Y-101369383D01*
X134065330Y-101439075D01*
X134060348Y-101456043D01*
X134056402Y-101466621D01*
X134056401Y-101466627D01*
X134050000Y-101526155D01*
X134050000Y-101594000D01*
X134133088Y-101594000D01*
X134200127Y-101613685D01*
X134207389Y-101618726D01*
X134307668Y-101693795D01*
X134307671Y-101693797D01*
X134352618Y-101710561D01*
X134442517Y-101744091D01*
X134502127Y-101750500D01*
X135197872Y-101750499D01*
X135257483Y-101744091D01*
X135265964Y-101740927D01*
X135296571Y-101738737D01*
X135326947Y-101734370D01*
X135331100Y-101736266D01*
X135335653Y-101735941D01*
X135362583Y-101750644D01*
X135390503Y-101763395D01*
X135392971Y-101767236D01*
X135396977Y-101769423D01*
X135411684Y-101796354D01*
X135428277Y-101822173D01*
X135429167Y-101828368D01*
X135430465Y-101830744D01*
X135433300Y-101857108D01*
X135433300Y-101970000D01*
X135413615Y-102037039D01*
X135360811Y-102082794D01*
X135309300Y-102094000D01*
X135100000Y-102094000D01*
X135100000Y-102614000D01*
X135197828Y-102614000D01*
X135197844Y-102613999D01*
X135257372Y-102607598D01*
X135257374Y-102607597D01*
X135265961Y-102604395D01*
X135335652Y-102599407D01*
X135396977Y-102632889D01*
X135430465Y-102694211D01*
X135433300Y-102720575D01*
X135433300Y-104397023D01*
X135413615Y-104464062D01*
X135360811Y-104509817D01*
X135356753Y-104511584D01*
X135254644Y-104553878D01*
X135254635Y-104553883D01*
X135135226Y-104633670D01*
X135135222Y-104633673D01*
X135033673Y-104735222D01*
X135033670Y-104735226D01*
X134954047Y-104854391D01*
X134900435Y-104899196D01*
X134850945Y-104909500D01*
X134502130Y-104909500D01*
X134502123Y-104909501D01*
X134442516Y-104915908D01*
X134307671Y-104966202D01*
X134307668Y-104966204D01*
X134251079Y-105008567D01*
X134185614Y-105032984D01*
X134176768Y-105033300D01*
X131763332Y-105033300D01*
X131696293Y-105013615D01*
X131650538Y-104960811D01*
X131648771Y-104956753D01*
X131596121Y-104829644D01*
X131596116Y-104829635D01*
X131516329Y-104710226D01*
X131516326Y-104710222D01*
X131414777Y-104608673D01*
X131414773Y-104608670D01*
X131295364Y-104528883D01*
X131295355Y-104528878D01*
X131162671Y-104473919D01*
X131162663Y-104473917D01*
X131021813Y-104445900D01*
X131021810Y-104445900D01*
X130878190Y-104445900D01*
X130878187Y-104445900D01*
X130737336Y-104473917D01*
X130737328Y-104473919D01*
X130604644Y-104528878D01*
X130604635Y-104528883D01*
X130485226Y-104608670D01*
X130485222Y-104608673D01*
X130383673Y-104710222D01*
X130383670Y-104710226D01*
X130303883Y-104829635D01*
X130303876Y-104829649D01*
X130302506Y-104832957D01*
X130301325Y-104834422D01*
X130301010Y-104835012D01*
X130300898Y-104834952D01*
X130258664Y-104887359D01*
X130192369Y-104909421D01*
X130187947Y-104909500D01*
X129802129Y-104909500D01*
X129802123Y-104909501D01*
X129742516Y-104915908D01*
X129607671Y-104966202D01*
X129607668Y-104966204D01*
X129584475Y-104983567D01*
X129519011Y-105007984D01*
X129510164Y-105008300D01*
X127052977Y-105008300D01*
X126985938Y-104988615D01*
X126940183Y-104935811D01*
X126938416Y-104931753D01*
X126896121Y-104829644D01*
X126896116Y-104829635D01*
X126816329Y-104710226D01*
X126816326Y-104710222D01*
X126714777Y-104608673D01*
X126714773Y-104608670D01*
X126595364Y-104528883D01*
X126595355Y-104528878D01*
X126462671Y-104473919D01*
X126462663Y-104473917D01*
X126321813Y-104445900D01*
X126321810Y-104445900D01*
X126178190Y-104445900D01*
X126178187Y-104445900D01*
X126037336Y-104473917D01*
X126037328Y-104473919D01*
X125904644Y-104528878D01*
X125904635Y-104528883D01*
X125785226Y-104608670D01*
X125785222Y-104608673D01*
X125683673Y-104710222D01*
X125683670Y-104710226D01*
X125603883Y-104829635D01*
X125603876Y-104829649D01*
X125602506Y-104832957D01*
X125601325Y-104834422D01*
X125601010Y-104835012D01*
X125600898Y-104834952D01*
X125558664Y-104887359D01*
X125492369Y-104909421D01*
X125487947Y-104909500D01*
X125102129Y-104909500D01*
X125102123Y-104909501D01*
X125042516Y-104915908D01*
X124907671Y-104966202D01*
X124907664Y-104966206D01*
X124792455Y-105052452D01*
X124792452Y-105052455D01*
X124706206Y-105167664D01*
X124706202Y-105167671D01*
X124655910Y-105302513D01*
X124655909Y-105302517D01*
X124649500Y-105362127D01*
X124649500Y-105362134D01*
X124649500Y-105362135D01*
X124649500Y-105997870D01*
X124649501Y-105997876D01*
X124655908Y-106057483D01*
X124660347Y-106069383D01*
X124665330Y-106139075D01*
X124660348Y-106156043D01*
X124656402Y-106166621D01*
X124656401Y-106166627D01*
X124650000Y-106226155D01*
X124650000Y-106294000D01*
X124733088Y-106294000D01*
X124800127Y-106313685D01*
X124807389Y-106318726D01*
X124907668Y-106393795D01*
X124907671Y-106393797D01*
X124952618Y-106410561D01*
X125042517Y-106444091D01*
X125102127Y-106450500D01*
X125797872Y-106450499D01*
X125857483Y-106444091D01*
X125992331Y-106393796D01*
X126092601Y-106318733D01*
X126158065Y-106294316D01*
X126166912Y-106294000D01*
X126250000Y-106294000D01*
X126250000Y-106226172D01*
X126249999Y-106226155D01*
X126243598Y-106166627D01*
X126239654Y-106156053D01*
X126233874Y-106090312D01*
X126235841Y-106079601D01*
X126244091Y-106057483D01*
X126250000Y-106002517D01*
X126250833Y-105997986D01*
X126264570Y-105970758D01*
X126276241Y-105942583D01*
X126280158Y-105939863D01*
X126282306Y-105935606D01*
X126308584Y-105920126D01*
X126333633Y-105902734D01*
X126341761Y-105900581D01*
X126342507Y-105900143D01*
X126343302Y-105900173D01*
X126348602Y-105898771D01*
X126391780Y-105890182D01*
X126462671Y-105876081D01*
X126595358Y-105821120D01*
X126714774Y-105741329D01*
X126816329Y-105639774D01*
X126896120Y-105520358D01*
X126938416Y-105418247D01*
X126982257Y-105363844D01*
X127048551Y-105341779D01*
X127052977Y-105341700D01*
X129225500Y-105341700D01*
X129292539Y-105361385D01*
X129338294Y-105414189D01*
X129349500Y-105465700D01*
X129349500Y-105997870D01*
X129349501Y-105997876D01*
X129355908Y-106057483D01*
X129360347Y-106069383D01*
X129365330Y-106139075D01*
X129360348Y-106156043D01*
X129356402Y-106166621D01*
X129356401Y-106166627D01*
X129350000Y-106226155D01*
X129350000Y-106294000D01*
X129433088Y-106294000D01*
X129500127Y-106313685D01*
X129507389Y-106318726D01*
X129607668Y-106393795D01*
X129607671Y-106393797D01*
X129652618Y-106410561D01*
X129742517Y-106444091D01*
X129802127Y-106450500D01*
X130497872Y-106450499D01*
X130557483Y-106444091D01*
X130692331Y-106393796D01*
X130792601Y-106318733D01*
X130858065Y-106294316D01*
X130866912Y-106294000D01*
X130950000Y-106294000D01*
X130950000Y-106226172D01*
X130949999Y-106226155D01*
X130943598Y-106166627D01*
X130939654Y-106156053D01*
X130933874Y-106090312D01*
X130935841Y-106079601D01*
X130944091Y-106057483D01*
X130950000Y-106002517D01*
X130950833Y-105997986D01*
X130964570Y-105970758D01*
X130976241Y-105942583D01*
X130980158Y-105939863D01*
X130982306Y-105935606D01*
X131008584Y-105920126D01*
X131033633Y-105902734D01*
X131041761Y-105900581D01*
X131042507Y-105900143D01*
X131043302Y-105900173D01*
X131048602Y-105898771D01*
X131091780Y-105890182D01*
X131162671Y-105876081D01*
X131295358Y-105821120D01*
X131414774Y-105741329D01*
X131516329Y-105639774D01*
X131596120Y-105520358D01*
X131628060Y-105443247D01*
X131671900Y-105388844D01*
X131738194Y-105366779D01*
X131742621Y-105366700D01*
X133925500Y-105366700D01*
X133992539Y-105386385D01*
X134038294Y-105439189D01*
X134049500Y-105490700D01*
X134049500Y-105997870D01*
X134049501Y-105997876D01*
X134055908Y-106057483D01*
X134060347Y-106069383D01*
X134065330Y-106139075D01*
X134060348Y-106156043D01*
X134056402Y-106166621D01*
X134056401Y-106166627D01*
X134050000Y-106226155D01*
X134050000Y-106294000D01*
X134133088Y-106294000D01*
X134200127Y-106313685D01*
X134207389Y-106318726D01*
X134307668Y-106393795D01*
X134307671Y-106393797D01*
X134352618Y-106410561D01*
X134442517Y-106444091D01*
X134502127Y-106450500D01*
X135197872Y-106450499D01*
X135257483Y-106444091D01*
X135265964Y-106440927D01*
X135296571Y-106438737D01*
X135326947Y-106434370D01*
X135331100Y-106436266D01*
X135335653Y-106435941D01*
X135362583Y-106450644D01*
X135390503Y-106463395D01*
X135392971Y-106467236D01*
X135396977Y-106469423D01*
X135411684Y-106496354D01*
X135428277Y-106522173D01*
X135429167Y-106528368D01*
X135430465Y-106530744D01*
X135433300Y-106557108D01*
X135433300Y-106670000D01*
X135413615Y-106737039D01*
X135360811Y-106782794D01*
X135309300Y-106794000D01*
X135100000Y-106794000D01*
X135100000Y-107314000D01*
X135197828Y-107314000D01*
X135197844Y-107313999D01*
X135257372Y-107307598D01*
X135257374Y-107307597D01*
X135265961Y-107304395D01*
X135335652Y-107299407D01*
X135396977Y-107332889D01*
X135430465Y-107394211D01*
X135433300Y-107420575D01*
X135433300Y-109097023D01*
X135413615Y-109164062D01*
X135360811Y-109209817D01*
X135356753Y-109211584D01*
X135254644Y-109253878D01*
X135254635Y-109253883D01*
X135135226Y-109333670D01*
X135135222Y-109333673D01*
X135033673Y-109435222D01*
X135033670Y-109435226D01*
X134954047Y-109554391D01*
X134900435Y-109599196D01*
X134850945Y-109609500D01*
X134502130Y-109609500D01*
X134502123Y-109609501D01*
X134442516Y-109615908D01*
X134307671Y-109666202D01*
X134307668Y-109666204D01*
X134251079Y-109708567D01*
X134185614Y-109732984D01*
X134176768Y-109733300D01*
X131783155Y-109733300D01*
X131716116Y-109713615D01*
X131670361Y-109660811D01*
X131668594Y-109656753D01*
X131637548Y-109581802D01*
X131621120Y-109542142D01*
X131621118Y-109542139D01*
X131621116Y-109542135D01*
X131541329Y-109422726D01*
X131541326Y-109422722D01*
X131439777Y-109321173D01*
X131439773Y-109321170D01*
X131320364Y-109241383D01*
X131320355Y-109241378D01*
X131187671Y-109186419D01*
X131187663Y-109186417D01*
X131046813Y-109158400D01*
X131046810Y-109158400D01*
X130903190Y-109158400D01*
X130903187Y-109158400D01*
X130762336Y-109186417D01*
X130762328Y-109186419D01*
X130629644Y-109241378D01*
X130629635Y-109241383D01*
X130510226Y-109321170D01*
X130510222Y-109321173D01*
X130408673Y-109422722D01*
X130408670Y-109422726D01*
X130328880Y-109542140D01*
X130327911Y-109543954D01*
X130327152Y-109544725D01*
X130325495Y-109547207D01*
X130325024Y-109546892D01*
X130278948Y-109593798D01*
X130218553Y-109609500D01*
X129802129Y-109609500D01*
X129802123Y-109609501D01*
X129742516Y-109615908D01*
X129607671Y-109666202D01*
X129607668Y-109666204D01*
X129567777Y-109696067D01*
X129502312Y-109720484D01*
X129493466Y-109720800D01*
X126958155Y-109720800D01*
X126891116Y-109701115D01*
X126845361Y-109648311D01*
X126843594Y-109644253D01*
X126803265Y-109546892D01*
X126796120Y-109529642D01*
X126796118Y-109529639D01*
X126796116Y-109529635D01*
X126716329Y-109410226D01*
X126716326Y-109410222D01*
X126614777Y-109308673D01*
X126614773Y-109308670D01*
X126495364Y-109228883D01*
X126495355Y-109228878D01*
X126362671Y-109173919D01*
X126362663Y-109173917D01*
X126221813Y-109145900D01*
X126221810Y-109145900D01*
X126078190Y-109145900D01*
X126078187Y-109145900D01*
X125937336Y-109173917D01*
X125937328Y-109173919D01*
X125804644Y-109228878D01*
X125804635Y-109228883D01*
X125685226Y-109308670D01*
X125685222Y-109308673D01*
X125583672Y-109410223D01*
X125503874Y-109529651D01*
X125502639Y-109531962D01*
X125501674Y-109532943D01*
X125500497Y-109534706D01*
X125500162Y-109534482D01*
X125453673Y-109581802D01*
X125393286Y-109597500D01*
X125102130Y-109597500D01*
X125102123Y-109597501D01*
X125042516Y-109603908D01*
X124907671Y-109654202D01*
X124907664Y-109654206D01*
X124792455Y-109740452D01*
X124792452Y-109740455D01*
X124706206Y-109855664D01*
X124706202Y-109855671D01*
X124655910Y-109990513D01*
X124655909Y-109990517D01*
X124649500Y-110050127D01*
X124649500Y-110050134D01*
X124649500Y-110050135D01*
X124649500Y-110685870D01*
X124649501Y-110685876D01*
X124655908Y-110745483D01*
X124660347Y-110757383D01*
X124665330Y-110827075D01*
X124660348Y-110844043D01*
X124656402Y-110854621D01*
X124656401Y-110854627D01*
X124650000Y-110914155D01*
X124650000Y-110982000D01*
X124733088Y-110982000D01*
X124800127Y-111001685D01*
X124807389Y-111006726D01*
X124907668Y-111081795D01*
X124907671Y-111081797D01*
X124939840Y-111093795D01*
X125042517Y-111132091D01*
X125102127Y-111138500D01*
X125797872Y-111138499D01*
X125857483Y-111132091D01*
X125992331Y-111081796D01*
X126092601Y-111006733D01*
X126158065Y-110982316D01*
X126166912Y-110982000D01*
X126250000Y-110982000D01*
X126250000Y-110914172D01*
X126249999Y-110914155D01*
X126243598Y-110854627D01*
X126239654Y-110844053D01*
X126233744Y-110779034D01*
X126235713Y-110767945D01*
X126244091Y-110745483D01*
X126250500Y-110685873D01*
X126250499Y-110684675D01*
X126251571Y-110678644D01*
X126265304Y-110651018D01*
X126277110Y-110622517D01*
X126280718Y-110620011D01*
X126282674Y-110616078D01*
X126309161Y-110600263D01*
X126334503Y-110582669D01*
X126341919Y-110580705D01*
X126342664Y-110580261D01*
X126343495Y-110580288D01*
X126349465Y-110578707D01*
X126362671Y-110576081D01*
X126495358Y-110521120D01*
X126614774Y-110441329D01*
X126716329Y-110339774D01*
X126796120Y-110220358D01*
X126808405Y-110190700D01*
X126833238Y-110130748D01*
X126877079Y-110076344D01*
X126943373Y-110054279D01*
X126947799Y-110054200D01*
X128984300Y-110054200D01*
X129051339Y-110073885D01*
X129097094Y-110126689D01*
X129108300Y-110178200D01*
X129108300Y-110572023D01*
X129088615Y-110639062D01*
X129035811Y-110684817D01*
X129031753Y-110686584D01*
X128929644Y-110728878D01*
X128929635Y-110728883D01*
X128810226Y-110808670D01*
X128810222Y-110808673D01*
X128708673Y-110910222D01*
X128708670Y-110910226D01*
X128628883Y-111029635D01*
X128628878Y-111029644D01*
X128573919Y-111162328D01*
X128573917Y-111162336D01*
X128545900Y-111303185D01*
X128545900Y-111446814D01*
X128573917Y-111587663D01*
X128573919Y-111587671D01*
X128628878Y-111720355D01*
X128628883Y-111720364D01*
X128708670Y-111839773D01*
X128708673Y-111839777D01*
X128810222Y-111941326D01*
X128810226Y-111941329D01*
X128929635Y-112021116D01*
X128929641Y-112021119D01*
X128929642Y-112021120D01*
X129062329Y-112076081D01*
X129203185Y-112104099D01*
X129203188Y-112104100D01*
X129203190Y-112104100D01*
X129346812Y-112104100D01*
X129346813Y-112104099D01*
X129487671Y-112076081D01*
X129620358Y-112021120D01*
X129624373Y-112018436D01*
X129691049Y-111997554D01*
X129736606Y-112005353D01*
X129742624Y-112007597D01*
X129742627Y-112007598D01*
X129802155Y-112013999D01*
X129802172Y-112014000D01*
X129900000Y-112014000D01*
X130400000Y-112014000D01*
X130497828Y-112014000D01*
X130497844Y-112013999D01*
X130557372Y-112007598D01*
X130557379Y-112007596D01*
X130692086Y-111957354D01*
X130692093Y-111957350D01*
X130807187Y-111871190D01*
X130807190Y-111871187D01*
X130893350Y-111756093D01*
X130893354Y-111756086D01*
X130943596Y-111621379D01*
X130943598Y-111621372D01*
X130949999Y-111561844D01*
X134050000Y-111561844D01*
X134056401Y-111621372D01*
X134056403Y-111621379D01*
X134106645Y-111756086D01*
X134106649Y-111756093D01*
X134192809Y-111871187D01*
X134192812Y-111871190D01*
X134307906Y-111957350D01*
X134307913Y-111957354D01*
X134442620Y-112007596D01*
X134442627Y-112007598D01*
X134502155Y-112013999D01*
X134502172Y-112014000D01*
X134600000Y-112014000D01*
X135100000Y-112014000D01*
X135197828Y-112014000D01*
X135197844Y-112013999D01*
X135257372Y-112007598D01*
X135257379Y-112007596D01*
X135392086Y-111957354D01*
X135392093Y-111957350D01*
X135507187Y-111871190D01*
X135507190Y-111871187D01*
X135593350Y-111756093D01*
X135593354Y-111756086D01*
X135643596Y-111621379D01*
X135643598Y-111621372D01*
X135649999Y-111561844D01*
X138750000Y-111561844D01*
X138756401Y-111621372D01*
X138756403Y-111621379D01*
X138806645Y-111756086D01*
X138806649Y-111756093D01*
X138892809Y-111871187D01*
X138892812Y-111871190D01*
X139007906Y-111957350D01*
X139007913Y-111957354D01*
X139142620Y-112007596D01*
X139142627Y-112007598D01*
X139202155Y-112013999D01*
X139202172Y-112014000D01*
X139300000Y-112014000D01*
X139800000Y-112014000D01*
X139897828Y-112014000D01*
X139897844Y-112013999D01*
X139957372Y-112007598D01*
X139957379Y-112007596D01*
X140092086Y-111957354D01*
X140092093Y-111957350D01*
X140207187Y-111871190D01*
X140207190Y-111871187D01*
X140293350Y-111756093D01*
X140293354Y-111756086D01*
X140343596Y-111621379D01*
X140343598Y-111621372D01*
X140349999Y-111561844D01*
X140350000Y-111561827D01*
X140350000Y-111494000D01*
X139800000Y-111494000D01*
X139800000Y-112014000D01*
X139300000Y-112014000D01*
X139300000Y-111494000D01*
X138750000Y-111494000D01*
X138750000Y-111561844D01*
X135649999Y-111561844D01*
X135650000Y-111561827D01*
X135650000Y-111494000D01*
X135100000Y-111494000D01*
X135100000Y-112014000D01*
X134600000Y-112014000D01*
X134600000Y-111494000D01*
X134050000Y-111494000D01*
X134050000Y-111561844D01*
X130949999Y-111561844D01*
X130950000Y-111561827D01*
X130950000Y-111494000D01*
X130400000Y-111494000D01*
X130400000Y-112014000D01*
X129900000Y-112014000D01*
X129900000Y-111789580D01*
X129918682Y-111725955D01*
X129918251Y-111725725D01*
X129919358Y-111723653D01*
X129919685Y-111722541D01*
X129920860Y-111720746D01*
X129921120Y-111720358D01*
X129976081Y-111587671D01*
X130004100Y-111446810D01*
X130004100Y-111368000D01*
X130023785Y-111300961D01*
X130076589Y-111255206D01*
X130128100Y-111244000D01*
X130150000Y-111244000D01*
X130162678Y-111231321D01*
X130169685Y-111207460D01*
X130222489Y-111161705D01*
X130274000Y-111150499D01*
X130497871Y-111150499D01*
X130497872Y-111150499D01*
X130557483Y-111144091D01*
X130692331Y-111093796D01*
X130792601Y-111018733D01*
X130858065Y-110994316D01*
X130866912Y-110994000D01*
X130950000Y-110994000D01*
X130950000Y-110926172D01*
X130949999Y-110926155D01*
X130943598Y-110866627D01*
X130939654Y-110856053D01*
X130934288Y-110788169D01*
X130936226Y-110778567D01*
X130944091Y-110757483D01*
X130948197Y-110719292D01*
X130949327Y-110713697D01*
X130963050Y-110687645D01*
X130974320Y-110660438D01*
X130979150Y-110657083D01*
X130981892Y-110651880D01*
X131007521Y-110637384D01*
X131031711Y-110620588D01*
X131042065Y-110617846D01*
X131042708Y-110617483D01*
X131043310Y-110617517D01*
X131046683Y-110616624D01*
X131046804Y-110616600D01*
X131046810Y-110616600D01*
X131187671Y-110588581D01*
X131320358Y-110533620D01*
X131439774Y-110453829D01*
X131541329Y-110352274D01*
X131621120Y-110232858D01*
X131626301Y-110220351D01*
X131658238Y-110143248D01*
X131702079Y-110088844D01*
X131768373Y-110066779D01*
X131772799Y-110066700D01*
X133925500Y-110066700D01*
X133992539Y-110086385D01*
X134038294Y-110139189D01*
X134049500Y-110190700D01*
X134049500Y-110697870D01*
X134049501Y-110697876D01*
X134055908Y-110757483D01*
X134060347Y-110769383D01*
X134065330Y-110839075D01*
X134060348Y-110856043D01*
X134056402Y-110866621D01*
X134056401Y-110866627D01*
X134050000Y-110926155D01*
X134050000Y-110994000D01*
X134133088Y-110994000D01*
X134200127Y-111013685D01*
X134207389Y-111018726D01*
X134307668Y-111093795D01*
X134307671Y-111093797D01*
X134352618Y-111110561D01*
X134442517Y-111144091D01*
X134502127Y-111150500D01*
X135197872Y-111150499D01*
X135257483Y-111144091D01*
X135392331Y-111093796D01*
X135492601Y-111018733D01*
X135558065Y-110994316D01*
X135566912Y-110994000D01*
X135650000Y-110994000D01*
X135650000Y-110926172D01*
X135649999Y-110926155D01*
X135643598Y-110866627D01*
X135639654Y-110856053D01*
X135634217Y-110788523D01*
X135636163Y-110778738D01*
X135644091Y-110757483D01*
X135648443Y-110717003D01*
X135649522Y-110711580D01*
X135663247Y-110685339D01*
X135674586Y-110657966D01*
X135679267Y-110654715D01*
X135681907Y-110649669D01*
X135707639Y-110635015D01*
X135731978Y-110618117D01*
X135741955Y-110615475D01*
X135742623Y-110615095D01*
X135743261Y-110615129D01*
X135746934Y-110614156D01*
X135812671Y-110601081D01*
X135945358Y-110546120D01*
X136064774Y-110466329D01*
X136166329Y-110364774D01*
X136246120Y-110245358D01*
X136288416Y-110143247D01*
X136332257Y-110088844D01*
X136398551Y-110066779D01*
X136402977Y-110066700D01*
X138625500Y-110066700D01*
X138692539Y-110086385D01*
X138738294Y-110139189D01*
X138749500Y-110190700D01*
X138749500Y-110697870D01*
X138749501Y-110697876D01*
X138755908Y-110757483D01*
X138760347Y-110769383D01*
X138765330Y-110839075D01*
X138760348Y-110856043D01*
X138756402Y-110866621D01*
X138756401Y-110866627D01*
X138750000Y-110926155D01*
X138750000Y-110994000D01*
X138833088Y-110994000D01*
X138900127Y-111013685D01*
X138907389Y-111018726D01*
X139007668Y-111093795D01*
X139007671Y-111093797D01*
X139052618Y-111110561D01*
X139142517Y-111144091D01*
X139202127Y-111150500D01*
X139897872Y-111150499D01*
X139957483Y-111144091D01*
X140092331Y-111093796D01*
X140192601Y-111018733D01*
X140258065Y-110994316D01*
X140266912Y-110994000D01*
X140350000Y-110994000D01*
X140350000Y-110926172D01*
X140349999Y-110926155D01*
X140343598Y-110866627D01*
X140339654Y-110856053D01*
X140333714Y-110791204D01*
X140335682Y-110780026D01*
X140344091Y-110757483D01*
X140350500Y-110697873D01*
X140350500Y-110695902D01*
X140351766Y-110688715D01*
X140365494Y-110661003D01*
X140377334Y-110632419D01*
X140380870Y-110629963D01*
X140382781Y-110626107D01*
X140409320Y-110610210D01*
X140434727Y-110592571D01*
X140441974Y-110590652D01*
X140442721Y-110590205D01*
X140443562Y-110590231D01*
X140449695Y-110588608D01*
X140470535Y-110584462D01*
X140512671Y-110576081D01*
X140645358Y-110521120D01*
X140764774Y-110441329D01*
X140866329Y-110339774D01*
X140946120Y-110220358D01*
X141001081Y-110087671D01*
X141029100Y-109946810D01*
X141029100Y-109803190D01*
X141029100Y-109803187D01*
X141029099Y-109803185D01*
X141016621Y-109740454D01*
X141001081Y-109662329D01*
X140956475Y-109554642D01*
X140946121Y-109529644D01*
X140946116Y-109529635D01*
X140866329Y-109410226D01*
X140866326Y-109410222D01*
X140764777Y-109308673D01*
X140764773Y-109308670D01*
X140645364Y-109228883D01*
X140645355Y-109228878D01*
X140512671Y-109173919D01*
X140512663Y-109173917D01*
X140371813Y-109145900D01*
X140371810Y-109145900D01*
X140228190Y-109145900D01*
X140228187Y-109145900D01*
X140087336Y-109173917D01*
X140087328Y-109173919D01*
X139954644Y-109228878D01*
X139954635Y-109228883D01*
X139835226Y-109308670D01*
X139835222Y-109308673D01*
X139733673Y-109410222D01*
X139733670Y-109410226D01*
X139653883Y-109529635D01*
X139653876Y-109529649D01*
X139652506Y-109532957D01*
X139651325Y-109534422D01*
X139651010Y-109535012D01*
X139650898Y-109534952D01*
X139608664Y-109587359D01*
X139542369Y-109609421D01*
X139537947Y-109609500D01*
X139202130Y-109609500D01*
X139202123Y-109609501D01*
X139142516Y-109615908D01*
X139007671Y-109666202D01*
X139007668Y-109666204D01*
X138951079Y-109708567D01*
X138885614Y-109732984D01*
X138876768Y-109733300D01*
X136402977Y-109733300D01*
X136335938Y-109713615D01*
X136290183Y-109660811D01*
X136288416Y-109656753D01*
X136246121Y-109554644D01*
X136246116Y-109554635D01*
X136166329Y-109435226D01*
X136166326Y-109435222D01*
X136064777Y-109333673D01*
X136064773Y-109333670D01*
X135945364Y-109253883D01*
X135945355Y-109253878D01*
X135843247Y-109211584D01*
X135788844Y-109167743D01*
X135766779Y-109101449D01*
X135766700Y-109097023D01*
X135766700Y-106861844D01*
X138750000Y-106861844D01*
X138756401Y-106921372D01*
X138756403Y-106921379D01*
X138806645Y-107056086D01*
X138806649Y-107056093D01*
X138892809Y-107171187D01*
X138892812Y-107171190D01*
X139007906Y-107257350D01*
X139007913Y-107257354D01*
X139142620Y-107307596D01*
X139142627Y-107307598D01*
X139202155Y-107313999D01*
X139202172Y-107314000D01*
X139300000Y-107314000D01*
X139800000Y-107314000D01*
X139897828Y-107314000D01*
X139897844Y-107313999D01*
X139957372Y-107307598D01*
X139957379Y-107307596D01*
X140092086Y-107257354D01*
X140092093Y-107257350D01*
X140207187Y-107171190D01*
X140207190Y-107171187D01*
X140293350Y-107056093D01*
X140293354Y-107056086D01*
X140343596Y-106921379D01*
X140343598Y-106921372D01*
X140349999Y-106861844D01*
X140350000Y-106861827D01*
X140350000Y-106794000D01*
X139800000Y-106794000D01*
X139800000Y-107314000D01*
X139300000Y-107314000D01*
X139300000Y-106794000D01*
X138750000Y-106794000D01*
X138750000Y-106861844D01*
X135766700Y-106861844D01*
X135766700Y-106002976D01*
X135786385Y-105935937D01*
X135839189Y-105890182D01*
X135843222Y-105888426D01*
X135945358Y-105846120D01*
X136064774Y-105766329D01*
X136166329Y-105664774D01*
X136246120Y-105545358D01*
X136288416Y-105443247D01*
X136332257Y-105388844D01*
X136398551Y-105366779D01*
X136402977Y-105366700D01*
X138625500Y-105366700D01*
X138692539Y-105386385D01*
X138738294Y-105439189D01*
X138749500Y-105490700D01*
X138749500Y-105997870D01*
X138749501Y-105997876D01*
X138755908Y-106057483D01*
X138760347Y-106069383D01*
X138765330Y-106139075D01*
X138760348Y-106156043D01*
X138756402Y-106166621D01*
X138756401Y-106166627D01*
X138750000Y-106226155D01*
X138750000Y-106294000D01*
X138833088Y-106294000D01*
X138900127Y-106313685D01*
X138907389Y-106318726D01*
X139007668Y-106393795D01*
X139007671Y-106393797D01*
X139052618Y-106410561D01*
X139142517Y-106444091D01*
X139202127Y-106450500D01*
X139897872Y-106450499D01*
X139957483Y-106444091D01*
X140092331Y-106393796D01*
X140192601Y-106318733D01*
X140258065Y-106294316D01*
X140266912Y-106294000D01*
X140350000Y-106294000D01*
X140350000Y-106226172D01*
X140349999Y-106226155D01*
X140343598Y-106166627D01*
X140339654Y-106156053D01*
X140334027Y-106089494D01*
X140335987Y-106079209D01*
X140344091Y-106057483D01*
X140349215Y-106009817D01*
X140350157Y-106004880D01*
X140363894Y-105978101D01*
X140375412Y-105950294D01*
X140379677Y-105947332D01*
X140382048Y-105942712D01*
X140408082Y-105927610D01*
X140432804Y-105910446D01*
X140439561Y-105909350D01*
X140442485Y-105907655D01*
X140448370Y-105907923D01*
X140465789Y-105905100D01*
X140465750Y-105904697D01*
X140471804Y-105904100D01*
X140471810Y-105904100D01*
X140612671Y-105876081D01*
X140745358Y-105821120D01*
X140864774Y-105741329D01*
X140966329Y-105639774D01*
X141046120Y-105520358D01*
X141101081Y-105387671D01*
X141129100Y-105246810D01*
X141129100Y-105103190D01*
X141129100Y-105103187D01*
X141129099Y-105103185D01*
X141119008Y-105052454D01*
X141101081Y-104962329D01*
X141056475Y-104854642D01*
X141046121Y-104829644D01*
X141046116Y-104829635D01*
X140966329Y-104710226D01*
X140966326Y-104710222D01*
X140864777Y-104608673D01*
X140864773Y-104608670D01*
X140745364Y-104528883D01*
X140745355Y-104528878D01*
X140612671Y-104473919D01*
X140612663Y-104473917D01*
X140471813Y-104445900D01*
X140471810Y-104445900D01*
X140328190Y-104445900D01*
X140328187Y-104445900D01*
X140187336Y-104473917D01*
X140187328Y-104473919D01*
X140054644Y-104528878D01*
X140054635Y-104528883D01*
X139935226Y-104608670D01*
X139935222Y-104608673D01*
X139833673Y-104710222D01*
X139833670Y-104710226D01*
X139753883Y-104829635D01*
X139753876Y-104829649D01*
X139752506Y-104832957D01*
X139751325Y-104834422D01*
X139751010Y-104835012D01*
X139750898Y-104834952D01*
X139708664Y-104887359D01*
X139642369Y-104909421D01*
X139637947Y-104909500D01*
X139202129Y-104909500D01*
X139202123Y-104909501D01*
X139142516Y-104915908D01*
X139007671Y-104966202D01*
X139007668Y-104966204D01*
X138951079Y-105008567D01*
X138885614Y-105032984D01*
X138876768Y-105033300D01*
X136402977Y-105033300D01*
X136335938Y-105013615D01*
X136290183Y-104960811D01*
X136288416Y-104956753D01*
X136246121Y-104854644D01*
X136246116Y-104854635D01*
X136166329Y-104735226D01*
X136166326Y-104735222D01*
X136064777Y-104633673D01*
X136064773Y-104633670D01*
X135945364Y-104553883D01*
X135945355Y-104553878D01*
X135843247Y-104511584D01*
X135788844Y-104467743D01*
X135766779Y-104401449D01*
X135766700Y-104397023D01*
X135766700Y-102161844D01*
X138750000Y-102161844D01*
X138756401Y-102221372D01*
X138756403Y-102221379D01*
X138806645Y-102356086D01*
X138806649Y-102356093D01*
X138892809Y-102471187D01*
X138892812Y-102471190D01*
X139007906Y-102557350D01*
X139007913Y-102557354D01*
X139142620Y-102607596D01*
X139142627Y-102607598D01*
X139202155Y-102613999D01*
X139202172Y-102614000D01*
X139300000Y-102614000D01*
X139800000Y-102614000D01*
X139897828Y-102614000D01*
X139897844Y-102613999D01*
X139957372Y-102607598D01*
X139957379Y-102607596D01*
X140092086Y-102557354D01*
X140092093Y-102557350D01*
X140207187Y-102471190D01*
X140207190Y-102471187D01*
X140293350Y-102356093D01*
X140293354Y-102356086D01*
X140343596Y-102221379D01*
X140343598Y-102221372D01*
X140349999Y-102161844D01*
X140350000Y-102161827D01*
X140350000Y-102094000D01*
X139800000Y-102094000D01*
X139800000Y-102614000D01*
X139300000Y-102614000D01*
X139300000Y-102094000D01*
X138750000Y-102094000D01*
X138750000Y-102161844D01*
X135766700Y-102161844D01*
X135766700Y-101277976D01*
X135786385Y-101210937D01*
X135839189Y-101165182D01*
X135843222Y-101163426D01*
X135945358Y-101121120D01*
X136064774Y-101041329D01*
X136166329Y-100939774D01*
X136246120Y-100820358D01*
X136288416Y-100718247D01*
X136332257Y-100663844D01*
X136398551Y-100641779D01*
X136402977Y-100641700D01*
X138625500Y-100641700D01*
X138692539Y-100661385D01*
X138738294Y-100714189D01*
X138749500Y-100765700D01*
X138749500Y-101297870D01*
X138749501Y-101297876D01*
X138755908Y-101357483D01*
X138760347Y-101369383D01*
X138765330Y-101439075D01*
X138760348Y-101456043D01*
X138756402Y-101466621D01*
X138756401Y-101466627D01*
X138750000Y-101526155D01*
X138750000Y-101594000D01*
X138833088Y-101594000D01*
X138900127Y-101613685D01*
X138907389Y-101618726D01*
X139007668Y-101693795D01*
X139007671Y-101693797D01*
X139052618Y-101710561D01*
X139142517Y-101744091D01*
X139202127Y-101750500D01*
X139897872Y-101750499D01*
X139957483Y-101744091D01*
X140092331Y-101693796D01*
X140192601Y-101618733D01*
X140258065Y-101594316D01*
X140266912Y-101594000D01*
X140350000Y-101594000D01*
X140350000Y-101526172D01*
X140349999Y-101526155D01*
X140343598Y-101466627D01*
X140339654Y-101456053D01*
X140333874Y-101390312D01*
X140335841Y-101379601D01*
X140344091Y-101357483D01*
X140350000Y-101302517D01*
X140350833Y-101297986D01*
X140364570Y-101270758D01*
X140376241Y-101242583D01*
X140380158Y-101239863D01*
X140382306Y-101235606D01*
X140408584Y-101220126D01*
X140433633Y-101202734D01*
X140441761Y-101200581D01*
X140442507Y-101200143D01*
X140443302Y-101200173D01*
X140448602Y-101198771D01*
X140493766Y-101189787D01*
X140562671Y-101176081D01*
X140695358Y-101121120D01*
X140814774Y-101041329D01*
X140916329Y-100939774D01*
X140996120Y-100820358D01*
X141051081Y-100687671D01*
X141079100Y-100546810D01*
X141079100Y-100403190D01*
X141079100Y-100403187D01*
X141079099Y-100403185D01*
X141069008Y-100352454D01*
X141051081Y-100262329D01*
X140998344Y-100135012D01*
X140996121Y-100129644D01*
X140996116Y-100129635D01*
X140916329Y-100010226D01*
X140916326Y-100010222D01*
X140814777Y-99908673D01*
X140814773Y-99908670D01*
X140695364Y-99828883D01*
X140695355Y-99828878D01*
X140562671Y-99773919D01*
X140562663Y-99773917D01*
X140421813Y-99745900D01*
X140421810Y-99745900D01*
X140278190Y-99745900D01*
X140278187Y-99745900D01*
X140137336Y-99773917D01*
X140137328Y-99773919D01*
X140004644Y-99828878D01*
X140004635Y-99828883D01*
X139885226Y-99908670D01*
X139885222Y-99908673D01*
X139783673Y-100010222D01*
X139783670Y-100010226D01*
X139703883Y-100129635D01*
X139703876Y-100129649D01*
X139702506Y-100132957D01*
X139701325Y-100134422D01*
X139701010Y-100135012D01*
X139700898Y-100134952D01*
X139658664Y-100187359D01*
X139592369Y-100209421D01*
X139587947Y-100209500D01*
X139202129Y-100209500D01*
X139202123Y-100209501D01*
X139142516Y-100215908D01*
X139007671Y-100266202D01*
X139007668Y-100266204D01*
X138984475Y-100283567D01*
X138919011Y-100307984D01*
X138910164Y-100308300D01*
X136402977Y-100308300D01*
X136335938Y-100288615D01*
X136290183Y-100235811D01*
X136288416Y-100231753D01*
X136246121Y-100129644D01*
X136246116Y-100129635D01*
X136166329Y-100010226D01*
X136166326Y-100010222D01*
X136064777Y-99908673D01*
X136064773Y-99908670D01*
X135945364Y-99828883D01*
X135945355Y-99828878D01*
X135843247Y-99786584D01*
X135788844Y-99742743D01*
X135766779Y-99676449D01*
X135766700Y-99672023D01*
X135766700Y-97461844D01*
X138750000Y-97461844D01*
X138756401Y-97521372D01*
X138756403Y-97521379D01*
X138806645Y-97656086D01*
X138806649Y-97656093D01*
X138892809Y-97771187D01*
X138892812Y-97771190D01*
X139007906Y-97857350D01*
X139007913Y-97857354D01*
X139142620Y-97907596D01*
X139142627Y-97907598D01*
X139202155Y-97913999D01*
X139202172Y-97914000D01*
X139300000Y-97914000D01*
X139800000Y-97914000D01*
X139897828Y-97914000D01*
X139897844Y-97913999D01*
X139957372Y-97907598D01*
X139957379Y-97907596D01*
X140092086Y-97857354D01*
X140092093Y-97857350D01*
X140207187Y-97771190D01*
X140207190Y-97771187D01*
X140293350Y-97656093D01*
X140293354Y-97656086D01*
X140343596Y-97521379D01*
X140343598Y-97521372D01*
X140349999Y-97461844D01*
X140350000Y-97461827D01*
X140350000Y-97394000D01*
X139800000Y-97394000D01*
X139800000Y-97914000D01*
X139300000Y-97914000D01*
X139300000Y-97394000D01*
X138750000Y-97394000D01*
X138750000Y-97461844D01*
X135766700Y-97461844D01*
X135766700Y-96577976D01*
X135772332Y-96558794D01*
X135773046Y-96538816D01*
X135781974Y-96525955D01*
X135786385Y-96510937D01*
X135801490Y-96497847D01*
X135812894Y-96481424D01*
X135836842Y-96467215D01*
X135839189Y-96465182D01*
X135843222Y-96463426D01*
X135914782Y-96433784D01*
X135984251Y-96426316D01*
X136046730Y-96457591D01*
X136049915Y-96460665D01*
X136188678Y-96599428D01*
X136235572Y-96646322D01*
X136296841Y-96671700D01*
X137433970Y-96671700D01*
X137498121Y-96690537D01*
X137498275Y-96690251D01*
X137499649Y-96690985D01*
X137501009Y-96691385D01*
X137502799Y-96692556D01*
X137503642Y-96693120D01*
X137636329Y-96748081D01*
X137777185Y-96776099D01*
X137777188Y-96776100D01*
X137777190Y-96776100D01*
X137920812Y-96776100D01*
X137920813Y-96776099D01*
X138061671Y-96748081D01*
X138194358Y-96693120D01*
X138195143Y-96692595D01*
X138195617Y-96692446D01*
X138199725Y-96690251D01*
X138200141Y-96691030D01*
X138261819Y-96671720D01*
X138264030Y-96671700D01*
X138628561Y-96671700D01*
X138695600Y-96691385D01*
X138741355Y-96744189D01*
X138751851Y-96808955D01*
X138750000Y-96826171D01*
X138750000Y-96894000D01*
X138833088Y-96894000D01*
X138900127Y-96913685D01*
X138907389Y-96918726D01*
X139005891Y-96992465D01*
X139007668Y-96993795D01*
X139007671Y-96993797D01*
X139048701Y-97009100D01*
X139142517Y-97044091D01*
X139202127Y-97050500D01*
X139897872Y-97050499D01*
X139957483Y-97044091D01*
X140092331Y-96993796D01*
X140192601Y-96918733D01*
X140258065Y-96894316D01*
X140266912Y-96894000D01*
X140350000Y-96894000D01*
X140350000Y-96852949D01*
X140369685Y-96785910D01*
X140422489Y-96740155D01*
X140426496Y-96738409D01*
X140471858Y-96719620D01*
X140591274Y-96639829D01*
X140692829Y-96538274D01*
X140772620Y-96418858D01*
X140827581Y-96286171D01*
X140855600Y-96145310D01*
X140855600Y-96001690D01*
X140855600Y-96001687D01*
X140855599Y-96001685D01*
X140847583Y-95961385D01*
X140827581Y-95860829D01*
X140772620Y-95728142D01*
X140772619Y-95728141D01*
X140772616Y-95728135D01*
X140692829Y-95608726D01*
X140692826Y-95608722D01*
X140628019Y-95543915D01*
X140594534Y-95482592D01*
X140591700Y-95456234D01*
X140591700Y-95418842D01*
X140591700Y-95418841D01*
X140566322Y-95357572D01*
X140519428Y-95310678D01*
X140206165Y-94997415D01*
X140172680Y-94936092D01*
X140177664Y-94866400D01*
X140179285Y-94862281D01*
X140221581Y-94760171D01*
X140249600Y-94619310D01*
X140249600Y-94475690D01*
X140249600Y-94475687D01*
X140249599Y-94475685D01*
X140221582Y-94334836D01*
X140221581Y-94334829D01*
X140166620Y-94202142D01*
X140166619Y-94202141D01*
X140166616Y-94202135D01*
X140086829Y-94082726D01*
X140086826Y-94082722D01*
X139985277Y-93981173D01*
X139985273Y-93981170D01*
X139865864Y-93901383D01*
X139865855Y-93901378D01*
X139733171Y-93846419D01*
X139733163Y-93846417D01*
X139592313Y-93818400D01*
X139592310Y-93818400D01*
X139448690Y-93818400D01*
X139448687Y-93818400D01*
X139307836Y-93846417D01*
X139307828Y-93846419D01*
X139175144Y-93901378D01*
X139175135Y-93901383D01*
X139055726Y-93981170D01*
X139055722Y-93981173D01*
X138954173Y-94082722D01*
X138954170Y-94082726D01*
X138874383Y-94202135D01*
X138874378Y-94202144D01*
X138819419Y-94334828D01*
X138819417Y-94334836D01*
X138791400Y-94475685D01*
X138791400Y-94619314D01*
X138819417Y-94760163D01*
X138819419Y-94760171D01*
X138874378Y-94892855D01*
X138874383Y-94892864D01*
X138954170Y-95012273D01*
X138954173Y-95012277D01*
X139055722Y-95113826D01*
X139055726Y-95113829D01*
X139175135Y-95193616D01*
X139175141Y-95193619D01*
X139175142Y-95193620D01*
X139307829Y-95248581D01*
X139365045Y-95259962D01*
X139384757Y-95263883D01*
X139446668Y-95296267D01*
X139481242Y-95356983D01*
X139477503Y-95426752D01*
X139436637Y-95483425D01*
X139371619Y-95509006D01*
X139360567Y-95509500D01*
X139202130Y-95509500D01*
X139202123Y-95509501D01*
X139142516Y-95515908D01*
X139007671Y-95566202D01*
X139007664Y-95566206D01*
X138892455Y-95652452D01*
X138892452Y-95652455D01*
X138806206Y-95767664D01*
X138806203Y-95767669D01*
X138781904Y-95832819D01*
X138740032Y-95888752D01*
X138674568Y-95913169D01*
X138606295Y-95898317D01*
X138556890Y-95848912D01*
X138551161Y-95836937D01*
X138549455Y-95832819D01*
X138522470Y-95767671D01*
X138495123Y-95701648D01*
X138495116Y-95701635D01*
X138415329Y-95582226D01*
X138415326Y-95582222D01*
X138313777Y-95480673D01*
X138313773Y-95480670D01*
X138194364Y-95400883D01*
X138194355Y-95400878D01*
X138061671Y-95345919D01*
X138061663Y-95345917D01*
X137920813Y-95317900D01*
X137920810Y-95317900D01*
X137777190Y-95317900D01*
X137777187Y-95317900D01*
X137636336Y-95345917D01*
X137636324Y-95345920D01*
X137534217Y-95388214D01*
X137464747Y-95395683D01*
X137402268Y-95364407D01*
X137399084Y-95361334D01*
X135769886Y-93732136D01*
X135736401Y-93670813D01*
X135741385Y-93601121D01*
X135742986Y-93597052D01*
X135782081Y-93502671D01*
X135810100Y-93361810D01*
X135810100Y-93218190D01*
X135810100Y-93218187D01*
X135810099Y-93218185D01*
X135782082Y-93077336D01*
X135782081Y-93077329D01*
X135727120Y-92944642D01*
X135727119Y-92944641D01*
X135727116Y-92944635D01*
X135647329Y-92825226D01*
X135647326Y-92825222D01*
X135545777Y-92723673D01*
X135545773Y-92723670D01*
X135426364Y-92643883D01*
X135426355Y-92643878D01*
X135293671Y-92588919D01*
X135293663Y-92588917D01*
X135152813Y-92560900D01*
X135152810Y-92560900D01*
X135009190Y-92560900D01*
X135009187Y-92560900D01*
X134868336Y-92588917D01*
X134868328Y-92588919D01*
X134735644Y-92643878D01*
X134735635Y-92643883D01*
X134616226Y-92723670D01*
X134616222Y-92723673D01*
X134514673Y-92825222D01*
X134514670Y-92825226D01*
X134434883Y-92944635D01*
X134434878Y-92944644D01*
X134379919Y-93077328D01*
X134379917Y-93077336D01*
X134351900Y-93218185D01*
X134351900Y-93361814D01*
X134379917Y-93502663D01*
X134379919Y-93502671D01*
X134434878Y-93635355D01*
X134434883Y-93635364D01*
X134514670Y-93754773D01*
X134514673Y-93754777D01*
X134616222Y-93856326D01*
X134616226Y-93856329D01*
X134735635Y-93936116D01*
X134735644Y-93936121D01*
X134758439Y-93945563D01*
X134868329Y-93991081D01*
X135009185Y-94019099D01*
X135009188Y-94019100D01*
X135009190Y-94019100D01*
X135152812Y-94019100D01*
X135152813Y-94019099D01*
X135293671Y-93991081D01*
X135403561Y-93945562D01*
X135473028Y-93938094D01*
X135535507Y-93969369D01*
X135538693Y-93972443D01*
X137163334Y-95597084D01*
X137196819Y-95658407D01*
X137191835Y-95728099D01*
X137190214Y-95732217D01*
X137147920Y-95834324D01*
X137147917Y-95834336D01*
X137119900Y-95975185D01*
X137119900Y-95975190D01*
X137119900Y-96118810D01*
X137119900Y-96118812D01*
X137119899Y-96118812D01*
X137134082Y-96190108D01*
X137127855Y-96259700D01*
X137084992Y-96314877D01*
X137019103Y-96338122D01*
X137012465Y-96338300D01*
X136450412Y-96338300D01*
X136420971Y-96329655D01*
X136390985Y-96323132D01*
X136385969Y-96319377D01*
X136383373Y-96318615D01*
X136362731Y-96301981D01*
X136285665Y-96224915D01*
X136252180Y-96163592D01*
X136257164Y-96093900D01*
X136258785Y-96089781D01*
X136268760Y-96065700D01*
X136301081Y-95987671D01*
X136329100Y-95846810D01*
X136329100Y-95703190D01*
X136329100Y-95703187D01*
X136329099Y-95703185D01*
X136319008Y-95652454D01*
X136301081Y-95562329D01*
X136248344Y-95435012D01*
X136246121Y-95429644D01*
X136246116Y-95429635D01*
X136166329Y-95310226D01*
X136166326Y-95310222D01*
X136064777Y-95208673D01*
X136064773Y-95208670D01*
X135945364Y-95128883D01*
X135945355Y-95128878D01*
X135812671Y-95073919D01*
X135812663Y-95073917D01*
X135671813Y-95045900D01*
X135671810Y-95045900D01*
X135528190Y-95045900D01*
X135528187Y-95045900D01*
X135387336Y-95073917D01*
X135387328Y-95073919D01*
X135254644Y-95128878D01*
X135254635Y-95128883D01*
X135135226Y-95208670D01*
X135135222Y-95208673D01*
X135033673Y-95310222D01*
X135033670Y-95310226D01*
X134953883Y-95429635D01*
X134953876Y-95429649D01*
X134952506Y-95432957D01*
X134951325Y-95434422D01*
X134951010Y-95435012D01*
X134950898Y-95434952D01*
X134908664Y-95487359D01*
X134842369Y-95509421D01*
X134837947Y-95509500D01*
X134502130Y-95509500D01*
X134502123Y-95509501D01*
X134442516Y-95515908D01*
X134307671Y-95566202D01*
X134307668Y-95566204D01*
X134284475Y-95583567D01*
X134219011Y-95607984D01*
X134210164Y-95608300D01*
X131752977Y-95608300D01*
X131685938Y-95588615D01*
X131640183Y-95535811D01*
X131638416Y-95531753D01*
X131596121Y-95429644D01*
X131596116Y-95429635D01*
X131516329Y-95310226D01*
X131516326Y-95310222D01*
X131414777Y-95208673D01*
X131414773Y-95208670D01*
X131295364Y-95128883D01*
X131295355Y-95128878D01*
X131162671Y-95073919D01*
X131162663Y-95073917D01*
X131021813Y-95045900D01*
X131021810Y-95045900D01*
X130878190Y-95045900D01*
X130878187Y-95045900D01*
X130737336Y-95073917D01*
X130737328Y-95073919D01*
X130604644Y-95128878D01*
X130604635Y-95128883D01*
X130485226Y-95208670D01*
X130485222Y-95208673D01*
X130383673Y-95310222D01*
X130383670Y-95310226D01*
X130303883Y-95429635D01*
X130303876Y-95429649D01*
X130302506Y-95432957D01*
X130301325Y-95434422D01*
X130301010Y-95435012D01*
X130300898Y-95434952D01*
X130258664Y-95487359D01*
X130192369Y-95509421D01*
X130187947Y-95509500D01*
X129802129Y-95509500D01*
X129802123Y-95509501D01*
X129742516Y-95515908D01*
X129607671Y-95566202D01*
X129607668Y-95566204D01*
X129584475Y-95583567D01*
X129519011Y-95607984D01*
X129510164Y-95608300D01*
X126876161Y-95608300D01*
X126876159Y-95608299D01*
X126809841Y-95608299D01*
X126749961Y-95633102D01*
X126735849Y-95635424D01*
X126714794Y-95632830D01*
X126693705Y-95635098D01*
X126668269Y-95627629D01*
X126550675Y-95578920D01*
X126550663Y-95578917D01*
X126409813Y-95550900D01*
X126409810Y-95550900D01*
X126266190Y-95550900D01*
X126266187Y-95550900D01*
X126125331Y-95578917D01*
X126125327Y-95578919D01*
X126115876Y-95582834D01*
X126046406Y-95590301D01*
X126000248Y-95570208D01*
X126000114Y-95570454D01*
X125997371Y-95568956D01*
X125994113Y-95567538D01*
X125992331Y-95566204D01*
X125992328Y-95566202D01*
X125857486Y-95515910D01*
X125857485Y-95515909D01*
X125857483Y-95515909D01*
X125797873Y-95509500D01*
X125797863Y-95509500D01*
X125102129Y-95509500D01*
X125102123Y-95509501D01*
X125042516Y-95515908D01*
X124907671Y-95566202D01*
X124907664Y-95566206D01*
X124792455Y-95652452D01*
X124792452Y-95652455D01*
X124706206Y-95767664D01*
X124706202Y-95767671D01*
X124657475Y-95898317D01*
X124655909Y-95902517D01*
X124649500Y-95962127D01*
X124092338Y-95962127D01*
X124090502Y-92106103D01*
X124091098Y-92093927D01*
X124106587Y-91936662D01*
X124111326Y-91912838D01*
X124155428Y-91767451D01*
X124164722Y-91745014D01*
X124236340Y-91611027D01*
X124249835Y-91590830D01*
X124346213Y-91473392D01*
X124363392Y-91456213D01*
X124480830Y-91359835D01*
X124501027Y-91346340D01*
X124635014Y-91274722D01*
X124657451Y-91265428D01*
X124802838Y-91221326D01*
X124826663Y-91216587D01*
X124915292Y-91207857D01*
X124924700Y-91206931D01*
X124961048Y-91208717D01*
G37*
%TD.AperFunction*%
%TD*%
M02*
