%TF.GenerationSoftware,KiCad,Pcbnew,10.0.4-10.0.4~ubuntu24.04.1*%
%TF.CreationDate,2026-06-30T15:28:47+09:00*%
%TF.ProjectId,4x4,3478342e-6b69-4636-9164-5f7063625858,rev?*%
%TF.SameCoordinates,Original*%
%TF.FileFunction,OtherDrawing,Comment*%
%FSLAX46Y46*%
G04 Gerber Fmt 4.6, Leading zero omitted, Abs format (unit mm)*
G04 Created by KiCad (PCBNEW 10.0.4-10.0.4~ubuntu24.04.1) date 2026-06-30 15:28:47*
%MOMM*%
%LPD*%
G01*
G04 APERTURE LIST*
%ADD10C,0.150000*%
%ADD11C,0.100000*%
G04 APERTURE END LIST*
D10*
X153584904Y-113578819D02*
X153251571Y-113102628D01*
X153013476Y-113578819D02*
X153013476Y-112578819D01*
X153013476Y-112578819D02*
X153394428Y-112578819D01*
X153394428Y-112578819D02*
X153489666Y-112626438D01*
X153489666Y-112626438D02*
X153537285Y-112674057D01*
X153537285Y-112674057D02*
X153584904Y-112769295D01*
X153584904Y-112769295D02*
X153584904Y-112912152D01*
X153584904Y-112912152D02*
X153537285Y-113007390D01*
X153537285Y-113007390D02*
X153489666Y-113055009D01*
X153489666Y-113055009D02*
X153394428Y-113102628D01*
X153394428Y-113102628D02*
X153013476Y-113102628D01*
X154965857Y-112578819D02*
X155061095Y-112578819D01*
X155061095Y-112578819D02*
X155156333Y-112626438D01*
X155156333Y-112626438D02*
X155203952Y-112674057D01*
X155203952Y-112674057D02*
X155251571Y-112769295D01*
X155251571Y-112769295D02*
X155299190Y-112959771D01*
X155299190Y-112959771D02*
X155299190Y-113197866D01*
X155299190Y-113197866D02*
X155251571Y-113388342D01*
X155251571Y-113388342D02*
X155203952Y-113483580D01*
X155203952Y-113483580D02*
X155156333Y-113531200D01*
X155156333Y-113531200D02*
X155061095Y-113578819D01*
X155061095Y-113578819D02*
X154965857Y-113578819D01*
X154965857Y-113578819D02*
X154870619Y-113531200D01*
X154870619Y-113531200D02*
X154823000Y-113483580D01*
X154823000Y-113483580D02*
X154775381Y-113388342D01*
X154775381Y-113388342D02*
X154727762Y-113197866D01*
X154727762Y-113197866D02*
X154727762Y-112959771D01*
X154727762Y-112959771D02*
X154775381Y-112769295D01*
X154775381Y-112769295D02*
X154823000Y-112674057D01*
X154823000Y-112674057D02*
X154870619Y-112626438D01*
X154870619Y-112626438D02*
X154965857Y-112578819D01*
X155727762Y-113483580D02*
X155775381Y-113531200D01*
X155775381Y-113531200D02*
X155727762Y-113578819D01*
X155727762Y-113578819D02*
X155680143Y-113531200D01*
X155680143Y-113531200D02*
X155727762Y-113483580D01*
X155727762Y-113483580D02*
X155727762Y-113578819D01*
X156108714Y-112578819D02*
X156775380Y-112578819D01*
X156775380Y-112578819D02*
X156346809Y-113578819D01*
X157632523Y-112578819D02*
X157156333Y-112578819D01*
X157156333Y-112578819D02*
X157108714Y-113055009D01*
X157108714Y-113055009D02*
X157156333Y-113007390D01*
X157156333Y-113007390D02*
X157251571Y-112959771D01*
X157251571Y-112959771D02*
X157489666Y-112959771D01*
X157489666Y-112959771D02*
X157584904Y-113007390D01*
X157584904Y-113007390D02*
X157632523Y-113055009D01*
X157632523Y-113055009D02*
X157680142Y-113150247D01*
X157680142Y-113150247D02*
X157680142Y-113388342D01*
X157680142Y-113388342D02*
X157632523Y-113483580D01*
X157632523Y-113483580D02*
X157584904Y-113531200D01*
X157584904Y-113531200D02*
X157489666Y-113578819D01*
X157489666Y-113578819D02*
X157251571Y-113578819D01*
X157251571Y-113578819D02*
X157156333Y-113531200D01*
X157156333Y-113531200D02*
X157108714Y-113483580D01*
D11*
X142999550Y-111854000D02*
X142999550Y-114394000D01*
X144269550Y-113124000D02*
X141729550Y-113124000D01*
X143749550Y-113124000D02*
X147559550Y-113124000D01*
X147559550Y-113124000D02*
X152150381Y-113124000D01*
X143749550Y-113124000D02*
X144876054Y-112537579D01*
X143749550Y-113124000D02*
X144876054Y-113710421D01*
D10*
X151527904Y-95564819D02*
X151194571Y-95088628D01*
X150956476Y-95564819D02*
X150956476Y-94564819D01*
X150956476Y-94564819D02*
X151337428Y-94564819D01*
X151337428Y-94564819D02*
X151432666Y-94612438D01*
X151432666Y-94612438D02*
X151480285Y-94660057D01*
X151480285Y-94660057D02*
X151527904Y-94755295D01*
X151527904Y-94755295D02*
X151527904Y-94898152D01*
X151527904Y-94898152D02*
X151480285Y-94993390D01*
X151480285Y-94993390D02*
X151432666Y-95041009D01*
X151432666Y-95041009D02*
X151337428Y-95088628D01*
X151337428Y-95088628D02*
X150956476Y-95088628D01*
X152908857Y-94564819D02*
X153004095Y-94564819D01*
X153004095Y-94564819D02*
X153099333Y-94612438D01*
X153099333Y-94612438D02*
X153146952Y-94660057D01*
X153146952Y-94660057D02*
X153194571Y-94755295D01*
X153194571Y-94755295D02*
X153242190Y-94945771D01*
X153242190Y-94945771D02*
X153242190Y-95183866D01*
X153242190Y-95183866D02*
X153194571Y-95374342D01*
X153194571Y-95374342D02*
X153146952Y-95469580D01*
X153146952Y-95469580D02*
X153099333Y-95517200D01*
X153099333Y-95517200D02*
X153004095Y-95564819D01*
X153004095Y-95564819D02*
X152908857Y-95564819D01*
X152908857Y-95564819D02*
X152813619Y-95517200D01*
X152813619Y-95517200D02*
X152766000Y-95469580D01*
X152766000Y-95469580D02*
X152718381Y-95374342D01*
X152718381Y-95374342D02*
X152670762Y-95183866D01*
X152670762Y-95183866D02*
X152670762Y-94945771D01*
X152670762Y-94945771D02*
X152718381Y-94755295D01*
X152718381Y-94755295D02*
X152766000Y-94660057D01*
X152766000Y-94660057D02*
X152813619Y-94612438D01*
X152813619Y-94612438D02*
X152908857Y-94564819D01*
X153670762Y-95469580D02*
X153718381Y-95517200D01*
X153718381Y-95517200D02*
X153670762Y-95564819D01*
X153670762Y-95564819D02*
X153623143Y-95517200D01*
X153623143Y-95517200D02*
X153670762Y-95469580D01*
X153670762Y-95469580D02*
X153670762Y-95564819D01*
X154051714Y-94564819D02*
X154718380Y-94564819D01*
X154718380Y-94564819D02*
X154289809Y-95564819D01*
X155575523Y-94564819D02*
X155099333Y-94564819D01*
X155099333Y-94564819D02*
X155051714Y-95041009D01*
X155051714Y-95041009D02*
X155099333Y-94993390D01*
X155099333Y-94993390D02*
X155194571Y-94945771D01*
X155194571Y-94945771D02*
X155432666Y-94945771D01*
X155432666Y-94945771D02*
X155527904Y-94993390D01*
X155527904Y-94993390D02*
X155575523Y-95041009D01*
X155575523Y-95041009D02*
X155623142Y-95136247D01*
X155623142Y-95136247D02*
X155623142Y-95374342D01*
X155623142Y-95374342D02*
X155575523Y-95469580D01*
X155575523Y-95469580D02*
X155527904Y-95517200D01*
X155527904Y-95517200D02*
X155432666Y-95564819D01*
X155432666Y-95564819D02*
X155194571Y-95564819D01*
X155194571Y-95564819D02*
X155099333Y-95517200D01*
X155099333Y-95517200D02*
X155051714Y-95469580D01*
D11*
X143499500Y-93840000D02*
X143499500Y-96380000D01*
X144769500Y-95110000D02*
X142229500Y-95110000D01*
X144249500Y-95110000D02*
X148059500Y-95110000D01*
X148059500Y-95110000D02*
X150093381Y-95110000D01*
X144249500Y-95110000D02*
X145376004Y-94523579D01*
X144249500Y-95110000D02*
X145376004Y-95696421D01*
D10*
X143732286Y-118731057D02*
X143779905Y-118683438D01*
X143779905Y-118683438D02*
X143875143Y-118635819D01*
X143875143Y-118635819D02*
X144113238Y-118635819D01*
X144113238Y-118635819D02*
X144208476Y-118683438D01*
X144208476Y-118683438D02*
X144256095Y-118731057D01*
X144256095Y-118731057D02*
X144303714Y-118826295D01*
X144303714Y-118826295D02*
X144303714Y-118921533D01*
X144303714Y-118921533D02*
X144256095Y-119064390D01*
X144256095Y-119064390D02*
X143684667Y-119635819D01*
X143684667Y-119635819D02*
X144303714Y-119635819D01*
D11*
X142999550Y-113624000D02*
X142999550Y-118235420D01*
X145000000Y-118235420D02*
X145000000Y-113624000D01*
X142999550Y-117649000D02*
X145000000Y-117649000D01*
X142999550Y-117649000D02*
X144126054Y-117062579D01*
X142999550Y-117649000D02*
X144126054Y-118235421D01*
X145000000Y-117649000D02*
X143873496Y-118235421D01*
X145000000Y-117649000D02*
X143873496Y-117062579D01*
D10*
X143828428Y-86945819D02*
X143257000Y-86945819D01*
X143542714Y-86945819D02*
X143542714Y-85945819D01*
X143542714Y-85945819D02*
X143447476Y-86088676D01*
X143447476Y-86088676D02*
X143352238Y-86183914D01*
X143352238Y-86183914D02*
X143257000Y-86231533D01*
X144257000Y-86850580D02*
X144304619Y-86898200D01*
X144304619Y-86898200D02*
X144257000Y-86945819D01*
X144257000Y-86945819D02*
X144209381Y-86898200D01*
X144209381Y-86898200D02*
X144257000Y-86850580D01*
X144257000Y-86850580D02*
X144257000Y-86945819D01*
X145209380Y-85945819D02*
X144733190Y-85945819D01*
X144733190Y-85945819D02*
X144685571Y-86422009D01*
X144685571Y-86422009D02*
X144733190Y-86374390D01*
X144733190Y-86374390D02*
X144828428Y-86326771D01*
X144828428Y-86326771D02*
X145066523Y-86326771D01*
X145066523Y-86326771D02*
X145161761Y-86374390D01*
X145161761Y-86374390D02*
X145209380Y-86422009D01*
X145209380Y-86422009D02*
X145256999Y-86517247D01*
X145256999Y-86517247D02*
X145256999Y-86755342D01*
X145256999Y-86755342D02*
X145209380Y-86850580D01*
X145209380Y-86850580D02*
X145161761Y-86898200D01*
X145161761Y-86898200D02*
X145066523Y-86945819D01*
X145066523Y-86945819D02*
X144828428Y-86945819D01*
X144828428Y-86945819D02*
X144733190Y-86898200D01*
X144733190Y-86898200D02*
X144685571Y-86850580D01*
D11*
X143512000Y-92586000D02*
X143512000Y-87164580D01*
X145000000Y-87164580D02*
X145000000Y-91610000D01*
X143512000Y-87751000D02*
X145000000Y-87751000D01*
X143512000Y-87751000D02*
X144638504Y-87164579D01*
X143512000Y-87751000D02*
X144638504Y-88337421D01*
X145000000Y-87751000D02*
X143873496Y-88337421D01*
X145000000Y-87751000D02*
X143873496Y-87164579D01*
D10*
X149694819Y-92313285D02*
X149694819Y-92884713D01*
X149694819Y-92598999D02*
X148694819Y-92598999D01*
X148694819Y-92598999D02*
X148837676Y-92694237D01*
X148837676Y-92694237D02*
X148932914Y-92789475D01*
X148932914Y-92789475D02*
X148980533Y-92884713D01*
D11*
X143999500Y-93110000D02*
X148296420Y-93110000D01*
X148296420Y-92110000D02*
X145500000Y-92110000D01*
X147710000Y-93110000D02*
X147710000Y-92110000D01*
X147710000Y-93110000D02*
X147123579Y-91983496D01*
X147710000Y-93110000D02*
X148296421Y-91983496D01*
X147710000Y-92110000D02*
X148296421Y-93236504D01*
X147710000Y-92110000D02*
X147123579Y-93236504D01*
D10*
X150991819Y-113311285D02*
X150991819Y-113882713D01*
X150991819Y-113596999D02*
X149991819Y-113596999D01*
X149991819Y-113596999D02*
X150134676Y-113692237D01*
X150134676Y-113692237D02*
X150229914Y-113787475D01*
X150229914Y-113787475D02*
X150277533Y-113882713D01*
D11*
X143499550Y-113124000D02*
X149086420Y-113124000D01*
X149086420Y-114100000D02*
X144500000Y-114100000D01*
X148500000Y-113124000D02*
X148500000Y-114100000D01*
X148500000Y-113124000D02*
X149086421Y-114250504D01*
X148500000Y-113124000D02*
X147913579Y-114250504D01*
X148500000Y-114100000D02*
X147913579Y-112973496D01*
X148500000Y-114100000D02*
X149086421Y-112973496D01*
D10*
X140284381Y-118651819D02*
X140903428Y-118651819D01*
X140903428Y-118651819D02*
X140570095Y-119032771D01*
X140570095Y-119032771D02*
X140712952Y-119032771D01*
X140712952Y-119032771D02*
X140808190Y-119080390D01*
X140808190Y-119080390D02*
X140855809Y-119128009D01*
X140855809Y-119128009D02*
X140903428Y-119223247D01*
X140903428Y-119223247D02*
X140903428Y-119461342D01*
X140903428Y-119461342D02*
X140855809Y-119556580D01*
X140855809Y-119556580D02*
X140808190Y-119604200D01*
X140808190Y-119604200D02*
X140712952Y-119651819D01*
X140712952Y-119651819D02*
X140427238Y-119651819D01*
X140427238Y-119651819D02*
X140332000Y-119604200D01*
X140332000Y-119604200D02*
X140284381Y-119556580D01*
X141332000Y-119556580D02*
X141379619Y-119604200D01*
X141379619Y-119604200D02*
X141332000Y-119651819D01*
X141332000Y-119651819D02*
X141284381Y-119604200D01*
X141284381Y-119604200D02*
X141332000Y-119556580D01*
X141332000Y-119556580D02*
X141332000Y-119651819D01*
X142236761Y-118985152D02*
X142236761Y-119651819D01*
X141998666Y-118604200D02*
X141760571Y-119318485D01*
X141760571Y-119318485D02*
X142379618Y-119318485D01*
D11*
X142999550Y-113624000D02*
X142999550Y-118258420D01*
X139599550Y-118258420D02*
X139599550Y-113624000D01*
X142999550Y-117672000D02*
X139599550Y-117672000D01*
X142999550Y-117672000D02*
X141873046Y-118258421D01*
X142999550Y-117672000D02*
X141873046Y-117085579D01*
X139599550Y-117672000D02*
X140726054Y-117085579D01*
X139599550Y-117672000D02*
X140726054Y-118258421D01*
D10*
X148844057Y-94360713D02*
X148796438Y-94313094D01*
X148796438Y-94313094D02*
X148748819Y-94217856D01*
X148748819Y-94217856D02*
X148748819Y-93979761D01*
X148748819Y-93979761D02*
X148796438Y-93884523D01*
X148796438Y-93884523D02*
X148844057Y-93836904D01*
X148844057Y-93836904D02*
X148939295Y-93789285D01*
X148939295Y-93789285D02*
X149034533Y-93789285D01*
X149034533Y-93789285D02*
X149177390Y-93836904D01*
X149177390Y-93836904D02*
X149748819Y-94408332D01*
X149748819Y-94408332D02*
X149748819Y-93789285D01*
D11*
X143999500Y-93110000D02*
X148296420Y-93110000D01*
X148296420Y-95110000D02*
X143999500Y-95110000D01*
X147710000Y-93110000D02*
X147710000Y-95110000D01*
X147710000Y-93110000D02*
X148296421Y-94236504D01*
X147710000Y-93110000D02*
X147123579Y-94236504D01*
X147710000Y-95110000D02*
X147123579Y-93983496D01*
X147710000Y-95110000D02*
X148296421Y-93983496D01*
M02*
