<?xml version="1.0" standalone="no"?>
 <!DOCTYPE svg PUBLIC "-//W3C//DTD SVG 1.1//EN" 
 "http://www.w3.org/Graphics/SVG/1.1/DTD/svg11.dtd"> 
<svg
  xmlns:svg="http://www.w3.org/2000/svg"
  xmlns="http://www.w3.org/2000/svg"
  xmlns:xlink="http://www.w3.org/1999/xlink"
  xmlns:inkscape="http://www.inkscape.org/namespaces/inkscape"
  version="1.1"
  width="297.0022mm" height="210.0072mm" viewBox="0.0000 0.0000 297.0022 210.0072">
<title>SVG Image created as 4x4-User_Drawings5.svg date 2026-06-30T15:28:52 </title>
  <desc>Image generated by PCBNEW </desc>
<g style="fill:#000000; fill-opacity:1.0000;stroke:#000000; stroke-opacity:1.0000;
stroke-linecap:round; stroke-linejoin:round;"
 transform="translate(0 0) scale(1 1)">
</g>
<g style="fill:none; 
stroke:#000000; stroke-width:0.1500; stroke-opacity:1; 
stroke-linecap:round; stroke-linejoin:round;">
<text x="155.3230" y="113.6240"
textLength="5.3452" font-size="1.3333" lengthAdjust="spacingAndGlyphs"
text-anchor="middle" opacity="0" stroke-opacity="0">R 0.75</text>
<g class="stroked-text"><desc>R 0.75</desc>
<path d="M153.5849 113.5788
L153.2516 113.1026
" />
<path d="M153.0135 113.5788
L153.0135 112.5788
" />
<path d="M153.0135 112.5788
L153.3944 112.5788
" />
<path d="M153.3944 112.5788
L153.4897 112.6264
" />
<path d="M153.4897 112.6264
L153.5373 112.6741
" />
<path d="M153.5373 112.6741
L153.5849 112.7693
" />
<path d="M153.5849 112.7693
L153.5849 112.9122
" />
<path d="M153.5849 112.9122
L153.5373 113.0074
" />
<path d="M153.5373 113.0074
L153.4897 113.0550
" />
<path d="M153.4897 113.0550
L153.3944 113.1026
" />
<path d="M153.3944 113.1026
L153.0135 113.1026
" />
<path d="M154.9659 112.5788
L155.0611 112.5788
" />
<path d="M155.0611 112.5788
L155.1563 112.6264
" />
<path d="M155.1563 112.6264
L155.2040 112.6741
" />
<path d="M155.2040 112.6741
L155.2516 112.7693
" />
<path d="M155.2516 112.7693
L155.2992 112.9598
" />
<path d="M155.2992 112.9598
L155.2992 113.1979
" />
<path d="M155.2992 113.1979
L155.2516 113.3883
" />
<path d="M155.2516 113.3883
L155.2040 113.4836
" />
<path d="M155.2040 113.4836
L155.1563 113.5312
" />
<path d="M155.1563 113.5312
L155.0611 113.5788
" />
<path d="M155.0611 113.5788
L154.9659 113.5788
" />
<path d="M154.9659 113.5788
L154.8706 113.5312
" />
<path d="M154.8706 113.5312
L154.8230 113.4836
" />
<path d="M154.8230 113.4836
L154.7754 113.3883
" />
<path d="M154.7754 113.3883
L154.7278 113.1979
" />
<path d="M154.7278 113.1979
L154.7278 112.9598
" />
<path d="M154.7278 112.9598
L154.7754 112.7693
" />
<path d="M154.7754 112.7693
L154.8230 112.6741
" />
<path d="M154.8230 112.6741
L154.8706 112.6264
" />
<path d="M154.8706 112.6264
L154.9659 112.5788
" />
<path d="M155.7278 113.4836
L155.7754 113.5312
" />
<path d="M155.7754 113.5312
L155.7278 113.5788
" />
<path d="M155.7278 113.5788
L155.6801 113.5312
" />
<path d="M155.6801 113.5312
L155.7278 113.4836
" />
<path d="M155.7278 113.4836
L155.7278 113.5788
" />
<path d="M156.1087 112.5788
L156.7754 112.5788
" />
<path d="M156.7754 112.5788
L156.3468 113.5788
" />
<path d="M157.6325 112.5788
L157.1563 112.5788
" />
<path d="M157.1563 112.5788
L157.1087 113.0550
" />
<path d="M157.1087 113.0550
L157.1563 113.0074
" />
<path d="M157.1563 113.0074
L157.2516 112.9598
" />
<path d="M157.2516 112.9598
L157.4897 112.9598
" />
<path d="M157.4897 112.9598
L157.5849 113.0074
" />
<path d="M157.5849 113.0074
L157.6325 113.0550
" />
<path d="M157.6325 113.0550
L157.6801 113.1502
" />
<path d="M157.6801 113.1502
L157.6801 113.3883
" />
<path d="M157.6801 113.3883
L157.6325 113.4836
" />
<path d="M157.6325 113.4836
L157.5849 113.5312
" />
<path d="M157.5849 113.5312
L157.4897 113.5788
" />
<path d="M157.4897 113.5788
L157.2516 113.5788
" />
<path d="M157.2516 113.5788
L157.1563 113.5312
" />
<path d="M157.1563 113.5312
L157.1087 113.4836
" />
</g></g>
<g style="fill:none; 
stroke:#000000; stroke-width:0.1000; stroke-opacity:1; 
stroke-linecap:round; stroke-linejoin:round;">
<path d="M142.9995 111.8540
L142.9995 114.3940
" />
<path d="M144.2695 113.1240
L141.7295 113.1240
" />
<path d="M143.7495 113.1240
L147.5596 113.1240
" />
<path d="M147.5596 113.1240
L152.1504 113.1240
" />
<path d="M143.7495 113.1240
L144.8761 112.5376
" />
<path d="M143.7495 113.1240
L144.8761 113.7104
" />
</g>
<g style="fill:none; 
stroke:#000000; stroke-width:0.1500; stroke-opacity:1; 
stroke-linecap:round; stroke-linejoin:round;">
<text x="153.2660" y="95.6100"
textLength="5.3452" font-size="1.3333" lengthAdjust="spacingAndGlyphs"
text-anchor="middle" opacity="0" stroke-opacity="0">R 0.75</text>
<g class="stroked-text"><desc>R 0.75</desc>
<path d="M151.5279 95.5648
L151.1946 95.0886
" />
<path d="M150.9565 95.5648
L150.9565 94.5648
" />
<path d="M150.9565 94.5648
L151.3374 94.5648
" />
<path d="M151.3374 94.5648
L151.4327 94.6124
" />
<path d="M151.4327 94.6124
L151.4803 94.6601
" />
<path d="M151.4803 94.6601
L151.5279 94.7553
" />
<path d="M151.5279 94.7553
L151.5279 94.8982
" />
<path d="M151.5279 94.8982
L151.4803 94.9934
" />
<path d="M151.4803 94.9934
L151.4327 95.0410
" />
<path d="M151.4327 95.0410
L151.3374 95.0886
" />
<path d="M151.3374 95.0886
L150.9565 95.0886
" />
<path d="M152.9089 94.5648
L153.0041 94.5648
" />
<path d="M153.0041 94.5648
L153.0993 94.6124
" />
<path d="M153.0993 94.6124
L153.1470 94.6601
" />
<path d="M153.1470 94.6601
L153.1946 94.7553
" />
<path d="M153.1946 94.7553
L153.2422 94.9458
" />
<path d="M153.2422 94.9458
L153.2422 95.1839
" />
<path d="M153.2422 95.1839
L153.1946 95.3743
" />
<path d="M153.1946 95.3743
L153.1470 95.4696
" />
<path d="M153.1470 95.4696
L153.0993 95.5172
" />
<path d="M153.0993 95.5172
L153.0041 95.5648
" />
<path d="M153.0041 95.5648
L152.9089 95.5648
" />
<path d="M152.9089 95.5648
L152.8136 95.5172
" />
<path d="M152.8136 95.5172
L152.7660 95.4696
" />
<path d="M152.7660 95.4696
L152.7184 95.3743
" />
<path d="M152.7184 95.3743
L152.6708 95.1839
" />
<path d="M152.6708 95.1839
L152.6708 94.9458
" />
<path d="M152.6708 94.9458
L152.7184 94.7553
" />
<path d="M152.7184 94.7553
L152.7660 94.6601
" />
<path d="M152.7660 94.6601
L152.8136 94.6124
" />
<path d="M152.8136 94.6124
L152.9089 94.5648
" />
<path d="M153.6708 95.4696
L153.7184 95.5172
" />
<path d="M153.7184 95.5172
L153.6708 95.5648
" />
<path d="M153.6708 95.5648
L153.6231 95.5172
" />
<path d="M153.6231 95.5172
L153.6708 95.4696
" />
<path d="M153.6708 95.4696
L153.6708 95.5648
" />
<path d="M154.0517 94.5648
L154.7184 94.5648
" />
<path d="M154.7184 94.5648
L154.2898 95.5648
" />
<path d="M155.5755 94.5648
L155.0993 94.5648
" />
<path d="M155.0993 94.5648
L155.0517 95.0410
" />
<path d="M155.0517 95.0410
L155.0993 94.9934
" />
<path d="M155.0993 94.9934
L155.1946 94.9458
" />
<path d="M155.1946 94.9458
L155.4327 94.9458
" />
<path d="M155.4327 94.9458
L155.5279 94.9934
" />
<path d="M155.5279 94.9934
L155.5755 95.0410
" />
<path d="M155.5755 95.0410
L155.6231 95.1362
" />
<path d="M155.6231 95.1362
L155.6231 95.3743
" />
<path d="M155.6231 95.3743
L155.5755 95.4696
" />
<path d="M155.5755 95.4696
L155.5279 95.5172
" />
<path d="M155.5279 95.5172
L155.4327 95.5648
" />
<path d="M155.4327 95.5648
L155.1946 95.5648
" />
<path d="M155.1946 95.5648
L155.0993 95.5172
" />
<path d="M155.0993 95.5172
L155.0517 95.4696
" />
</g></g>
<g style="fill:none; 
stroke:#000000; stroke-width:0.1000; stroke-opacity:1; 
stroke-linecap:round; stroke-linejoin:round;">
<path d="M143.4995 93.8400
L143.4995 96.3800
" />
<path d="M144.7695 95.1100
L142.2295 95.1100
" />
<path d="M144.2495 95.1100
L148.0595 95.1100
" />
<path d="M148.0595 95.1100
L150.0934 95.1100
" />
<path d="M144.2495 95.1100
L145.3760 94.5236
" />
<path d="M144.2495 95.1100
L145.3760 95.6964
" />
</g>
<g style="fill:none; 
stroke:#000000; stroke-width:0.1500; stroke-opacity:1; 
stroke-linecap:round; stroke-linejoin:round;">
<text x="144.0180" y="119.6810"
textLength="1.2024" font-size="1.3333" lengthAdjust="spacingAndGlyphs"
text-anchor="middle" opacity="0" stroke-opacity="0">2</text>
<g class="stroked-text"><desc>2</desc>
<path d="M143.7323 118.7311
L143.7799 118.6834
" />
<path d="M143.7799 118.6834
L143.8751 118.6358
" />
<path d="M143.8751 118.6358
L144.1132 118.6358
" />
<path d="M144.1132 118.6358
L144.2085 118.6834
" />
<path d="M144.2085 118.6834
L144.2561 118.7311
" />
<path d="M144.2561 118.7311
L144.3037 118.8263
" />
<path d="M144.3037 118.8263
L144.3037 118.9215
" />
<path d="M144.3037 118.9215
L144.2561 119.0644
" />
<path d="M144.2561 119.0644
L143.6847 119.6358
" />
<path d="M143.6847 119.6358
L144.3037 119.6358
" />
</g></g>
<g style="fill:none; 
stroke:#000000; stroke-width:0.1000; stroke-opacity:1; 
stroke-linecap:round; stroke-linejoin:round;">
<path d="M142.9995 113.6240
L142.9995 118.2354
" />
<path d="M145.0000 118.2354
L145.0000 113.6240
" />
<path d="M142.9995 117.6490
L145.0000 117.6490
" />
<path d="M142.9995 117.6490
L144.1261 117.0626
" />
<path d="M142.9995 117.6490
L144.1261 118.2354
" />
<path d="M145.0000 117.6490
L143.8735 118.2354
" />
<path d="M145.0000 117.6490
L143.8735 117.0626
" />
</g>
<g style="fill:none; 
stroke:#000000; stroke-width:0.1500; stroke-opacity:1; 
stroke-linecap:round; stroke-linejoin:round;">
<text x="144.2570" y="86.9910"
textLength="2.6310" font-size="1.3333" lengthAdjust="spacingAndGlyphs"
text-anchor="middle" opacity="0" stroke-opacity="0">1.5</text>
<g class="stroked-text"><desc>1.5</desc>
<path d="M143.8284 86.9458
L143.2570 86.9458
" />
<path d="M143.5427 86.9458
L143.5427 85.9458
" />
<path d="M143.5427 85.9458
L143.4475 86.0887
" />
<path d="M143.4475 86.0887
L143.3522 86.1839
" />
<path d="M143.3522 86.1839
L143.2570 86.2315
" />
<path d="M144.2570 86.8506
L144.3046 86.8982
" />
<path d="M144.3046 86.8982
L144.2570 86.9458
" />
<path d="M144.2570 86.9458
L144.2094 86.8982
" />
<path d="M144.2094 86.8982
L144.2570 86.8506
" />
<path d="M144.2570 86.8506
L144.2570 86.9458
" />
<path d="M145.2094 85.9458
L144.7332 85.9458
" />
<path d="M144.7332 85.9458
L144.6856 86.4220
" />
<path d="M144.6856 86.4220
L144.7332 86.3744
" />
<path d="M144.7332 86.3744
L144.8284 86.3268
" />
<path d="M144.8284 86.3268
L145.0665 86.3268
" />
<path d="M145.0665 86.3268
L145.1618 86.3744
" />
<path d="M145.1618 86.3744
L145.2094 86.4220
" />
<path d="M145.2094 86.4220
L145.2570 86.5172
" />
<path d="M145.2570 86.5172
L145.2570 86.7553
" />
<path d="M145.2570 86.7553
L145.2094 86.8506
" />
<path d="M145.2094 86.8506
L145.1618 86.8982
" />
<path d="M145.1618 86.8982
L145.0665 86.9458
" />
<path d="M145.0665 86.9458
L144.8284 86.9458
" />
<path d="M144.8284 86.9458
L144.7332 86.8982
" />
<path d="M144.7332 86.8982
L144.6856 86.8506
" />
</g></g>
<g style="fill:none; 
stroke:#000000; stroke-width:0.1000; stroke-opacity:1; 
stroke-linecap:round; stroke-linejoin:round;">
<path d="M143.5120 92.5860
L143.5120 87.1646
" />
<path d="M145.0000 87.1646
L145.0000 91.6100
" />
<path d="M143.5120 87.7510
L145.0000 87.7510
" />
<path d="M143.5120 87.7510
L144.6385 87.1646
" />
<path d="M143.5120 87.7510
L144.6385 88.3374
" />
<path d="M145.0000 87.7510
L143.8735 88.3374
" />
<path d="M145.0000 87.7510
L143.8735 87.1646
" />
</g>
<g style="fill:none; 
stroke:#000000; stroke-width:0.1500; stroke-opacity:1; 
stroke-linecap:round; stroke-linejoin:round;">
<g transform="rotate(-90.000000 149.2400 92.5990)">
<text x="149.2400" y="93.0990"
textLength="1.2024" font-size="1.3333" lengthAdjust="spacingAndGlyphs"
text-anchor="middle" opacity="0" stroke-opacity="0">1</text>
</g>
<g class="stroked-text"><desc>1</desc>
<path d="M149.6948 92.3133
L149.6948 92.8847
" />
<path d="M149.6948 92.5990
L148.6948 92.5990
" />
<path d="M148.6948 92.5990
L148.8377 92.6942
" />
<path d="M148.8377 92.6942
L148.9329 92.7895
" />
<path d="M148.9329 92.7895
L148.9805 92.8847
" />
</g></g>
<g style="fill:none; 
stroke:#000000; stroke-width:0.1000; stroke-opacity:1; 
stroke-linecap:round; stroke-linejoin:round;">
<path d="M143.9995 93.1100
L148.2964 93.1100
" />
<path d="M148.2964 92.1100
L145.5000 92.1100
" />
<path d="M147.7100 93.1100
L147.7100 92.1100
" />
<path d="M147.7100 93.1100
L147.1236 91.9835
" />
<path d="M147.7100 93.1100
L148.2964 91.9835
" />
<path d="M147.7100 92.1100
L148.2964 93.2365
" />
<path d="M147.7100 92.1100
L147.1236 93.2365
" />
</g>
<g style="fill:none; 
stroke:#000000; stroke-width:0.1500; stroke-opacity:1; 
stroke-linecap:round; stroke-linejoin:round;">
<g transform="rotate(-90.000000 150.5370 113.5970)">
<text x="150.5370" y="114.0970"
textLength="1.2024" font-size="1.3333" lengthAdjust="spacingAndGlyphs"
text-anchor="middle" opacity="0" stroke-opacity="0">1</text>
</g>
<g class="stroked-text"><desc>1</desc>
<path d="M150.9918 113.3113
L150.9918 113.8827
" />
<path d="M150.9918 113.5970
L149.9918 113.5970
" />
<path d="M149.9918 113.5970
L150.1347 113.6922
" />
<path d="M150.1347 113.6922
L150.2299 113.7875
" />
<path d="M150.2299 113.7875
L150.2775 113.8827
" />
</g></g>
<g style="fill:none; 
stroke:#000000; stroke-width:0.1000; stroke-opacity:1; 
stroke-linecap:round; stroke-linejoin:round;">
<path d="M143.4995 113.1240
L149.0864 113.1240
" />
<path d="M149.0864 114.1000
L144.5000 114.1000
" />
<path d="M148.5000 113.1240
L148.5000 114.1000
" />
<path d="M148.5000 113.1240
L149.0864 114.2505
" />
<path d="M148.5000 113.1240
L147.9136 114.2505
" />
<path d="M148.5000 114.1000
L147.9136 112.9735
" />
<path d="M148.5000 114.1000
L149.0864 112.9735
" />
</g>
<g style="fill:none; 
stroke:#000000; stroke-width:0.1500; stroke-opacity:1; 
stroke-linecap:round; stroke-linejoin:round;">
<text x="141.3320" y="119.6970"
textLength="2.6310" font-size="1.3333" lengthAdjust="spacingAndGlyphs"
text-anchor="middle" opacity="0" stroke-opacity="0">3.4</text>
<g class="stroked-text"><desc>3.4</desc>
<path d="M140.2844 118.6518
L140.9034 118.6518
" />
<path d="M140.9034 118.6518
L140.5701 119.0328
" />
<path d="M140.5701 119.0328
L140.7130 119.0328
" />
<path d="M140.7130 119.0328
L140.8082 119.0804
" />
<path d="M140.8082 119.0804
L140.8558 119.1280
" />
<path d="M140.8558 119.1280
L140.9034 119.2232
" />
<path d="M140.9034 119.2232
L140.9034 119.4613
" />
<path d="M140.9034 119.4613
L140.8558 119.5566
" />
<path d="M140.8558 119.5566
L140.8082 119.6042
" />
<path d="M140.8082 119.6042
L140.7130 119.6518
" />
<path d="M140.7130 119.6518
L140.4272 119.6518
" />
<path d="M140.4272 119.6518
L140.3320 119.6042
" />
<path d="M140.3320 119.6042
L140.2844 119.5566
" />
<path d="M141.3320 119.5566
L141.3796 119.6042
" />
<path d="M141.3796 119.6042
L141.3320 119.6518
" />
<path d="M141.3320 119.6518
L141.2844 119.6042
" />
<path d="M141.2844 119.6042
L141.3320 119.5566
" />
<path d="M141.3320 119.5566
L141.3320 119.6518
" />
<path d="M142.2368 118.9852
L142.2368 119.6518
" />
<path d="M141.9987 118.6042
L141.7606 119.3185
" />
<path d="M141.7606 119.3185
L142.3796 119.3185
" />
</g></g>
<g style="fill:none; 
stroke:#000000; stroke-width:0.1000; stroke-opacity:1; 
stroke-linecap:round; stroke-linejoin:round;">
<path d="M142.9995 113.6240
L142.9995 118.2584
" />
<path d="M139.5995 118.2584
L139.5995 113.6240
" />
<path d="M142.9995 117.6720
L139.5995 117.6720
" />
<path d="M142.9995 117.6720
L141.8730 118.2584
" />
<path d="M142.9995 117.6720
L141.8730 117.0856
" />
<path d="M139.5995 117.6720
L140.7261 117.0856
" />
<path d="M139.5995 117.6720
L140.7261 118.2584
" />
</g>
<g style="fill:none; 
stroke:#000000; stroke-width:0.1500; stroke-opacity:1; 
stroke-linecap:round; stroke-linejoin:round;">
<g transform="rotate(-90.000000 149.2940 94.0750)">
<text x="149.2940" y="94.5750"
textLength="1.2024" font-size="1.3333" lengthAdjust="spacingAndGlyphs"
text-anchor="middle" opacity="0" stroke-opacity="0">2</text>
</g>
<g class="stroked-text"><desc>2</desc>
<path d="M148.8441 94.3607
L148.7964 94.3131
" />
<path d="M148.7964 94.3131
L148.7488 94.2179
" />
<path d="M148.7488 94.2179
L148.7488 93.9798
" />
<path d="M148.7488 93.9798
L148.7964 93.8845
" />
<path d="M148.7964 93.8845
L148.8441 93.8369
" />
<path d="M148.8441 93.8369
L148.9393 93.7893
" />
<path d="M148.9393 93.7893
L149.0345 93.7893
" />
<path d="M149.0345 93.7893
L149.1774 93.8369
" />
<path d="M149.1774 93.8369
L149.7488 94.4083
" />
<path d="M149.7488 94.4083
L149.7488 93.7893
" />
</g></g>
<g style="fill:none; 
stroke:#000000; stroke-width:0.1000; stroke-opacity:1; 
stroke-linecap:round; stroke-linejoin:round;">
<path d="M143.9995 93.1100
L148.2964 93.1100
" />
<path d="M148.2964 95.1100
L143.9995 95.1100
" />
<path d="M147.7100 93.1100
L147.7100 95.1100
" />
<path d="M147.7100 93.1100
L148.2964 94.2365
" />
<path d="M147.7100 93.1100
L147.1236 94.2365
" />
<path d="M147.7100 95.1100
L147.1236 93.9835
" />
<path d="M147.7100 95.1100
L148.2964 93.9835
" />
</g> 
</svg>
