<?xml version="1.0" standalone="no"?>
 <!DOCTYPE svg PUBLIC "-//W3C//DTD SVG 1.1//EN" 
 "http://www.w3.org/Graphics/SVG/1.1/DTD/svg11.dtd"> 
<svg
  xmlns:svg="http://www.w3.org/2000/svg"
  xmlns="http://www.w3.org/2000/svg"
  xmlns:xlink="http://www.w3.org/1999/xlink"
  xmlns:inkscape="http://www.inkscape.org/namespaces/inkscape"
  version="1.1"
  width="297.0022mm" height="210.0072mm" viewBox="0.0000 0.0000 297.0022 210.0072">
<title>SVG Image created as 4x4-F_Fab0.svg date 2026-06-30T15:28:54 </title>
  <desc>Image generated by PCBNEW </desc>
<g style="fill:#000000; fill-opacity:1.0000;stroke:#000000; stroke-opacity:1.0000;
stroke-linecap:round; stroke-linejoin:round;"
 transform="translate(0 0) scale(1 1)">
</g>
<g style="fill:none; 
stroke:#000000; stroke-width:0.1500; stroke-opacity:1; 
stroke-linecap:round; stroke-linejoin:round;">
<text x="132.1500" y="100.0500"
textLength="2.1548" font-size="1.3333" lengthAdjust="spacingAndGlyphs"
text-anchor="middle" opacity="0" stroke-opacity="0">X5</text>
<g class="stroked-text"><desc>X5</desc>
<path d="M131.3405 99.0048
L132.0071 100.0048
" />
<path d="M132.0071 99.0048
L131.3405 100.0048
" />
<path d="M132.8643 99.0048
L132.3881 99.0048
" />
<path d="M132.3881 99.0048
L132.3405 99.4810
" />
<path d="M132.3405 99.4810
L132.3881 99.4334
" />
<path d="M132.3881 99.4334
L132.4833 99.3858
" />
<path d="M132.4833 99.3858
L132.7214 99.3858
" />
<path d="M132.7214 99.3858
L132.8167 99.4334
" />
<path d="M132.8167 99.4334
L132.8643 99.4810
" />
<path d="M132.8643 99.4810
L132.9119 99.5762
" />
<path d="M132.9119 99.5762
L132.9119 99.8143
" />
<path d="M132.9119 99.8143
L132.8643 99.9096
" />
<path d="M132.8643 99.9096
L132.8167 99.9572
" />
<path d="M132.8167 99.9572
L132.7214 100.0048
" />
<path d="M132.7214 100.0048
L132.4833 100.0048
" />
<path d="M132.4833 100.0048
L132.3881 99.9572
" />
<path d="M132.3881 99.9572
L132.3405 99.9096
" />
</g><text x="127.4500" y="104.7500"
textLength="2.1548" font-size="1.3333" lengthAdjust="spacingAndGlyphs"
text-anchor="middle" opacity="0" stroke-opacity="0">X2</text>
<g class="stroked-text"><desc>X2</desc>
<path d="M126.6405 103.7048
L127.3071 104.7048
" />
<path d="M127.3071 103.7048
L126.6405 104.7048
" />
<path d="M127.6405 103.8001
L127.6881 103.7524
" />
<path d="M127.6881 103.7524
L127.7833 103.7048
" />
<path d="M127.7833 103.7048
L128.0214 103.7048
" />
<path d="M128.0214 103.7048
L128.1167 103.7524
" />
<path d="M128.1167 103.7524
L128.1643 103.8001
" />
<path d="M128.1643 103.8001
L128.2119 103.8953
" />
<path d="M128.2119 103.8953
L128.2119 103.9905
" />
<path d="M128.2119 103.9905
L128.1643 104.1334
" />
<path d="M128.1643 104.1334
L127.5929 104.7048
" />
<path d="M127.5929 104.7048
L128.2119 104.7048
" />
</g><text x="141.5500" y="104.7500"
textLength="3.1071" font-size="1.3333" lengthAdjust="spacingAndGlyphs"
text-anchor="middle" opacity="0" stroke-opacity="0">X14</text>
<g class="stroked-text"><desc>X14</desc>
<path d="M140.2643 103.7048
L140.9310 104.7048
" />
<path d="M140.9310 103.7048
L140.2643 104.7048
" />
<path d="M141.8357 104.7048
L141.2643 104.7048
" />
<path d="M141.5500 104.7048
L141.5500 103.7048
" />
<path d="M141.5500 103.7048
L141.4548 103.8477
" />
<path d="M141.4548 103.8477
L141.3595 103.9429
" />
<path d="M141.3595 103.9429
L141.2643 103.9905
" />
<path d="M142.6929 104.0382
L142.6929 104.7048
" />
<path d="M142.4548 103.6572
L142.2167 104.3715
" />
<path d="M142.2167 104.3715
L142.8357 104.3715
" />
</g><text x="124.3850" y="96.6450"
textLength="23.9643" font-size="1.3333" lengthAdjust="spacingAndGlyphs"
text-anchor="middle" opacity="0" stroke-opacity="0">Amphenol-ICC_Minitek-08_10P</text>
<g class="stroked-text"><desc>Amphenol-ICC_Minitek-08_10P</desc>
<path d="M112.7183 96.3141
L113.1945 96.3141
" />
<path d="M112.6231 96.5998
L112.9564 95.5998
" />
<path d="M112.9564 95.5998
L113.2898 96.5998
" />
<path d="M113.6231 96.5998
L113.6231 95.9332
" />
<path d="M113.6231 96.0284
L113.6707 95.9808
" />
<path d="M113.6707 95.9808
L113.7660 95.9332
" />
<path d="M113.7660 95.9332
L113.9088 95.9332
" />
<path d="M113.9088 95.9332
L114.0040 95.9808
" />
<path d="M114.0040 95.9808
L114.0517 96.0760
" />
<path d="M114.0517 96.0760
L114.0517 96.5998
" />
<path d="M114.0517 96.0760
L114.0993 95.9808
" />
<path d="M114.0993 95.9808
L114.1945 95.9332
" />
<path d="M114.1945 95.9332
L114.3374 95.9332
" />
<path d="M114.3374 95.9332
L114.4326 95.9808
" />
<path d="M114.4326 95.9808
L114.4802 96.0760
" />
<path d="M114.4802 96.0760
L114.4802 96.5998
" />
<path d="M114.9564 95.9332
L114.9564 96.9332
" />
<path d="M114.9564 95.9808
L115.0517 95.9332
" />
<path d="M115.0517 95.9332
L115.2421 95.9332
" />
<path d="M115.2421 95.9332
L115.3374 95.9808
" />
<path d="M115.3374 95.9808
L115.3850 96.0284
" />
<path d="M115.3850 96.0284
L115.4326 96.1236
" />
<path d="M115.4326 96.1236
L115.4326 96.4093
" />
<path d="M115.4326 96.4093
L115.3850 96.5046
" />
<path d="M115.3850 96.5046
L115.3374 96.5522
" />
<path d="M115.3374 96.5522
L115.2421 96.5998
" />
<path d="M115.2421 96.5998
L115.0517 96.5998
" />
<path d="M115.0517 96.5998
L114.9564 96.5522
" />
<path d="M115.8612 96.5998
L115.8612 95.5998
" />
<path d="M116.2898 96.5998
L116.2898 96.0760
" />
<path d="M116.2898 96.0760
L116.2421 95.9808
" />
<path d="M116.2421 95.9808
L116.1469 95.9332
" />
<path d="M116.1469 95.9332
L116.0040 95.9332
" />
<path d="M116.0040 95.9332
L115.9088 95.9808
" />
<path d="M115.9088 95.9808
L115.8612 96.0284
" />
<path d="M117.1469 96.5522
L117.0517 96.5998
" />
<path d="M117.0517 96.5998
L116.8612 96.5998
" />
<path d="M116.8612 96.5998
L116.7660 96.5522
" />
<path d="M116.7660 96.5522
L116.7183 96.4570
" />
<path d="M116.7183 96.4570
L116.7183 96.0760
" />
<path d="M116.7183 96.0760
L116.7660 95.9808
" />
<path d="M116.7660 95.9808
L116.8612 95.9332
" />
<path d="M116.8612 95.9332
L117.0517 95.9332
" />
<path d="M117.0517 95.9332
L117.1469 95.9808
" />
<path d="M117.1469 95.9808
L117.1945 96.0760
" />
<path d="M117.1945 96.0760
L117.1945 96.1712
" />
<path d="M117.1945 96.1712
L116.7183 96.2665
" />
<path d="M117.6231 95.9332
L117.6231 96.5998
" />
<path d="M117.6231 96.0284
L117.6707 95.9808
" />
<path d="M117.6707 95.9808
L117.7660 95.9332
" />
<path d="M117.7660 95.9332
L117.9088 95.9332
" />
<path d="M117.9088 95.9332
L118.0040 95.9808
" />
<path d="M118.0040 95.9808
L118.0517 96.0760
" />
<path d="M118.0517 96.0760
L118.0517 96.5998
" />
<path d="M118.6707 96.5998
L118.5755 96.5522
" />
<path d="M118.5755 96.5522
L118.5279 96.5046
" />
<path d="M118.5279 96.5046
L118.4802 96.4093
" />
<path d="M118.4802 96.4093
L118.4802 96.1236
" />
<path d="M118.4802 96.1236
L118.5279 96.0284
" />
<path d="M118.5279 96.0284
L118.5755 95.9808
" />
<path d="M118.5755 95.9808
L118.6707 95.9332
" />
<path d="M118.6707 95.9332
L118.8136 95.9332
" />
<path d="M118.8136 95.9332
L118.9088 95.9808
" />
<path d="M118.9088 95.9808
L118.9564 96.0284
" />
<path d="M118.9564 96.0284
L119.0040 96.1236
" />
<path d="M119.0040 96.1236
L119.0040 96.4093
" />
<path d="M119.0040 96.4093
L118.9564 96.5046
" />
<path d="M118.9564 96.5046
L118.9088 96.5522
" />
<path d="M118.9088 96.5522
L118.8136 96.5998
" />
<path d="M118.8136 96.5998
L118.6707 96.5998
" />
<path d="M119.5755 96.5998
L119.4802 96.5522
" />
<path d="M119.4802 96.5522
L119.4326 96.4570
" />
<path d="M119.4326 96.4570
L119.4326 95.5998
" />
<path d="M119.9564 96.2189
L120.7183 96.2189
" />
<path d="M121.1945 96.5998
L121.1945 95.5998
" />
<path d="M122.2421 96.5046
L122.1945 96.5522
" />
<path d="M122.1945 96.5522
L122.0517 96.5998
" />
<path d="M122.0517 96.5998
L121.9564 96.5998
" />
<path d="M121.9564 96.5998
L121.8136 96.5522
" />
<path d="M121.8136 96.5522
L121.7183 96.4570
" />
<path d="M121.7183 96.4570
L121.6707 96.3617
" />
<path d="M121.6707 96.3617
L121.6231 96.1712
" />
<path d="M121.6231 96.1712
L121.6231 96.0284
" />
<path d="M121.6231 96.0284
L121.6707 95.8379
" />
<path d="M121.6707 95.8379
L121.7183 95.7427
" />
<path d="M121.7183 95.7427
L121.8136 95.6474
" />
<path d="M121.8136 95.6474
L121.9564 95.5998
" />
<path d="M121.9564 95.5998
L122.0517 95.5998
" />
<path d="M122.0517 95.5998
L122.1945 95.6474
" />
<path d="M122.1945 95.6474
L122.2421 95.6951
" />
<path d="M123.2421 96.5046
L123.1945 96.5522
" />
<path d="M123.1945 96.5522
L123.0517 96.5998
" />
<path d="M123.0517 96.5998
L122.9564 96.5998
" />
<path d="M122.9564 96.5998
L122.8136 96.5522
" />
<path d="M122.8136 96.5522
L122.7183 96.4570
" />
<path d="M122.7183 96.4570
L122.6707 96.3617
" />
<path d="M122.6707 96.3617
L122.6231 96.1712
" />
<path d="M122.6231 96.1712
L122.6231 96.0284
" />
<path d="M122.6231 96.0284
L122.6707 95.8379
" />
<path d="M122.6707 95.8379
L122.7183 95.7427
" />
<path d="M122.7183 95.7427
L122.8136 95.6474
" />
<path d="M122.8136 95.6474
L122.9564 95.5998
" />
<path d="M122.9564 95.5998
L123.0517 95.5998
" />
<path d="M123.0517 95.5998
L123.1945 95.6474
" />
<path d="M123.1945 95.6474
L123.2421 95.6951
" />
<path d="M123.4326 96.6951
L124.1945 96.6951
" />
<path d="M124.4326 96.5998
L124.4326 95.5998
" />
<path d="M124.4326 95.5998
L124.7660 96.3141
" />
<path d="M124.7660 96.3141
L125.0993 95.5998
" />
<path d="M125.0993 95.5998
L125.0993 96.5998
" />
<path d="M125.5755 96.5998
L125.5755 95.9332
" />
<path d="M125.5755 95.5998
L125.5279 95.6474
" />
<path d="M125.5279 95.6474
L125.5755 95.6951
" />
<path d="M125.5755 95.6951
L125.6231 95.6474
" />
<path d="M125.6231 95.6474
L125.5755 95.5998
" />
<path d="M125.5755 95.5998
L125.5755 95.6951
" />
<path d="M126.0517 95.9332
L126.0517 96.5998
" />
<path d="M126.0517 96.0284
L126.0993 95.9808
" />
<path d="M126.0993 95.9808
L126.1945 95.9332
" />
<path d="M126.1945 95.9332
L126.3374 95.9332
" />
<path d="M126.3374 95.9332
L126.4326 95.9808
" />
<path d="M126.4326 95.9808
L126.4802 96.0760
" />
<path d="M126.4802 96.0760
L126.4802 96.5998
" />
<path d="M126.9564 96.5998
L126.9564 95.9332
" />
<path d="M126.9564 95.5998
L126.9088 95.6474
" />
<path d="M126.9088 95.6474
L126.9564 95.6951
" />
<path d="M126.9564 95.6951
L127.0040 95.6474
" />
<path d="M127.0040 95.6474
L126.9564 95.5998
" />
<path d="M126.9564 95.5998
L126.9564 95.6951
" />
<path d="M127.2898 95.9332
L127.6707 95.9332
" />
<path d="M127.4326 95.5998
L127.4326 96.4570
" />
<path d="M127.4326 96.4570
L127.4802 96.5522
" />
<path d="M127.4802 96.5522
L127.5755 96.5998
" />
<path d="M127.5755 96.5998
L127.6707 96.5998
" />
<path d="M128.3850 96.5522
L128.2898 96.5998
" />
<path d="M128.2898 96.5998
L128.0993 96.5998
" />
<path d="M128.0993 96.5998
L128.0040 96.5522
" />
<path d="M128.0040 96.5522
L127.9564 96.4570
" />
<path d="M127.9564 96.4570
L127.9564 96.0760
" />
<path d="M127.9564 96.0760
L128.0040 95.9808
" />
<path d="M128.0040 95.9808
L128.0993 95.9332
" />
<path d="M128.0993 95.9332
L128.2898 95.9332
" />
<path d="M128.2898 95.9332
L128.3850 95.9808
" />
<path d="M128.3850 95.9808
L128.4326 96.0760
" />
<path d="M128.4326 96.0760
L128.4326 96.1712
" />
<path d="M128.4326 96.1712
L127.9564 96.2665
" />
<path d="M128.8612 96.5998
L128.8612 95.5998
" />
<path d="M128.9564 96.2189
L129.2421 96.5998
" />
<path d="M129.2421 95.9332
L128.8612 96.3141
" />
<path d="M129.6707 96.2189
L130.4326 96.2189
" />
<path d="M131.0993 95.5998
L131.1945 95.5998
" />
<path d="M131.1945 95.5998
L131.2898 95.6474
" />
<path d="M131.2898 95.6474
L131.3374 95.6951
" />
<path d="M131.3374 95.6951
L131.3850 95.7903
" />
<path d="M131.3850 95.7903
L131.4326 95.9808
" />
<path d="M131.4326 95.9808
L131.4326 96.2189
" />
<path d="M131.4326 96.2189
L131.3850 96.4093
" />
<path d="M131.3850 96.4093
L131.3374 96.5046
" />
<path d="M131.3374 96.5046
L131.2898 96.5522
" />
<path d="M131.2898 96.5522
L131.1945 96.5998
" />
<path d="M131.1945 96.5998
L131.0993 96.5998
" />
<path d="M131.0993 96.5998
L131.0040 96.5522
" />
<path d="M131.0040 96.5522
L130.9564 96.5046
" />
<path d="M130.9564 96.5046
L130.9088 96.4093
" />
<path d="M130.9088 96.4093
L130.8612 96.2189
" />
<path d="M130.8612 96.2189
L130.8612 95.9808
" />
<path d="M130.8612 95.9808
L130.9088 95.7903
" />
<path d="M130.9088 95.7903
L130.9564 95.6951
" />
<path d="M130.9564 95.6951
L131.0040 95.6474
" />
<path d="M131.0040 95.6474
L131.0993 95.5998
" />
<path d="M132.0040 96.0284
L131.9088 95.9808
" />
<path d="M131.9088 95.9808
L131.8612 95.9332
" />
<path d="M131.8612 95.9332
L131.8136 95.8379
" />
<path d="M131.8136 95.8379
L131.8136 95.7903
" />
<path d="M131.8136 95.7903
L131.8612 95.6951
" />
<path d="M131.8612 95.6951
L131.9088 95.6474
" />
<path d="M131.9088 95.6474
L132.0040 95.5998
" />
<path d="M132.0040 95.5998
L132.1945 95.5998
" />
<path d="M132.1945 95.5998
L132.2898 95.6474
" />
<path d="M132.2898 95.6474
L132.3374 95.6951
" />
<path d="M132.3374 95.6951
L132.3850 95.7903
" />
<path d="M132.3850 95.7903
L132.3850 95.8379
" />
<path d="M132.3850 95.8379
L132.3374 95.9332
" />
<path d="M132.3374 95.9332
L132.2898 95.9808
" />
<path d="M132.2898 95.9808
L132.1945 96.0284
" />
<path d="M132.1945 96.0284
L132.0040 96.0284
" />
<path d="M132.0040 96.0284
L131.9088 96.0760
" />
<path d="M131.9088 96.0760
L131.8612 96.1236
" />
<path d="M131.8612 96.1236
L131.8136 96.2189
" />
<path d="M131.8136 96.2189
L131.8136 96.4093
" />
<path d="M131.8136 96.4093
L131.8612 96.5046
" />
<path d="M131.8612 96.5046
L131.9088 96.5522
" />
<path d="M131.9088 96.5522
L132.0040 96.5998
" />
<path d="M132.0040 96.5998
L132.1945 96.5998
" />
<path d="M132.1945 96.5998
L132.2898 96.5522
" />
<path d="M132.2898 96.5522
L132.3374 96.5046
" />
<path d="M132.3374 96.5046
L132.3850 96.4093
" />
<path d="M132.3850 96.4093
L132.3850 96.2189
" />
<path d="M132.3850 96.2189
L132.3374 96.1236
" />
<path d="M132.3374 96.1236
L132.2898 96.0760
" />
<path d="M132.2898 96.0760
L132.1945 96.0284
" />
<path d="M132.5755 96.6951
L133.3374 96.6951
" />
<path d="M134.0993 96.5998
L133.5279 96.5998
" />
<path d="M133.8136 96.5998
L133.8136 95.5998
" />
<path d="M133.8136 95.5998
L133.7183 95.7427
" />
<path d="M133.7183 95.7427
L133.6231 95.8379
" />
<path d="M133.6231 95.8379
L133.5279 95.8855
" />
<path d="M134.7183 95.5998
L134.8136 95.5998
" />
<path d="M134.8136 95.5998
L134.9088 95.6474
" />
<path d="M134.9088 95.6474
L134.9564 95.6951
" />
<path d="M134.9564 95.6951
L135.0040 95.7903
" />
<path d="M135.0040 95.7903
L135.0517 95.9808
" />
<path d="M135.0517 95.9808
L135.0517 96.2189
" />
<path d="M135.0517 96.2189
L135.0040 96.4093
" />
<path d="M135.0040 96.4093
L134.9564 96.5046
" />
<path d="M134.9564 96.5046
L134.9088 96.5522
" />
<path d="M134.9088 96.5522
L134.8136 96.5998
" />
<path d="M134.8136 96.5998
L134.7183 96.5998
" />
<path d="M134.7183 96.5998
L134.6231 96.5522
" />
<path d="M134.6231 96.5522
L134.5755 96.5046
" />
<path d="M134.5755 96.5046
L134.5279 96.4093
" />
<path d="M134.5279 96.4093
L134.4802 96.2189
" />
<path d="M134.4802 96.2189
L134.4802 95.9808
" />
<path d="M134.4802 95.9808
L134.5279 95.7903
" />
<path d="M134.5279 95.7903
L134.5755 95.6951
" />
<path d="M134.5755 95.6951
L134.6231 95.6474
" />
<path d="M134.6231 95.6474
L134.7183 95.5998
" />
<path d="M135.4802 96.5998
L135.4802 95.5998
" />
<path d="M135.4802 95.5998
L135.8612 95.5998
" />
<path d="M135.8612 95.5998
L135.9564 95.6474
" />
<path d="M135.9564 95.6474
L136.0040 95.6951
" />
<path d="M136.0040 95.6951
L136.0517 95.7903
" />
<path d="M136.0517 95.7903
L136.0517 95.9332
" />
<path d="M136.0517 95.9332
L136.0040 96.0284
" />
<path d="M136.0040 96.0284
L135.9564 96.0760
" />
<path d="M135.9564 96.0760
L135.8612 96.1236
" />
<path d="M135.8612 96.1236
L135.4802 96.1236
" />
</g><text x="132.1500" y="104.6000"
textLength="2.1548" font-size="1.3333" lengthAdjust="spacingAndGlyphs"
text-anchor="middle" opacity="0" stroke-opacity="0">X6</text>
<g class="stroked-text"><desc>X6</desc>
<path d="M131.3405 103.5548
L132.0071 104.5548
" />
<path d="M132.0071 103.5548
L131.3405 104.5548
" />
<path d="M132.8167 103.5548
L132.6262 103.5548
" />
<path d="M132.6262 103.5548
L132.5310 103.6024
" />
<path d="M132.5310 103.6024
L132.4833 103.6501
" />
<path d="M132.4833 103.6501
L132.3881 103.7929
" />
<path d="M132.3881 103.7929
L132.3405 103.9834
" />
<path d="M132.3405 103.9834
L132.3405 104.3643
" />
<path d="M132.3405 104.3643
L132.3881 104.4596
" />
<path d="M132.3881 104.4596
L132.4357 104.5072
" />
<path d="M132.4357 104.5072
L132.5310 104.5548
" />
<path d="M132.5310 104.5548
L132.7214 104.5548
" />
<path d="M132.7214 104.5548
L132.8167 104.5072
" />
<path d="M132.8167 104.5072
L132.8643 104.4596
" />
<path d="M132.8643 104.4596
L132.9119 104.3643
" />
<path d="M132.9119 104.3643
L132.9119 104.1262
" />
<path d="M132.9119 104.1262
L132.8643 104.0310
" />
<path d="M132.8643 104.0310
L132.8167 103.9834
" />
<path d="M132.8167 103.9834
L132.7214 103.9358
" />
<path d="M132.7214 103.9358
L132.5310 103.9358
" />
<path d="M132.5310 103.9358
L132.4357 103.9834
" />
<path d="M132.4357 103.9834
L132.3881 104.0310
" />
<path d="M132.3881 104.0310
L132.3405 104.1262
" />
</g><text x="127.4500" y="100.0500"
textLength="2.1548" font-size="1.3333" lengthAdjust="spacingAndGlyphs"
text-anchor="middle" opacity="0" stroke-opacity="0">X1</text>
<g class="stroked-text"><desc>X1</desc>
<path d="M126.6405 99.0048
L127.3071 100.0048
" />
<path d="M127.3071 99.0048
L126.6405 100.0048
" />
<path d="M128.2119 100.0048
L127.6405 100.0048
" />
<path d="M127.9262 100.0048
L127.9262 99.0048
" />
<path d="M127.9262 99.0048
L127.8310 99.1477
" />
<path d="M127.8310 99.1477
L127.7357 99.2429
" />
<path d="M127.7357 99.2429
L127.6405 99.2905
" />
</g><text x="127.4500" y="109.4500"
textLength="2.1548" font-size="1.3333" lengthAdjust="spacingAndGlyphs"
text-anchor="middle" opacity="0" stroke-opacity="0">X3</text>
<g class="stroked-text"><desc>X3</desc>
<path d="M126.6405 108.4048
L127.3071 109.4048
" />
<path d="M127.3071 108.4048
L126.6405 109.4048
" />
<path d="M127.5929 108.4048
L128.2119 108.4048
" />
<path d="M128.2119 108.4048
L127.8786 108.7858
" />
<path d="M127.8786 108.7858
L128.0214 108.7858
" />
<path d="M128.0214 108.7858
L128.1167 108.8334
" />
<path d="M128.1167 108.8334
L128.1643 108.8810
" />
<path d="M128.1643 108.8810
L128.2119 108.9762
" />
<path d="M128.2119 108.9762
L128.2119 109.2143
" />
<path d="M128.2119 109.2143
L128.1643 109.3096
" />
<path d="M128.1643 109.3096
L128.1167 109.3572
" />
<path d="M128.1167 109.3572
L128.0214 109.4048
" />
<path d="M128.0214 109.4048
L127.7357 109.4048
" />
<path d="M127.7357 109.4048
L127.6405 109.3572
" />
<path d="M127.6405 109.3572
L127.5929 109.3096
" />
</g><text x="136.8500" y="109.4500"
textLength="3.1071" font-size="1.3333" lengthAdjust="spacingAndGlyphs"
text-anchor="middle" opacity="0" stroke-opacity="0">X11</text>
<g class="stroked-text"><desc>X11</desc>
<path d="M135.5643 108.4048
L136.2310 109.4048
" />
<path d="M136.2310 108.4048
L135.5643 109.4048
" />
<path d="M137.1357 109.4048
L136.5643 109.4048
" />
<path d="M136.8500 109.4048
L136.8500 108.4048
" />
<path d="M136.8500 108.4048
L136.7548 108.5477
" />
<path d="M136.7548 108.5477
L136.6595 108.6429
" />
<path d="M136.6595 108.6429
L136.5643 108.6905
" />
<path d="M138.0881 109.4048
L137.5167 109.4048
" />
<path d="M137.8024 109.4048
L137.8024 108.4048
" />
<path d="M137.8024 108.4048
L137.7071 108.5477
" />
<path d="M137.7071 108.5477
L137.6119 108.6429
" />
<path d="M137.6119 108.6429
L137.5167 108.6905
" />
</g><text x="141.5500" y="109.4500"
textLength="3.1071" font-size="1.3333" lengthAdjust="spacingAndGlyphs"
text-anchor="middle" opacity="0" stroke-opacity="0">X15</text>
<g class="stroked-text"><desc>X15</desc>
<path d="M140.2643 108.4048
L140.9310 109.4048
" />
<path d="M140.9310 108.4048
L140.2643 109.4048
" />
<path d="M141.8357 109.4048
L141.2643 109.4048
" />
<path d="M141.5500 109.4048
L141.5500 108.4048
" />
<path d="M141.5500 108.4048
L141.4548 108.5477
" />
<path d="M141.4548 108.5477
L141.3595 108.6429
" />
<path d="M141.3595 108.6429
L141.2643 108.6905
" />
<path d="M142.7405 108.4048
L142.2643 108.4048
" />
<path d="M142.2643 108.4048
L142.2167 108.8810
" />
<path d="M142.2167 108.8810
L142.2643 108.8334
" />
<path d="M142.2643 108.8334
L142.3595 108.7858
" />
<path d="M142.3595 108.7858
L142.5976 108.7858
" />
<path d="M142.5976 108.7858
L142.6929 108.8334
" />
<path d="M142.6929 108.8334
L142.7405 108.8810
" />
<path d="M142.7405 108.8810
L142.7881 108.9762
" />
<path d="M142.7881 108.9762
L142.7881 109.2143
" />
<path d="M142.7881 109.2143
L142.7405 109.3096
" />
<path d="M142.7405 109.3096
L142.6929 109.3572
" />
<path d="M142.6929 109.3572
L142.5976 109.4048
" />
<path d="M142.5976 109.4048
L142.3595 109.4048
" />
<path d="M142.3595 109.4048
L142.2643 109.3572
" />
<path d="M142.2643 109.3572
L142.2167 109.3096
" />
</g><text x="141.5500" y="114.1500"
textLength="3.1071" font-size="1.3333" lengthAdjust="spacingAndGlyphs"
text-anchor="middle" opacity="0" stroke-opacity="0">X16</text>
<g class="stroked-text"><desc>X16</desc>
<path d="M140.2643 113.1048
L140.9310 114.1048
" />
<path d="M140.9310 113.1048
L140.2643 114.1048
" />
<path d="M141.8357 114.1048
L141.2643 114.1048
" />
<path d="M141.5500 114.1048
L141.5500 113.1048
" />
<path d="M141.5500 113.1048
L141.4548 113.2477
" />
<path d="M141.4548 113.2477
L141.3595 113.3429
" />
<path d="M141.3595 113.3429
L141.2643 113.3905
" />
<path d="M142.6929 113.1048
L142.5024 113.1048
" />
<path d="M142.5024 113.1048
L142.4071 113.1524
" />
<path d="M142.4071 113.1524
L142.3595 113.2001
" />
<path d="M142.3595 113.2001
L142.2643 113.3429
" />
<path d="M142.2643 113.3429
L142.2167 113.5334
" />
<path d="M142.2167 113.5334
L142.2167 113.9143
" />
<path d="M142.2167 113.9143
L142.2643 114.0096
" />
<path d="M142.2643 114.0096
L142.3119 114.0572
" />
<path d="M142.3119 114.0572
L142.4071 114.1048
" />
<path d="M142.4071 114.1048
L142.5976 114.1048
" />
<path d="M142.5976 114.1048
L142.6929 114.0572
" />
<path d="M142.6929 114.0572
L142.7405 114.0096
" />
<path d="M142.7405 114.0096
L142.7881 113.9143
" />
<path d="M142.7881 113.9143
L142.7881 113.6762
" />
<path d="M142.7881 113.6762
L142.7405 113.5810
" />
<path d="M142.7405 113.5810
L142.6929 113.5334
" />
<path d="M142.6929 113.5334
L142.5976 113.4858
" />
<path d="M142.5976 113.4858
L142.4071 113.4858
" />
<path d="M142.4071 113.4858
L142.3119 113.5334
" />
<path d="M142.3119 113.5334
L142.2643 113.5810
" />
<path d="M142.2643 113.5810
L142.2167 113.6762
" />
</g><text x="136.8500" y="104.7500"
textLength="3.1071" font-size="1.3333" lengthAdjust="spacingAndGlyphs"
text-anchor="middle" opacity="0" stroke-opacity="0">X10</text>
<g class="stroked-text"><desc>X10</desc>
<path d="M135.5643 103.7048
L136.2310 104.7048
" />
<path d="M136.2310 103.7048
L135.5643 104.7048
" />
<path d="M137.1357 104.7048
L136.5643 104.7048
" />
<path d="M136.8500 104.7048
L136.8500 103.7048
" />
<path d="M136.8500 103.7048
L136.7548 103.8477
" />
<path d="M136.7548 103.8477
L136.6595 103.9429
" />
<path d="M136.6595 103.9429
L136.5643 103.9905
" />
<path d="M137.7548 103.7048
L137.8500 103.7048
" />
<path d="M137.8500 103.7048
L137.9452 103.7524
" />
<path d="M137.9452 103.7524
L137.9929 103.8001
" />
<path d="M137.9929 103.8001
L138.0405 103.8953
" />
<path d="M138.0405 103.8953
L138.0881 104.0858
" />
<path d="M138.0881 104.0858
L138.0881 104.3239
" />
<path d="M138.0881 104.3239
L138.0405 104.5143
" />
<path d="M138.0405 104.5143
L137.9929 104.6096
" />
<path d="M137.9929 104.6096
L137.9452 104.6572
" />
<path d="M137.9452 104.6572
L137.8500 104.7048
" />
<path d="M137.8500 104.7048
L137.7548 104.7048
" />
<path d="M137.7548 104.7048
L137.6595 104.6572
" />
<path d="M137.6595 104.6572
L137.6119 104.6096
" />
<path d="M137.6119 104.6096
L137.5643 104.5143
" />
<path d="M137.5643 104.5143
L137.5167 104.3239
" />
<path d="M137.5167 104.3239
L137.5167 104.0858
" />
<path d="M137.5167 104.0858
L137.5643 103.8953
" />
<path d="M137.5643 103.8953
L137.6119 103.8001
" />
<path d="M137.6119 103.8001
L137.6595 103.7524
" />
<path d="M137.6595 103.7524
L137.7548 103.7048
" />
</g><text x="141.5500" y="100.0500"
textLength="3.1071" font-size="1.3333" lengthAdjust="spacingAndGlyphs"
text-anchor="middle" opacity="0" stroke-opacity="0">X13</text>
<g class="stroked-text"><desc>X13</desc>
<path d="M140.2643 99.0048
L140.9310 100.0048
" />
<path d="M140.9310 99.0048
L140.2643 100.0048
" />
<path d="M141.8357 100.0048
L141.2643 100.0048
" />
<path d="M141.5500 100.0048
L141.5500 99.0048
" />
<path d="M141.5500 99.0048
L141.4548 99.1477
" />
<path d="M141.4548 99.1477
L141.3595 99.2429
" />
<path d="M141.3595 99.2429
L141.2643 99.2905
" />
<path d="M142.1690 99.0048
L142.7881 99.0048
" />
<path d="M142.7881 99.0048
L142.4548 99.3858
" />
<path d="M142.4548 99.3858
L142.5976 99.3858
" />
<path d="M142.5976 99.3858
L142.6929 99.4334
" />
<path d="M142.6929 99.4334
L142.7405 99.4810
" />
<path d="M142.7405 99.4810
L142.7881 99.5762
" />
<path d="M142.7881 99.5762
L142.7881 99.8143
" />
<path d="M142.7881 99.8143
L142.7405 99.9096
" />
<path d="M142.7405 99.9096
L142.6929 99.9572
" />
<path d="M142.6929 99.9572
L142.5976 100.0048
" />
<path d="M142.5976 100.0048
L142.3119 100.0048
" />
<path d="M142.3119 100.0048
L142.2167 99.9572
" />
<path d="M142.2167 99.9572
L142.1690 99.9096
" />
</g><text x="127.4500" y="114.1500"
textLength="2.1548" font-size="1.3333" lengthAdjust="spacingAndGlyphs"
text-anchor="middle" opacity="0" stroke-opacity="0">X4</text>
<g class="stroked-text"><desc>X4</desc>
<path d="M126.6405 113.1048
L127.3071 114.1048
" />
<path d="M127.3071 113.1048
L126.6405 114.1048
" />
<path d="M128.1167 113.4382
L128.1167 114.1048
" />
<path d="M127.8786 113.0572
L127.6405 113.7715
" />
<path d="M127.6405 113.7715
L128.2595 113.7715
" />
</g><text x="132.1500" y="114.1500"
textLength="2.1548" font-size="1.3333" lengthAdjust="spacingAndGlyphs"
text-anchor="middle" opacity="0" stroke-opacity="0">X8</text>
<g class="stroked-text"><desc>X8</desc>
<path d="M131.3405 113.1048
L132.0071 114.1048
" />
<path d="M132.0071 113.1048
L131.3405 114.1048
" />
<path d="M132.5310 113.5334
L132.4357 113.4858
" />
<path d="M132.4357 113.4858
L132.3881 113.4382
" />
<path d="M132.3881 113.4382
L132.3405 113.3429
" />
<path d="M132.3405 113.3429
L132.3405 113.2953
" />
<path d="M132.3405 113.2953
L132.3881 113.2001
" />
<path d="M132.3881 113.2001
L132.4357 113.1524
" />
<path d="M132.4357 113.1524
L132.5310 113.1048
" />
<path d="M132.5310 113.1048
L132.7214 113.1048
" />
<path d="M132.7214 113.1048
L132.8167 113.1524
" />
<path d="M132.8167 113.1524
L132.8643 113.2001
" />
<path d="M132.8643 113.2001
L132.9119 113.2953
" />
<path d="M132.9119 113.2953
L132.9119 113.3429
" />
<path d="M132.9119 113.3429
L132.8643 113.4382
" />
<path d="M132.8643 113.4382
L132.8167 113.4858
" />
<path d="M132.8167 113.4858
L132.7214 113.5334
" />
<path d="M132.7214 113.5334
L132.5310 113.5334
" />
<path d="M132.5310 113.5334
L132.4357 113.5810
" />
<path d="M132.4357 113.5810
L132.3881 113.6286
" />
<path d="M132.3881 113.6286
L132.3405 113.7239
" />
<path d="M132.3405 113.7239
L132.3405 113.9143
" />
<path d="M132.3405 113.9143
L132.3881 114.0096
" />
<path d="M132.3881 114.0096
L132.4357 114.0572
" />
<path d="M132.4357 114.0572
L132.5310 114.1048
" />
<path d="M132.5310 114.1048
L132.7214 114.1048
" />
<path d="M132.7214 114.1048
L132.8167 114.0572
" />
<path d="M132.8167 114.0572
L132.8643 114.0096
" />
<path d="M132.8643 114.0096
L132.9119 113.9143
" />
<path d="M132.9119 113.9143
L132.9119 113.7239
" />
<path d="M132.9119 113.7239
L132.8643 113.6286
" />
<path d="M132.8643 113.6286
L132.8167 113.5810
" />
<path d="M132.8167 113.5810
L132.7214 113.5334
" />
</g><text x="132.1500" y="109.4500"
textLength="2.1548" font-size="1.3333" lengthAdjust="spacingAndGlyphs"
text-anchor="middle" opacity="0" stroke-opacity="0">X7</text>
<g class="stroked-text"><desc>X7</desc>
<path d="M131.3405 108.4048
L132.0071 109.4048
" />
<path d="M132.0071 108.4048
L131.3405 109.4048
" />
<path d="M132.2929 108.4048
L132.9595 108.4048
" />
<path d="M132.9595 108.4048
L132.5310 109.4048
" />
</g><text x="136.8500" y="114.1500"
textLength="3.1071" font-size="1.3333" lengthAdjust="spacingAndGlyphs"
text-anchor="middle" opacity="0" stroke-opacity="0">X12</text>
<g class="stroked-text"><desc>X12</desc>
<path d="M135.5643 113.1048
L136.2310 114.1048
" />
<path d="M136.2310 113.1048
L135.5643 114.1048
" />
<path d="M137.1357 114.1048
L136.5643 114.1048
" />
<path d="M136.8500 114.1048
L136.8500 113.1048
" />
<path d="M136.8500 113.1048
L136.7548 113.2477
" />
<path d="M136.7548 113.2477
L136.6595 113.3429
" />
<path d="M136.6595 113.3429
L136.5643 113.3905
" />
<path d="M137.5167 113.2001
L137.5643 113.1524
" />
<path d="M137.5643 113.1524
L137.6595 113.1048
" />
<path d="M137.6595 113.1048
L137.8976 113.1048
" />
<path d="M137.8976 113.1048
L137.9929 113.1524
" />
<path d="M137.9929 113.1524
L138.0405 113.2001
" />
<path d="M138.0405 113.2001
L138.0881 113.2953
" />
<path d="M138.0881 113.2953
L138.0881 113.3905
" />
<path d="M138.0881 113.3905
L138.0405 113.5334
" />
<path d="M138.0405 113.5334
L137.4690 114.1048
" />
<path d="M137.4690 114.1048
L138.0881 114.1048
" />
</g><text x="136.8500" y="100.0500"
textLength="2.1548" font-size="1.3333" lengthAdjust="spacingAndGlyphs"
text-anchor="middle" opacity="0" stroke-opacity="0">X9</text>
<g class="stroked-text"><desc>X9</desc>
<path d="M136.0405 99.0048
L136.7071 100.0048
" />
<path d="M136.7071 99.0048
L136.0405 100.0048
" />
<path d="M137.1357 100.0048
L137.3262 100.0048
" />
<path d="M137.3262 100.0048
L137.4214 99.9572
" />
<path d="M137.4214 99.9572
L137.4690 99.9096
" />
<path d="M137.4690 99.9096
L137.5643 99.7667
" />
<path d="M137.5643 99.7667
L137.6119 99.5762
" />
<path d="M137.6119 99.5762
L137.6119 99.1953
" />
<path d="M137.6119 99.1953
L137.5643 99.1001
" />
<path d="M137.5643 99.1001
L137.5167 99.0524
" />
<path d="M137.5167 99.0524
L137.4214 99.0048
" />
<path d="M137.4214 99.0048
L137.2310 99.0048
" />
<path d="M137.2310 99.0048
L137.1357 99.0524
" />
<path d="M137.1357 99.0524
L137.0881 99.1001
" />
<path d="M137.0881 99.1001
L137.0405 99.1953
" />
<path d="M137.0405 99.1953
L137.0405 99.4334
" />
<path d="M137.0405 99.4334
L137.0881 99.5286
" />
<path d="M137.0881 99.5286
L137.1357 99.5762
" />
<path d="M137.1357 99.5762
L137.2310 99.6239
" />
<path d="M137.2310 99.6239
L137.4214 99.6239
" />
<path d="M137.4214 99.6239
L137.5167 99.5762
" />
<path d="M137.5167 99.5762
L137.5643 99.5286
" />
<path d="M137.5643 99.5286
L137.6119 99.4334
" />
</g><path style="fill:none; 
stroke:#000000; stroke-width:0.0100; stroke-opacity:1; 
stroke-linecap:round; stroke-linejoin:round;fill:none"
d="M 131.3800,95.7800
132.9200,95.7800
132.9200,97.3200
131.3800,97.3200
Z" /> 
</g>
<g style="fill:#000000; fill-opacity:1.0000; stroke:none;">
<circle cx="131.2500" cy="97.4500" r="0.1100" /> 
<path style="fill:none; 
stroke:#000000; stroke-width:0.0100; stroke-opacity:1; 
stroke-linecap:round; stroke-linejoin:round;fill:none"
d="M 126.6800,100.4800
128.2200,100.4800
128.2200,102.0200
126.6800,102.0200
Z" /> 
</g>
<g style="fill:#000000; fill-opacity:1.0000; stroke:none;">
<circle cx="126.5500" cy="102.1500" r="0.1100" /> 
<path style="fill:none; 
stroke:#000000; stroke-width:0.0100; stroke-opacity:1; 
stroke-linecap:round; stroke-linejoin:round;fill:none"
d="M 140.7800,100.4800
142.3200,100.4800
142.3200,102.0200
140.7800,102.0200
Z" /> 
</g>
<g style="fill:#000000; fill-opacity:1.0000; stroke:none;">
<circle cx="140.6500" cy="102.1500" r="0.1100" /> 
</g>
<g style="fill:none; 
stroke:#000000; stroke-width:0.1270; stroke-opacity:1; 
stroke-linecap:round; stroke-linejoin:round;">
<path d="M129.4100 91.6600
L139.6100 91.6600
" />
<path d="M129.4100 94.3600
L129.4100 91.6600
" />
<path d="M139.6100 91.6600
L139.6100 94.3600
" />
<path d="M139.6100 94.3600
L129.4100 94.3600
" />
</g>
<g style="fill:none; 
stroke:#000000; stroke-width:0.2000; stroke-opacity:1; 
stroke-linecap:round; stroke-linejoin:round;">
<circle cx="138.2600" cy="95.2100" r="0.1000" /> 
<path style="fill:none; 
stroke:#000000; stroke-width:0.0100; stroke-opacity:1; 
stroke-linecap:round; stroke-linejoin:round;fill:none"
d="M 131.3800,100.4800
132.9200,100.4800
132.9200,102.0200
131.3800,102.0200
Z" /> 
</g>
<g style="fill:#000000; fill-opacity:1.0000; stroke:none;">
<circle cx="131.2500" cy="102.1500" r="0.1100" /> 
<path style="fill:none; 
stroke:#000000; stroke-width:0.0100; stroke-opacity:1; 
stroke-linecap:round; stroke-linejoin:round;fill:none"
d="M 126.6800,95.7800
128.2200,95.7800
128.2200,97.3200
126.6800,97.3200
Z" /> 
</g>
<g style="fill:#000000; fill-opacity:1.0000; stroke:none;">
<circle cx="126.5500" cy="97.4500" r="0.1100" /> 
<path style="fill:none; 
stroke:#000000; stroke-width:0.0100; stroke-opacity:1; 
stroke-linecap:round; stroke-linejoin:round;fill:none"
d="M 126.6800,105.1800
128.2200,105.1800
128.2200,106.7200
126.6800,106.7200
Z" /> 
</g>
<g style="fill:#000000; fill-opacity:1.0000; stroke:none;">
<circle cx="126.5500" cy="106.8500" r="0.1100" /> 
<path style="fill:none; 
stroke:#000000; stroke-width:0.0100; stroke-opacity:1; 
stroke-linecap:round; stroke-linejoin:round;fill:none"
d="M 136.0800,105.1800
137.6200,105.1800
137.6200,106.7200
136.0800,106.7200
Z" /> 
</g>
<g style="fill:#000000; fill-opacity:1.0000; stroke:none;">
<circle cx="135.9500" cy="106.8500" r="0.1100" /> 
<path style="fill:none; 
stroke:#000000; stroke-width:0.0100; stroke-opacity:1; 
stroke-linecap:round; stroke-linejoin:round;fill:none"
d="M 140.7800,105.1800
142.3200,105.1800
142.3200,106.7200
140.7800,106.7200
Z" /> 
</g>
<g style="fill:#000000; fill-opacity:1.0000; stroke:none;">
<circle cx="140.6500" cy="106.8500" r="0.1100" /> 
<path style="fill:none; 
stroke:#000000; stroke-width:0.0100; stroke-opacity:1; 
stroke-linecap:round; stroke-linejoin:round;fill:none"
d="M 140.7800,109.8800
142.3200,109.8800
142.3200,111.4200
140.7800,111.4200
Z" /> 
</g>
<g style="fill:#000000; fill-opacity:1.0000; stroke:none;">
<circle cx="140.6500" cy="111.5500" r="0.1100" /> 
<path style="fill:none; 
stroke:#000000; stroke-width:0.0100; stroke-opacity:1; 
stroke-linecap:round; stroke-linejoin:round;fill:none"
d="M 136.0800,100.4800
137.6200,100.4800
137.6200,102.0200
136.0800,102.0200
Z" /> 
</g>
<g style="fill:#000000; fill-opacity:1.0000; stroke:none;">
<circle cx="135.9500" cy="102.1500" r="0.1100" /> 
<path style="fill:none; 
stroke:#000000; stroke-width:0.0100; stroke-opacity:1; 
stroke-linecap:round; stroke-linejoin:round;fill:none"
d="M 140.7800,95.7800
142.3200,95.7800
142.3200,97.3200
140.7800,97.3200
Z" /> 
</g>
<g style="fill:#000000; fill-opacity:1.0000; stroke:none;">
<circle cx="140.6500" cy="97.4500" r="0.1100" /> 
<path style="fill:none; 
stroke:#000000; stroke-width:0.0100; stroke-opacity:1; 
stroke-linecap:round; stroke-linejoin:round;fill:none"
d="M 126.6800,109.8800
128.2200,109.8800
128.2200,111.4200
126.6800,111.4200
Z" /> 
</g>
<g style="fill:#000000; fill-opacity:1.0000; stroke:none;">
<circle cx="126.5500" cy="111.5500" r="0.1100" /> 
<path style="fill:none; 
stroke:#000000; stroke-width:0.0100; stroke-opacity:1; 
stroke-linecap:round; stroke-linejoin:round;fill:none"
d="M 131.3800,109.8800
132.9200,109.8800
132.9200,111.4200
131.3800,111.4200
Z" /> 
</g>
<g style="fill:#000000; fill-opacity:1.0000; stroke:none;">
<circle cx="131.2500" cy="111.5500" r="0.1100" /> 
<path style="fill:none; 
stroke:#000000; stroke-width:0.0100; stroke-opacity:1; 
stroke-linecap:round; stroke-linejoin:round;fill:none"
d="M 131.3800,105.1800
132.9200,105.1800
132.9200,106.7200
131.3800,106.7200
Z" /> 
</g>
<g style="fill:#000000; fill-opacity:1.0000; stroke:none;">
<circle cx="131.2500" cy="106.8500" r="0.1100" /> 
<path style="fill:none; 
stroke:#000000; stroke-width:0.0100; stroke-opacity:1; 
stroke-linecap:round; stroke-linejoin:round;fill:none"
d="M 136.0800,109.8800
137.6200,109.8800
137.6200,111.4200
136.0800,111.4200
Z" /> 
</g>
<g style="fill:#000000; fill-opacity:1.0000; stroke:none;">
<circle cx="135.9500" cy="111.5500" r="0.1100" /> 
<path style="fill:none; 
stroke:#000000; stroke-width:0.0100; stroke-opacity:1; 
stroke-linecap:round; stroke-linejoin:round;fill:none"
d="M 136.0800,95.7800
137.6200,95.7800
137.6200,97.3200
136.0800,97.3200
Z" /> 
</g>
<g style="fill:#000000; fill-opacity:1.0000; stroke:none;">
<circle cx="135.9500" cy="97.4500" r="0.1100" /> 
</g> 
</svg>
