<?xml version="1.0" standalone="no"?>
 <!DOCTYPE svg PUBLIC "-//W3C//DTD SVG 1.1//EN" 
 "http://www.w3.org/Graphics/SVG/1.1/DTD/svg11.dtd"> 
<svg
  xmlns:svg="http://www.w3.org/2000/svg"
  xmlns="http://www.w3.org/2000/svg"
  xmlns:xlink="http://www.w3.org/1999/xlink"
  xmlns:inkscape="http://www.inkscape.org/namespaces/inkscape"
  version="1.1"
  width="297.0022mm" height="210.0072mm" viewBox="0.0000 0.0000 297.0022 210.0072">
<title>SVG Image created as 4x4-B_Fab0.svg date 2026-06-30T15:28:57 </title>
  <desc>Image generated by PCBNEW </desc>
<g style="fill:#000000; fill-opacity:1.0000;stroke:#000000; stroke-opacity:1.0000;
stroke-linecap:round; stroke-linejoin:round;"
 transform="translate(0 0) scale(1 1)">
</g>
<g style="fill:none; 
stroke:#000000; stroke-width:0.0984; stroke-opacity:1; 
stroke-linecap:round; stroke-linejoin:round;">
<g transform="rotate(90.000000 165.9722 98.7620)">
<text x="165.9722" y="98.9588"
textLength="0.4978" font-size="0.5249" lengthAdjust="spacingAndGlyphs"
text-anchor="middle" opacity="0" stroke-opacity="0">~</text>
</g>
<g class="stroked-text"><desc>~</desc>
<path d="M165.9452 98.6589
L165.9639 98.6776
" />
<path d="M165.9639 98.6776
L165.9827 98.7151
" />
<path d="M165.9827 98.7151
L165.9452 98.7901
" />
<path d="M165.9452 98.7901
L165.9639 98.8276
" />
<path d="M165.9639 98.8276
L165.9827 98.8464
" />
</g><g transform="rotate(90.000000 170.6722 112.8500)">
<text x="170.6722" y="113.0468"
textLength="0.4978" font-size="0.5249" lengthAdjust="spacingAndGlyphs"
text-anchor="middle" opacity="0" stroke-opacity="0">~</text>
</g>
<g class="stroked-text"><desc>~</desc>
<path d="M170.6452 112.7469
L170.6639 112.7656
" />
<path d="M170.6639 112.7656
L170.6827 112.8031
" />
<path d="M170.6827 112.8031
L170.6452 112.8781
" />
<path d="M170.6452 112.8781
L170.6639 112.9156
" />
<path d="M170.6639 112.9156
L170.6827 112.9344
" />
</g><g transform="rotate(90.000000 161.2722 103.4620)">
<text x="161.2722" y="103.6589"
textLength="0.4978" font-size="0.5249" lengthAdjust="spacingAndGlyphs"
text-anchor="middle" opacity="0" stroke-opacity="0">~</text>
</g>
<g class="stroked-text"><desc>~</desc>
<path d="M161.2452 103.3589
L161.2639 103.3776
" />
<path d="M161.2639 103.3776
L161.2827 103.4151
" />
<path d="M161.2827 103.4151
L161.2452 103.4901
" />
<path d="M161.2452 103.4901
L161.2639 103.5276
" />
<path d="M161.2639 103.5276
L161.2827 103.5464
" />
</g><g transform="rotate(90.000000 156.5722 103.4620)">
<text x="156.5722" y="103.6589"
textLength="0.4978" font-size="0.5249" lengthAdjust="spacingAndGlyphs"
text-anchor="middle" opacity="0" stroke-opacity="0">~</text>
</g>
<g class="stroked-text"><desc>~</desc>
<path d="M156.5452 103.3589
L156.5639 103.3776
" />
<path d="M156.5639 103.3776
L156.5827 103.4151
" />
<path d="M156.5827 103.4151
L156.5452 103.4901
" />
<path d="M156.5452 103.4901
L156.5639 103.5276
" />
<path d="M156.5639 103.5276
L156.5827 103.5464
" />
</g><g transform="rotate(90.000000 165.9722 103.4620)">
<text x="165.9722" y="103.6589"
textLength="0.4978" font-size="0.5249" lengthAdjust="spacingAndGlyphs"
text-anchor="middle" opacity="0" stroke-opacity="0">~</text>
</g>
<g class="stroked-text"><desc>~</desc>
<path d="M165.9452 103.3589
L165.9639 103.3776
" />
<path d="M165.9639 103.3776
L165.9827 103.4151
" />
<path d="M165.9827 103.4151
L165.9452 103.4901
" />
<path d="M165.9452 103.4901
L165.9639 103.5276
" />
<path d="M165.9639 103.5276
L165.9827 103.5464
" />
</g><g transform="rotate(90.000000 156.5722 112.8620)">
<text x="156.5722" y="113.0588"
textLength="0.4978" font-size="0.5249" lengthAdjust="spacingAndGlyphs"
text-anchor="middle" opacity="0" stroke-opacity="0">~</text>
</g>
<g class="stroked-text"><desc>~</desc>
<path d="M156.5452 112.7589
L156.5639 112.7776
" />
<path d="M156.5639 112.7776
L156.5827 112.8151
" />
<path d="M156.5827 112.8151
L156.5452 112.8901
" />
<path d="M156.5452 112.8901
L156.5639 112.9276
" />
<path d="M156.5639 112.9276
L156.5827 112.9464
" />
</g><g transform="rotate(90.000000 161.2722 98.7620)">
<text x="161.2722" y="98.9588"
textLength="0.4978" font-size="0.5249" lengthAdjust="spacingAndGlyphs"
text-anchor="middle" opacity="0" stroke-opacity="0">~</text>
</g>
<g class="stroked-text"><desc>~</desc>
<path d="M161.2452 98.6589
L161.2639 98.6776
" />
<path d="M161.2639 98.6776
L161.2827 98.7151
" />
<path d="M161.2827 98.7151
L161.2452 98.7901
" />
<path d="M161.2452 98.7901
L161.2639 98.8276
" />
<path d="M161.2639 98.8276
L161.2827 98.8464
" />
</g><g transform="rotate(90.000000 161.2722 108.1620)">
<text x="161.2722" y="108.3588"
textLength="0.4978" font-size="0.5249" lengthAdjust="spacingAndGlyphs"
text-anchor="middle" opacity="0" stroke-opacity="0">~</text>
</g>
<g class="stroked-text"><desc>~</desc>
<path d="M161.2452 108.0589
L161.2639 108.0776
" />
<path d="M161.2639 108.0776
L161.2827 108.1151
" />
<path d="M161.2827 108.1151
L161.2452 108.1901
" />
<path d="M161.2452 108.1901
L161.2639 108.2276
" />
<path d="M161.2639 108.2276
L161.2827 108.2464
" />
</g><g transform="rotate(90.000000 170.6722 98.7620)">
<text x="170.6722" y="98.9588"
textLength="0.4978" font-size="0.5249" lengthAdjust="spacingAndGlyphs"
text-anchor="middle" opacity="0" stroke-opacity="0">~</text>
</g>
<g class="stroked-text"><desc>~</desc>
<path d="M170.6452 98.6589
L170.6639 98.6776
" />
<path d="M170.6639 98.6776
L170.6827 98.7151
" />
<path d="M170.6827 98.7151
L170.6452 98.7901
" />
<path d="M170.6452 98.7901
L170.6639 98.8276
" />
<path d="M170.6639 98.8276
L170.6827 98.8464
" />
</g><g transform="rotate(90.000000 156.5722 108.1620)">
<text x="156.5722" y="108.3588"
textLength="0.4978" font-size="0.5249" lengthAdjust="spacingAndGlyphs"
text-anchor="middle" opacity="0" stroke-opacity="0">~</text>
</g>
<g class="stroked-text"><desc>~</desc>
<path d="M156.5452 108.0589
L156.5639 108.0776
" />
<path d="M156.5639 108.0776
L156.5827 108.1151
" />
<path d="M156.5827 108.1151
L156.5452 108.1901
" />
<path d="M156.5452 108.1901
L156.5639 108.2276
" />
<path d="M156.5639 108.2276
L156.5827 108.2464
" />
</g><g transform="rotate(90.000000 170.6722 103.4620)">
<text x="170.6722" y="103.6589"
textLength="0.4978" font-size="0.5249" lengthAdjust="spacingAndGlyphs"
text-anchor="middle" opacity="0" stroke-opacity="0">~</text>
</g>
<g class="stroked-text"><desc>~</desc>
<path d="M170.6452 103.3589
L170.6639 103.3776
" />
<path d="M170.6639 103.3776
L170.6827 103.4151
" />
<path d="M170.6827 103.4151
L170.6452 103.4901
" />
<path d="M170.6452 103.4901
L170.6639 103.5276
" />
<path d="M170.6639 103.5276
L170.6827 103.5464
" />
</g><g transform="rotate(90.000000 165.9722 112.8620)">
<text x="165.9722" y="113.0588"
textLength="0.4978" font-size="0.5249" lengthAdjust="spacingAndGlyphs"
text-anchor="middle" opacity="0" stroke-opacity="0">~</text>
</g>
<g class="stroked-text"><desc>~</desc>
<path d="M165.9452 112.7589
L165.9639 112.7776
" />
<path d="M165.9639 112.7776
L165.9827 112.8151
" />
<path d="M165.9827 112.8151
L165.9452 112.8901
" />
<path d="M165.9452 112.8901
L165.9639 112.9276
" />
<path d="M165.9639 112.9276
L165.9827 112.9464
" />
</g><g transform="rotate(90.000000 165.9722 108.1620)">
<text x="165.9722" y="108.3588"
textLength="0.4978" font-size="0.5249" lengthAdjust="spacingAndGlyphs"
text-anchor="middle" opacity="0" stroke-opacity="0">~</text>
</g>
<g class="stroked-text"><desc>~</desc>
<path d="M165.9452 108.0589
L165.9639 108.0776
" />
<path d="M165.9639 108.0776
L165.9827 108.1151
" />
<path d="M165.9827 108.1151
L165.9452 108.1901
" />
<path d="M165.9452 108.1901
L165.9639 108.2276
" />
<path d="M165.9639 108.2276
L165.9827 108.2464
" />
</g><g transform="rotate(90.000000 156.5722 98.7620)">
<text x="156.5722" y="98.9588"
textLength="0.4978" font-size="0.5249" lengthAdjust="spacingAndGlyphs"
text-anchor="middle" opacity="0" stroke-opacity="0">~</text>
</g>
<g class="stroked-text"><desc>~</desc>
<path d="M156.5452 98.6589
L156.5639 98.6776
" />
<path d="M156.5639 98.6776
L156.5827 98.7151
" />
<path d="M156.5827 98.7151
L156.5452 98.7901
" />
<path d="M156.5452 98.7901
L156.5639 98.8276
" />
<path d="M156.5639 98.8276
L156.5827 98.8464
" />
</g><g transform="rotate(90.000000 161.2722 112.8620)">
<text x="161.2722" y="113.0588"
textLength="0.4978" font-size="0.5249" lengthAdjust="spacingAndGlyphs"
text-anchor="middle" opacity="0" stroke-opacity="0">~</text>
</g>
<g class="stroked-text"><desc>~</desc>
<path d="M161.2452 112.7589
L161.2639 112.7776
" />
<path d="M161.2639 112.7776
L161.2827 112.8151
" />
<path d="M161.2827 112.8151
L161.2452 112.8901
" />
<path d="M161.2452 112.8901
L161.2639 112.9276
" />
<path d="M161.2639 112.9276
L161.2827 112.9464
" />
</g><g transform="rotate(90.000000 170.6722 108.1620)">
<text x="170.6722" y="108.3588"
textLength="0.4978" font-size="0.5249" lengthAdjust="spacingAndGlyphs"
text-anchor="middle" opacity="0" stroke-opacity="0">~</text>
</g>
<g class="stroked-text"><desc>~</desc>
<path d="M170.6452 108.0589
L170.6639 108.0776
" />
<path d="M170.6639 108.0776
L170.6827 108.1151
" />
<path d="M170.6827 108.1151
L170.6452 108.1901
" />
<path d="M170.6452 108.1901
L170.6639 108.2276
" />
<path d="M170.6639 108.2276
L170.6827 108.2464
" />
</g></g>
<g style="fill:none; 
stroke:#000000; stroke-width:0.1270; stroke-opacity:1; 
stroke-linecap:round; stroke-linejoin:round;">
<path d="M167.1322 97.2420
L167.1322 96.1820
" />
<path d="M166.5722 96.1820
L167.1322 96.1820
" />
<path d="M166.5722 97.2420
L167.1322 97.2420
" />
<path d="M166.5722 97.2420
L166.5722 96.1820
" />
<path d="M171.8322 111.3300
L171.8322 110.2700
" />
<path d="M171.2722 110.2700
L171.8322 110.2700
" />
<path d="M171.2722 111.3300
L171.8322 111.3300
" />
<path d="M171.2722 111.3300
L171.2722 110.2700
" />
<path d="M162.4322 101.9420
L162.4322 100.8820
" />
<path d="M161.8722 100.8820
L162.4322 100.8820
" />
<path d="M161.8722 101.9420
L162.4322 101.9420
" />
<path d="M161.8722 101.9420
L161.8722 100.8820
" />
<path d="M157.7322 101.9420
L157.7322 100.8820
" />
<path d="M157.1722 100.8820
L157.7322 100.8820
" />
<path d="M157.1722 101.9420
L157.7322 101.9420
" />
<path d="M157.1722 101.9420
L157.1722 100.8820
" />
<path d="M167.1322 101.9420
L167.1322 100.8820
" />
<path d="M166.5722 100.8820
L167.1322 100.8820
" />
<path d="M166.5722 101.9420
L167.1322 101.9420
" />
<path d="M166.5722 101.9420
L166.5722 100.8820
" />
<path d="M157.7322 111.3420
L157.7322 110.2820
" />
<path d="M157.1722 110.2820
L157.7322 110.2820
" />
<path d="M157.1722 111.3420
L157.7322 111.3420
" />
<path d="M157.1722 111.3420
L157.1722 110.2820
" />
<path d="M162.4322 97.2420
L162.4322 96.1820
" />
<path d="M161.8722 96.1820
L162.4322 96.1820
" />
<path d="M161.8722 97.2420
L162.4322 97.2420
" />
<path d="M161.8722 97.2420
L161.8722 96.1820
" />
<path d="M162.4322 106.6420
L162.4322 105.5820
" />
<path d="M161.8722 105.5820
L162.4322 105.5820
" />
<path d="M161.8722 106.6420
L162.4322 106.6420
" />
<path d="M161.8722 106.6420
L161.8722 105.5820
" />
<path d="M171.8322 97.2420
L171.8322 96.1820
" />
<path d="M171.2722 96.1820
L171.8322 96.1820
" />
<path d="M171.2722 97.2420
L171.8322 97.2420
" />
<path d="M171.2722 97.2420
L171.2722 96.1820
" />
<path d="M157.7322 106.6420
L157.7322 105.5820
" />
<path d="M157.1722 105.5820
L157.7322 105.5820
" />
<path d="M157.1722 106.6420
L157.7322 106.6420
" />
<path d="M157.1722 106.6420
L157.1722 105.5820
" />
<path d="M171.8322 101.9420
L171.8322 100.8820
" />
<path d="M171.2722 100.8820
L171.8322 100.8820
" />
<path d="M171.2722 101.9420
L171.8322 101.9420
" />
<path d="M171.2722 101.9420
L171.2722 100.8820
" />
<path d="M167.1322 111.3420
L167.1322 110.2820
" />
<path d="M166.5722 110.2820
L167.1322 110.2820
" />
<path d="M166.5722 111.3420
L167.1322 111.3420
" />
<path d="M166.5722 111.3420
L166.5722 110.2820
" />
<path d="M167.1322 106.6420
L167.1322 105.5820
" />
<path d="M166.5722 105.5820
L167.1322 105.5820
" />
<path d="M166.5722 106.6420
L167.1322 106.6420
" />
<path d="M166.5722 106.6420
L166.5722 105.5820
" />
<path d="M157.7322 97.2420
L157.7322 96.1820
" />
<path d="M157.1722 96.1820
L157.7322 96.1820
" />
<path d="M157.1722 97.2420
L157.7322 97.2420
" />
<path d="M157.1722 97.2420
L157.1722 96.1820
" />
<path d="M162.4322 111.3420
L162.4322 110.2820
" />
<path d="M161.8722 110.2820
L162.4322 110.2820
" />
<path d="M161.8722 111.3420
L162.4322 111.3420
" />
<path d="M161.8722 111.3420
L161.8722 110.2820
" />
<path d="M171.8322 106.6420
L171.8322 105.5820
" />
<path d="M171.2722 105.5820
L171.8322 105.5820
" />
<path d="M171.2722 106.6420
L171.8322 106.6420
" />
<path d="M171.2722 106.6420
L171.2722 105.5820
" />
</g> 
</svg>
