<?xml version="1.0" standalone="no"?>
 <!DOCTYPE svg PUBLIC "-//W3C//DTD SVG 1.1//EN" 
 "http://www.w3.org/Graphics/SVG/1.1/DTD/svg11.dtd"> 
<svg
  xmlns:svg="http://www.w3.org/2000/svg"
  xmlns="http://www.w3.org/2000/svg"
  xmlns:xlink="http://www.w3.org/1999/xlink"
  xmlns:inkscape="http://www.inkscape.org/namespaces/inkscape"
  version="1.1"
  width="297.0022mm" height="210.0072mm" viewBox="0.0000 0.0000 297.0022 210.0072">
<title>SVG Image created as 4x4-F_Cu_vias_4.svg date 2026-06-30T15:29:06 </title>
  <desc>Image generated by PCBNEW </desc>
<g style="fill:#000000; fill-opacity:1.0000;stroke:#000000; stroke-opacity:1.0000;
stroke-linecap:round; stroke-linejoin:round;"
 transform="translate(0 0) scale(1 1)">
</g>
<g style="fill:#000000; fill-opacity:1.0000; stroke:none;">
<circle cx="137.8260" cy="96.9620" r="0.2286" /> 
<circle cx="128.5000" cy="110.6500" r="0.2286" /> 
<circle cx="128.5000" cy="96.5500" r="0.2286" /> 
<circle cx="134.8500" cy="102.4000" r="0.2286" /> 
<circle cx="142.6000" cy="96.5500" r="0.2286" /> 
<circle cx="126.3500" cy="111.3000" r="0.2286" /> 
<circle cx="128.7790" cy="92.2600" r="0.2286" /> 
<circle cx="131.0000" cy="111.2500" r="0.2286" /> 
<circle cx="137.9000" cy="101.2500" r="0.2286" /> 
<circle cx="140.4500" cy="101.8500" r="0.2286" /> 
<circle cx="128.5000" cy="101.2500" r="0.2286" /> 
<circle cx="131.0500" cy="101.8500" r="0.2286" /> 
<circle cx="131.0500" cy="106.5500" r="0.2286" /> 
<circle cx="134.8500" cy="97.7000" r="0.2286" /> 
<circle cx="140.4000" cy="106.5500" r="0.2286" /> 
<circle cx="142.6000" cy="110.6500" r="0.2286" /> 
<circle cx="140.2400" cy="92.2600" r="0.2286" /> 
<circle cx="133.2000" cy="96.5500" r="0.2286" /> 
<circle cx="137.9000" cy="105.9500" r="0.2286" /> 
<circle cx="142.6000" cy="105.9500" r="0.2286" /> 
<circle cx="133.2000" cy="101.2500" r="0.2286" /> 
<circle cx="142.6000" cy="101.2500" r="0.2286" /> 
<circle cx="135.7000" cy="111.2500" r="0.2286" /> 
<circle cx="140.4000" cy="111.2500" r="0.2286" /> 
<circle cx="133.2000" cy="110.6500" r="0.2286" /> 
<circle cx="140.4500" cy="97.1500" r="0.2286" /> 
<circle cx="134.8500" cy="107.1000" r="0.2286" /> 
<circle cx="126.3500" cy="101.8500" r="0.2286" /> 
<circle cx="128.5000" cy="105.9500" r="0.2286" /> 
<circle cx="133.2000" cy="105.9500" r="0.2286" /> 
<circle cx="126.3500" cy="106.5500" r="0.2286" /> 
<circle cx="126.3500" cy="97.1500" r="0.2286" /> 
<circle cx="131.0500" cy="97.1500" r="0.2286" /> 
<circle cx="137.9000" cy="110.6500" r="0.2286" /> 
<circle cx="140.5800" cy="113.1240" r="0.2286" /> 
<circle cx="130.4300" cy="94.0020" r="0.2286" /> 
<circle cx="140.4000" cy="105.1750" r="0.2286" /> 
<circle cx="130.9750" cy="109.8875" r="0.2286" /> 
<circle cx="130.9500" cy="95.7750" r="0.2286" /> 
<circle cx="135.6000" cy="95.7750" r="0.2286" /> 
<circle cx="140.1265" cy="96.0735" r="0.2286" /> 
<circle cx="139.5205" cy="94.5475" r="0.2286" /> 
<circle cx="130.9500" cy="105.1750" r="0.2286" /> 
<circle cx="126.1500" cy="109.8750" r="0.2286" /> 
<circle cx="126.2500" cy="100.4750" r="0.2286" /> 
<circle cx="126.3380" cy="96.2800" r="0.2286" /> 
<circle cx="135.6000" cy="105.2000" r="0.2286" /> 
<circle cx="126.2500" cy="105.1750" r="0.2286" /> 
<circle cx="129.2750" cy="111.3750" r="0.2286" /> 
<circle cx="130.8750" cy="100.4750" r="0.2286" /> 
<circle cx="140.3500" cy="100.4750" r="0.2286" /> 
<circle cx="135.6000" cy="109.9000" r="0.2286" /> 
<circle cx="140.3000" cy="109.8750" r="0.2286" /> 
<circle cx="135.6000" cy="100.4750" r="0.2286" /> 
<circle cx="135.0810" cy="93.2900" r="0.2286" /> 
<circle cx="137.8490" cy="96.0470" r="0.2286" /> 
<circle cx="137.8490" cy="96.0470" r="0.2286" /> 
<circle cx="157.9956" cy="120.0453" r="0.0000" /> 
<circle cx="123.9650" cy="85.6427" r="0.0000" /> 
</g>
<g style="fill:#FFFFFF; fill-opacity:1.0000; stroke:none;">
<circle cx="137.8260" cy="96.9620" r="0.1270" /> 
<circle cx="128.5000" cy="110.6500" r="0.1270" /> 
<circle cx="128.5000" cy="96.5500" r="0.1270" /> 
<circle cx="134.8500" cy="102.4000" r="0.1270" /> 
<circle cx="142.6000" cy="96.5500" r="0.1270" /> 
<circle cx="126.3500" cy="111.3000" r="0.1270" /> 
<circle cx="128.7790" cy="92.2600" r="0.1270" /> 
<circle cx="131.0000" cy="111.2500" r="0.1270" /> 
<circle cx="137.9000" cy="101.2500" r="0.1270" /> 
<circle cx="140.4500" cy="101.8500" r="0.1270" /> 
<circle cx="128.5000" cy="101.2500" r="0.1270" /> 
<circle cx="131.0500" cy="101.8500" r="0.1270" /> 
<circle cx="131.0500" cy="106.5500" r="0.1270" /> 
<circle cx="134.8500" cy="97.7000" r="0.1270" /> 
<circle cx="140.4000" cy="106.5500" r="0.1270" /> 
<circle cx="142.6000" cy="110.6500" r="0.1270" /> 
<circle cx="140.2400" cy="92.2600" r="0.1270" /> 
<circle cx="133.2000" cy="96.5500" r="0.1270" /> 
<circle cx="137.9000" cy="105.9500" r="0.1270" /> 
<circle cx="142.6000" cy="105.9500" r="0.1270" /> 
<circle cx="133.2000" cy="101.2500" r="0.1270" /> 
<circle cx="142.6000" cy="101.2500" r="0.1270" /> 
<circle cx="135.7000" cy="111.2500" r="0.1270" /> 
<circle cx="140.4000" cy="111.2500" r="0.1270" /> 
<circle cx="133.2000" cy="110.6500" r="0.1270" /> 
<circle cx="140.4500" cy="97.1500" r="0.1270" /> 
<circle cx="134.8500" cy="107.1000" r="0.1270" /> 
<circle cx="126.3500" cy="101.8500" r="0.1270" /> 
<circle cx="128.5000" cy="105.9500" r="0.1270" /> 
<circle cx="133.2000" cy="105.9500" r="0.1270" /> 
<circle cx="126.3500" cy="106.5500" r="0.1270" /> 
<circle cx="126.3500" cy="97.1500" r="0.1270" /> 
<circle cx="131.0500" cy="97.1500" r="0.1270" /> 
<circle cx="137.9000" cy="110.6500" r="0.1270" /> 
<circle cx="140.5800" cy="113.1240" r="0.1270" /> 
<circle cx="130.4300" cy="94.0020" r="0.1270" /> 
<circle cx="140.4000" cy="105.1750" r="0.1270" /> 
<circle cx="130.9750" cy="109.8875" r="0.1270" /> 
<circle cx="130.9500" cy="95.7750" r="0.1270" /> 
<circle cx="135.6000" cy="95.7750" r="0.1270" /> 
<circle cx="140.1265" cy="96.0735" r="0.1270" /> 
<circle cx="139.5205" cy="94.5475" r="0.1270" /> 
<circle cx="130.9500" cy="105.1750" r="0.1270" /> 
<circle cx="126.1500" cy="109.8750" r="0.1270" /> 
<circle cx="126.2500" cy="100.4750" r="0.1270" /> 
<circle cx="126.3380" cy="96.2800" r="0.1270" /> 
<circle cx="135.6000" cy="105.2000" r="0.1270" /> 
<circle cx="126.2500" cy="105.1750" r="0.1270" /> 
<circle cx="129.2750" cy="111.3750" r="0.1270" /> 
<circle cx="130.8750" cy="100.4750" r="0.1270" /> 
<circle cx="140.3500" cy="100.4750" r="0.1270" /> 
<circle cx="135.6000" cy="109.9000" r="0.1270" /> 
<circle cx="140.3000" cy="109.8750" r="0.1270" /> 
<circle cx="135.6000" cy="100.4750" r="0.1270" /> 
<circle cx="135.0810" cy="93.2900" r="0.1270" /> 
<circle cx="137.8490" cy="96.0470" r="0.1270" /> 
<circle cx="137.8490" cy="96.0470" r="0.1270" /> 
</g> 
</svg>
