<?xml version="1.0" standalone="no"?>
 <!DOCTYPE svg PUBLIC "-//W3C//DTD SVG 1.1//EN" 
 "http://www.w3.org/Graphics/SVG/1.1/DTD/svg11.dtd"> 
<svg
  xmlns:svg="http://www.w3.org/2000/svg"
  xmlns="http://www.w3.org/2000/svg"
  xmlns:xlink="http://www.w3.org/1999/xlink"
  xmlns:inkscape="http://www.inkscape.org/namespaces/inkscape"
  version="1.1"
  width="297.0022mm" height="210.0072mm" viewBox="0.0000 0.0000 297.0022 210.0072">
<title>SVG Image created as 4x4-F_Cu0.svg date 2026-06-30T15:29:06 </title>
  <desc>Image generated by PCBNEW </desc>
<g style="fill:#000000; fill-opacity:1.0000;stroke:#000000; stroke-opacity:1.0000;
stroke-linecap:round; stroke-linejoin:round;"
 transform="translate(0 0) scale(1 1)">
</g>
<g style="fill:#000000; fill-opacity:1.0000; stroke:none;">
<circle cx="125.4895" cy="93.1000" r="0.7500" /> 
<circle cx="125.4895" cy="95.1000" r="0.7500" /> 
<circle cx="125.9995" cy="113.1240" r="0.7500" /> 
<circle cx="129.3996" cy="113.1240" r="0.7500" /> 
<circle cx="132.7995" cy="113.1240" r="0.7500" /> 
<circle cx="136.1995" cy="113.1240" r="0.7500" /> 
<circle cx="139.5995" cy="113.1240" r="0.7500" /> 
<circle cx="142.9995" cy="113.1240" r="0.7500" /> 
<circle cx="143.4995" cy="93.1100" r="0.7500" /> 
<circle cx="143.4995" cy="95.1100" r="0.7500" /> 
<path style="fill:#000000; fill-opacity:1.0000; stroke:none;fill-rule:evenodd;"
d="M 131.5400,97.5500
131.5400,97.0900
131.7600,97.0900
131.7600,97.5500
Z" /> 
<path style="fill:#000000; fill-opacity:1.0000; stroke:none;fill-rule:evenodd;"
d="M 132.0400,97.5500
132.0400,97.0900
132.2600,97.0900
132.2600,97.5500
Z" /> 
<path style="fill:#000000; fill-opacity:1.0000; stroke:none;fill-rule:evenodd;"
d="M 132.5400,97.5500
132.5400,97.0900
132.7600,97.0900
132.7600,97.5500
Z" /> 
<path style="fill:#000000; fill-opacity:1.0000; stroke:none;fill-rule:evenodd;"
d="M 132.5400,96.0100
132.5400,95.5500
132.7600,95.5500
132.7600,96.0100
Z" /> 
<path style="fill:#000000; fill-opacity:1.0000; stroke:none;fill-rule:evenodd;"
d="M 132.0400,96.0100
132.0400,95.5500
132.2600,95.5500
132.2600,96.0100
Z" /> 
<path style="fill:#000000; fill-opacity:1.0000; stroke:none;fill-rule:evenodd;"
d="M 131.5400,96.0100
131.5400,95.5500
131.7600,95.5500
131.7600,96.0100
Z" /> 
<path style="fill:#000000; fill-opacity:1.0000; stroke:none;fill-rule:evenodd;"
d="M 131.6500,96.9000
131.6500,96.2000
132.6500,96.2000
132.6500,96.9000
Z" /> 
<path style="fill:#000000; fill-opacity:1.0000; stroke:none;fill-rule:evenodd;"
d="M 126.8400,102.2500
126.8400,101.7900
127.0600,101.7900
127.0600,102.2500
Z" /> 
<path style="fill:#000000; fill-opacity:1.0000; stroke:none;fill-rule:evenodd;"
d="M 127.3400,102.2500
127.3400,101.7900
127.5600,101.7900
127.5600,102.2500
Z" /> 
<path style="fill:#000000; fill-opacity:1.0000; stroke:none;fill-rule:evenodd;"
d="M 127.8400,102.2500
127.8400,101.7900
128.0600,101.7900
128.0600,102.2500
Z" /> 
<path style="fill:#000000; fill-opacity:1.0000; stroke:none;fill-rule:evenodd;"
d="M 127.8400,100.7100
127.8400,100.2500
128.0600,100.2500
128.0600,100.7100
Z" /> 
<path style="fill:#000000; fill-opacity:1.0000; stroke:none;fill-rule:evenodd;"
d="M 127.3400,100.7100
127.3400,100.2500
127.5600,100.2500
127.5600,100.7100
Z" /> 
<path style="fill:#000000; fill-opacity:1.0000; stroke:none;fill-rule:evenodd;"
d="M 126.8400,100.7100
126.8400,100.2500
127.0600,100.2500
127.0600,100.7100
Z" /> 
<path style="fill:#000000; fill-opacity:1.0000; stroke:none;fill-rule:evenodd;"
d="M 126.9500,101.6000
126.9500,100.9000
127.9500,100.9000
127.9500,101.6000
Z" /> 
<path style="fill:#000000; fill-opacity:1.0000; stroke:none;fill-rule:evenodd;"
d="M 140.9400,102.2500
140.9400,101.7900
141.1600,101.7900
141.1600,102.2500
Z" /> 
<path style="fill:#000000; fill-opacity:1.0000; stroke:none;fill-rule:evenodd;"
d="M 141.4400,102.2500
141.4400,101.7900
141.6600,101.7900
141.6600,102.2500
Z" /> 
<path style="fill:#000000; fill-opacity:1.0000; stroke:none;fill-rule:evenodd;"
d="M 141.9400,102.2500
141.9400,101.7900
142.1600,101.7900
142.1600,102.2500
Z" /> 
<path style="fill:#000000; fill-opacity:1.0000; stroke:none;fill-rule:evenodd;"
d="M 141.9400,100.7100
141.9400,100.2500
142.1600,100.2500
142.1600,100.7100
Z" /> 
<path style="fill:#000000; fill-opacity:1.0000; stroke:none;fill-rule:evenodd;"
d="M 141.4400,100.7100
141.4400,100.2500
141.6600,100.2500
141.6600,100.7100
Z" /> 
<path style="fill:#000000; fill-opacity:1.0000; stroke:none;fill-rule:evenodd;"
d="M 140.9400,100.7100
140.9400,100.2500
141.1600,100.2500
141.1600,100.7100
Z" /> 
<path style="fill:#000000; fill-opacity:1.0000; stroke:none;fill-rule:evenodd;"
d="M 141.0500,101.6000
141.0500,100.9000
142.0500,100.9000
142.0500,101.6000
Z" /> 
<path style="fill:#000000; fill-opacity:1.0000; stroke:none;fill-rule:evenodd;"
d="M 138.3600,93.6100
138.3600,94.6100
137.8600,94.6100
137.8600,93.6100
Z" /> 
<path style="fill:#000000; fill-opacity:1.0000; stroke:none;fill-rule:evenodd;"
d="M 137.5600,93.6100
137.5600,94.6100
137.0600,94.6100
137.0600,93.6100
Z" /> 
<path style="fill:#000000; fill-opacity:1.0000; stroke:none;fill-rule:evenodd;"
d="M 136.7600,93.6100
136.7600,94.6100
136.2600,94.6100
136.2600,93.6100
Z" /> 
<path style="fill:#000000; fill-opacity:1.0000; stroke:none;fill-rule:evenodd;"
d="M 135.9600,93.6100
135.9600,94.6100
135.4600,94.6100
135.4600,93.6100
Z" /> 
<path style="fill:#000000; fill-opacity:1.0000; stroke:none;fill-rule:evenodd;"
d="M 135.1600,93.6100
135.1600,94.6100
134.6600,94.6100
134.6600,93.6100
Z" /> 
<path style="fill:#000000; fill-opacity:1.0000; stroke:none;fill-rule:evenodd;"
d="M 134.3600,93.6100
134.3600,94.6100
133.8600,94.6100
133.8600,93.6100
Z" /> 
<path style="fill:#000000; fill-opacity:1.0000; stroke:none;fill-rule:evenodd;"
d="M 133.5600,93.6100
133.5600,94.6100
133.0600,94.6100
133.0600,93.6100
Z" /> 
<path style="fill:#000000; fill-opacity:1.0000; stroke:none;fill-rule:evenodd;"
d="M 132.7600,93.6100
132.7600,94.6100
132.2600,94.6100
132.2600,93.6100
Z" /> 
<path style="fill:#000000; fill-opacity:1.0000; stroke:none;fill-rule:evenodd;"
d="M 131.9600,93.6100
131.9600,94.6100
131.4600,94.6100
131.4600,93.6100
Z" /> 
<path style="fill:#000000; fill-opacity:1.0000; stroke:none;fill-rule:evenodd;"
d="M 131.1600,93.6100
131.1600,94.6100
130.6600,94.6100
130.6600,93.6100
Z" /> 
<path style="fill:#000000; fill-opacity:1.0000; stroke:none;fill-rule:evenodd;"
d="M 140.0100,91.4100
140.0100,93.1100
138.8100,93.1100
138.8100,91.4100
Z" /> 
<path style="fill:#000000; fill-opacity:1.0000; stroke:none;fill-rule:evenodd;"
d="M 130.2100,91.4100
130.2100,93.1100
129.0100,93.1100
129.0100,91.4100
Z" /> 
<path style="fill:#000000; fill-opacity:1.0000; stroke:none;fill-rule:evenodd;"
d="M 131.5400,102.2500
131.5400,101.7900
131.7600,101.7900
131.7600,102.2500
Z" /> 
<path style="fill:#000000; fill-opacity:1.0000; stroke:none;fill-rule:evenodd;"
d="M 132.0400,102.2500
132.0400,101.7900
132.2600,101.7900
132.2600,102.2500
Z" /> 
<path style="fill:#000000; fill-opacity:1.0000; stroke:none;fill-rule:evenodd;"
d="M 132.5400,102.2500
132.5400,101.7900
132.7600,101.7900
132.7600,102.2500
Z" /> 
<path style="fill:#000000; fill-opacity:1.0000; stroke:none;fill-rule:evenodd;"
d="M 132.5400,100.7100
132.5400,100.2500
132.7600,100.2500
132.7600,100.7100
Z" /> 
<path style="fill:#000000; fill-opacity:1.0000; stroke:none;fill-rule:evenodd;"
d="M 132.0400,100.7100
132.0400,100.2500
132.2600,100.2500
132.2600,100.7100
Z" /> 
<path style="fill:#000000; fill-opacity:1.0000; stroke:none;fill-rule:evenodd;"
d="M 131.5400,100.7100
131.5400,100.2500
131.7600,100.2500
131.7600,100.7100
Z" /> 
<path style="fill:#000000; fill-opacity:1.0000; stroke:none;fill-rule:evenodd;"
d="M 131.6500,101.6000
131.6500,100.9000
132.6500,100.9000
132.6500,101.6000
Z" /> 
<path style="fill:#000000; fill-opacity:1.0000; stroke:none;fill-rule:evenodd;"
d="M 126.8400,97.5500
126.8400,97.0900
127.0600,97.0900
127.0600,97.5500
Z" /> 
<path style="fill:#000000; fill-opacity:1.0000; stroke:none;fill-rule:evenodd;"
d="M 127.3400,97.5500
127.3400,97.0900
127.5600,97.0900
127.5600,97.5500
Z" /> 
<path style="fill:#000000; fill-opacity:1.0000; stroke:none;fill-rule:evenodd;"
d="M 127.8400,97.5500
127.8400,97.0900
128.0600,97.0900
128.0600,97.5500
Z" /> 
<path style="fill:#000000; fill-opacity:1.0000; stroke:none;fill-rule:evenodd;"
d="M 127.8400,96.0100
127.8400,95.5500
128.0600,95.5500
128.0600,96.0100
Z" /> 
<path style="fill:#000000; fill-opacity:1.0000; stroke:none;fill-rule:evenodd;"
d="M 127.3400,96.0100
127.3400,95.5500
127.5600,95.5500
127.5600,96.0100
Z" /> 
<path style="fill:#000000; fill-opacity:1.0000; stroke:none;fill-rule:evenodd;"
d="M 126.8400,96.0100
126.8400,95.5500
127.0600,95.5500
127.0600,96.0100
Z" /> 
<path style="fill:#000000; fill-opacity:1.0000; stroke:none;fill-rule:evenodd;"
d="M 126.9500,96.9000
126.9500,96.2000
127.9500,96.2000
127.9500,96.9000
Z" /> 
<path style="fill:#000000; fill-opacity:1.0000; stroke:none;fill-rule:evenodd;"
d="M 126.8400,106.9500
126.8400,106.4900
127.0600,106.4900
127.0600,106.9500
Z" /> 
<path style="fill:#000000; fill-opacity:1.0000; stroke:none;fill-rule:evenodd;"
d="M 127.3400,106.9500
127.3400,106.4900
127.5600,106.4900
127.5600,106.9500
Z" /> 
<path style="fill:#000000; fill-opacity:1.0000; stroke:none;fill-rule:evenodd;"
d="M 127.8400,106.9500
127.8400,106.4900
128.0600,106.4900
128.0600,106.9500
Z" /> 
<path style="fill:#000000; fill-opacity:1.0000; stroke:none;fill-rule:evenodd;"
d="M 127.8400,105.4100
127.8400,104.9500
128.0600,104.9500
128.0600,105.4100
Z" /> 
<path style="fill:#000000; fill-opacity:1.0000; stroke:none;fill-rule:evenodd;"
d="M 127.3400,105.4100
127.3400,104.9500
127.5600,104.9500
127.5600,105.4100
Z" /> 
<path style="fill:#000000; fill-opacity:1.0000; stroke:none;fill-rule:evenodd;"
d="M 126.8400,105.4100
126.8400,104.9500
127.0600,104.9500
127.0600,105.4100
Z" /> 
<path style="fill:#000000; fill-opacity:1.0000; stroke:none;fill-rule:evenodd;"
d="M 126.9500,106.3000
126.9500,105.6000
127.9500,105.6000
127.9500,106.3000
Z" /> 
<path style="fill:#000000; fill-opacity:1.0000; stroke:none;fill-rule:evenodd;"
d="M 136.2400,106.9500
136.2400,106.4900
136.4600,106.4900
136.4600,106.9500
Z" /> 
<path style="fill:#000000; fill-opacity:1.0000; stroke:none;fill-rule:evenodd;"
d="M 136.7400,106.9500
136.7400,106.4900
136.9600,106.4900
136.9600,106.9500
Z" /> 
<path style="fill:#000000; fill-opacity:1.0000; stroke:none;fill-rule:evenodd;"
d="M 137.2400,106.9500
137.2400,106.4900
137.4600,106.4900
137.4600,106.9500
Z" /> 
<path style="fill:#000000; fill-opacity:1.0000; stroke:none;fill-rule:evenodd;"
d="M 137.2400,105.4100
137.2400,104.9500
137.4600,104.9500
137.4600,105.4100
Z" /> 
<path style="fill:#000000; fill-opacity:1.0000; stroke:none;fill-rule:evenodd;"
d="M 136.7400,105.4100
136.7400,104.9500
136.9600,104.9500
136.9600,105.4100
Z" /> 
<path style="fill:#000000; fill-opacity:1.0000; stroke:none;fill-rule:evenodd;"
d="M 136.2400,105.4100
136.2400,104.9500
136.4600,104.9500
136.4600,105.4100
Z" /> 
<path style="fill:#000000; fill-opacity:1.0000; stroke:none;fill-rule:evenodd;"
d="M 136.3500,106.3000
136.3500,105.6000
137.3500,105.6000
137.3500,106.3000
Z" /> 
<path style="fill:#000000; fill-opacity:1.0000; stroke:none;fill-rule:evenodd;"
d="M 140.9400,106.9500
140.9400,106.4900
141.1600,106.4900
141.1600,106.9500
Z" /> 
<path style="fill:#000000; fill-opacity:1.0000; stroke:none;fill-rule:evenodd;"
d="M 141.4400,106.9500
141.4400,106.4900
141.6600,106.4900
141.6600,106.9500
Z" /> 
<path style="fill:#000000; fill-opacity:1.0000; stroke:none;fill-rule:evenodd;"
d="M 141.9400,106.9500
141.9400,106.4900
142.1600,106.4900
142.1600,106.9500
Z" /> 
<path style="fill:#000000; fill-opacity:1.0000; stroke:none;fill-rule:evenodd;"
d="M 141.9400,105.4100
141.9400,104.9500
142.1600,104.9500
142.1600,105.4100
Z" /> 
<path style="fill:#000000; fill-opacity:1.0000; stroke:none;fill-rule:evenodd;"
d="M 141.4400,105.4100
141.4400,104.9500
141.6600,104.9500
141.6600,105.4100
Z" /> 
<path style="fill:#000000; fill-opacity:1.0000; stroke:none;fill-rule:evenodd;"
d="M 140.9400,105.4100
140.9400,104.9500
141.1600,104.9500
141.1600,105.4100
Z" /> 
<path style="fill:#000000; fill-opacity:1.0000; stroke:none;fill-rule:evenodd;"
d="M 141.0500,106.3000
141.0500,105.6000
142.0500,105.6000
142.0500,106.3000
Z" /> 
<path style="fill:#000000; fill-opacity:1.0000; stroke:none;fill-rule:evenodd;"
d="M 140.9400,111.6500
140.9400,111.1900
141.1600,111.1900
141.1600,111.6500
Z" /> 
<path style="fill:#000000; fill-opacity:1.0000; stroke:none;fill-rule:evenodd;"
d="M 141.4400,111.6500
141.4400,111.1900
141.6600,111.1900
141.6600,111.6500
Z" /> 
<path style="fill:#000000; fill-opacity:1.0000; stroke:none;fill-rule:evenodd;"
d="M 141.9400,111.6500
141.9400,111.1900
142.1600,111.1900
142.1600,111.6500
Z" /> 
<path style="fill:#000000; fill-opacity:1.0000; stroke:none;fill-rule:evenodd;"
d="M 141.9400,110.1100
141.9400,109.6500
142.1600,109.6500
142.1600,110.1100
Z" /> 
<path style="fill:#000000; fill-opacity:1.0000; stroke:none;fill-rule:evenodd;"
d="M 141.4400,110.1100
141.4400,109.6500
141.6600,109.6500
141.6600,110.1100
Z" /> 
<path style="fill:#000000; fill-opacity:1.0000; stroke:none;fill-rule:evenodd;"
d="M 140.9400,110.1100
140.9400,109.6500
141.1600,109.6500
141.1600,110.1100
Z" /> 
<path style="fill:#000000; fill-opacity:1.0000; stroke:none;fill-rule:evenodd;"
d="M 141.0500,111.0000
141.0500,110.3000
142.0500,110.3000
142.0500,111.0000
Z" /> 
<path style="fill:#000000; fill-opacity:1.0000; stroke:none;fill-rule:evenodd;"
d="M 136.2400,102.2500
136.2400,101.7900
136.4600,101.7900
136.4600,102.2500
Z" /> 
<path style="fill:#000000; fill-opacity:1.0000; stroke:none;fill-rule:evenodd;"
d="M 136.7400,102.2500
136.7400,101.7900
136.9600,101.7900
136.9600,102.2500
Z" /> 
<path style="fill:#000000; fill-opacity:1.0000; stroke:none;fill-rule:evenodd;"
d="M 137.2400,102.2500
137.2400,101.7900
137.4600,101.7900
137.4600,102.2500
Z" /> 
<path style="fill:#000000; fill-opacity:1.0000; stroke:none;fill-rule:evenodd;"
d="M 137.2400,100.7100
137.2400,100.2500
137.4600,100.2500
137.4600,100.7100
Z" /> 
<path style="fill:#000000; fill-opacity:1.0000; stroke:none;fill-rule:evenodd;"
d="M 136.7400,100.7100
136.7400,100.2500
136.9600,100.2500
136.9600,100.7100
Z" /> 
<path style="fill:#000000; fill-opacity:1.0000; stroke:none;fill-rule:evenodd;"
d="M 136.2400,100.7100
136.2400,100.2500
136.4600,100.2500
136.4600,100.7100
Z" /> 
<path style="fill:#000000; fill-opacity:1.0000; stroke:none;fill-rule:evenodd;"
d="M 136.3500,101.6000
136.3500,100.9000
137.3500,100.9000
137.3500,101.6000
Z" /> 
<path style="fill:#000000; fill-opacity:1.0000; stroke:none;fill-rule:evenodd;"
d="M 140.9400,97.5500
140.9400,97.0900
141.1600,97.0900
141.1600,97.5500
Z" /> 
<path style="fill:#000000; fill-opacity:1.0000; stroke:none;fill-rule:evenodd;"
d="M 141.4400,97.5500
141.4400,97.0900
141.6600,97.0900
141.6600,97.5500
Z" /> 
<path style="fill:#000000; fill-opacity:1.0000; stroke:none;fill-rule:evenodd;"
d="M 141.9400,97.5500
141.9400,97.0900
142.1600,97.0900
142.1600,97.5500
Z" /> 
<path style="fill:#000000; fill-opacity:1.0000; stroke:none;fill-rule:evenodd;"
d="M 141.9400,96.0100
141.9400,95.5500
142.1600,95.5500
142.1600,96.0100
Z" /> 
<path style="fill:#000000; fill-opacity:1.0000; stroke:none;fill-rule:evenodd;"
d="M 141.4400,96.0100
141.4400,95.5500
141.6600,95.5500
141.6600,96.0100
Z" /> 
<path style="fill:#000000; fill-opacity:1.0000; stroke:none;fill-rule:evenodd;"
d="M 140.9400,96.0100
140.9400,95.5500
141.1600,95.5500
141.1600,96.0100
Z" /> 
<path style="fill:#000000; fill-opacity:1.0000; stroke:none;fill-rule:evenodd;"
d="M 141.0500,96.9000
141.0500,96.2000
142.0500,96.2000
142.0500,96.9000
Z" /> 
<path style="fill:#000000; fill-opacity:1.0000; stroke:none;fill-rule:evenodd;"
d="M 126.8400,111.6500
126.8400,111.1900
127.0600,111.1900
127.0600,111.6500
Z" /> 
<path style="fill:#000000; fill-opacity:1.0000; stroke:none;fill-rule:evenodd;"
d="M 127.3400,111.6500
127.3400,111.1900
127.5600,111.1900
127.5600,111.6500
Z" /> 
<path style="fill:#000000; fill-opacity:1.0000; stroke:none;fill-rule:evenodd;"
d="M 127.8400,111.6500
127.8400,111.1900
128.0600,111.1900
128.0600,111.6500
Z" /> 
<path style="fill:#000000; fill-opacity:1.0000; stroke:none;fill-rule:evenodd;"
d="M 127.8400,110.1100
127.8400,109.6500
128.0600,109.6500
128.0600,110.1100
Z" /> 
<path style="fill:#000000; fill-opacity:1.0000; stroke:none;fill-rule:evenodd;"
d="M 127.3400,110.1100
127.3400,109.6500
127.5600,109.6500
127.5600,110.1100
Z" /> 
<path style="fill:#000000; fill-opacity:1.0000; stroke:none;fill-rule:evenodd;"
d="M 126.8400,110.1100
126.8400,109.6500
127.0600,109.6500
127.0600,110.1100
Z" /> 
<path style="fill:#000000; fill-opacity:1.0000; stroke:none;fill-rule:evenodd;"
d="M 126.9500,111.0000
126.9500,110.3000
127.9500,110.3000
127.9500,111.0000
Z" /> 
<path style="fill:#000000; fill-opacity:1.0000; stroke:none;fill-rule:evenodd;"
d="M 131.5400,111.6500
131.5400,111.1900
131.7600,111.1900
131.7600,111.6500
Z" /> 
<path style="fill:#000000; fill-opacity:1.0000; stroke:none;fill-rule:evenodd;"
d="M 132.0400,111.6500
132.0400,111.1900
132.2600,111.1900
132.2600,111.6500
Z" /> 
<path style="fill:#000000; fill-opacity:1.0000; stroke:none;fill-rule:evenodd;"
d="M 132.5400,111.6500
132.5400,111.1900
132.7600,111.1900
132.7600,111.6500
Z" /> 
<path style="fill:#000000; fill-opacity:1.0000; stroke:none;fill-rule:evenodd;"
d="M 132.5400,110.1100
132.5400,109.6500
132.7600,109.6500
132.7600,110.1100
Z" /> 
<path style="fill:#000000; fill-opacity:1.0000; stroke:none;fill-rule:evenodd;"
d="M 132.0400,110.1100
132.0400,109.6500
132.2600,109.6500
132.2600,110.1100
Z" /> 
<path style="fill:#000000; fill-opacity:1.0000; stroke:none;fill-rule:evenodd;"
d="M 131.5400,110.1100
131.5400,109.6500
131.7600,109.6500
131.7600,110.1100
Z" /> 
<path style="fill:#000000; fill-opacity:1.0000; stroke:none;fill-rule:evenodd;"
d="M 131.6500,111.0000
131.6500,110.3000
132.6500,110.3000
132.6500,111.0000
Z" /> 
<path style="fill:#000000; fill-opacity:1.0000; stroke:none;fill-rule:evenodd;"
d="M 131.5400,106.9500
131.5400,106.4900
131.7600,106.4900
131.7600,106.9500
Z" /> 
<path style="fill:#000000; fill-opacity:1.0000; stroke:none;fill-rule:evenodd;"
d="M 132.0400,106.9500
132.0400,106.4900
132.2600,106.4900
132.2600,106.9500
Z" /> 
<path style="fill:#000000; fill-opacity:1.0000; stroke:none;fill-rule:evenodd;"
d="M 132.5400,106.9500
132.5400,106.4900
132.7600,106.4900
132.7600,106.9500
Z" /> 
<path style="fill:#000000; fill-opacity:1.0000; stroke:none;fill-rule:evenodd;"
d="M 132.5400,105.4100
132.5400,104.9500
132.7600,104.9500
132.7600,105.4100
Z" /> 
<path style="fill:#000000; fill-opacity:1.0000; stroke:none;fill-rule:evenodd;"
d="M 132.0400,105.4100
132.0400,104.9500
132.2600,104.9500
132.2600,105.4100
Z" /> 
<path style="fill:#000000; fill-opacity:1.0000; stroke:none;fill-rule:evenodd;"
d="M 131.5400,105.4100
131.5400,104.9500
131.7600,104.9500
131.7600,105.4100
Z" /> 
<path style="fill:#000000; fill-opacity:1.0000; stroke:none;fill-rule:evenodd;"
d="M 131.6500,106.3000
131.6500,105.6000
132.6500,105.6000
132.6500,106.3000
Z" /> 
<path style="fill:#000000; fill-opacity:1.0000; stroke:none;fill-rule:evenodd;"
d="M 136.2400,111.6500
136.2400,111.1900
136.4600,111.1900
136.4600,111.6500
Z" /> 
<path style="fill:#000000; fill-opacity:1.0000; stroke:none;fill-rule:evenodd;"
d="M 136.7400,111.6500
136.7400,111.1900
136.9600,111.1900
136.9600,111.6500
Z" /> 
<path style="fill:#000000; fill-opacity:1.0000; stroke:none;fill-rule:evenodd;"
d="M 137.2400,111.6500
137.2400,111.1900
137.4600,111.1900
137.4600,111.6500
Z" /> 
<path style="fill:#000000; fill-opacity:1.0000; stroke:none;fill-rule:evenodd;"
d="M 137.2400,110.1100
137.2400,109.6500
137.4600,109.6500
137.4600,110.1100
Z" /> 
<path style="fill:#000000; fill-opacity:1.0000; stroke:none;fill-rule:evenodd;"
d="M 136.7400,110.1100
136.7400,109.6500
136.9600,109.6500
136.9600,110.1100
Z" /> 
<path style="fill:#000000; fill-opacity:1.0000; stroke:none;fill-rule:evenodd;"
d="M 136.2400,110.1100
136.2400,109.6500
136.4600,109.6500
136.4600,110.1100
Z" /> 
<path style="fill:#000000; fill-opacity:1.0000; stroke:none;fill-rule:evenodd;"
d="M 136.3500,111.0000
136.3500,110.3000
137.3500,110.3000
137.3500,111.0000
Z" /> 
<path style="fill:#000000; fill-opacity:1.0000; stroke:none;fill-rule:evenodd;"
d="M 136.2400,97.5500
136.2400,97.0900
136.4600,97.0900
136.4600,97.5500
Z" /> 
<path style="fill:#000000; fill-opacity:1.0000; stroke:none;fill-rule:evenodd;"
d="M 136.7400,97.5500
136.7400,97.0900
136.9600,97.0900
136.9600,97.5500
Z" /> 
<path style="fill:#000000; fill-opacity:1.0000; stroke:none;fill-rule:evenodd;"
d="M 137.2400,97.5500
137.2400,97.0900
137.4600,97.0900
137.4600,97.5500
Z" /> 
<path style="fill:#000000; fill-opacity:1.0000; stroke:none;fill-rule:evenodd;"
d="M 137.2400,96.0100
137.2400,95.5500
137.4600,95.5500
137.4600,96.0100
Z" /> 
<path style="fill:#000000; fill-opacity:1.0000; stroke:none;fill-rule:evenodd;"
d="M 136.7400,96.0100
136.7400,95.5500
136.9600,95.5500
136.9600,96.0100
Z" /> 
<path style="fill:#000000; fill-opacity:1.0000; stroke:none;fill-rule:evenodd;"
d="M 136.2400,96.0100
136.2400,95.5500
136.4600,95.5500
136.4600,96.0100
Z" /> 
<path style="fill:#000000; fill-opacity:1.0000; stroke:none;fill-rule:evenodd;"
d="M 136.3500,96.9000
136.3500,96.2000
137.3500,96.2000
137.3500,96.9000
Z" /> 
<circle cx="137.8260" cy="96.9620" r="0.2286" /> 
<circle cx="128.5000" cy="110.6500" r="0.2286" /> 
<circle cx="128.5000" cy="96.5500" r="0.2286" /> 
<circle cx="134.8500" cy="102.4000" r="0.2286" /> 
<circle cx="142.6000" cy="96.5500" r="0.2286" /> 
<circle cx="126.3500" cy="111.3000" r="0.2286" /> 
<circle cx="128.7790" cy="92.2600" r="0.2286" /> 
<circle cx="131.0000" cy="111.2500" r="0.2286" /> 
<circle cx="137.9000" cy="101.2500" r="0.2286" /> 
<circle cx="140.4500" cy="101.8500" r="0.2286" /> 
<circle cx="128.5000" cy="101.2500" r="0.2286" /> 
<circle cx="131.0500" cy="101.8500" r="0.2286" /> 
<circle cx="131.0500" cy="106.5500" r="0.2286" /> 
<circle cx="134.8500" cy="97.7000" r="0.2286" /> 
<circle cx="140.4000" cy="106.5500" r="0.2286" /> 
<circle cx="142.6000" cy="110.6500" r="0.2286" /> 
<circle cx="140.2400" cy="92.2600" r="0.2286" /> 
<circle cx="133.2000" cy="96.5500" r="0.2286" /> 
<circle cx="137.9000" cy="105.9500" r="0.2286" /> 
<circle cx="142.6000" cy="105.9500" r="0.2286" /> 
<circle cx="133.2000" cy="101.2500" r="0.2286" /> 
<circle cx="142.6000" cy="101.2500" r="0.2286" /> 
<circle cx="135.7000" cy="111.2500" r="0.2286" /> 
<circle cx="140.4000" cy="111.2500" r="0.2286" /> 
<circle cx="133.2000" cy="110.6500" r="0.2286" /> 
<circle cx="140.4500" cy="97.1500" r="0.2286" /> 
<circle cx="134.8500" cy="107.1000" r="0.2286" /> 
<circle cx="126.3500" cy="101.8500" r="0.2286" /> 
<circle cx="128.5000" cy="105.9500" r="0.2286" /> 
<circle cx="133.2000" cy="105.9500" r="0.2286" /> 
<circle cx="126.3500" cy="106.5500" r="0.2286" /> 
<circle cx="126.3500" cy="97.1500" r="0.2286" /> 
<circle cx="131.0500" cy="97.1500" r="0.2286" /> 
<circle cx="137.9000" cy="110.6500" r="0.2286" /> 
<circle cx="140.5800" cy="113.1240" r="0.2286" /> 
<circle cx="130.4300" cy="94.0020" r="0.2286" /> 
<circle cx="140.4000" cy="105.1750" r="0.2286" /> 
<circle cx="130.9750" cy="109.8875" r="0.2286" /> 
<circle cx="130.9500" cy="95.7750" r="0.2286" /> 
<circle cx="135.6000" cy="95.7750" r="0.2286" /> 
<circle cx="140.1265" cy="96.0735" r="0.2286" /> 
<circle cx="139.5205" cy="94.5475" r="0.2286" /> 
<circle cx="130.9500" cy="105.1750" r="0.2286" /> 
<circle cx="126.1500" cy="109.8750" r="0.2286" /> 
<circle cx="126.2500" cy="100.4750" r="0.2286" /> 
<circle cx="126.3380" cy="96.2800" r="0.2286" /> 
<circle cx="135.6000" cy="105.2000" r="0.2286" /> 
<circle cx="126.2500" cy="105.1750" r="0.2286" /> 
<circle cx="129.2750" cy="111.3750" r="0.2286" /> 
<circle cx="130.8750" cy="100.4750" r="0.2286" /> 
<circle cx="140.3500" cy="100.4750" r="0.2286" /> 
<circle cx="135.6000" cy="109.9000" r="0.2286" /> 
<circle cx="140.3000" cy="109.8750" r="0.2286" /> 
<circle cx="135.6000" cy="100.4750" r="0.2286" /> 
<circle cx="135.0810" cy="93.2900" r="0.2286" /> 
<circle cx="137.8490" cy="96.0470" r="0.2286" /> 
<circle cx="137.8490" cy="96.0470" r="0.2286" /> 
</g>
<g style="fill:none; 
stroke:#000000; stroke-width:0.2032; stroke-opacity:1; 
stroke-linecap:round; stroke-linejoin:round;">
<path d="M126.9500 97.3200
L126.5200 97.3200
" />
<path d="M141.5500 101.2500
L141.5500 102.0200
" />
<path d="M127.4500 105.9500
L127.4500 106.7200
" />
<path d="M141.5500 110.6500
L141.5500 109.8800
" />
<path d="M132.1500 105.9500
L132.1500 106.7200
" />
</g>
<g style="fill:none; 
stroke:#000000; stroke-width:0.1524; stroke-opacity:1; 
stroke-linecap:round; stroke-linejoin:round;">
<path d="M129.6100 92.2600
L128.7790 92.2600
" />
<path d="M139.5995 113.1240
L140.5800 113.1240
" />
</g>
<g style="fill:none; 
stroke:#000000; stroke-width:0.2032; stroke-opacity:1; 
stroke-linecap:round; stroke-linejoin:round;">
<path d="M132.1500 96.5500
L132.1500 95.7800
" />
<path d="M132.1500 96.5500
L133.2000 96.5500
" />
<path d="M136.8500 97.3200
L136.8500 96.5500
" />
<path d="M126.5200 97.3200
L126.3500 97.1500
" />
<path d="M132.1500 110.6500
L133.2000 110.6500
" />
<path d="M126.9500 111.4200
L127.4500 111.4200
" />
<path d="M131.6500 102.0200
L132.1500 102.0200
" />
<path d="M131.1700 111.4200
L131.0000 111.2500
" />
<path d="M136.3500 111.4200
L136.8500 111.4200
" />
<path d="M141.0500 102.0200
L141.5500 102.0200
" />
<path d="M131.2200 106.7200
L131.0500 106.5500
" />
</g>
<g style="fill:none; 
stroke:#000000; stroke-width:0.1524; stroke-opacity:1; 
stroke-linecap:round; stroke-linejoin:round;">
<path d="M136.3500 102.0500
L136.3500 102.0200
" />
</g>
<g style="fill:none; 
stroke:#000000; stroke-width:0.2032; stroke-opacity:1; 
stroke-linecap:round; stroke-linejoin:round;">
<path d="M140.6200 102.0200
L140.4500 101.8500
" />
<path d="M132.1500 100.4800
L132.1500 101.2500
" />
<path d="M141.0500 106.7200
L140.5700 106.7200
" />
<path d="M136.8500 105.9500
L136.8500 105.1800
" />
<path d="M127.4500 101.2500
L128.5000 101.2500
" />
</g>
<g style="fill:none; 
stroke:#000000; stroke-width:0.1524; stroke-opacity:1; 
stroke-linecap:round; stroke-linejoin:round;">
<path d="M134.8500 107.1000
L135.9500 107.1000
" />
</g>
<g style="fill:none; 
stroke:#000000; stroke-width:0.2032; stroke-opacity:1; 
stroke-linecap:round; stroke-linejoin:round;">
<path d="M136.3500 102.0200
L136.8500 102.0200
" />
<path d="M131.6500 97.3200
L132.1500 97.3200
" />
<path d="M141.5500 96.5500
L142.6000 96.5500
" />
<path d="M132.1500 110.6500
L132.1500 111.4200
" />
<path d="M126.4700 111.4200
L126.3500 111.3000
" />
<path d="M127.4500 100.4800
L127.4500 101.2500
" />
<path d="M136.3500 106.7200
L136.8500 106.7200
" />
<path d="M136.8500 96.5500
L136.8500 95.7800
" />
<path d="M141.5500 110.6500
L141.5500 111.4200
" />
<path d="M126.5200 106.7200
L126.3500 106.5500
" />
<path d="M131.6500 102.0200
L131.2200 102.0200
" />
<path d="M136.8500 101.2500
L136.8500 100.4800
" />
<path d="M137.4710 96.5500
L136.8500 96.5500
" />
</g>
<g style="fill:none; 
stroke:#000000; stroke-width:0.1524; stroke-opacity:1; 
stroke-linecap:round; stroke-linejoin:round;">
<path d="M136.0000 97.7000
L136.3500 97.3500
" />
</g>
<g style="fill:none; 
stroke:#000000; stroke-width:0.2032; stroke-opacity:1; 
stroke-linecap:round; stroke-linejoin:round;">
<path d="M131.6500 111.4200
L132.1500 111.4200
" />
<path d="M136.3500 97.3200
L136.8500 97.3200
" />
<path d="M141.0500 102.0200
L140.6200 102.0200
" />
<path d="M127.4500 110.6500
L127.4500 109.8800
" />
<path d="M126.9500 97.3200
L127.4500 97.3200
" />
<path d="M141.0500 111.4200
L140.5700 111.4200
" />
<path d="M136.8500 110.6500
L136.8500 111.4200
" />
<path d="M132.1500 101.2500
L132.1500 102.0200
" />
<path d="M127.4500 102.0200
L127.4500 101.2500
" />
<path d="M141.0500 106.7200
L141.5500 106.7200
" />
<path d="M136.8500 101.2500
L136.8500 102.0200
" />
<path d="M126.9500 102.0200
L126.5200 102.0200
" />
<path d="M136.8500 105.9500
L136.8500 106.7200
" />
<path d="M126.9500 106.7200
L126.5200 106.7200
" />
<path d="M131.6500 97.3200
L131.2200 97.3200
" />
<path d="M140.5700 106.7200
L140.4000 106.5500
" />
</g>
<g style="fill:none; 
stroke:#000000; stroke-width:0.1524; stroke-opacity:1; 
stroke-linecap:round; stroke-linejoin:round;">
<path d="M139.4100 92.2600
L140.2400 92.2600
" />
</g>
<g style="fill:none; 
stroke:#000000; stroke-width:0.2032; stroke-opacity:1; 
stroke-linecap:round; stroke-linejoin:round;">
<path d="M127.4500 95.7800
L127.4500 96.5500
" />
<path d="M132.1500 101.2500
L133.2000 101.2500
" />
<path d="M135.8700 111.4200
L135.7000 111.2500
" />
<path d="M126.9500 102.0200
L127.4500 102.0200
" />
<path d="M131.6500 106.7200
L131.2200 106.7200
" />
<path d="M127.4500 97.3200
L127.4500 96.5500
" />
<path d="M140.5700 111.4200
L140.4000 111.2500
" />
</g>
<g style="fill:none; 
stroke:#000000; stroke-width:0.1524; stroke-opacity:1; 
stroke-linecap:round; stroke-linejoin:round;">
<path d="M136.0000 102.4000
L136.3500 102.0500
" />
</g>
<g style="fill:none; 
stroke:#000000; stroke-width:0.2032; stroke-opacity:1; 
stroke-linecap:round; stroke-linejoin:round;">
<path d="M132.1500 105.9500
L133.2000 105.9500
" />
</g>
<g style="fill:none; 
stroke:#000000; stroke-width:0.1524; stroke-opacity:1; 
stroke-linecap:round; stroke-linejoin:round;">
<path d="M134.8500 102.4000
L136.0000 102.4000
" />
</g>
<g style="fill:none; 
stroke:#000000; stroke-width:0.2032; stroke-opacity:1; 
stroke-linecap:round; stroke-linejoin:round;">
<path d="M141.5500 101.2500
L141.5500 100.4800
" />
<path d="M127.4500 96.5500
L128.5000 96.5500
" />
<path d="M136.8500 101.2500
L137.9000 101.2500
" />
<path d="M132.1500 105.9500
L132.1500 105.1800
" />
<path d="M141.5500 97.3200
L141.5500 96.5500
" />
<path d="M141.0500 111.4200
L141.5500 111.4200
" />
<path d="M141.5500 110.6500
L142.6000 110.6500
" />
<path d="M136.3500 111.4200
L135.8700 111.4200
" />
<path d="M137.8260 96.9620
L137.8260 96.9050
" />
<path d="M127.4500 110.6500
L127.4500 111.4200
" />
<path d="M137.8260 96.9050
L137.4710 96.5500
" />
</g>
<g style="fill:none; 
stroke:#000000; stroke-width:0.1524; stroke-opacity:1; 
stroke-linecap:round; stroke-linejoin:round;">
<path d="M134.8500 97.7000
L136.0000 97.7000
" />
</g>
<g style="fill:none; 
stroke:#000000; stroke-width:0.2032; stroke-opacity:1; 
stroke-linecap:round; stroke-linejoin:round;">
<path d="M127.4500 105.9500
L128.5000 105.9500
" />
<path d="M136.8500 110.6500
L136.8500 109.8800
" />
</g>
<g style="fill:none; 
stroke:#000000; stroke-width:0.1524; stroke-opacity:1; 
stroke-linecap:round; stroke-linejoin:round;">
<path d="M136.3500 97.3500
L136.3500 97.3200
" />
<path d="M130.9100 94.1100
L130.8020 94.0020
" />
</g>
<g style="fill:none; 
stroke:#000000; stroke-width:0.2032; stroke-opacity:1; 
stroke-linecap:round; stroke-linejoin:round;">
<path d="M126.9500 111.4200
L126.4700 111.4200
" />
<path d="M141.5500 101.2500
L142.6000 101.2500
" />
<path d="M131.6500 111.4200
L131.1700 111.4200
" />
<path d="M132.1500 96.5500
L132.1500 97.3200
" />
</g>
<g style="fill:none; 
stroke:#000000; stroke-width:0.1524; stroke-opacity:1; 
stroke-linecap:round; stroke-linejoin:round;">
<path d="M136.3300 106.7200
L136.3500 106.7200
" />
</g>
<g style="fill:none; 
stroke:#000000; stroke-width:0.2032; stroke-opacity:1; 
stroke-linecap:round; stroke-linejoin:round;">
<path d="M131.2200 102.0200
L131.0500 101.8500
" />
<path d="M132.1500 110.6500
L132.1500 109.8800
" />
<path d="M140.6200 97.3200
L140.4500 97.1500
" />
<path d="M127.4500 110.6500
L128.5000 110.6500
" />
<path d="M141.5500 105.9500
L141.5500 105.1800
" />
</g>
<g style="fill:none; 
stroke:#000000; stroke-width:0.1524; stroke-opacity:1; 
stroke-linecap:round; stroke-linejoin:round;">
<path d="M130.8020 94.0020
L130.4300 94.0020
" />
</g>
<g style="fill:none; 
stroke:#000000; stroke-width:0.2032; stroke-opacity:1; 
stroke-linecap:round; stroke-linejoin:round;">
<path d="M127.4500 105.9500
L127.4500 105.1800
" />
<path d="M136.8500 110.6500
L137.9000 110.6500
" />
<path d="M141.5500 105.9500
L141.5500 106.7200
" />
<path d="M141.0500 97.3200
L141.5500 97.3200
" />
<path d="M126.9500 106.7200
L127.4500 106.7200
" />
<path d="M136.8500 105.9500
L137.9000 105.9500
" />
<path d="M131.2200 97.3200
L131.0500 97.1500
" />
<path d="M141.5500 105.9500
L142.6000 105.9500
" />
<path d="M126.5200 102.0200
L126.3500 101.8500
" />
<path d="M141.5500 96.5500
L141.5500 95.7800
" />
<path d="M131.6500 106.7200
L132.1500 106.7200
" />
<path d="M141.0500 97.3200
L140.6200 97.3200
" />
</g>
<g style="fill:none; 
stroke:#000000; stroke-width:0.1524; stroke-opacity:1; 
stroke-linecap:round; stroke-linejoin:round;">
<path d="M135.9500 107.1000
L136.3300 106.7200
" />
<path d="M132.6500 97.3200
L132.6500 100.4800
" />
<path d="M133.3100 95.1200
L132.6500 95.7800
" />
<path d="M132.8444 93.3620
L125.7515 93.3620
" />
<path d="M125.7515 93.3620
L125.6355 93.2460
" />
<path d="M133.3100 94.1100
L133.3100 93.8276
" />
<path d="M133.3100 94.1100
L133.3100 95.1200
" />
<path d="M133.3100 93.8276
L132.8444 93.3620
" />
<path d="M138.9750 94.0020
L138.2180 94.0020
" />
<path d="M136.3500 100.4800
L135.6050 100.4800
" />
<path d="M141.0450 109.8750
L141.0500 109.8800
" />
<path d="M130.8800 100.4800
L130.8750 100.4750
" />
<path d="M130.9550 105.1800
L130.9500 105.1750
" />
<path d="M136.3450 95.7750
L136.3500 95.7800
" />
<path d="M135.6000 109.9000
L135.7500 109.9000
" />
<path d="M140.1265 96.0735
L140.4250 95.7750
" />
<path d="M135.6000 95.7750
L136.3450 95.7750
" />
<path d="M131.6500 109.8800
L130.9825 109.8800
" />
<path d="M131.6500 105.1800
L130.9550 105.1800
" />
<path d="M139.5205 94.5475
L138.9750 94.0020
" />
<path d="M131.6500 100.4800
L130.8800 100.4800
" />
<path d="M126.1500 109.8750
L126.9450 109.8750
" />
<path d="M126.9500 100.4800
L126.2550 100.4800
" />
<path d="M140.3500 100.4750
L141.0450 100.4750
" />
<path d="M136.3450 100.4750
L136.3500 100.4800
" />
<path d="M140.4250 95.7750
L141.0450 95.7750
" />
<path d="M126.3380 96.2800
L126.8380 95.7800
" />
<path d="M135.6200 105.1800
L135.6000 105.2000
" />
<path d="M135.7500 109.9000
L135.7700 109.8800
" />
<path d="M126.9450 109.8750
L126.9500 109.8800
" />
<path d="M141.0450 100.4750
L141.0500 100.4800
" />
<path d="M126.2550 105.1800
L126.2500 105.1750
" />
<path d="M135.6050 100.4800
L135.6000 100.4750
" />
<path d="M141.0500 105.1800
L140.4050 105.1800
" />
<path d="M138.2180 94.0020
L138.1100 94.1100
" />
<path d="M129.2750 111.3750
L129.2750 112.9994
" />
<path d="M141.0450 95.7750
L141.0500 95.7800
" />
<path d="M131.6500 95.7800
L130.9550 95.7800
" />
<path d="M126.8380 95.7800
L126.9500 95.7800
" />
<path d="M130.9550 95.7800
L130.9500 95.7750
" />
<path d="M126.2550 100.4800
L126.2500 100.4750
" />
<path d="M129.2750 112.9994
L129.3996 113.1240
" />
<path d="M140.3000 109.8750
L141.0450 109.8750
" />
<path d="M136.3500 105.1800
L135.6200 105.1800
" />
<path d="M140.4050 105.1800
L140.4000 105.1750
" />
<path d="M130.9825 109.8800
L130.9750 109.8875
" />
<path d="M135.7700 109.8800
L136.3500 109.8800
" />
<path d="M126.9500 105.1800
L126.2550 105.1800
" />
<path d="M127.9500 102.0200
L127.9500 105.1800
" />
<path d="M127.9500 97.3200
L127.9500 100.4800
" />
<path d="M142.0500 102.0200
L142.0500 105.1800
" />
<path d="M142.0500 97.3200
L142.0500 100.4800
" />
<path d="M137.3100 94.1100
L137.3100 94.3600
" />
<path d="M143.0582 110.8398
L143.0582 96.1138
" />
<path d="M138.0914 95.1414
L142.0858 95.1414
" />
<path d="M142.4780 111.4200
L142.0500 111.4200
" />
<path d="M142.9995 111.9416
L142.4780 111.4200
" />
<path d="M142.4780 111.4200
L143.0582 110.8398
" />
<path d="M137.3100 94.3600
L138.0914 95.1414
" />
<path d="M142.0858 95.1414
L143.0582 96.1138
" />
<path d="M142.9995 113.1240
L142.9995 111.9416
" />
<path d="M137.5338 95.3838
L141.8262 95.3838
" />
<path d="M136.5100 94.1100
L136.5100 94.3600
" />
<path d="M141.8262 95.3838
L142.0500 95.6076
" />
<path d="M136.8938 93.4438
L136.5100 93.8276
" />
<path d="M142.1455 93.7560
L138.8710 93.7560
" />
<path d="M143.4995 95.1100
L142.1455 93.7560
" />
<path d="M136.5100 93.8276
L136.5100 94.1100
" />
<path d="M136.5100 94.3600
L137.5338 95.3838
" />
<path d="M142.0500 95.6076
L142.0500 95.7800
" />
<path d="M138.8710 93.7560
L138.5588 93.4438
" />
<path d="M138.5588 93.4438
L136.8938 93.4438
" />
<path d="M137.3500 111.5944
L137.1272 111.8172
" />
<path d="M134.3918 110.5898
L134.3918 96.3352
" />
<path d="M137.3500 111.4200
L137.3500 111.5944
" />
<path d="M136.1995 112.3975
L135.6192 111.8172
" />
<path d="M134.3918 96.3352
L135.7100 95.0170
" />
<path d="M136.1995 113.1240
L136.1995 112.3975
" />
<path d="M137.1272 111.8172
L135.6192 111.8172
" />
<path d="M135.7100 95.0170
L135.7100 94.1100
" />
<path d="M135.6192 111.8172
L134.3918 110.5898
" />
<path d="M135.1696 93.2014
L135.0810 93.2900
" />
<path d="M143.1529 93.4566
L143.4995 93.1100
" />
<path d="M138.6592 93.2014
L135.1696 93.2014
" />
<path d="M137.3560 95.7740
L137.3500 95.7800
" />
<path d="M134.9100 93.4610
L135.0810 93.2900
" />
<path d="M135.1290 93.2900
L135.2176 93.2014
" />
<path d="M138.9144 93.4566
L143.1529 93.4566
" />
<path d="M137.5760 95.7740
L137.3560 95.7740
" />
<path d="M138.6592 93.2014
L138.9144 93.4566
" />
<path d="M134.9100 94.1100
L134.9100 93.4610
" />
<path d="M137.8490 96.0470
L137.5760 95.7740
" />
<path d="M135.0810 93.2900
L135.1290 93.2900
" />
<path d="M132.6500 112.5440
L132.6500 111.4200
" />
<path d="M134.1100 94.1100
L134.1100 110.3880
" />
<path d="M132.6500 111.4200
L133.0780 111.4200
" />
<path d="M132.7995 113.1240
L132.7995 112.6936
" />
<path d="M132.7995 112.6936
L132.6500 112.5440
" />
<path d="M133.0780 111.4200
L134.1100 110.3880
" />
<path d="M127.9500 111.5944
L127.9500 111.4200
" />
<path d="M128.9582 97.1188
L130.7592 95.3178
" />
<path d="M128.3780 111.4200
L127.9500 111.4200
" />
<path d="M126.4204 113.1240
L127.9500 111.5944
" />
<path d="M131.5522 95.3178
L132.5100 94.3600
" />
<path d="M128.9582 97.1188
L128.9582 110.8398
" />
<path d="M132.5100 94.3600
L132.5100 94.1100
" />
<path d="M125.9995 113.1240
L126.4204 113.1240
" />
<path d="M130.7592 95.3178
L131.5522 95.3178
" />
<path d="M128.9582 110.8398
L128.3780 111.4200
" />
<path d="M131.2994 94.8030
L128.9270 94.8030
" />
<path d="M131.7100 94.1100
L131.7100 94.3924
" />
<path d="M131.7100 94.3924
L131.2994 94.8030
" />
<path d="M125.4895 95.1000
L125.7865 94.8030
" />
<path d="M128.9270 94.8030
L127.9500 95.7800
" />
<path d="M125.7865 94.8030
L128.9270 94.8030
" />
<path d="M132.6500 102.0200
L132.6500 105.1800
" />
<path d="M127.9500 106.7200
L127.9500 109.8800
" />
<path d="M137.3500 106.7200
L137.3500 109.8800
" />
<path d="M137.3500 102.0200
L137.3500 105.1800
" />
<path d="M142.0500 106.7200
L142.0500 109.8800
" />
<path d="M137.3500 97.3200
L137.3500 100.4800
" />
<path d="M132.6500 106.7200
L132.6500 109.8800
" />
</g>
<g style="fill:#FFFFFF; fill-opacity:1.0000; stroke:none;">
<circle cx="137.8260" cy="96.9620" r="0.1270" /> 
<circle cx="128.5000" cy="110.6500" r="0.1270" /> 
<circle cx="128.5000" cy="96.5500" r="0.1270" /> 
<circle cx="134.8500" cy="102.4000" r="0.1270" /> 
<circle cx="142.6000" cy="96.5500" r="0.1270" /> 
<circle cx="126.3500" cy="111.3000" r="0.1270" /> 
<circle cx="128.7790" cy="92.2600" r="0.1270" /> 
<circle cx="131.0000" cy="111.2500" r="0.1270" /> 
<circle cx="137.9000" cy="101.2500" r="0.1270" /> 
<circle cx="140.4500" cy="101.8500" r="0.1270" /> 
<circle cx="128.5000" cy="101.2500" r="0.1270" /> 
<circle cx="131.0500" cy="101.8500" r="0.1270" /> 
<circle cx="131.0500" cy="106.5500" r="0.1270" /> 
<circle cx="134.8500" cy="97.7000" r="0.1270" /> 
<circle cx="140.4000" cy="106.5500" r="0.1270" /> 
<circle cx="142.6000" cy="110.6500" r="0.1270" /> 
<circle cx="140.2400" cy="92.2600" r="0.1270" /> 
<circle cx="133.2000" cy="96.5500" r="0.1270" /> 
<circle cx="137.9000" cy="105.9500" r="0.1270" /> 
<circle cx="142.6000" cy="105.9500" r="0.1270" /> 
<circle cx="133.2000" cy="101.2500" r="0.1270" /> 
<circle cx="142.6000" cy="101.2500" r="0.1270" /> 
<circle cx="135.7000" cy="111.2500" r="0.1270" /> 
<circle cx="140.4000" cy="111.2500" r="0.1270" /> 
<circle cx="133.2000" cy="110.6500" r="0.1270" /> 
<circle cx="140.4500" cy="97.1500" r="0.1270" /> 
<circle cx="134.8500" cy="107.1000" r="0.1270" /> 
<circle cx="126.3500" cy="101.8500" r="0.1270" /> 
<circle cx="128.5000" cy="105.9500" r="0.1270" /> 
<circle cx="133.2000" cy="105.9500" r="0.1270" /> 
<circle cx="126.3500" cy="106.5500" r="0.1270" /> 
<circle cx="126.3500" cy="97.1500" r="0.1270" /> 
<circle cx="131.0500" cy="97.1500" r="0.1270" /> 
<circle cx="137.9000" cy="110.6500" r="0.1270" /> 
<circle cx="140.5800" cy="113.1240" r="0.1270" /> 
<circle cx="130.4300" cy="94.0020" r="0.1270" /> 
<circle cx="140.4000" cy="105.1750" r="0.1270" /> 
<circle cx="130.9750" cy="109.8875" r="0.1270" /> 
<circle cx="130.9500" cy="95.7750" r="0.1270" /> 
<circle cx="135.6000" cy="95.7750" r="0.1270" /> 
<circle cx="140.1265" cy="96.0735" r="0.1270" /> 
<circle cx="139.5205" cy="94.5475" r="0.1270" /> 
<circle cx="130.9500" cy="105.1750" r="0.1270" /> 
<circle cx="126.1500" cy="109.8750" r="0.1270" /> 
<circle cx="126.2500" cy="100.4750" r="0.1270" /> 
<circle cx="126.3380" cy="96.2800" r="0.1270" /> 
<circle cx="135.6000" cy="105.2000" r="0.1270" /> 
<circle cx="126.2500" cy="105.1750" r="0.1270" /> 
<circle cx="129.2750" cy="111.3750" r="0.1270" /> 
<circle cx="130.8750" cy="100.4750" r="0.1270" /> 
<circle cx="140.3500" cy="100.4750" r="0.1270" /> 
<circle cx="135.6000" cy="109.9000" r="0.1270" /> 
<circle cx="140.3000" cy="109.8750" r="0.1270" /> 
<circle cx="135.6000" cy="100.4750" r="0.1270" /> 
<circle cx="135.0810" cy="93.2900" r="0.1270" /> 
<circle cx="137.8490" cy="96.0470" r="0.1270" /> 
<circle cx="137.8490" cy="96.0470" r="0.1270" /> 
</g> 
</svg>
