M48
; DRILL file {KiCad 9.0.2} date 2026-05-20T07:32:52+0900
; FORMAT={-:-/ absolute / inch / decimal}
; #@! TF.CreationDate,2026-05-20T07:32:52+09:00
; #@! TF.GenerationSoftware,Kicad,Pcbnew,9.0.2
; #@! TF.FileFunction,Plated,1,2,PTH
FMAT,2
INCH
; #@! TA.AperFunction,Plated,PTH,ViaDrill
T1C0.0100
%
G90
G05
T1
X4.7569Y-4.0108
X4.7598Y-4.1407
X4.9665Y-4.3258
X4.9695Y-3.7707
X4.9705Y-3.9557
X4.9705Y-4.1407
X5.0591Y-3.8012
X5.0591Y-3.9862
X5.0591Y-4.1713
X5.0591Y-4.3563
X5.1526Y-3.9557
X5.1555Y-3.7707
X5.1555Y-4.1407
X5.1565Y-4.3263
X5.2362Y-4.5886
X5.2441Y-3.8012
X5.2441Y-3.9862
X5.2441Y-4.1713
X5.2441Y-4.3563
X5.3386Y-3.7707
X5.3386Y-3.9557
X5.3386Y-4.1417
X5.3386Y-4.3327
X5.377Y-4.6004
X5.378Y-4.6535
X5.4291Y-3.8012
X5.4291Y-3.9862
X5.4291Y-4.1713
X5.4291Y-4.3563
X5.5236Y-4.3258
X5.5256Y-3.9557
X5.5276Y-4.1407
X5.5285Y-3.7707
X5.6142Y-3.8012
X5.6142Y-3.9862
X5.6142Y-4.1713
X5.6142Y-4.3563
M30
