%TF.GenerationSoftware,KiCad,Pcbnew,9.0.2*%
%TF.CreationDate,2026-05-20T07:34:02+09:00*%
%TF.ProjectId,4x4,3478342e-6b69-4636-9164-5f7063625858,rev?*%
%TF.SameCoordinates,Original*%
%TF.FileFunction,Copper,L2,Bot*%
%TF.FilePolarity,Positive*%
%FSLAX46Y46*%
G04 Gerber Fmt 4.6, Leading zero omitted, Abs format (unit mm)*
G04 Created by KiCad (PCBNEW 9.0.2) date 2026-05-20 07:34:02*
%MOMM*%
%LPD*%
G01*
G04 APERTURE LIST*
%TA.AperFunction,ViaPad*%
%ADD10C,0.457200*%
%TD*%
%TA.AperFunction,Conductor*%
%ADD11C,0.152400*%
%TD*%
G04 APERTURE END LIST*
D10*
%TO.N,GND*%
X136575000Y-116850000D03*
X136600000Y-118200000D03*
%TO.N,VDD*%
X133000000Y-116550000D03*
X140400000Y-105175000D03*
X130975000Y-109887500D03*
X130950000Y-95775000D03*
X135600000Y-95775000D03*
X140425000Y-95775000D03*
X130950000Y-105175000D03*
X126150000Y-109875000D03*
X126250000Y-100475000D03*
X126225000Y-95775000D03*
X135600000Y-105200000D03*
X126250000Y-105175000D03*
X130875000Y-100475000D03*
X140350000Y-100475000D03*
X120900000Y-105175000D03*
X135600000Y-110050000D03*
X140300000Y-109875000D03*
X135600000Y-100475000D03*
%TO.N,GND*%
X137900000Y-96550000D03*
X128500000Y-110650000D03*
X128500000Y-96550000D03*
X142600000Y-96550000D03*
X137900000Y-101250000D03*
X128500000Y-101250000D03*
X142600000Y-110650000D03*
X133200000Y-96550000D03*
X137900000Y-105950000D03*
X142600000Y-105950000D03*
X133200000Y-101250000D03*
X142600000Y-101250000D03*
X120825000Y-101875000D03*
X133200000Y-110650000D03*
X128500000Y-105950000D03*
X133200000Y-105950000D03*
X137900000Y-110650000D03*
%TD*%
D11*
%TO.N,VDD*%
X133000000Y-116550000D02*
X133000000Y-111700000D01*
X134650000Y-110050000D02*
X135600000Y-110050000D01*
X133000000Y-111700000D02*
X134650000Y-110050000D01*
X135600000Y-110050000D02*
X135600000Y-105925000D01*
X126162500Y-109887500D02*
X126150000Y-109875000D01*
X135600000Y-105200000D02*
X135600000Y-100475000D01*
X130875000Y-100475000D02*
X126250000Y-100475000D01*
X140375000Y-105200000D02*
X140400000Y-105175000D01*
X135600000Y-100475000D02*
X135600000Y-95775000D01*
X133000000Y-111700000D02*
X131500000Y-111700000D01*
X135600000Y-100475000D02*
X140350000Y-100475000D01*
X135600000Y-105200000D02*
X130975000Y-105200000D01*
X135600000Y-110050000D02*
X135775000Y-109875000D01*
X131500000Y-111700000D02*
X130975000Y-111175000D01*
X130950000Y-95775000D02*
X126225000Y-95775000D01*
X135600000Y-105200000D02*
X140375000Y-105200000D01*
X135600000Y-100475000D02*
X130875000Y-100475000D01*
X135775000Y-109875000D02*
X140300000Y-109875000D01*
X135600000Y-95775000D02*
X140425000Y-95775000D01*
X130975000Y-111175000D02*
X130975000Y-109887500D01*
X130975000Y-109887500D02*
X126162500Y-109887500D01*
X126250000Y-105175000D02*
X120900000Y-105175000D01*
X135600000Y-105925000D02*
X135600000Y-105200000D01*
X130950000Y-105175000D02*
X126250000Y-105175000D01*
X130975000Y-105200000D02*
X130950000Y-105175000D01*
X135600000Y-95775000D02*
X130950000Y-95775000D01*
%TD*%
%TA.AperFunction,Conductor*%
%TO.N,GND*%
G36*
X148502292Y-87700605D02*
G01*
X148855225Y-87716923D01*
X148864320Y-87717765D01*
X149212014Y-87766266D01*
X149220983Y-87767943D01*
X149548101Y-87844881D01*
X149562689Y-87848312D01*
X149571484Y-87850814D01*
X149904318Y-87962369D01*
X149912845Y-87965672D01*
X150233974Y-88107464D01*
X150242148Y-88111534D01*
X150425184Y-88213484D01*
X150548822Y-88282350D01*
X150556597Y-88287164D01*
X150846201Y-88485548D01*
X150853498Y-88491059D01*
X151123550Y-88715307D01*
X151130308Y-88721467D01*
X151378532Y-88969691D01*
X151384692Y-88976449D01*
X151608940Y-89246501D01*
X151614451Y-89253798D01*
X151812835Y-89543402D01*
X151817649Y-89551177D01*
X151988462Y-89857845D01*
X151992538Y-89866031D01*
X152134327Y-90187154D01*
X152137630Y-90195681D01*
X152249185Y-90528515D01*
X152251687Y-90537310D01*
X152332054Y-90879006D01*
X152333735Y-90887995D01*
X152382233Y-91235674D01*
X152383076Y-91244779D01*
X152399394Y-91597707D01*
X152399500Y-91602279D01*
X152399500Y-119597720D01*
X152399394Y-119602292D01*
X152383076Y-119955220D01*
X152382233Y-119964325D01*
X152333735Y-120312004D01*
X152332054Y-120320993D01*
X152251687Y-120662689D01*
X152249185Y-120671484D01*
X152137630Y-121004318D01*
X152134327Y-121012845D01*
X151992538Y-121333968D01*
X151988462Y-121342154D01*
X151817649Y-121648822D01*
X151812835Y-121656597D01*
X151614451Y-121946201D01*
X151608940Y-121953498D01*
X151384692Y-122223550D01*
X151378532Y-122230308D01*
X151130308Y-122478532D01*
X151123550Y-122484692D01*
X150853498Y-122708940D01*
X150846201Y-122714451D01*
X150556597Y-122912835D01*
X150548822Y-122917649D01*
X150242154Y-123088462D01*
X150233968Y-123092538D01*
X149912845Y-123234327D01*
X149904318Y-123237630D01*
X149571484Y-123349185D01*
X149562689Y-123351687D01*
X149220993Y-123432054D01*
X149212004Y-123433735D01*
X148864325Y-123482233D01*
X148855220Y-123483076D01*
X148502293Y-123499394D01*
X148497721Y-123499500D01*
X120502279Y-123499500D01*
X120497707Y-123499394D01*
X120144779Y-123483076D01*
X120135674Y-123482233D01*
X119787995Y-123433735D01*
X119779006Y-123432054D01*
X119437310Y-123351687D01*
X119428515Y-123349185D01*
X119095681Y-123237630D01*
X119087154Y-123234327D01*
X118766031Y-123092538D01*
X118757845Y-123088462D01*
X118451177Y-122917649D01*
X118443402Y-122912835D01*
X118153798Y-122714451D01*
X118146501Y-122708940D01*
X117876449Y-122484692D01*
X117869691Y-122478532D01*
X117621467Y-122230308D01*
X117615307Y-122223550D01*
X117391059Y-121953498D01*
X117385548Y-121946201D01*
X117187164Y-121656597D01*
X117182350Y-121648822D01*
X117011537Y-121342154D01*
X117007461Y-121333968D01*
X116996067Y-121308164D01*
X116865672Y-121012845D01*
X116862369Y-121004318D01*
X116750814Y-120671484D01*
X116748312Y-120662689D01*
X116747239Y-120658127D01*
X116667943Y-120320983D01*
X116666266Y-120312014D01*
X116617765Y-119964320D01*
X116616923Y-119955220D01*
X116600606Y-119602292D01*
X116600500Y-119597720D01*
X116600500Y-119475433D01*
X118599500Y-119475433D01*
X118599500Y-119724566D01*
X118632017Y-119971557D01*
X118632017Y-119971562D01*
X118632018Y-119971565D01*
X118678834Y-120146286D01*
X118696496Y-120212199D01*
X118696500Y-120212212D01*
X118791832Y-120442365D01*
X118791834Y-120442369D01*
X118791836Y-120442373D01*
X118848094Y-120539815D01*
X118916403Y-120658130D01*
X119068056Y-120855769D01*
X119068058Y-120855771D01*
X119068062Y-120855776D01*
X119244224Y-121031938D01*
X119244228Y-121031941D01*
X119244230Y-121031943D01*
X119364508Y-121124235D01*
X119441873Y-121183599D01*
X119657627Y-121308164D01*
X119887793Y-121403502D01*
X120128435Y-121467982D01*
X120375435Y-121500500D01*
X120375436Y-121500500D01*
X120624564Y-121500500D01*
X120624565Y-121500500D01*
X120871565Y-121467982D01*
X121112207Y-121403502D01*
X121342373Y-121308164D01*
X121558127Y-121183599D01*
X121755776Y-121031938D01*
X121931938Y-120855776D01*
X122083599Y-120658127D01*
X122208164Y-120442373D01*
X122303502Y-120212207D01*
X122367982Y-119971565D01*
X122400500Y-119724565D01*
X122400500Y-119475435D01*
X122400500Y-119475433D01*
X146599500Y-119475433D01*
X146599500Y-119724566D01*
X146632017Y-119971557D01*
X146632017Y-119971562D01*
X146632018Y-119971565D01*
X146678834Y-120146286D01*
X146696496Y-120212199D01*
X146696500Y-120212212D01*
X146791832Y-120442365D01*
X146791834Y-120442369D01*
X146791836Y-120442373D01*
X146848094Y-120539815D01*
X146916403Y-120658130D01*
X147068056Y-120855769D01*
X147068058Y-120855771D01*
X147068062Y-120855776D01*
X147244224Y-121031938D01*
X147244228Y-121031941D01*
X147244230Y-121031943D01*
X147364508Y-121124235D01*
X147441873Y-121183599D01*
X147657627Y-121308164D01*
X147887793Y-121403502D01*
X148128435Y-121467982D01*
X148375435Y-121500500D01*
X148375436Y-121500500D01*
X148624564Y-121500500D01*
X148624565Y-121500500D01*
X148871565Y-121467982D01*
X149112207Y-121403502D01*
X149342373Y-121308164D01*
X149558127Y-121183599D01*
X149755776Y-121031938D01*
X149931938Y-120855776D01*
X150083599Y-120658127D01*
X150208164Y-120442373D01*
X150303502Y-120212207D01*
X150367982Y-119971565D01*
X150400500Y-119724565D01*
X150400500Y-119475435D01*
X150367982Y-119228435D01*
X150303502Y-118987793D01*
X150208164Y-118757627D01*
X150083599Y-118541873D01*
X149931938Y-118344224D01*
X149755776Y-118168062D01*
X149755771Y-118168058D01*
X149755769Y-118168056D01*
X149558130Y-118016403D01*
X149513597Y-117990692D01*
X149342373Y-117891836D01*
X149342369Y-117891834D01*
X149342365Y-117891832D01*
X149112212Y-117796500D01*
X149112211Y-117796499D01*
X149112207Y-117796498D01*
X148871565Y-117732018D01*
X148871562Y-117732017D01*
X148871560Y-117732017D01*
X148624566Y-117699500D01*
X148624565Y-117699500D01*
X148375435Y-117699500D01*
X148375433Y-117699500D01*
X148128442Y-117732017D01*
X148128437Y-117732017D01*
X147887800Y-117796496D01*
X147887787Y-117796500D01*
X147657634Y-117891832D01*
X147441869Y-118016403D01*
X147244230Y-118168056D01*
X147068056Y-118344230D01*
X146916403Y-118541869D01*
X146791832Y-118757634D01*
X146696500Y-118987787D01*
X146696496Y-118987800D01*
X146632017Y-119228437D01*
X146632017Y-119228442D01*
X146599500Y-119475433D01*
X122400500Y-119475433D01*
X122367982Y-119228435D01*
X122303502Y-118987793D01*
X122208164Y-118757627D01*
X122083599Y-118541873D01*
X121931938Y-118344224D01*
X121755776Y-118168062D01*
X121755771Y-118168058D01*
X121755769Y-118168056D01*
X121558130Y-118016403D01*
X121513597Y-117990692D01*
X121342373Y-117891836D01*
X121342369Y-117891834D01*
X121342365Y-117891832D01*
X121112212Y-117796500D01*
X121112211Y-117796499D01*
X121112207Y-117796498D01*
X120871565Y-117732018D01*
X120871562Y-117732017D01*
X120871560Y-117732017D01*
X120624566Y-117699500D01*
X120624565Y-117699500D01*
X120375435Y-117699500D01*
X120375433Y-117699500D01*
X120128442Y-117732017D01*
X120128437Y-117732017D01*
X119887800Y-117796496D01*
X119887787Y-117796500D01*
X119657634Y-117891832D01*
X119441869Y-118016403D01*
X119244230Y-118168056D01*
X119068056Y-118344230D01*
X118916403Y-118541869D01*
X118791832Y-118757634D01*
X118696500Y-118987787D01*
X118696496Y-118987800D01*
X118632017Y-119228437D01*
X118632017Y-119228442D01*
X118599500Y-119475433D01*
X116600500Y-119475433D01*
X116600500Y-105118508D01*
X120470900Y-105118508D01*
X120470900Y-105231492D01*
X120500142Y-105340627D01*
X120500143Y-105340630D01*
X120556632Y-105438471D01*
X120556634Y-105438474D01*
X120636526Y-105518366D01*
X120727098Y-105570658D01*
X120734370Y-105574856D01*
X120734373Y-105574858D01*
X120843508Y-105604100D01*
X120843510Y-105604100D01*
X120956490Y-105604100D01*
X120956492Y-105604100D01*
X121065627Y-105574858D01*
X121163474Y-105518366D01*
X121243366Y-105438474D01*
X121270660Y-105391198D01*
X121316129Y-105350259D01*
X121356396Y-105341700D01*
X125793604Y-105341700D01*
X125851795Y-105360607D01*
X125879338Y-105391197D01*
X125906634Y-105438474D01*
X125986526Y-105518366D01*
X126077098Y-105570658D01*
X126084370Y-105574856D01*
X126084373Y-105574858D01*
X126193508Y-105604100D01*
X126193510Y-105604100D01*
X126306490Y-105604100D01*
X126306492Y-105604100D01*
X126415627Y-105574858D01*
X126513474Y-105518366D01*
X126593366Y-105438474D01*
X126620660Y-105391198D01*
X126666129Y-105350259D01*
X126706396Y-105341700D01*
X130493604Y-105341700D01*
X130551795Y-105360607D01*
X130579338Y-105391197D01*
X130606634Y-105438474D01*
X130686526Y-105518366D01*
X130777098Y-105570658D01*
X130784370Y-105574856D01*
X130784373Y-105574858D01*
X130893508Y-105604100D01*
X130893510Y-105604100D01*
X131006490Y-105604100D01*
X131006492Y-105604100D01*
X131115627Y-105574858D01*
X131213474Y-105518366D01*
X131293366Y-105438474D01*
X131306225Y-105416200D01*
X131351694Y-105375260D01*
X131391962Y-105366700D01*
X135143604Y-105366700D01*
X135201795Y-105385607D01*
X135229338Y-105416197D01*
X135256634Y-105463474D01*
X135336526Y-105543366D01*
X135383800Y-105570659D01*
X135424741Y-105616127D01*
X135433300Y-105656395D01*
X135433300Y-109593603D01*
X135414393Y-109651794D01*
X135383801Y-109679339D01*
X135336528Y-109706632D01*
X135336526Y-109706634D01*
X135256634Y-109786526D01*
X135229339Y-109833801D01*
X135183871Y-109874741D01*
X135143604Y-109883300D01*
X134616839Y-109883300D01*
X134555572Y-109908677D01*
X134508677Y-109955571D01*
X134508678Y-109955572D01*
X132959946Y-111504304D01*
X132905429Y-111532081D01*
X132889942Y-111533300D01*
X131610058Y-111533300D01*
X131551867Y-111514393D01*
X131540054Y-111504304D01*
X131170696Y-111134946D01*
X131142919Y-111080429D01*
X131141700Y-111064942D01*
X131141700Y-110343895D01*
X131160607Y-110285704D01*
X131191198Y-110258160D01*
X131238474Y-110230866D01*
X131318366Y-110150974D01*
X131374858Y-110053127D01*
X131404100Y-109943992D01*
X131404100Y-109831008D01*
X131374858Y-109721873D01*
X131318366Y-109624026D01*
X131238474Y-109544134D01*
X131216823Y-109531634D01*
X131140629Y-109487643D01*
X131140631Y-109487643D01*
X131127739Y-109484188D01*
X131031492Y-109458400D01*
X130918508Y-109458400D01*
X130822260Y-109484188D01*
X130809369Y-109487643D01*
X130711528Y-109544132D01*
X130631633Y-109624027D01*
X130625952Y-109633868D01*
X130604339Y-109671301D01*
X130558871Y-109712241D01*
X130518604Y-109720800D01*
X126613613Y-109720800D01*
X126555422Y-109701893D01*
X126527877Y-109671300D01*
X126493367Y-109611528D01*
X126493366Y-109611526D01*
X126413474Y-109531634D01*
X126337279Y-109487643D01*
X126315629Y-109475143D01*
X126315631Y-109475143D01*
X126302739Y-109471688D01*
X126206492Y-109445900D01*
X126093508Y-109445900D01*
X125997260Y-109471688D01*
X125984369Y-109475143D01*
X125886528Y-109531632D01*
X125806632Y-109611528D01*
X125750143Y-109709369D01*
X125747080Y-109720800D01*
X125720900Y-109818508D01*
X125720900Y-109931492D01*
X125750142Y-110040627D01*
X125750143Y-110040630D01*
X125806632Y-110138471D01*
X125806634Y-110138474D01*
X125886526Y-110218366D01*
X125916388Y-110235607D01*
X125984370Y-110274856D01*
X125984373Y-110274858D01*
X126093508Y-110304100D01*
X126093510Y-110304100D01*
X126206490Y-110304100D01*
X126206492Y-110304100D01*
X126315627Y-110274858D01*
X126413474Y-110218366D01*
X126493366Y-110138474D01*
X126513442Y-110103700D01*
X126558911Y-110062759D01*
X126599179Y-110054200D01*
X130518604Y-110054200D01*
X130576795Y-110073107D01*
X130604338Y-110103697D01*
X130631634Y-110150974D01*
X130711526Y-110230866D01*
X130758800Y-110258159D01*
X130799741Y-110303627D01*
X130808300Y-110343895D01*
X130808300Y-111208160D01*
X130833676Y-111269425D01*
X130833677Y-111269426D01*
X130833678Y-111269428D01*
X131405572Y-111841322D01*
X131405573Y-111841322D01*
X131405574Y-111841323D01*
X131466839Y-111866700D01*
X131466841Y-111866700D01*
X131533159Y-111866700D01*
X132734300Y-111866700D01*
X132792491Y-111885607D01*
X132828455Y-111935107D01*
X132833300Y-111965700D01*
X132833300Y-116093603D01*
X132814393Y-116151794D01*
X132783801Y-116179339D01*
X132736528Y-116206632D01*
X132656632Y-116286528D01*
X132600143Y-116384369D01*
X132600142Y-116384373D01*
X132570900Y-116493508D01*
X132570900Y-116606492D01*
X132600142Y-116715627D01*
X132600143Y-116715630D01*
X132656632Y-116813471D01*
X132656634Y-116813474D01*
X132736526Y-116893366D01*
X132736528Y-116893367D01*
X132834370Y-116949856D01*
X132834373Y-116949858D01*
X132943508Y-116979100D01*
X132943510Y-116979100D01*
X133056490Y-116979100D01*
X133056492Y-116979100D01*
X133165627Y-116949858D01*
X133263474Y-116893366D01*
X133343366Y-116813474D01*
X133399858Y-116715627D01*
X133429100Y-116606492D01*
X133429100Y-116493508D01*
X133399858Y-116384373D01*
X133343366Y-116286526D01*
X133263474Y-116206634D01*
X133263471Y-116206632D01*
X133216199Y-116179339D01*
X133175259Y-116133869D01*
X133166700Y-116093603D01*
X133166700Y-111810057D01*
X133185607Y-111751866D01*
X133195696Y-111740053D01*
X134690053Y-110245696D01*
X134744570Y-110217919D01*
X134760057Y-110216700D01*
X135143604Y-110216700D01*
X135201795Y-110235607D01*
X135229338Y-110266197D01*
X135256634Y-110313474D01*
X135336526Y-110393366D01*
X135336528Y-110393367D01*
X135434370Y-110449856D01*
X135434373Y-110449858D01*
X135543508Y-110479100D01*
X135543510Y-110479100D01*
X135656490Y-110479100D01*
X135656492Y-110479100D01*
X135765627Y-110449858D01*
X135863474Y-110393366D01*
X135943366Y-110313474D01*
X135999858Y-110215627D01*
X136026800Y-110115075D01*
X136060123Y-110063763D01*
X136117244Y-110041836D01*
X136122426Y-110041700D01*
X139843604Y-110041700D01*
X139901795Y-110060607D01*
X139929338Y-110091197D01*
X139956634Y-110138474D01*
X140036526Y-110218366D01*
X140066388Y-110235607D01*
X140134370Y-110274856D01*
X140134373Y-110274858D01*
X140243508Y-110304100D01*
X140243510Y-110304100D01*
X140356490Y-110304100D01*
X140356492Y-110304100D01*
X140465627Y-110274858D01*
X140563474Y-110218366D01*
X140643366Y-110138474D01*
X140699858Y-110040627D01*
X140729100Y-109931492D01*
X140729100Y-109818508D01*
X140699858Y-109709373D01*
X140698275Y-109706632D01*
X140643367Y-109611528D01*
X140643366Y-109611526D01*
X140563474Y-109531634D01*
X140487279Y-109487643D01*
X140465629Y-109475143D01*
X140465631Y-109475143D01*
X140452739Y-109471688D01*
X140356492Y-109445900D01*
X140243508Y-109445900D01*
X140147260Y-109471688D01*
X140134369Y-109475143D01*
X140036528Y-109531632D01*
X139956633Y-109611527D01*
X139949417Y-109624026D01*
X139929339Y-109658801D01*
X139883871Y-109699741D01*
X139843604Y-109708300D01*
X135892887Y-109708300D01*
X135843386Y-109695036D01*
X135816199Y-109679339D01*
X135775258Y-109633868D01*
X135766700Y-109593603D01*
X135766700Y-105656395D01*
X135785607Y-105598204D01*
X135816198Y-105570660D01*
X135863474Y-105543366D01*
X135943366Y-105463474D01*
X135970660Y-105416198D01*
X136016129Y-105375259D01*
X136056396Y-105366700D01*
X139958038Y-105366700D01*
X140016229Y-105385607D01*
X140043773Y-105416199D01*
X140056634Y-105438474D01*
X140136526Y-105518366D01*
X140227098Y-105570658D01*
X140234370Y-105574856D01*
X140234373Y-105574858D01*
X140343508Y-105604100D01*
X140343510Y-105604100D01*
X140456490Y-105604100D01*
X140456492Y-105604100D01*
X140565627Y-105574858D01*
X140663474Y-105518366D01*
X140743366Y-105438474D01*
X140799858Y-105340627D01*
X140829100Y-105231492D01*
X140829100Y-105118508D01*
X140799858Y-105009373D01*
X140785093Y-104983800D01*
X140743367Y-104911528D01*
X140743366Y-104911526D01*
X140663474Y-104831634D01*
X140610000Y-104800761D01*
X140565629Y-104775143D01*
X140565631Y-104775143D01*
X140552739Y-104771688D01*
X140456492Y-104745900D01*
X140343508Y-104745900D01*
X140247260Y-104771688D01*
X140234369Y-104775143D01*
X140136528Y-104831632D01*
X140056632Y-104911528D01*
X140014906Y-104983800D01*
X139969437Y-105024741D01*
X139929170Y-105033300D01*
X136056396Y-105033300D01*
X135998205Y-105014393D01*
X135970661Y-104983802D01*
X135943366Y-104936526D01*
X135863474Y-104856634D01*
X135863471Y-104856632D01*
X135816199Y-104829339D01*
X135775259Y-104783869D01*
X135766700Y-104743603D01*
X135766700Y-100931395D01*
X135785607Y-100873204D01*
X135816198Y-100845660D01*
X135863474Y-100818366D01*
X135943366Y-100738474D01*
X135970660Y-100691198D01*
X136016129Y-100650259D01*
X136056396Y-100641700D01*
X139893604Y-100641700D01*
X139951795Y-100660607D01*
X139979338Y-100691197D01*
X140006634Y-100738474D01*
X140086526Y-100818366D01*
X140183299Y-100874238D01*
X140184370Y-100874856D01*
X140184373Y-100874858D01*
X140293508Y-100904100D01*
X140293510Y-100904100D01*
X140406490Y-100904100D01*
X140406492Y-100904100D01*
X140515627Y-100874858D01*
X140613474Y-100818366D01*
X140693366Y-100738474D01*
X140749858Y-100640627D01*
X140779100Y-100531492D01*
X140779100Y-100418508D01*
X140749858Y-100309373D01*
X140693366Y-100211526D01*
X140613474Y-100131634D01*
X140518488Y-100076794D01*
X140515629Y-100075143D01*
X140515631Y-100075143D01*
X140502739Y-100071688D01*
X140406492Y-100045900D01*
X140293508Y-100045900D01*
X140197260Y-100071688D01*
X140184369Y-100075143D01*
X140086528Y-100131632D01*
X140006633Y-100211527D01*
X139997933Y-100226594D01*
X139979339Y-100258801D01*
X139933871Y-100299741D01*
X139893604Y-100308300D01*
X136056396Y-100308300D01*
X135998205Y-100289393D01*
X135970661Y-100258802D01*
X135943366Y-100211526D01*
X135863474Y-100131634D01*
X135863471Y-100131632D01*
X135816199Y-100104339D01*
X135775259Y-100058869D01*
X135766700Y-100018603D01*
X135766700Y-96231395D01*
X135785607Y-96173204D01*
X135816198Y-96145660D01*
X135863474Y-96118366D01*
X135943366Y-96038474D01*
X135970660Y-95991198D01*
X136016129Y-95950259D01*
X136056396Y-95941700D01*
X139968604Y-95941700D01*
X140026795Y-95960607D01*
X140054338Y-95991197D01*
X140081634Y-96038474D01*
X140161526Y-96118366D01*
X140258299Y-96174238D01*
X140259370Y-96174856D01*
X140259373Y-96174858D01*
X140368508Y-96204100D01*
X140368510Y-96204100D01*
X140481490Y-96204100D01*
X140481492Y-96204100D01*
X140590627Y-96174858D01*
X140688474Y-96118366D01*
X140768366Y-96038474D01*
X140824858Y-95940627D01*
X140854100Y-95831492D01*
X140854100Y-95718508D01*
X140824858Y-95609373D01*
X140768366Y-95511526D01*
X140688474Y-95431634D01*
X140590629Y-95375143D01*
X140590631Y-95375143D01*
X140577739Y-95371688D01*
X140481492Y-95345900D01*
X140368508Y-95345900D01*
X140272260Y-95371688D01*
X140259369Y-95375143D01*
X140161528Y-95431632D01*
X140081633Y-95511527D01*
X140072933Y-95526594D01*
X140054339Y-95558801D01*
X140008871Y-95599741D01*
X139968604Y-95608300D01*
X136056396Y-95608300D01*
X135998205Y-95589393D01*
X135970661Y-95558802D01*
X135943366Y-95511526D01*
X135863474Y-95431634D01*
X135765629Y-95375143D01*
X135765631Y-95375143D01*
X135752739Y-95371688D01*
X135656492Y-95345900D01*
X135543508Y-95345900D01*
X135447260Y-95371688D01*
X135434369Y-95375143D01*
X135336528Y-95431632D01*
X135256633Y-95511527D01*
X135247933Y-95526594D01*
X135229339Y-95558801D01*
X135183871Y-95599741D01*
X135143604Y-95608300D01*
X131406396Y-95608300D01*
X131348205Y-95589393D01*
X131320661Y-95558802D01*
X131293366Y-95511526D01*
X131213474Y-95431634D01*
X131115629Y-95375143D01*
X131115631Y-95375143D01*
X131102739Y-95371688D01*
X131006492Y-95345900D01*
X130893508Y-95345900D01*
X130797260Y-95371688D01*
X130784369Y-95375143D01*
X130686528Y-95431632D01*
X130606633Y-95511527D01*
X130597933Y-95526594D01*
X130579339Y-95558801D01*
X130533871Y-95599741D01*
X130493604Y-95608300D01*
X126681396Y-95608300D01*
X126623205Y-95589393D01*
X126595661Y-95558802D01*
X126568366Y-95511526D01*
X126488474Y-95431634D01*
X126390629Y-95375143D01*
X126390631Y-95375143D01*
X126377739Y-95371688D01*
X126281492Y-95345900D01*
X126168508Y-95345900D01*
X126072260Y-95371688D01*
X126059369Y-95375143D01*
X125961528Y-95431632D01*
X125881632Y-95511528D01*
X125825143Y-95609369D01*
X125825142Y-95609373D01*
X125795900Y-95718508D01*
X125795900Y-95831492D01*
X125825142Y-95940627D01*
X125825143Y-95940630D01*
X125836677Y-95960607D01*
X125881634Y-96038474D01*
X125961526Y-96118366D01*
X126058299Y-96174238D01*
X126059370Y-96174856D01*
X126059373Y-96174858D01*
X126168508Y-96204100D01*
X126168510Y-96204100D01*
X126281490Y-96204100D01*
X126281492Y-96204100D01*
X126390627Y-96174858D01*
X126488474Y-96118366D01*
X126568366Y-96038474D01*
X126595660Y-95991198D01*
X126641129Y-95950259D01*
X126681396Y-95941700D01*
X130493604Y-95941700D01*
X130551795Y-95960607D01*
X130579338Y-95991197D01*
X130606634Y-96038474D01*
X130686526Y-96118366D01*
X130783299Y-96174238D01*
X130784370Y-96174856D01*
X130784373Y-96174858D01*
X130893508Y-96204100D01*
X130893510Y-96204100D01*
X131006490Y-96204100D01*
X131006492Y-96204100D01*
X131115627Y-96174858D01*
X131213474Y-96118366D01*
X131293366Y-96038474D01*
X131320660Y-95991198D01*
X131366129Y-95950259D01*
X131406396Y-95941700D01*
X135143604Y-95941700D01*
X135201795Y-95960607D01*
X135229338Y-95991197D01*
X135256634Y-96038474D01*
X135336526Y-96118366D01*
X135383800Y-96145659D01*
X135424741Y-96191127D01*
X135433300Y-96231395D01*
X135433300Y-100018603D01*
X135414393Y-100076794D01*
X135383801Y-100104339D01*
X135336528Y-100131632D01*
X135256633Y-100211527D01*
X135247933Y-100226594D01*
X135229339Y-100258801D01*
X135183871Y-100299741D01*
X135143604Y-100308300D01*
X131331396Y-100308300D01*
X131273205Y-100289393D01*
X131245661Y-100258802D01*
X131218366Y-100211526D01*
X131138474Y-100131634D01*
X131043488Y-100076794D01*
X131040629Y-100075143D01*
X131040631Y-100075143D01*
X131027739Y-100071688D01*
X130931492Y-100045900D01*
X130818508Y-100045900D01*
X130722260Y-100071688D01*
X130709369Y-100075143D01*
X130611528Y-100131632D01*
X130531633Y-100211527D01*
X130522933Y-100226594D01*
X130504339Y-100258801D01*
X130458871Y-100299741D01*
X130418604Y-100308300D01*
X126706396Y-100308300D01*
X126648205Y-100289393D01*
X126620661Y-100258802D01*
X126593366Y-100211526D01*
X126513474Y-100131634D01*
X126418488Y-100076794D01*
X126415629Y-100075143D01*
X126415631Y-100075143D01*
X126402739Y-100071688D01*
X126306492Y-100045900D01*
X126193508Y-100045900D01*
X126097260Y-100071688D01*
X126084369Y-100075143D01*
X125986528Y-100131632D01*
X125906632Y-100211528D01*
X125850143Y-100309369D01*
X125850142Y-100309373D01*
X125820900Y-100418508D01*
X125820900Y-100531492D01*
X125850142Y-100640627D01*
X125850143Y-100640630D01*
X125861677Y-100660607D01*
X125906634Y-100738474D01*
X125986526Y-100818366D01*
X126083299Y-100874238D01*
X126084370Y-100874856D01*
X126084373Y-100874858D01*
X126193508Y-100904100D01*
X126193510Y-100904100D01*
X126306490Y-100904100D01*
X126306492Y-100904100D01*
X126415627Y-100874858D01*
X126513474Y-100818366D01*
X126593366Y-100738474D01*
X126620660Y-100691198D01*
X126666129Y-100650259D01*
X126706396Y-100641700D01*
X130418604Y-100641700D01*
X130476795Y-100660607D01*
X130504338Y-100691197D01*
X130531634Y-100738474D01*
X130611526Y-100818366D01*
X130708299Y-100874238D01*
X130709370Y-100874856D01*
X130709373Y-100874858D01*
X130818508Y-100904100D01*
X130818510Y-100904100D01*
X130931490Y-100904100D01*
X130931492Y-100904100D01*
X131040627Y-100874858D01*
X131138474Y-100818366D01*
X131218366Y-100738474D01*
X131245660Y-100691198D01*
X131291129Y-100650259D01*
X131331396Y-100641700D01*
X135143604Y-100641700D01*
X135201795Y-100660607D01*
X135229338Y-100691197D01*
X135256634Y-100738474D01*
X135336526Y-100818366D01*
X135383800Y-100845659D01*
X135424741Y-100891127D01*
X135433300Y-100931395D01*
X135433300Y-104743603D01*
X135414393Y-104801794D01*
X135383801Y-104829339D01*
X135336528Y-104856632D01*
X135336526Y-104856634D01*
X135256634Y-104936526D01*
X135229339Y-104983801D01*
X135183871Y-105024741D01*
X135143604Y-105033300D01*
X131420830Y-105033300D01*
X131362639Y-105014393D01*
X131335094Y-104983800D01*
X131293367Y-104911528D01*
X131293366Y-104911526D01*
X131213474Y-104831634D01*
X131160000Y-104800761D01*
X131115629Y-104775143D01*
X131115631Y-104775143D01*
X131102739Y-104771688D01*
X131006492Y-104745900D01*
X130893508Y-104745900D01*
X130797260Y-104771688D01*
X130784369Y-104775143D01*
X130686528Y-104831632D01*
X130606633Y-104911527D01*
X130597933Y-104926594D01*
X130579339Y-104958801D01*
X130533871Y-104999741D01*
X130493604Y-105008300D01*
X126706396Y-105008300D01*
X126648205Y-104989393D01*
X126620661Y-104958802D01*
X126593366Y-104911526D01*
X126513474Y-104831634D01*
X126460000Y-104800761D01*
X126415629Y-104775143D01*
X126415631Y-104775143D01*
X126402739Y-104771688D01*
X126306492Y-104745900D01*
X126193508Y-104745900D01*
X126097260Y-104771688D01*
X126084369Y-104775143D01*
X125986528Y-104831632D01*
X125906633Y-104911527D01*
X125897933Y-104926594D01*
X125879339Y-104958801D01*
X125833871Y-104999741D01*
X125793604Y-105008300D01*
X121356396Y-105008300D01*
X121298205Y-104989393D01*
X121270661Y-104958802D01*
X121243366Y-104911526D01*
X121163474Y-104831634D01*
X121110000Y-104800761D01*
X121065629Y-104775143D01*
X121065631Y-104775143D01*
X121052739Y-104771688D01*
X120956492Y-104745900D01*
X120843508Y-104745900D01*
X120747260Y-104771688D01*
X120734369Y-104775143D01*
X120636528Y-104831632D01*
X120556632Y-104911528D01*
X120500143Y-105009369D01*
X120500142Y-105009373D01*
X120470900Y-105118508D01*
X116600500Y-105118508D01*
X116600500Y-91602279D01*
X116600606Y-91597707D01*
X116606259Y-91475433D01*
X118599500Y-91475433D01*
X118599500Y-91724566D01*
X118632017Y-91971557D01*
X118632017Y-91971562D01*
X118632018Y-91971565D01*
X118678834Y-92146286D01*
X118696496Y-92212199D01*
X118696500Y-92212212D01*
X118791832Y-92442365D01*
X118791834Y-92442369D01*
X118791836Y-92442373D01*
X118850621Y-92544192D01*
X118916403Y-92658130D01*
X119068056Y-92855769D01*
X119068058Y-92855771D01*
X119068062Y-92855776D01*
X119244224Y-93031938D01*
X119244228Y-93031941D01*
X119244230Y-93031943D01*
X119364508Y-93124235D01*
X119441873Y-93183599D01*
X119657627Y-93308164D01*
X119887793Y-93403502D01*
X120128435Y-93467982D01*
X120375435Y-93500500D01*
X120375436Y-93500500D01*
X120624564Y-93500500D01*
X120624565Y-93500500D01*
X120871565Y-93467982D01*
X121112207Y-93403502D01*
X121342373Y-93308164D01*
X121558127Y-93183599D01*
X121755776Y-93031938D01*
X121931938Y-92855776D01*
X122083599Y-92658127D01*
X122208164Y-92442373D01*
X122303502Y-92212207D01*
X122367982Y-91971565D01*
X122400500Y-91724565D01*
X122400500Y-91475435D01*
X122400500Y-91475433D01*
X146599500Y-91475433D01*
X146599500Y-91724566D01*
X146632017Y-91971557D01*
X146632017Y-91971562D01*
X146632018Y-91971565D01*
X146678834Y-92146286D01*
X146696496Y-92212199D01*
X146696500Y-92212212D01*
X146791832Y-92442365D01*
X146791834Y-92442369D01*
X146791836Y-92442373D01*
X146850621Y-92544192D01*
X146916403Y-92658130D01*
X147068056Y-92855769D01*
X147068058Y-92855771D01*
X147068062Y-92855776D01*
X147244224Y-93031938D01*
X147244228Y-93031941D01*
X147244230Y-93031943D01*
X147364508Y-93124235D01*
X147441873Y-93183599D01*
X147657627Y-93308164D01*
X147887793Y-93403502D01*
X148128435Y-93467982D01*
X148375435Y-93500500D01*
X148375436Y-93500500D01*
X148624564Y-93500500D01*
X148624565Y-93500500D01*
X148871565Y-93467982D01*
X149112207Y-93403502D01*
X149342373Y-93308164D01*
X149558127Y-93183599D01*
X149755776Y-93031938D01*
X149931938Y-92855776D01*
X150083599Y-92658127D01*
X150208164Y-92442373D01*
X150303502Y-92212207D01*
X150367982Y-91971565D01*
X150400500Y-91724565D01*
X150400500Y-91475435D01*
X150367982Y-91228435D01*
X150303502Y-90987793D01*
X150208164Y-90757627D01*
X150083599Y-90541873D01*
X149931938Y-90344224D01*
X149755776Y-90168062D01*
X149755771Y-90168058D01*
X149755769Y-90168056D01*
X149558130Y-90016403D01*
X149513597Y-89990692D01*
X149342373Y-89891836D01*
X149342369Y-89891834D01*
X149342365Y-89891832D01*
X149112212Y-89796500D01*
X149112211Y-89796499D01*
X149112207Y-89796498D01*
X148871565Y-89732018D01*
X148871562Y-89732017D01*
X148871560Y-89732017D01*
X148624566Y-89699500D01*
X148624565Y-89699500D01*
X148375435Y-89699500D01*
X148375433Y-89699500D01*
X148128442Y-89732017D01*
X148128437Y-89732017D01*
X147887800Y-89796496D01*
X147887787Y-89796500D01*
X147657634Y-89891832D01*
X147441869Y-90016403D01*
X147244230Y-90168056D01*
X147068056Y-90344230D01*
X146916403Y-90541869D01*
X146791832Y-90757634D01*
X146696500Y-90987787D01*
X146696496Y-90987800D01*
X146632017Y-91228437D01*
X146632017Y-91228442D01*
X146599500Y-91475433D01*
X122400500Y-91475433D01*
X122367982Y-91228435D01*
X122303502Y-90987793D01*
X122208164Y-90757627D01*
X122083599Y-90541873D01*
X121931938Y-90344224D01*
X121755776Y-90168062D01*
X121755771Y-90168058D01*
X121755769Y-90168056D01*
X121558130Y-90016403D01*
X121513597Y-89990692D01*
X121342373Y-89891836D01*
X121342369Y-89891834D01*
X121342365Y-89891832D01*
X121112212Y-89796500D01*
X121112211Y-89796499D01*
X121112207Y-89796498D01*
X120871565Y-89732018D01*
X120871562Y-89732017D01*
X120871560Y-89732017D01*
X120624566Y-89699500D01*
X120624565Y-89699500D01*
X120375435Y-89699500D01*
X120375433Y-89699500D01*
X120128442Y-89732017D01*
X120128437Y-89732017D01*
X119887800Y-89796496D01*
X119887787Y-89796500D01*
X119657634Y-89891832D01*
X119441869Y-90016403D01*
X119244230Y-90168056D01*
X119068056Y-90344230D01*
X118916403Y-90541869D01*
X118791832Y-90757634D01*
X118696500Y-90987787D01*
X118696496Y-90987800D01*
X118632017Y-91228437D01*
X118632017Y-91228442D01*
X118599500Y-91475433D01*
X116606259Y-91475433D01*
X116606620Y-91467622D01*
X116616923Y-91244779D01*
X116617766Y-91235674D01*
X116618775Y-91228442D01*
X116666266Y-90887981D01*
X116667942Y-90879020D01*
X116748313Y-90537304D01*
X116750814Y-90528515D01*
X116767262Y-90479442D01*
X116862371Y-90195673D01*
X116865672Y-90187154D01*
X116941066Y-90016403D01*
X117007468Y-89866016D01*
X117011529Y-89857859D01*
X117182355Y-89551167D01*
X117187158Y-89543411D01*
X117385549Y-89253796D01*
X117391059Y-89246501D01*
X117615316Y-88976438D01*
X117621456Y-88969702D01*
X117869702Y-88721456D01*
X117876438Y-88715316D01*
X118146502Y-88491057D01*
X118153798Y-88485548D01*
X118217405Y-88441976D01*
X118443411Y-88287158D01*
X118451167Y-88282355D01*
X118757859Y-88111529D01*
X118766016Y-88107468D01*
X119087161Y-87965669D01*
X119095673Y-87962371D01*
X119428520Y-87850812D01*
X119437304Y-87848313D01*
X119779020Y-87767942D01*
X119787981Y-87766266D01*
X120135681Y-87717765D01*
X120144772Y-87716923D01*
X120497707Y-87700605D01*
X120502279Y-87700500D01*
X120526929Y-87700500D01*
X148473071Y-87700500D01*
X148497721Y-87700500D01*
X148502292Y-87700605D01*
G37*
%TD.AperFunction*%
%TD*%
M02*
