%TF.GenerationSoftware,KiCad,Pcbnew,9.0.2*%
%TF.CreationDate,2026-05-20T07:34:03+09:00*%
%TF.ProjectId,4x4,3478342e-6b69-4636-9164-5f7063625858,rev?*%
%TF.SameCoordinates,Original*%
%TF.FileFunction,Soldermask,Top*%
%TF.FilePolarity,Negative*%
%FSLAX46Y46*%
G04 Gerber Fmt 4.6, Leading zero omitted, Abs format (unit mm)*
G04 Created by KiCad (PCBNEW 9.0.2) date 2026-05-20 07:34:03*
%MOMM*%
%LPD*%
G01*
G04 APERTURE LIST*
G04 APERTURE END LIST*
G36*
X132347701Y-123029001D02*
G01*
X131052301Y-123029001D01*
X131052301Y-121124001D01*
X132347701Y-121124001D01*
X132347701Y-123029001D01*
G37*
G36*
X137947699Y-123029001D02*
G01*
X136652299Y-123029001D01*
X136652299Y-121124001D01*
X137947699Y-121124001D01*
X137947699Y-123029001D01*
G37*
G36*
X133330200Y-118976200D02*
G01*
X132669800Y-118976200D01*
X132669800Y-117426800D01*
X133330200Y-117426800D01*
X133330200Y-118976200D01*
G37*
G36*
X134330201Y-118976200D02*
G01*
X133669801Y-118976200D01*
X133669801Y-117426800D01*
X134330201Y-117426800D01*
X134330201Y-118976200D01*
G37*
G36*
X135330199Y-118976200D02*
G01*
X134669799Y-118976200D01*
X134669799Y-117426800D01*
X135330199Y-117426800D01*
X135330199Y-118976200D01*
G37*
G36*
X136330200Y-118976200D02*
G01*
X135669800Y-118976200D01*
X135669800Y-117426800D01*
X136330200Y-117426800D01*
X136330200Y-118976200D01*
G37*
G36*
X127067654Y-111171522D02*
G01*
X127074142Y-111175858D01*
X127078478Y-111182346D01*
X127080000Y-111190000D01*
X127080000Y-111650000D01*
X127078478Y-111657654D01*
X127074142Y-111664142D01*
X127067654Y-111668478D01*
X127060000Y-111670000D01*
X126840000Y-111670000D01*
X126832346Y-111668478D01*
X126825858Y-111664142D01*
X126821522Y-111657654D01*
X126820000Y-111650000D01*
X126820000Y-111190000D01*
X126821522Y-111182346D01*
X126825858Y-111175858D01*
X126832346Y-111171522D01*
X126840000Y-111170000D01*
X127060000Y-111170000D01*
X127067654Y-111171522D01*
G37*
G36*
X127567654Y-111171522D02*
G01*
X127574142Y-111175858D01*
X127578478Y-111182346D01*
X127580000Y-111190000D01*
X127580000Y-111650000D01*
X127578478Y-111657654D01*
X127574142Y-111664142D01*
X127567654Y-111668478D01*
X127560000Y-111670000D01*
X127340000Y-111670000D01*
X127332346Y-111668478D01*
X127325858Y-111664142D01*
X127321522Y-111657654D01*
X127320000Y-111650000D01*
X127320000Y-111190000D01*
X127321522Y-111182346D01*
X127325858Y-111175858D01*
X127332346Y-111171522D01*
X127340000Y-111170000D01*
X127560000Y-111170000D01*
X127567654Y-111171522D01*
G37*
G36*
X128067654Y-111171522D02*
G01*
X128074142Y-111175858D01*
X128078478Y-111182346D01*
X128080000Y-111190000D01*
X128080000Y-111650000D01*
X128078478Y-111657654D01*
X128074142Y-111664142D01*
X128067654Y-111668478D01*
X128060000Y-111670000D01*
X127840000Y-111670000D01*
X127832346Y-111668478D01*
X127825858Y-111664142D01*
X127821522Y-111657654D01*
X127820000Y-111650000D01*
X127820000Y-111190000D01*
X127821522Y-111182346D01*
X127825858Y-111175858D01*
X127832346Y-111171522D01*
X127840000Y-111170000D01*
X128060000Y-111170000D01*
X128067654Y-111171522D01*
G37*
G36*
X131767654Y-111171522D02*
G01*
X131774142Y-111175858D01*
X131778478Y-111182346D01*
X131780000Y-111190000D01*
X131780000Y-111650000D01*
X131778478Y-111657654D01*
X131774142Y-111664142D01*
X131767654Y-111668478D01*
X131760000Y-111670000D01*
X131540000Y-111670000D01*
X131532346Y-111668478D01*
X131525858Y-111664142D01*
X131521522Y-111657654D01*
X131520000Y-111650000D01*
X131520000Y-111190000D01*
X131521522Y-111182346D01*
X131525858Y-111175858D01*
X131532346Y-111171522D01*
X131540000Y-111170000D01*
X131760000Y-111170000D01*
X131767654Y-111171522D01*
G37*
G36*
X132267654Y-111171522D02*
G01*
X132274142Y-111175858D01*
X132278478Y-111182346D01*
X132280000Y-111190000D01*
X132280000Y-111650000D01*
X132278478Y-111657654D01*
X132274142Y-111664142D01*
X132267654Y-111668478D01*
X132260000Y-111670000D01*
X132040000Y-111670000D01*
X132032346Y-111668478D01*
X132025858Y-111664142D01*
X132021522Y-111657654D01*
X132020000Y-111650000D01*
X132020000Y-111190000D01*
X132021522Y-111182346D01*
X132025858Y-111175858D01*
X132032346Y-111171522D01*
X132040000Y-111170000D01*
X132260000Y-111170000D01*
X132267654Y-111171522D01*
G37*
G36*
X132767654Y-111171522D02*
G01*
X132774142Y-111175858D01*
X132778478Y-111182346D01*
X132780000Y-111190000D01*
X132780000Y-111650000D01*
X132778478Y-111657654D01*
X132774142Y-111664142D01*
X132767654Y-111668478D01*
X132760000Y-111670000D01*
X132540000Y-111670000D01*
X132532346Y-111668478D01*
X132525858Y-111664142D01*
X132521522Y-111657654D01*
X132520000Y-111650000D01*
X132520000Y-111190000D01*
X132521522Y-111182346D01*
X132525858Y-111175858D01*
X132532346Y-111171522D01*
X132540000Y-111170000D01*
X132760000Y-111170000D01*
X132767654Y-111171522D01*
G37*
G36*
X136467654Y-111171522D02*
G01*
X136474142Y-111175858D01*
X136478478Y-111182346D01*
X136480000Y-111190000D01*
X136480000Y-111650000D01*
X136478478Y-111657654D01*
X136474142Y-111664142D01*
X136467654Y-111668478D01*
X136460000Y-111670000D01*
X136240000Y-111670000D01*
X136232346Y-111668478D01*
X136225858Y-111664142D01*
X136221522Y-111657654D01*
X136220000Y-111650000D01*
X136220000Y-111190000D01*
X136221522Y-111182346D01*
X136225858Y-111175858D01*
X136232346Y-111171522D01*
X136240000Y-111170000D01*
X136460000Y-111170000D01*
X136467654Y-111171522D01*
G37*
G36*
X136967654Y-111171522D02*
G01*
X136974142Y-111175858D01*
X136978478Y-111182346D01*
X136980000Y-111190000D01*
X136980000Y-111650000D01*
X136978478Y-111657654D01*
X136974142Y-111664142D01*
X136967654Y-111668478D01*
X136960000Y-111670000D01*
X136740000Y-111670000D01*
X136732346Y-111668478D01*
X136725858Y-111664142D01*
X136721522Y-111657654D01*
X136720000Y-111650000D01*
X136720000Y-111190000D01*
X136721522Y-111182346D01*
X136725858Y-111175858D01*
X136732346Y-111171522D01*
X136740000Y-111170000D01*
X136960000Y-111170000D01*
X136967654Y-111171522D01*
G37*
G36*
X137467654Y-111171522D02*
G01*
X137474142Y-111175858D01*
X137478478Y-111182346D01*
X137480000Y-111190000D01*
X137480000Y-111650000D01*
X137478478Y-111657654D01*
X137474142Y-111664142D01*
X137467654Y-111668478D01*
X137460000Y-111670000D01*
X137240000Y-111670000D01*
X137232346Y-111668478D01*
X137225858Y-111664142D01*
X137221522Y-111657654D01*
X137220000Y-111650000D01*
X137220000Y-111190000D01*
X137221522Y-111182346D01*
X137225858Y-111175858D01*
X137232346Y-111171522D01*
X137240000Y-111170000D01*
X137460000Y-111170000D01*
X137467654Y-111171522D01*
G37*
G36*
X141167654Y-111171522D02*
G01*
X141174142Y-111175858D01*
X141178478Y-111182346D01*
X141180000Y-111190000D01*
X141180000Y-111650000D01*
X141178478Y-111657654D01*
X141174142Y-111664142D01*
X141167654Y-111668478D01*
X141160000Y-111670000D01*
X140940000Y-111670000D01*
X140932346Y-111668478D01*
X140925858Y-111664142D01*
X140921522Y-111657654D01*
X140920000Y-111650000D01*
X140920000Y-111190000D01*
X140921522Y-111182346D01*
X140925858Y-111175858D01*
X140932346Y-111171522D01*
X140940000Y-111170000D01*
X141160000Y-111170000D01*
X141167654Y-111171522D01*
G37*
G36*
X141667654Y-111171522D02*
G01*
X141674142Y-111175858D01*
X141678478Y-111182346D01*
X141680000Y-111190000D01*
X141680000Y-111650000D01*
X141678478Y-111657654D01*
X141674142Y-111664142D01*
X141667654Y-111668478D01*
X141660000Y-111670000D01*
X141440000Y-111670000D01*
X141432346Y-111668478D01*
X141425858Y-111664142D01*
X141421522Y-111657654D01*
X141420000Y-111650000D01*
X141420000Y-111190000D01*
X141421522Y-111182346D01*
X141425858Y-111175858D01*
X141432346Y-111171522D01*
X141440000Y-111170000D01*
X141660000Y-111170000D01*
X141667654Y-111171522D01*
G37*
G36*
X142167654Y-111171522D02*
G01*
X142174142Y-111175858D01*
X142178478Y-111182346D01*
X142180000Y-111190000D01*
X142180000Y-111650000D01*
X142178478Y-111657654D01*
X142174142Y-111664142D01*
X142167654Y-111668478D01*
X142160000Y-111670000D01*
X141940000Y-111670000D01*
X141932346Y-111668478D01*
X141925858Y-111664142D01*
X141921522Y-111657654D01*
X141920000Y-111650000D01*
X141920000Y-111190000D01*
X141921522Y-111182346D01*
X141925858Y-111175858D01*
X141932346Y-111171522D01*
X141940000Y-111170000D01*
X142160000Y-111170000D01*
X142167654Y-111171522D01*
G37*
G36*
X125789034Y-110879764D02*
G01*
X125822125Y-110901875D01*
X125844236Y-110934966D01*
X125852000Y-110974000D01*
X125852000Y-111514000D01*
X125844236Y-111553034D01*
X125822125Y-111586125D01*
X125789034Y-111608236D01*
X125750000Y-111616000D01*
X125150000Y-111616000D01*
X125110966Y-111608236D01*
X125077875Y-111586125D01*
X125055764Y-111553034D01*
X125048000Y-111514000D01*
X125048000Y-110974000D01*
X125055764Y-110934966D01*
X125077875Y-110901875D01*
X125110966Y-110879764D01*
X125150000Y-110872000D01*
X125750000Y-110872000D01*
X125789034Y-110879764D01*
G37*
G36*
X130489034Y-110879764D02*
G01*
X130522125Y-110901875D01*
X130544236Y-110934966D01*
X130552000Y-110974000D01*
X130552000Y-111514000D01*
X130544236Y-111553034D01*
X130522125Y-111586125D01*
X130489034Y-111608236D01*
X130450000Y-111616000D01*
X129850000Y-111616000D01*
X129810966Y-111608236D01*
X129777875Y-111586125D01*
X129755764Y-111553034D01*
X129748000Y-111514000D01*
X129748000Y-110974000D01*
X129755764Y-110934966D01*
X129777875Y-110901875D01*
X129810966Y-110879764D01*
X129850000Y-110872000D01*
X130450000Y-110872000D01*
X130489034Y-110879764D01*
G37*
G36*
X135189034Y-110879764D02*
G01*
X135222125Y-110901875D01*
X135244236Y-110934966D01*
X135252000Y-110974000D01*
X135252000Y-111514000D01*
X135244236Y-111553034D01*
X135222125Y-111586125D01*
X135189034Y-111608236D01*
X135150000Y-111616000D01*
X134550000Y-111616000D01*
X134510966Y-111608236D01*
X134477875Y-111586125D01*
X134455764Y-111553034D01*
X134448000Y-111514000D01*
X134448000Y-110974000D01*
X134455764Y-110934966D01*
X134477875Y-110901875D01*
X134510966Y-110879764D01*
X134550000Y-110872000D01*
X135150000Y-110872000D01*
X135189034Y-110879764D01*
G37*
G36*
X139889034Y-110879764D02*
G01*
X139922125Y-110901875D01*
X139944236Y-110934966D01*
X139952000Y-110974000D01*
X139952000Y-111514000D01*
X139944236Y-111553034D01*
X139922125Y-111586125D01*
X139889034Y-111608236D01*
X139850000Y-111616000D01*
X139250000Y-111616000D01*
X139210966Y-111608236D01*
X139177875Y-111586125D01*
X139155764Y-111553034D01*
X139148000Y-111514000D01*
X139148000Y-110974000D01*
X139155764Y-110934966D01*
X139177875Y-110901875D01*
X139210966Y-110879764D01*
X139250000Y-110872000D01*
X139850000Y-110872000D01*
X139889034Y-110879764D01*
G37*
G36*
X127957654Y-110281522D02*
G01*
X127964142Y-110285858D01*
X127968478Y-110292346D01*
X127970000Y-110300000D01*
X127970000Y-111000000D01*
X127968478Y-111007654D01*
X127964142Y-111014142D01*
X127957654Y-111018478D01*
X127950000Y-111020000D01*
X126950000Y-111020000D01*
X126942346Y-111018478D01*
X126935858Y-111014142D01*
X126931522Y-111007654D01*
X126930000Y-111000000D01*
X126930000Y-110300000D01*
X126931522Y-110292346D01*
X126935858Y-110285858D01*
X126942346Y-110281522D01*
X126950000Y-110280000D01*
X127950000Y-110280000D01*
X127957654Y-110281522D01*
G37*
G36*
X132657654Y-110281522D02*
G01*
X132664142Y-110285858D01*
X132668478Y-110292346D01*
X132670000Y-110300000D01*
X132670000Y-111000000D01*
X132668478Y-111007654D01*
X132664142Y-111014142D01*
X132657654Y-111018478D01*
X132650000Y-111020000D01*
X131650000Y-111020000D01*
X131642346Y-111018478D01*
X131635858Y-111014142D01*
X131631522Y-111007654D01*
X131630000Y-111000000D01*
X131630000Y-110300000D01*
X131631522Y-110292346D01*
X131635858Y-110285858D01*
X131642346Y-110281522D01*
X131650000Y-110280000D01*
X132650000Y-110280000D01*
X132657654Y-110281522D01*
G37*
G36*
X137357654Y-110281522D02*
G01*
X137364142Y-110285858D01*
X137368478Y-110292346D01*
X137370000Y-110300000D01*
X137370000Y-111000000D01*
X137368478Y-111007654D01*
X137364142Y-111014142D01*
X137357654Y-111018478D01*
X137350000Y-111020000D01*
X136350000Y-111020000D01*
X136342346Y-111018478D01*
X136335858Y-111014142D01*
X136331522Y-111007654D01*
X136330000Y-111000000D01*
X136330000Y-110300000D01*
X136331522Y-110292346D01*
X136335858Y-110285858D01*
X136342346Y-110281522D01*
X136350000Y-110280000D01*
X137350000Y-110280000D01*
X137357654Y-110281522D01*
G37*
G36*
X142057654Y-110281522D02*
G01*
X142064142Y-110285858D01*
X142068478Y-110292346D01*
X142070000Y-110300000D01*
X142070000Y-111000000D01*
X142068478Y-111007654D01*
X142064142Y-111014142D01*
X142057654Y-111018478D01*
X142050000Y-111020000D01*
X141050000Y-111020000D01*
X141042346Y-111018478D01*
X141035858Y-111014142D01*
X141031522Y-111007654D01*
X141030000Y-111000000D01*
X141030000Y-110300000D01*
X141031522Y-110292346D01*
X141035858Y-110285858D01*
X141042346Y-110281522D01*
X141050000Y-110280000D01*
X142050000Y-110280000D01*
X142057654Y-110281522D01*
G37*
G36*
X125789034Y-110015764D02*
G01*
X125822125Y-110037875D01*
X125844236Y-110070966D01*
X125852000Y-110110000D01*
X125852000Y-110650000D01*
X125844236Y-110689034D01*
X125822125Y-110722125D01*
X125789034Y-110744236D01*
X125750000Y-110752000D01*
X125150000Y-110752000D01*
X125110966Y-110744236D01*
X125077875Y-110722125D01*
X125055764Y-110689034D01*
X125048000Y-110650000D01*
X125048000Y-110110000D01*
X125055764Y-110070966D01*
X125077875Y-110037875D01*
X125110966Y-110015764D01*
X125150000Y-110008000D01*
X125750000Y-110008000D01*
X125789034Y-110015764D01*
G37*
G36*
X130489034Y-110015764D02*
G01*
X130522125Y-110037875D01*
X130544236Y-110070966D01*
X130552000Y-110110000D01*
X130552000Y-110650000D01*
X130544236Y-110689034D01*
X130522125Y-110722125D01*
X130489034Y-110744236D01*
X130450000Y-110752000D01*
X129850000Y-110752000D01*
X129810966Y-110744236D01*
X129777875Y-110722125D01*
X129755764Y-110689034D01*
X129748000Y-110650000D01*
X129748000Y-110110000D01*
X129755764Y-110070966D01*
X129777875Y-110037875D01*
X129810966Y-110015764D01*
X129850000Y-110008000D01*
X130450000Y-110008000D01*
X130489034Y-110015764D01*
G37*
G36*
X135189034Y-110015764D02*
G01*
X135222125Y-110037875D01*
X135244236Y-110070966D01*
X135252000Y-110110000D01*
X135252000Y-110650000D01*
X135244236Y-110689034D01*
X135222125Y-110722125D01*
X135189034Y-110744236D01*
X135150000Y-110752000D01*
X134550000Y-110752000D01*
X134510966Y-110744236D01*
X134477875Y-110722125D01*
X134455764Y-110689034D01*
X134448000Y-110650000D01*
X134448000Y-110110000D01*
X134455764Y-110070966D01*
X134477875Y-110037875D01*
X134510966Y-110015764D01*
X134550000Y-110008000D01*
X135150000Y-110008000D01*
X135189034Y-110015764D01*
G37*
G36*
X139889034Y-110015764D02*
G01*
X139922125Y-110037875D01*
X139944236Y-110070966D01*
X139952000Y-110110000D01*
X139952000Y-110650000D01*
X139944236Y-110689034D01*
X139922125Y-110722125D01*
X139889034Y-110744236D01*
X139850000Y-110752000D01*
X139250000Y-110752000D01*
X139210966Y-110744236D01*
X139177875Y-110722125D01*
X139155764Y-110689034D01*
X139148000Y-110650000D01*
X139148000Y-110110000D01*
X139155764Y-110070966D01*
X139177875Y-110037875D01*
X139210966Y-110015764D01*
X139250000Y-110008000D01*
X139850000Y-110008000D01*
X139889034Y-110015764D01*
G37*
G36*
X127067654Y-109631522D02*
G01*
X127074142Y-109635858D01*
X127078478Y-109642346D01*
X127080000Y-109650000D01*
X127080000Y-110110000D01*
X127078478Y-110117654D01*
X127074142Y-110124142D01*
X127067654Y-110128478D01*
X127060000Y-110130000D01*
X126840000Y-110130000D01*
X126832346Y-110128478D01*
X126825858Y-110124142D01*
X126821522Y-110117654D01*
X126820000Y-110110000D01*
X126820000Y-109650000D01*
X126821522Y-109642346D01*
X126825858Y-109635858D01*
X126832346Y-109631522D01*
X126840000Y-109630000D01*
X127060000Y-109630000D01*
X127067654Y-109631522D01*
G37*
G36*
X127567654Y-109631522D02*
G01*
X127574142Y-109635858D01*
X127578478Y-109642346D01*
X127580000Y-109650000D01*
X127580000Y-110110000D01*
X127578478Y-110117654D01*
X127574142Y-110124142D01*
X127567654Y-110128478D01*
X127560000Y-110130000D01*
X127340000Y-110130000D01*
X127332346Y-110128478D01*
X127325858Y-110124142D01*
X127321522Y-110117654D01*
X127320000Y-110110000D01*
X127320000Y-109650000D01*
X127321522Y-109642346D01*
X127325858Y-109635858D01*
X127332346Y-109631522D01*
X127340000Y-109630000D01*
X127560000Y-109630000D01*
X127567654Y-109631522D01*
G37*
G36*
X128067654Y-109631522D02*
G01*
X128074142Y-109635858D01*
X128078478Y-109642346D01*
X128080000Y-109650000D01*
X128080000Y-110110000D01*
X128078478Y-110117654D01*
X128074142Y-110124142D01*
X128067654Y-110128478D01*
X128060000Y-110130000D01*
X127840000Y-110130000D01*
X127832346Y-110128478D01*
X127825858Y-110124142D01*
X127821522Y-110117654D01*
X127820000Y-110110000D01*
X127820000Y-109650000D01*
X127821522Y-109642346D01*
X127825858Y-109635858D01*
X127832346Y-109631522D01*
X127840000Y-109630000D01*
X128060000Y-109630000D01*
X128067654Y-109631522D01*
G37*
G36*
X131767654Y-109631522D02*
G01*
X131774142Y-109635858D01*
X131778478Y-109642346D01*
X131780000Y-109650000D01*
X131780000Y-110110000D01*
X131778478Y-110117654D01*
X131774142Y-110124142D01*
X131767654Y-110128478D01*
X131760000Y-110130000D01*
X131540000Y-110130000D01*
X131532346Y-110128478D01*
X131525858Y-110124142D01*
X131521522Y-110117654D01*
X131520000Y-110110000D01*
X131520000Y-109650000D01*
X131521522Y-109642346D01*
X131525858Y-109635858D01*
X131532346Y-109631522D01*
X131540000Y-109630000D01*
X131760000Y-109630000D01*
X131767654Y-109631522D01*
G37*
G36*
X132267654Y-109631522D02*
G01*
X132274142Y-109635858D01*
X132278478Y-109642346D01*
X132280000Y-109650000D01*
X132280000Y-110110000D01*
X132278478Y-110117654D01*
X132274142Y-110124142D01*
X132267654Y-110128478D01*
X132260000Y-110130000D01*
X132040000Y-110130000D01*
X132032346Y-110128478D01*
X132025858Y-110124142D01*
X132021522Y-110117654D01*
X132020000Y-110110000D01*
X132020000Y-109650000D01*
X132021522Y-109642346D01*
X132025858Y-109635858D01*
X132032346Y-109631522D01*
X132040000Y-109630000D01*
X132260000Y-109630000D01*
X132267654Y-109631522D01*
G37*
G36*
X132767654Y-109631522D02*
G01*
X132774142Y-109635858D01*
X132778478Y-109642346D01*
X132780000Y-109650000D01*
X132780000Y-110110000D01*
X132778478Y-110117654D01*
X132774142Y-110124142D01*
X132767654Y-110128478D01*
X132760000Y-110130000D01*
X132540000Y-110130000D01*
X132532346Y-110128478D01*
X132525858Y-110124142D01*
X132521522Y-110117654D01*
X132520000Y-110110000D01*
X132520000Y-109650000D01*
X132521522Y-109642346D01*
X132525858Y-109635858D01*
X132532346Y-109631522D01*
X132540000Y-109630000D01*
X132760000Y-109630000D01*
X132767654Y-109631522D01*
G37*
G36*
X136467654Y-109631522D02*
G01*
X136474142Y-109635858D01*
X136478478Y-109642346D01*
X136480000Y-109650000D01*
X136480000Y-110110000D01*
X136478478Y-110117654D01*
X136474142Y-110124142D01*
X136467654Y-110128478D01*
X136460000Y-110130000D01*
X136240000Y-110130000D01*
X136232346Y-110128478D01*
X136225858Y-110124142D01*
X136221522Y-110117654D01*
X136220000Y-110110000D01*
X136220000Y-109650000D01*
X136221522Y-109642346D01*
X136225858Y-109635858D01*
X136232346Y-109631522D01*
X136240000Y-109630000D01*
X136460000Y-109630000D01*
X136467654Y-109631522D01*
G37*
G36*
X136967654Y-109631522D02*
G01*
X136974142Y-109635858D01*
X136978478Y-109642346D01*
X136980000Y-109650000D01*
X136980000Y-110110000D01*
X136978478Y-110117654D01*
X136974142Y-110124142D01*
X136967654Y-110128478D01*
X136960000Y-110130000D01*
X136740000Y-110130000D01*
X136732346Y-110128478D01*
X136725858Y-110124142D01*
X136721522Y-110117654D01*
X136720000Y-110110000D01*
X136720000Y-109650000D01*
X136721522Y-109642346D01*
X136725858Y-109635858D01*
X136732346Y-109631522D01*
X136740000Y-109630000D01*
X136960000Y-109630000D01*
X136967654Y-109631522D01*
G37*
G36*
X137467654Y-109631522D02*
G01*
X137474142Y-109635858D01*
X137478478Y-109642346D01*
X137480000Y-109650000D01*
X137480000Y-110110000D01*
X137478478Y-110117654D01*
X137474142Y-110124142D01*
X137467654Y-110128478D01*
X137460000Y-110130000D01*
X137240000Y-110130000D01*
X137232346Y-110128478D01*
X137225858Y-110124142D01*
X137221522Y-110117654D01*
X137220000Y-110110000D01*
X137220000Y-109650000D01*
X137221522Y-109642346D01*
X137225858Y-109635858D01*
X137232346Y-109631522D01*
X137240000Y-109630000D01*
X137460000Y-109630000D01*
X137467654Y-109631522D01*
G37*
G36*
X141167654Y-109631522D02*
G01*
X141174142Y-109635858D01*
X141178478Y-109642346D01*
X141180000Y-109650000D01*
X141180000Y-110110000D01*
X141178478Y-110117654D01*
X141174142Y-110124142D01*
X141167654Y-110128478D01*
X141160000Y-110130000D01*
X140940000Y-110130000D01*
X140932346Y-110128478D01*
X140925858Y-110124142D01*
X140921522Y-110117654D01*
X140920000Y-110110000D01*
X140920000Y-109650000D01*
X140921522Y-109642346D01*
X140925858Y-109635858D01*
X140932346Y-109631522D01*
X140940000Y-109630000D01*
X141160000Y-109630000D01*
X141167654Y-109631522D01*
G37*
G36*
X141667654Y-109631522D02*
G01*
X141674142Y-109635858D01*
X141678478Y-109642346D01*
X141680000Y-109650000D01*
X141680000Y-110110000D01*
X141678478Y-110117654D01*
X141674142Y-110124142D01*
X141667654Y-110128478D01*
X141660000Y-110130000D01*
X141440000Y-110130000D01*
X141432346Y-110128478D01*
X141425858Y-110124142D01*
X141421522Y-110117654D01*
X141420000Y-110110000D01*
X141420000Y-109650000D01*
X141421522Y-109642346D01*
X141425858Y-109635858D01*
X141432346Y-109631522D01*
X141440000Y-109630000D01*
X141660000Y-109630000D01*
X141667654Y-109631522D01*
G37*
G36*
X142167654Y-109631522D02*
G01*
X142174142Y-109635858D01*
X142178478Y-109642346D01*
X142180000Y-109650000D01*
X142180000Y-110110000D01*
X142178478Y-110117654D01*
X142174142Y-110124142D01*
X142167654Y-110128478D01*
X142160000Y-110130000D01*
X141940000Y-110130000D01*
X141932346Y-110128478D01*
X141925858Y-110124142D01*
X141921522Y-110117654D01*
X141920000Y-110110000D01*
X141920000Y-109650000D01*
X141921522Y-109642346D01*
X141925858Y-109635858D01*
X141932346Y-109631522D01*
X141940000Y-109630000D01*
X142160000Y-109630000D01*
X142167654Y-109631522D01*
G37*
G36*
X127067654Y-106471522D02*
G01*
X127074142Y-106475858D01*
X127078478Y-106482346D01*
X127080000Y-106490000D01*
X127080000Y-106950000D01*
X127078478Y-106957654D01*
X127074142Y-106964142D01*
X127067654Y-106968478D01*
X127060000Y-106970000D01*
X126840000Y-106970000D01*
X126832346Y-106968478D01*
X126825858Y-106964142D01*
X126821522Y-106957654D01*
X126820000Y-106950000D01*
X126820000Y-106490000D01*
X126821522Y-106482346D01*
X126825858Y-106475858D01*
X126832346Y-106471522D01*
X126840000Y-106470000D01*
X127060000Y-106470000D01*
X127067654Y-106471522D01*
G37*
G36*
X127567654Y-106471522D02*
G01*
X127574142Y-106475858D01*
X127578478Y-106482346D01*
X127580000Y-106490000D01*
X127580000Y-106950000D01*
X127578478Y-106957654D01*
X127574142Y-106964142D01*
X127567654Y-106968478D01*
X127560000Y-106970000D01*
X127340000Y-106970000D01*
X127332346Y-106968478D01*
X127325858Y-106964142D01*
X127321522Y-106957654D01*
X127320000Y-106950000D01*
X127320000Y-106490000D01*
X127321522Y-106482346D01*
X127325858Y-106475858D01*
X127332346Y-106471522D01*
X127340000Y-106470000D01*
X127560000Y-106470000D01*
X127567654Y-106471522D01*
G37*
G36*
X128067654Y-106471522D02*
G01*
X128074142Y-106475858D01*
X128078478Y-106482346D01*
X128080000Y-106490000D01*
X128080000Y-106950000D01*
X128078478Y-106957654D01*
X128074142Y-106964142D01*
X128067654Y-106968478D01*
X128060000Y-106970000D01*
X127840000Y-106970000D01*
X127832346Y-106968478D01*
X127825858Y-106964142D01*
X127821522Y-106957654D01*
X127820000Y-106950000D01*
X127820000Y-106490000D01*
X127821522Y-106482346D01*
X127825858Y-106475858D01*
X127832346Y-106471522D01*
X127840000Y-106470000D01*
X128060000Y-106470000D01*
X128067654Y-106471522D01*
G37*
G36*
X131767654Y-106471522D02*
G01*
X131774142Y-106475858D01*
X131778478Y-106482346D01*
X131780000Y-106490000D01*
X131780000Y-106950000D01*
X131778478Y-106957654D01*
X131774142Y-106964142D01*
X131767654Y-106968478D01*
X131760000Y-106970000D01*
X131540000Y-106970000D01*
X131532346Y-106968478D01*
X131525858Y-106964142D01*
X131521522Y-106957654D01*
X131520000Y-106950000D01*
X131520000Y-106490000D01*
X131521522Y-106482346D01*
X131525858Y-106475858D01*
X131532346Y-106471522D01*
X131540000Y-106470000D01*
X131760000Y-106470000D01*
X131767654Y-106471522D01*
G37*
G36*
X132267654Y-106471522D02*
G01*
X132274142Y-106475858D01*
X132278478Y-106482346D01*
X132280000Y-106490000D01*
X132280000Y-106950000D01*
X132278478Y-106957654D01*
X132274142Y-106964142D01*
X132267654Y-106968478D01*
X132260000Y-106970000D01*
X132040000Y-106970000D01*
X132032346Y-106968478D01*
X132025858Y-106964142D01*
X132021522Y-106957654D01*
X132020000Y-106950000D01*
X132020000Y-106490000D01*
X132021522Y-106482346D01*
X132025858Y-106475858D01*
X132032346Y-106471522D01*
X132040000Y-106470000D01*
X132260000Y-106470000D01*
X132267654Y-106471522D01*
G37*
G36*
X132767654Y-106471522D02*
G01*
X132774142Y-106475858D01*
X132778478Y-106482346D01*
X132780000Y-106490000D01*
X132780000Y-106950000D01*
X132778478Y-106957654D01*
X132774142Y-106964142D01*
X132767654Y-106968478D01*
X132760000Y-106970000D01*
X132540000Y-106970000D01*
X132532346Y-106968478D01*
X132525858Y-106964142D01*
X132521522Y-106957654D01*
X132520000Y-106950000D01*
X132520000Y-106490000D01*
X132521522Y-106482346D01*
X132525858Y-106475858D01*
X132532346Y-106471522D01*
X132540000Y-106470000D01*
X132760000Y-106470000D01*
X132767654Y-106471522D01*
G37*
G36*
X136467654Y-106471522D02*
G01*
X136474142Y-106475858D01*
X136478478Y-106482346D01*
X136480000Y-106490000D01*
X136480000Y-106950000D01*
X136478478Y-106957654D01*
X136474142Y-106964142D01*
X136467654Y-106968478D01*
X136460000Y-106970000D01*
X136240000Y-106970000D01*
X136232346Y-106968478D01*
X136225858Y-106964142D01*
X136221522Y-106957654D01*
X136220000Y-106950000D01*
X136220000Y-106490000D01*
X136221522Y-106482346D01*
X136225858Y-106475858D01*
X136232346Y-106471522D01*
X136240000Y-106470000D01*
X136460000Y-106470000D01*
X136467654Y-106471522D01*
G37*
G36*
X136967654Y-106471522D02*
G01*
X136974142Y-106475858D01*
X136978478Y-106482346D01*
X136980000Y-106490000D01*
X136980000Y-106950000D01*
X136978478Y-106957654D01*
X136974142Y-106964142D01*
X136967654Y-106968478D01*
X136960000Y-106970000D01*
X136740000Y-106970000D01*
X136732346Y-106968478D01*
X136725858Y-106964142D01*
X136721522Y-106957654D01*
X136720000Y-106950000D01*
X136720000Y-106490000D01*
X136721522Y-106482346D01*
X136725858Y-106475858D01*
X136732346Y-106471522D01*
X136740000Y-106470000D01*
X136960000Y-106470000D01*
X136967654Y-106471522D01*
G37*
G36*
X137467654Y-106471522D02*
G01*
X137474142Y-106475858D01*
X137478478Y-106482346D01*
X137480000Y-106490000D01*
X137480000Y-106950000D01*
X137478478Y-106957654D01*
X137474142Y-106964142D01*
X137467654Y-106968478D01*
X137460000Y-106970000D01*
X137240000Y-106970000D01*
X137232346Y-106968478D01*
X137225858Y-106964142D01*
X137221522Y-106957654D01*
X137220000Y-106950000D01*
X137220000Y-106490000D01*
X137221522Y-106482346D01*
X137225858Y-106475858D01*
X137232346Y-106471522D01*
X137240000Y-106470000D01*
X137460000Y-106470000D01*
X137467654Y-106471522D01*
G37*
G36*
X141167654Y-106471522D02*
G01*
X141174142Y-106475858D01*
X141178478Y-106482346D01*
X141180000Y-106490000D01*
X141180000Y-106950000D01*
X141178478Y-106957654D01*
X141174142Y-106964142D01*
X141167654Y-106968478D01*
X141160000Y-106970000D01*
X140940000Y-106970000D01*
X140932346Y-106968478D01*
X140925858Y-106964142D01*
X140921522Y-106957654D01*
X140920000Y-106950000D01*
X140920000Y-106490000D01*
X140921522Y-106482346D01*
X140925858Y-106475858D01*
X140932346Y-106471522D01*
X140940000Y-106470000D01*
X141160000Y-106470000D01*
X141167654Y-106471522D01*
G37*
G36*
X141667654Y-106471522D02*
G01*
X141674142Y-106475858D01*
X141678478Y-106482346D01*
X141680000Y-106490000D01*
X141680000Y-106950000D01*
X141678478Y-106957654D01*
X141674142Y-106964142D01*
X141667654Y-106968478D01*
X141660000Y-106970000D01*
X141440000Y-106970000D01*
X141432346Y-106968478D01*
X141425858Y-106964142D01*
X141421522Y-106957654D01*
X141420000Y-106950000D01*
X141420000Y-106490000D01*
X141421522Y-106482346D01*
X141425858Y-106475858D01*
X141432346Y-106471522D01*
X141440000Y-106470000D01*
X141660000Y-106470000D01*
X141667654Y-106471522D01*
G37*
G36*
X142167654Y-106471522D02*
G01*
X142174142Y-106475858D01*
X142178478Y-106482346D01*
X142180000Y-106490000D01*
X142180000Y-106950000D01*
X142178478Y-106957654D01*
X142174142Y-106964142D01*
X142167654Y-106968478D01*
X142160000Y-106970000D01*
X141940000Y-106970000D01*
X141932346Y-106968478D01*
X141925858Y-106964142D01*
X141921522Y-106957654D01*
X141920000Y-106950000D01*
X141920000Y-106490000D01*
X141921522Y-106482346D01*
X141925858Y-106475858D01*
X141932346Y-106471522D01*
X141940000Y-106470000D01*
X142160000Y-106470000D01*
X142167654Y-106471522D01*
G37*
G36*
X125789034Y-106179764D02*
G01*
X125822125Y-106201875D01*
X125844236Y-106234966D01*
X125852000Y-106274000D01*
X125852000Y-106814000D01*
X125844236Y-106853034D01*
X125822125Y-106886125D01*
X125789034Y-106908236D01*
X125750000Y-106916000D01*
X125150000Y-106916000D01*
X125110966Y-106908236D01*
X125077875Y-106886125D01*
X125055764Y-106853034D01*
X125048000Y-106814000D01*
X125048000Y-106274000D01*
X125055764Y-106234966D01*
X125077875Y-106201875D01*
X125110966Y-106179764D01*
X125150000Y-106172000D01*
X125750000Y-106172000D01*
X125789034Y-106179764D01*
G37*
G36*
X130489034Y-106179764D02*
G01*
X130522125Y-106201875D01*
X130544236Y-106234966D01*
X130552000Y-106274000D01*
X130552000Y-106814000D01*
X130544236Y-106853034D01*
X130522125Y-106886125D01*
X130489034Y-106908236D01*
X130450000Y-106916000D01*
X129850000Y-106916000D01*
X129810966Y-106908236D01*
X129777875Y-106886125D01*
X129755764Y-106853034D01*
X129748000Y-106814000D01*
X129748000Y-106274000D01*
X129755764Y-106234966D01*
X129777875Y-106201875D01*
X129810966Y-106179764D01*
X129850000Y-106172000D01*
X130450000Y-106172000D01*
X130489034Y-106179764D01*
G37*
G36*
X135189034Y-106179764D02*
G01*
X135222125Y-106201875D01*
X135244236Y-106234966D01*
X135252000Y-106274000D01*
X135252000Y-106814000D01*
X135244236Y-106853034D01*
X135222125Y-106886125D01*
X135189034Y-106908236D01*
X135150000Y-106916000D01*
X134550000Y-106916000D01*
X134510966Y-106908236D01*
X134477875Y-106886125D01*
X134455764Y-106853034D01*
X134448000Y-106814000D01*
X134448000Y-106274000D01*
X134455764Y-106234966D01*
X134477875Y-106201875D01*
X134510966Y-106179764D01*
X134550000Y-106172000D01*
X135150000Y-106172000D01*
X135189034Y-106179764D01*
G37*
G36*
X139889034Y-106179764D02*
G01*
X139922125Y-106201875D01*
X139944236Y-106234966D01*
X139952000Y-106274000D01*
X139952000Y-106814000D01*
X139944236Y-106853034D01*
X139922125Y-106886125D01*
X139889034Y-106908236D01*
X139850000Y-106916000D01*
X139250000Y-106916000D01*
X139210966Y-106908236D01*
X139177875Y-106886125D01*
X139155764Y-106853034D01*
X139148000Y-106814000D01*
X139148000Y-106274000D01*
X139155764Y-106234966D01*
X139177875Y-106201875D01*
X139210966Y-106179764D01*
X139250000Y-106172000D01*
X139850000Y-106172000D01*
X139889034Y-106179764D01*
G37*
G36*
X119781790Y-104530393D02*
G01*
X119945952Y-104583733D01*
X120099748Y-104662096D01*
X120239393Y-104763553D01*
X120361447Y-104885607D01*
X120462904Y-105025252D01*
X120541267Y-105179048D01*
X120594607Y-105343210D01*
X120621609Y-105513695D01*
X120621609Y-105686305D01*
X120594607Y-105856790D01*
X120541267Y-106020952D01*
X120462904Y-106174748D01*
X120361447Y-106314393D01*
X120239393Y-106436447D01*
X120099748Y-106537904D01*
X119945952Y-106616267D01*
X119781790Y-106669607D01*
X119611305Y-106696609D01*
X119438695Y-106696609D01*
X119268210Y-106669607D01*
X119104048Y-106616267D01*
X118950252Y-106537904D01*
X118810607Y-106436447D01*
X118688553Y-106314393D01*
X118587096Y-106174748D01*
X118508733Y-106020952D01*
X118455393Y-105856790D01*
X118428391Y-105686305D01*
X118428391Y-105513695D01*
X118455393Y-105343210D01*
X118508733Y-105179048D01*
X118587096Y-105025252D01*
X118688553Y-104885607D01*
X118810607Y-104763553D01*
X118950252Y-104662096D01*
X119104048Y-104583733D01*
X119268210Y-104530393D01*
X119438695Y-104503391D01*
X119611305Y-104503391D01*
X119781790Y-104530393D01*
G37*
G36*
X149806790Y-104530393D02*
G01*
X149970952Y-104583733D01*
X150124748Y-104662096D01*
X150264393Y-104763553D01*
X150386447Y-104885607D01*
X150487904Y-105025252D01*
X150566267Y-105179048D01*
X150619607Y-105343210D01*
X150646609Y-105513695D01*
X150646609Y-105686305D01*
X150619607Y-105856790D01*
X150566267Y-106020952D01*
X150487904Y-106174748D01*
X150386447Y-106314393D01*
X150264393Y-106436447D01*
X150124748Y-106537904D01*
X149970952Y-106616267D01*
X149806790Y-106669607D01*
X149636305Y-106696609D01*
X149463695Y-106696609D01*
X149293210Y-106669607D01*
X149129048Y-106616267D01*
X148975252Y-106537904D01*
X148835607Y-106436447D01*
X148713553Y-106314393D01*
X148612096Y-106174748D01*
X148533733Y-106020952D01*
X148480393Y-105856790D01*
X148453391Y-105686305D01*
X148453391Y-105513695D01*
X148480393Y-105343210D01*
X148533733Y-105179048D01*
X148612096Y-105025252D01*
X148713553Y-104885607D01*
X148835607Y-104763553D01*
X148975252Y-104662096D01*
X149129048Y-104583733D01*
X149293210Y-104530393D01*
X149463695Y-104503391D01*
X149636305Y-104503391D01*
X149806790Y-104530393D01*
G37*
G36*
X127957654Y-105581522D02*
G01*
X127964142Y-105585858D01*
X127968478Y-105592346D01*
X127970000Y-105600000D01*
X127970000Y-106300000D01*
X127968478Y-106307654D01*
X127964142Y-106314142D01*
X127957654Y-106318478D01*
X127950000Y-106320000D01*
X126950000Y-106320000D01*
X126942346Y-106318478D01*
X126935858Y-106314142D01*
X126931522Y-106307654D01*
X126930000Y-106300000D01*
X126930000Y-105600000D01*
X126931522Y-105592346D01*
X126935858Y-105585858D01*
X126942346Y-105581522D01*
X126950000Y-105580000D01*
X127950000Y-105580000D01*
X127957654Y-105581522D01*
G37*
G36*
X132657654Y-105581522D02*
G01*
X132664142Y-105585858D01*
X132668478Y-105592346D01*
X132670000Y-105600000D01*
X132670000Y-106300000D01*
X132668478Y-106307654D01*
X132664142Y-106314142D01*
X132657654Y-106318478D01*
X132650000Y-106320000D01*
X131650000Y-106320000D01*
X131642346Y-106318478D01*
X131635858Y-106314142D01*
X131631522Y-106307654D01*
X131630000Y-106300000D01*
X131630000Y-105600000D01*
X131631522Y-105592346D01*
X131635858Y-105585858D01*
X131642346Y-105581522D01*
X131650000Y-105580000D01*
X132650000Y-105580000D01*
X132657654Y-105581522D01*
G37*
G36*
X137357654Y-105581522D02*
G01*
X137364142Y-105585858D01*
X137368478Y-105592346D01*
X137370000Y-105600000D01*
X137370000Y-106300000D01*
X137368478Y-106307654D01*
X137364142Y-106314142D01*
X137357654Y-106318478D01*
X137350000Y-106320000D01*
X136350000Y-106320000D01*
X136342346Y-106318478D01*
X136335858Y-106314142D01*
X136331522Y-106307654D01*
X136330000Y-106300000D01*
X136330000Y-105600000D01*
X136331522Y-105592346D01*
X136335858Y-105585858D01*
X136342346Y-105581522D01*
X136350000Y-105580000D01*
X137350000Y-105580000D01*
X137357654Y-105581522D01*
G37*
G36*
X142057654Y-105581522D02*
G01*
X142064142Y-105585858D01*
X142068478Y-105592346D01*
X142070000Y-105600000D01*
X142070000Y-106300000D01*
X142068478Y-106307654D01*
X142064142Y-106314142D01*
X142057654Y-106318478D01*
X142050000Y-106320000D01*
X141050000Y-106320000D01*
X141042346Y-106318478D01*
X141035858Y-106314142D01*
X141031522Y-106307654D01*
X141030000Y-106300000D01*
X141030000Y-105600000D01*
X141031522Y-105592346D01*
X141035858Y-105585858D01*
X141042346Y-105581522D01*
X141050000Y-105580000D01*
X142050000Y-105580000D01*
X142057654Y-105581522D01*
G37*
G36*
X125789034Y-105315764D02*
G01*
X125822125Y-105337875D01*
X125844236Y-105370966D01*
X125852000Y-105410000D01*
X125852000Y-105950000D01*
X125844236Y-105989034D01*
X125822125Y-106022125D01*
X125789034Y-106044236D01*
X125750000Y-106052000D01*
X125150000Y-106052000D01*
X125110966Y-106044236D01*
X125077875Y-106022125D01*
X125055764Y-105989034D01*
X125048000Y-105950000D01*
X125048000Y-105410000D01*
X125055764Y-105370966D01*
X125077875Y-105337875D01*
X125110966Y-105315764D01*
X125150000Y-105308000D01*
X125750000Y-105308000D01*
X125789034Y-105315764D01*
G37*
G36*
X130489034Y-105315764D02*
G01*
X130522125Y-105337875D01*
X130544236Y-105370966D01*
X130552000Y-105410000D01*
X130552000Y-105950000D01*
X130544236Y-105989034D01*
X130522125Y-106022125D01*
X130489034Y-106044236D01*
X130450000Y-106052000D01*
X129850000Y-106052000D01*
X129810966Y-106044236D01*
X129777875Y-106022125D01*
X129755764Y-105989034D01*
X129748000Y-105950000D01*
X129748000Y-105410000D01*
X129755764Y-105370966D01*
X129777875Y-105337875D01*
X129810966Y-105315764D01*
X129850000Y-105308000D01*
X130450000Y-105308000D01*
X130489034Y-105315764D01*
G37*
G36*
X135189034Y-105315764D02*
G01*
X135222125Y-105337875D01*
X135244236Y-105370966D01*
X135252000Y-105410000D01*
X135252000Y-105950000D01*
X135244236Y-105989034D01*
X135222125Y-106022125D01*
X135189034Y-106044236D01*
X135150000Y-106052000D01*
X134550000Y-106052000D01*
X134510966Y-106044236D01*
X134477875Y-106022125D01*
X134455764Y-105989034D01*
X134448000Y-105950000D01*
X134448000Y-105410000D01*
X134455764Y-105370966D01*
X134477875Y-105337875D01*
X134510966Y-105315764D01*
X134550000Y-105308000D01*
X135150000Y-105308000D01*
X135189034Y-105315764D01*
G37*
G36*
X139889034Y-105315764D02*
G01*
X139922125Y-105337875D01*
X139944236Y-105370966D01*
X139952000Y-105410000D01*
X139952000Y-105950000D01*
X139944236Y-105989034D01*
X139922125Y-106022125D01*
X139889034Y-106044236D01*
X139850000Y-106052000D01*
X139250000Y-106052000D01*
X139210966Y-106044236D01*
X139177875Y-106022125D01*
X139155764Y-105989034D01*
X139148000Y-105950000D01*
X139148000Y-105410000D01*
X139155764Y-105370966D01*
X139177875Y-105337875D01*
X139210966Y-105315764D01*
X139250000Y-105308000D01*
X139850000Y-105308000D01*
X139889034Y-105315764D01*
G37*
G36*
X127067654Y-104931522D02*
G01*
X127074142Y-104935858D01*
X127078478Y-104942346D01*
X127080000Y-104950000D01*
X127080000Y-105410000D01*
X127078478Y-105417654D01*
X127074142Y-105424142D01*
X127067654Y-105428478D01*
X127060000Y-105430000D01*
X126840000Y-105430000D01*
X126832346Y-105428478D01*
X126825858Y-105424142D01*
X126821522Y-105417654D01*
X126820000Y-105410000D01*
X126820000Y-104950000D01*
X126821522Y-104942346D01*
X126825858Y-104935858D01*
X126832346Y-104931522D01*
X126840000Y-104930000D01*
X127060000Y-104930000D01*
X127067654Y-104931522D01*
G37*
G36*
X127567654Y-104931522D02*
G01*
X127574142Y-104935858D01*
X127578478Y-104942346D01*
X127580000Y-104950000D01*
X127580000Y-105410000D01*
X127578478Y-105417654D01*
X127574142Y-105424142D01*
X127567654Y-105428478D01*
X127560000Y-105430000D01*
X127340000Y-105430000D01*
X127332346Y-105428478D01*
X127325858Y-105424142D01*
X127321522Y-105417654D01*
X127320000Y-105410000D01*
X127320000Y-104950000D01*
X127321522Y-104942346D01*
X127325858Y-104935858D01*
X127332346Y-104931522D01*
X127340000Y-104930000D01*
X127560000Y-104930000D01*
X127567654Y-104931522D01*
G37*
G36*
X128067654Y-104931522D02*
G01*
X128074142Y-104935858D01*
X128078478Y-104942346D01*
X128080000Y-104950000D01*
X128080000Y-105410000D01*
X128078478Y-105417654D01*
X128074142Y-105424142D01*
X128067654Y-105428478D01*
X128060000Y-105430000D01*
X127840000Y-105430000D01*
X127832346Y-105428478D01*
X127825858Y-105424142D01*
X127821522Y-105417654D01*
X127820000Y-105410000D01*
X127820000Y-104950000D01*
X127821522Y-104942346D01*
X127825858Y-104935858D01*
X127832346Y-104931522D01*
X127840000Y-104930000D01*
X128060000Y-104930000D01*
X128067654Y-104931522D01*
G37*
G36*
X131767654Y-104931522D02*
G01*
X131774142Y-104935858D01*
X131778478Y-104942346D01*
X131780000Y-104950000D01*
X131780000Y-105410000D01*
X131778478Y-105417654D01*
X131774142Y-105424142D01*
X131767654Y-105428478D01*
X131760000Y-105430000D01*
X131540000Y-105430000D01*
X131532346Y-105428478D01*
X131525858Y-105424142D01*
X131521522Y-105417654D01*
X131520000Y-105410000D01*
X131520000Y-104950000D01*
X131521522Y-104942346D01*
X131525858Y-104935858D01*
X131532346Y-104931522D01*
X131540000Y-104930000D01*
X131760000Y-104930000D01*
X131767654Y-104931522D01*
G37*
G36*
X132267654Y-104931522D02*
G01*
X132274142Y-104935858D01*
X132278478Y-104942346D01*
X132280000Y-104950000D01*
X132280000Y-105410000D01*
X132278478Y-105417654D01*
X132274142Y-105424142D01*
X132267654Y-105428478D01*
X132260000Y-105430000D01*
X132040000Y-105430000D01*
X132032346Y-105428478D01*
X132025858Y-105424142D01*
X132021522Y-105417654D01*
X132020000Y-105410000D01*
X132020000Y-104950000D01*
X132021522Y-104942346D01*
X132025858Y-104935858D01*
X132032346Y-104931522D01*
X132040000Y-104930000D01*
X132260000Y-104930000D01*
X132267654Y-104931522D01*
G37*
G36*
X132767654Y-104931522D02*
G01*
X132774142Y-104935858D01*
X132778478Y-104942346D01*
X132780000Y-104950000D01*
X132780000Y-105410000D01*
X132778478Y-105417654D01*
X132774142Y-105424142D01*
X132767654Y-105428478D01*
X132760000Y-105430000D01*
X132540000Y-105430000D01*
X132532346Y-105428478D01*
X132525858Y-105424142D01*
X132521522Y-105417654D01*
X132520000Y-105410000D01*
X132520000Y-104950000D01*
X132521522Y-104942346D01*
X132525858Y-104935858D01*
X132532346Y-104931522D01*
X132540000Y-104930000D01*
X132760000Y-104930000D01*
X132767654Y-104931522D01*
G37*
G36*
X136467654Y-104931522D02*
G01*
X136474142Y-104935858D01*
X136478478Y-104942346D01*
X136480000Y-104950000D01*
X136480000Y-105410000D01*
X136478478Y-105417654D01*
X136474142Y-105424142D01*
X136467654Y-105428478D01*
X136460000Y-105430000D01*
X136240000Y-105430000D01*
X136232346Y-105428478D01*
X136225858Y-105424142D01*
X136221522Y-105417654D01*
X136220000Y-105410000D01*
X136220000Y-104950000D01*
X136221522Y-104942346D01*
X136225858Y-104935858D01*
X136232346Y-104931522D01*
X136240000Y-104930000D01*
X136460000Y-104930000D01*
X136467654Y-104931522D01*
G37*
G36*
X136967654Y-104931522D02*
G01*
X136974142Y-104935858D01*
X136978478Y-104942346D01*
X136980000Y-104950000D01*
X136980000Y-105410000D01*
X136978478Y-105417654D01*
X136974142Y-105424142D01*
X136967654Y-105428478D01*
X136960000Y-105430000D01*
X136740000Y-105430000D01*
X136732346Y-105428478D01*
X136725858Y-105424142D01*
X136721522Y-105417654D01*
X136720000Y-105410000D01*
X136720000Y-104950000D01*
X136721522Y-104942346D01*
X136725858Y-104935858D01*
X136732346Y-104931522D01*
X136740000Y-104930000D01*
X136960000Y-104930000D01*
X136967654Y-104931522D01*
G37*
G36*
X137467654Y-104931522D02*
G01*
X137474142Y-104935858D01*
X137478478Y-104942346D01*
X137480000Y-104950000D01*
X137480000Y-105410000D01*
X137478478Y-105417654D01*
X137474142Y-105424142D01*
X137467654Y-105428478D01*
X137460000Y-105430000D01*
X137240000Y-105430000D01*
X137232346Y-105428478D01*
X137225858Y-105424142D01*
X137221522Y-105417654D01*
X137220000Y-105410000D01*
X137220000Y-104950000D01*
X137221522Y-104942346D01*
X137225858Y-104935858D01*
X137232346Y-104931522D01*
X137240000Y-104930000D01*
X137460000Y-104930000D01*
X137467654Y-104931522D01*
G37*
G36*
X141167654Y-104931522D02*
G01*
X141174142Y-104935858D01*
X141178478Y-104942346D01*
X141180000Y-104950000D01*
X141180000Y-105410000D01*
X141178478Y-105417654D01*
X141174142Y-105424142D01*
X141167654Y-105428478D01*
X141160000Y-105430000D01*
X140940000Y-105430000D01*
X140932346Y-105428478D01*
X140925858Y-105424142D01*
X140921522Y-105417654D01*
X140920000Y-105410000D01*
X140920000Y-104950000D01*
X140921522Y-104942346D01*
X140925858Y-104935858D01*
X140932346Y-104931522D01*
X140940000Y-104930000D01*
X141160000Y-104930000D01*
X141167654Y-104931522D01*
G37*
G36*
X141667654Y-104931522D02*
G01*
X141674142Y-104935858D01*
X141678478Y-104942346D01*
X141680000Y-104950000D01*
X141680000Y-105410000D01*
X141678478Y-105417654D01*
X141674142Y-105424142D01*
X141667654Y-105428478D01*
X141660000Y-105430000D01*
X141440000Y-105430000D01*
X141432346Y-105428478D01*
X141425858Y-105424142D01*
X141421522Y-105417654D01*
X141420000Y-105410000D01*
X141420000Y-104950000D01*
X141421522Y-104942346D01*
X141425858Y-104935858D01*
X141432346Y-104931522D01*
X141440000Y-104930000D01*
X141660000Y-104930000D01*
X141667654Y-104931522D01*
G37*
G36*
X142167654Y-104931522D02*
G01*
X142174142Y-104935858D01*
X142178478Y-104942346D01*
X142180000Y-104950000D01*
X142180000Y-105410000D01*
X142178478Y-105417654D01*
X142174142Y-105424142D01*
X142167654Y-105428478D01*
X142160000Y-105430000D01*
X141940000Y-105430000D01*
X141932346Y-105428478D01*
X141925858Y-105424142D01*
X141921522Y-105417654D01*
X141920000Y-105410000D01*
X141920000Y-104950000D01*
X141921522Y-104942346D01*
X141925858Y-104935858D01*
X141932346Y-104931522D01*
X141940000Y-104930000D01*
X142160000Y-104930000D01*
X142167654Y-104931522D01*
G37*
G36*
X149806790Y-100830393D02*
G01*
X149970952Y-100883733D01*
X150124748Y-100962096D01*
X150264393Y-101063553D01*
X150386447Y-101185607D01*
X150487904Y-101325252D01*
X150566267Y-101479048D01*
X150619607Y-101643210D01*
X150646609Y-101813695D01*
X150646609Y-101986305D01*
X150619607Y-102156790D01*
X150566267Y-102320952D01*
X150487904Y-102474748D01*
X150386447Y-102614393D01*
X150264393Y-102736447D01*
X150124748Y-102837904D01*
X149970952Y-102916267D01*
X149806790Y-102969607D01*
X149636305Y-102996609D01*
X149463695Y-102996609D01*
X149293210Y-102969607D01*
X149129048Y-102916267D01*
X148975252Y-102837904D01*
X148835607Y-102736447D01*
X148713553Y-102614393D01*
X148612096Y-102474748D01*
X148533733Y-102320952D01*
X148480393Y-102156790D01*
X148453391Y-101986305D01*
X148453391Y-101813695D01*
X148480393Y-101643210D01*
X148533733Y-101479048D01*
X148612096Y-101325252D01*
X148713553Y-101185607D01*
X148835607Y-101063553D01*
X148975252Y-100962096D01*
X149129048Y-100883733D01*
X149293210Y-100830393D01*
X149463695Y-100803391D01*
X149636305Y-100803391D01*
X149806790Y-100830393D01*
G37*
G36*
X119706790Y-100810393D02*
G01*
X119870952Y-100863733D01*
X120024748Y-100942096D01*
X120164393Y-101043553D01*
X120286447Y-101165607D01*
X120387904Y-101305252D01*
X120466267Y-101459048D01*
X120519607Y-101623210D01*
X120546609Y-101793695D01*
X120546609Y-101966305D01*
X120519607Y-102136790D01*
X120466267Y-102300952D01*
X120387904Y-102454748D01*
X120286447Y-102594393D01*
X120164393Y-102716447D01*
X120024748Y-102817904D01*
X119870952Y-102896267D01*
X119706790Y-102949607D01*
X119536305Y-102976609D01*
X119363695Y-102976609D01*
X119193210Y-102949607D01*
X119029048Y-102896267D01*
X118875252Y-102817904D01*
X118735607Y-102716447D01*
X118613553Y-102594393D01*
X118512096Y-102454748D01*
X118433733Y-102300952D01*
X118380393Y-102136790D01*
X118353391Y-101966305D01*
X118353391Y-101793695D01*
X118380393Y-101623210D01*
X118433733Y-101459048D01*
X118512096Y-101305252D01*
X118613553Y-101165607D01*
X118735607Y-101043553D01*
X118875252Y-100942096D01*
X119029048Y-100863733D01*
X119193210Y-100810393D01*
X119363695Y-100783391D01*
X119536305Y-100783391D01*
X119706790Y-100810393D01*
G37*
G36*
X127067654Y-101771522D02*
G01*
X127074142Y-101775858D01*
X127078478Y-101782346D01*
X127080000Y-101790000D01*
X127080000Y-102250000D01*
X127078478Y-102257654D01*
X127074142Y-102264142D01*
X127067654Y-102268478D01*
X127060000Y-102270000D01*
X126840000Y-102270000D01*
X126832346Y-102268478D01*
X126825858Y-102264142D01*
X126821522Y-102257654D01*
X126820000Y-102250000D01*
X126820000Y-101790000D01*
X126821522Y-101782346D01*
X126825858Y-101775858D01*
X126832346Y-101771522D01*
X126840000Y-101770000D01*
X127060000Y-101770000D01*
X127067654Y-101771522D01*
G37*
G36*
X127567654Y-101771522D02*
G01*
X127574142Y-101775858D01*
X127578478Y-101782346D01*
X127580000Y-101790000D01*
X127580000Y-102250000D01*
X127578478Y-102257654D01*
X127574142Y-102264142D01*
X127567654Y-102268478D01*
X127560000Y-102270000D01*
X127340000Y-102270000D01*
X127332346Y-102268478D01*
X127325858Y-102264142D01*
X127321522Y-102257654D01*
X127320000Y-102250000D01*
X127320000Y-101790000D01*
X127321522Y-101782346D01*
X127325858Y-101775858D01*
X127332346Y-101771522D01*
X127340000Y-101770000D01*
X127560000Y-101770000D01*
X127567654Y-101771522D01*
G37*
G36*
X128067654Y-101771522D02*
G01*
X128074142Y-101775858D01*
X128078478Y-101782346D01*
X128080000Y-101790000D01*
X128080000Y-102250000D01*
X128078478Y-102257654D01*
X128074142Y-102264142D01*
X128067654Y-102268478D01*
X128060000Y-102270000D01*
X127840000Y-102270000D01*
X127832346Y-102268478D01*
X127825858Y-102264142D01*
X127821522Y-102257654D01*
X127820000Y-102250000D01*
X127820000Y-101790000D01*
X127821522Y-101782346D01*
X127825858Y-101775858D01*
X127832346Y-101771522D01*
X127840000Y-101770000D01*
X128060000Y-101770000D01*
X128067654Y-101771522D01*
G37*
G36*
X131767654Y-101771522D02*
G01*
X131774142Y-101775858D01*
X131778478Y-101782346D01*
X131780000Y-101790000D01*
X131780000Y-102250000D01*
X131778478Y-102257654D01*
X131774142Y-102264142D01*
X131767654Y-102268478D01*
X131760000Y-102270000D01*
X131540000Y-102270000D01*
X131532346Y-102268478D01*
X131525858Y-102264142D01*
X131521522Y-102257654D01*
X131520000Y-102250000D01*
X131520000Y-101790000D01*
X131521522Y-101782346D01*
X131525858Y-101775858D01*
X131532346Y-101771522D01*
X131540000Y-101770000D01*
X131760000Y-101770000D01*
X131767654Y-101771522D01*
G37*
G36*
X132267654Y-101771522D02*
G01*
X132274142Y-101775858D01*
X132278478Y-101782346D01*
X132280000Y-101790000D01*
X132280000Y-102250000D01*
X132278478Y-102257654D01*
X132274142Y-102264142D01*
X132267654Y-102268478D01*
X132260000Y-102270000D01*
X132040000Y-102270000D01*
X132032346Y-102268478D01*
X132025858Y-102264142D01*
X132021522Y-102257654D01*
X132020000Y-102250000D01*
X132020000Y-101790000D01*
X132021522Y-101782346D01*
X132025858Y-101775858D01*
X132032346Y-101771522D01*
X132040000Y-101770000D01*
X132260000Y-101770000D01*
X132267654Y-101771522D01*
G37*
G36*
X132767654Y-101771522D02*
G01*
X132774142Y-101775858D01*
X132778478Y-101782346D01*
X132780000Y-101790000D01*
X132780000Y-102250000D01*
X132778478Y-102257654D01*
X132774142Y-102264142D01*
X132767654Y-102268478D01*
X132760000Y-102270000D01*
X132540000Y-102270000D01*
X132532346Y-102268478D01*
X132525858Y-102264142D01*
X132521522Y-102257654D01*
X132520000Y-102250000D01*
X132520000Y-101790000D01*
X132521522Y-101782346D01*
X132525858Y-101775858D01*
X132532346Y-101771522D01*
X132540000Y-101770000D01*
X132760000Y-101770000D01*
X132767654Y-101771522D01*
G37*
G36*
X136467654Y-101771522D02*
G01*
X136474142Y-101775858D01*
X136478478Y-101782346D01*
X136480000Y-101790000D01*
X136480000Y-102250000D01*
X136478478Y-102257654D01*
X136474142Y-102264142D01*
X136467654Y-102268478D01*
X136460000Y-102270000D01*
X136240000Y-102270000D01*
X136232346Y-102268478D01*
X136225858Y-102264142D01*
X136221522Y-102257654D01*
X136220000Y-102250000D01*
X136220000Y-101790000D01*
X136221522Y-101782346D01*
X136225858Y-101775858D01*
X136232346Y-101771522D01*
X136240000Y-101770000D01*
X136460000Y-101770000D01*
X136467654Y-101771522D01*
G37*
G36*
X136967654Y-101771522D02*
G01*
X136974142Y-101775858D01*
X136978478Y-101782346D01*
X136980000Y-101790000D01*
X136980000Y-102250000D01*
X136978478Y-102257654D01*
X136974142Y-102264142D01*
X136967654Y-102268478D01*
X136960000Y-102270000D01*
X136740000Y-102270000D01*
X136732346Y-102268478D01*
X136725858Y-102264142D01*
X136721522Y-102257654D01*
X136720000Y-102250000D01*
X136720000Y-101790000D01*
X136721522Y-101782346D01*
X136725858Y-101775858D01*
X136732346Y-101771522D01*
X136740000Y-101770000D01*
X136960000Y-101770000D01*
X136967654Y-101771522D01*
G37*
G36*
X137467654Y-101771522D02*
G01*
X137474142Y-101775858D01*
X137478478Y-101782346D01*
X137480000Y-101790000D01*
X137480000Y-102250000D01*
X137478478Y-102257654D01*
X137474142Y-102264142D01*
X137467654Y-102268478D01*
X137460000Y-102270000D01*
X137240000Y-102270000D01*
X137232346Y-102268478D01*
X137225858Y-102264142D01*
X137221522Y-102257654D01*
X137220000Y-102250000D01*
X137220000Y-101790000D01*
X137221522Y-101782346D01*
X137225858Y-101775858D01*
X137232346Y-101771522D01*
X137240000Y-101770000D01*
X137460000Y-101770000D01*
X137467654Y-101771522D01*
G37*
G36*
X141167654Y-101771522D02*
G01*
X141174142Y-101775858D01*
X141178478Y-101782346D01*
X141180000Y-101790000D01*
X141180000Y-102250000D01*
X141178478Y-102257654D01*
X141174142Y-102264142D01*
X141167654Y-102268478D01*
X141160000Y-102270000D01*
X140940000Y-102270000D01*
X140932346Y-102268478D01*
X140925858Y-102264142D01*
X140921522Y-102257654D01*
X140920000Y-102250000D01*
X140920000Y-101790000D01*
X140921522Y-101782346D01*
X140925858Y-101775858D01*
X140932346Y-101771522D01*
X140940000Y-101770000D01*
X141160000Y-101770000D01*
X141167654Y-101771522D01*
G37*
G36*
X141667654Y-101771522D02*
G01*
X141674142Y-101775858D01*
X141678478Y-101782346D01*
X141680000Y-101790000D01*
X141680000Y-102250000D01*
X141678478Y-102257654D01*
X141674142Y-102264142D01*
X141667654Y-102268478D01*
X141660000Y-102270000D01*
X141440000Y-102270000D01*
X141432346Y-102268478D01*
X141425858Y-102264142D01*
X141421522Y-102257654D01*
X141420000Y-102250000D01*
X141420000Y-101790000D01*
X141421522Y-101782346D01*
X141425858Y-101775858D01*
X141432346Y-101771522D01*
X141440000Y-101770000D01*
X141660000Y-101770000D01*
X141667654Y-101771522D01*
G37*
G36*
X142167654Y-101771522D02*
G01*
X142174142Y-101775858D01*
X142178478Y-101782346D01*
X142180000Y-101790000D01*
X142180000Y-102250000D01*
X142178478Y-102257654D01*
X142174142Y-102264142D01*
X142167654Y-102268478D01*
X142160000Y-102270000D01*
X141940000Y-102270000D01*
X141932346Y-102268478D01*
X141925858Y-102264142D01*
X141921522Y-102257654D01*
X141920000Y-102250000D01*
X141920000Y-101790000D01*
X141921522Y-101782346D01*
X141925858Y-101775858D01*
X141932346Y-101771522D01*
X141940000Y-101770000D01*
X142160000Y-101770000D01*
X142167654Y-101771522D01*
G37*
G36*
X125789034Y-101479764D02*
G01*
X125822125Y-101501875D01*
X125844236Y-101534966D01*
X125852000Y-101574000D01*
X125852000Y-102114000D01*
X125844236Y-102153034D01*
X125822125Y-102186125D01*
X125789034Y-102208236D01*
X125750000Y-102216000D01*
X125150000Y-102216000D01*
X125110966Y-102208236D01*
X125077875Y-102186125D01*
X125055764Y-102153034D01*
X125048000Y-102114000D01*
X125048000Y-101574000D01*
X125055764Y-101534966D01*
X125077875Y-101501875D01*
X125110966Y-101479764D01*
X125150000Y-101472000D01*
X125750000Y-101472000D01*
X125789034Y-101479764D01*
G37*
G36*
X130489034Y-101479764D02*
G01*
X130522125Y-101501875D01*
X130544236Y-101534966D01*
X130552000Y-101574000D01*
X130552000Y-102114000D01*
X130544236Y-102153034D01*
X130522125Y-102186125D01*
X130489034Y-102208236D01*
X130450000Y-102216000D01*
X129850000Y-102216000D01*
X129810966Y-102208236D01*
X129777875Y-102186125D01*
X129755764Y-102153034D01*
X129748000Y-102114000D01*
X129748000Y-101574000D01*
X129755764Y-101534966D01*
X129777875Y-101501875D01*
X129810966Y-101479764D01*
X129850000Y-101472000D01*
X130450000Y-101472000D01*
X130489034Y-101479764D01*
G37*
G36*
X135189034Y-101479764D02*
G01*
X135222125Y-101501875D01*
X135244236Y-101534966D01*
X135252000Y-101574000D01*
X135252000Y-102114000D01*
X135244236Y-102153034D01*
X135222125Y-102186125D01*
X135189034Y-102208236D01*
X135150000Y-102216000D01*
X134550000Y-102216000D01*
X134510966Y-102208236D01*
X134477875Y-102186125D01*
X134455764Y-102153034D01*
X134448000Y-102114000D01*
X134448000Y-101574000D01*
X134455764Y-101534966D01*
X134477875Y-101501875D01*
X134510966Y-101479764D01*
X134550000Y-101472000D01*
X135150000Y-101472000D01*
X135189034Y-101479764D01*
G37*
G36*
X139889034Y-101479764D02*
G01*
X139922125Y-101501875D01*
X139944236Y-101534966D01*
X139952000Y-101574000D01*
X139952000Y-102114000D01*
X139944236Y-102153034D01*
X139922125Y-102186125D01*
X139889034Y-102208236D01*
X139850000Y-102216000D01*
X139250000Y-102216000D01*
X139210966Y-102208236D01*
X139177875Y-102186125D01*
X139155764Y-102153034D01*
X139148000Y-102114000D01*
X139148000Y-101574000D01*
X139155764Y-101534966D01*
X139177875Y-101501875D01*
X139210966Y-101479764D01*
X139250000Y-101472000D01*
X139850000Y-101472000D01*
X139889034Y-101479764D01*
G37*
G36*
X127957654Y-100881522D02*
G01*
X127964142Y-100885858D01*
X127968478Y-100892346D01*
X127970000Y-100900000D01*
X127970000Y-101600000D01*
X127968478Y-101607654D01*
X127964142Y-101614142D01*
X127957654Y-101618478D01*
X127950000Y-101620000D01*
X126950000Y-101620000D01*
X126942346Y-101618478D01*
X126935858Y-101614142D01*
X126931522Y-101607654D01*
X126930000Y-101600000D01*
X126930000Y-100900000D01*
X126931522Y-100892346D01*
X126935858Y-100885858D01*
X126942346Y-100881522D01*
X126950000Y-100880000D01*
X127950000Y-100880000D01*
X127957654Y-100881522D01*
G37*
G36*
X132657654Y-100881522D02*
G01*
X132664142Y-100885858D01*
X132668478Y-100892346D01*
X132670000Y-100900000D01*
X132670000Y-101600000D01*
X132668478Y-101607654D01*
X132664142Y-101614142D01*
X132657654Y-101618478D01*
X132650000Y-101620000D01*
X131650000Y-101620000D01*
X131642346Y-101618478D01*
X131635858Y-101614142D01*
X131631522Y-101607654D01*
X131630000Y-101600000D01*
X131630000Y-100900000D01*
X131631522Y-100892346D01*
X131635858Y-100885858D01*
X131642346Y-100881522D01*
X131650000Y-100880000D01*
X132650000Y-100880000D01*
X132657654Y-100881522D01*
G37*
G36*
X137357654Y-100881522D02*
G01*
X137364142Y-100885858D01*
X137368478Y-100892346D01*
X137370000Y-100900000D01*
X137370000Y-101600000D01*
X137368478Y-101607654D01*
X137364142Y-101614142D01*
X137357654Y-101618478D01*
X137350000Y-101620000D01*
X136350000Y-101620000D01*
X136342346Y-101618478D01*
X136335858Y-101614142D01*
X136331522Y-101607654D01*
X136330000Y-101600000D01*
X136330000Y-100900000D01*
X136331522Y-100892346D01*
X136335858Y-100885858D01*
X136342346Y-100881522D01*
X136350000Y-100880000D01*
X137350000Y-100880000D01*
X137357654Y-100881522D01*
G37*
G36*
X142057654Y-100881522D02*
G01*
X142064142Y-100885858D01*
X142068478Y-100892346D01*
X142070000Y-100900000D01*
X142070000Y-101600000D01*
X142068478Y-101607654D01*
X142064142Y-101614142D01*
X142057654Y-101618478D01*
X142050000Y-101620000D01*
X141050000Y-101620000D01*
X141042346Y-101618478D01*
X141035858Y-101614142D01*
X141031522Y-101607654D01*
X141030000Y-101600000D01*
X141030000Y-100900000D01*
X141031522Y-100892346D01*
X141035858Y-100885858D01*
X141042346Y-100881522D01*
X141050000Y-100880000D01*
X142050000Y-100880000D01*
X142057654Y-100881522D01*
G37*
G36*
X125789034Y-100615764D02*
G01*
X125822125Y-100637875D01*
X125844236Y-100670966D01*
X125852000Y-100710000D01*
X125852000Y-101250000D01*
X125844236Y-101289034D01*
X125822125Y-101322125D01*
X125789034Y-101344236D01*
X125750000Y-101352000D01*
X125150000Y-101352000D01*
X125110966Y-101344236D01*
X125077875Y-101322125D01*
X125055764Y-101289034D01*
X125048000Y-101250000D01*
X125048000Y-100710000D01*
X125055764Y-100670966D01*
X125077875Y-100637875D01*
X125110966Y-100615764D01*
X125150000Y-100608000D01*
X125750000Y-100608000D01*
X125789034Y-100615764D01*
G37*
G36*
X130489034Y-100615764D02*
G01*
X130522125Y-100637875D01*
X130544236Y-100670966D01*
X130552000Y-100710000D01*
X130552000Y-101250000D01*
X130544236Y-101289034D01*
X130522125Y-101322125D01*
X130489034Y-101344236D01*
X130450000Y-101352000D01*
X129850000Y-101352000D01*
X129810966Y-101344236D01*
X129777875Y-101322125D01*
X129755764Y-101289034D01*
X129748000Y-101250000D01*
X129748000Y-100710000D01*
X129755764Y-100670966D01*
X129777875Y-100637875D01*
X129810966Y-100615764D01*
X129850000Y-100608000D01*
X130450000Y-100608000D01*
X130489034Y-100615764D01*
G37*
G36*
X135189034Y-100615764D02*
G01*
X135222125Y-100637875D01*
X135244236Y-100670966D01*
X135252000Y-100710000D01*
X135252000Y-101250000D01*
X135244236Y-101289034D01*
X135222125Y-101322125D01*
X135189034Y-101344236D01*
X135150000Y-101352000D01*
X134550000Y-101352000D01*
X134510966Y-101344236D01*
X134477875Y-101322125D01*
X134455764Y-101289034D01*
X134448000Y-101250000D01*
X134448000Y-100710000D01*
X134455764Y-100670966D01*
X134477875Y-100637875D01*
X134510966Y-100615764D01*
X134550000Y-100608000D01*
X135150000Y-100608000D01*
X135189034Y-100615764D01*
G37*
G36*
X139889034Y-100615764D02*
G01*
X139922125Y-100637875D01*
X139944236Y-100670966D01*
X139952000Y-100710000D01*
X139952000Y-101250000D01*
X139944236Y-101289034D01*
X139922125Y-101322125D01*
X139889034Y-101344236D01*
X139850000Y-101352000D01*
X139250000Y-101352000D01*
X139210966Y-101344236D01*
X139177875Y-101322125D01*
X139155764Y-101289034D01*
X139148000Y-101250000D01*
X139148000Y-100710000D01*
X139155764Y-100670966D01*
X139177875Y-100637875D01*
X139210966Y-100615764D01*
X139250000Y-100608000D01*
X139850000Y-100608000D01*
X139889034Y-100615764D01*
G37*
G36*
X127067654Y-100231522D02*
G01*
X127074142Y-100235858D01*
X127078478Y-100242346D01*
X127080000Y-100250000D01*
X127080000Y-100710000D01*
X127078478Y-100717654D01*
X127074142Y-100724142D01*
X127067654Y-100728478D01*
X127060000Y-100730000D01*
X126840000Y-100730000D01*
X126832346Y-100728478D01*
X126825858Y-100724142D01*
X126821522Y-100717654D01*
X126820000Y-100710000D01*
X126820000Y-100250000D01*
X126821522Y-100242346D01*
X126825858Y-100235858D01*
X126832346Y-100231522D01*
X126840000Y-100230000D01*
X127060000Y-100230000D01*
X127067654Y-100231522D01*
G37*
G36*
X127567654Y-100231522D02*
G01*
X127574142Y-100235858D01*
X127578478Y-100242346D01*
X127580000Y-100250000D01*
X127580000Y-100710000D01*
X127578478Y-100717654D01*
X127574142Y-100724142D01*
X127567654Y-100728478D01*
X127560000Y-100730000D01*
X127340000Y-100730000D01*
X127332346Y-100728478D01*
X127325858Y-100724142D01*
X127321522Y-100717654D01*
X127320000Y-100710000D01*
X127320000Y-100250000D01*
X127321522Y-100242346D01*
X127325858Y-100235858D01*
X127332346Y-100231522D01*
X127340000Y-100230000D01*
X127560000Y-100230000D01*
X127567654Y-100231522D01*
G37*
G36*
X128067654Y-100231522D02*
G01*
X128074142Y-100235858D01*
X128078478Y-100242346D01*
X128080000Y-100250000D01*
X128080000Y-100710000D01*
X128078478Y-100717654D01*
X128074142Y-100724142D01*
X128067654Y-100728478D01*
X128060000Y-100730000D01*
X127840000Y-100730000D01*
X127832346Y-100728478D01*
X127825858Y-100724142D01*
X127821522Y-100717654D01*
X127820000Y-100710000D01*
X127820000Y-100250000D01*
X127821522Y-100242346D01*
X127825858Y-100235858D01*
X127832346Y-100231522D01*
X127840000Y-100230000D01*
X128060000Y-100230000D01*
X128067654Y-100231522D01*
G37*
G36*
X131767654Y-100231522D02*
G01*
X131774142Y-100235858D01*
X131778478Y-100242346D01*
X131780000Y-100250000D01*
X131780000Y-100710000D01*
X131778478Y-100717654D01*
X131774142Y-100724142D01*
X131767654Y-100728478D01*
X131760000Y-100730000D01*
X131540000Y-100730000D01*
X131532346Y-100728478D01*
X131525858Y-100724142D01*
X131521522Y-100717654D01*
X131520000Y-100710000D01*
X131520000Y-100250000D01*
X131521522Y-100242346D01*
X131525858Y-100235858D01*
X131532346Y-100231522D01*
X131540000Y-100230000D01*
X131760000Y-100230000D01*
X131767654Y-100231522D01*
G37*
G36*
X132267654Y-100231522D02*
G01*
X132274142Y-100235858D01*
X132278478Y-100242346D01*
X132280000Y-100250000D01*
X132280000Y-100710000D01*
X132278478Y-100717654D01*
X132274142Y-100724142D01*
X132267654Y-100728478D01*
X132260000Y-100730000D01*
X132040000Y-100730000D01*
X132032346Y-100728478D01*
X132025858Y-100724142D01*
X132021522Y-100717654D01*
X132020000Y-100710000D01*
X132020000Y-100250000D01*
X132021522Y-100242346D01*
X132025858Y-100235858D01*
X132032346Y-100231522D01*
X132040000Y-100230000D01*
X132260000Y-100230000D01*
X132267654Y-100231522D01*
G37*
G36*
X132767654Y-100231522D02*
G01*
X132774142Y-100235858D01*
X132778478Y-100242346D01*
X132780000Y-100250000D01*
X132780000Y-100710000D01*
X132778478Y-100717654D01*
X132774142Y-100724142D01*
X132767654Y-100728478D01*
X132760000Y-100730000D01*
X132540000Y-100730000D01*
X132532346Y-100728478D01*
X132525858Y-100724142D01*
X132521522Y-100717654D01*
X132520000Y-100710000D01*
X132520000Y-100250000D01*
X132521522Y-100242346D01*
X132525858Y-100235858D01*
X132532346Y-100231522D01*
X132540000Y-100230000D01*
X132760000Y-100230000D01*
X132767654Y-100231522D01*
G37*
G36*
X136467654Y-100231522D02*
G01*
X136474142Y-100235858D01*
X136478478Y-100242346D01*
X136480000Y-100250000D01*
X136480000Y-100710000D01*
X136478478Y-100717654D01*
X136474142Y-100724142D01*
X136467654Y-100728478D01*
X136460000Y-100730000D01*
X136240000Y-100730000D01*
X136232346Y-100728478D01*
X136225858Y-100724142D01*
X136221522Y-100717654D01*
X136220000Y-100710000D01*
X136220000Y-100250000D01*
X136221522Y-100242346D01*
X136225858Y-100235858D01*
X136232346Y-100231522D01*
X136240000Y-100230000D01*
X136460000Y-100230000D01*
X136467654Y-100231522D01*
G37*
G36*
X136967654Y-100231522D02*
G01*
X136974142Y-100235858D01*
X136978478Y-100242346D01*
X136980000Y-100250000D01*
X136980000Y-100710000D01*
X136978478Y-100717654D01*
X136974142Y-100724142D01*
X136967654Y-100728478D01*
X136960000Y-100730000D01*
X136740000Y-100730000D01*
X136732346Y-100728478D01*
X136725858Y-100724142D01*
X136721522Y-100717654D01*
X136720000Y-100710000D01*
X136720000Y-100250000D01*
X136721522Y-100242346D01*
X136725858Y-100235858D01*
X136732346Y-100231522D01*
X136740000Y-100230000D01*
X136960000Y-100230000D01*
X136967654Y-100231522D01*
G37*
G36*
X137467654Y-100231522D02*
G01*
X137474142Y-100235858D01*
X137478478Y-100242346D01*
X137480000Y-100250000D01*
X137480000Y-100710000D01*
X137478478Y-100717654D01*
X137474142Y-100724142D01*
X137467654Y-100728478D01*
X137460000Y-100730000D01*
X137240000Y-100730000D01*
X137232346Y-100728478D01*
X137225858Y-100724142D01*
X137221522Y-100717654D01*
X137220000Y-100710000D01*
X137220000Y-100250000D01*
X137221522Y-100242346D01*
X137225858Y-100235858D01*
X137232346Y-100231522D01*
X137240000Y-100230000D01*
X137460000Y-100230000D01*
X137467654Y-100231522D01*
G37*
G36*
X141167654Y-100231522D02*
G01*
X141174142Y-100235858D01*
X141178478Y-100242346D01*
X141180000Y-100250000D01*
X141180000Y-100710000D01*
X141178478Y-100717654D01*
X141174142Y-100724142D01*
X141167654Y-100728478D01*
X141160000Y-100730000D01*
X140940000Y-100730000D01*
X140932346Y-100728478D01*
X140925858Y-100724142D01*
X140921522Y-100717654D01*
X140920000Y-100710000D01*
X140920000Y-100250000D01*
X140921522Y-100242346D01*
X140925858Y-100235858D01*
X140932346Y-100231522D01*
X140940000Y-100230000D01*
X141160000Y-100230000D01*
X141167654Y-100231522D01*
G37*
G36*
X141667654Y-100231522D02*
G01*
X141674142Y-100235858D01*
X141678478Y-100242346D01*
X141680000Y-100250000D01*
X141680000Y-100710000D01*
X141678478Y-100717654D01*
X141674142Y-100724142D01*
X141667654Y-100728478D01*
X141660000Y-100730000D01*
X141440000Y-100730000D01*
X141432346Y-100728478D01*
X141425858Y-100724142D01*
X141421522Y-100717654D01*
X141420000Y-100710000D01*
X141420000Y-100250000D01*
X141421522Y-100242346D01*
X141425858Y-100235858D01*
X141432346Y-100231522D01*
X141440000Y-100230000D01*
X141660000Y-100230000D01*
X141667654Y-100231522D01*
G37*
G36*
X142167654Y-100231522D02*
G01*
X142174142Y-100235858D01*
X142178478Y-100242346D01*
X142180000Y-100250000D01*
X142180000Y-100710000D01*
X142178478Y-100717654D01*
X142174142Y-100724142D01*
X142167654Y-100728478D01*
X142160000Y-100730000D01*
X141940000Y-100730000D01*
X141932346Y-100728478D01*
X141925858Y-100724142D01*
X141921522Y-100717654D01*
X141920000Y-100710000D01*
X141920000Y-100250000D01*
X141921522Y-100242346D01*
X141925858Y-100235858D01*
X141932346Y-100231522D01*
X141940000Y-100230000D01*
X142160000Y-100230000D01*
X142167654Y-100231522D01*
G37*
G36*
X127067654Y-97071522D02*
G01*
X127074142Y-97075858D01*
X127078478Y-97082346D01*
X127080000Y-97090000D01*
X127080000Y-97550000D01*
X127078478Y-97557654D01*
X127074142Y-97564142D01*
X127067654Y-97568478D01*
X127060000Y-97570000D01*
X126840000Y-97570000D01*
X126832346Y-97568478D01*
X126825858Y-97564142D01*
X126821522Y-97557654D01*
X126820000Y-97550000D01*
X126820000Y-97090000D01*
X126821522Y-97082346D01*
X126825858Y-97075858D01*
X126832346Y-97071522D01*
X126840000Y-97070000D01*
X127060000Y-97070000D01*
X127067654Y-97071522D01*
G37*
G36*
X127567654Y-97071522D02*
G01*
X127574142Y-97075858D01*
X127578478Y-97082346D01*
X127580000Y-97090000D01*
X127580000Y-97550000D01*
X127578478Y-97557654D01*
X127574142Y-97564142D01*
X127567654Y-97568478D01*
X127560000Y-97570000D01*
X127340000Y-97570000D01*
X127332346Y-97568478D01*
X127325858Y-97564142D01*
X127321522Y-97557654D01*
X127320000Y-97550000D01*
X127320000Y-97090000D01*
X127321522Y-97082346D01*
X127325858Y-97075858D01*
X127332346Y-97071522D01*
X127340000Y-97070000D01*
X127560000Y-97070000D01*
X127567654Y-97071522D01*
G37*
G36*
X128067654Y-97071522D02*
G01*
X128074142Y-97075858D01*
X128078478Y-97082346D01*
X128080000Y-97090000D01*
X128080000Y-97550000D01*
X128078478Y-97557654D01*
X128074142Y-97564142D01*
X128067654Y-97568478D01*
X128060000Y-97570000D01*
X127840000Y-97570000D01*
X127832346Y-97568478D01*
X127825858Y-97564142D01*
X127821522Y-97557654D01*
X127820000Y-97550000D01*
X127820000Y-97090000D01*
X127821522Y-97082346D01*
X127825858Y-97075858D01*
X127832346Y-97071522D01*
X127840000Y-97070000D01*
X128060000Y-97070000D01*
X128067654Y-97071522D01*
G37*
G36*
X131767654Y-97071522D02*
G01*
X131774142Y-97075858D01*
X131778478Y-97082346D01*
X131780000Y-97090000D01*
X131780000Y-97550000D01*
X131778478Y-97557654D01*
X131774142Y-97564142D01*
X131767654Y-97568478D01*
X131760000Y-97570000D01*
X131540000Y-97570000D01*
X131532346Y-97568478D01*
X131525858Y-97564142D01*
X131521522Y-97557654D01*
X131520000Y-97550000D01*
X131520000Y-97090000D01*
X131521522Y-97082346D01*
X131525858Y-97075858D01*
X131532346Y-97071522D01*
X131540000Y-97070000D01*
X131760000Y-97070000D01*
X131767654Y-97071522D01*
G37*
G36*
X132267654Y-97071522D02*
G01*
X132274142Y-97075858D01*
X132278478Y-97082346D01*
X132280000Y-97090000D01*
X132280000Y-97550000D01*
X132278478Y-97557654D01*
X132274142Y-97564142D01*
X132267654Y-97568478D01*
X132260000Y-97570000D01*
X132040000Y-97570000D01*
X132032346Y-97568478D01*
X132025858Y-97564142D01*
X132021522Y-97557654D01*
X132020000Y-97550000D01*
X132020000Y-97090000D01*
X132021522Y-97082346D01*
X132025858Y-97075858D01*
X132032346Y-97071522D01*
X132040000Y-97070000D01*
X132260000Y-97070000D01*
X132267654Y-97071522D01*
G37*
G36*
X132767654Y-97071522D02*
G01*
X132774142Y-97075858D01*
X132778478Y-97082346D01*
X132780000Y-97090000D01*
X132780000Y-97550000D01*
X132778478Y-97557654D01*
X132774142Y-97564142D01*
X132767654Y-97568478D01*
X132760000Y-97570000D01*
X132540000Y-97570000D01*
X132532346Y-97568478D01*
X132525858Y-97564142D01*
X132521522Y-97557654D01*
X132520000Y-97550000D01*
X132520000Y-97090000D01*
X132521522Y-97082346D01*
X132525858Y-97075858D01*
X132532346Y-97071522D01*
X132540000Y-97070000D01*
X132760000Y-97070000D01*
X132767654Y-97071522D01*
G37*
G36*
X136467654Y-97071522D02*
G01*
X136474142Y-97075858D01*
X136478478Y-97082346D01*
X136480000Y-97090000D01*
X136480000Y-97550000D01*
X136478478Y-97557654D01*
X136474142Y-97564142D01*
X136467654Y-97568478D01*
X136460000Y-97570000D01*
X136240000Y-97570000D01*
X136232346Y-97568478D01*
X136225858Y-97564142D01*
X136221522Y-97557654D01*
X136220000Y-97550000D01*
X136220000Y-97090000D01*
X136221522Y-97082346D01*
X136225858Y-97075858D01*
X136232346Y-97071522D01*
X136240000Y-97070000D01*
X136460000Y-97070000D01*
X136467654Y-97071522D01*
G37*
G36*
X136967654Y-97071522D02*
G01*
X136974142Y-97075858D01*
X136978478Y-97082346D01*
X136980000Y-97090000D01*
X136980000Y-97550000D01*
X136978478Y-97557654D01*
X136974142Y-97564142D01*
X136967654Y-97568478D01*
X136960000Y-97570000D01*
X136740000Y-97570000D01*
X136732346Y-97568478D01*
X136725858Y-97564142D01*
X136721522Y-97557654D01*
X136720000Y-97550000D01*
X136720000Y-97090000D01*
X136721522Y-97082346D01*
X136725858Y-97075858D01*
X136732346Y-97071522D01*
X136740000Y-97070000D01*
X136960000Y-97070000D01*
X136967654Y-97071522D01*
G37*
G36*
X137467654Y-97071522D02*
G01*
X137474142Y-97075858D01*
X137478478Y-97082346D01*
X137480000Y-97090000D01*
X137480000Y-97550000D01*
X137478478Y-97557654D01*
X137474142Y-97564142D01*
X137467654Y-97568478D01*
X137460000Y-97570000D01*
X137240000Y-97570000D01*
X137232346Y-97568478D01*
X137225858Y-97564142D01*
X137221522Y-97557654D01*
X137220000Y-97550000D01*
X137220000Y-97090000D01*
X137221522Y-97082346D01*
X137225858Y-97075858D01*
X137232346Y-97071522D01*
X137240000Y-97070000D01*
X137460000Y-97070000D01*
X137467654Y-97071522D01*
G37*
G36*
X141167654Y-97071522D02*
G01*
X141174142Y-97075858D01*
X141178478Y-97082346D01*
X141180000Y-97090000D01*
X141180000Y-97550000D01*
X141178478Y-97557654D01*
X141174142Y-97564142D01*
X141167654Y-97568478D01*
X141160000Y-97570000D01*
X140940000Y-97570000D01*
X140932346Y-97568478D01*
X140925858Y-97564142D01*
X140921522Y-97557654D01*
X140920000Y-97550000D01*
X140920000Y-97090000D01*
X140921522Y-97082346D01*
X140925858Y-97075858D01*
X140932346Y-97071522D01*
X140940000Y-97070000D01*
X141160000Y-97070000D01*
X141167654Y-97071522D01*
G37*
G36*
X141667654Y-97071522D02*
G01*
X141674142Y-97075858D01*
X141678478Y-97082346D01*
X141680000Y-97090000D01*
X141680000Y-97550000D01*
X141678478Y-97557654D01*
X141674142Y-97564142D01*
X141667654Y-97568478D01*
X141660000Y-97570000D01*
X141440000Y-97570000D01*
X141432346Y-97568478D01*
X141425858Y-97564142D01*
X141421522Y-97557654D01*
X141420000Y-97550000D01*
X141420000Y-97090000D01*
X141421522Y-97082346D01*
X141425858Y-97075858D01*
X141432346Y-97071522D01*
X141440000Y-97070000D01*
X141660000Y-97070000D01*
X141667654Y-97071522D01*
G37*
G36*
X142167654Y-97071522D02*
G01*
X142174142Y-97075858D01*
X142178478Y-97082346D01*
X142180000Y-97090000D01*
X142180000Y-97550000D01*
X142178478Y-97557654D01*
X142174142Y-97564142D01*
X142167654Y-97568478D01*
X142160000Y-97570000D01*
X141940000Y-97570000D01*
X141932346Y-97568478D01*
X141925858Y-97564142D01*
X141921522Y-97557654D01*
X141920000Y-97550000D01*
X141920000Y-97090000D01*
X141921522Y-97082346D01*
X141925858Y-97075858D01*
X141932346Y-97071522D01*
X141940000Y-97070000D01*
X142160000Y-97070000D01*
X142167654Y-97071522D01*
G37*
G36*
X125789034Y-96779764D02*
G01*
X125822125Y-96801875D01*
X125844236Y-96834966D01*
X125852000Y-96874000D01*
X125852000Y-97414000D01*
X125844236Y-97453034D01*
X125822125Y-97486125D01*
X125789034Y-97508236D01*
X125750000Y-97516000D01*
X125150000Y-97516000D01*
X125110966Y-97508236D01*
X125077875Y-97486125D01*
X125055764Y-97453034D01*
X125048000Y-97414000D01*
X125048000Y-96874000D01*
X125055764Y-96834966D01*
X125077875Y-96801875D01*
X125110966Y-96779764D01*
X125150000Y-96772000D01*
X125750000Y-96772000D01*
X125789034Y-96779764D01*
G37*
G36*
X130489034Y-96779764D02*
G01*
X130522125Y-96801875D01*
X130544236Y-96834966D01*
X130552000Y-96874000D01*
X130552000Y-97414000D01*
X130544236Y-97453034D01*
X130522125Y-97486125D01*
X130489034Y-97508236D01*
X130450000Y-97516000D01*
X129850000Y-97516000D01*
X129810966Y-97508236D01*
X129777875Y-97486125D01*
X129755764Y-97453034D01*
X129748000Y-97414000D01*
X129748000Y-96874000D01*
X129755764Y-96834966D01*
X129777875Y-96801875D01*
X129810966Y-96779764D01*
X129850000Y-96772000D01*
X130450000Y-96772000D01*
X130489034Y-96779764D01*
G37*
G36*
X135189034Y-96779764D02*
G01*
X135222125Y-96801875D01*
X135244236Y-96834966D01*
X135252000Y-96874000D01*
X135252000Y-97414000D01*
X135244236Y-97453034D01*
X135222125Y-97486125D01*
X135189034Y-97508236D01*
X135150000Y-97516000D01*
X134550000Y-97516000D01*
X134510966Y-97508236D01*
X134477875Y-97486125D01*
X134455764Y-97453034D01*
X134448000Y-97414000D01*
X134448000Y-96874000D01*
X134455764Y-96834966D01*
X134477875Y-96801875D01*
X134510966Y-96779764D01*
X134550000Y-96772000D01*
X135150000Y-96772000D01*
X135189034Y-96779764D01*
G37*
G36*
X139889034Y-96779764D02*
G01*
X139922125Y-96801875D01*
X139944236Y-96834966D01*
X139952000Y-96874000D01*
X139952000Y-97414000D01*
X139944236Y-97453034D01*
X139922125Y-97486125D01*
X139889034Y-97508236D01*
X139850000Y-97516000D01*
X139250000Y-97516000D01*
X139210966Y-97508236D01*
X139177875Y-97486125D01*
X139155764Y-97453034D01*
X139148000Y-97414000D01*
X139148000Y-96874000D01*
X139155764Y-96834966D01*
X139177875Y-96801875D01*
X139210966Y-96779764D01*
X139250000Y-96772000D01*
X139850000Y-96772000D01*
X139889034Y-96779764D01*
G37*
G36*
X127957654Y-96181522D02*
G01*
X127964142Y-96185858D01*
X127968478Y-96192346D01*
X127970000Y-96200000D01*
X127970000Y-96900000D01*
X127968478Y-96907654D01*
X127964142Y-96914142D01*
X127957654Y-96918478D01*
X127950000Y-96920000D01*
X126950000Y-96920000D01*
X126942346Y-96918478D01*
X126935858Y-96914142D01*
X126931522Y-96907654D01*
X126930000Y-96900000D01*
X126930000Y-96200000D01*
X126931522Y-96192346D01*
X126935858Y-96185858D01*
X126942346Y-96181522D01*
X126950000Y-96180000D01*
X127950000Y-96180000D01*
X127957654Y-96181522D01*
G37*
G36*
X132657654Y-96181522D02*
G01*
X132664142Y-96185858D01*
X132668478Y-96192346D01*
X132670000Y-96200000D01*
X132670000Y-96900000D01*
X132668478Y-96907654D01*
X132664142Y-96914142D01*
X132657654Y-96918478D01*
X132650000Y-96920000D01*
X131650000Y-96920000D01*
X131642346Y-96918478D01*
X131635858Y-96914142D01*
X131631522Y-96907654D01*
X131630000Y-96900000D01*
X131630000Y-96200000D01*
X131631522Y-96192346D01*
X131635858Y-96185858D01*
X131642346Y-96181522D01*
X131650000Y-96180000D01*
X132650000Y-96180000D01*
X132657654Y-96181522D01*
G37*
G36*
X137357654Y-96181522D02*
G01*
X137364142Y-96185858D01*
X137368478Y-96192346D01*
X137370000Y-96200000D01*
X137370000Y-96900000D01*
X137368478Y-96907654D01*
X137364142Y-96914142D01*
X137357654Y-96918478D01*
X137350000Y-96920000D01*
X136350000Y-96920000D01*
X136342346Y-96918478D01*
X136335858Y-96914142D01*
X136331522Y-96907654D01*
X136330000Y-96900000D01*
X136330000Y-96200000D01*
X136331522Y-96192346D01*
X136335858Y-96185858D01*
X136342346Y-96181522D01*
X136350000Y-96180000D01*
X137350000Y-96180000D01*
X137357654Y-96181522D01*
G37*
G36*
X142057654Y-96181522D02*
G01*
X142064142Y-96185858D01*
X142068478Y-96192346D01*
X142070000Y-96200000D01*
X142070000Y-96900000D01*
X142068478Y-96907654D01*
X142064142Y-96914142D01*
X142057654Y-96918478D01*
X142050000Y-96920000D01*
X141050000Y-96920000D01*
X141042346Y-96918478D01*
X141035858Y-96914142D01*
X141031522Y-96907654D01*
X141030000Y-96900000D01*
X141030000Y-96200000D01*
X141031522Y-96192346D01*
X141035858Y-96185858D01*
X141042346Y-96181522D01*
X141050000Y-96180000D01*
X142050000Y-96180000D01*
X142057654Y-96181522D01*
G37*
G36*
X125789034Y-95915764D02*
G01*
X125822125Y-95937875D01*
X125844236Y-95970966D01*
X125852000Y-96010000D01*
X125852000Y-96550000D01*
X125844236Y-96589034D01*
X125822125Y-96622125D01*
X125789034Y-96644236D01*
X125750000Y-96652000D01*
X125150000Y-96652000D01*
X125110966Y-96644236D01*
X125077875Y-96622125D01*
X125055764Y-96589034D01*
X125048000Y-96550000D01*
X125048000Y-96010000D01*
X125055764Y-95970966D01*
X125077875Y-95937875D01*
X125110966Y-95915764D01*
X125150000Y-95908000D01*
X125750000Y-95908000D01*
X125789034Y-95915764D01*
G37*
G36*
X130489034Y-95915764D02*
G01*
X130522125Y-95937875D01*
X130544236Y-95970966D01*
X130552000Y-96010000D01*
X130552000Y-96550000D01*
X130544236Y-96589034D01*
X130522125Y-96622125D01*
X130489034Y-96644236D01*
X130450000Y-96652000D01*
X129850000Y-96652000D01*
X129810966Y-96644236D01*
X129777875Y-96622125D01*
X129755764Y-96589034D01*
X129748000Y-96550000D01*
X129748000Y-96010000D01*
X129755764Y-95970966D01*
X129777875Y-95937875D01*
X129810966Y-95915764D01*
X129850000Y-95908000D01*
X130450000Y-95908000D01*
X130489034Y-95915764D01*
G37*
G36*
X135189034Y-95915764D02*
G01*
X135222125Y-95937875D01*
X135244236Y-95970966D01*
X135252000Y-96010000D01*
X135252000Y-96550000D01*
X135244236Y-96589034D01*
X135222125Y-96622125D01*
X135189034Y-96644236D01*
X135150000Y-96652000D01*
X134550000Y-96652000D01*
X134510966Y-96644236D01*
X134477875Y-96622125D01*
X134455764Y-96589034D01*
X134448000Y-96550000D01*
X134448000Y-96010000D01*
X134455764Y-95970966D01*
X134477875Y-95937875D01*
X134510966Y-95915764D01*
X134550000Y-95908000D01*
X135150000Y-95908000D01*
X135189034Y-95915764D01*
G37*
G36*
X139889034Y-95915764D02*
G01*
X139922125Y-95937875D01*
X139944236Y-95970966D01*
X139952000Y-96010000D01*
X139952000Y-96550000D01*
X139944236Y-96589034D01*
X139922125Y-96622125D01*
X139889034Y-96644236D01*
X139850000Y-96652000D01*
X139250000Y-96652000D01*
X139210966Y-96644236D01*
X139177875Y-96622125D01*
X139155764Y-96589034D01*
X139148000Y-96550000D01*
X139148000Y-96010000D01*
X139155764Y-95970966D01*
X139177875Y-95937875D01*
X139210966Y-95915764D01*
X139250000Y-95908000D01*
X139850000Y-95908000D01*
X139889034Y-95915764D01*
G37*
G36*
X127067654Y-95531522D02*
G01*
X127074142Y-95535858D01*
X127078478Y-95542346D01*
X127080000Y-95550000D01*
X127080000Y-96010000D01*
X127078478Y-96017654D01*
X127074142Y-96024142D01*
X127067654Y-96028478D01*
X127060000Y-96030000D01*
X126840000Y-96030000D01*
X126832346Y-96028478D01*
X126825858Y-96024142D01*
X126821522Y-96017654D01*
X126820000Y-96010000D01*
X126820000Y-95550000D01*
X126821522Y-95542346D01*
X126825858Y-95535858D01*
X126832346Y-95531522D01*
X126840000Y-95530000D01*
X127060000Y-95530000D01*
X127067654Y-95531522D01*
G37*
G36*
X127567654Y-95531522D02*
G01*
X127574142Y-95535858D01*
X127578478Y-95542346D01*
X127580000Y-95550000D01*
X127580000Y-96010000D01*
X127578478Y-96017654D01*
X127574142Y-96024142D01*
X127567654Y-96028478D01*
X127560000Y-96030000D01*
X127340000Y-96030000D01*
X127332346Y-96028478D01*
X127325858Y-96024142D01*
X127321522Y-96017654D01*
X127320000Y-96010000D01*
X127320000Y-95550000D01*
X127321522Y-95542346D01*
X127325858Y-95535858D01*
X127332346Y-95531522D01*
X127340000Y-95530000D01*
X127560000Y-95530000D01*
X127567654Y-95531522D01*
G37*
G36*
X128067654Y-95531522D02*
G01*
X128074142Y-95535858D01*
X128078478Y-95542346D01*
X128080000Y-95550000D01*
X128080000Y-96010000D01*
X128078478Y-96017654D01*
X128074142Y-96024142D01*
X128067654Y-96028478D01*
X128060000Y-96030000D01*
X127840000Y-96030000D01*
X127832346Y-96028478D01*
X127825858Y-96024142D01*
X127821522Y-96017654D01*
X127820000Y-96010000D01*
X127820000Y-95550000D01*
X127821522Y-95542346D01*
X127825858Y-95535858D01*
X127832346Y-95531522D01*
X127840000Y-95530000D01*
X128060000Y-95530000D01*
X128067654Y-95531522D01*
G37*
G36*
X131767654Y-95531522D02*
G01*
X131774142Y-95535858D01*
X131778478Y-95542346D01*
X131780000Y-95550000D01*
X131780000Y-96010000D01*
X131778478Y-96017654D01*
X131774142Y-96024142D01*
X131767654Y-96028478D01*
X131760000Y-96030000D01*
X131540000Y-96030000D01*
X131532346Y-96028478D01*
X131525858Y-96024142D01*
X131521522Y-96017654D01*
X131520000Y-96010000D01*
X131520000Y-95550000D01*
X131521522Y-95542346D01*
X131525858Y-95535858D01*
X131532346Y-95531522D01*
X131540000Y-95530000D01*
X131760000Y-95530000D01*
X131767654Y-95531522D01*
G37*
G36*
X132267654Y-95531522D02*
G01*
X132274142Y-95535858D01*
X132278478Y-95542346D01*
X132280000Y-95550000D01*
X132280000Y-96010000D01*
X132278478Y-96017654D01*
X132274142Y-96024142D01*
X132267654Y-96028478D01*
X132260000Y-96030000D01*
X132040000Y-96030000D01*
X132032346Y-96028478D01*
X132025858Y-96024142D01*
X132021522Y-96017654D01*
X132020000Y-96010000D01*
X132020000Y-95550000D01*
X132021522Y-95542346D01*
X132025858Y-95535858D01*
X132032346Y-95531522D01*
X132040000Y-95530000D01*
X132260000Y-95530000D01*
X132267654Y-95531522D01*
G37*
G36*
X132767654Y-95531522D02*
G01*
X132774142Y-95535858D01*
X132778478Y-95542346D01*
X132780000Y-95550000D01*
X132780000Y-96010000D01*
X132778478Y-96017654D01*
X132774142Y-96024142D01*
X132767654Y-96028478D01*
X132760000Y-96030000D01*
X132540000Y-96030000D01*
X132532346Y-96028478D01*
X132525858Y-96024142D01*
X132521522Y-96017654D01*
X132520000Y-96010000D01*
X132520000Y-95550000D01*
X132521522Y-95542346D01*
X132525858Y-95535858D01*
X132532346Y-95531522D01*
X132540000Y-95530000D01*
X132760000Y-95530000D01*
X132767654Y-95531522D01*
G37*
G36*
X136467654Y-95531522D02*
G01*
X136474142Y-95535858D01*
X136478478Y-95542346D01*
X136480000Y-95550000D01*
X136480000Y-96010000D01*
X136478478Y-96017654D01*
X136474142Y-96024142D01*
X136467654Y-96028478D01*
X136460000Y-96030000D01*
X136240000Y-96030000D01*
X136232346Y-96028478D01*
X136225858Y-96024142D01*
X136221522Y-96017654D01*
X136220000Y-96010000D01*
X136220000Y-95550000D01*
X136221522Y-95542346D01*
X136225858Y-95535858D01*
X136232346Y-95531522D01*
X136240000Y-95530000D01*
X136460000Y-95530000D01*
X136467654Y-95531522D01*
G37*
G36*
X136967654Y-95531522D02*
G01*
X136974142Y-95535858D01*
X136978478Y-95542346D01*
X136980000Y-95550000D01*
X136980000Y-96010000D01*
X136978478Y-96017654D01*
X136974142Y-96024142D01*
X136967654Y-96028478D01*
X136960000Y-96030000D01*
X136740000Y-96030000D01*
X136732346Y-96028478D01*
X136725858Y-96024142D01*
X136721522Y-96017654D01*
X136720000Y-96010000D01*
X136720000Y-95550000D01*
X136721522Y-95542346D01*
X136725858Y-95535858D01*
X136732346Y-95531522D01*
X136740000Y-95530000D01*
X136960000Y-95530000D01*
X136967654Y-95531522D01*
G37*
G36*
X137467654Y-95531522D02*
G01*
X137474142Y-95535858D01*
X137478478Y-95542346D01*
X137480000Y-95550000D01*
X137480000Y-96010000D01*
X137478478Y-96017654D01*
X137474142Y-96024142D01*
X137467654Y-96028478D01*
X137460000Y-96030000D01*
X137240000Y-96030000D01*
X137232346Y-96028478D01*
X137225858Y-96024142D01*
X137221522Y-96017654D01*
X137220000Y-96010000D01*
X137220000Y-95550000D01*
X137221522Y-95542346D01*
X137225858Y-95535858D01*
X137232346Y-95531522D01*
X137240000Y-95530000D01*
X137460000Y-95530000D01*
X137467654Y-95531522D01*
G37*
G36*
X141167654Y-95531522D02*
G01*
X141174142Y-95535858D01*
X141178478Y-95542346D01*
X141180000Y-95550000D01*
X141180000Y-96010000D01*
X141178478Y-96017654D01*
X141174142Y-96024142D01*
X141167654Y-96028478D01*
X141160000Y-96030000D01*
X140940000Y-96030000D01*
X140932346Y-96028478D01*
X140925858Y-96024142D01*
X140921522Y-96017654D01*
X140920000Y-96010000D01*
X140920000Y-95550000D01*
X140921522Y-95542346D01*
X140925858Y-95535858D01*
X140932346Y-95531522D01*
X140940000Y-95530000D01*
X141160000Y-95530000D01*
X141167654Y-95531522D01*
G37*
G36*
X141667654Y-95531522D02*
G01*
X141674142Y-95535858D01*
X141678478Y-95542346D01*
X141680000Y-95550000D01*
X141680000Y-96010000D01*
X141678478Y-96017654D01*
X141674142Y-96024142D01*
X141667654Y-96028478D01*
X141660000Y-96030000D01*
X141440000Y-96030000D01*
X141432346Y-96028478D01*
X141425858Y-96024142D01*
X141421522Y-96017654D01*
X141420000Y-96010000D01*
X141420000Y-95550000D01*
X141421522Y-95542346D01*
X141425858Y-95535858D01*
X141432346Y-95531522D01*
X141440000Y-95530000D01*
X141660000Y-95530000D01*
X141667654Y-95531522D01*
G37*
G36*
X142167654Y-95531522D02*
G01*
X142174142Y-95535858D01*
X142178478Y-95542346D01*
X142180000Y-95550000D01*
X142180000Y-96010000D01*
X142178478Y-96017654D01*
X142174142Y-96024142D01*
X142167654Y-96028478D01*
X142160000Y-96030000D01*
X141940000Y-96030000D01*
X141932346Y-96028478D01*
X141925858Y-96024142D01*
X141921522Y-96017654D01*
X141920000Y-96010000D01*
X141920000Y-95550000D01*
X141921522Y-95542346D01*
X141925858Y-95535858D01*
X141932346Y-95531522D01*
X141940000Y-95530000D01*
X142160000Y-95530000D01*
X142167654Y-95531522D01*
G37*
M02*
