%TF.GenerationSoftware,KiCad,Pcbnew,9.0.2*%
%TF.CreationDate,2026-05-20T07:34:03+09:00*%
%TF.ProjectId,4x4,3478342e-6b69-4636-9164-5f7063625858,rev?*%
%TF.SameCoordinates,Original*%
%TF.FileFunction,Legend,Top*%
%TF.FilePolarity,Positive*%
%FSLAX46Y46*%
G04 Gerber Fmt 4.6, Leading zero omitted, Abs format (unit mm)*
G04 Created by KiCad (PCBNEW 9.0.2) date 2026-05-20 07:34:03*
%MOMM*%
%LPD*%
G01*
G04 APERTURE LIST*
%ADD10C,0.100000*%
%ADD11C,0.125000*%
%ADD12C,0.110000*%
%ADD13C,0.508000*%
%ADD14C,0.152400*%
G04 APERTURE END LIST*
D10*
X127145238Y-94951109D02*
X127478571Y-95451109D01*
X127478571Y-94951109D02*
X127145238Y-95451109D01*
X127883333Y-95117776D02*
X127883333Y-95451109D01*
X127764285Y-94927300D02*
X127645238Y-95284442D01*
X127645238Y-95284442D02*
X127954761Y-95284442D01*
X126620238Y-104226109D02*
X126953571Y-104726109D01*
X126953571Y-104226109D02*
X126620238Y-104726109D01*
X127120238Y-104273728D02*
X127144047Y-104249919D01*
X127144047Y-104249919D02*
X127191666Y-104226109D01*
X127191666Y-104226109D02*
X127310714Y-104226109D01*
X127310714Y-104226109D02*
X127358333Y-104249919D01*
X127358333Y-104249919D02*
X127382142Y-104273728D01*
X127382142Y-104273728D02*
X127405952Y-104321347D01*
X127405952Y-104321347D02*
X127405952Y-104368966D01*
X127405952Y-104368966D02*
X127382142Y-104440395D01*
X127382142Y-104440395D02*
X127096428Y-104726109D01*
X127096428Y-104726109D02*
X127405952Y-104726109D01*
D11*
X146961997Y-102507309D02*
X146795331Y-102269214D01*
X146676283Y-102507309D02*
X146676283Y-102007309D01*
X146676283Y-102007309D02*
X146866759Y-102007309D01*
X146866759Y-102007309D02*
X146914378Y-102031119D01*
X146914378Y-102031119D02*
X146938188Y-102054928D01*
X146938188Y-102054928D02*
X146961997Y-102102547D01*
X146961997Y-102102547D02*
X146961997Y-102173976D01*
X146961997Y-102173976D02*
X146938188Y-102221595D01*
X146938188Y-102221595D02*
X146914378Y-102245404D01*
X146914378Y-102245404D02*
X146866759Y-102269214D01*
X146866759Y-102269214D02*
X146676283Y-102269214D01*
X147128664Y-102007309D02*
X147461997Y-102507309D01*
X147461997Y-102007309D02*
X147128664Y-102507309D01*
D10*
X126620238Y-108926109D02*
X126953571Y-109426109D01*
X126953571Y-108926109D02*
X126620238Y-109426109D01*
X127405952Y-109426109D02*
X127120238Y-109426109D01*
X127263095Y-109426109D02*
X127263095Y-108926109D01*
X127263095Y-108926109D02*
X127215476Y-108997538D01*
X127215476Y-108997538D02*
X127167857Y-109045157D01*
X127167857Y-109045157D02*
X127120238Y-109068966D01*
D11*
X118313188Y-99856119D02*
X118265569Y-99832309D01*
X118265569Y-99832309D02*
X118194140Y-99832309D01*
X118194140Y-99832309D02*
X118122712Y-99856119D01*
X118122712Y-99856119D02*
X118075093Y-99903738D01*
X118075093Y-99903738D02*
X118051283Y-99951357D01*
X118051283Y-99951357D02*
X118027474Y-100046595D01*
X118027474Y-100046595D02*
X118027474Y-100118023D01*
X118027474Y-100118023D02*
X118051283Y-100213261D01*
X118051283Y-100213261D02*
X118075093Y-100260880D01*
X118075093Y-100260880D02*
X118122712Y-100308500D01*
X118122712Y-100308500D02*
X118194140Y-100332309D01*
X118194140Y-100332309D02*
X118241759Y-100332309D01*
X118241759Y-100332309D02*
X118313188Y-100308500D01*
X118313188Y-100308500D02*
X118336997Y-100284690D01*
X118336997Y-100284690D02*
X118336997Y-100118023D01*
X118336997Y-100118023D02*
X118241759Y-100118023D01*
X118551283Y-100332309D02*
X118551283Y-99832309D01*
X118551283Y-99832309D02*
X118836997Y-100332309D01*
X118836997Y-100332309D02*
X118836997Y-99832309D01*
X119075093Y-100332309D02*
X119075093Y-99832309D01*
X119075093Y-99832309D02*
X119194141Y-99832309D01*
X119194141Y-99832309D02*
X119265569Y-99856119D01*
X119265569Y-99856119D02*
X119313188Y-99903738D01*
X119313188Y-99903738D02*
X119336998Y-99951357D01*
X119336998Y-99951357D02*
X119360807Y-100046595D01*
X119360807Y-100046595D02*
X119360807Y-100118023D01*
X119360807Y-100118023D02*
X119336998Y-100213261D01*
X119336998Y-100213261D02*
X119313188Y-100260880D01*
X119313188Y-100260880D02*
X119265569Y-100308500D01*
X119265569Y-100308500D02*
X119194141Y-100332309D01*
X119194141Y-100332309D02*
X119075093Y-100332309D01*
D10*
X126620238Y-99526109D02*
X126953571Y-100026109D01*
X126953571Y-99526109D02*
X126620238Y-100026109D01*
X127096428Y-99526109D02*
X127405952Y-99526109D01*
X127405952Y-99526109D02*
X127239285Y-99716585D01*
X127239285Y-99716585D02*
X127310714Y-99716585D01*
X127310714Y-99716585D02*
X127358333Y-99740395D01*
X127358333Y-99740395D02*
X127382142Y-99764204D01*
X127382142Y-99764204D02*
X127405952Y-99811823D01*
X127405952Y-99811823D02*
X127405952Y-99930871D01*
X127405952Y-99930871D02*
X127382142Y-99978490D01*
X127382142Y-99978490D02*
X127358333Y-100002300D01*
X127358333Y-100002300D02*
X127310714Y-100026109D01*
X127310714Y-100026109D02*
X127167857Y-100026109D01*
X127167857Y-100026109D02*
X127120238Y-100002300D01*
X127120238Y-100002300D02*
X127096428Y-99978490D01*
D11*
X118079855Y-107712309D02*
X118246521Y-108212309D01*
X118246521Y-108212309D02*
X118413188Y-107712309D01*
X118579854Y-108212309D02*
X118579854Y-107712309D01*
X118579854Y-107712309D02*
X118698902Y-107712309D01*
X118698902Y-107712309D02*
X118770330Y-107736119D01*
X118770330Y-107736119D02*
X118817949Y-107783738D01*
X118817949Y-107783738D02*
X118841759Y-107831357D01*
X118841759Y-107831357D02*
X118865568Y-107926595D01*
X118865568Y-107926595D02*
X118865568Y-107998023D01*
X118865568Y-107998023D02*
X118841759Y-108093261D01*
X118841759Y-108093261D02*
X118817949Y-108140880D01*
X118817949Y-108140880D02*
X118770330Y-108188500D01*
X118770330Y-108188500D02*
X118698902Y-108212309D01*
X118698902Y-108212309D02*
X118579854Y-108212309D01*
X119079854Y-108212309D02*
X119079854Y-107712309D01*
X119079854Y-107712309D02*
X119198902Y-107712309D01*
X119198902Y-107712309D02*
X119270330Y-107736119D01*
X119270330Y-107736119D02*
X119317949Y-107783738D01*
X119317949Y-107783738D02*
X119341759Y-107831357D01*
X119341759Y-107831357D02*
X119365568Y-107926595D01*
X119365568Y-107926595D02*
X119365568Y-107998023D01*
X119365568Y-107998023D02*
X119341759Y-108093261D01*
X119341759Y-108093261D02*
X119317949Y-108140880D01*
X119317949Y-108140880D02*
X119270330Y-108188500D01*
X119270330Y-108188500D02*
X119198902Y-108212309D01*
X119198902Y-108212309D02*
X119079854Y-108212309D01*
X146704855Y-105757309D02*
X146990569Y-105757309D01*
X146847712Y-106257309D02*
X146847712Y-105757309D01*
X147109616Y-105757309D02*
X147442949Y-106257309D01*
X147442949Y-105757309D02*
X147109616Y-106257309D01*
D10*
X131320238Y-94826109D02*
X131653571Y-95326109D01*
X131653571Y-94826109D02*
X131320238Y-95326109D01*
X131915476Y-95040395D02*
X131867857Y-95016585D01*
X131867857Y-95016585D02*
X131844047Y-94992776D01*
X131844047Y-94992776D02*
X131820238Y-94945157D01*
X131820238Y-94945157D02*
X131820238Y-94921347D01*
X131820238Y-94921347D02*
X131844047Y-94873728D01*
X131844047Y-94873728D02*
X131867857Y-94849919D01*
X131867857Y-94849919D02*
X131915476Y-94826109D01*
X131915476Y-94826109D02*
X132010714Y-94826109D01*
X132010714Y-94826109D02*
X132058333Y-94849919D01*
X132058333Y-94849919D02*
X132082142Y-94873728D01*
X132082142Y-94873728D02*
X132105952Y-94921347D01*
X132105952Y-94921347D02*
X132105952Y-94945157D01*
X132105952Y-94945157D02*
X132082142Y-94992776D01*
X132082142Y-94992776D02*
X132058333Y-95016585D01*
X132058333Y-95016585D02*
X132010714Y-95040395D01*
X132010714Y-95040395D02*
X131915476Y-95040395D01*
X131915476Y-95040395D02*
X131867857Y-95064204D01*
X131867857Y-95064204D02*
X131844047Y-95088014D01*
X131844047Y-95088014D02*
X131820238Y-95135633D01*
X131820238Y-95135633D02*
X131820238Y-95230871D01*
X131820238Y-95230871D02*
X131844047Y-95278490D01*
X131844047Y-95278490D02*
X131867857Y-95302300D01*
X131867857Y-95302300D02*
X131915476Y-95326109D01*
X131915476Y-95326109D02*
X132010714Y-95326109D01*
X132010714Y-95326109D02*
X132058333Y-95302300D01*
X132058333Y-95302300D02*
X132082142Y-95278490D01*
X132082142Y-95278490D02*
X132105952Y-95230871D01*
X132105952Y-95230871D02*
X132105952Y-95135633D01*
X132105952Y-95135633D02*
X132082142Y-95088014D01*
X132082142Y-95088014D02*
X132058333Y-95064204D01*
X132058333Y-95064204D02*
X132010714Y-95040395D01*
X140482143Y-99526109D02*
X140815476Y-100026109D01*
X140815476Y-99526109D02*
X140482143Y-100026109D01*
X141267857Y-100026109D02*
X140982143Y-100026109D01*
X141125000Y-100026109D02*
X141125000Y-99526109D01*
X141125000Y-99526109D02*
X141077381Y-99597538D01*
X141077381Y-99597538D02*
X141029762Y-99645157D01*
X141029762Y-99645157D02*
X140982143Y-99668966D01*
X141720237Y-99526109D02*
X141482142Y-99526109D01*
X141482142Y-99526109D02*
X141458333Y-99764204D01*
X141458333Y-99764204D02*
X141482142Y-99740395D01*
X141482142Y-99740395D02*
X141529761Y-99716585D01*
X141529761Y-99716585D02*
X141648809Y-99716585D01*
X141648809Y-99716585D02*
X141696428Y-99740395D01*
X141696428Y-99740395D02*
X141720237Y-99764204D01*
X141720237Y-99764204D02*
X141744047Y-99811823D01*
X141744047Y-99811823D02*
X141744047Y-99930871D01*
X141744047Y-99930871D02*
X141720237Y-99978490D01*
X141720237Y-99978490D02*
X141696428Y-100002300D01*
X141696428Y-100002300D02*
X141648809Y-100026109D01*
X141648809Y-100026109D02*
X141529761Y-100026109D01*
X141529761Y-100026109D02*
X141482142Y-100002300D01*
X141482142Y-100002300D02*
X141458333Y-99978490D01*
X131320238Y-99526109D02*
X131653571Y-100026109D01*
X131653571Y-99526109D02*
X131320238Y-100026109D01*
X131796428Y-99526109D02*
X132129761Y-99526109D01*
X132129761Y-99526109D02*
X131915476Y-100026109D01*
X135782143Y-104226109D02*
X136115476Y-104726109D01*
X136115476Y-104226109D02*
X135782143Y-104726109D01*
X136567857Y-104726109D02*
X136282143Y-104726109D01*
X136425000Y-104726109D02*
X136425000Y-104226109D01*
X136425000Y-104226109D02*
X136377381Y-104297538D01*
X136377381Y-104297538D02*
X136329762Y-104345157D01*
X136329762Y-104345157D02*
X136282143Y-104368966D01*
X136877380Y-104226109D02*
X136924999Y-104226109D01*
X136924999Y-104226109D02*
X136972618Y-104249919D01*
X136972618Y-104249919D02*
X136996428Y-104273728D01*
X136996428Y-104273728D02*
X137020237Y-104321347D01*
X137020237Y-104321347D02*
X137044047Y-104416585D01*
X137044047Y-104416585D02*
X137044047Y-104535633D01*
X137044047Y-104535633D02*
X137020237Y-104630871D01*
X137020237Y-104630871D02*
X136996428Y-104678490D01*
X136996428Y-104678490D02*
X136972618Y-104702300D01*
X136972618Y-104702300D02*
X136924999Y-104726109D01*
X136924999Y-104726109D02*
X136877380Y-104726109D01*
X136877380Y-104726109D02*
X136829761Y-104702300D01*
X136829761Y-104702300D02*
X136805952Y-104678490D01*
X136805952Y-104678490D02*
X136782142Y-104630871D01*
X136782142Y-104630871D02*
X136758333Y-104535633D01*
X136758333Y-104535633D02*
X136758333Y-104416585D01*
X136758333Y-104416585D02*
X136782142Y-104321347D01*
X136782142Y-104321347D02*
X136805952Y-104273728D01*
X136805952Y-104273728D02*
X136829761Y-104249919D01*
X136829761Y-104249919D02*
X136877380Y-104226109D01*
X140482143Y-104226109D02*
X140815476Y-104726109D01*
X140815476Y-104226109D02*
X140482143Y-104726109D01*
X141267857Y-104726109D02*
X140982143Y-104726109D01*
X141125000Y-104726109D02*
X141125000Y-104226109D01*
X141125000Y-104226109D02*
X141077381Y-104297538D01*
X141077381Y-104297538D02*
X141029762Y-104345157D01*
X141029762Y-104345157D02*
X140982143Y-104368966D01*
X141696428Y-104392776D02*
X141696428Y-104726109D01*
X141577380Y-104202300D02*
X141458333Y-104559442D01*
X141458333Y-104559442D02*
X141767856Y-104559442D01*
X140482143Y-108926109D02*
X140815476Y-109426109D01*
X140815476Y-108926109D02*
X140482143Y-109426109D01*
X141267857Y-109426109D02*
X140982143Y-109426109D01*
X141125000Y-109426109D02*
X141125000Y-108926109D01*
X141125000Y-108926109D02*
X141077381Y-108997538D01*
X141077381Y-108997538D02*
X141029762Y-109045157D01*
X141029762Y-109045157D02*
X140982143Y-109068966D01*
X141434523Y-108926109D02*
X141744047Y-108926109D01*
X141744047Y-108926109D02*
X141577380Y-109116585D01*
X141577380Y-109116585D02*
X141648809Y-109116585D01*
X141648809Y-109116585D02*
X141696428Y-109140395D01*
X141696428Y-109140395D02*
X141720237Y-109164204D01*
X141720237Y-109164204D02*
X141744047Y-109211823D01*
X141744047Y-109211823D02*
X141744047Y-109330871D01*
X141744047Y-109330871D02*
X141720237Y-109378490D01*
X141720237Y-109378490D02*
X141696428Y-109402300D01*
X141696428Y-109402300D02*
X141648809Y-109426109D01*
X141648809Y-109426109D02*
X141505952Y-109426109D01*
X141505952Y-109426109D02*
X141458333Y-109402300D01*
X141458333Y-109402300D02*
X141434523Y-109378490D01*
X135782143Y-99526109D02*
X136115476Y-100026109D01*
X136115476Y-99526109D02*
X135782143Y-100026109D01*
X136567857Y-100026109D02*
X136282143Y-100026109D01*
X136425000Y-100026109D02*
X136425000Y-99526109D01*
X136425000Y-99526109D02*
X136377381Y-99597538D01*
X136377381Y-99597538D02*
X136329762Y-99645157D01*
X136329762Y-99645157D02*
X136282143Y-99668966D01*
X137044047Y-100026109D02*
X136758333Y-100026109D01*
X136901190Y-100026109D02*
X136901190Y-99526109D01*
X136901190Y-99526109D02*
X136853571Y-99597538D01*
X136853571Y-99597538D02*
X136805952Y-99645157D01*
X136805952Y-99645157D02*
X136758333Y-99668966D01*
X140482143Y-94826109D02*
X140815476Y-95326109D01*
X140815476Y-94826109D02*
X140482143Y-95326109D01*
X141267857Y-95326109D02*
X140982143Y-95326109D01*
X141125000Y-95326109D02*
X141125000Y-94826109D01*
X141125000Y-94826109D02*
X141077381Y-94897538D01*
X141077381Y-94897538D02*
X141029762Y-94945157D01*
X141029762Y-94945157D02*
X140982143Y-94968966D01*
X141696428Y-94826109D02*
X141601190Y-94826109D01*
X141601190Y-94826109D02*
X141553571Y-94849919D01*
X141553571Y-94849919D02*
X141529761Y-94873728D01*
X141529761Y-94873728D02*
X141482142Y-94945157D01*
X141482142Y-94945157D02*
X141458333Y-95040395D01*
X141458333Y-95040395D02*
X141458333Y-95230871D01*
X141458333Y-95230871D02*
X141482142Y-95278490D01*
X141482142Y-95278490D02*
X141505952Y-95302300D01*
X141505952Y-95302300D02*
X141553571Y-95326109D01*
X141553571Y-95326109D02*
X141648809Y-95326109D01*
X141648809Y-95326109D02*
X141696428Y-95302300D01*
X141696428Y-95302300D02*
X141720237Y-95278490D01*
X141720237Y-95278490D02*
X141744047Y-95230871D01*
X141744047Y-95230871D02*
X141744047Y-95111823D01*
X141744047Y-95111823D02*
X141720237Y-95064204D01*
X141720237Y-95064204D02*
X141696428Y-95040395D01*
X141696428Y-95040395D02*
X141648809Y-95016585D01*
X141648809Y-95016585D02*
X141553571Y-95016585D01*
X141553571Y-95016585D02*
X141505952Y-95040395D01*
X141505952Y-95040395D02*
X141482142Y-95064204D01*
X141482142Y-95064204D02*
X141458333Y-95111823D01*
D11*
X129833333Y-122024809D02*
X129833333Y-122381952D01*
X129833333Y-122381952D02*
X129809524Y-122453380D01*
X129809524Y-122453380D02*
X129761905Y-122501000D01*
X129761905Y-122501000D02*
X129690476Y-122524809D01*
X129690476Y-122524809D02*
X129642857Y-122524809D01*
X130333333Y-122524809D02*
X130047619Y-122524809D01*
X130190476Y-122524809D02*
X130190476Y-122024809D01*
X130190476Y-122024809D02*
X130142857Y-122096238D01*
X130142857Y-122096238D02*
X130095238Y-122143857D01*
X130095238Y-122143857D02*
X130047619Y-122167666D01*
D10*
X131320238Y-108926109D02*
X131653571Y-109426109D01*
X131653571Y-108926109D02*
X131320238Y-109426109D01*
X132082142Y-108926109D02*
X131844047Y-108926109D01*
X131844047Y-108926109D02*
X131820238Y-109164204D01*
X131820238Y-109164204D02*
X131844047Y-109140395D01*
X131844047Y-109140395D02*
X131891666Y-109116585D01*
X131891666Y-109116585D02*
X132010714Y-109116585D01*
X132010714Y-109116585D02*
X132058333Y-109140395D01*
X132058333Y-109140395D02*
X132082142Y-109164204D01*
X132082142Y-109164204D02*
X132105952Y-109211823D01*
X132105952Y-109211823D02*
X132105952Y-109330871D01*
X132105952Y-109330871D02*
X132082142Y-109378490D01*
X132082142Y-109378490D02*
X132058333Y-109402300D01*
X132058333Y-109402300D02*
X132010714Y-109426109D01*
X132010714Y-109426109D02*
X131891666Y-109426109D01*
X131891666Y-109426109D02*
X131844047Y-109402300D01*
X131844047Y-109402300D02*
X131820238Y-109378490D01*
X131320238Y-104226109D02*
X131653571Y-104726109D01*
X131653571Y-104226109D02*
X131320238Y-104726109D01*
X132058333Y-104226109D02*
X131963095Y-104226109D01*
X131963095Y-104226109D02*
X131915476Y-104249919D01*
X131915476Y-104249919D02*
X131891666Y-104273728D01*
X131891666Y-104273728D02*
X131844047Y-104345157D01*
X131844047Y-104345157D02*
X131820238Y-104440395D01*
X131820238Y-104440395D02*
X131820238Y-104630871D01*
X131820238Y-104630871D02*
X131844047Y-104678490D01*
X131844047Y-104678490D02*
X131867857Y-104702300D01*
X131867857Y-104702300D02*
X131915476Y-104726109D01*
X131915476Y-104726109D02*
X132010714Y-104726109D01*
X132010714Y-104726109D02*
X132058333Y-104702300D01*
X132058333Y-104702300D02*
X132082142Y-104678490D01*
X132082142Y-104678490D02*
X132105952Y-104630871D01*
X132105952Y-104630871D02*
X132105952Y-104511823D01*
X132105952Y-104511823D02*
X132082142Y-104464204D01*
X132082142Y-104464204D02*
X132058333Y-104440395D01*
X132058333Y-104440395D02*
X132010714Y-104416585D01*
X132010714Y-104416585D02*
X131915476Y-104416585D01*
X131915476Y-104416585D02*
X131867857Y-104440395D01*
X131867857Y-104440395D02*
X131844047Y-104464204D01*
X131844047Y-104464204D02*
X131820238Y-104511823D01*
X136020238Y-108926109D02*
X136353571Y-109426109D01*
X136353571Y-108926109D02*
X136020238Y-109426109D01*
X136567857Y-109426109D02*
X136663095Y-109426109D01*
X136663095Y-109426109D02*
X136710714Y-109402300D01*
X136710714Y-109402300D02*
X136734523Y-109378490D01*
X136734523Y-109378490D02*
X136782142Y-109307061D01*
X136782142Y-109307061D02*
X136805952Y-109211823D01*
X136805952Y-109211823D02*
X136805952Y-109021347D01*
X136805952Y-109021347D02*
X136782142Y-108973728D01*
X136782142Y-108973728D02*
X136758333Y-108949919D01*
X136758333Y-108949919D02*
X136710714Y-108926109D01*
X136710714Y-108926109D02*
X136615476Y-108926109D01*
X136615476Y-108926109D02*
X136567857Y-108949919D01*
X136567857Y-108949919D02*
X136544047Y-108973728D01*
X136544047Y-108973728D02*
X136520238Y-109021347D01*
X136520238Y-109021347D02*
X136520238Y-109140395D01*
X136520238Y-109140395D02*
X136544047Y-109188014D01*
X136544047Y-109188014D02*
X136567857Y-109211823D01*
X136567857Y-109211823D02*
X136615476Y-109235633D01*
X136615476Y-109235633D02*
X136710714Y-109235633D01*
X136710714Y-109235633D02*
X136758333Y-109211823D01*
X136758333Y-109211823D02*
X136782142Y-109188014D01*
X136782142Y-109188014D02*
X136805952Y-109140395D01*
X135782143Y-94826109D02*
X136115476Y-95326109D01*
X136115476Y-94826109D02*
X135782143Y-95326109D01*
X136567857Y-95326109D02*
X136282143Y-95326109D01*
X136425000Y-95326109D02*
X136425000Y-94826109D01*
X136425000Y-94826109D02*
X136377381Y-94897538D01*
X136377381Y-94897538D02*
X136329762Y-94945157D01*
X136329762Y-94945157D02*
X136282143Y-94968966D01*
X136758333Y-94873728D02*
X136782142Y-94849919D01*
X136782142Y-94849919D02*
X136829761Y-94826109D01*
X136829761Y-94826109D02*
X136948809Y-94826109D01*
X136948809Y-94826109D02*
X136996428Y-94849919D01*
X136996428Y-94849919D02*
X137020237Y-94873728D01*
X137020237Y-94873728D02*
X137044047Y-94921347D01*
X137044047Y-94921347D02*
X137044047Y-94968966D01*
X137044047Y-94968966D02*
X137020237Y-95040395D01*
X137020237Y-95040395D02*
X136734523Y-95326109D01*
X136734523Y-95326109D02*
X137044047Y-95326109D01*
%TO.C,X8*%
X131400000Y-95800000D02*
X132900000Y-95800000D01*
X132900000Y-97300000D01*
X131400000Y-97300000D01*
X131400000Y-95800000D01*
D12*
X131305000Y-97450000D02*
G75*
G02*
X131195000Y-97450000I-55000J0D01*
G01*
X131195000Y-97450000D02*
G75*
G02*
X131305000Y-97450000I55000J0D01*
G01*
%TO.C,X3*%
D10*
X126700000Y-100500000D02*
X128200000Y-100500000D01*
X128200000Y-102000000D01*
X126700000Y-102000000D01*
X126700000Y-100500000D01*
D12*
X126605000Y-102150000D02*
G75*
G02*
X126495000Y-102150000I-55000J0D01*
G01*
X126495000Y-102150000D02*
G75*
G02*
X126605000Y-102150000I55000J0D01*
G01*
%TO.C,X15*%
D10*
X140800000Y-100500000D02*
X142300000Y-100500000D01*
X142300000Y-102000000D01*
X140800000Y-102000000D01*
X140800000Y-100500000D01*
D12*
X140705000Y-102150000D02*
G75*
G02*
X140595000Y-102150000I-55000J0D01*
G01*
X140595000Y-102150000D02*
G75*
G02*
X140705000Y-102150000I55000J0D01*
G01*
%TO.C,X7*%
D10*
X131400000Y-100500000D02*
X132900000Y-100500000D01*
X132900000Y-102000000D01*
X131400000Y-102000000D01*
X131400000Y-100500000D01*
D12*
X131305000Y-102150000D02*
G75*
G02*
X131195000Y-102150000I-55000J0D01*
G01*
X131195000Y-102150000D02*
G75*
G02*
X131305000Y-102150000I55000J0D01*
G01*
%TO.C,X4*%
D10*
X126700000Y-95800000D02*
X128200000Y-95800000D01*
X128200000Y-97300000D01*
X126700000Y-97300000D01*
X126700000Y-95800000D01*
D12*
X126605000Y-97450000D02*
G75*
G02*
X126495000Y-97450000I-55000J0D01*
G01*
X126495000Y-97450000D02*
G75*
G02*
X126605000Y-97450000I55000J0D01*
G01*
%TO.C,X2*%
D10*
X126700000Y-105200000D02*
X128200000Y-105200000D01*
X128200000Y-106700000D01*
X126700000Y-106700000D01*
X126700000Y-105200000D01*
D12*
X126605000Y-106850000D02*
G75*
G02*
X126495000Y-106850000I-55000J0D01*
G01*
X126495000Y-106850000D02*
G75*
G02*
X126605000Y-106850000I55000J0D01*
G01*
%TO.C,X10*%
D10*
X136100000Y-105200000D02*
X137600000Y-105200000D01*
X137600000Y-106700000D01*
X136100000Y-106700000D01*
X136100000Y-105200000D01*
D12*
X136005000Y-106850000D02*
G75*
G02*
X135895000Y-106850000I-55000J0D01*
G01*
X135895000Y-106850000D02*
G75*
G02*
X136005000Y-106850000I55000J0D01*
G01*
%TO.C,X14*%
D10*
X140800000Y-105200000D02*
X142300000Y-105200000D01*
X142300000Y-106700000D01*
X140800000Y-106700000D01*
X140800000Y-105200000D01*
D12*
X140705000Y-106850000D02*
G75*
G02*
X140595000Y-106850000I-55000J0D01*
G01*
X140595000Y-106850000D02*
G75*
G02*
X140705000Y-106850000I55000J0D01*
G01*
%TO.C,X13*%
D10*
X140800000Y-109900000D02*
X142300000Y-109900000D01*
X142300000Y-111400000D01*
X140800000Y-111400000D01*
X140800000Y-109900000D01*
D12*
X140705000Y-111550000D02*
G75*
G02*
X140595000Y-111550000I-55000J0D01*
G01*
X140595000Y-111550000D02*
G75*
G02*
X140705000Y-111550000I55000J0D01*
G01*
%TO.C,X11*%
D10*
X136100000Y-100500000D02*
X137600000Y-100500000D01*
X137600000Y-102000000D01*
X136100000Y-102000000D01*
X136100000Y-100500000D01*
D12*
X136005000Y-102150000D02*
G75*
G02*
X135895000Y-102150000I-55000J0D01*
G01*
X135895000Y-102150000D02*
G75*
G02*
X136005000Y-102150000I55000J0D01*
G01*
%TO.C,X16*%
D10*
X140800000Y-95800000D02*
X142300000Y-95800000D01*
X142300000Y-97300000D01*
X140800000Y-97300000D01*
X140800000Y-95800000D01*
D12*
X140705000Y-97450000D02*
G75*
G02*
X140595000Y-97450000I-55000J0D01*
G01*
X140595000Y-97450000D02*
G75*
G02*
X140705000Y-97450000I55000J0D01*
G01*
D13*
%TO.C,J1*%
X131121800Y-118201500D02*
G75*
G02*
X130359800Y-118201500I-381000J0D01*
G01*
X130359800Y-118201500D02*
G75*
G02*
X131121800Y-118201500I381000J0D01*
G01*
D14*
X137624200Y-120791261D02*
X137624200Y-117696500D01*
X137624200Y-117696500D02*
X136662940Y-117696500D01*
X132680441Y-122903500D02*
X136319559Y-122903500D01*
X132337060Y-117696500D02*
X131375800Y-117696500D01*
X131375800Y-117696500D02*
X131375800Y-120791261D01*
%TO.C,X1*%
D10*
X126700000Y-109900000D02*
X128200000Y-109900000D01*
X128200000Y-111400000D01*
X126700000Y-111400000D01*
X126700000Y-109900000D01*
D12*
X126605000Y-111550000D02*
G75*
G02*
X126495000Y-111550000I-55000J0D01*
G01*
X126495000Y-111550000D02*
G75*
G02*
X126605000Y-111550000I55000J0D01*
G01*
%TO.C,X5*%
D10*
X131400000Y-109900000D02*
X132900000Y-109900000D01*
X132900000Y-111400000D01*
X131400000Y-111400000D01*
X131400000Y-109900000D01*
D12*
X131305000Y-111550000D02*
G75*
G02*
X131195000Y-111550000I-55000J0D01*
G01*
X131195000Y-111550000D02*
G75*
G02*
X131305000Y-111550000I55000J0D01*
G01*
%TO.C,X6*%
D10*
X131400000Y-105200000D02*
X132900000Y-105200000D01*
X132900000Y-106700000D01*
X131400000Y-106700000D01*
X131400000Y-105200000D01*
D12*
X131305000Y-106850000D02*
G75*
G02*
X131195000Y-106850000I-55000J0D01*
G01*
X131195000Y-106850000D02*
G75*
G02*
X131305000Y-106850000I55000J0D01*
G01*
%TO.C,X9*%
D10*
X136100000Y-109900000D02*
X137600000Y-109900000D01*
X137600000Y-111400000D01*
X136100000Y-111400000D01*
X136100000Y-109900000D01*
D12*
X136005000Y-111550000D02*
G75*
G02*
X135895000Y-111550000I-55000J0D01*
G01*
X135895000Y-111550000D02*
G75*
G02*
X136005000Y-111550000I55000J0D01*
G01*
%TO.C,X12*%
D10*
X136100000Y-95800000D02*
X137600000Y-95800000D01*
X137600000Y-97300000D01*
X136100000Y-97300000D01*
X136100000Y-95800000D01*
D12*
X136005000Y-97450000D02*
G75*
G02*
X135895000Y-97450000I-55000J0D01*
G01*
X135895000Y-97450000D02*
G75*
G02*
X136005000Y-97450000I55000J0D01*
G01*
%TD*%
M02*
